ISO-10303-21;
HEADER;
FILE_DESCRIPTION(('Open CASCADE Model'),'2;1');
FILE_NAME('Open CASCADE Shape Model','2026-03-24T18:50:26',('Author'),(
    'Open CASCADE'),'Open CASCADE STEP processor 7.7','Open CASCADE 7.7'
  ,'Unknown');
FILE_SCHEMA(('AUTOMOTIVE_DESIGN { 1 0 10303 214 1 1 1 1 }'));
ENDSEC;
DATA;
#1 = APPLICATION_PROTOCOL_DEFINITION('international standard',
  'automotive_design',2000,#2);
#2 = APPLICATION_CONTEXT(
  'core data for automotive mechanical design processes');
#3 = SHAPE_DEFINITION_REPRESENTATION(#4,#10);
#4 = PRODUCT_DEFINITION_SHAPE('','',#5);
#5 = PRODUCT_DEFINITION('design','',#6,#9);
#6 = PRODUCT_DEFINITION_FORMATION('','',#7);
#7 = PRODUCT('Open CASCADE STEP translator 7.7 1',
  'Open CASCADE STEP translator 7.7 1','',(#8));
#8 = PRODUCT_CONTEXT('',#2,'mechanical');
#9 = PRODUCT_DEFINITION_CONTEXT('part definition',#2,'design');
#10 = ADVANCED_BREP_SHAPE_REPRESENTATION('',(#11,#15),#730);
#11 = AXIS2_PLACEMENT_3D('',#12,#13,#14);
#12 = CARTESIAN_POINT('',(0.,0.,0.));
#13 = DIRECTION('',(0.,0.,1.));
#14 = DIRECTION('',(1.,0.,-0.));
#15 = MANIFOLD_SOLID_BREP('',#16);
#16 = CLOSED_SHELL('',(#17,#542,#546,#632,#667,#671,#726));
#17 = ADVANCED_FACE('',(#18),#31,.T.);
#18 = FACE_BOUND('',#19,.T.);
#19 = EDGE_LOOP('',(#20,#54,#77,#541));
#20 = ORIENTED_EDGE('',*,*,#21,.T.);
#21 = EDGE_CURVE('',#22,#22,#24,.T.);
#22 = VERTEX_POINT('',#23);
#23 = CARTESIAN_POINT('',(3.,55.,170.));
#24 = SURFACE_CURVE('',#25,(#30,#42),.PCURVE_S1.);
#25 = CIRCLE('',#26,3.);
#26 = AXIS2_PLACEMENT_3D('',#27,#28,#29);
#27 = CARTESIAN_POINT('',(0.,55.,170.));
#28 = DIRECTION('',(0.,-1.,1.110223024625E-16));
#29 = DIRECTION('',(1.,0.,0.));
#30 = PCURVE('',#31,#36);
#31 = CYLINDRICAL_SURFACE('',#32,3.);
#32 = AXIS2_PLACEMENT_3D('',#33,#34,#35);
#33 = CARTESIAN_POINT('',(0.,55.,170.));
#34 = DIRECTION('',(0.,-1.,1.110223024625E-16));
#35 = DIRECTION('',(1.,0.,0.));
#36 = DEFINITIONAL_REPRESENTATION('',(#37),#41);
#37 = LINE('',#38,#39);
#38 = CARTESIAN_POINT('',(0.,0.));
#39 = VECTOR('',#40,1.);
#40 = DIRECTION('',(1.,0.));
#41 = ( GEOMETRIC_REPRESENTATION_CONTEXT(2) 
PARAMETRIC_REPRESENTATION_CONTEXT() REPRESENTATION_CONTEXT('2D SPACE',''
  ) );
#42 = PCURVE('',#43,#48);
#43 = PLANE('',#44);
#44 = AXIS2_PLACEMENT_3D('',#45,#46,#47);
#45 = CARTESIAN_POINT('',(0.,55.,170.));
#46 = DIRECTION('',(0.,-1.,1.110223024625E-16));
#47 = DIRECTION('',(1.,0.,0.));
#48 = DEFINITIONAL_REPRESENTATION('',(#49),#53);
#49 = CIRCLE('',#50,3.);
#50 = AXIS2_PLACEMENT_2D('',#51,#52);
#51 = CARTESIAN_POINT('',(0.,0.));
#52 = DIRECTION('',(1.,0.));
#53 = ( GEOMETRIC_REPRESENTATION_CONTEXT(2) 
PARAMETRIC_REPRESENTATION_CONTEXT() REPRESENTATION_CONTEXT('2D SPACE',''
  ) );
#54 = ORIENTED_EDGE('',*,*,#55,.T.);
#55 = EDGE_CURVE('',#22,#56,#58,.T.);
#56 = VERTEX_POINT('',#57);
#57 = CARTESIAN_POINT('',(3.,29.545050502288,170.));
#58 = SEAM_CURVE('',#59,(#63,#70),.PCURVE_S1.);
#59 = LINE('',#60,#61);
#60 = CARTESIAN_POINT('',(3.,55.,170.));
#61 = VECTOR('',#62,1.);
#62 = DIRECTION('',(0.,-1.,0.));
#63 = PCURVE('',#31,#64);
#64 = DEFINITIONAL_REPRESENTATION('',(#65),#69);
#65 = LINE('',#66,#67);
#66 = CARTESIAN_POINT('',(6.28318530718,-0.));
#67 = VECTOR('',#68,1.);
#68 = DIRECTION('',(0.,1.));
#69 = ( GEOMETRIC_REPRESENTATION_CONTEXT(2) 
PARAMETRIC_REPRESENTATION_CONTEXT() REPRESENTATION_CONTEXT('2D SPACE',''
  ) );
#70 = PCURVE('',#31,#71);
#71 = DEFINITIONAL_REPRESENTATION('',(#72),#76);
#72 = LINE('',#73,#74);
#73 = CARTESIAN_POINT('',(0.,-0.));
#74 = VECTOR('',#75,1.);
#75 = DIRECTION('',(0.,1.));
#76 = ( GEOMETRIC_REPRESENTATION_CONTEXT(2) 
PARAMETRIC_REPRESENTATION_CONTEXT() REPRESENTATION_CONTEXT('2D SPACE',''
  ) );
#77 = ORIENTED_EDGE('',*,*,#78,.F.);
#78 = EDGE_CURVE('',#56,#56,#79,.T.);
#79 = SURFACE_CURVE('',#80,(#230,#383),.PCURVE_S1.);
#80 = B_SPLINE_CURVE_WITH_KNOTS('',8,(#81,#82,#83,#84,#85,#86,#87,#88,
    #89,#90,#91,#92,#93,#94,#95,#96,#97,#98,#99,#100,#101,#102,#103,#104
    ,#105,#106,#107,#108,#109,#110,#111,#112,#113,#114,#115,#116,#117,
    #118,#119,#120,#121,#122,#123,#124,#125,#126,#127,#128,#129,#130,
    #131,#132,#133,#134,#135,#136,#137,#138,#139,#140,#141,#142,#143,
    #144,#145,#146,#147,#148,#149,#150,#151,#152,#153,#154,#155,#156,
    #157,#158,#159,#160,#161,#162,#163,#164,#165,#166,#167,#168,#169,
    #170,#171,#172,#173,#174,#175,#176,#177,#178,#179,#180,#181,#182,
    #183,#184,#185,#186,#187,#188,#189,#190,#191,#192,#193,#194,#195,
    #196,#197,#198,#199,#200,#201,#202,#203,#204,#205,#206,#207,#208,
    #209,#210,#211,#212,#213,#214,#215,#216,#217,#218,#219,#220,#221,
    #222,#223,#224,#225,#226,#227,#228,#229),.UNSPECIFIED.,.T.,.F.,(9,7,
    7,7,7,7,7,7,7,7,7,7,7,7,7,7,7,7,7,7,7,9),(0.,0.126323846074,
    0.167867104602,0.199900574943,0.249438276382,0.299394635392,
    0.331428369018,0.37348756289,0.406884581384,0.432837102311,
    0.501534695671,0.57078485311,0.596161398302,0.628994470473,
    0.670022315583,0.701122973377,0.749375245897,0.798046184421,
    0.829147097131,0.870175278526,0.982644395269,1.),.UNSPECIFIED.);
#81 = CARTESIAN_POINT('',(3.,29.545050502288,170.));
#82 = CARTESIAN_POINT('',(3.,29.52930717515,170.25843603242));
#83 = CARTESIAN_POINT('',(2.974556098319,29.51616250063,170.51662178093)
  );
#84 = CARTESIAN_POINT('',(2.923757432507,29.505675308611,170.77354147114
    ));
#85 = CARTESIAN_POINT('',(2.847032394849,29.49787494972,171.0276923502)
  );
#86 = CARTESIAN_POINT('',(2.743623703157,29.492718382884,171.27715245623
    ));
#87 = CARTESIAN_POINT('',(2.612484827205,29.490053030097,171.51950275342
    ));
#88 = CARTESIAN_POINT('',(2.452569177906,29.489594229494,171.75190265457
    ));
#89 = CARTESIAN_POINT('',(2.199173638573,29.491351368039,172.04273051196
    ));
#90 = CARTESIAN_POINT('',(2.133177685007,29.491978506449,172.11319107522
    ));
#91 = CARTESIAN_POINT('',(2.063847852202,29.492782392587,172.18199621749
    ));
#92 = CARTESIAN_POINT('',(1.991144117667,29.493745275082,172.24898109369
    ));
#93 = CARTESIAN_POINT('',(1.9150369225,29.494847172266,172.31396037401)
  );
#94 = CARTESIAN_POINT('',(1.835510147165,29.496065854061,172.37672984487
    ));
#95 = CARTESIAN_POINT('',(1.752564087279,29.497376823866,172.43706800986
    ));
#96 = CARTESIAN_POINT('',(1.599638407293,29.499814683764,172.53920603714
    ));
#97 = CARTESIAN_POINT('',(1.531041466224,29.500914949394,172.58208469189
    ));
#98 = CARTESIAN_POINT('',(1.460440422822,29.502041918799,172.62326361634
    ));
#99 = CARTESIAN_POINT('',(1.387860058758,29.503182486556,172.66262390556
    ));
#100 = CARTESIAN_POINT('',(1.313339401033,29.504322870633,
    172.70004018452));
#101 = CARTESIAN_POINT('',(1.236934002264,29.505448862662,
    172.73538300418));
#102 = CARTESIAN_POINT('',(1.158718220978,29.506546078208,
    172.76852123772));
#103 = CARTESIAN_POINT('',(0.955179786109,29.509230349494,
    172.84695970441));
#104 = CARTESIAN_POINT('',(0.827399136976,29.510758425291,
    172.88903916051));
#105 = CARTESIAN_POINT('',(0.695886400553,29.512130517662,172.9250329246
    ));
#106 = CARTESIAN_POINT('',(0.561176806671,29.513294379929,
    172.95446335982));
#107 = CARTESIAN_POINT('',(0.423905284665,29.514204512805,
    172.97691951457));
#108 = CARTESIAN_POINT('',(0.28481393986,29.514826741167,172.9920844087)
  );
#109 = CARTESIAN_POINT('',(0.144761690818,29.515142290322,172.9997752044
    ));
#110 = CARTESIAN_POINT('',(-0.136472953506,29.515160509825,
    173.00021918703));
#111 = CARTESIAN_POINT('',(-0.277756534699,29.514857986389,
    172.99284573447));
#112 = CARTESIAN_POINT('',(-0.418099358092,29.514242805246,
    172.97786383568));
#113 = CARTESIAN_POINT('',(-0.556618006257,29.513333667318,
    172.95545616574));
#114 = CARTESIAN_POINT('',(-0.692548935369,29.512165301507,
    172.92594495206));
#115 = CARTESIAN_POINT('',(-0.825238662277,29.510784252115,
    172.88975027911));
#116 = CARTESIAN_POINT('',(-0.954136165752,29.509244112792,
    172.84736188879));
#117 = CARTESIAN_POINT('',(-1.158718220977,29.506546078208,
    172.76852123772));
#118 = CARTESIAN_POINT('',(-1.236934002264,29.505448862662,
    172.73538300418));
#119 = CARTESIAN_POINT('',(-1.313339401033,29.504322870633,
    172.70004018452));
#120 = CARTESIAN_POINT('',(-1.387860058758,29.503182486556,
    172.66262390556));
#121 = CARTESIAN_POINT('',(-1.460440422822,29.502041918799,
    172.62326361634));
#122 = CARTESIAN_POINT('',(-1.531041466224,29.500914949394,
    172.58208469189));
#123 = CARTESIAN_POINT('',(-1.599638407293,29.499814683764,
    172.53920603714));
#124 = CARTESIAN_POINT('',(-1.7536357155,29.497359740538,172.43635227662
    ));
#125 = CARTESIAN_POINT('',(-1.837568244332,29.496033325308,
    172.37523190001));
#126 = CARTESIAN_POINT('',(-1.917995848356,29.494801846299,
    172.31162255134));
#127 = CARTESIAN_POINT('',(-1.994918584469,29.49369069144,
    172.24575377638));
#128 = CARTESIAN_POINT('',(-2.068353600508,29.492722867068,
    172.17783699921));
#129 = CARTESIAN_POINT('',(-2.138332001751,29.491919019952,
    172.10806384516));
#130 = CARTESIAN_POINT('',(-2.204895717425,29.491297459323,
    172.03660446379));
#131 = CARTESIAN_POINT('',(-2.318277128252,29.49053807392,
    171.90564145052));
#132 = CARTESIAN_POINT('',(-2.366335032228,29.490327037593,
    171.84671023448));
#133 = CARTESIAN_POINT('',(-2.412291728417,29.490249155802,
    171.78688777422));
#134 = CARTESIAN_POINT('',(-2.45617106219,29.490311683134,171.7262445878
    ));
#135 = CARTESIAN_POINT('',(-2.497996939139,29.49052110093,
    171.66484614136));
#136 = CARTESIAN_POINT('',(-2.537793189208,29.490883175337,
    171.60275284966));
#137 = CARTESIAN_POINT('',(-2.575583430833,29.491403015365,
    171.54002007661));
#138 = CARTESIAN_POINT('',(-2.639216622657,29.492615196785,
    171.42749122845));
#139 = CARTESIAN_POINT('',(-2.665844555833,29.493243262539,
    171.37792931514));
#140 = CARTESIAN_POINT('',(-2.691285423093,29.493971416225,
    171.32803635559));
#141 = CARTESIAN_POINT('',(-2.71554942994,29.494801546776,
    171.27783520153));
#142 = CARTESIAN_POINT('',(-2.738646298882,29.495735344039,
    171.22734759668));
#143 = CARTESIAN_POINT('',(-2.760585269434,29.496774298777,
    171.17659417675));
#144 = CARTESIAN_POINT('',(-2.781375098115,29.497919702663,
    171.12559446945));
#145 = CARTESIAN_POINT('',(-2.853035818345,29.502489256684,
    170.93876499579));
#146 = CARTESIAN_POINT('',(-2.897048005133,29.506559120552,
    170.80158156719));
#147 = CARTESIAN_POINT('',(-2.933222929666,29.511403107652,
    170.66314287473));
#148 = CARTESIAN_POINT('',(-2.961681536343,29.517033340575,
    170.52375332394));
#149 = CARTESIAN_POINT('',(-2.98251454263,29.523453656103,
    170.38369769031));
#150 = CARTESIAN_POINT('',(-2.995786903095,29.530660207028,
    170.24324256457));
#151 = CARTESIAN_POINT('',(-3.001535597946,29.538642206414,
    170.10263701301));
#152 = CARTESIAN_POINT('',(-2.997971618333,29.55619372666,
    169.82045759315));
#153 = CARTESIAN_POINT('',(-2.98853777421,29.565773722646,
    169.67891359732));
#154 = CARTESIAN_POINT('',(-2.971465132881,29.576105079705,
    169.53771643494));
#155 = CARTESIAN_POINT('',(-2.946721570945,29.587161576732,
    169.39712039874));
#156 = CARTESIAN_POINT('',(-2.914245998518,29.598907731182,
    169.25739774194));
#157 = CARTESIAN_POINT('',(-2.873950123293,29.611298077676,
    169.11883932003));
#158 = CARTESIAN_POINT('',(-2.825712902579,29.624276488127,
    168.98175623685));
#159 = CARTESIAN_POINT('',(-2.748720120117,29.642722224401,
    168.79691177401));
#160 = CARTESIAN_POINT('',(-2.726984649501,29.647738603213,
    168.74758616052));
#161 = CARTESIAN_POINT('',(-2.70415357669,29.65282127882,168.69852290256
    ));
#162 = CARTESIAN_POINT('',(-2.680218736228,29.657966561488,
    168.64974029236));
#163 = CARTESIAN_POINT('',(-2.655171491985,29.663170462742,
    168.60125766616));
#164 = CARTESIAN_POINT('',(-2.629002737159,29.668428695368,
    168.55309540427));
#165 = CARTESIAN_POINT('',(-2.601702894275,29.673736673415,
    168.50527493108));
#166 = CARTESIAN_POINT('',(-2.536463970006,29.686015204418,
    168.39641818327));
#167 = CARTESIAN_POINT('',(-2.497756494449,29.693015831578,
    168.33562867669));
#168 = CARTESIAN_POINT('',(-2.457117180057,29.700080854707,
    168.2754981134));
#169 = CARTESIAN_POINT('',(-2.414523384971,29.707198612756,
    168.21607930414));
#170 = CARTESIAN_POINT('',(-2.36995224332,29.714356272596,
    168.15742995399));
#171 = CARTESIAN_POINT('',(-2.323380774607,29.721539779019,
    168.0996126641));
#172 = CARTESIAN_POINT('',(-2.274785993089,29.728733804736,
    168.04269493343));
#173 = CARTESIAN_POINT('',(-2.1608646118,29.744903615548,167.91683993932
    ));
#174 = CARTESIAN_POINT('',(-2.094394114621,29.753875198934,
    167.84845400473));
#175 = CARTESIAN_POINT('',(-2.024686499861,29.762804562711,
    167.78172887404));
#176 = CARTESIAN_POINT('',(-1.951702169283,29.771655179059,
    167.71682393287));
#177 = CARTESIAN_POINT('',(-1.875411855402,29.780386066062,
    167.65391884025));
#178 = CARTESIAN_POINT('',(-1.795799524715,29.788951973614,
    167.59321193372));
#179 = CARTESIAN_POINT('',(-1.712865280924,29.797303569324,
    167.53491863446));
#180 = CARTESIAN_POINT('',(-1.561257352003,29.81151564383,
    167.43708597153));
#181 = CARTESIAN_POINT('',(-1.4939930048,29.817489504585,167.39642465979
    ));
#182 = CARTESIAN_POINT('',(-1.424847283366,29.823285952443,
    167.35738774091));
#183 = CARTESIAN_POINT('',(-1.353843473231,29.828879967271,
    167.32008524123));
#184 = CARTESIAN_POINT('',(-1.281018193157,29.834245249077,
    167.28463317145));
#185 = CARTESIAN_POINT('',(-1.20642349964,29.839354704038,
    167.25115130832));
#186 = CARTESIAN_POINT('',(-1.130128991425,29.844180930529,
    167.21976097645));
#187 = CARTESIAN_POINT('',(-0.931355183487,29.855702871676,
    167.14531330936));
#188 = CARTESIAN_POINT('',(-0.806541660004,29.861965780215,
    167.10534272754));
#189 = CARTESIAN_POINT('',(-0.678200145273,29.867377512136,
    167.07116553561));
#190 = CARTESIAN_POINT('',(-0.546836381684,29.871837676738,
    167.04322810713));
#191 = CARTESIAN_POINT('',(-0.413050317679,29.875259495744,
    167.02191464453));
#192 = CARTESIAN_POINT('',(-0.277543322985,29.877576895649,
    167.00752137818));
#193 = CARTESIAN_POINT('',(-0.141127353717,29.878752607889,
    167.00021905809));
#194 = CARTESIAN_POINT('',(0.132838632586,29.878822246647,
    166.99978655043));
#195 = CARTESIAN_POINT('',(0.270484554209,29.877696311604,
    167.00677973421));
#196 = CARTESIAN_POINT('',(0.407241053342,29.875407220608,
    167.02099462427));
#197 = CARTESIAN_POINT('',(0.542272389897,29.871992155265,
    167.04226063595));
#198 = CARTESIAN_POINT('',(0.674856388898,29.867518299779,
    167.07027650575));
#199 = CARTESIAN_POINT('',(0.804375099546,29.862074441694,
    167.10464925801));
#200 = CARTESIAN_POINT('',(0.930307452302,29.855763603505,
    167.14492089778));
#201 = CARTESIAN_POINT('',(1.130128991425,29.844180930529,
    167.21976097645));
#202 = CARTESIAN_POINT('',(1.20642349964,29.839354704038,167.25115130832
    ));
#203 = CARTESIAN_POINT('',(1.281018193157,29.834245249077,
    167.28463317145));
#204 = CARTESIAN_POINT('',(1.353843473232,29.828879967271,
    167.32008524123));
#205 = CARTESIAN_POINT('',(1.424847283366,29.823285952443,
    167.35738774091));
#206 = CARTESIAN_POINT('',(1.4939930048,29.817489504585,167.39642465979)
  );
#207 = CARTESIAN_POINT('',(1.561257352003,29.81151564383,167.43708597153
    ));
#208 = CARTESIAN_POINT('',(1.712865280925,29.797303569324,
    167.53491863446));
#209 = CARTESIAN_POINT('',(1.795799524715,29.788951973614,
    167.59321193372));
#210 = CARTESIAN_POINT('',(1.875411855402,29.780386066062,
    167.65391884025));
#211 = CARTESIAN_POINT('',(1.951702169283,29.771655179059,
    167.71682393287));
#212 = CARTESIAN_POINT('',(2.024686499862,29.762804562711,
    167.78172887404));
#213 = CARTESIAN_POINT('',(2.094394114621,29.753875198934,
    167.84845400473));
#214 = CARTESIAN_POINT('',(2.160864611801,29.744903615548,
    167.91683993932));
#215 = CARTESIAN_POINT('',(2.397613376156,29.711299890888,
    168.17838886022));
#216 = CARTESIAN_POINT('',(2.546851592316,29.68663750862,168.38118959493
    ));
#217 = CARTESIAN_POINT('',(2.673224593735,29.662555794321,
    168.59256222861));
#218 = CARTESIAN_POINT('',(2.777527438511,29.639531340635,
    168.81042001404));
#219 = CARTESIAN_POINT('',(2.860514972656,29.617923562918,
    169.03298911268));
#220 = CARTESIAN_POINT('',(2.922773245501,29.597982348866,
    169.25883966872));
#221 = CARTESIAN_POINT('',(2.964756801969,29.579872859034,
    169.48685278536));
#222 = CARTESIAN_POINT('',(2.989915137314,29.561200643619,
    169.75166150322));
#223 = CARTESIAN_POINT('',(2.99279710845,29.558750920476,169.7870895675)
  );
#224 = CARTESIAN_POINT('',(2.995198252096,29.556348101436,169.8225406861
    ));
#225 = CARTESIAN_POINT('',(2.997118934293,29.553992588291,
    169.85801078742));
#226 = CARTESIAN_POINT('',(2.998559396244,29.551684750596,
    169.89349581162));
#227 = CARTESIAN_POINT('',(2.999519754307,29.549424925676,
    169.92899171067));
#228 = CARTESIAN_POINT('',(3.,29.547213418621,169.9644944483));
#229 = CARTESIAN_POINT('',(3.,29.545050502288,170.));
#230 = PCURVE('',#31,#231);
#231 = DEFINITIONAL_REPRESENTATION('',(#232),#382);
#232 = B_SPLINE_CURVE_WITH_KNOTS('',8,(#233,#234,#235,#236,#237,#238,
    #239,#240,#241,#242,#243,#244,#245,#246,#247,#248,#249,#250,#251,
    #252,#253,#254,#255,#256,#257,#258,#259,#260,#261,#262,#263,#264,
    #265,#266,#267,#268,#269,#270,#271,#272,#273,#274,#275,#276,#277,
    #278,#279,#280,#281,#282,#283,#284,#285,#286,#287,#288,#289,#290,
    #291,#292,#293,#294,#295,#296,#297,#298,#299,#300,#301,#302,#303,
    #304,#305,#306,#307,#308,#309,#310,#311,#312,#313,#314,#315,#316,
    #317,#318,#319,#320,#321,#322,#323,#324,#325,#326,#327,#328,#329,
    #330,#331,#332,#333,#334,#335,#336,#337,#338,#339,#340,#341,#342,
    #343,#344,#345,#346,#347,#348,#349,#350,#351,#352,#353,#354,#355,
    #356,#357,#358,#359,#360,#361,#362,#363,#364,#365,#366,#367,#368,
    #369,#370,#371,#372,#373,#374,#375,#376,#377,#378,#379,#380,#381),
  .UNSPECIFIED.,.F.,.F.,(9,7,7,7,7,7,7,7,7,7,7,7,7,7,7,7,7,7,7,7,7,9),(
    0.,0.126323846074,0.167867104602,0.199900574943,0.249438276382,
    0.299394635392,0.331428369018,0.37348756289,0.406884581384,
    0.432837102311,0.501534695671,0.57078485311,0.596161398302,
    0.628994470473,0.670022315583,0.701122973377,0.749375245897,
    0.798046184421,0.829147097131,0.870175278526,0.982644395269,1.),
  .UNSPECIFIED.);
#233 = CARTESIAN_POINT('',(0.,25.454949497712));
#234 = CARTESIAN_POINT('',(8.614534414026E-02,25.47069282485));
#235 = CARTESIAN_POINT('',(0.172207548589,25.48383749937));
#236 = CARTESIAN_POINT('',(0.258819951569,25.494324691389));
#237 = CARTESIAN_POINT('',(0.346456165317,25.50212505028));
#238 = CARTESIAN_POINT('',(0.435540831246,25.507281617116));
#239 = CARTESIAN_POINT('',(0.526543188446,25.509946969903));
#240 = CARTESIAN_POINT('',(0.619967451884,25.510405770506));
#241 = CARTESIAN_POINT('',(0.748545202677,25.508648631961));
#242 = CARTESIAN_POINT('',(0.780704742847,25.508021493551));
#243 = CARTESIAN_POINT('',(0.813227295334,25.507217607413));
#244 = CARTESIAN_POINT('',(0.846133770381,25.506254724918));
#245 = CARTESIAN_POINT('',(0.879442814026,25.505152827734));
#246 = CARTESIAN_POINT('',(0.913171150321,25.503934145939));
#247 = CARTESIAN_POINT('',(0.947333923554,25.502623176134));
#248 = CARTESIAN_POINT('',(1.008633225903,25.500185316236));
#249 = CARTESIAN_POINT('',(1.035586228961,25.499085050606));
#250 = CARTESIAN_POINT('',(1.062808935582,25.497958081201));
#251 = CARTESIAN_POINT('',(1.09030395185,25.496817513444));
#252 = CARTESIAN_POINT('',(1.118071285581,25.495677129367));
#253 = CARTESIAN_POINT('',(1.146108027911,25.494551137338));
#254 = CARTESIAN_POINT('',(1.17440803489,25.493453921792));
#255 = CARTESIAN_POINT('',(1.247117874911,25.490769650506));
#256 = CARTESIAN_POINT('',(1.291906028961,25.489241574709));
#257 = CARTESIAN_POINT('',(1.337257074192,25.487869482338));
#258 = CARTESIAN_POINT('',(1.383093535539,25.486705620071));
#259 = CARTESIAN_POINT('',(1.429327501909,25.485795487195));
#260 = CARTESIAN_POINT('',(1.475854381591,25.485173258833));
#261 = CARTESIAN_POINT('',(1.522542371036,25.484857709678));
#262 = CARTESIAN_POINT('',(1.616287369296,25.484839490175));
#263 = CARTESIAN_POINT('',(1.663377870538,25.485142013611));
#264 = CARTESIAN_POINT('',(1.710310019248,25.485757194754));
#265 = CARTESIAN_POINT('',(1.756948195646,25.486666332682));
#266 = CARTESIAN_POINT('',(1.803184827782,25.487834698493));
#267 = CARTESIAN_POINT('',(1.8489294062,25.489215747885));
#268 = CARTESIAN_POINT('',(1.894101967178,25.490755887208));
#269 = CARTESIAN_POINT('',(1.9671846187,25.493453921792));
#270 = CARTESIAN_POINT('',(1.995484625678,25.494551137338));
#271 = CARTESIAN_POINT('',(2.023521368009,25.495677129367));
#272 = CARTESIAN_POINT('',(2.05128870174,25.496817513444));
#273 = CARTESIAN_POINT('',(2.078783718008,25.497958081201));
#274 = CARTESIAN_POINT('',(2.106006424629,25.499085050606));
#275 = CARTESIAN_POINT('',(2.132959427686,25.500185316236));
#276 = CARTESIAN_POINT('',(2.194688285506,25.502640259462));
#277 = CARTESIAN_POINT('',(2.229269314581,25.503966674692));
#278 = CARTESIAN_POINT('',(2.263405228886,25.505198153701));
#279 = CARTESIAN_POINT('',(2.297111809147,25.50630930856));
#280 = CARTESIAN_POINT('',(2.330406456925,25.507277132932));
#281 = CARTESIAN_POINT('',(2.363308563259,25.508080980048));
#282 = CARTESIAN_POINT('',(2.395839877306,25.508702540677));
#283 = CARTESIAN_POINT('',(2.453581307808,25.50946192608));
#284 = CARTESIAN_POINT('',(2.478917793555,25.509672962407));
#285 = CARTESIAN_POINT('',(2.504045870307,25.509750844198));
#286 = CARTESIAN_POINT('',(2.528976578118,25.509688316866));
#287 = CARTESIAN_POINT('',(2.553720650025,25.50947889907));
#288 = CARTESIAN_POINT('',(2.578288703063,25.509116824663));
#289 = CARTESIAN_POINT('',(2.602691429275,25.508596984635));
#290 = CARTESIAN_POINT('',(2.645782965914,25.507384803215));
#291 = CARTESIAN_POINT('',(2.664532674961,25.506756737461));
#292 = CARTESIAN_POINT('',(2.68319381376,25.506028583775));
#293 = CARTESIAN_POINT('',(2.701771199,25.505198453224));
#294 = CARTESIAN_POINT('',(2.720269564154,25.504264655961));
#295 = CARTESIAN_POINT('',(2.738693559483,25.503225701223));
#296 = CARTESIAN_POINT('',(2.757047752031,25.502080297337));
#297 = CARTESIAN_POINT('',(2.823748169364,25.497510743316));
#298 = CARTESIAN_POINT('',(2.871697039115,25.493440879448));
#299 = CARTESIAN_POINT('',(2.919273697417,25.488596892348));
#300 = CARTESIAN_POINT('',(2.966557324742,25.482966659425));
#301 = CARTESIAN_POINT('',(3.013621011423,25.476546343897));
#302 = CARTESIAN_POINT('',(3.06053627682,25.469339792972));
#303 = CARTESIAN_POINT('',(3.107376915689,25.461357793586));
#304 = CARTESIAN_POINT('',(3.2014442243,25.44380627334));
#305 = CARTESIAN_POINT('',(3.248661573804,25.434226277354));
#306 = CARTESIAN_POINT('',(3.295955703815,25.423894920295));
#307 = CARTESIAN_POINT('',(3.343402809028,25.412838423268));
#308 = CARTESIAN_POINT('',(3.391077043626,25.401092268818));
#309 = CARTESIAN_POINT('',(3.439054606197,25.388701922324));
#310 = CARTESIAN_POINT('',(3.487418661276,25.375723511873));
#311 = CARTESIAN_POINT('',(3.554164750626,25.357277775599));
#312 = CARTESIAN_POINT('',(3.572128461956,25.352261396787));
#313 = CARTESIAN_POINT('',(3.590160562393,25.34717872118));
#314 = CARTESIAN_POINT('',(3.608265469609,25.342033438512));
#315 = CARTESIAN_POINT('',(3.626447688053,25.336829537258));
#316 = CARTESIAN_POINT('',(3.644711808948,25.331571304632));
#317 = CARTESIAN_POINT('',(3.663062510295,25.326263326585));
#318 = CARTESIAN_POINT('',(3.705365529338,25.313984795582));
#319 = CARTESIAN_POINT('',(3.729378999061,25.306984168422));
#320 = CARTESIAN_POINT('',(3.753555802085,25.299919145293));
#321 = CARTESIAN_POINT('',(3.777906524018,25.292801387244));
#322 = CARTESIAN_POINT('',(3.802441688268,25.285643727404));
#323 = CARTESIAN_POINT('',(3.827171944284,25.278460220981));
#324 = CARTESIAN_POINT('',(3.852108255796,25.271266195264));
#325 = CARTESIAN_POINT('',(3.908694041856,25.255096384452));
#326 = CARTESIAN_POINT('',(3.940463186147,25.246124801066));
#327 = CARTESIAN_POINT('',(3.972593277848,25.237195437289));
#328 = CARTESIAN_POINT('',(4.005105448314,25.228344820941));
#329 = CARTESIAN_POINT('',(4.038018541954,25.219613933938));
#330 = CARTESIAN_POINT('',(4.071349453851,25.211048026386));
#331 = CARTESIAN_POINT('',(4.105113467376,25.202696430676));
#332 = CARTESIAN_POINT('',(4.165257917611,25.18848435617));
#333 = CARTESIAN_POINT('',(4.19144641878,25.182510495415));
#334 = CARTESIAN_POINT('',(4.217894752355,25.176714047557));
#335 = CARTESIAN_POINT('',(4.244605382167,25.171120032729));
#336 = CARTESIAN_POINT('',(4.271578275684,25.165754750923));
#337 = CARTESIAN_POINT('',(4.298810600847,25.160645295962));
#338 = CARTESIAN_POINT('',(4.326296422916,25.155819069471));
#339 = CARTESIAN_POINT('',(4.397049107873,25.144297128324));
#340 = CARTESIAN_POINT('',(4.440683603577,25.138034219785));
#341 = CARTESIAN_POINT('',(4.484863714191,25.132622487864));
#342 = CARTESIAN_POINT('',(4.529514594106,25.128162323262));
#343 = CARTESIAN_POINT('',(4.574550858533,25.124740504256));
#344 = CARTESIAN_POINT('',(4.619870768953,25.122423104351));
#345 = CARTESIAN_POINT('',(4.665346471836,25.121247392111));
#346 = CARTESIAN_POINT('',(4.75666858107,25.121177753353));
#347 = CARTESIAN_POINT('',(4.802546740801,25.122303688396));
#348 = CARTESIAN_POINT('',(4.848271868537,25.124592779392));
#349 = CARTESIAN_POINT('',(4.893712308186,25.128007844735));
#350 = CARTESIAN_POINT('',(4.938763337916,25.132481700221));
#351 = CARTESIAN_POINT('',(4.983336978007,25.137925558306));
#352 = CARTESIAN_POINT('',(5.027355917472,25.144236396494));
#353 = CARTESIAN_POINT('',(5.098481537854,25.155819069471));
#354 = CARTESIAN_POINT('',(5.125967359923,25.160645295962));
#355 = CARTESIAN_POINT('',(5.153199685086,25.165754750923));
#356 = CARTESIAN_POINT('',(5.180172578602,25.171120032729));
#357 = CARTESIAN_POINT('',(5.206883208415,25.176714047557));
#358 = CARTESIAN_POINT('',(5.23333154199,25.182510495415));
#359 = CARTESIAN_POINT('',(5.259520043158,25.18848435617));
#360 = CARTESIAN_POINT('',(5.319664493394,25.202696430676));
#361 = CARTESIAN_POINT('',(5.353428506919,25.211048026386));
#362 = CARTESIAN_POINT('',(5.386759418815,25.219613933938));
#363 = CARTESIAN_POINT('',(5.419672512456,25.228344820941));
#364 = CARTESIAN_POINT('',(5.452184682922,25.237195437289));
#365 = CARTESIAN_POINT('',(5.484314774623,25.246124801066));
#366 = CARTESIAN_POINT('',(5.516083918913,25.255096384452));
#367 = CARTESIAN_POINT('',(5.633679183107,25.288700109112));
#368 = CARTESIAN_POINT('',(5.717180635026,25.31336249138));
#369 = CARTESIAN_POINT('',(5.798659665034,25.33744420568));
#370 = CARTESIAN_POINT('',(5.878503690329,25.360468659365));
#371 = CARTESIAN_POINT('',(5.957064180621,25.382076437083));
#372 = CARTESIAN_POINT('',(6.03466293371,25.402017651134));
#373 = CARTESIAN_POINT('',(6.111650323238,25.420127140966));
#374 = CARTESIAN_POINT('',(6.200317365149,25.438799356381));
#375 = CARTESIAN_POINT('',(6.212164644843,25.441249079524));
#376 = CARTESIAN_POINT('',(6.224006949657,25.443651898564));
#377 = CARTESIAN_POINT('',(6.235845466797,25.446007411709));
#378 = CARTESIAN_POINT('',(6.247681380739,25.448315249404));
#379 = CARTESIAN_POINT('',(6.259515873228,25.450575074324));
#380 = CARTESIAN_POINT('',(6.27135012328,25.452786581379));
#381 = CARTESIAN_POINT('',(6.28318530718,25.454949497712));
#382 = ( GEOMETRIC_REPRESENTATION_CONTEXT(2) 
PARAMETRIC_REPRESENTATION_CONTEXT() REPRESENTATION_CONTEXT('2D SPACE',''
  ) );
#383 = PCURVE('',#384,#389);
#384 = CONICAL_SURFACE('',#385,35.,6.053201978211E-02);
#385 = AXIS2_PLACEMENT_3D('',#386,#387,#388);
#386 = CARTESIAN_POINT('',(0.,0.,82.5));
#387 = DIRECTION('',(-0.,-0.,-1.));
#388 = DIRECTION('',(1.,0.,-0.));
#389 = DEFINITIONAL_REPRESENTATION('',(#390),#540);
#390 = B_SPLINE_CURVE_WITH_KNOTS('',8,(#391,#392,#393,#394,#395,#396,
    #397,#398,#399,#400,#401,#402,#403,#404,#405,#406,#407,#408,#409,
    #410,#411,#412,#413,#414,#415,#416,#417,#418,#419,#420,#421,#422,
    #423,#424,#425,#426,#427,#428,#429,#430,#431,#432,#433,#434,#435,
    #436,#437,#438,#439,#440,#441,#442,#443,#444,#445,#446,#447,#448,
    #449,#450,#451,#452,#453,#454,#455,#456,#457,#458,#459,#460,#461,
    #462,#463,#464,#465,#466,#467,#468,#469,#470,#471,#472,#473,#474,
    #475,#476,#477,#478,#479,#480,#481,#482,#483,#484,#485,#486,#487,
    #488,#489,#490,#491,#492,#493,#494,#495,#496,#497,#498,#499,#500,
    #501,#502,#503,#504,#505,#506,#507,#508,#509,#510,#511,#512,#513,
    #514,#515,#516,#517,#518,#519,#520,#521,#522,#523,#524,#525,#526,
    #527,#528,#529,#530,#531,#532,#533,#534,#535,#536,#537,#538,#539),
  .UNSPECIFIED.,.F.,.F.,(9,7,7,7,7,7,7,7,7,7,7,7,7,7,7,7,7,7,7,7,7,9),(
    0.,0.126323846074,0.167867104602,0.199900574943,0.249438276382,
    0.299394635392,0.331428369018,0.37348756289,0.406884581384,
    0.432837102311,0.501534695671,0.57078485311,0.596161398302,
    0.628994470473,0.670022315583,0.701122973377,0.749375245897,
    0.798046184421,0.829147097131,0.870175278526,0.982644395269,1.),
  .UNSPECIFIED.);
#391 = CARTESIAN_POINT('',(-1.469603303805,-87.5));
#392 = CARTESIAN_POINT('',(-1.469549749609,-87.75843603242));
#393 = CARTESIAN_POINT('',(-1.470357372381,-88.01662178093));
#394 = CARTESIAN_POINT('',(-1.472025201117,-88.27354147114));
#395 = CARTESIAN_POINT('',(-1.474574301646,-88.5276923502));
#396 = CARTESIAN_POINT('',(-1.478031745859,-88.77715245623));
#397 = CARTESIAN_POINT('',(-1.482433990353,-89.01950275342));
#398 = CARTESIAN_POINT('',(-1.487817039325,-89.25190265457));
#399 = CARTESIAN_POINT('',(-1.496363658448,-89.54273051196));
#400 = CARTESIAN_POINT('',(-1.498590745835,-89.61319107522));
#401 = CARTESIAN_POINT('',(-1.500931443848,-89.68199621749));
#402 = CARTESIAN_POINT('',(-1.503387110258,-89.74898109369));
#403 = CARTESIAN_POINT('',(-1.505958743694,-89.81396037401));
#404 = CARTESIAN_POINT('',(-1.508646882207,-89.87672984487));
#405 = CARTESIAN_POINT('',(-1.511451501831,-89.93706800986));
#406 = CARTESIAN_POINT('',(-1.516623808141,-90.03920603714));
#407 = CARTESIAN_POINT('',(-1.51894440047,-90.08208469189));
#408 = CARTESIAN_POINT('',(-1.521333248779,-90.12326361634));
#409 = CARTESIAN_POINT('',(-1.523789502222,-90.16262390556));
#410 = CARTESIAN_POINT('',(-1.526311825053,-90.20004018452));
#411 = CARTESIAN_POINT('',(-1.528898319227,-90.23538300418));
#412 = CARTESIAN_POINT('',(-1.531546447001,-90.26852123772));
#413 = CARTESIAN_POINT('',(-1.538438391806,-90.34695970441));
#414 = CARTESIAN_POINT('',(-1.542765869422,-90.38903916051));
#415 = CARTESIAN_POINT('',(-1.547220375429,-90.4250329246));
#416 = CARTESIAN_POINT('',(-1.551783682879,-90.45446335982));
#417 = CARTESIAN_POINT('',(-1.556434171177,-90.47691951457));
#418 = CARTESIAN_POINT('',(-1.561146576453,-90.4920844087));
#419 = CARTESIAN_POINT('',(-1.565891669968,-90.4997752044));
#420 = CARTESIAN_POINT('',(-1.575420153714,-90.50021918703));
#421 = CARTESIAN_POINT('',(-1.580206972446,-90.49284573447));
#422 = CARTESIAN_POINT('',(-1.584961788791,-90.47786383568));
#423 = CARTESIAN_POINT('',(-1.589654540452,-90.45545616574));
#424 = CARTESIAN_POINT('',(-1.594259233787,-90.42594495206));
#425 = CARTESIAN_POINT('',(-1.598753616508,-90.38975027911));
#426 = CARTESIAN_POINT('',(-1.603118924115,-90.34736188879));
#427 = CARTESIAN_POINT('',(-1.610046206589,-90.26852123772));
#428 = CARTESIAN_POINT('',(-1.612694334363,-90.23538300418));
#429 = CARTESIAN_POINT('',(-1.615280828537,-90.20004018452));
#430 = CARTESIAN_POINT('',(-1.617803151367,-90.16262390556));
#431 = CARTESIAN_POINT('',(-1.620259404811,-90.12326361634));
#432 = CARTESIAN_POINT('',(-1.62264825312,-90.08208469189));
#433 = CARTESIAN_POINT('',(-1.624968845449,-90.03920603714));
#434 = CARTESIAN_POINT('',(-1.630177396747,-89.93635227662));
#435 = CARTESIAN_POINT('',(-1.633015360812,-89.87523190001));
#436 = CARTESIAN_POINT('',(-1.63573392614,-89.81162255134));
#437 = CARTESIAN_POINT('',(-1.638333080256,-89.74575377638));
#438 = CARTESIAN_POINT('',(-1.640813395894,-89.67783699921));
#439 = CARTESIAN_POINT('',(-1.643175924176,-89.60806384516));
#440 = CARTESIAN_POINT('',(-1.645422087793,-89.53660446379));
#441 = CARTESIAN_POINT('',(-1.649246076673,-89.40564145052));
#442 = CARTESIAN_POINT('',(-1.650866167775,-89.34671023448));
#443 = CARTESIAN_POINT('',(-1.6524146521,-89.28688777422));
#444 = CARTESIAN_POINT('',(-1.65389234306,-89.2262445878));
#445 = CARTESIAN_POINT('',(-1.655300058144,-89.16484614136));
#446 = CARTESIAN_POINT('',(-1.656638614194,-89.10275284966));
#447 = CARTESIAN_POINT('',(-1.657908822674,-89.04002007661));
#448 = CARTESIAN_POINT('',(-1.660046062919,-88.92749122845));
#449 = CARTESIAN_POINT('',(-1.660939837001,-88.87792931514));
#450 = CARTESIAN_POINT('',(-1.661793175496,-88.82803635559));
#451 = CARTESIAN_POINT('',(-1.662606431031,-88.77783520153));
#452 = CARTESIAN_POINT('',(-1.663379940555,-88.72734759668));
#453 = CARTESIAN_POINT('',(-1.664114025336,-88.67659417675));
#454 = CARTESIAN_POINT('',(-1.664808990967,-88.62559446945));
#455 = CARTESIAN_POINT('',(-1.66720195252,-88.43876499579));
#456 = CARTESIAN_POINT('',(-1.668666517307,-88.30158156719));
#457 = CARTESIAN_POINT('',(-1.669864495469,-88.16314287473));
#458 = CARTESIAN_POINT('',(-1.6708001964,-88.02375332394));
#459 = CARTESIAN_POINT('',(-1.671476941427,-87.88369769031));
#460 = CARTESIAN_POINT('',(-1.671897213899,-87.74324256457));
#461 = CARTESIAN_POINT('',(-1.672062583084,-87.60263701301));
#462 = CARTESIAN_POINT('',(-1.671883503353,-87.32045759315));
#463 = CARTESIAN_POINT('',(-1.671534960811,-87.17891359732));
#464 = CARTESIAN_POINT('',(-1.67092833171,-87.03771643494));
#465 = CARTESIAN_POINT('',(-1.670062926293,-86.89712039874));
#466 = CARTESIAN_POINT('',(-1.668937113394,-86.75739774194));
#467 = CARTESIAN_POINT('',(-1.667548377927,-86.61883932003));
#468 = CARTESIAN_POINT('',(-1.665893130075,-86.48175623685));
#469 = CARTESIAN_POINT('',(-1.663260171763,-86.29691177401));
#470 = CARTESIAN_POINT('',(-1.662517633254,-86.24758616052));
#471 = CARTESIAN_POINT('',(-1.66173841686,-86.19852290256));
#472 = CARTESIAN_POINT('',(-1.66092227332,-86.14974029236));
#473 = CARTESIAN_POINT('',(-1.660068937904,-86.10125766616));
#474 = CARTESIAN_POINT('',(-1.659178130403,-86.05309540427));
#475 = CARTESIAN_POINT('',(-1.658249555137,-86.00527493108));
#476 = CARTESIAN_POINT('',(-1.656032209559,-85.89641818327));
#477 = CARTESIAN_POINT('',(-1.654717798817,-85.83562867669));
#478 = CARTESIAN_POINT('',(-1.65333897578,-85.7754981134));
#479 = CARTESIAN_POINT('',(-1.651895037381,-85.71607930414));
#480 = CARTESIAN_POINT('',(-1.650385273413,-85.65742995399));
#481 = CARTESIAN_POINT('',(-1.648808969514,-85.5996126641));
#482 = CARTESIAN_POINT('',(-1.647165410154,-85.54269493343));
#483 = CARTESIAN_POINT('',(-1.643315174412,-85.41683993932));
#484 = CARTESIAN_POINT('',(-1.64107050381,-85.34845400473));
#485 = CARTESIAN_POINT('',(-1.638718395542,-85.28172887404));
#486 = CARTESIAN_POINT('',(-1.636257623397,-85.21682393287));
#487 = CARTESIAN_POINT('',(-1.633687301395,-85.15391884025));
#488 = CARTESIAN_POINT('',(-1.631006975946,-85.09321193372));
#489 = CARTESIAN_POINT('',(-1.628216718023,-85.03491863446));
#490 = CARTESIAN_POINT('',(-1.62311928266,-84.93708597153));
#491 = CARTESIAN_POINT('',(-1.620858723766,-84.89642465979));
#492 = CARTESIAN_POINT('',(-1.618535962892,-84.85738774091));
#493 = CARTESIAN_POINT('',(-1.616151793308,-84.82008524123));
#494 = CARTESIAN_POINT('',(-1.613707446011,-84.78463317145));
#495 = CARTESIAN_POINT('',(-1.611204658442,-84.75115130832));
#496 = CARTESIAN_POINT('',(-1.60864574319,-84.71976097645));
#497 = CARTESIAN_POINT('',(-1.601981037956,-84.64531330936));
#498 = CARTESIAN_POINT('',(-1.597798151343,-84.60534272754));
#499 = CARTESIAN_POINT('',(-1.593498842219,-84.57116553561));
#500 = CARTESIAN_POINT('',(-1.589099847397,-84.54322810713));
#501 = CARTESIAN_POINT('',(-1.584620965943,-84.52191464453));
#502 = CARTESIAN_POINT('',(-1.580085312943,-84.50752137818));
#503 = CARTESIAN_POINT('',(-1.575519656241,-84.50021905809));
#504 = CARTESIAN_POINT('',(-1.566350408911,-84.49978655043));
#505 = CARTESIAN_POINT('',(-1.56174360888,-84.50677973421));
#506 = CARTESIAN_POINT('',(-1.557166168903,-84.52099462427));
#507 = CARTESIAN_POINT('',(-1.552645640459,-84.54226063595));
#508 = CARTESIAN_POINT('',(-1.548205823404,-84.57027650575));
#509 = CARTESIAN_POINT('',(-1.543867110271,-84.60464925801));
#510 = CARTESIAN_POINT('',(-1.539646745109,-84.64492089778));
#511 = CARTESIAN_POINT('',(-1.5329469104,-84.71976097645));
#512 = CARTESIAN_POINT('',(-1.530387995148,-84.75115130832));
#513 = CARTESIAN_POINT('',(-1.527885207579,-84.78463317145));
#514 = CARTESIAN_POINT('',(-1.525440860282,-84.82008524123));
#515 = CARTESIAN_POINT('',(-1.523056690697,-84.85738774091));
#516 = CARTESIAN_POINT('',(-1.520733929824,-84.89642465979));
#517 = CARTESIAN_POINT('',(-1.51847337093,-84.93708597153));
#518 = CARTESIAN_POINT('',(-1.513375935566,-85.03491863446));
#519 = CARTESIAN_POINT('',(-1.510585677644,-85.09321193372));
#520 = CARTESIAN_POINT('',(-1.507905352195,-85.15391884025));
#521 = CARTESIAN_POINT('',(-1.505335030193,-85.21682393287));
#522 = CARTESIAN_POINT('',(-1.502874258048,-85.28172887404));
#523 = CARTESIAN_POINT('',(-1.50052214978,-85.34845400473));
#524 = CARTESIAN_POINT('',(-1.498277479178,-85.41683993932));
#525 = CARTESIAN_POINT('',(-1.490276008829,-85.67838886022));
#526 = CARTESIAN_POINT('',(-1.48521823547,-85.88118959493));
#527 = CARTESIAN_POINT('',(-1.48092177517,-86.09256222861));
#528 = CARTESIAN_POINT('',(-1.477362292377,-86.31042001404));
#529 = CARTESIAN_POINT('',(-1.47451676933,-86.53298911268));
#530 = CARTESIAN_POINT('',(-1.472367633006,-86.75883966872));
#531 = CARTESIAN_POINT('',(-1.470901456915,-86.98685278536));
#532 = CARTESIAN_POINT('',(-1.469995906721,-87.25166150322));
#533 = CARTESIAN_POINT('',(-1.469891101794,-87.2870895675));
#534 = CARTESIAN_POINT('',(-1.469802540026,-87.3225406861));
#535 = CARTESIAN_POINT('',(-1.4697302152,-87.35801078742));
#536 = CARTESIAN_POINT('',(-1.469674125179,-87.39349581162));
#537 = CARTESIAN_POINT('',(-1.469634271908,-87.42899171067));
#538 = CARTESIAN_POINT('',(-1.469610661414,-87.4644944483));
#539 = CARTESIAN_POINT('',(-1.469603303805,-87.5));
#540 = ( GEOMETRIC_REPRESENTATION_CONTEXT(2) 
PARAMETRIC_REPRESENTATION_CONTEXT() REPRESENTATION_CONTEXT('2D SPACE',''
  ) );
#541 = ORIENTED_EDGE('',*,*,#55,.F.);
#542 = ADVANCED_FACE('',(#543),#43,.F.);
#543 = FACE_BOUND('',#544,.T.);
#544 = EDGE_LOOP('',(#545));
#545 = ORIENTED_EDGE('',*,*,#21,.F.);
#546 = ADVANCED_FACE('',(#547,#629),#384,.T.);
#547 = FACE_BOUND('',#548,.T.);
#548 = EDGE_LOOP('',(#549,#574,#601,#602));
#549 = ORIENTED_EDGE('',*,*,#550,.T.);
#550 = EDGE_CURVE('',#551,#553,#555,.T.);
#551 = VERTEX_POINT('',#552);
#552 = CARTESIAN_POINT('',(35.,-8.572527594031E-15,82.5));
#553 = VERTEX_POINT('',#554);
#554 = CARTESIAN_POINT('',(25.,-6.123233995737E-15,247.5));
#555 = SEAM_CURVE('',#556,(#560,#567),.PCURVE_S1.);
#556 = LINE('',#557,#558);
#557 = CARTESIAN_POINT('',(35.,-8.572527594031E-15,82.5));
#558 = VECTOR('',#559,1.);
#559 = DIRECTION('',(-6.049506040189E-02,1.481701641708E-17,
    0.998168496631));
#560 = PCURVE('',#384,#561);
#561 = DEFINITIONAL_REPRESENTATION('',(#562),#566);
#562 = LINE('',#563,#564);
#563 = CARTESIAN_POINT('',(-6.28318530718,0.));
#564 = VECTOR('',#565,1.);
#565 = DIRECTION('',(-0.,-1.));
#566 = ( GEOMETRIC_REPRESENTATION_CONTEXT(2) 
PARAMETRIC_REPRESENTATION_CONTEXT() REPRESENTATION_CONTEXT('2D SPACE',''
  ) );
#567 = PCURVE('',#384,#568);
#568 = DEFINITIONAL_REPRESENTATION('',(#569),#573);
#569 = LINE('',#570,#571);
#570 = CARTESIAN_POINT('',(0.,-0.));
#571 = VECTOR('',#572,1.);
#572 = DIRECTION('',(-0.,-1.));
#573 = ( GEOMETRIC_REPRESENTATION_CONTEXT(2) 
PARAMETRIC_REPRESENTATION_CONTEXT() REPRESENTATION_CONTEXT('2D SPACE',''
  ) );
#574 = ORIENTED_EDGE('',*,*,#575,.F.);
#575 = EDGE_CURVE('',#553,#553,#576,.T.);
#576 = SURFACE_CURVE('',#577,(#582,#589),.PCURVE_S1.);
#577 = CIRCLE('',#578,25.);
#578 = AXIS2_PLACEMENT_3D('',#579,#580,#581);
#579 = CARTESIAN_POINT('',(0.,0.,247.5));
#580 = DIRECTION('',(0.,0.,1.));
#581 = DIRECTION('',(1.,0.,-0.));
#582 = PCURVE('',#384,#583);
#583 = DEFINITIONAL_REPRESENTATION('',(#584),#588);
#584 = LINE('',#585,#586);
#585 = CARTESIAN_POINT('',(-0.,-165.));
#586 = VECTOR('',#587,1.);
#587 = DIRECTION('',(-1.,-0.));
#588 = ( GEOMETRIC_REPRESENTATION_CONTEXT(2) 
PARAMETRIC_REPRESENTATION_CONTEXT() REPRESENTATION_CONTEXT('2D SPACE',''
  ) );
#589 = PCURVE('',#590,#595);
#590 = PLANE('',#591);
#591 = AXIS2_PLACEMENT_3D('',#592,#593,#594);
#592 = CARTESIAN_POINT('',(0.,0.,247.5));
#593 = DIRECTION('',(0.,0.,1.));
#594 = DIRECTION('',(1.,0.,-0.));
#595 = DEFINITIONAL_REPRESENTATION('',(#596),#600);
#596 = CIRCLE('',#597,25.);
#597 = AXIS2_PLACEMENT_2D('',#598,#599);
#598 = CARTESIAN_POINT('',(0.,0.));
#599 = DIRECTION('',(1.,0.));
#600 = ( GEOMETRIC_REPRESENTATION_CONTEXT(2) 
PARAMETRIC_REPRESENTATION_CONTEXT() REPRESENTATION_CONTEXT('2D SPACE',''
  ) );
#601 = ORIENTED_EDGE('',*,*,#550,.F.);
#602 = ORIENTED_EDGE('',*,*,#603,.T.);
#603 = EDGE_CURVE('',#551,#551,#604,.T.);
#604 = SURFACE_CURVE('',#605,(#610,#617),.PCURVE_S1.);
#605 = CIRCLE('',#606,35.);
#606 = AXIS2_PLACEMENT_3D('',#607,#608,#609);
#607 = CARTESIAN_POINT('',(0.,0.,82.5));
#608 = DIRECTION('',(0.,0.,1.));
#609 = DIRECTION('',(1.,0.,-0.));
#610 = PCURVE('',#384,#611);
#611 = DEFINITIONAL_REPRESENTATION('',(#612),#616);
#612 = LINE('',#613,#614);
#613 = CARTESIAN_POINT('',(-0.,-0.));
#614 = VECTOR('',#615,1.);
#615 = DIRECTION('',(-1.,-0.));
#616 = ( GEOMETRIC_REPRESENTATION_CONTEXT(2) 
PARAMETRIC_REPRESENTATION_CONTEXT() REPRESENTATION_CONTEXT('2D SPACE',''
  ) );
#617 = PCURVE('',#618,#623);
#618 = PLANE('',#619);
#619 = AXIS2_PLACEMENT_3D('',#620,#621,#622);
#620 = CARTESIAN_POINT('',(0.,0.,82.5));
#621 = DIRECTION('',(0.,0.,1.));
#622 = DIRECTION('',(1.,0.,-0.));
#623 = DEFINITIONAL_REPRESENTATION('',(#624),#628);
#624 = CIRCLE('',#625,35.);
#625 = AXIS2_PLACEMENT_2D('',#626,#627);
#626 = CARTESIAN_POINT('',(0.,0.));
#627 = DIRECTION('',(1.,0.));
#628 = ( GEOMETRIC_REPRESENTATION_CONTEXT(2) 
PARAMETRIC_REPRESENTATION_CONTEXT() REPRESENTATION_CONTEXT('2D SPACE',''
  ) );
#629 = FACE_BOUND('',#630,.T.);
#630 = EDGE_LOOP('',(#631));
#631 = ORIENTED_EDGE('',*,*,#78,.T.);
#632 = ADVANCED_FACE('',(#633,#636),#618,.F.);
#633 = FACE_BOUND('',#634,.F.);
#634 = EDGE_LOOP('',(#635));
#635 = ORIENTED_EDGE('',*,*,#603,.T.);
#636 = FACE_BOUND('',#637,.F.);
#637 = EDGE_LOOP('',(#638));
#638 = ORIENTED_EDGE('',*,*,#639,.F.);
#639 = EDGE_CURVE('',#640,#640,#642,.T.);
#640 = VERTEX_POINT('',#641);
#641 = CARTESIAN_POINT('',(8.,-1.959434878636E-15,82.5));
#642 = SURFACE_CURVE('',#643,(#648,#655),.PCURVE_S1.);
#643 = CIRCLE('',#644,8.);
#644 = AXIS2_PLACEMENT_3D('',#645,#646,#647);
#645 = CARTESIAN_POINT('',(0.,0.,82.5));
#646 = DIRECTION('',(0.,0.,1.));
#647 = DIRECTION('',(1.,0.,-0.));
#648 = PCURVE('',#618,#649);
#649 = DEFINITIONAL_REPRESENTATION('',(#650),#654);
#650 = CIRCLE('',#651,8.);
#651 = AXIS2_PLACEMENT_2D('',#652,#653);
#652 = CARTESIAN_POINT('',(0.,0.));
#653 = DIRECTION('',(1.,0.));
#654 = ( GEOMETRIC_REPRESENTATION_CONTEXT(2) 
PARAMETRIC_REPRESENTATION_CONTEXT() REPRESENTATION_CONTEXT('2D SPACE',''
  ) );
#655 = PCURVE('',#656,#661);
#656 = CYLINDRICAL_SURFACE('',#657,8.);
#657 = AXIS2_PLACEMENT_3D('',#658,#659,#660);
#658 = CARTESIAN_POINT('',(0.,0.,5.));
#659 = DIRECTION('',(0.,0.,1.));
#660 = DIRECTION('',(1.,0.,0.));
#661 = DEFINITIONAL_REPRESENTATION('',(#662),#666);
#662 = LINE('',#663,#664);
#663 = CARTESIAN_POINT('',(0.,77.5));
#664 = VECTOR('',#665,1.);
#665 = DIRECTION('',(1.,0.));
#666 = ( GEOMETRIC_REPRESENTATION_CONTEXT(2) 
PARAMETRIC_REPRESENTATION_CONTEXT() REPRESENTATION_CONTEXT('2D SPACE',''
  ) );
#667 = ADVANCED_FACE('',(#668),#590,.T.);
#668 = FACE_BOUND('',#669,.T.);
#669 = EDGE_LOOP('',(#670));
#670 = ORIENTED_EDGE('',*,*,#575,.T.);
#671 = ADVANCED_FACE('',(#672),#656,.T.);
#672 = FACE_BOUND('',#673,.T.);
#673 = EDGE_LOOP('',(#674,#675,#698,#725));
#674 = ORIENTED_EDGE('',*,*,#639,.F.);
#675 = ORIENTED_EDGE('',*,*,#676,.F.);
#676 = EDGE_CURVE('',#677,#640,#679,.T.);
#677 = VERTEX_POINT('',#678);
#678 = CARTESIAN_POINT('',(8.,-1.959434878636E-15,5.));
#679 = SEAM_CURVE('',#680,(#684,#691),.PCURVE_S1.);
#680 = LINE('',#681,#682);
#681 = CARTESIAN_POINT('',(8.,-1.959434878636E-15,5.));
#682 = VECTOR('',#683,1.);
#683 = DIRECTION('',(0.,0.,1.));
#684 = PCURVE('',#656,#685);
#685 = DEFINITIONAL_REPRESENTATION('',(#686),#690);
#686 = LINE('',#687,#688);
#687 = CARTESIAN_POINT('',(6.28318530718,-0.));
#688 = VECTOR('',#689,1.);
#689 = DIRECTION('',(0.,1.));
#690 = ( GEOMETRIC_REPRESENTATION_CONTEXT(2) 
PARAMETRIC_REPRESENTATION_CONTEXT() REPRESENTATION_CONTEXT('2D SPACE',''
  ) );
#691 = PCURVE('',#656,#692);
#692 = DEFINITIONAL_REPRESENTATION('',(#693),#697);
#693 = LINE('',#694,#695);
#694 = CARTESIAN_POINT('',(0.,-0.));
#695 = VECTOR('',#696,1.);
#696 = DIRECTION('',(0.,1.));
#697 = ( GEOMETRIC_REPRESENTATION_CONTEXT(2) 
PARAMETRIC_REPRESENTATION_CONTEXT() REPRESENTATION_CONTEXT('2D SPACE',''
  ) );
#698 = ORIENTED_EDGE('',*,*,#699,.T.);
#699 = EDGE_CURVE('',#677,#677,#700,.T.);
#700 = SURFACE_CURVE('',#701,(#706,#713),.PCURVE_S1.);
#701 = CIRCLE('',#702,8.);
#702 = AXIS2_PLACEMENT_3D('',#703,#704,#705);
#703 = CARTESIAN_POINT('',(0.,0.,5.));
#704 = DIRECTION('',(0.,0.,1.));
#705 = DIRECTION('',(1.,0.,0.));
#706 = PCURVE('',#656,#707);
#707 = DEFINITIONAL_REPRESENTATION('',(#708),#712);
#708 = LINE('',#709,#710);
#709 = CARTESIAN_POINT('',(0.,0.));
#710 = VECTOR('',#711,1.);
#711 = DIRECTION('',(1.,0.));
#712 = ( GEOMETRIC_REPRESENTATION_CONTEXT(2) 
PARAMETRIC_REPRESENTATION_CONTEXT() REPRESENTATION_CONTEXT('2D SPACE',''
  ) );
#713 = PCURVE('',#714,#719);
#714 = PLANE('',#715);
#715 = AXIS2_PLACEMENT_3D('',#716,#717,#718);
#716 = CARTESIAN_POINT('',(0.,0.,5.));
#717 = DIRECTION('',(0.,0.,1.));
#718 = DIRECTION('',(1.,0.,0.));
#719 = DEFINITIONAL_REPRESENTATION('',(#720),#724);
#720 = CIRCLE('',#721,8.);
#721 = AXIS2_PLACEMENT_2D('',#722,#723);
#722 = CARTESIAN_POINT('',(0.,0.));
#723 = DIRECTION('',(1.,0.));
#724 = ( GEOMETRIC_REPRESENTATION_CONTEXT(2) 
PARAMETRIC_REPRESENTATION_CONTEXT() REPRESENTATION_CONTEXT('2D SPACE',''
  ) );
#725 = ORIENTED_EDGE('',*,*,#676,.T.);
#726 = ADVANCED_FACE('',(#727),#714,.F.);
#727 = FACE_BOUND('',#728,.T.);
#728 = EDGE_LOOP('',(#729));
#729 = ORIENTED_EDGE('',*,*,#699,.F.);
#730 = ( GEOMETRIC_REPRESENTATION_CONTEXT(3) 
GLOBAL_UNCERTAINTY_ASSIGNED_CONTEXT((#734)) GLOBAL_UNIT_ASSIGNED_CONTEXT
((#731,#732,#733)) REPRESENTATION_CONTEXT('Context #1',
  '3D Context with UNIT and UNCERTAINTY') );
#731 = ( LENGTH_UNIT() NAMED_UNIT(*) SI_UNIT(.MILLI.,.METRE.) );
#732 = ( NAMED_UNIT(*) PLANE_ANGLE_UNIT() SI_UNIT($,.RADIAN.) );
#733 = ( NAMED_UNIT(*) SI_UNIT($,.STERADIAN.) SOLID_ANGLE_UNIT() );
#734 = UNCERTAINTY_MEASURE_WITH_UNIT(LENGTH_MEASURE(1.E-07),#731,
  'distance_accuracy_value','confusion accuracy');
#735 = PRODUCT_RELATED_PRODUCT_CATEGORY('part',$,(#7));
ENDSEC;
END-ISO-10303-21;
