ISO-10303-21;
HEADER;
FILE_DESCRIPTION(('Open CASCADE Model'),'2;1');
FILE_NAME('Open CASCADE Shape Model','2026-03-24T19:23:03',('Author'),(
    'Open CASCADE'),'Open CASCADE STEP processor 7.7','Open CASCADE 7.7'
  ,'Unknown');
FILE_SCHEMA(('AUTOMOTIVE_DESIGN { 1 0 10303 214 1 1 1 1 }'));
ENDSEC;
DATA;
#1 = APPLICATION_PROTOCOL_DEFINITION('international standard',
  'automotive_design',2000,#2);
#2 = APPLICATION_CONTEXT(
  'core data for automotive mechanical design processes');
#3 = SHAPE_DEFINITION_REPRESENTATION(#4,#10);
#4 = PRODUCT_DEFINITION_SHAPE('','',#5);
#5 = PRODUCT_DEFINITION('design','',#6,#9);
#6 = PRODUCT_DEFINITION_FORMATION('','',#7);
#7 = PRODUCT('Open CASCADE STEP translator 7.7 1',
  'Open CASCADE STEP translator 7.7 1','',(#8));
#8 = PRODUCT_CONTEXT('',#2,'mechanical');
#9 = PRODUCT_DEFINITION_CONTEXT('part definition',#2,'design');
#10 = ADVANCED_BREP_SHAPE_REPRESENTATION('',(#11,#15),#1247);
#11 = AXIS2_PLACEMENT_3D('',#12,#13,#14);
#12 = CARTESIAN_POINT('',(0.,0.,0.));
#13 = DIRECTION('',(0.,0.,1.));
#14 = DIRECTION('',(1.,0.,-0.));
#15 = MANIFOLD_SOLID_BREP('',#16);
#16 = CLOSED_SHELL('',(#17,#105,#140,#144,#580,#631,#1180,#1184,#1242));
#17 = ADVANCED_FACE('',(#18),#31,.T.);
#18 = FACE_BOUND('',#19,.T.);
#19 = EDGE_LOOP('',(#20,#54,#77,#104));
#20 = ORIENTED_EDGE('',*,*,#21,.F.);
#21 = EDGE_CURVE('',#22,#22,#24,.T.);
#22 = VERTEX_POINT('',#23);
#23 = CARTESIAN_POINT('',(5.,-1.224646799147E-15,65.));
#24 = SURFACE_CURVE('',#25,(#30,#42),.PCURVE_S1.);
#25 = CIRCLE('',#26,5.);
#26 = AXIS2_PLACEMENT_3D('',#27,#28,#29);
#27 = CARTESIAN_POINT('',(0.,0.,65.));
#28 = DIRECTION('',(0.,0.,1.));
#29 = DIRECTION('',(1.,0.,-0.));
#30 = PCURVE('',#31,#36);
#31 = CYLINDRICAL_SURFACE('',#32,5.);
#32 = AXIS2_PLACEMENT_3D('',#33,#34,#35);
#33 = CARTESIAN_POINT('',(0.,0.,60.));
#34 = DIRECTION('',(0.,0.,1.));
#35 = DIRECTION('',(1.,0.,0.));
#36 = DEFINITIONAL_REPRESENTATION('',(#37),#41);
#37 = LINE('',#38,#39);
#38 = CARTESIAN_POINT('',(0.,5.));
#39 = VECTOR('',#40,1.);
#40 = DIRECTION('',(1.,0.));
#41 = ( GEOMETRIC_REPRESENTATION_CONTEXT(2) 
PARAMETRIC_REPRESENTATION_CONTEXT() REPRESENTATION_CONTEXT('2D SPACE',''
  ) );
#42 = PCURVE('',#43,#48);
#43 = PLANE('',#44);
#44 = AXIS2_PLACEMENT_3D('',#45,#46,#47);
#45 = CARTESIAN_POINT('',(0.,0.,65.));
#46 = DIRECTION('',(0.,0.,1.));
#47 = DIRECTION('',(1.,0.,-0.));
#48 = DEFINITIONAL_REPRESENTATION('',(#49),#53);
#49 = CIRCLE('',#50,5.);
#50 = AXIS2_PLACEMENT_2D('',#51,#52);
#51 = CARTESIAN_POINT('',(0.,0.));
#52 = DIRECTION('',(1.,0.));
#53 = ( GEOMETRIC_REPRESENTATION_CONTEXT(2) 
PARAMETRIC_REPRESENTATION_CONTEXT() REPRESENTATION_CONTEXT('2D SPACE',''
  ) );
#54 = ORIENTED_EDGE('',*,*,#55,.F.);
#55 = EDGE_CURVE('',#56,#22,#58,.T.);
#56 = VERTEX_POINT('',#57);
#57 = CARTESIAN_POINT('',(5.,-1.224646799147E-15,60.));
#58 = SEAM_CURVE('',#59,(#63,#70),.PCURVE_S1.);
#59 = LINE('',#60,#61);
#60 = CARTESIAN_POINT('',(5.,-1.224646799147E-15,60.));
#61 = VECTOR('',#62,1.);
#62 = DIRECTION('',(0.,0.,1.));
#63 = PCURVE('',#31,#64);
#64 = DEFINITIONAL_REPRESENTATION('',(#65),#69);
#65 = LINE('',#66,#67);
#66 = CARTESIAN_POINT('',(6.28318530718,-0.));
#67 = VECTOR('',#68,1.);
#68 = DIRECTION('',(0.,1.));
#69 = ( GEOMETRIC_REPRESENTATION_CONTEXT(2) 
PARAMETRIC_REPRESENTATION_CONTEXT() REPRESENTATION_CONTEXT('2D SPACE',''
  ) );
#70 = PCURVE('',#31,#71);
#71 = DEFINITIONAL_REPRESENTATION('',(#72),#76);
#72 = LINE('',#73,#74);
#73 = CARTESIAN_POINT('',(0.,-0.));
#74 = VECTOR('',#75,1.);
#75 = DIRECTION('',(0.,1.));
#76 = ( GEOMETRIC_REPRESENTATION_CONTEXT(2) 
PARAMETRIC_REPRESENTATION_CONTEXT() REPRESENTATION_CONTEXT('2D SPACE',''
  ) );
#77 = ORIENTED_EDGE('',*,*,#78,.T.);
#78 = EDGE_CURVE('',#56,#56,#79,.T.);
#79 = SURFACE_CURVE('',#80,(#85,#92),.PCURVE_S1.);
#80 = CIRCLE('',#81,5.);
#81 = AXIS2_PLACEMENT_3D('',#82,#83,#84);
#82 = CARTESIAN_POINT('',(0.,0.,60.));
#83 = DIRECTION('',(0.,0.,1.));
#84 = DIRECTION('',(1.,0.,0.));
#85 = PCURVE('',#31,#86);
#86 = DEFINITIONAL_REPRESENTATION('',(#87),#91);
#87 = LINE('',#88,#89);
#88 = CARTESIAN_POINT('',(0.,0.));
#89 = VECTOR('',#90,1.);
#90 = DIRECTION('',(1.,0.));
#91 = ( GEOMETRIC_REPRESENTATION_CONTEXT(2) 
PARAMETRIC_REPRESENTATION_CONTEXT() REPRESENTATION_CONTEXT('2D SPACE',''
  ) );
#92 = PCURVE('',#93,#98);
#93 = PLANE('',#94);
#94 = AXIS2_PLACEMENT_3D('',#95,#96,#97);
#95 = CARTESIAN_POINT('',(0.,0.,60.));
#96 = DIRECTION('',(0.,0.,1.));
#97 = DIRECTION('',(1.,0.,0.));
#98 = DEFINITIONAL_REPRESENTATION('',(#99),#103);
#99 = CIRCLE('',#100,5.);
#100 = AXIS2_PLACEMENT_2D('',#101,#102);
#101 = CARTESIAN_POINT('',(0.,0.));
#102 = DIRECTION('',(1.,0.));
#103 = ( GEOMETRIC_REPRESENTATION_CONTEXT(2) 
PARAMETRIC_REPRESENTATION_CONTEXT() REPRESENTATION_CONTEXT('2D SPACE',''
  ) );
#104 = ORIENTED_EDGE('',*,*,#55,.T.);
#105 = ADVANCED_FACE('',(#106,#137),#43,.F.);
#106 = FACE_BOUND('',#107,.F.);
#107 = EDGE_LOOP('',(#108));
#108 = ORIENTED_EDGE('',*,*,#109,.T.);
#109 = EDGE_CURVE('',#110,#110,#112,.T.);
#110 = VERTEX_POINT('',#111);
#111 = CARTESIAN_POINT('',(35.,-8.572527594031E-15,65.));
#112 = SURFACE_CURVE('',#113,(#118,#125),.PCURVE_S1.);
#113 = CIRCLE('',#114,35.);
#114 = AXIS2_PLACEMENT_3D('',#115,#116,#117);
#115 = CARTESIAN_POINT('',(0.,0.,65.));
#116 = DIRECTION('',(0.,0.,1.));
#117 = DIRECTION('',(1.,0.,-0.));
#118 = PCURVE('',#43,#119);
#119 = DEFINITIONAL_REPRESENTATION('',(#120),#124);
#120 = CIRCLE('',#121,35.);
#121 = AXIS2_PLACEMENT_2D('',#122,#123);
#122 = CARTESIAN_POINT('',(0.,0.));
#123 = DIRECTION('',(1.,0.));
#124 = ( GEOMETRIC_REPRESENTATION_CONTEXT(2) 
PARAMETRIC_REPRESENTATION_CONTEXT() REPRESENTATION_CONTEXT('2D SPACE',''
  ) );
#125 = PCURVE('',#126,#131);
#126 = CONICAL_SURFACE('',#127,35.,2.61478853168E-02);
#127 = AXIS2_PLACEMENT_3D('',#128,#129,#130);
#128 = CARTESIAN_POINT('',(0.,0.,65.));
#129 = DIRECTION('',(-0.,-0.,-1.));
#130 = DIRECTION('',(1.,0.,-0.));
#131 = DEFINITIONAL_REPRESENTATION('',(#132),#136);
#132 = LINE('',#133,#134);
#133 = CARTESIAN_POINT('',(-0.,-0.));
#134 = VECTOR('',#135,1.);
#135 = DIRECTION('',(-1.,-0.));
#136 = ( GEOMETRIC_REPRESENTATION_CONTEXT(2) 
PARAMETRIC_REPRESENTATION_CONTEXT() REPRESENTATION_CONTEXT('2D SPACE',''
  ) );
#137 = FACE_BOUND('',#138,.F.);
#138 = EDGE_LOOP('',(#139));
#139 = ORIENTED_EDGE('',*,*,#21,.F.);
#140 = ADVANCED_FACE('',(#141),#93,.F.);
#141 = FACE_BOUND('',#142,.T.);
#142 = EDGE_LOOP('',(#143));
#143 = ORIENTED_EDGE('',*,*,#78,.F.);
#144 = ADVANCED_FACE('',(#145),#126,.T.);
#145 = FACE_BOUND('',#146,.T.);
#146 = EDGE_LOOP('',(#147,#172,#199,#200,#232,#365,#386,#387,#388,#555)
  );
#147 = ORIENTED_EDGE('',*,*,#148,.T.);
#148 = EDGE_CURVE('',#149,#151,#153,.T.);
#149 = VERTEX_POINT('',#150);
#150 = CARTESIAN_POINT('',(32.352693443087,-7.924124493774E-15,
    166.22054482313));
#151 = VERTEX_POINT('',#152);
#152 = CARTESIAN_POINT('',(31.6,-7.739767770611E-15,195.));
#153 = SEAM_CURVE('',#154,(#158,#165),.PCURVE_S1.);
#154 = LINE('',#155,#156);
#155 = CARTESIAN_POINT('',(35.,-8.572527594031E-15,65.));
#156 = VECTOR('',#157,1.);
#157 = DIRECTION('',(-2.614490581524E-02,6.403655044128E-18,
    0.999658163524));
#158 = PCURVE('',#126,#159);
#159 = DEFINITIONAL_REPRESENTATION('',(#160),#164);
#160 = LINE('',#161,#162);
#161 = CARTESIAN_POINT('',(-6.28318530718,0.));
#162 = VECTOR('',#163,1.);
#163 = DIRECTION('',(-0.,-1.));
#164 = ( GEOMETRIC_REPRESENTATION_CONTEXT(2) 
PARAMETRIC_REPRESENTATION_CONTEXT() REPRESENTATION_CONTEXT('2D SPACE',''
  ) );
#165 = PCURVE('',#126,#166);
#166 = DEFINITIONAL_REPRESENTATION('',(#167),#171);
#167 = LINE('',#168,#169);
#168 = CARTESIAN_POINT('',(0.,-0.));
#169 = VECTOR('',#170,1.);
#170 = DIRECTION('',(-0.,-1.));
#171 = ( GEOMETRIC_REPRESENTATION_CONTEXT(2) 
PARAMETRIC_REPRESENTATION_CONTEXT() REPRESENTATION_CONTEXT('2D SPACE',''
  ) );
#172 = ORIENTED_EDGE('',*,*,#173,.F.);
#173 = EDGE_CURVE('',#151,#151,#174,.T.);
#174 = SURFACE_CURVE('',#175,(#180,#187),.PCURVE_S1.);
#175 = CIRCLE('',#176,31.6);
#176 = AXIS2_PLACEMENT_3D('',#177,#178,#179);
#177 = CARTESIAN_POINT('',(0.,0.,195.));
#178 = DIRECTION('',(0.,0.,1.));
#179 = DIRECTION('',(1.,0.,-0.));
#180 = PCURVE('',#126,#181);
#181 = DEFINITIONAL_REPRESENTATION('',(#182),#186);
#182 = LINE('',#183,#184);
#183 = CARTESIAN_POINT('',(-0.,-130.));
#184 = VECTOR('',#185,1.);
#185 = DIRECTION('',(-1.,-0.));
#186 = ( GEOMETRIC_REPRESENTATION_CONTEXT(2) 
PARAMETRIC_REPRESENTATION_CONTEXT() REPRESENTATION_CONTEXT('2D SPACE',''
  ) );
#187 = PCURVE('',#188,#193);
#188 = PLANE('',#189);
#189 = AXIS2_PLACEMENT_3D('',#190,#191,#192);
#190 = CARTESIAN_POINT('',(0.,0.,195.));
#191 = DIRECTION('',(0.,0.,1.));
#192 = DIRECTION('',(1.,0.,-0.));
#193 = DEFINITIONAL_REPRESENTATION('',(#194),#198);
#194 = CIRCLE('',#195,31.6);
#195 = AXIS2_PLACEMENT_2D('',#196,#197);
#196 = CARTESIAN_POINT('',(0.,0.));
#197 = DIRECTION('',(1.,0.));
#198 = ( GEOMETRIC_REPRESENTATION_CONTEXT(2) 
PARAMETRIC_REPRESENTATION_CONTEXT() REPRESENTATION_CONTEXT('2D SPACE',''
  ) );
#199 = ORIENTED_EDGE('',*,*,#148,.F.);
#200 = ORIENTED_EDGE('',*,*,#201,.T.);
#201 = EDGE_CURVE('',#149,#202,#204,.T.);
#202 = VERTEX_POINT('',#203);
#203 = CARTESIAN_POINT('',(31.92653414732,5.273481710989,165.974501639)
  );
#204 = SURFACE_CURVE('',#205,(#210,#220),.PCURVE_S1.);
#205 = ELLIPSE('',#206,37.930419216236,32.844961521828);
#206 = AXIS2_PLACEMENT_3D('',#207,#208,#209);
#207 = CARTESIAN_POINT('',(-0.496013174366,0.,147.25533521501));
#208 = DIRECTION('',(-0.5,0.,0.866025403784));
#209 = DIRECTION('',(-0.866025403784,0.,-0.5));
#210 = PCURVE('',#126,#211);
#211 = DEFINITIONAL_REPRESENTATION('',(#212),#219);
#212 = B_SPLINE_CURVE_WITH_KNOTS('',5,(#213,#214,#215,#216,#217,#218),
  .UNSPECIFIED.,.F.,.F.,(6,6),(3.14159265359,3.362599103734),
  .PIECEWISE_BEZIER_KNOTS.);
#213 = CARTESIAN_POINT('',(8.881784197001E-16,-101.2205448231));
#214 = CARTESIAN_POINT('',(-4.487384250617E-02,-101.2205448231));
#215 = CARTESIAN_POINT('',(-8.974768502029E-02,-101.1742281963));
#216 = CARTESIAN_POINT('',(-0.134618727193,-101.0815945035));
#217 = CARTESIAN_POINT('',(-0.179484168869,-100.9430223213));
#218 = CARTESIAN_POINT('',(-0.224341284085,-100.7592600582));
#219 = ( GEOMETRIC_REPRESENTATION_CONTEXT(2) 
PARAMETRIC_REPRESENTATION_CONTEXT() REPRESENTATION_CONTEXT('2D SPACE',''
  ) );
#220 = PCURVE('',#221,#226);
#221 = PLANE('',#222);
#222 = AXIS2_PLACEMENT_3D('',#223,#224,#225);
#223 = CARTESIAN_POINT('',(34.405,0.,167.40544456622));
#224 = DIRECTION('',(-0.5,0.,0.866025403784));
#225 = DIRECTION('',(0.866025403784,0.,0.5));
#226 = DEFINITIONAL_REPRESENTATION('',(#227),#231);
#227 = ELLIPSE('',#228,37.930419216236,32.844961521828);
#228 = AXIS2_PLACEMENT_2D('',#229,#230);
#229 = CARTESIAN_POINT('',(-40.30021870242,0.));
#230 = DIRECTION('',(-1.,0.));
#231 = ( GEOMETRIC_REPRESENTATION_CONTEXT(2) 
PARAMETRIC_REPRESENTATION_CONTEXT() REPRESENTATION_CONTEXT('2D SPACE',''
  ) );
#232 = ORIENTED_EDGE('',*,*,#233,.T.);
#233 = EDGE_CURVE('',#202,#234,#236,.T.);
#234 = VERTEX_POINT('',#235);
#235 = CARTESIAN_POINT('',(32.551590866145,-7.972840312276E-15,
    158.61564335327));
#236 = SURFACE_CURVE('',#237,(#276,#318),.PCURVE_S1.);
#237 = B_SPLINE_CURVE_WITH_KNOTS('',7,(#238,#239,#240,#241,#242,#243,
    #244,#245,#246,#247,#248,#249,#250,#251,#252,#253,#254,#255,#256,
    #257,#258,#259,#260,#261,#262,#263,#264,#265,#266,#267,#268,#269,
    #270,#271,#272,#273,#274,#275),.UNSPECIFIED.,.F.,.F.,(8,6,6,6,6,6,8)
  ,(0.,0.324184864532,0.600749747527,0.716459643392,0.815076804014,
    0.926583930541,1.),.UNSPECIFIED.);
#238 = CARTESIAN_POINT('',(31.92653410315,5.273481871304,165.97450230632
    ));
#239 = CARTESIAN_POINT('',(31.952066497943,5.180810940468,
    165.58875687767));
#240 = CARTESIAN_POINT('',(31.978511870119,5.080452604881,165.2038749593
    ));
#241 = CARTESIAN_POINT('',(32.005836769165,4.972010027479,
    164.81993346135));
#242 = CARTESIAN_POINT('',(32.034004896164,4.854981444121,
    164.43705204215));
#243 = CARTESIAN_POINT('',(32.062975607281,4.728712135772,
    164.05539897494));
#244 = CARTESIAN_POINT('',(32.092702761869,4.592358758239,
    163.67519504509));
#245 = CARTESIAN_POINT('',(32.149089889853,4.318657035784,
    162.97387820869));
#246 = CARTESIAN_POINT('',(32.175553111374,4.184426333042,
    162.65236207919));
#247 = CARTESIAN_POINT('',(32.202491645958,4.041156995336,
    162.33230901071));
#248 = CARTESIAN_POINT('',(32.229865147377,3.887870033316,
    162.01396913341));
#249 = CARTESIAN_POINT('',(32.257615924737,3.723228109414,
    161.69776490747));
#250 = CARTESIAN_POINT('',(32.285667981196,3.545566606508,
    161.38428193268));
#251 = CARTESIAN_POINT('',(32.325719059906,3.270847849682,
    160.94483718104));
#252 = CARTESIAN_POINT('',(32.337563952309,3.187018281509,
    160.81587021925));
#253 = CARTESIAN_POINT('',(32.349431380743,3.100174286173,
    160.68762757519));
#254 = CARTESIAN_POINT('',(32.361310117158,3.010061288843,
    160.56020482743));
#255 = CARTESIAN_POINT('',(32.37318588752,2.916384624492,160.43372659051
    ));
#256 = CARTESIAN_POINT('',(32.385040516761,2.818782898166,160.3083535091
    ));
#257 = CARTESIAN_POINT('',(32.40691583984,2.62984372495,160.07856286831)
  );
#258 = CARTESIAN_POINT('',(32.416946676861,2.539727917285,
    159.97380741918));
#259 = CARTESIAN_POINT('',(32.426930204052,2.446125788529,
    159.87013929825));
#260 = CARTESIAN_POINT('',(32.436847323087,2.348684974537,
    159.76773190869));
#261 = CARTESIAN_POINT('',(32.446672374591,2.247005856276,
    159.66682132279));
#262 = CARTESIAN_POINT('',(32.456371162187,2.140594186033,
    159.56772321443));
#263 = CARTESIAN_POINT('',(32.476668433262,1.902323872295,
    159.36135102509));
#264 = CARTESIAN_POINT('',(32.48719018933,1.769293537484,159.25499235664
    ));
#265 = CARTESIAN_POINT('',(32.497431828266,1.628335574972,
    159.15203496624));
#266 = CARTESIAN_POINT('',(32.507298179564,1.478195229904,
    159.05337389009));
#267 = CARTESIAN_POINT('',(32.516617942404,1.317601530262,
    158.96063793769));
#268 = CARTESIAN_POINT('',(32.525148175219,1.145364391888,
    158.87611282438));
#269 = CARTESIAN_POINT('',(32.537395550959,0.837512870558,
    158.75513009814));
#270 = CARTESIAN_POINT('',(32.541763198069,0.709441664618,
    158.71209867293));
#271 = CARTESIAN_POINT('',(32.545511883359,0.575559642197,158.6752517748
    ));
#272 = CARTESIAN_POINT('',(32.548493983697,0.436323093088,
    158.64599623255));
#273 = CARTESIAN_POINT('',(32.550558592329,0.292703066242,
    158.62576089358));
#274 = CARTESIAN_POINT('',(32.551590866145,0.146352839041,
    158.61564335327));
#275 = CARTESIAN_POINT('',(32.551590866145,3.673940397442E-16,
    158.61564335327));
#276 = PCURVE('',#126,#277);
#277 = DEFINITIONAL_REPRESENTATION('',(#278),#317);
#278 = B_SPLINE_CURVE_WITH_KNOTS('',7,(#279,#280,#281,#282,#283,#284,
    #285,#286,#287,#288,#289,#290,#291,#292,#293,#294,#295,#296,#297,
    #298,#299,#300,#301,#302,#303,#304,#305,#306,#307,#308,#309,#310,
    #311,#312,#313,#314,#315,#316),.UNSPECIFIED.,.F.,.F.,(8,6,6,6,6,6,8)
  ,(0.,0.324184864532,0.600749747527,0.716459643392,0.815076804014,
    0.926583930541,1.),.UNSPECIFIED.);
#279 = CARTESIAN_POINT('',(-0.163697482088,-100.9745023063));
#280 = CARTESIAN_POINT('',(-0.160743354223,-100.5887568776));
#281 = CARTESIAN_POINT('',(-0.157552388125,-100.2038749593));
#282 = CARTESIAN_POINT('',(-0.154112911853,-99.81993346135));
#283 = CARTESIAN_POINT('',(-0.15041006099,-99.43705204215));
#284 = CARTESIAN_POINT('',(-0.146424312395,-99.05539897494));
#285 = CARTESIAN_POINT('',(-0.142130395746,-98.67519504509));
#286 = CARTESIAN_POINT('',(-0.133531743018,-97.97387820869));
#287 = CARTESIAN_POINT('',(-0.129322168891,-97.65236207919));
#288 = CARTESIAN_POINT('',(-0.124837055853,-97.33230901071));
#289 = CARTESIAN_POINT('',(-0.120046811123,-97.01396913341));
#290 = CARTESIAN_POINT('',(-0.114910910734,-96.69776490747));
#291 = CARTESIAN_POINT('',(-0.109378855198,-96.38428193268));
#292 = CARTESIAN_POINT('',(-0.100840593855,-95.94483718104));
#293 = CARTESIAN_POINT('',(-9.823697929257E-02,-95.81587021925));
#294 = CARTESIAN_POINT('',(-9.55416194163E-02,-95.68762757519));
#295 = CARTESIAN_POINT('',(-9.274675621384E-02,-95.56020482743));
#296 = CARTESIAN_POINT('',(-8.984340725667E-02,-95.43372659051));
#297 = CARTESIAN_POINT('',(-8.682054727395E-02,-95.3083535091));
#298 = CARTESIAN_POINT('',(-8.097302213402E-02,-95.07856286831));
#299 = CARTESIAN_POINT('',(-7.818557489711E-02,-94.97380741918));
#300 = CARTESIAN_POINT('',(-7.529191602793E-02,-94.87013929825));
#301 = CARTESIAN_POINT('',(-7.228127975553E-02,-94.76773190869));
#302 = CARTESIAN_POINT('',(-6.914145754508E-02,-94.66682132279));
#303 = CARTESIAN_POINT('',(-6.585734002184E-02,-94.56772321443));
#304 = CARTESIAN_POINT('',(-5.850787617771E-02,-94.36135102509));
#305 = CARTESIAN_POINT('',(-5.440690209432E-02,-94.25499235664));
#306 = CARTESIAN_POINT('',(-5.006396767672E-02,-94.15203496624));
#307 = CARTESIAN_POINT('',(-4.544066581394E-02,-94.05337389009));
#308 = CARTESIAN_POINT('',(-4.0498124724E-02,-93.96063793769));
#309 = CARTESIAN_POINT('',(-3.519991434159E-02,-93.87611282438));
#310 = CARTESIAN_POINT('',(-2.573416436402E-02,-93.75513009814));
#311 = CARTESIAN_POINT('',(-2.179725697833E-02,-93.71209867293));
#312 = CARTESIAN_POINT('',(-1.768266761179E-02,-93.6752517748));
#313 = CARTESIAN_POINT('',(-1.340435014895E-02,-93.64599623255));
#314 = CARTESIAN_POINT('',(-8.991974225288E-03,-93.62576089358));
#315 = CARTESIAN_POINT('',(-4.496027233907E-03,-93.61564335327));
#316 = CARTESIAN_POINT('',(-1.128651565003E-17,-93.61564335327));
#317 = ( GEOMETRIC_REPRESENTATION_CONTEXT(2) 
PARAMETRIC_REPRESENTATION_CONTEXT() REPRESENTATION_CONTEXT('2D SPACE',''
  ) );
#318 = PCURVE('',#319,#324);
#319 = CYLINDRICAL_SURFACE('',#320,6.);
#320 = AXIS2_PLACEMENT_3D('',#321,#322,#323);
#321 = CARTESIAN_POINT('',(51.905,0.,137.09455543377));
#322 = DIRECTION('',(-0.5,0.,0.866025403784));
#323 = DIRECTION('',(0.866025403784,0.,0.5));
#324 = DEFINITIONAL_REPRESENTATION('',(#325),#364);
#325 = B_SPLINE_CURVE_WITH_KNOTS('',7,(#326,#327,#328,#329,#330,#331,
    #332,#333,#334,#335,#336,#337,#338,#339,#340,#341,#342,#343,#344,
    #345,#346,#347,#348,#349,#350,#351,#352,#353,#354,#355,#356,#357,
    #358,#359,#360,#361,#362,#363),.UNSPECIFIED.,.F.,.F.,(8,6,6,6,6,6,8)
  ,(0.,0.324184864532,0.600749747527,0.716459643392,0.815076804014,
    0.926583930541,1.),.UNSPECIFIED.);
#326 = CARTESIAN_POINT('',(2.068012818912,35.0000006));
#327 = CARTESIAN_POINT('',(2.100393893879,34.653169061998));
#328 = CARTESIAN_POINT('',(2.133207016375,34.306628857148));
#329 = CARTESIAN_POINT('',(2.166537873533,33.960463316833));
#330 = CARTESIAN_POINT('',(2.20048405641,33.614794217669));
#331 = CARTESIAN_POINT('',(2.235163685861,33.269787610472));
#332 = CARTESIAN_POINT('',(2.27072165526,32.92565777131));
#333 = CARTESIAN_POINT('',(2.33862915074,32.290106010891));
#334 = CARTESIAN_POINT('',(2.370675510364,31.998433264264));
#335 = CARTESIAN_POINT('',(2.40364293155,31.707789909106));
#336 = CARTESIAN_POINT('',(2.4376897102,31.418412737613));
#337 = CARTESIAN_POINT('',(2.473027808147,31.13069645649));
#338 = CARTESIAN_POINT('',(2.50991867275,30.845186208432));
#339 = CARTESIAN_POINT('',(2.565122621051,30.444590350605));
#340 = CARTESIAN_POINT('',(2.581759564819,30.326979239242));
#341 = CARTESIAN_POINT('',(2.598784691737,30.209984137415));
#342 = CARTESIAN_POINT('',(2.616238156218,30.093693432635));
#343 = CARTESIAN_POINT('',(2.634166287678,29.978222181249));
#344 = CARTESIAN_POINT('',(2.652626077725,29.863718593177));
#345 = CARTESIAN_POINT('',(2.687943902427,29.653776399168));
#346 = CARTESIAN_POINT('',(2.704632504228,29.55804010052));
#347 = CARTESIAN_POINT('',(2.721808198064,29.463269110641));
#348 = CARTESIAN_POINT('',(2.739526910653,29.36962315023));
#349 = CARTESIAN_POINT('',(2.757851812252,29.277319493576));
#350 = CARTESIAN_POINT('',(2.776861470787,29.186648620467));
#351 = CARTESIAN_POINT('',(2.819058593002,28.997776426333));
#352 = CARTESIAN_POINT('',(2.84240777309,28.900406239507));
#353 = CARTESIAN_POINT('',(2.866936722486,28.806121704441));
#354 = CARTESIAN_POINT('',(2.892846486226,28.715745530481));
#355 = CARTESIAN_POINT('',(2.920338624669,28.630773958443));
#356 = CARTESIAN_POINT('',(2.949604962305,28.553307946651));
#357 = CARTESIAN_POINT('',(3.001582803446,28.442410144438));
#358 = CARTESIAN_POINT('',(3.023125925054,28.402960013493));
#359 = CARTESIAN_POINT('',(3.045571236297,28.369175321013));
#360 = CARTESIAN_POINT('',(3.068848428967,28.342348228054));
#361 = CARTESIAN_POINT('',(3.092808810714,28.323791606134));
#362 = CARTESIAN_POINT('',(3.11720051375,28.314513422297));
#363 = CARTESIAN_POINT('',(3.14159265359,28.314513422297));
#364 = ( GEOMETRIC_REPRESENTATION_CONTEXT(2) 
PARAMETRIC_REPRESENTATION_CONTEXT() REPRESENTATION_CONTEXT('2D SPACE',''
  ) );
#365 = ORIENTED_EDGE('',*,*,#366,.F.);
#366 = EDGE_CURVE('',#110,#234,#367,.T.);
#367 = SEAM_CURVE('',#368,(#372,#379),.PCURVE_S1.);
#368 = LINE('',#369,#370);
#369 = CARTESIAN_POINT('',(35.,-8.572527594031E-15,65.));
#370 = VECTOR('',#371,1.);
#371 = DIRECTION('',(-2.614490581524E-02,6.403655044128E-18,
    0.999658163524));
#372 = PCURVE('',#126,#373);
#373 = DEFINITIONAL_REPRESENTATION('',(#374),#378);
#374 = LINE('',#375,#376);
#375 = CARTESIAN_POINT('',(-6.28318530718,0.));
#376 = VECTOR('',#377,1.);
#377 = DIRECTION('',(-0.,-1.));
#378 = ( GEOMETRIC_REPRESENTATION_CONTEXT(2) 
PARAMETRIC_REPRESENTATION_CONTEXT() REPRESENTATION_CONTEXT('2D SPACE',''
  ) );
#379 = PCURVE('',#126,#380);
#380 = DEFINITIONAL_REPRESENTATION('',(#381),#385);
#381 = LINE('',#382,#383);
#382 = CARTESIAN_POINT('',(0.,-0.));
#383 = VECTOR('',#384,1.);
#384 = DIRECTION('',(-0.,-1.));
#385 = ( GEOMETRIC_REPRESENTATION_CONTEXT(2) 
PARAMETRIC_REPRESENTATION_CONTEXT() REPRESENTATION_CONTEXT('2D SPACE',''
  ) );
#386 = ORIENTED_EDGE('',*,*,#109,.T.);
#387 = ORIENTED_EDGE('',*,*,#366,.T.);
#388 = ORIENTED_EDGE('',*,*,#389,.T.);
#389 = EDGE_CURVE('',#234,#390,#392,.T.);
#390 = VERTEX_POINT('',#391);
#391 = CARTESIAN_POINT('',(31.92653414732,-5.273481710989,165.974501639)
  );
#392 = SURFACE_CURVE('',#393,(#445,#500),.PCURVE_S1.);
#393 = B_SPLINE_CURVE_WITH_KNOTS('',8,(#394,#395,#396,#397,#398,#399,
    #400,#401,#402,#403,#404,#405,#406,#407,#408,#409,#410,#411,#412,
    #413,#414,#415,#416,#417,#418,#419,#420,#421,#422,#423,#424,#425,
    #426,#427,#428,#429,#430,#431,#432,#433,#434,#435,#436,#437,#438,
    #439,#440,#441,#442,#443,#444),.UNSPECIFIED.,.F.,.F.,(9,7,7,7,7,7,7,
    9),(0.,5.126275239319E-02,8.935898482168E-02,0.157292349916,
    0.341364545861,0.544753633592,0.785716197113,1.),.UNSPECIFIED.);
#394 = CARTESIAN_POINT('',(32.551590866145,0.,158.61564335327));
#395 = CARTESIAN_POINT('',(32.551590866145,-8.928072661193E-02,
    158.61564335327));
#396 = CARTESIAN_POINT('',(32.551214549488,-0.178591975152,
    158.61933172588));
#397 = CARTESIAN_POINT('',(32.550461437801,-0.267361773473,
    158.62671302975));
#398 = CARTESIAN_POINT('',(32.549344499254,-0.355127483725,
    158.63766355054));
#399 = CARTESIAN_POINT('',(32.54788592166,-0.441520438235,
    158.65197201602));
#400 = CARTESIAN_POINT('',(32.546113544221,-0.526253202199,
    158.66937364263));
#401 = CARTESIAN_POINT('',(32.544057947912,-0.609109463194,
    158.6895775136));
#402 = CARTESIAN_POINT('',(32.540035190692,-0.750003696559,
    158.72916419866));
#403 = CARTESIAN_POINT('',(32.538180102684,-0.80897796639,
    158.74743312003));
#404 = CARTESIAN_POINT('',(32.536196623654,-0.866827553287,
    158.76698307398));
#405 = CARTESIAN_POINT('',(32.534096028831,-0.923537696131,
    158.78770696133));
#406 = CARTESIAN_POINT('',(32.531888968901,-0.979108643662,
    158.80950365055));
#407 = CARTESIAN_POINT('',(32.529585253409,-1.033553621772,
    158.83228006599));
#408 = CARTESIAN_POINT('',(32.527193634157,-1.086896800787,
    158.85595327599));
#409 = CARTESIAN_POINT('',(32.520313426364,-1.232387307603,
    158.92413984718));
#410 = CARTESIAN_POINT('',(32.515651685963,-1.322161346281,
    158.97043256109));
#411 = CARTESIAN_POINT('',(32.510778271832,-1.40871420181,
    159.01893492863));
#412 = CARTESIAN_POINT('',(32.50572817954,-1.492245904807,
    159.06931657175));
#413 = CARTESIAN_POINT('',(32.500530240105,-1.572947158432,
    159.12130530084));
#414 = CARTESIAN_POINT('',(32.495207647006,-1.651006955371,
    159.17468236908));
#415 = CARTESIAN_POINT('',(32.489778265902,-1.726616346848,
    159.22928020919));
#416 = CARTESIAN_POINT('',(32.469288150317,-1.998722934313,
    159.43591395067));
#417 = CARTESIAN_POINT('',(32.453663856871,-2.180461960605,
    159.59461649445));
#418 = CARTESIAN_POINT('',(32.437641445807,-2.349111395875,
    159.75868570603));
#419 = CARTESIAN_POINT('',(32.421371367715,-2.506532986335,
    159.92673561619));
#420 = CARTESIAN_POINT('',(32.404967059586,-2.654386349734,
    160.09771043228));
#421 = CARTESIAN_POINT('',(32.388494841533,-2.793842805255,
    160.27100201763));
#422 = CARTESIAN_POINT('',(32.371993161091,-2.925999399906,
    160.44628113101));
#423 = CARTESIAN_POINT('',(32.337214559455,-3.19080705567,
    160.81939459535));
#424 = CARTESIAN_POINT('',(32.318965561779,-3.321809347,161.0173171161)
  );
#425 = CARTESIAN_POINT('',(32.300769428707,-3.445890140491,
    161.21691505534));
#426 = CARTESIAN_POINT('',(32.282660212626,-3.563802514891,
    161.4179025578));
#427 = CARTESIAN_POINT('',(32.26466449848,-3.676137664139,
    161.62006105871));
#428 = CARTESIAN_POINT('',(32.246803072054,-3.783385584551,
    161.82322626651));
#429 = CARTESIAN_POINT('',(32.22909159503,-3.885951213936,
    162.02728480507));
#430 = CARTESIAN_POINT('',(32.190749741329,-4.100570254875,
    162.47489797372));
#431 = CARTESIAN_POINT('',(32.170188238353,-4.210855761463,
    162.71874232873));
#432 = CARTESIAN_POINT('',(32.149879626544,-4.315610184087,
    162.96354563742));
#433 = CARTESIAN_POINT('',(32.129842779913,-4.415271333543,
    163.20918475986));
#434 = CARTESIAN_POINT('',(32.110093852198,-4.51019067717,
    163.45556111345));
#435 = CARTESIAN_POINT('',(32.090646884294,-4.600662490939,
    163.70259628396));
#436 = CARTESIAN_POINT('',(32.071514200861,-4.686939512252,
    163.95022973581));
#437 = CARTESIAN_POINT('',(32.035981321423,-4.842419117718,
    164.41912866676));
#438 = CARTESIAN_POINT('',(32.019513670798,-4.912452779961,
    164.64027080852));
#439 = CARTESIAN_POINT('',(32.003311611754,-4.979484781718,
    164.86180955917));
#440 = CARTESIAN_POINT('',(31.987382633256,-5.043642105601,
    165.08371387788));
#441 = CARTESIAN_POINT('',(31.971733809088,-5.105033189561,
    165.30595682513));
#442 = CARTESIAN_POINT('',(31.956371861207,-5.163751101166,
    165.52851521717));
#443 = CARTESIAN_POINT('',(31.941303223102,-5.219876711873,
    165.7513692805));
#444 = CARTESIAN_POINT('',(31.92653410315,-5.273481871304,
    165.97450230632));
#445 = PCURVE('',#126,#446);
#446 = DEFINITIONAL_REPRESENTATION('',(#447),#499);
#447 = B_SPLINE_CURVE_WITH_KNOTS('',8,(#448,#449,#450,#451,#452,#453,
    #454,#455,#456,#457,#458,#459,#460,#461,#462,#463,#464,#465,#466,
    #467,#468,#469,#470,#471,#472,#473,#474,#475,#476,#477,#478,#479,
    #480,#481,#482,#483,#484,#485,#486,#487,#488,#489,#490,#491,#492,
    #493,#494,#495,#496,#497,#498),.UNSPECIFIED.,.F.,.F.,(9,7,7,7,7,7,7,
    9),(0.,5.126275239319E-02,8.935898482168E-02,0.157292349916,
    0.341364545861,0.544753633592,0.785716197113,1.),.UNSPECIFIED.);
#448 = CARTESIAN_POINT('',(-6.28318530718,-93.61564335327));
#449 = CARTESIAN_POINT('',(-6.280442561764,-93.61564335327));
#450 = CARTESIAN_POINT('',(-6.277698878736,-93.61933172588));
#451 = CARTESIAN_POINT('',(-6.274971765237,-93.62671302975));
#452 = CARTESIAN_POINT('',(-6.272275369818,-93.63766355054));
#453 = CARTESIAN_POINT('',(-6.26962096225,-93.65197201602));
#454 = CARTESIAN_POINT('',(-6.267017329172,-93.66937364263));
#455 = CARTESIAN_POINT('',(-6.264471085593,-93.6895775136));
#456 = CARTESIAN_POINT('',(-6.260140765973,-93.72916419866));
#457 = CARTESIAN_POINT('',(-6.25832805011,-93.74743312003));
#458 = CARTESIAN_POINT('',(-6.256549723015,-93.76698307398));
#459 = CARTESIAN_POINT('',(-6.254806232499,-93.78770696133));
#460 = CARTESIAN_POINT('',(-6.253097567682,-93.80950365055));
#461 = CARTESIAN_POINT('',(-6.251423320853,-93.83228006599));
#462 = CARTESIAN_POINT('',(-6.24978274933,-93.85595327599));
#463 = CARTESIAN_POINT('',(-6.245307601733,-93.92413984718));
#464 = CARTESIAN_POINT('',(-6.242545561017,-93.97043256109));
#465 = CARTESIAN_POINT('',(-6.239881934118,-94.01893492863));
#466 = CARTESIAN_POINT('',(-6.237310588603,-94.06931657175));
#467 = CARTESIAN_POINT('',(-6.234825683878,-94.12130530084));
#468 = CARTESIAN_POINT('',(-6.232421433409,-94.17468236908));
#469 = CARTESIAN_POINT('',(-6.230091985923,-94.22928020919));
#470 = CARTESIAN_POINT('',(-6.221706213056,-94.43591395067));
#471 = CARTESIAN_POINT('',(-6.216100388781,-94.59461649445));
#472 = CARTESIAN_POINT('',(-6.210893657439,-94.75868570603));
#473 = CARTESIAN_POINT('',(-6.206029148163,-94.92673561619));
#474 = CARTESIAN_POINT('',(-6.201456171274,-95.09771043228));
#475 = CARTESIAN_POINT('',(-6.197138987791,-95.27100201763));
#476 = CARTESIAN_POINT('',(-6.193044075517,-95.44628113101));
#477 = CARTESIAN_POINT('',(-6.184831430171,-95.81939459535));
#478 = CARTESIAN_POINT('',(-6.180764005141,-96.0173171161));
#479 = CARTESIAN_POINT('',(-6.17690721693,-96.21691505534));
#480 = CARTESIAN_POINT('',(-6.173238133989,-96.4179025578));
#481 = CARTESIAN_POINT('',(-6.169738777668,-96.62006105871));
#482 = CARTESIAN_POINT('',(-6.166394259431,-96.82322626651));
#483 = CARTESIAN_POINT('',(-6.163192285512,-97.02728480507));
#484 = CARTESIAN_POINT('',(-6.156484873444,-97.47489797372));
#485 = CARTESIAN_POINT('',(-6.153033285374,-97.71874232873));
#486 = CARTESIAN_POINT('',(-6.149750210657,-97.96354563742));
#487 = CARTESIAN_POINT('',(-6.146622406743,-98.20918475986));
#488 = CARTESIAN_POINT('',(-6.143639268522,-98.45556111345));
#489 = CARTESIAN_POINT('',(-6.14079193507,-98.70259628396));
#490 = CARTESIAN_POINT('',(-6.13807281034,-98.95022973581));
#491 = CARTESIAN_POINT('',(-6.133165753087,-99.41912866676));
#492 = CARTESIAN_POINT('',(-6.130952395956,-99.64027080852));
#493 = CARTESIAN_POINT('',(-6.12883097066,-99.86180955917));
#494 = CARTESIAN_POINT('',(-6.126797684156,-100.0837138778));
#495 = CARTESIAN_POINT('',(-6.124849309058,-100.3059568251));
#496 = CARTESIAN_POINT('',(-6.122983086581,-100.5285152171));
#497 = CARTESIAN_POINT('',(-6.121196629501,-100.7513692805));
#498 = CARTESIAN_POINT('',(-6.119487825092,-100.9745023063));
#499 = ( GEOMETRIC_REPRESENTATION_CONTEXT(2) 
PARAMETRIC_REPRESENTATION_CONTEXT() REPRESENTATION_CONTEXT('2D SPACE',''
  ) );
#500 = PCURVE('',#319,#501);
#501 = DEFINITIONAL_REPRESENTATION('',(#502),#554);
#502 = B_SPLINE_CURVE_WITH_KNOTS('',8,(#503,#504,#505,#506,#507,#508,
    #509,#510,#511,#512,#513,#514,#515,#516,#517,#518,#519,#520,#521,
    #522,#523,#524,#525,#526,#527,#528,#529,#530,#531,#532,#533,#534,
    #535,#536,#537,#538,#539,#540,#541,#542,#543,#544,#545,#546,#547,
    #548,#549,#550,#551,#552,#553),.UNSPECIFIED.,.F.,.F.,(9,7,7,7,7,7,7,
    9),(0.,5.126275239319E-02,8.935898482168E-02,0.157292349916,
    0.341364545861,0.544753633592,0.785716197113,1.),.UNSPECIFIED.);
#503 = CARTESIAN_POINT('',(3.14159265359,28.314513422297));
#504 = CARTESIAN_POINT('',(3.156472774692,28.314513422297));
#505 = CARTESIAN_POINT('',(3.171357979919,28.317895805006));
#506 = CARTESIAN_POINT('',(3.18615797397,28.324664757509));
#507 = CARTESIAN_POINT('',(3.200800665258,28.334706655972));
#508 = CARTESIAN_POINT('',(3.215229020581,28.347827439365));
#509 = CARTESIAN_POINT('',(3.229398614246,28.363783878799));
#510 = CARTESIAN_POINT('',(3.243275871633,28.382308742463));
#511 = CARTESIAN_POINT('',(3.266915049242,28.418603195987));
#512 = CARTESIAN_POINT('',(3.27682316426,28.435352089999));
#513 = CARTESIAN_POINT('',(3.286556786287,28.453274586278));
#514 = CARTESIAN_POINT('',(3.296113962439,28.472272296595));
#515 = CARTESIAN_POINT('',(3.305495058423,28.492252313146));
#516 = CARTESIAN_POINT('',(3.314702464017,28.513129125267));
#517 = CARTESIAN_POINT('',(3.323740298562,28.53482653615));
#518 = CARTESIAN_POINT('',(3.348437946565,28.597317942894));
#519 = CARTESIAN_POINT('',(3.363732819836,28.639739479345));
#520 = CARTESIAN_POINT('',(3.378535782464,28.684180468842));
#521 = CARTESIAN_POINT('',(3.392879663558,28.73033729782));
#522 = CARTESIAN_POINT('',(3.406795319391,28.777959827634));
#523 = CARTESIAN_POINT('',(3.420313189993,28.826847021264));
#524 = CARTESIAN_POINT('',(3.433464168076,28.876844828339));
#525 = CARTESIAN_POINT('',(3.481004953707,29.066039955538));
#526 = CARTESIAN_POINT('',(3.513190648329,29.211292536816));
#527 = CARTESIAN_POINT('',(3.543475752244,29.361391847552));
#528 = CARTESIAN_POINT('',(3.572153798838,29.515062377903));
#529 = CARTESIAN_POINT('',(3.599485928558,29.671333066109));
#530 = CARTESIAN_POINT('',(3.625655165768,29.829644090311));
#531 = CARTESIAN_POINT('',(3.650837240001,29.989691095473));
#532 = CARTESIAN_POINT('',(3.702097959984,30.330206134903));
#533 = CARTESIAN_POINT('',(3.727945849818,30.510736564694));
#534 = CARTESIAN_POINT('',(3.752905057483,30.692691517151));
#535 = CARTESIAN_POINT('',(3.777094076227,30.87580640817));
#536 = CARTESIAN_POINT('',(3.800605696374,31.059878662616));
#537 = CARTESIAN_POINT('',(3.823517121858,31.244755606948));
#538 = CARTESIAN_POINT('',(3.845892799384,31.430331223714));
#539 = CARTESIAN_POINT('',(3.893732313883,31.837146525688));
#540 = CARTESIAN_POINT('',(3.918998480666,32.058602683179));
#541 = CARTESIAN_POINT('',(3.943679207171,32.280762873338));
#542 = CARTESIAN_POINT('',(3.967845015602,32.503511016852));
#543 = CARTESIAN_POINT('',(3.991553148222,32.726753661812));
#544 = CARTESIAN_POINT('',(4.014852355509,32.950415879055));
#545 = CARTESIAN_POINT('',(4.037785518169,33.1744390809));
#546 = CARTESIAN_POINT('',(4.080491965895,33.598283906626));
#547 = CARTESIAN_POINT('',(4.100333433063,33.79803244455));
#548 = CARTESIAN_POINT('',(4.119940418292,33.99799166006));
#549 = CARTESIAN_POINT('',(4.139335656789,34.198130926521));
#550 = CARTESIAN_POINT('',(4.158539238961,34.398423376732));
#551 = CARTESIAN_POINT('',(4.177569144161,34.598845572006));
#552 = CARTESIAN_POINT('',(4.196441774434,34.799377171242));
#553 = CARTESIAN_POINT('',(4.215172488268,35.0000006));
#554 = ( GEOMETRIC_REPRESENTATION_CONTEXT(2) 
PARAMETRIC_REPRESENTATION_CONTEXT() REPRESENTATION_CONTEXT('2D SPACE',''
  ) );
#555 = ORIENTED_EDGE('',*,*,#556,.T.);
#556 = EDGE_CURVE('',#390,#149,#557,.T.);
#557 = SURFACE_CURVE('',#558,(#563,#573),.PCURVE_S1.);
#558 = ELLIPSE('',#559,37.930419216236,32.844961521828);
#559 = AXIS2_PLACEMENT_3D('',#560,#561,#562);
#560 = CARTESIAN_POINT('',(-0.496013174366,0.,147.25533521501));
#561 = DIRECTION('',(-0.5,0.,0.866025403784));
#562 = DIRECTION('',(-0.866025403784,0.,-0.5));
#563 = PCURVE('',#126,#564);
#564 = DEFINITIONAL_REPRESENTATION('',(#565),#572);
#565 = B_SPLINE_CURVE_WITH_KNOTS('',5,(#566,#567,#568,#569,#570,#571),
  .UNSPECIFIED.,.F.,.F.,(6,6),(2.920586203445,3.14159265359),
  .PIECEWISE_BEZIER_KNOTS.);
#566 = CARTESIAN_POINT('',(-6.058844023094,-100.7592600582));
#567 = CARTESIAN_POINT('',(-6.103701138311,-100.9430223213));
#568 = CARTESIAN_POINT('',(-6.148566579987,-101.0815945035));
#569 = CARTESIAN_POINT('',(-6.193437622159,-101.1742281963));
#570 = CARTESIAN_POINT('',(-6.238311464673,-101.2205448231));
#571 = CARTESIAN_POINT('',(-6.28318530718,-101.2205448231));
#572 = ( GEOMETRIC_REPRESENTATION_CONTEXT(2) 
PARAMETRIC_REPRESENTATION_CONTEXT() REPRESENTATION_CONTEXT('2D SPACE',''
  ) );
#573 = PCURVE('',#221,#574);
#574 = DEFINITIONAL_REPRESENTATION('',(#575),#579);
#575 = ELLIPSE('',#576,37.930419216236,32.844961521828);
#576 = AXIS2_PLACEMENT_2D('',#577,#578);
#577 = CARTESIAN_POINT('',(-40.30021870242,0.));
#578 = DIRECTION('',(-1.,0.));
#579 = ( GEOMETRIC_REPRESENTATION_CONTEXT(2) 
PARAMETRIC_REPRESENTATION_CONTEXT() REPRESENTATION_CONTEXT('2D SPACE',''
  ) );
#580 = ADVANCED_FACE('',(#581),#221,.T.);
#581 = FACE_BOUND('',#582,.T.);
#582 = EDGE_LOOP('',(#583,#607,#629,#630));
#583 = ORIENTED_EDGE('',*,*,#584,.T.);
#584 = EDGE_CURVE('',#390,#585,#587,.T.);
#585 = VERTEX_POINT('',#586);
#586 = CARTESIAN_POINT('',(39.601152422707,-1.469576158977E-15,
    170.40544456622));
#587 = SURFACE_CURVE('',#588,(#593,#600),.PCURVE_S1.);
#588 = CIRCLE('',#589,6.);
#589 = AXIS2_PLACEMENT_3D('',#590,#591,#592);
#590 = CARTESIAN_POINT('',(34.405,0.,167.40544456622));
#591 = DIRECTION('',(-0.5,0.,0.866025403784));
#592 = DIRECTION('',(0.866025403784,0.,0.5));
#593 = PCURVE('',#221,#594);
#594 = DEFINITIONAL_REPRESENTATION('',(#595),#599);
#595 = CIRCLE('',#596,6.);
#596 = AXIS2_PLACEMENT_2D('',#597,#598);
#597 = CARTESIAN_POINT('',(0.,0.));
#598 = DIRECTION('',(1.,0.));
#599 = ( GEOMETRIC_REPRESENTATION_CONTEXT(2) 
PARAMETRIC_REPRESENTATION_CONTEXT() REPRESENTATION_CONTEXT('2D SPACE',''
  ) );
#600 = PCURVE('',#319,#601);
#601 = DEFINITIONAL_REPRESENTATION('',(#602),#606);
#602 = LINE('',#603,#604);
#603 = CARTESIAN_POINT('',(0.,35.));
#604 = VECTOR('',#605,1.);
#605 = DIRECTION('',(1.,0.));
#606 = ( GEOMETRIC_REPRESENTATION_CONTEXT(2) 
PARAMETRIC_REPRESENTATION_CONTEXT() REPRESENTATION_CONTEXT('2D SPACE',''
  ) );
#607 = ORIENTED_EDGE('',*,*,#608,.T.);
#608 = EDGE_CURVE('',#585,#202,#609,.T.);
#609 = SURFACE_CURVE('',#610,(#615,#622),.PCURVE_S1.);
#610 = CIRCLE('',#611,6.);
#611 = AXIS2_PLACEMENT_3D('',#612,#613,#614);
#612 = CARTESIAN_POINT('',(34.405,0.,167.40544456622));
#613 = DIRECTION('',(-0.5,0.,0.866025403784));
#614 = DIRECTION('',(0.866025403784,0.,0.5));
#615 = PCURVE('',#221,#616);
#616 = DEFINITIONAL_REPRESENTATION('',(#617),#621);
#617 = CIRCLE('',#618,6.);
#618 = AXIS2_PLACEMENT_2D('',#619,#620);
#619 = CARTESIAN_POINT('',(0.,0.));
#620 = DIRECTION('',(1.,0.));
#621 = ( GEOMETRIC_REPRESENTATION_CONTEXT(2) 
PARAMETRIC_REPRESENTATION_CONTEXT() REPRESENTATION_CONTEXT('2D SPACE',''
  ) );
#622 = PCURVE('',#319,#623);
#623 = DEFINITIONAL_REPRESENTATION('',(#624),#628);
#624 = LINE('',#625,#626);
#625 = CARTESIAN_POINT('',(0.,35.));
#626 = VECTOR('',#627,1.);
#627 = DIRECTION('',(1.,0.));
#628 = ( GEOMETRIC_REPRESENTATION_CONTEXT(2) 
PARAMETRIC_REPRESENTATION_CONTEXT() REPRESENTATION_CONTEXT('2D SPACE',''
  ) );
#629 = ORIENTED_EDGE('',*,*,#201,.F.);
#630 = ORIENTED_EDGE('',*,*,#556,.F.);
#631 = ADVANCED_FACE('',(#632),#319,.T.);
#632 = FACE_BOUND('',#633,.T.);
#633 = EDGE_LOOP('',(#634,#808,#829,#830,#831,#832,#833,#834,#1153));
#634 = ORIENTED_EDGE('',*,*,#635,.T.);
#635 = EDGE_CURVE('',#636,#638,#640,.T.);
#636 = VERTEX_POINT('',#637);
#637 = CARTESIAN_POINT('',(55.322424510328,-4.519765438782,
    139.06760639474));
#638 = VERTEX_POINT('',#639);
#639 = CARTESIAN_POINT('',(52.710083035583,-1.469576158977E-15,
    147.70011071183));
#640 = SURFACE_CURVE('',#641,(#693,#748),.PCURVE_S1.);
#641 = B_SPLINE_CURVE_WITH_KNOTS('',8,(#642,#643,#644,#645,#646,#647,
    #648,#649,#650,#651,#652,#653,#654,#655,#656,#657,#658,#659,#660,
    #661,#662,#663,#664,#665,#666,#667,#668,#669,#670,#671,#672,#673,
    #674,#675,#676,#677,#678,#679,#680,#681,#682,#683,#684,#685,#686,
    #687,#688,#689,#690,#691,#692),.UNSPECIFIED.,.F.,.F.,(9,7,7,7,7,7,7,
    9),(0.,0.222733928673,0.547868718802,0.628366184124,0.719462419896,
    0.821424469322,0.893063628329,1.),.UNSPECIFIED.);
#642 = CARTESIAN_POINT('',(55.322424949578,-4.519765298399,
    139.06760595552));
#643 = CARTESIAN_POINT('',(55.112526457339,-4.586848569044,
    139.27748985302));
#644 = CARTESIAN_POINT('',(54.909861622299,-4.642586736186,
    139.49480759419));
#645 = CARTESIAN_POINT('',(54.715160857846,-4.687877229858,
    139.71933378296));
#646 = CARTESIAN_POINT('',(54.529019959498,-4.723419155496,
    139.9508244516));
#647 = CARTESIAN_POINT('',(54.351912360954,-4.749732879822,
    140.18901994843));
#648 = CARTESIAN_POINT('',(54.184201334945,-4.76716734426,
    140.43365093489));
#649 = CARTESIAN_POINT('',(54.026152138893,-4.775895105883,140.684447492
    ));
#650 = CARTESIAN_POINT('',(53.661598135241,-4.775895105883,
    141.31587354842));
#651 = CARTESIAN_POINT('',(53.46666809752,-4.75729736131,141.70241105466
    ));
#652 = CARTESIAN_POINT('',(53.293512982175,-4.720177948211,
    142.0999565119));
#653 = CARTESIAN_POINT('',(53.142389536384,-4.663700831766,
    142.5073132565));
#654 = CARTESIAN_POINT('',(53.013318370808,-4.586295666746,
    142.92288243876));
#655 = CARTESIAN_POINT('',(52.9059870352,-4.485523989929,143.34457488737
    ));
#656 = CARTESIAN_POINT('',(52.81968122205,-4.358232579377,
    143.76981814514));
#657 = CARTESIAN_POINT('',(52.736780591924,-4.160644960193,
    144.30072943853));
#658 = CARTESIAN_POINT('',(52.721547907405,-4.119532609721,
    144.4060962063));
#659 = CARTESIAN_POINT('',(52.707516514725,-4.076451639388,
    144.51141787343));
#660 = CARTESIAN_POINT('',(52.694667326271,-4.031331137767,
    144.61663600726));
#661 = CARTESIAN_POINT('',(52.682979469573,-3.984096288869,
    144.72168638907));
#662 = CARTESIAN_POINT('',(52.672429988639,-3.934667971169,
    144.82649880364));
#663 = CARTESIAN_POINT('',(52.66299354529,-3.882962356636,
    144.93099682883));
#664 = CARTESIAN_POINT('',(52.645191097911,-3.767699245037,
    145.1529049456));
#665 = CARTESIAN_POINT('',(52.637130061889,-3.703480848503,
    145.27019758198));
#666 = CARTESIAN_POINT('',(52.630418066095,-3.636104237255,
    145.38685906058));
#667 = CARTESIAN_POINT('',(52.625010458533,-3.565434017123,
    145.50275431638));
#668 = CARTESIAN_POINT('',(52.620857904678,-3.491329776072,
    145.61772910515));
#669 = CARTESIAN_POINT('',(52.617905410605,-3.413645377581,
    145.73160941548));
#670 = CARTESIAN_POINT('',(52.616091346121,-3.332228254025,
    145.84420088086));
#671 = CARTESIAN_POINT('',(52.6145127418,-3.151433558623,146.07962581983
    ));
#672 = CARTESIAN_POINT('',(52.615018697469,-3.051089142334,
    146.20205628883));
#673 = CARTESIAN_POINT('',(52.616766493391,-2.94565275885,
    146.32229304219));
#674 = CARTESIAN_POINT('',(52.619648111361,-2.834900629458,
    146.43998156259));
#675 = CARTESIAN_POINT('',(52.623540736074,-2.718624422479,
    146.55470218437));
#676 = CARTESIAN_POINT('',(52.628304164332,-2.596636783248,
    146.66597282794));
#677 = CARTESIAN_POINT('',(52.633780243904,-2.468775860697,
    146.77325165641));
#678 = CARTESIAN_POINT('',(52.644019884086,-2.240853037064,
    146.94808886907));
#679 = CARTESIAN_POINT('',(52.648510406974,-2.143846065602,
    147.01796123577));
#680 = CARTESIAN_POINT('',(52.653204888924,-2.043850250751,
    147.08534459846));
#681 = CARTESIAN_POINT('',(52.658037659358,-1.94085031544,
    147.15000349834));
#682 = CARTESIAN_POINT('',(52.662938418065,-1.83485673756,
    147.21168270349));
#683 = CARTESIAN_POINT('',(52.66783303867,-1.725910078823,
    147.27011196944));
#684 = CARTESIAN_POINT('',(52.67264515637,-1.6140862758,147.32501203052)
  );
#685 = CARTESIAN_POINT('',(52.684244684513,-1.328463319785,
    147.45236398118));
#686 = CARTESIAN_POINT('',(52.690843074738,-1.151129219119,
    147.52020114994));
#687 = CARTESIAN_POINT('',(52.696830964586,-0.968072974987,
    147.57856510207));
#688 = CARTESIAN_POINT('',(52.701950250016,-0.780040170891,
    147.62648216771));
#689 = CARTESIAN_POINT('',(52.705969761873,-0.587963087331,
    147.66310884481));
#690 = CARTESIAN_POINT('',(52.708712759756,-0.392975420003,
    147.68778364635));
#691 = CARTESIAN_POINT('',(52.710083035583,-0.196439837855,
    147.70011071183));
#692 = CARTESIAN_POINT('',(52.710083035583,-1.7763568394E-15,
    147.70011071183));
#693 = PCURVE('',#319,#694);
#694 = DEFINITIONAL_REPRESENTATION('',(#695),#747);
#695 = B_SPLINE_CURVE_WITH_KNOTS('',8,(#696,#697,#698,#699,#700,#701,
    #702,#703,#704,#705,#706,#707,#708,#709,#710,#711,#712,#713,#714,
    #715,#716,#717,#718,#719,#720,#721,#722,#723,#724,#725,#726,#727,
    #728,#729,#730,#731,#732,#733,#734,#735,#736,#737,#738,#739,#740,
    #741,#742,#743,#744,#745,#746),.UNSPECIFIED.,.F.,.F.,(9,7,7,7,7,7,7,
    9),(0.,0.222733928673,0.547868718802,0.628366184124,0.719462419896,
    0.821424469322,0.893063628329,1.),.UNSPECIFIED.);
#696 = CARTESIAN_POINT('',(5.430128677611,-6.E-07));
#697 = CARTESIAN_POINT('',(5.413128795388,0.286713433196));
#698 = CARTESIAN_POINT('',(5.398625646972,0.576248535268));
#699 = CARTESIAN_POINT('',(5.38657869826,0.868044300785));
#700 = CARTESIAN_POINT('',(5.376962397789,1.161591549737));
#701 = CARTESIAN_POINT('',(5.369759732051,1.456428700326));
#702 = CARTESIAN_POINT('',(5.364959358587,1.752140862158));
#703 = CARTESIAN_POINT('',(5.362556316854,2.048361649825));
#704 = CARTESIAN_POINT('',(5.362556316854,2.777469657128));
#705 = CARTESIAN_POINT('',(5.367676867235,3.20968597591));
#706 = CARTESIAN_POINT('',(5.377897542958,3.64054799869));
#707 = CARTESIAN_POINT('',(5.393254029608,4.068891010841));
#708 = CARTESIAN_POINT('',(5.413798847677,4.493320062472));
#709 = CARTESIAN_POINT('',(5.439624198376,4.912182103372));
#710 = CARTESIAN_POINT('',(5.470860705079,5.323606473957));
#711 = CARTESIAN_POINT('',(5.516972188536,5.82483945625));
#712 = CARTESIAN_POINT('',(5.526472876538,5.923706096113));
#713 = CARTESIAN_POINT('',(5.536327801028,6.021933031758));
#714 = CARTESIAN_POINT('',(5.546541598443,6.119479202824));
#715 = CARTESIAN_POINT('',(5.557119303031,6.216299430497));
#716 = CARTESIAN_POINT('',(5.568066451529,6.312344384608));
#717 = CARTESIAN_POINT('',(5.579389187841,6.407560550744));
#718 = CARTESIAN_POINT('',(5.604340720528,6.608639840866));
#719 = CARTESIAN_POINT('',(5.618076154641,6.714248761656));
#720 = CARTESIAN_POINT('',(5.632311117837,6.818636563664));
#721 = CARTESIAN_POINT('',(5.647056293098,6.921708603149));
#722 = CARTESIAN_POINT('',(5.662322894071,7.023355967943));
#723 = CARTESIAN_POINT('',(5.67812296053,7.123455456715));
#724 = CARTESIAN_POINT('',(5.694469653834,7.221869558227));
#725 = CARTESIAN_POINT('',(5.730302198097,7.426542838221));
#726 = CARTESIAN_POINT('',(5.74992652532,7.53231775674));
#727 = CARTESIAN_POINT('',(5.770272913652,7.635571941654));
#728 = CARTESIAN_POINT('',(5.791361830386,7.736052381072));
#729 = CARTESIAN_POINT('',(5.813211467895,7.833457041512));
#730 = CARTESIAN_POINT('',(5.83583774322,7.927438531409));
#731 = CARTESIAN_POINT('',(5.859254659896,8.017606682364));
#732 = CARTESIAN_POINT('',(5.90049241342,8.163900329968));
#733 = CARTESIAN_POINT('',(5.917903930682,8.222166313113));
#734 = CARTESIAN_POINT('',(5.935712580321,8.278174776016));
#735 = CARTESIAN_POINT('',(5.953918334545,8.331754640673));
#736 = CARTESIAN_POINT('',(5.972517967092,8.382720019867));
#737 = CARTESIAN_POINT('',(5.991504678432,8.430873938198));
#738 = CARTESIAN_POINT('',(6.010867520272,8.476012726913));
#739 = CARTESIAN_POINT('',(6.060031454341,8.580502987336));
#740 = CARTESIAN_POINT('',(6.090300082309,8.635952503689));
#741 = CARTESIAN_POINT('',(6.121311694564,8.683503223979));
#742 = CARTESIAN_POINT('',(6.152964491216,8.722440977383));
#743 = CARTESIAN_POINT('',(6.185137977884,8.752150854283));
#744 = CARTESIAN_POINT('',(6.217689405324,8.772148360304));
#745 = CARTESIAN_POINT('',(6.250445334204,8.782138774247));
#746 = CARTESIAN_POINT('',(6.28318530718,8.782138774247));
#747 = ( GEOMETRIC_REPRESENTATION_CONTEXT(2) 
PARAMETRIC_REPRESENTATION_CONTEXT() REPRESENTATION_CONTEXT('2D SPACE',''
  ) );
#748 = PCURVE('',#749,#754);
#749 = SPHERICAL_SURFACE('',#750,7.);
#750 = AXIS2_PLACEMENT_3D('',#751,#752,#753);
#751 = CARTESIAN_POINT('',(58.31,0.,143.5));
#752 = DIRECTION('',(0.,0.,1.));
#753 = DIRECTION('',(1.,0.,0.));
#754 = DEFINITIONAL_REPRESENTATION('',(#755),#807);
#755 = B_SPLINE_CURVE_WITH_KNOTS('',8,(#756,#757,#758,#759,#760,#761,
    #762,#763,#764,#765,#766,#767,#768,#769,#770,#771,#772,#773,#774,
    #775,#776,#777,#778,#779,#780,#781,#782,#783,#784,#785,#786,#787,
    #788,#789,#790,#791,#792,#793,#794,#795,#796,#797,#798,#799,#800,
    #801,#802,#803,#804,#805,#806),.UNSPECIFIED.,.F.,.F.,(9,7,7,7,7,7,7,
    9),(0.,0.222733928673,0.547868718802,0.628366184124,0.719462419896,
    0.821424469322,0.893063628329,1.),.UNSPECIFIED.);
#756 = CARTESIAN_POINT('',(4.128318152009,-0.685679585339));
#757 = CARTESIAN_POINT('',(4.102826614318,-0.646940769543));
#758 = CARTESIAN_POINT('',(4.079140630051,-0.608232950867));
#759 = CARTESIAN_POINT('',(4.057033293027,-0.569505350294));
#760 = CARTESIAN_POINT('',(4.03632074264,-0.530716587252));
#761 = CARTESIAN_POINT('',(4.016842560659,-0.491830190488));
#762 = CARTESIAN_POINT('',(3.998448061572,-0.452810950761));
#763 = CARTESIAN_POINT('',(3.98098847648,-0.413622115341));
#764 = CARTESIAN_POINT('',(3.939976047287,-0.316711372983));
#765 = CARTESIAN_POINT('',(3.917361142428,-0.258870506124));
#766 = CARTESIAN_POINT('',(3.895986293143,-0.200564545943));
#767 = CARTESIAN_POINT('',(3.875386775317,-0.141712537838));
#768 = CARTESIAN_POINT('',(3.855062722045,-8.226626110903E-02));
#769 = CARTESIAN_POINT('',(3.834410129295,-2.221777407052E-02));
#770 = CARTESIAN_POINT('',(3.812692917955,3.840736377922E-02));
#771 = CARTESIAN_POINT('',(3.782886142195,0.11462884974));
#772 = CARTESIAN_POINT('',(3.776838357581,0.129782178383));
#773 = CARTESIAN_POINT('',(3.770641291942,0.144960564931));
#774 = CARTESIAN_POINT('',(3.76427717423,0.16016111553));
#775 = CARTESIAN_POINT('',(3.757726844175,0.175380118662));
#776 = CARTESIAN_POINT('',(3.750969501857,0.190612956421));
#777 = CARTESIAN_POINT('',(3.743982457265,0.205854015796));
#778 = CARTESIAN_POINT('',(3.728545833731,0.238346112509));
#779 = CARTESIAN_POINT('',(3.720025231884,0.255596722245));
#780 = CARTESIAN_POINT('',(3.711142783632,0.272839136941));
#781 = CARTESIAN_POINT('',(3.701859162625,0.290061200479));
#782 = CARTESIAN_POINT('',(3.692131454282,0.307247448304));
#783 = CARTESIAN_POINT('',(3.681912603214,0.324378662901));
#784 = CARTESIAN_POINT('',(3.671150860652,0.341431429269));
#785 = CARTESIAN_POINT('',(3.647072406131,0.377345274516));
#786 = CARTESIAN_POINT('',(3.633606380715,0.39617593806));
#787 = CARTESIAN_POINT('',(3.619310038482,0.414832421018));
#788 = CARTESIAN_POINT('',(3.604097273793,0.433264828818));
#789 = CARTESIAN_POINT('',(3.587876626495,0.451409566903));
#790 = CARTESIAN_POINT('',(3.57055279975,0.4691882139));
#791 = CARTESIAN_POINT('',(3.552030061671,0.486506333393));
#792 = CARTESIAN_POINT('',(3.51829712555,0.515017989567));
#793 = CARTESIAN_POINT('',(3.503742054425,0.526499561801));
#794 = CARTESIAN_POINT('',(3.488522232556,0.537657436764));
#795 = CARTESIAN_POINT('',(3.472611160708,0.548446461137));
#796 = CARTESIAN_POINT('',(3.455987822051,0.558815965416));
#797 = CARTESIAN_POINT('',(3.438639153823,0.568710429368));
#798 = CARTESIAN_POINT('',(3.420563093916,0.578070680053));
#799 = CARTESIAN_POINT('',(3.373722881421,0.599919125125));
#800 = CARTESIAN_POINT('',(3.344056794257,0.611687353186));
#801 = CARTESIAN_POINT('',(3.312843985009,0.62191797875));
#802 = CARTESIAN_POINT('',(3.280222878929,0.630393117975));
#803 = CARTESIAN_POINT('',(3.246422046105,0.636913260929));
#804 = CARTESIAN_POINT('',(3.21176778226,0.641319600197));
#805 = CARTESIAN_POINT('',(3.176671716209,0.64352087891));
#806 = CARTESIAN_POINT('',(3.14159265359,0.64352087891));
#807 = ( GEOMETRIC_REPRESENTATION_CONTEXT(2) 
PARAMETRIC_REPRESENTATION_CONTEXT() REPRESENTATION_CONTEXT('2D SPACE',''
  ) );
#808 = ORIENTED_EDGE('',*,*,#809,.T.);
#809 = EDGE_CURVE('',#638,#585,#810,.T.);
#810 = SEAM_CURVE('',#811,(#815,#822),.PCURVE_S1.);
#811 = LINE('',#812,#813);
#812 = CARTESIAN_POINT('',(57.101152422707,-1.469576158977E-15,
    140.09455543377));
#813 = VECTOR('',#814,1.);
#814 = DIRECTION('',(-0.5,0.,0.866025403784));
#815 = PCURVE('',#319,#816);
#816 = DEFINITIONAL_REPRESENTATION('',(#817),#821);
#817 = LINE('',#818,#819);
#818 = CARTESIAN_POINT('',(6.28318530718,-0.));
#819 = VECTOR('',#820,1.);
#820 = DIRECTION('',(0.,1.));
#821 = ( GEOMETRIC_REPRESENTATION_CONTEXT(2) 
PARAMETRIC_REPRESENTATION_CONTEXT() REPRESENTATION_CONTEXT('2D SPACE',''
  ) );
#822 = PCURVE('',#319,#823);
#823 = DEFINITIONAL_REPRESENTATION('',(#824),#828);
#824 = LINE('',#825,#826);
#825 = CARTESIAN_POINT('',(0.,-0.));
#826 = VECTOR('',#827,1.);
#827 = DIRECTION('',(0.,1.));
#828 = ( GEOMETRIC_REPRESENTATION_CONTEXT(2) 
PARAMETRIC_REPRESENTATION_CONTEXT() REPRESENTATION_CONTEXT('2D SPACE',''
  ) );
#829 = ORIENTED_EDGE('',*,*,#584,.F.);
#830 = ORIENTED_EDGE('',*,*,#389,.F.);
#831 = ORIENTED_EDGE('',*,*,#233,.F.);
#832 = ORIENTED_EDGE('',*,*,#608,.F.);
#833 = ORIENTED_EDGE('',*,*,#809,.F.);
#834 = ORIENTED_EDGE('',*,*,#835,.F.);
#835 = EDGE_CURVE('',#836,#638,#838,.T.);
#836 = VERTEX_POINT('',#837);
#837 = CARTESIAN_POINT('',(55.322424510328,4.519765438782,
    139.06760639474));
#838 = SURFACE_CURVE('',#839,(#919,#1036),.PCURVE_S1.);
#839 = B_SPLINE_CURVE_WITH_KNOTS('',8,(#840,#841,#842,#843,#844,#845,
    #846,#847,#848,#849,#850,#851,#852,#853,#854,#855,#856,#857,#858,
    #859,#860,#861,#862,#863,#864,#865,#866,#867,#868,#869,#870,#871,
    #872,#873,#874,#875,#876,#877,#878,#879,#880,#881,#882,#883,#884,
    #885,#886,#887,#888,#889,#890,#891,#892,#893,#894,#895,#896,#897,
    #898,#899,#900,#901,#902,#903,#904,#905,#906,#907,#908,#909,#910,
    #911,#912,#913,#914,#915,#916,#917,#918),.UNSPECIFIED.,.F.,.F.,(9,7,
    7,7,7,7,7,7,7,7,7,9),(2.615512393044E-07,0.228112798722,
    0.424487549184,0.64448322203,1.,2.294387719242,2.817506299743,
    3.228638512677,3.687774430092,4.008439559108,4.255092155168,
    4.489662711997),.UNSPECIFIED.);
#840 = CARTESIAN_POINT('',(55.322424510328,4.519765438783,
    139.06760639474));
#841 = CARTESIAN_POINT('',(55.27453792952,4.53506992065,139.11548965201)
  );
#842 = CARTESIAN_POINT('',(55.227027877134,4.54978390303,139.16375981476
    ));
#843 = CARTESIAN_POINT('',(55.179903030542,4.56391802407,139.21241417862
    ));
#844 = CARTESIAN_POINT('',(55.133171704428,4.577482406978,
    139.26145000803));
#845 = CARTESIAN_POINT('',(55.086841850789,4.590486660028,139.3108645363
    ));
#846 = CARTESIAN_POINT('',(55.040921058929,4.602939876555,
    139.36065496553));
#847 = CARTESIAN_POINT('',(54.995416555465,4.614850634954,139.4108184667
    ));
#848 = CARTESIAN_POINT('',(54.911526118286,4.636020544526,
    139.50485502858));
#849 = CARTESIAN_POINT('',(54.873030655125,4.645418059806,
    139.54863222226));
#850 = CARTESIAN_POINT('',(54.834853206121,4.654424692732,
    139.59268193056));
#851 = CARTESIAN_POINT('',(54.796997997397,4.663045320796,
    139.63700229029));
#852 = CARTESIAN_POINT('',(54.759469089924,4.67128455077,139.68159140519
    ));
#853 = CARTESIAN_POINT('',(54.722270379514,4.679146718713,
    139.72644734584));
#854 = CARTESIAN_POINT('',(54.685405596825,4.686635889965,
    139.77156814976));
#855 = CARTESIAN_POINT('',(54.607957335573,4.701732253309,139.8677944645
    ));
#856 = CARTESIAN_POINT('',(54.567459950239,4.709245289286,
    139.91896700236));
#857 = CARTESIAN_POINT('',(54.527391166112,4.716300303283,
    139.97046662934));
#858 = CARTESIAN_POINT('',(54.487755771447,4.722902217404,
    140.02229046847));
#859 = CARTESIAN_POINT('',(54.448558328002,4.729055539656,
    140.07443557148));
#860 = CARTESIAN_POINT('',(54.409803171033,4.734764363952,
    140.12689891871));
#861 = CARTESIAN_POINT('',(54.371494409298,4.740032370109,
    140.17967741917));
#862 = CARTESIAN_POINT('',(54.272455965641,4.752668919883,
    140.31856305454));
#863 = CARTESIAN_POINT('',(54.212451982921,4.759332355931,
    140.40517289782));
#864 = CARTESIAN_POINT('',(54.15364033277,4.764866913824,140.4925841295)
  );
#865 = CARTESIAN_POINT('',(54.096036007909,4.769283606976,
    140.58078281162));
#866 = CARTESIAN_POINT('',(54.039652637901,4.772590680385,140.6697543791
    ));
#867 = CARTESIAN_POINT('',(53.984502489161,4.774793610633,
    140.75948363973));
#868 = CARTESIAN_POINT('',(53.930596464946,4.775895105883,
    140.84995477422));
#869 = CARTESIAN_POINT('',(53.686244101711,4.775895105883,141.2731854823
    ));
#870 = CARTESIAN_POINT('',(53.511225929881,4.761293785567,
    141.61472634938));
#871 = CARTESIAN_POINT('',(53.353261401394,4.732106375485,
    141.96509235001));
#872 = CARTESIAN_POINT('',(53.212588229132,4.687827710516,
    142.32339783232));
#873 = CARTESIAN_POINT('',(53.089266388012,4.627484473511,
    142.68853682786));
#874 = CARTESIAN_POINT('',(52.983142577067,4.5495939401,143.05915871516)
  );
#875 = CARTESIAN_POINT('',(52.89382511596,4.452195457862,143.43365836131
    ));
#876 = CARTESIAN_POINT('',(52.7911006622,4.284204790536,143.96227757398)
  );
#877 = CARTESIAN_POINT('',(52.764178098339,4.232227972504,
    144.11472487024));
#878 = CARTESIAN_POINT('',(52.7398561205,4.176448867646,144.26734064901)
  );
#879 = CARTESIAN_POINT('',(52.718086830912,4.116674354075,
    144.41997331986));
#880 = CARTESIAN_POINT('',(52.698815573599,4.052695472674,
    144.57244958752));
#881 = CARTESIAN_POINT('',(52.681979125174,3.984286007672,
    144.72457347726));
#882 = CARTESIAN_POINT('',(52.667504160663,3.911199267884,
    144.87612499269));
#883 = CARTESIAN_POINT('',(52.645719144841,3.771832432504,
    145.14532363375));
#884 = CARTESIAN_POINT('',(52.637539254917,3.707449153676,
    145.26327512177));
#885 = CARTESIAN_POINT('',(52.630724901786,3.639880351096,145.3805951536
    ));
#886 = CARTESIAN_POINT('',(52.625230903116,3.56898872606,145.49714711866
    ));
#887 = CARTESIAN_POINT('',(52.621007316773,3.494631832761,
    145.61277490788));
#888 = CARTESIAN_POINT('',(52.617998440555,3.416661348867,
    145.72730230935));
#889 = CARTESIAN_POINT('',(52.616141811922,3.3349223461,145.84053240394)
  );
#890 = CARTESIAN_POINT('',(52.614502160943,3.153579990716,
    146.07700528437));
#891 = CARTESIAN_POINT('',(52.614986794585,3.053022465304,
    146.19985037965));
#892 = CARTESIAN_POINT('',(52.61672253892,2.947345139599,146.32049386099
    ));
#893 = CARTESIAN_POINT('',(52.619600562178,2.836322093073,
    146.43857861568));
#894 = CARTESIAN_POINT('',(52.623497073466,2.71974295381,146.55368164941
    ));
#895 = CARTESIAN_POINT('',(52.628270687866,2.597418495294,
    146.66531684755));
#896 = CARTESIAN_POINT('',(52.633761853702,2.469185205817,
    146.77293765205));
#897 = CARTESIAN_POINT('',(52.644007492334,2.24112886346,146.94787728553
    ));
#898 = CARTESIAN_POINT('',(52.648484071745,2.14441499812,147.01755140572
    ));
#899 = CARTESIAN_POINT('',(52.653163593173,2.044729915597,147.0847517091
    ));
#900 = CARTESIAN_POINT('',(52.657980975232,1.942058411483,
    147.14924486853));
#901 = CARTESIAN_POINT('',(52.662866561645,1.83641071524,147.21077801318
    ));
#902 = CARTESIAN_POINT('',(52.667746910751,1.72782675359,147.26908341285
    ));
#903 = CARTESIAN_POINT('',(52.672546355074,1.616381357912,
    147.32388436881));
#904 = CARTESIAN_POINT('',(52.68076066429,1.414355818717,147.41414483196
    ));
#905 = CARTESIAN_POINT('',(52.684239341736,1.324898003326,
    147.45114843899));
#906 = CARTESIAN_POINT('',(52.687590825133,1.233876349522,
    147.48578411713));
#907 = CARTESIAN_POINT('',(52.690780471113,1.141365200348,
    147.51792244196));
#908 = CARTESIAN_POINT('',(52.693774463875,1.047455441458,
    147.54743689048));
#909 = CARTESIAN_POINT('',(52.696540747932,0.952256080741,
    147.57420715166));
#910 = CARTESIAN_POINT('',(52.699049960867,0.855895827935,
    147.59812243702));
#911 = CARTESIAN_POINT('',(52.703393713002,0.665923152508,
    147.63902032467));
#912 = CARTESIAN_POINT('',(52.705255497133,0.572400144658,
    147.65628673596));
#913 = CARTESIAN_POINT('',(52.706839370699,0.478090464679,147.6707985276
    ));
#914 = CARTESIAN_POINT('',(52.708126535513,0.383136384132,
    147.68248412373));
#915 = CARTESIAN_POINT('',(52.709102218985,0.287687944613,147.6912874847
    ));
#916 = CARTESIAN_POINT('',(52.709756150133,0.191903270194,
    147.69716972179));
#917 = CARTESIAN_POINT('',(52.710083035583,9.594887986982E-02,
    147.70011071183));
#918 = CARTESIAN_POINT('',(52.710083035583,-1.469576158977E-15,
    147.70011071183));
#919 = PCURVE('',#319,#920);
#920 = DEFINITIONAL_REPRESENTATION('',(#921),#1035);
#921 = B_SPLINE_CURVE_WITH_KNOTS('',3,(#922,#923,#924,#925,#926,#927,
    #928,#929,#930,#931,#932,#933,#934,#935,#936,#937,#938,#939,#940,
    #941,#942,#943,#944,#945,#946,#947,#948,#949,#950,#951,#952,#953,
    #954,#955,#956,#957,#958,#959,#960,#961,#962,#963,#964,#965,#966,
    #967,#968,#969,#970,#971,#972,#973,#974,#975,#976,#977,#978,#979,
    #980,#981,#982,#983,#984,#985,#986,#987,#988,#989,#990,#991,#992,
    #993,#994,#995,#996,#997,#998,#999,#1000,#1001,#1002,#1003,#1004,
    #1005,#1006,#1007,#1008,#1009,#1010,#1011,#1012,#1013,#1014,#1015,
    #1016,#1017,#1018,#1019,#1020,#1021,#1022,#1023,#1024,#1025,#1026,
    #1027,#1028,#1029,#1030,#1031,#1032,#1033,#1034),.UNSPECIFIED.,.F.,
  .F.,(4,1,1,1,1,1,1,1,1,1,1,1,1,1,1,1,1,1,1,1,1,1,1,1,1,1,1,1,1,1,1,1,1
    ,1,1,1,1,1,1,1,1,1,1,1,1,1,1,1,1,1,1,1,1,1,1,1,1,1,1,1,1,1,1,1,1,1,1
    ,1,1,1,1,1,1,1,1,1,1,1,1,1,1,1,1,1,1,1,1,1,1,1,1,1,1,1,1,1,1,1,1,1,1
    ,1,1,1,1,1,1,1,1,1,4),(2.615512393044E-07,4.081537473711E-02,
    8.163048792298E-02,0.122445601109,0.163260714295,0.204075827481,
    0.244890940666,0.285706053852,0.326521167038,0.367336280224,
    0.40815139341,0.448966506596,0.489781619782,0.530596732968,
    0.571411846153,0.612226959339,0.653042072525,0.693857185711,
    0.734672298897,0.775487412083,0.816302525269,0.857117638455,
    0.89793275164,0.938747864826,0.979562978012,1.020378091198,
    1.061193204384,1.10200831757,1.142823430756,1.183638543941,
    1.224453657127,1.265268770313,1.306083883499,1.346898996685,
    1.387714109871,1.428529223057,1.469344336243,1.510159449428,
    1.550974562614,1.5917896758,1.632604788986,1.673419902172,
    1.714235015358,1.755050128544,1.79586524173,1.836680354915,
    1.877495468101,1.918310581287,1.959125694473,1.999940807659,
    2.040755920845,2.081571034031,2.122386147216,2.163201260402,
    2.204016373588,2.244831486774,2.28564659996,2.326461713146,
    2.367276826332,2.408091939518,2.448907052703,2.489722165889,
    2.530537279075,2.571352392261,2.612167505447,2.652982618633,
    2.693797731819,2.734612845005,2.77542795819,2.816243071376,
    2.857058184562,2.897873297748,2.938688410934,2.97950352412,
    3.020318637306,3.061133750492,3.101948863677,3.142763976863,
    3.183579090049,3.224394203235,3.265209316421,3.306024429607,
    3.346839542793,3.387654655978,3.428469769164,3.46928488235,
    3.510099995536,3.550915108722,3.591730221908,3.632545335094,
    3.67336044828,3.714175561465,3.754990674651,3.795805787837,
    3.836620901023,3.877436014209,3.918251127395,3.959066240581,
    3.999881353767,4.040696466952,4.081511580138,4.122326693324,
    4.16314180651,4.203956919696,4.244772032882,4.285587146068,
    4.326402259253,4.367217372439,4.408032485625,4.448847598811,
    4.489662711997),.UNSPECIFIED.);
#922 = CARTESIAN_POINT('',(0.853056665144,-2.273736754432E-13));
#923 = CARTESIAN_POINT('',(0.854907167636,3.121004434115E-02));
#924 = CARTESIAN_POINT('',(0.858530532204,9.371778001116E-02));
#925 = CARTESIAN_POINT('',(0.863733480438,0.187729891114));
#926 = CARTESIAN_POINT('',(0.868705176557,0.281979971786));
#927 = CARTESIAN_POINT('',(0.873446383482,0.376455850324));
#928 = CARTESIAN_POINT('',(0.877957814342,0.471145589052));
#929 = CARTESIAN_POINT('',(0.882240129647,0.566037542525));
#930 = CARTESIAN_POINT('',(0.886293936835,0.661120219396));
#931 = CARTESIAN_POINT('',(0.890119797135,0.756382369538));
#932 = CARTESIAN_POINT('',(0.893718225734,0.851812910774));
#933 = CARTESIAN_POINT('',(0.897089694728,0.947400929399));
#934 = CARTESIAN_POINT('',(0.900234636187,1.043135683862));
#935 = CARTESIAN_POINT('',(0.903153442337,1.139006541045));
#936 = CARTESIAN_POINT('',(0.905846469834,1.235003027846));
#937 = CARTESIAN_POINT('',(0.908314039698,1.331114764984));
#938 = CARTESIAN_POINT('',(0.910556439652,1.427331473271));
#939 = CARTESIAN_POINT('',(0.912573926507,1.523642993884));
#940 = CARTESIAN_POINT('',(0.914366725493,1.620039191906));
#941 = CARTESIAN_POINT('',(0.915935034295,1.716510065405));
#942 = CARTESIAN_POINT('',(0.917279022563,1.813045668272));
#943 = CARTESIAN_POINT('',(0.918398832614,1.90963608959));
#944 = CARTESIAN_POINT('',(0.919294580547,2.006271464348));
#945 = CARTESIAN_POINT('',(0.919966357183,2.10294195121));
#946 = CARTESIAN_POINT('',(0.920414228243,2.199637810726));
#947 = CARTESIAN_POINT('',(0.920638236772,2.296349114728));
#948 = CARTESIAN_POINT('',(0.92063839631,2.393066830533));
#949 = CARTESIAN_POINT('',(0.920414722441,2.489773689478));
#950 = CARTESIAN_POINT('',(0.919967224754,2.586462299352));
#951 = CARTESIAN_POINT('',(0.919295870302,2.683123863584));
#952 = CARTESIAN_POINT('',(0.918400593634,2.779749734953));
#953 = CARTESIAN_POINT('',(0.917281295925,2.876331000656));
#954 = CARTESIAN_POINT('',(0.915937846635,2.972858594679));
#955 = CARTESIAN_POINT('',(0.914370084092,3.069323268693));
#956 = CARTESIAN_POINT('',(0.912577816004,3.16571560069));
#957 = CARTESIAN_POINT('',(0.910560819608,3.262025993355));
#958 = CARTESIAN_POINT('',(0.908318841555,3.358244675037));
#959 = CARTESIAN_POINT('',(0.905851597507,3.454361699877));
#960 = CARTESIAN_POINT('',(0.903158771433,3.550366948028));
#961 = CARTESIAN_POINT('',(0.900240014621,3.646250125702));
#962 = CARTESIAN_POINT('',(0.897094944382,3.74200076512));
#963 = CARTESIAN_POINT('',(0.893723142441,3.837608224337));
#964 = CARTESIAN_POINT('',(0.89012415301,3.933061686928));
#965 = CARTESIAN_POINT('',(0.886297480513,4.028350161541));
#966 = CARTESIAN_POINT('',(0.882242586957,4.123462481289));
#967 = CARTESIAN_POINT('',(0.877958888929,4.21838730297));
#968 = CARTESIAN_POINT('',(0.873445754182,4.313113106101));
#969 = CARTESIAN_POINT('',(0.868702497798,4.407628191732));
#970 = CARTESIAN_POINT('',(0.863728377883,4.501920681031));
#971 = CARTESIAN_POINT('',(0.858522590773,4.595978513622));
#972 = CARTESIAN_POINT('',(0.853084265702,4.689789445554));
#973 = CARTESIAN_POINT('',(0.84741245888,4.783341047273));
#974 = CARTESIAN_POINT('',(0.841506147021,4.876620700015));
#975 = CARTESIAN_POINT('',(0.835364219869,4.969615596404));
#976 = CARTESIAN_POINT('',(0.82898547326,5.062312723483));
#977 = CARTESIAN_POINT('',(0.822368596593,5.154698909246));
#978 = CARTESIAN_POINT('',(0.815512177378,5.246760629919));
#979 = CARTESIAN_POINT('',(0.808414637866,5.338484707707));
#980 = CARTESIAN_POINT('',(0.801074420679,5.429855682582));
#981 = CARTESIAN_POINT('',(0.793490411302,5.520851243731));
#982 = CARTESIAN_POINT('',(0.785660699884,5.61145725374));
#983 = CARTESIAN_POINT('',(0.777583456046,5.701656420706));
#984 = CARTESIAN_POINT('',(0.769256710482,5.791431063964));
#985 = CARTESIAN_POINT('',(0.760678405878,5.880762377571));
#986 = CARTESIAN_POINT('',(0.751846373667,5.969630630003));
#987 = CARTESIAN_POINT('',(0.742758328826,6.05801510875));
#988 = CARTESIAN_POINT('',(0.733411856952,6.145894136698));
#989 = CARTESIAN_POINT('',(0.723804404092,6.233245044022));
#990 = CARTESIAN_POINT('',(0.713933252802,6.320044233814));
#991 = CARTESIAN_POINT('',(0.703795539663,6.406266904793));
#992 = CARTESIAN_POINT('',(0.69338810947,6.49188803955));
#993 = CARTESIAN_POINT('',(0.682707969674,6.576878661123));
#994 = CARTESIAN_POINT('',(0.671752000737,6.661208078918));
#995 = CARTESIAN_POINT('',(0.660516550944,6.744846881801));
#996 = CARTESIAN_POINT('',(0.64899801046,6.827762319525));
#997 = CARTESIAN_POINT('',(0.637192638354,6.909919533052));
#998 = CARTESIAN_POINT('',(0.625096585962,6.99128123073));
#999 = CARTESIAN_POINT('',(0.612705872163,7.071807744204));
#1000 = CARTESIAN_POINT('',(0.600016346296,7.151457119558));
#1001 = CARTESIAN_POINT('',(0.58702374009,7.230184687796));
#1002 = CARTESIAN_POINT('',(0.57372336728,7.307944682719));
#1003 = CARTESIAN_POINT('',(0.56011113489,7.384684189896));
#1004 = CARTESIAN_POINT('',(0.54618308679,7.46034607994));
#1005 = CARTESIAN_POINT('',(0.531933851443,7.534877180518));
#1006 = CARTESIAN_POINT('',(0.517358701352,7.608216465136));
#1007 = CARTESIAN_POINT('',(0.502453022216,7.680298336669));
#1008 = CARTESIAN_POINT('',(0.487212457856,7.751051930891));
#1009 = CARTESIAN_POINT('',(0.471632869462,7.820401472248));
#1010 = CARTESIAN_POINT('',(0.455710339154,7.888266334781));
#1011 = CARTESIAN_POINT('',(0.439441159485,7.954561164282));
#1012 = CARTESIAN_POINT('',(0.422821812813,8.019195984481));
#1013 = CARTESIAN_POINT('',(0.405848983611,8.08207623997));
#1014 = CARTESIAN_POINT('',(0.388519428172,8.143103042241));
#1015 = CARTESIAN_POINT('',(0.37083352591,8.202161711052));
#1016 = CARTESIAN_POINT('',(0.352790374107,8.259139956102));
#1017 = CARTESIAN_POINT('',(0.334390959701,8.313917069448));
#1018 = CARTESIAN_POINT('',(0.315637618538,8.366367036402));
#1019 = CARTESIAN_POINT('',(0.296534293925,8.416358765966));
#1020 = CARTESIAN_POINT('',(0.277086590033,8.46375717009));
#1021 = CARTESIAN_POINT('',(0.257301944435,8.508424067491));
#1022 = CARTESIAN_POINT('',(0.237189638866,8.55021927982));
#1023 = CARTESIAN_POINT('',(0.216762917667,8.58899854891));
#1024 = CARTESIAN_POINT('',(0.196037407184,8.624619222705));
#1025 = CARTESIAN_POINT('',(0.175031314287,8.656941758493));
#1026 = CARTESIAN_POINT('',(0.153765584199,8.68583187469));
#1027 = CARTESIAN_POINT('',(0.132264306425,8.711162365798));
#1028 = CARTESIAN_POINT('',(0.110554301319,8.732815700366));
#1029 = CARTESIAN_POINT('',(8.866496506742E-02,8.750687047894));
#1030 = CARTESIAN_POINT('',(6.662982093194E-02,8.76468511308));
#1031 = CARTESIAN_POINT('',(4.44830710099E-02,8.774737884634));
#1032 = CARTESIAN_POINT('',(2.226043485265E-02,8.780790266858));
#1033 = CARTESIAN_POINT('',(7.420178457872E-03,8.782140564905));
#1034 = CARTESIAN_POINT('',(0.,8.782138774247));
#1035 = ( GEOMETRIC_REPRESENTATION_CONTEXT(2) 
PARAMETRIC_REPRESENTATION_CONTEXT() REPRESENTATION_CONTEXT('2D SPACE',''
  ) );
#1036 = PCURVE('',#749,#1037);
#1037 = DEFINITIONAL_REPRESENTATION('',(#1038),#1152);
#1038 = B_SPLINE_CURVE_WITH_KNOTS('',3,(#1039,#1040,#1041,#1042,#1043,
    #1044,#1045,#1046,#1047,#1048,#1049,#1050,#1051,#1052,#1053,#1054,
    #1055,#1056,#1057,#1058,#1059,#1060,#1061,#1062,#1063,#1064,#1065,
    #1066,#1067,#1068,#1069,#1070,#1071,#1072,#1073,#1074,#1075,#1076,
    #1077,#1078,#1079,#1080,#1081,#1082,#1083,#1084,#1085,#1086,#1087,
    #1088,#1089,#1090,#1091,#1092,#1093,#1094,#1095,#1096,#1097,#1098,
    #1099,#1100,#1101,#1102,#1103,#1104,#1105,#1106,#1107,#1108,#1109,
    #1110,#1111,#1112,#1113,#1114,#1115,#1116,#1117,#1118,#1119,#1120,
    #1121,#1122,#1123,#1124,#1125,#1126,#1127,#1128,#1129,#1130,#1131,
    #1132,#1133,#1134,#1135,#1136,#1137,#1138,#1139,#1140,#1141,#1142,
    #1143,#1144,#1145,#1146,#1147,#1148,#1149,#1150,#1151),
  .UNSPECIFIED.,.F.,.F.,(4,1,1,1,1,1,1,1,1,1,1,1,1,1,1,1,1,1,1,1,1,1,1,1
    ,1,1,1,1,1,1,1,1,1,1,1,1,1,1,1,1,1,1,1,1,1,1,1,1,1,1,1,1,1,1,1,1,1,1
    ,1,1,1,1,1,1,1,1,1,1,1,1,1,1,1,1,1,1,1,1,1,1,1,1,1,1,1,1,1,1,1,1,1,1
    ,1,1,1,1,1,1,1,1,1,1,1,1,1,1,1,1,1,1,4),(2.615512393044E-07,
    4.081537473711E-02,8.163048792298E-02,0.122445601109,0.163260714295,
    0.204075827481,0.244890940666,0.285706053852,0.326521167038,
    0.367336280224,0.40815139341,0.448966506596,0.489781619782,
    0.530596732968,0.571411846153,0.612226959339,0.653042072525,
    0.693857185711,0.734672298897,0.775487412083,0.816302525269,
    0.857117638455,0.89793275164,0.938747864826,0.979562978012,
    1.020378091198,1.061193204384,1.10200831757,1.142823430756,
    1.183638543941,1.224453657127,1.265268770313,1.306083883499,
    1.346898996685,1.387714109871,1.428529223057,1.469344336243,
    1.510159449428,1.550974562614,1.5917896758,1.632604788986,
    1.673419902172,1.714235015358,1.755050128544,1.79586524173,
    1.836680354915,1.877495468101,1.918310581287,1.959125694473,
    1.999940807659,2.040755920845,2.081571034031,2.122386147216,
    2.163201260402,2.204016373588,2.244831486774,2.28564659996,
    2.326461713146,2.367276826332,2.408091939518,2.448907052703,
    2.489722165889,2.530537279075,2.571352392261,2.612167505447,
    2.652982618633,2.693797731819,2.734612845005,2.77542795819,
    2.816243071376,2.857058184562,2.897873297748,2.938688410934,
    2.97950352412,3.020318637306,3.061133750492,3.101948863677,
    3.142763976863,3.183579090049,3.224394203235,3.265209316421,
    3.306024429607,3.346839542793,3.387654655978,3.428469769164,
    3.46928488235,3.510099995536,3.550915108722,3.591730221908,
    3.632545335094,3.67336044828,3.714175561465,3.754990674651,
    3.795805787837,3.836620901023,3.877436014209,3.918251127395,
    3.959066240581,3.999881353767,4.040696466952,4.081511580138,
    4.122326693324,4.16314180651,4.203956919696,4.244772032882,
    4.285587146068,4.326402259253,4.367217372439,4.408032485625,
    4.448847598811,4.489662711997),.UNSPECIFIED.);
#1039 = CARTESIAN_POINT('',(2.154867208517,-0.685679504271));
#1040 = CARTESIAN_POINT('',(2.157642052587,-0.681462625094));
#1041 = CARTESIAN_POINT('',(2.163135634803,-0.673029822065));
#1042 = CARTESIAN_POINT('',(2.171212580751,-0.660382387894));
#1043 = CARTESIAN_POINT('',(2.179131060465,-0.647735615363));
#1044 = CARTESIAN_POINT('',(2.186895787494,-0.635088441675));
#1045 = CARTESIAN_POINT('',(2.1945113364,-0.622439831224));
#1046 = CARTESIAN_POINT('',(2.201982139548,-0.609788774832));
#1047 = CARTESIAN_POINT('',(2.20931248812,-0.597134298854));
#1048 = CARTESIAN_POINT('',(2.216506555454,-0.584475453069));
#1049 = CARTESIAN_POINT('',(2.223568400314,-0.571811315826));
#1050 = CARTESIAN_POINT('',(2.23050197968,-0.559140991754));
#1051 = CARTESIAN_POINT('',(2.237311161335,-0.546463609195));
#1052 = CARTESIAN_POINT('',(2.243999725398,-0.533778324621));
#1053 = CARTESIAN_POINT('',(2.250571380192,-0.521084314438));
#1054 = CARTESIAN_POINT('',(2.257029763156,-0.508380780219));
#1055 = CARTESIAN_POINT('',(2.26337845112,-0.495666946218));
#1056 = CARTESIAN_POINT('',(2.269620971047,-0.482942055196));
#1057 = CARTESIAN_POINT('',(2.27576079772,-0.470205377859));
#1058 = CARTESIAN_POINT('',(2.281801371651,-0.457456197945));
#1059 = CARTESIAN_POINT('',(2.287746098094,-0.444693819602));
#1060 = CARTESIAN_POINT('',(2.293598352058,-0.431917568317));
#1061 = CARTESIAN_POINT('',(2.299361485875,-0.419126788105));
#1062 = CARTESIAN_POINT('',(2.305038834321,-0.406320843019));
#1063 = CARTESIAN_POINT('',(2.310633725009,-0.393499105352));
#1064 = CARTESIAN_POINT('',(2.316149468408,-0.380660993031));
#1065 = CARTESIAN_POINT('',(2.321589422612,-0.367805823851));
#1066 = CARTESIAN_POINT('',(2.32695649309,-0.354934029449));
#1067 = CARTESIAN_POINT('',(2.332254154101,-0.342044747061));
#1068 = CARTESIAN_POINT('',(2.337485809155,-0.329137315241));
#1069 = CARTESIAN_POINT('',(2.342654887088,-0.316211066643));
#1070 = CARTESIAN_POINT('',(2.34776482428,-0.303265381994));
#1071 = CARTESIAN_POINT('',(2.352819077299,-0.290299674244));
#1072 = CARTESIAN_POINT('',(2.35782112734,-0.277313391594));
#1073 = CARTESIAN_POINT('',(2.362774486847,-0.264306015609));
#1074 = CARTESIAN_POINT('',(2.367682705548,-0.251277060777));
#1075 = CARTESIAN_POINT('',(2.372549376701,-0.23822607381));
#1076 = CARTESIAN_POINT('',(2.377378143352,-0.225152633132));
#1077 = CARTESIAN_POINT('',(2.382172704698,-0.212056348427));
#1078 = CARTESIAN_POINT('',(2.386936822576,-0.198936860281));
#1079 = CARTESIAN_POINT('',(2.391674328101,-0.185793839913));
#1080 = CARTESIAN_POINT('',(2.396389128497,-0.172626988981));
#1081 = CARTESIAN_POINT('',(2.401085214161,-0.159436039488));
#1082 = CARTESIAN_POINT('',(2.405766665985,-0.146220753763));
#1083 = CARTESIAN_POINT('',(2.410437662996,-0.132980924545));
#1084 = CARTESIAN_POINT('',(2.41510249035,-0.119716375154));
#1085 = CARTESIAN_POINT('',(2.419765547735,-0.10642695977));
#1086 = CARTESIAN_POINT('',(2.424431358238,-9.311256380386E-02));
#1087 = CARTESIAN_POINT('',(2.429104577724,-7.97731043922E-02));
#1088 = CARTESIAN_POINT('',(2.433790004815,-6.640853099459E-02));
#1089 = CARTESIAN_POINT('',(2.438492591499,-5.301882613234E-02));
#1090 = CARTESIAN_POINT('',(2.443217454496,-3.96040062068E-02));
#1091 = CARTESIAN_POINT('',(2.447969887358,-2.616412263969E-02));
#1092 = CARTESIAN_POINT('',(2.452755373708,-1.269926248598E-02));
#1093 = CARTESIAN_POINT('',(2.457579600551,7.904482662123E-04));
#1094 = CARTESIAN_POINT('',(2.462448476078,1.43048506463E-02));
#1095 = CARTESIAN_POINT('',(2.467368135961,2.784372328419E-02));
#1096 = CARTESIAN_POINT('',(2.472344998378,4.14068840649E-02));
#1097 = CARTESIAN_POINT('',(2.477385643519,5.49938016006E-02));
#1098 = CARTESIAN_POINT('',(2.482496559906,6.860289495264E-02));
#1099 = CARTESIAN_POINT('',(2.487684997714,8.223377059408E-02));
#1100 = CARTESIAN_POINT('',(2.492958375373,9.588554059891E-02));
#1101 = CARTESIAN_POINT('',(2.498324448896,0.109557225961));
#1102 = CARTESIAN_POINT('',(2.503791293928,0.123247641213));
#1103 = CARTESIAN_POINT('',(2.509367340181,0.136955417069));
#1104 = CARTESIAN_POINT('',(2.515061393979,0.150678984748));
#1105 = CARTESIAN_POINT('',(2.520882666872,0.16441657046));
#1106 = CARTESIAN_POINT('',(2.526840803348,0.178166182315));
#1107 = CARTESIAN_POINT('',(2.532945918079,0.191925611745));
#1108 = CARTESIAN_POINT('',(2.539208608529,0.205692378472));
#1109 = CARTESIAN_POINT('',(2.54564006971,0.219463880243));
#1110 = CARTESIAN_POINT('',(2.552251838648,0.233236772777));
#1111 = CARTESIAN_POINT('',(2.559056001589,0.247007313483));
#1112 = CARTESIAN_POINT('',(2.566065470648,0.260771834088));
#1113 = CARTESIAN_POINT('',(2.573293656212,0.274525968763));
#1114 = CARTESIAN_POINT('',(2.580754601229,0.288264831151));
#1115 = CARTESIAN_POINT('',(2.588462993536,0.301982936876));
#1116 = CARTESIAN_POINT('',(2.596434206773,0.315674184972));
#1117 = CARTESIAN_POINT('',(2.604684348986,0.32933184419));
#1118 = CARTESIAN_POINT('',(2.613230249919,0.342948445112));
#1119 = CARTESIAN_POINT('',(2.622089681328,0.356516026312));
#1120 = CARTESIAN_POINT('',(2.631280698734,0.37002503861));
#1121 = CARTESIAN_POINT('',(2.640821925957,0.383464800158));
#1122 = CARTESIAN_POINT('',(2.650733631777,0.396824905729));
#1123 = CARTESIAN_POINT('',(2.661036331373,0.410093100889));
#1124 = CARTESIAN_POINT('',(2.671751105073,0.423255788731));
#1125 = CARTESIAN_POINT('',(2.682899449927,0.436297841861));
#1126 = CARTESIAN_POINT('',(2.694503237776,0.449202597983));
#1127 = CARTESIAN_POINT('',(2.70658462429,0.461951804732));
#1128 = CARTESIAN_POINT('',(2.719165944573,0.474525576227));
#1129 = CARTESIAN_POINT('',(2.732269594627,0.486902349901));
#1130 = CARTESIAN_POINT('',(2.745917851327,0.499058831747));
#1131 = CARTESIAN_POINT('',(2.760132806013,0.510969994695));
#1132 = CARTESIAN_POINT('',(2.774933122339,0.522606757152));
#1133 = CARTESIAN_POINT('',(2.790337705433,0.53393946753));
#1134 = CARTESIAN_POINT('',(2.806362751321,0.544935769114));
#1135 = CARTESIAN_POINT('',(2.823021723224,0.555561176929));
#1136 = CARTESIAN_POINT('',(2.840324642827,0.565779125735));
#1137 = CARTESIAN_POINT('',(2.858277509276,0.575551214711));
#1138 = CARTESIAN_POINT('',(2.876881581257,0.584837453339));
#1139 = CARTESIAN_POINT('',(2.896132816527,0.593596596688));
#1140 = CARTESIAN_POINT('',(2.916019221154,0.601785827639));
#1141 = CARTESIAN_POINT('',(2.936521758921,0.60936213524));
#1142 = CARTESIAN_POINT('',(2.95761369414,0.616282875455));
#1143 = CARTESIAN_POINT('',(2.979260051531,0.622506498841));
#1144 = CARTESIAN_POINT('',(3.001416968043,0.627993252656));
#1145 = CARTESIAN_POINT('',(3.024032059612,0.632706111798));
#1146 = CARTESIAN_POINT('',(3.047044735256,0.636611749895));
#1147 = CARTESIAN_POINT('',(3.070384954763,0.639681091775));
#1148 = CARTESIAN_POINT('',(3.093977441038,0.641890975558));
#1149 = CARTESIAN_POINT('',(3.117741901394,0.643223602468));
#1150 = CARTESIAN_POINT('',(3.133642217101,0.643521459834));
#1151 = CARTESIAN_POINT('',(3.14159265359,0.64352087891));
#1152 = ( GEOMETRIC_REPRESENTATION_CONTEXT(2) 
PARAMETRIC_REPRESENTATION_CONTEXT() REPRESENTATION_CONTEXT('2D SPACE',''
  ) );
#1153 = ORIENTED_EDGE('',*,*,#1154,.T.);
#1154 = EDGE_CURVE('',#836,#636,#1155,.T.);
#1155 = SURFACE_CURVE('',#1156,(#1161,#1168),.PCURVE_S1.);
#1156 = CIRCLE('',#1157,6.);
#1157 = AXIS2_PLACEMENT_3D('',#1158,#1159,#1160);
#1158 = CARTESIAN_POINT('',(51.905,0.,137.09455543377));
#1159 = DIRECTION('',(-0.5,0.,0.866025403784));
#1160 = DIRECTION('',(0.866025403784,0.,0.5));
#1161 = PCURVE('',#319,#1162);
#1162 = DEFINITIONAL_REPRESENTATION('',(#1163),#1167);
#1163 = LINE('',#1164,#1165);
#1164 = CARTESIAN_POINT('',(0.,0.));
#1165 = VECTOR('',#1166,1.);
#1166 = DIRECTION('',(1.,0.));
#1167 = ( GEOMETRIC_REPRESENTATION_CONTEXT(2) 
PARAMETRIC_REPRESENTATION_CONTEXT() REPRESENTATION_CONTEXT('2D SPACE',''
  ) );
#1168 = PCURVE('',#1169,#1174);
#1169 = PLANE('',#1170);
#1170 = AXIS2_PLACEMENT_3D('',#1171,#1172,#1173);
#1171 = CARTESIAN_POINT('',(51.905,0.,137.09455543377));
#1172 = DIRECTION('',(-0.5,0.,0.866025403784));
#1173 = DIRECTION('',(0.866025403784,0.,0.5));
#1174 = DEFINITIONAL_REPRESENTATION('',(#1175),#1179);
#1175 = CIRCLE('',#1176,6.);
#1176 = AXIS2_PLACEMENT_2D('',#1177,#1178);
#1177 = CARTESIAN_POINT('',(0.,0.));
#1178 = DIRECTION('',(1.,0.));
#1179 = ( GEOMETRIC_REPRESENTATION_CONTEXT(2) 
PARAMETRIC_REPRESENTATION_CONTEXT() REPRESENTATION_CONTEXT('2D SPACE',''
  ) );
#1180 = ADVANCED_FACE('',(#1181),#188,.T.);
#1181 = FACE_BOUND('',#1182,.T.);
#1182 = EDGE_LOOP('',(#1183));
#1183 = ORIENTED_EDGE('',*,*,#173,.T.);
#1184 = ADVANCED_FACE('',(#1185,#1189),#749,.T.);
#1185 = FACE_BOUND('',#1186,.T.);
#1186 = VERTEX_LOOP('',#1187);
#1187 = VERTEX_POINT('',#1188);
#1188 = CARTESIAN_POINT('',(58.31,-1.049831847863E-31,150.5));
#1189 = FACE_BOUND('',#1190,.T.);
#1190 = EDGE_LOOP('',(#1191,#1192,#1241));
#1191 = ORIENTED_EDGE('',*,*,#635,.F.);
#1192 = ORIENTED_EDGE('',*,*,#1193,.F.);
#1193 = EDGE_CURVE('',#836,#636,#1194,.T.);
#1194 = SURFACE_CURVE('',#1195,(#1200,#1234),.PCURVE_S1.);
#1195 = CIRCLE('',#1196,6.595605920489);
#1196 = AXIS2_PLACEMENT_3D('',#1197,#1198,#1199);
#1197 = CARTESIAN_POINT('',(59.482388858443,0.,141.46936293094));
#1198 = DIRECTION('',(-0.5,0.,0.866025403784));
#1199 = DIRECTION('',(-0.866025403784,0.,-0.5));
#1200 = PCURVE('',#749,#1201);
#1201 = DEFINITIONAL_REPRESENTATION('',(#1202),#1233);
#1202 = B_SPLINE_CURVE_WITH_KNOTS('',8,(#1203,#1204,#1205,#1206,#1207,
    #1208,#1209,#1210,#1211,#1212,#1213,#1214,#1215,#1216,#1217,#1218,
    #1219,#1220,#1221,#1222,#1223,#1224,#1225,#1226,#1227,#1228,#1229,
    #1230,#1231,#1232),.UNSPECIFIED.,.F.,.F.,(9,7,7,7,9),(5.142405570738
    ,5.712795438959,6.140587840124,6.782276441873,7.423965043622),
  .UNSPECIFIED.);
#1203 = CARTESIAN_POINT('',(1.76976650071,-0.508070159172));
#1204 = CARTESIAN_POINT('',(1.835436675086,-0.543016187207));
#1205 = CARTESIAN_POINT('',(1.902935861843,-0.577433338215));
#1206 = CARTESIAN_POINT('',(1.972619124471,-0.611074979234));
#1207 = CARTESIAN_POINT('',(2.044861232803,-0.643667684889));
#1208 = CARTESIAN_POINT('',(2.120050584132,-0.674906169871));
#1209 = CARTESIAN_POINT('',(2.198558921589,-0.704442708729));
#1210 = CARTESIAN_POINT('',(2.280672431454,-0.731887304572));
#1211 = CARTESIAN_POINT('',(2.430817828256,-0.77554554105));
#1212 = CARTESIAN_POINT('',(2.497238138224,-0.792851670753));
#1213 = CARTESIAN_POINT('',(2.565764206551,-0.808582271814));
#1214 = CARTESIAN_POINT('',(2.636365839255,-0.822562389367));
#1215 = CARTESIAN_POINT('',(2.708923083948,-0.834618068174));
#1216 = CARTESIAN_POINT('',(2.783199072267,-0.844590880601));
#1217 = CARTESIAN_POINT('',(2.858837863099,-0.852354834474));
#1218 = CARTESIAN_POINT('',(3.050276595709,-0.866038952339));
#1219 = CARTESIAN_POINT('',(3.167247441181,-0.869096029399));
#1220 = CARTESIAN_POINT('',(3.284884564402,-0.8667257153));
#1221 = CARTESIAN_POINT('',(3.401393952674,-0.85886965696));
#1222 = CARTESIAN_POINT('',(3.514888377733,-0.845793366383));
#1223 = CARTESIAN_POINT('',(3.624305949052,-0.828013721577));
#1224 = CARTESIAN_POINT('',(3.729140005804,-0.80610323187));
#1225 = CARTESIAN_POINT('',(3.929462612646,-0.755187782202));
#1226 = CARTESIAN_POINT('',(4.024951155734,-0.72618268445));
#1227 = CARTESIAN_POINT('',(4.115675548226,-0.694212335147));
#1228 = CARTESIAN_POINT('',(4.20195822154,-0.659863817636));
#1229 = CARTESIAN_POINT('',(4.284332845369,-0.623653628343));
#1230 = CARTESIAN_POINT('',(4.363345869642,-0.586029391424));
#1231 = CARTESIAN_POINT('',(4.439539860297,-0.547384440712));
#1232 = CARTESIAN_POINT('',(4.51341880647,-0.508070159172));
#1233 = ( GEOMETRIC_REPRESENTATION_CONTEXT(2) 
PARAMETRIC_REPRESENTATION_CONTEXT() REPRESENTATION_CONTEXT('2D SPACE',''
  ) );
#1234 = PCURVE('',#1169,#1235);
#1235 = DEFINITIONAL_REPRESENTATION('',(#1236),#1240);
#1236 = CIRCLE('',#1237,6.595605920489);
#1237 = AXIS2_PLACEMENT_2D('',#1238,#1239);
#1238 = CARTESIAN_POINT('',(8.749614994353,0.));
#1239 = DIRECTION('',(-1.,0.));
#1240 = ( GEOMETRIC_REPRESENTATION_CONTEXT(2) 
PARAMETRIC_REPRESENTATION_CONTEXT() REPRESENTATION_CONTEXT('2D SPACE',''
  ) );
#1241 = ORIENTED_EDGE('',*,*,#835,.T.);
#1242 = ADVANCED_FACE('',(#1243),#1169,.F.);
#1243 = FACE_BOUND('',#1244,.F.);
#1244 = EDGE_LOOP('',(#1245,#1246));
#1245 = ORIENTED_EDGE('',*,*,#1193,.F.);
#1246 = ORIENTED_EDGE('',*,*,#1154,.T.);
#1247 = ( GEOMETRIC_REPRESENTATION_CONTEXT(3) 
GLOBAL_UNCERTAINTY_ASSIGNED_CONTEXT((#1251)) 
GLOBAL_UNIT_ASSIGNED_CONTEXT((#1248,#1249,#1250)) REPRESENTATION_CONTEXT
('Context #1','3D Context with UNIT and UNCERTAINTY') );
#1248 = ( LENGTH_UNIT() NAMED_UNIT(*) SI_UNIT(.MILLI.,.METRE.) );
#1249 = ( NAMED_UNIT(*) PLANE_ANGLE_UNIT() SI_UNIT($,.RADIAN.) );
#1250 = ( NAMED_UNIT(*) SI_UNIT($,.STERADIAN.) SOLID_ANGLE_UNIT() );
#1251 = UNCERTAINTY_MEASURE_WITH_UNIT(LENGTH_MEASURE(2.E-07),#1248,
  'distance_accuracy_value','confusion accuracy');
#1252 = PRODUCT_RELATED_PRODUCT_CATEGORY('part',$,(#7));
ENDSEC;
END-ISO-10303-21;
