ISO-10303-21;
HEADER;
FILE_DESCRIPTION(('Open CASCADE Model'),'2;1');
FILE_NAME('Open CASCADE Shape Model','2026-03-19T00:48:06',('Author'),(
    'Open CASCADE'),'Open CASCADE STEP processor 7.8','Open CASCADE 7.8'
  ,'Unknown');
FILE_SCHEMA(('AUTOMOTIVE_DESIGN { 1 0 10303 214 1 1 1 1 }'));
ENDSEC;
DATA;
#1 = APPLICATION_PROTOCOL_DEFINITION('international standard',
  'automotive_design',2000,#2);
#2 = APPLICATION_CONTEXT(
  'core data for automotive mechanical design processes');
#3 = SHAPE_DEFINITION_REPRESENTATION(#4,#10);
#4 = PRODUCT_DEFINITION_SHAPE('','',#5);
#5 = PRODUCT_DEFINITION('design','',#6,#9);
#6 = PRODUCT_DEFINITION_FORMATION('','',#7);
#7 = PRODUCT('Open CASCADE STEP translator 7.8 1',
  'Open CASCADE STEP translator 7.8 1','',(#8));
#8 = PRODUCT_CONTEXT('',#2,'mechanical');
#9 = PRODUCT_DEFINITION_CONTEXT('part definition',#2,'design');
#10 = ADVANCED_BREP_SHAPE_REPRESENTATION('',(#11,#15),#964);
#11 = AXIS2_PLACEMENT_3D('',#12,#13,#14);
#12 = CARTESIAN_POINT('',(0.,0.,0.));
#13 = DIRECTION('',(0.,0.,1.));
#14 = DIRECTION('',(1.,0.,-0.));
#15 = MANIFOLD_SOLID_BREP('',#16);
#16 = CLOSED_SHELL('',(#17,#572,#623,#952));
#17 = ADVANCED_FACE('',(#18),#32,.T.);
#18 = FACE_BOUND('',#19,.T.);
#19 = EDGE_LOOP('',(#20,#50,#79,#314,#549,#571));
#20 = ORIENTED_EDGE('',*,*,#21,.F.);
#21 = EDGE_CURVE('',#22,#24,#26,.T.);
#22 = VERTEX_POINT('',#23);
#23 = CARTESIAN_POINT('',(15.,-3.673940397442E-15,0.));
#24 = VERTEX_POINT('',#25);
#25 = CARTESIAN_POINT('',(0.,0.,20.));
#26 = SEAM_CURVE('',#27,(#31,#43),.PCURVE_S1.);
#27 = LINE('',#28,#29);
#28 = CARTESIAN_POINT('',(15.,-3.673940397442E-15,0.));
#29 = VECTOR('',#30,1.);
#30 = DIRECTION('',(-0.6,1.469576158977E-16,0.8));
#31 = PCURVE('',#32,#37);
#32 = CONICAL_SURFACE('',#33,15.,0.643501108793);
#33 = AXIS2_PLACEMENT_3D('',#34,#35,#36);
#34 = CARTESIAN_POINT('',(0.,0.,0.));
#35 = DIRECTION('',(-0.,-0.,-1.));
#36 = DIRECTION('',(1.,0.,-0.));
#37 = DEFINITIONAL_REPRESENTATION('',(#38),#42);
#38 = LINE('',#39,#40);
#39 = CARTESIAN_POINT('',(-6.28318530718,0.));
#40 = VECTOR('',#41,1.);
#41 = DIRECTION('',(-0.,-1.));
#42 = ( GEOMETRIC_REPRESENTATION_CONTEXT(2) 
PARAMETRIC_REPRESENTATION_CONTEXT() REPRESENTATION_CONTEXT('2D SPACE',''
  ) );
#43 = PCURVE('',#32,#44);
#44 = DEFINITIONAL_REPRESENTATION('',(#45),#49);
#45 = LINE('',#46,#47);
#46 = CARTESIAN_POINT('',(0.,-0.));
#47 = VECTOR('',#48,1.);
#48 = DIRECTION('',(-0.,-1.));
#49 = ( GEOMETRIC_REPRESENTATION_CONTEXT(2) 
PARAMETRIC_REPRESENTATION_CONTEXT() REPRESENTATION_CONTEXT('2D SPACE',''
  ) );
#50 = ORIENTED_EDGE('',*,*,#51,.T.);
#51 = EDGE_CURVE('',#22,#52,#54,.T.);
#52 = VERTEX_POINT('',#53);
#53 = CARTESIAN_POINT('',(10.690066261618,10.522475151893,0.));
#54 = SURFACE_CURVE('',#55,(#60,#67),.PCURVE_S1.);
#55 = CIRCLE('',#56,15.);
#56 = AXIS2_PLACEMENT_3D('',#57,#58,#59);
#57 = CARTESIAN_POINT('',(0.,0.,0.));
#58 = DIRECTION('',(0.,0.,1.));
#59 = DIRECTION('',(1.,0.,-0.));
#60 = PCURVE('',#32,#61);
#61 = DEFINITIONAL_REPRESENTATION('',(#62),#66);
#62 = LINE('',#63,#64);
#63 = CARTESIAN_POINT('',(-0.,-0.));
#64 = VECTOR('',#65,1.);
#65 = DIRECTION('',(-1.,-0.));
#66 = ( GEOMETRIC_REPRESENTATION_CONTEXT(2) 
PARAMETRIC_REPRESENTATION_CONTEXT() REPRESENTATION_CONTEXT('2D SPACE',''
  ) );
#67 = PCURVE('',#68,#73);
#68 = PLANE('',#69);
#69 = AXIS2_PLACEMENT_3D('',#70,#71,#72);
#70 = CARTESIAN_POINT('',(0.,0.,0.));
#71 = DIRECTION('',(0.,0.,1.));
#72 = DIRECTION('',(1.,0.,-0.));
#73 = DEFINITIONAL_REPRESENTATION('',(#74),#78);
#74 = CIRCLE('',#75,15.);
#75 = AXIS2_PLACEMENT_2D('',#76,#77);
#76 = CARTESIAN_POINT('',(0.,0.));
#77 = DIRECTION('',(1.,0.));
#78 = ( GEOMETRIC_REPRESENTATION_CONTEXT(2) 
PARAMETRIC_REPRESENTATION_CONTEXT() REPRESENTATION_CONTEXT('2D SPACE',''
  ) );
#79 = ORIENTED_EDGE('',*,*,#80,.T.);
#80 = EDGE_CURVE('',#52,#81,#83,.T.);
#81 = VERTEX_POINT('',#82);
#82 = CARTESIAN_POINT('',(-3.443603256714E-09,13.6393038758,
    1.81426149271));
#83 = SURFACE_CURVE('',#84,(#157,#233),.PCURVE_S1.);
#84 = B_SPLINE_CURVE_WITH_KNOTS('',8,(#85,#86,#87,#88,#89,#90,#91,#92,
    #93,#94,#95,#96,#97,#98,#99,#100,#101,#102,#103,#104,#105,#106,#107,
    #108,#109,#110,#111,#112,#113,#114,#115,#116,#117,#118,#119,#120,
    #121,#122,#123,#124,#125,#126,#127,#128,#129,#130,#131,#132,#133,
    #134,#135,#136,#137,#138,#139,#140,#141,#142,#143,#144,#145,#146,
    #147,#148,#149,#150,#151,#152,#153,#154,#155,#156),.UNSPECIFIED.,.F.
  ,.F.,(9,7,7,7,7,7,7,7,7,7,9),(0.,0.231937880248,0.34978754916,
    0.409850252966,0.440374052656,0.500069444198,0.559772805024,
    0.590306478593,0.650398729154,0.768345498723,1.),.UNSPECIFIED.);
#85 = CARTESIAN_POINT('',(10.690066261618,10.522475151893,
    2.13162820728E-14));
#86 = CARTESIAN_POINT('',(10.449483136673,10.441496613477,0.304350596037
    ));
#87 = CARTESIAN_POINT('',(10.196093285762,10.375147745116,0.605933697332
    ));
#88 = CARTESIAN_POINT('',(9.929241964587,10.323651345098,0.904322325538)
  );
#89 = CARTESIAN_POINT('',(9.648128791563,10.287423357592,1.198730995046)
  );
#90 = CARTESIAN_POINT('',(9.351818006396,10.266991117953,1.488017835815)
  );
#91 = CARTESIAN_POINT('',(9.039085346939,10.263000688336,1.770611528163)
  );
#92 = CARTESIAN_POINT('',(8.708392381505,10.276161970906,2.044500169327)
  );
#93 = CARTESIAN_POINT('',(8.178687352379,10.323513280427,2.440260742674)
  );
#94 = CARTESIAN_POINT('',(7.995027786556,10.344165115015,2.570555522561)
  );
#95 = CARTESIAN_POINT('',(7.805836967452,10.369648058389,2.69745858385)
  );
#96 = CARTESIAN_POINT('',(7.610805045094,10.400113236713,2.820498111096)
  );
#97 = CARTESIAN_POINT('',(7.409651794741,10.435716852239,2.939080194159)
  );
#98 = CARTESIAN_POINT('',(7.202127213958,10.476612293235,3.052490157687)
  );
#99 = CARTESIAN_POINT('',(6.988012008395,10.522947628326,3.159893196423)
  );
#100 = CARTESIAN_POINT('',(6.654538155524,10.601330223163,3.311524661588
    ));
#101 = CARTESIAN_POINT('',(6.540219176039,10.629237724886,3.360896556268
    ));
#102 = CARTESIAN_POINT('',(6.424148953125,10.658606629451,3.408320300113
    ));
#103 = CARTESIAN_POINT('',(6.306330469529,10.689448785322,3.453652446324
    ));
#104 = CARTESIAN_POINT('',(6.186784239976,10.721770894031,3.496739013851
    ));
#105 = CARTESIAN_POINT('',(6.065550785699,10.755573153794,3.537418699651
    ));
#106 = CARTESIAN_POINT('',(5.942693108967,10.790847903134,3.575526090952
    ));
#107 = CARTESIAN_POINT('',(5.755082304109,10.846244593547,3.628869255752
    ));
#108 = CARTESIAN_POINT('',(5.691469824684,10.865286521534,3.646136078214
    ));
#109 = CARTESIAN_POINT('',(5.627474225826,10.884701536744,3.662673429312
    ));
#110 = CARTESIAN_POINT('',(5.563109935103,10.904486419416,3.678459390115
    ));
#111 = CARTESIAN_POINT('',(5.498393429452,10.924637173935,3.693472274175
    ));
#112 = CARTESIAN_POINT('',(5.433343353472,10.945148961022,3.707690863366
    ));
#113 = CARTESIAN_POINT('',(5.367980637721,10.966016029927,3.721094643713
    ));
#114 = CARTESIAN_POINT('',(5.173932967625,11.028723037571,3.758246010503
    ));
#115 = CARTESIAN_POINT('',(5.044414022032,11.071553090247,3.779639812429
    ));
#116 = CARTESIAN_POINT('',(4.913965634721,11.115665279388,3.797694224442
    ));
#117 = CARTESIAN_POINT('',(4.782799976016,11.160993899187,3.812277866644
    ));
#118 = CARTESIAN_POINT('',(4.651148510126,11.207463247794,3.82328452726)
  );
#119 = CARTESIAN_POINT('',(4.519262973217,11.254986807802,3.83063848809)
  );
#120 = CARTESIAN_POINT('',(4.38741635148,11.303466426751,3.834299849967)
  );
#121 = CARTESIAN_POINT('',(4.1243738101,11.402123153346,3.83423986245));
#122 = CARTESIAN_POINT('',(3.993151856665,11.45231028429,3.830517520354)
  );
#123 = CARTESIAN_POINT('',(3.862533207108,11.503242038717,3.823102045838
    ));
#124 = CARTESIAN_POINT('',(3.732788024601,11.55481283942,3.812033795735)
  );
#125 = CARTESIAN_POINT('',(3.604162713,11.606922356209,3.797388922635));
#126 = CARTESIAN_POINT('',(3.476881202574,11.659475478395,3.779274027738
    ));
#127 = CARTESIAN_POINT('',(3.351146235736,11.712382287273,3.757820813699
    ));
#128 = CARTESIAN_POINT('',(3.163721342068,11.792753327251,3.720579235081
    ));
#129 = CARTESIAN_POINT('',(3.100750106245,11.820020757437,3.707143373667
    ));
#130 = CARTESIAN_POINT('',(3.038248916229,11.847350055514,3.692892770048
    ));
#131 = CARTESIAN_POINT('',(2.976237285816,11.874731802038,3.677847976754
    ));
#132 = CARTESIAN_POINT('',(2.914732405675,11.902157394993,3.662030246142
    ));
#133 = CARTESIAN_POINT('',(2.853749277331,11.929619023012,3.645461294516
    ));
#134 = CARTESIAN_POINT('',(2.79330084716,11.9571096386,3.628163066237));
#135 = CARTESIAN_POINT('',(2.615505727028,12.038770876514,3.574721371078
    ));
#136 = CARTESIAN_POINT('',(2.499731279409,12.093004703007,3.53654655981)
  );
#137 = CARTESIAN_POINT('',(2.386151875606,12.14727938258,3.495799612493)
  );
#138 = CARTESIAN_POINT('',(2.274819748952,12.201559350082,3.452646127848
    ));
#139 = CARTESIAN_POINT('',(2.165765043996,12.255817898598,3.407247547465
    ));
#140 = CARTESIAN_POINT('',(2.058998572482,12.310036574596,3.359757948398
    ));
#141 = CARTESIAN_POINT('',(1.954514569324,12.364204573059,3.310320835771
    ));
#142 = CARTESIAN_POINT('',(1.651657744974,12.524530156338,3.15846477848)
  );
#143 = CARTESIAN_POINT('',(1.45981531952,12.630492331293,3.050899721719)
  );
#144 = CARTESIAN_POINT('',(1.276526890302,12.736219307604,2.937326891288
    ));
#145 = CARTESIAN_POINT('',(1.101528597696,12.841744174777,2.818581839184
    ));
#146 = CARTESIAN_POINT('',(0.934530236816,12.94711609831,2.695379716653)
  );
#147 = CARTESIAN_POINT('',(0.775217171585,13.052401930862,2.568314715932
    ));
#148 = CARTESIAN_POINT('',(0.623255930438,13.157691797988,2.437858780279
    ));
#149 = CARTESIAN_POINT('',(0.193608219075,13.470153669743,2.042159182548
    ));
#150 = CARTESIAN_POINT('',(-6.370135216056E-02,13.677434174165,
    1.768541470773));
#151 = CARTESIAN_POINT('',(-0.296271758754,13.885827644748,
    1.486252607153));
#152 = CARTESIAN_POINT('',(-0.505722074371,14.09580874796,1.197294283672
    ));
#153 = CARTESIAN_POINT('',(-0.693393345044,14.307694360026,
    0.903230155524));
#154 = CARTESIAN_POINT('',(-0.860332853409,14.521701579961,
    0.605197251008));
#155 = CARTESIAN_POINT('',(-1.007413220633,14.73804213954,0.303978343462
    ));
#156 = CARTESIAN_POINT('',(-1.13527174107,14.956976902901,
    -2.283210657576E-14));
#157 = PCURVE('',#32,#158);
#158 = DEFINITIONAL_REPRESENTATION('',(#159),#232);
#159 = B_SPLINE_CURVE_WITH_KNOTS('',8,(#160,#161,#162,#163,#164,#165,
    #166,#167,#168,#169,#170,#171,#172,#173,#174,#175,#176,#177,#178,
    #179,#180,#181,#182,#183,#184,#185,#186,#187,#188,#189,#190,#191,
    #192,#193,#194,#195,#196,#197,#198,#199,#200,#201,#202,#203,#204,
    #205,#206,#207,#208,#209,#210,#211,#212,#213,#214,#215,#216,#217,
    #218,#219,#220,#221,#222,#223,#224,#225,#226,#227,#228,#229,#230,
    #231),.UNSPECIFIED.,.F.,.F.,(9,7,7,7,7,7,7,7,7,7,9),(0.,
    0.231937880248,0.34978754916,0.409850252966,0.440374052656,
    0.500069444198,0.559772805024,0.590306478593,0.650398729154,
    0.768345498723,1.),.UNSPECIFIED.);
#160 = CARTESIAN_POINT('',(-0.777497760535,-2.13162820728E-14));
#161 = CARTESIAN_POINT('',(-0.784901600592,-0.304350596037));
#162 = CARTESIAN_POINT('',(-0.793856975964,-0.605933697332));
#163 = CARTESIAN_POINT('',(-0.804496012912,-0.904322325538));
#164 = CARTESIAN_POINT('',(-0.816977507769,-1.198730995045));
#165 = CARTESIAN_POINT('',(-0.831484129837,-1.488017835815));
#166 = CARTESIAN_POINT('',(-0.848232137876,-1.770611528163));
#167 = CARTESIAN_POINT('',(-0.867466836295,-2.044500169327));
#168 = CARTESIAN_POINT('',(-0.900721200505,-2.440260742674));
#169 = CARTESIAN_POINT('',(-0.912645116985,-2.570555522561));
#170 = CARTESIAN_POINT('',(-0.925331235358,-2.69745858385));
#171 = CARTESIAN_POINT('',(-0.938821282064,-2.820498111096));
#172 = CARTESIAN_POINT('',(-0.953154802304,-2.939080194159));
#173 = CARTESIAN_POINT('',(-0.968367241881,-3.052490157687));
#174 = CARTESIAN_POINT('',(-0.984487744237,-3.159893196423));
#175 = CARTESIAN_POINT('',(-1.01022573371,-3.311524661588));
#176 = CARTESIAN_POINT('',(-1.019154288043,-3.360896556268));
#177 = CARTESIAN_POINT('',(-1.028323969307,-3.408320300113));
#178 = CARTESIAN_POINT('',(-1.037734756382,-3.453652446324));
#179 = CARTESIAN_POINT('',(-1.047384599398,-3.496739013851));
#180 = CARTESIAN_POINT('',(-1.057269055702,-3.537418699651));
#181 = CARTESIAN_POINT('',(-1.067380925824,-3.575526090952));
#182 = CARTESIAN_POINT('',(-1.082959057349,-3.628869255752));
#183 = CARTESIAN_POINT('',(-1.088264198746,-3.646136078214));
#184 = CARTESIAN_POINT('',(-1.093623881954,-3.662673429312));
#185 = CARTESIAN_POINT('',(-1.099036443851,-3.678459390115));
#186 = CARTESIAN_POINT('',(-1.104499977757,-3.693472274175));
#187 = CARTESIAN_POINT('',(-1.110012321293,-3.707690863366));
#188 = CARTESIAN_POINT('',(-1.115571044253,-3.721094643713));
#189 = CARTESIAN_POINT('',(-1.13213003429,-3.758246010503));
#190 = CARTESIAN_POINT('',(-1.143255071585,-3.779639812429));
#191 = CARTESIAN_POINT('',(-1.154526726923,-3.797694224442));
#192 = CARTESIAN_POINT('',(-1.165920380651,-3.812277866644));
#193 = CARTESIAN_POINT('',(-1.177408768148,-3.82328452726));
#194 = CARTESIAN_POINT('',(-1.188962133074,-3.83063848809));
#195 = CARTESIAN_POINT('',(-1.200548380619,-3.834299849967));
#196 = CARTESIAN_POINT('',(-1.223719627459,-3.83423986245));
#197 = CARTESIAN_POINT('',(-1.235306969203,-3.830517520354));
#198 = CARTESIAN_POINT('',(-1.246860965729,-3.823102045838));
#199 = CARTESIAN_POINT('',(-1.258349525555,-3.812033795735));
#200 = CARTESIAN_POINT('',(-1.269742907755,-3.797388922635));
#201 = CARTESIAN_POINT('',(-1.281013873737,-3.779274027738));
#202 = CARTESIAN_POINT('',(-1.292137839025,-3.757820813699));
#203 = CARTESIAN_POINT('',(-1.30869575944,-3.720579235081));
#204 = CARTESIAN_POINT('',(-1.314254718532,-3.707143373667));
#205 = CARTESIAN_POINT('',(-1.319767195985,-3.692892770048));
#206 = CARTESIAN_POINT('',(-1.325230765716,-3.677847976754));
#207 = CARTESIAN_POINT('',(-1.330643269704,-3.662030246142));
#208 = CARTESIAN_POINT('',(-1.336002805805,-3.645461294516));
#209 = CARTESIAN_POINT('',(-1.341307715571,-3.628163066237));
#210 = CARTESIAN_POINT('',(-1.35688666217,-3.574721371078));
#211 = CARTESIAN_POINT('',(-1.366999275202,-3.53654655981));
#212 = CARTESIAN_POINT('',(-1.37688412301,-3.495799612493));
#213 = CARTESIAN_POINT('',(-1.38653403753,-3.452646127848));
#214 = CARTESIAN_POINT('',(-1.395944606397,-3.407247547465));
#215 = CARTESIAN_POINT('',(-1.40511380856,-3.359757948398));
#216 = CARTESIAN_POINT('',(-1.41404164989,-3.310320835771));
#217 = CARTESIAN_POINT('',(-1.43978256497,-3.15846477848));
#218 = CARTESIAN_POINT('',(-1.455905487715,-3.050899721719));
#219 = CARTESIAN_POINT('',(-1.471119123357,-2.937326891288));
#220 = CARTESIAN_POINT('',(-1.485452781075,-2.818581839184));
#221 = CARTESIAN_POINT('',(-1.498942044202,-2.695379716653));
#222 = CARTESIAN_POINT('',(-1.511626573339,-2.568314715932));
#223 = CARTESIAN_POINT('',(-1.523548191303,-2.437858780279));
#224 = CARTESIAN_POINT('',(-1.556748798072,-2.042159182548));
#225 = CARTESIAN_POINT('',(-1.575941787962,-1.768541470773));
#226 = CARTESIAN_POINT('',(-1.592655655308,-1.486252607154));
#227 = CARTESIAN_POINT('',(-1.607134696722,-1.19729428367));
#228 = CARTESIAN_POINT('',(-1.619594239242,-0.903230155526));
#229 = CARTESIAN_POINT('',(-1.630216210307,-0.605197251007));
#230 = CARTESIAN_POINT('',(-1.639158768127,-0.303978343462));
#231 = CARTESIAN_POINT('',(-1.646553552514,2.283210657576E-14));
#232 = ( GEOMETRIC_REPRESENTATION_CONTEXT(2) 
PARAMETRIC_REPRESENTATION_CONTEXT() REPRESENTATION_CONTEXT('2D SPACE',''
  ) );
#233 = PCURVE('',#234,#239);
#234 = SPHERICAL_SURFACE('',#235,10.);
#235 = AXIS2_PLACEMENT_3D('',#236,#237,#238);
#236 = CARTESIAN_POINT('',(7.5,20.,0.));
#237 = DIRECTION('',(0.,0.,1.));
#238 = DIRECTION('',(1.,0.,0.));
#239 = DEFINITIONAL_REPRESENTATION('',(#240),#313);
#240 = B_SPLINE_CURVE_WITH_KNOTS('',8,(#241,#242,#243,#244,#245,#246,
    #247,#248,#249,#250,#251,#252,#253,#254,#255,#256,#257,#258,#259,
    #260,#261,#262,#263,#264,#265,#266,#267,#268,#269,#270,#271,#272,
    #273,#274,#275,#276,#277,#278,#279,#280,#281,#282,#283,#284,#285,
    #286,#287,#288,#289,#290,#291,#292,#293,#294,#295,#296,#297,#298,
    #299,#300,#301,#302,#303,#304,#305,#306,#307,#308,#309,#310,#311,
    #312),.UNSPECIFIED.,.F.,.F.,(9,7,7,7,7,7,7,7,7,7,9),(0.,
    0.231937880248,0.34978754916,0.409850252966,0.440374052656,
    0.500069444198,0.559772805024,0.590306478593,0.650398729154,
    0.768345498723,1.),.UNSPECIFIED.);
#241 = CARTESIAN_POINT('',(5.037070146175,2.13162820728E-15));
#242 = CARTESIAN_POINT('',(5.011685551695,3.043505960366E-02));
#243 = CARTESIAN_POINT('',(4.985553882527,6.059336950218E-02));
#244 = CARTESIAN_POINT('',(4.958487852539,9.047519229108E-02));
#245 = CARTESIAN_POINT('',(4.930282641349,0.120041652864));
#246 = CARTESIAN_POINT('',(4.900707202833,0.149214973807));
#247 = CARTESIAN_POINT('',(4.869481110376,0.177868344468));
#248 = CARTESIAN_POINT('',(4.836267741034,0.205819370206));
#249 = CARTESIAN_POINT('',(4.782469171518,0.246492513239));
#250 = CARTESIAN_POINT('',(4.763719837987,0.259934072705));
#251 = CARTESIAN_POINT('',(4.744285149269,0.273078422337));
#252 = CARTESIAN_POINT('',(4.724104493536,0.285876368586));
#253 = CARTESIAN_POINT('',(4.703118613743,0.2982642342));
#254 = CARTESIAN_POINT('',(4.681270721736,0.310163412016));
#255 = CARTESIAN_POINT('',(4.658508479894,0.321480024121));
#256 = CARTESIAN_POINT('',(4.622696996937,0.337519601373));
#257 = CARTESIAN_POINT('',(4.610360265179,0.342753711237));
#258 = CARTESIAN_POINT('',(4.597772114727,0.347792207637));
#259 = CARTESIAN_POINT('',(4.584929916434,0.352618610556));
#260 = CARTESIAN_POINT('',(4.571833394117,0.357215139066));
#261 = CARTESIAN_POINT('',(4.558485066378,0.36156308213));
#262 = CARTESIAN_POINT('',(4.544890688439,0.365643169394));
#263 = CARTESIAN_POINT('',(4.524030797865,0.371363424818));
#264 = CARTESIAN_POINT('',(4.516940919365,0.373216676884));
#265 = CARTESIAN_POINT('',(4.509791401635,0.374993137685));
#266 = CARTESIAN_POINT('',(4.502583864653,0.37669024195));
#267 = CARTESIAN_POINT('',(4.495320221587,0.378305447989));
#268 = CARTESIAN_POINT('',(4.488002695169,0.379836266045));
#269 = CARTESIAN_POINT('',(4.48063383407,0.381280286662));
#270 = CARTESIAN_POINT('',(4.458710507154,0.385285030564));
#271 = CARTESIAN_POINT('',(4.444017323773,0.387594419322));
#272 = CARTESIAN_POINT('',(4.429160682123,0.389545628992));
#273 = CARTESIAN_POINT('',(4.41416753655,0.391123195359));
#274 = CARTESIAN_POINT('',(4.399067990814,0.392314586591));
#275 = CARTESIAN_POINT('',(4.38389519615,0.393110853498));
#276 = CARTESIAN_POINT('',(4.368685249322,0.393507279809));
#277 = CARTESIAN_POINT('',(4.338266901765,0.393500784639));
#278 = CARTESIAN_POINT('',(4.323055434299,0.393097755639));
#279 = CARTESIAN_POINT('',(4.307881639568,0.392294832663));
#280 = CARTESIAN_POINT('',(4.292781608798,0.391096785986));
#281 = CARTESIAN_POINT('',(4.277788472992,0.389512616027));
#282 = CARTESIAN_POINT('',(4.262932302754,0.387554900436));
#283 = CARTESIAN_POINT('',(4.248240008126,0.385239141192));
#284 = CARTESIAN_POINT('',(4.226317165168,0.381224757043));
#285 = CARTESIAN_POINT('',(4.218947649886,0.379777312758));
#286 = CARTESIAN_POINT('',(4.211629578462,0.37824308463));
#287 = CARTESIAN_POINT('',(4.204365494156,0.376624486588));
#288 = CARTESIAN_POINT('',(4.197157614032,0.374924012333));
#289 = CARTESIAN_POINT('',(4.190007845387,0.373144206974));
#290 = CARTESIAN_POINT('',(4.182917802193,0.371287638671));
#291 = CARTESIAN_POINT('',(4.162055331542,0.365556992783));
#292 = CARTESIAN_POINT('',(4.148458850147,0.361469823423));
#293 = CARTESIAN_POINT('',(4.135108767741,0.357114848254));
#294 = CARTESIAN_POINT('',(4.122010798008,0.352511358337));
#295 = CARTESIAN_POINT('',(4.109167420018,0.347678079601));
#296 = CARTESIAN_POINT('',(4.09657832033,0.342632802716));
#297 = CARTESIAN_POINT('',(4.084240835098,0.337392012965));
#298 = CARTESIAN_POINT('',(4.048419733531,0.321329421445));
#299 = CARTESIAN_POINT('',(4.025649739983,0.309996315757));
#300 = CARTESIAN_POINT('',(4.003795093951,0.298080705965));
#301 = CARTESIAN_POINT('',(3.982803236257,0.285676539227));
#302 = CARTESIAN_POINT('',(3.962617200938,0.272862458107));
#303 = CARTESIAN_POINT('',(3.943177585744,0.259702152266));
#304 = CARTESIAN_POINT('',(3.924423658309,0.246244810708));
#305 = CARTESIAN_POINT('',(3.870685076511,0.205580471627));
#306 = CARTESIAN_POINT('',(3.837526837477,0.17765845671));
#307 = CARTESIAN_POINT('',(3.806348988312,0.149036960828));
#308 = CARTESIAN_POINT('',(3.776816349365,0.119897369525));
#309 = CARTESIAN_POINT('',(3.748649701511,9.036581784925E-02));
#310 = CARTESIAN_POINT('',(3.721618922709,6.051972487128E-02));
#311 = CARTESIAN_POINT('',(3.695520020523,3.039783434623E-02));
#312 = CARTESIAN_POINT('',(3.670166474053,-2.283210657576E-15));
#313 = ( GEOMETRIC_REPRESENTATION_CONTEXT(2) 
PARAMETRIC_REPRESENTATION_CONTEXT() REPRESENTATION_CONTEXT('2D SPACE',''
  ) );
#314 = ORIENTED_EDGE('',*,*,#315,.T.);
#315 = EDGE_CURVE('',#81,#316,#318,.T.);
#316 = VERTEX_POINT('',#317);
#317 = CARTESIAN_POINT('',(-10.69006626161,10.522475151893,0.));
#318 = SURFACE_CURVE('',#319,(#392,#468),.PCURVE_S1.);
#319 = B_SPLINE_CURVE_WITH_KNOTS('',8,(#320,#321,#322,#323,#324,#325,
    #326,#327,#328,#329,#330,#331,#332,#333,#334,#335,#336,#337,#338,
    #339,#340,#341,#342,#343,#344,#345,#346,#347,#348,#349,#350,#351,
    #352,#353,#354,#355,#356,#357,#358,#359,#360,#361,#362,#363,#364,
    #365,#366,#367,#368,#369,#370,#371,#372,#373,#374,#375,#376,#377,
    #378,#379,#380,#381,#382,#383,#384,#385,#386,#387,#388,#389,#390,
    #391),.UNSPECIFIED.,.F.,.F.,(9,7,7,7,7,7,7,7,7,7,9),(0.,
    0.231937880247,0.349787549159,0.409850252965,0.440374052655,
    0.500069444197,0.559772805023,0.590306478592,0.650398729153,
    0.768345498722,1.),.UNSPECIFIED.);
#320 = CARTESIAN_POINT('',(1.13527174107,14.956976902901,
    -2.368475785867E-14));
#321 = CARTESIAN_POINT('',(1.007256644796,14.737774031527,0.304350596039
    ));
#322 = CARTESIAN_POINT('',(0.859973136328,14.521172653407,0.605933697323
    ));
#323 = CARTESIAN_POINT('',(0.692781417615,14.306910113407,0.90432232556)
  );
#324 = CARTESIAN_POINT('',(0.504804964028,14.094773515961,1.198730995015
    ));
#325 = CARTESIAN_POINT('',(0.294992009423,13.884544873869,1.48801783584)
  );
#326 = CARTESIAN_POINT('',(6.199535674689E-02,13.675905952225,
    1.77061152815));
#327 = CARTESIAN_POINT('',(-0.19581087152,13.46838003715,2.04450016933)
  );
#328 = CARTESIAN_POINT('',(-0.626038809311,13.155756484078,
    2.440260742674));
#329 = CARTESIAN_POINT('',(-0.777991743289,13.05055363124,2.570555522561
    ));
#330 = CARTESIAN_POINT('',(-0.937288679353,12.945353666426,2.69745858385
    ));
#331 = CARTESIAN_POINT('',(-1.10426243674,12.840066714845,2.820498111096
    ));
#332 = CARTESIAN_POINT('',(-1.27922685201,12.734626205763,2.939080194159
    ));
#333 = CARTESIAN_POINT('',(-1.4624711412,12.62898332052,3.052490157687)
  );
#334 = CARTESIAN_POINT('',(-1.654257886273,12.523105424122,
    3.159893196423));
#335 = CARTESIAN_POINT('',(-1.957044550109,12.362890325193,
    3.311524661588));
#336 = CARTESIAN_POINT('',(-2.061525426197,12.308747881077,
    3.360896556268));
#337 = CARTESIAN_POINT('',(-2.168286654681,12.254554991367,
    3.408320300113));
#338 = CARTESIAN_POINT('',(-2.277333779059,12.200322544248,
    3.453652446324));
#339 = CARTESIAN_POINT('',(-2.388655749518,12.146069077953,
    3.496739013851));
#340 = CARTESIAN_POINT('',(-2.502222166694,12.091821385921,
    3.537418699651));
#341 = CARTESIAN_POINT('',(-2.617980525442,12.037615121956,
    3.575526090952));
#342 = CARTESIAN_POINT('',(-2.795756352935,11.955991825237,
    3.628869255752));
#343 = CARTESIAN_POINT('',(-2.856204283233,11.928511099578,
    3.646136078214));
#344 = CARTESIAN_POINT('',(-2.917186182784,11.901059552885,
    3.662673429312));
#345 = CARTESIAN_POINT('',(-2.978689064401,11.873644245929,
    3.678459390115));
#346 = CARTESIAN_POINT('',(-3.040697886699,11.846273002467,
    3.693472274175));
#347 = CARTESIAN_POINT('',(-3.103195420384,11.81895443593,3.707690863366
    ));
#348 = CARTESIAN_POINT('',(-3.166162114546,11.791697976118,
    3.721094643713));
#349 = CARTESIAN_POINT('',(-3.353594418959,11.71134999332,3.758246010503
    ));
#350 = CARTESIAN_POINT('',(-3.479339412604,11.658456068782,
    3.779639812429));
#351 = CARTESIAN_POINT('',(-3.606627719191,11.605916997712,
    3.797694224442));
#352 = CARTESIAN_POINT('',(-3.73525628055,11.553822784987,3.812277866644
    ));
#353 = CARTESIAN_POINT('',(-3.865000929276,11.502268590612,3.82328452726
    ));
#354 = CARTESIAN_POINT('',(-3.99561511298,11.451354755391,3.83063848809)
  );
#355 = CARTESIAN_POINT('',(-4.12682861853,11.401186826607,3.834299849967
    ));
#356 = CARTESIAN_POINT('',(-4.389881531576,11.302557757792,3.83423986245
    ));
#357 = CARTESIAN_POINT('',(-4.521747144238,11.25408705145,3.830517520354
    ));
#358 = CARTESIAN_POINT('',(-4.653647828322,11.206574055761,
    3.823102045838));
#359 = CARTESIAN_POINT('',(-4.785310615603,11.160116867794,
    3.812033795735));
#360 = CARTESIAN_POINT('',(-4.916483888808,11.114801915281,
    3.797388922635));
#361 = CARTESIAN_POINT('',(-5.046936394814,11.070704781305,
    3.779274027739));
#362 = CARTESIAN_POINT('',(-5.176456257858,11.027891028977,
    3.757820813699));
#363 = CARTESIAN_POINT('',(-5.370513505401,10.965206266001,
    3.720579235081));
#364 = CARTESIAN_POINT('',(-5.435886856349,10.944344476148,
    3.707143373667));
#365 = CARTESIAN_POINT('',(-5.500946743453,10.923838370305,
    3.692892770048));
#366 = CARTESIAN_POINT('',(-5.56567227093,10.90369368262,3.677847976754)
  );
#367 = CARTESIAN_POINT('',(-5.630044830788,10.883915235575,
    3.662030246142));
#368 = CARTESIAN_POINT('',(-5.694047984265,10.864507007911,
    3.645461294516));
#369 = CARTESIAN_POINT('',(-5.757667343274,10.845472202557,
    3.628163066237));
#370 = CARTESIAN_POINT('',(-5.945317631316,10.790091412406,
    3.574721371078));
#371 = CARTESIAN_POINT('',(-6.068205553107,10.75482685037,3.53654655981)
  );
#372 = CARTESIAN_POINT('',(-6.189466537061,10.721036384534,
    3.495799612493));
#373 = CARTESIAN_POINT('',(-6.309037843993,10.688727564441,
    3.452646127848));
#374 = CARTESIAN_POINT('',(-6.426879201546,10.657900089517,
    3.407247547465));
#375 = CARTESIAN_POINT('',(-6.542970330056,10.628547165506,
    3.359757948398));
#376 = CARTESIAN_POINT('',(-6.657308468411,10.600656860902,
    3.310320835771));
#377 = CARTESIAN_POINT('',(-6.990907829186,10.522311374759,
    3.158464778481));
#378 = CARTESIAN_POINT('',(-7.205120401759,10.476002925453,3.05089972172
    ));
#379 = CARTESIAN_POINT('',(-7.412733531483,10.435141817161,
    2.937326891289));
#380 = CARTESIAN_POINT('',(-7.61396777419,10.399579483592,2.818581839185
    ));
#381 = CARTESIAN_POINT('',(-7.809074105396,10.369162147593,
    2.695379716654));
#382 = CARTESIAN_POINT('',(-7.99833353759,10.34373329361,2.568314715933)
  );
#383 = CARTESIAN_POINT('',(-8.182056577112,10.323141555485,
    2.437858780281));
#384 = CARTESIAN_POINT('',(-8.711218138336,10.27604995002,2.042159182549
    ));
#385 = CARTESIAN_POINT('',(-9.041375544225,10.263030338018,
    1.768541470777));
#386 = CARTESIAN_POINT('',(-9.353625666847,10.267116110152,
    1.486252607149));
#387 = CARTESIAN_POINT('',(-9.649500465639,10.287600295449,
    1.197294283679));
#388 = CARTESIAN_POINT('',(-9.930218674783,10.323839852596,0.90323015552
    ));
#389 = CARTESIAN_POINT('',(-10.19671209281,10.375309725125,
    0.605197251011));
#390 = CARTESIAN_POINT('',(-10.44977739496,10.441595658689,
    0.303978343462));
#391 = CARTESIAN_POINT('',(-10.69006626161,10.522475151893,0.));
#392 = PCURVE('',#32,#393);
#393 = DEFINITIONAL_REPRESENTATION('',(#394),#467);
#394 = B_SPLINE_CURVE_WITH_KNOTS('',8,(#395,#396,#397,#398,#399,#400,
    #401,#402,#403,#404,#405,#406,#407,#408,#409,#410,#411,#412,#413,
    #414,#415,#416,#417,#418,#419,#420,#421,#422,#423,#424,#425,#426,
    #427,#428,#429,#430,#431,#432,#433,#434,#435,#436,#437,#438,#439,
    #440,#441,#442,#443,#444,#445,#446,#447,#448,#449,#450,#451,#452,
    #453,#454,#455,#456,#457,#458,#459,#460,#461,#462,#463,#464,#465,
    #466),.UNSPECIFIED.,.F.,.F.,(9,7,7,7,7,7,7,7,7,7,9),(0.,
    0.231937880247,0.349787549159,0.409850252965,0.440374052655,
    0.500069444197,0.559772805023,0.590306478592,0.650398729153,
    0.768345498722,1.),.UNSPECIFIED.);
#395 = CARTESIAN_POINT('',(-1.495039101076,2.283210657576E-14));
#396 = CARTESIAN_POINT('',(-1.502442941133,-0.304350596039));
#397 = CARTESIAN_POINT('',(-1.511398316504,-0.605933697323));
#398 = CARTESIAN_POINT('',(-1.522037353454,-0.904322325558));
#399 = CARTESIAN_POINT('',(-1.534518848309,-1.198730995017));
#400 = CARTESIAN_POINT('',(-1.54902547038,-1.488017835839));
#401 = CARTESIAN_POINT('',(-1.565773478417,-1.770611528151));
#402 = CARTESIAN_POINT('',(-1.585008176836,-2.04450016933));
#403 = CARTESIAN_POINT('',(-1.618262541046,-2.440260742674));
#404 = CARTESIAN_POINT('',(-1.630186457526,-2.570555522561));
#405 = CARTESIAN_POINT('',(-1.642872575899,-2.69745858385));
#406 = CARTESIAN_POINT('',(-1.656362622605,-2.820498111096));
#407 = CARTESIAN_POINT('',(-1.670696142846,-2.939080194159));
#408 = CARTESIAN_POINT('',(-1.685908582422,-3.052490157687));
#409 = CARTESIAN_POINT('',(-1.702029084778,-3.159893196423));
#410 = CARTESIAN_POINT('',(-1.727767074252,-3.311524661588));
#411 = CARTESIAN_POINT('',(-1.736695628584,-3.360896556268));
#412 = CARTESIAN_POINT('',(-1.745865309848,-3.408320300113));
#413 = CARTESIAN_POINT('',(-1.755276096923,-3.453652446324));
#414 = CARTESIAN_POINT('',(-1.764925939939,-3.496739013851));
#415 = CARTESIAN_POINT('',(-1.774810396243,-3.537418699651));
#416 = CARTESIAN_POINT('',(-1.784922266365,-3.575526090952));
#417 = CARTESIAN_POINT('',(-1.80050039789,-3.628869255752));
#418 = CARTESIAN_POINT('',(-1.805805539287,-3.646136078214));
#419 = CARTESIAN_POINT('',(-1.811165222495,-3.662673429312));
#420 = CARTESIAN_POINT('',(-1.816577784393,-3.678459390115));
#421 = CARTESIAN_POINT('',(-1.822041318298,-3.693472274175));
#422 = CARTESIAN_POINT('',(-1.827553661834,-3.707690863366));
#423 = CARTESIAN_POINT('',(-1.833112384795,-3.721094643713));
#424 = CARTESIAN_POINT('',(-1.849671374831,-3.758246010503));
#425 = CARTESIAN_POINT('',(-1.860796412126,-3.779639812429));
#426 = CARTESIAN_POINT('',(-1.872068067464,-3.797694224442));
#427 = CARTESIAN_POINT('',(-1.883461721192,-3.812277866644));
#428 = CARTESIAN_POINT('',(-1.894950108689,-3.82328452726));
#429 = CARTESIAN_POINT('',(-1.906503473615,-3.83063848809));
#430 = CARTESIAN_POINT('',(-1.91808972116,-3.834299849967));
#431 = CARTESIAN_POINT('',(-1.941260968,-3.83423986245));
#432 = CARTESIAN_POINT('',(-1.952848309744,-3.830517520354));
#433 = CARTESIAN_POINT('',(-1.96440230627,-3.823102045838));
#434 = CARTESIAN_POINT('',(-1.975890866096,-3.812033795735));
#435 = CARTESIAN_POINT('',(-1.987284248296,-3.797388922635));
#436 = CARTESIAN_POINT('',(-1.998555214278,-3.779274027739));
#437 = CARTESIAN_POINT('',(-2.009679179566,-3.757820813699));
#438 = CARTESIAN_POINT('',(-2.026237099982,-3.720579235081));
#439 = CARTESIAN_POINT('',(-2.031796059073,-3.707143373667));
#440 = CARTESIAN_POINT('',(-2.037308536526,-3.692892770048));
#441 = CARTESIAN_POINT('',(-2.042772106257,-3.677847976754));
#442 = CARTESIAN_POINT('',(-2.048184610245,-3.662030246142));
#443 = CARTESIAN_POINT('',(-2.053544146347,-3.645461294516));
#444 = CARTESIAN_POINT('',(-2.058849056112,-3.628163066237));
#445 = CARTESIAN_POINT('',(-2.074428002711,-3.574721371078));
#446 = CARTESIAN_POINT('',(-2.084540615743,-3.53654655981));
#447 = CARTESIAN_POINT('',(-2.094425463551,-3.495799612493));
#448 = CARTESIAN_POINT('',(-2.104075378071,-3.452646127848));
#449 = CARTESIAN_POINT('',(-2.113485946938,-3.407247547465));
#450 = CARTESIAN_POINT('',(-2.122655149101,-3.359757948398));
#451 = CARTESIAN_POINT('',(-2.131582990431,-3.310320835771));
#452 = CARTESIAN_POINT('',(-2.157323905511,-3.158464778481));
#453 = CARTESIAN_POINT('',(-2.173446828256,-3.05089972172));
#454 = CARTESIAN_POINT('',(-2.188660463898,-2.937326891289));
#455 = CARTESIAN_POINT('',(-2.202994121616,-2.818581839185));
#456 = CARTESIAN_POINT('',(-2.216483384743,-2.695379716654));
#457 = CARTESIAN_POINT('',(-2.22916791388,-2.568314715933));
#458 = CARTESIAN_POINT('',(-2.241089531844,-2.437858780281));
#459 = CARTESIAN_POINT('',(-2.274290138613,-2.042159182549));
#460 = CARTESIAN_POINT('',(-2.293483128503,-1.768541470777));
#461 = CARTESIAN_POINT('',(-2.310196995849,-1.486252607149));
#462 = CARTESIAN_POINT('',(-2.324676037262,-1.19729428368));
#463 = CARTESIAN_POINT('',(-2.337135579784,-0.903230155519));
#464 = CARTESIAN_POINT('',(-2.347757550848,-0.605197251011));
#465 = CARTESIAN_POINT('',(-2.356700108668,-0.303978343462));
#466 = CARTESIAN_POINT('',(-2.364094893055,0.));
#467 = ( GEOMETRIC_REPRESENTATION_CONTEXT(2) 
PARAMETRIC_REPRESENTATION_CONTEXT() REPRESENTATION_CONTEXT('2D SPACE',''
  ) );
#468 = PCURVE('',#469,#474);
#469 = SPHERICAL_SURFACE('',#470,10.);
#470 = AXIS2_PLACEMENT_3D('',#471,#472,#473);
#471 = CARTESIAN_POINT('',(-7.5,20.,0.));
#472 = DIRECTION('',(0.,0.,1.));
#473 = DIRECTION('',(1.,0.,0.));
#474 = DEFINITIONAL_REPRESENTATION('',(#475),#548);
#475 = B_SPLINE_CURVE_WITH_KNOTS('',8,(#476,#477,#478,#479,#480,#481,
    #482,#483,#484,#485,#486,#487,#488,#489,#490,#491,#492,#493,#494,
    #495,#496,#497,#498,#499,#500,#501,#502,#503,#504,#505,#506,#507,
    #508,#509,#510,#511,#512,#513,#514,#515,#516,#517,#518,#519,#520,
    #521,#522,#523,#524,#525,#526,#527,#528,#529,#530,#531,#532,#533,
    #534,#535,#536,#537,#538,#539,#540,#541,#542,#543,#544,#545,#546,
    #547),.UNSPECIFIED.,.F.,.F.,(9,7,7,7,7,7,7,7,7,7,9),(0.,
    0.231937880247,0.349787549159,0.409850252965,0.440374052655,
    0.500069444197,0.559772805023,0.590306478592,0.650398729153,
    0.768345498722,1.),.UNSPECIFIED.);
#476 = CARTESIAN_POINT('',(5.754611486716,-2.368475785867E-15));
#477 = CARTESIAN_POINT('',(5.729226892236,3.043505960385E-02));
#478 = CARTESIAN_POINT('',(5.703095223069,6.059336950129E-02));
#479 = CARTESIAN_POINT('',(5.676029193077,9.047519229317E-02));
#480 = CARTESIAN_POINT('',(5.647823981895,0.120041652861));
#481 = CARTESIAN_POINT('',(5.61824854337,0.149214973809));
#482 = CARTESIAN_POINT('',(5.58702245092,0.177868344467));
#483 = CARTESIAN_POINT('',(5.553809081575,0.205819370206));
#484 = CARTESIAN_POINT('',(5.500010512059,0.246492513239));
#485 = CARTESIAN_POINT('',(5.481261178528,0.259934072705));
#486 = CARTESIAN_POINT('',(5.46182648981,0.273078422337));
#487 = CARTESIAN_POINT('',(5.441645834078,0.285876368586));
#488 = CARTESIAN_POINT('',(5.420659954284,0.2982642342));
#489 = CARTESIAN_POINT('',(5.398812062277,0.310163412016));
#490 = CARTESIAN_POINT('',(5.376049820435,0.321480024121));
#491 = CARTESIAN_POINT('',(5.340238337478,0.337519601373));
#492 = CARTESIAN_POINT('',(5.32790160572,0.342753711237));
#493 = CARTESIAN_POINT('',(5.315313455268,0.347792207637));
#494 = CARTESIAN_POINT('',(5.302471256975,0.352618610556));
#495 = CARTESIAN_POINT('',(5.289374734658,0.357215139066));
#496 = CARTESIAN_POINT('',(5.276026406919,0.36156308213));
#497 = CARTESIAN_POINT('',(5.262432028981,0.365643169394));
#498 = CARTESIAN_POINT('',(5.241572138407,0.371363424818));
#499 = CARTESIAN_POINT('',(5.234482259906,0.373216676884));
#500 = CARTESIAN_POINT('',(5.227332742176,0.374993137685));
#501 = CARTESIAN_POINT('',(5.220125205194,0.37669024195));
#502 = CARTESIAN_POINT('',(5.212861562129,0.378305447989));
#503 = CARTESIAN_POINT('',(5.20554403571,0.379836266045));
#504 = CARTESIAN_POINT('',(5.198175174611,0.381280286662));
#505 = CARTESIAN_POINT('',(5.176251847695,0.385285030564));
#506 = CARTESIAN_POINT('',(5.161558664314,0.387594419322));
#507 = CARTESIAN_POINT('',(5.146702022664,0.389545628992));
#508 = CARTESIAN_POINT('',(5.131708877091,0.391123195359));
#509 = CARTESIAN_POINT('',(5.116609331355,0.392314586591));
#510 = CARTESIAN_POINT('',(5.101436536692,0.393110853498));
#511 = CARTESIAN_POINT('',(5.086226589864,0.393507279809));
#512 = CARTESIAN_POINT('',(5.055808242306,0.393500784639));
#513 = CARTESIAN_POINT('',(5.04059677484,0.393097755639));
#514 = CARTESIAN_POINT('',(5.025422980109,0.392294832663));
#515 = CARTESIAN_POINT('',(5.01032294934,0.391096785986));
#516 = CARTESIAN_POINT('',(4.995329813533,0.389512616027));
#517 = CARTESIAN_POINT('',(4.980473643295,0.387554900436));
#518 = CARTESIAN_POINT('',(4.965781348667,0.385239141192));
#519 = CARTESIAN_POINT('',(4.943858505709,0.381224757043));
#520 = CARTESIAN_POINT('',(4.936488990427,0.379777312758));
#521 = CARTESIAN_POINT('',(4.929170919003,0.37824308463));
#522 = CARTESIAN_POINT('',(4.921906834697,0.376624486588));
#523 = CARTESIAN_POINT('',(4.914698954573,0.374924012333));
#524 = CARTESIAN_POINT('',(4.907549185928,0.373144206974));
#525 = CARTESIAN_POINT('',(4.900459142734,0.371287638671));
#526 = CARTESIAN_POINT('',(4.879596672084,0.365556992783));
#527 = CARTESIAN_POINT('',(4.866000190688,0.361469823423));
#528 = CARTESIAN_POINT('',(4.852650108282,0.357114848254));
#529 = CARTESIAN_POINT('',(4.839552138549,0.352511358337));
#530 = CARTESIAN_POINT('',(4.82670876056,0.347678079601));
#531 = CARTESIAN_POINT('',(4.814119660871,0.342632802716));
#532 = CARTESIAN_POINT('',(4.801782175639,0.337392012965));
#533 = CARTESIAN_POINT('',(4.765961074072,0.321329421446));
#534 = CARTESIAN_POINT('',(4.743191080524,0.309996315758));
#535 = CARTESIAN_POINT('',(4.721336434492,0.298080705965));
#536 = CARTESIAN_POINT('',(4.700344576798,0.285676539227));
#537 = CARTESIAN_POINT('',(4.680158541479,0.272862458107));
#538 = CARTESIAN_POINT('',(4.660718926285,0.259702152266));
#539 = CARTESIAN_POINT('',(4.64196499885,0.246244810708));
#540 = CARTESIAN_POINT('',(4.588226417052,0.205580471627));
#541 = CARTESIAN_POINT('',(4.555068178018,0.177658456711));
#542 = CARTESIAN_POINT('',(4.523890328853,0.149036960828));
#543 = CARTESIAN_POINT('',(4.494357689907,0.119897369525));
#544 = CARTESIAN_POINT('',(4.466191042052,9.036581784895E-02));
#545 = CARTESIAN_POINT('',(4.439160263251,6.051972487156E-02));
#546 = CARTESIAN_POINT('',(4.413061361064,3.039783434617E-02));
#547 = CARTESIAN_POINT('',(4.387707814595,0.));
#548 = ( GEOMETRIC_REPRESENTATION_CONTEXT(2) 
PARAMETRIC_REPRESENTATION_CONTEXT() REPRESENTATION_CONTEXT('2D SPACE',''
  ) );
#549 = ORIENTED_EDGE('',*,*,#550,.T.);
#550 = EDGE_CURVE('',#316,#22,#551,.T.);
#551 = SURFACE_CURVE('',#552,(#557,#564),.PCURVE_S1.);
#552 = CIRCLE('',#553,15.);
#553 = AXIS2_PLACEMENT_3D('',#554,#555,#556);
#554 = CARTESIAN_POINT('',(0.,0.,0.));
#555 = DIRECTION('',(0.,0.,1.));
#556 = DIRECTION('',(1.,0.,-0.));
#557 = PCURVE('',#32,#558);
#558 = DEFINITIONAL_REPRESENTATION('',(#559),#563);
#559 = LINE('',#560,#561);
#560 = CARTESIAN_POINT('',(-0.,-0.));
#561 = VECTOR('',#562,1.);
#562 = DIRECTION('',(-1.,-0.));
#563 = ( GEOMETRIC_REPRESENTATION_CONTEXT(2) 
PARAMETRIC_REPRESENTATION_CONTEXT() REPRESENTATION_CONTEXT('2D SPACE',''
  ) );
#564 = PCURVE('',#68,#565);
#565 = DEFINITIONAL_REPRESENTATION('',(#566),#570);
#566 = CIRCLE('',#567,15.);
#567 = AXIS2_PLACEMENT_2D('',#568,#569);
#568 = CARTESIAN_POINT('',(0.,0.));
#569 = DIRECTION('',(1.,0.));
#570 = ( GEOMETRIC_REPRESENTATION_CONTEXT(2) 
PARAMETRIC_REPRESENTATION_CONTEXT() REPRESENTATION_CONTEXT('2D SPACE',''
  ) );
#571 = ORIENTED_EDGE('',*,*,#21,.T.);
#572 = ADVANCED_FACE('',(#573),#68,.F.);
#573 = FACE_BOUND('',#574,.F.);
#574 = EDGE_LOOP('',(#575,#599,#600,#601));
#575 = ORIENTED_EDGE('',*,*,#576,.F.);
#576 = EDGE_CURVE('',#316,#577,#579,.T.);
#577 = VERTEX_POINT('',#578);
#578 = CARTESIAN_POINT('',(-4.440892098501E-15,13.385621722339,0.));
#579 = SURFACE_CURVE('',#580,(#585,#592),.PCURVE_S1.);
#580 = CIRCLE('',#581,10.);
#581 = AXIS2_PLACEMENT_3D('',#582,#583,#584);
#582 = CARTESIAN_POINT('',(-7.5,20.,0.));
#583 = DIRECTION('',(0.,0.,1.));
#584 = DIRECTION('',(1.,0.,-0.));
#585 = PCURVE('',#68,#586);
#586 = DEFINITIONAL_REPRESENTATION('',(#587),#591);
#587 = CIRCLE('',#588,10.);
#588 = AXIS2_PLACEMENT_2D('',#589,#590);
#589 = CARTESIAN_POINT('',(-7.5,20.));
#590 = DIRECTION('',(1.,0.));
#591 = ( GEOMETRIC_REPRESENTATION_CONTEXT(2) 
PARAMETRIC_REPRESENTATION_CONTEXT() REPRESENTATION_CONTEXT('2D SPACE',''
  ) );
#592 = PCURVE('',#469,#593);
#593 = DEFINITIONAL_REPRESENTATION('',(#594),#598);
#594 = LINE('',#595,#596);
#595 = CARTESIAN_POINT('',(0.,0.));
#596 = VECTOR('',#597,1.);
#597 = DIRECTION('',(1.,0.));
#598 = ( GEOMETRIC_REPRESENTATION_CONTEXT(2) 
PARAMETRIC_REPRESENTATION_CONTEXT() REPRESENTATION_CONTEXT('2D SPACE',''
  ) );
#599 = ORIENTED_EDGE('',*,*,#550,.T.);
#600 = ORIENTED_EDGE('',*,*,#51,.T.);
#601 = ORIENTED_EDGE('',*,*,#602,.F.);
#602 = EDGE_CURVE('',#577,#52,#603,.T.);
#603 = SURFACE_CURVE('',#604,(#609,#616),.PCURVE_S1.);
#604 = CIRCLE('',#605,10.);
#605 = AXIS2_PLACEMENT_3D('',#606,#607,#608);
#606 = CARTESIAN_POINT('',(7.5,20.,0.));
#607 = DIRECTION('',(0.,0.,1.));
#608 = DIRECTION('',(1.,0.,-0.));
#609 = PCURVE('',#68,#610);
#610 = DEFINITIONAL_REPRESENTATION('',(#611),#615);
#611 = CIRCLE('',#612,10.);
#612 = AXIS2_PLACEMENT_2D('',#613,#614);
#613 = CARTESIAN_POINT('',(7.5,20.));
#614 = DIRECTION('',(1.,0.));
#615 = ( GEOMETRIC_REPRESENTATION_CONTEXT(2) 
PARAMETRIC_REPRESENTATION_CONTEXT() REPRESENTATION_CONTEXT('2D SPACE',''
  ) );
#616 = PCURVE('',#234,#617);
#617 = DEFINITIONAL_REPRESENTATION('',(#618),#622);
#618 = LINE('',#619,#620);
#619 = CARTESIAN_POINT('',(0.,0.));
#620 = VECTOR('',#621,1.);
#621 = DIRECTION('',(1.,0.));
#622 = ( GEOMETRIC_REPRESENTATION_CONTEXT(2) 
PARAMETRIC_REPRESENTATION_CONTEXT() REPRESENTATION_CONTEXT('2D SPACE',''
  ) );
#623 = ADVANCED_FACE('',(#624),#469,.T.);
#624 = FACE_BOUND('',#625,.T.);
#625 = EDGE_LOOP('',(#626,#652,#742,#743,#744,#836,#860,#861,#951));
#626 = ORIENTED_EDGE('',*,*,#627,.T.);
#627 = EDGE_CURVE('',#628,#630,#632,.T.);
#628 = VERTEX_POINT('',#629);
#629 = CARTESIAN_POINT('',(-7.5,20.,-10.));
#630 = VERTEX_POINT('',#631);
#631 = CARTESIAN_POINT('',(-4.440892098501E-15,20.,-6.614378277661));
#632 = SEAM_CURVE('',#633,(#638,#645),.PCURVE_S1.);
#633 = CIRCLE('',#634,10.);
#634 = AXIS2_PLACEMENT_3D('',#635,#636,#637);
#635 = CARTESIAN_POINT('',(-7.5,20.,0.));
#636 = DIRECTION('',(-2.449293598295E-16,-1.,0.));
#637 = DIRECTION('',(1.,-2.449293598295E-16,0.));
#638 = PCURVE('',#469,#639);
#639 = DEFINITIONAL_REPRESENTATION('',(#640),#644);
#640 = LINE('',#641,#642);
#641 = CARTESIAN_POINT('',(0.,-6.28318530718));
#642 = VECTOR('',#643,1.);
#643 = DIRECTION('',(0.,1.));
#644 = ( GEOMETRIC_REPRESENTATION_CONTEXT(2) 
PARAMETRIC_REPRESENTATION_CONTEXT() REPRESENTATION_CONTEXT('2D SPACE',''
  ) );
#645 = PCURVE('',#469,#646);
#646 = DEFINITIONAL_REPRESENTATION('',(#647),#651);
#647 = LINE('',#648,#649);
#648 = CARTESIAN_POINT('',(6.28318530718,-6.28318530718));
#649 = VECTOR('',#650,1.);
#650 = DIRECTION('',(0.,1.));
#651 = ( GEOMETRIC_REPRESENTATION_CONTEXT(2) 
PARAMETRIC_REPRESENTATION_CONTEXT() REPRESENTATION_CONTEXT('2D SPACE',''
  ) );
#652 = ORIENTED_EDGE('',*,*,#653,.F.);
#653 = EDGE_CURVE('',#577,#630,#654,.T.);
#654 = SURFACE_CURVE('',#655,(#660,#701),.PCURVE_S1.);
#655 = CIRCLE('',#656,6.614378277661);
#656 = AXIS2_PLACEMENT_3D('',#657,#658,#659);
#657 = CARTESIAN_POINT('',(0.,20.,0.));
#658 = DIRECTION('',(1.,0.,0.));
#659 = DIRECTION('',(-0.,0.,1.));
#660 = PCURVE('',#469,#661);
#661 = DEFINITIONAL_REPRESENTATION('',(#662),#700);
#662 = B_SPLINE_CURVE_WITH_KNOTS('',8,(#663,#664,#665,#666,#667,#668,
    #669,#670,#671,#672,#673,#674,#675,#676,#677,#678,#679,#680,#681,
    #682,#683,#684,#685,#686,#687,#688,#689,#690,#691,#692,#693,#694,
    #695,#696,#697,#698,#699),.UNSPECIFIED.,.F.,.F.,(9,7,7,7,7,9),(0.,
    0.392699081699,1.079922474671,2.110757564131,2.62617510886,
    3.14159265359),.UNSPECIFIED.);
#663 = CARTESIAN_POINT('',(6.28318530718,0.722734247813));
#664 = CARTESIAN_POINT('',(6.239894302585,0.722734247813));
#665 = CARTESIAN_POINT('',(6.196603377536,0.720305623129));
#666 = CARTESIAN_POINT('',(6.153718205652,0.715448413509));
#667 = CARTESIAN_POINT('',(6.111646567555,0.708204084755));
#668 = CARTESIAN_POINT('',(6.070754124425,0.698656222963));
#669 = CARTESIAN_POINT('',(6.031334627858,0.686920690927));
#670 = CARTESIAN_POINT('',(5.993599770622,0.673132351122));
#671 = CARTESIAN_POINT('',(5.894858579475,0.629965899763));
#672 = CARTESIAN_POINT('',(5.837624079652,0.596651467311));
#673 = CARTESIAN_POINT('',(5.786762779344,0.558264643827));
#674 = CARTESIAN_POINT('',(5.742388762554,0.515669150661));
#675 = CARTESIAN_POINT('',(5.70413850633,0.469643095352));
#676 = CARTESIAN_POINT('',(5.671610611862,0.420840975222));
#677 = CARTESIAN_POINT('',(5.644391511588,0.369825950628));
#678 = CARTESIAN_POINT('',(5.58876236272,0.237977328214));
#679 = CARTESIAN_POINT('',(5.566561209382,0.15498815473));
#680 = CARTESIAN_POINT('',(5.554378494971,6.977033213832E-02));
#681 = CARTESIAN_POINT('',(5.551379892752,-1.6400268403E-02));
#682 = CARTESIAN_POINT('',(5.557420240528,-0.102409272143));
#683 = CARTESIAN_POINT('',(5.572770629567,-0.187130752004));
#684 = CARTESIAN_POINT('',(5.598412602277,-0.269230981132));
#685 = CARTESIAN_POINT('',(5.654151405826,-0.38583482625));
#686 = CARTESIAN_POINT('',(5.675610207374,-0.423611720867));
#687 = CARTESIAN_POINT('',(5.70010190511,-0.460079927071));
#688 = CARTESIAN_POINT('',(5.727793048211,-0.494996420203));
#689 = CARTESIAN_POINT('',(5.758853491309,-0.528088516454));
#690 = CARTESIAN_POINT('',(5.793421996882,-0.559048979769));
#691 = CARTESIAN_POINT('',(5.831550601355,-0.587541275749));
#692 = CARTESIAN_POINT('',(5.914712115335,-0.638910211364));
#693 = CARTESIAN_POINT('',(5.959745078865,-0.661786872801));
#694 = CARTESIAN_POINT('',(6.008123738456,-0.681515929627));
#695 = CARTESIAN_POINT('',(6.05958187662,-0.697755240145));
#696 = CARTESIAN_POINT('',(6.113645158907,-0.710183358307));
#697 = CARTESIAN_POINT('',(6.169546468156,-0.718550548429));
#698 = CARTESIAN_POINT('',(6.22636586365,-0.722734247813));
#699 = CARTESIAN_POINT('',(6.28318530718,-0.722734247813));
#700 = ( GEOMETRIC_REPRESENTATION_CONTEXT(2) 
PARAMETRIC_REPRESENTATION_CONTEXT() REPRESENTATION_CONTEXT('2D SPACE',''
  ) );
#701 = PCURVE('',#234,#702);
#702 = DEFINITIONAL_REPRESENTATION('',(#703),#741);
#703 = B_SPLINE_CURVE_WITH_KNOTS('',8,(#704,#705,#706,#707,#708,#709,
    #710,#711,#712,#713,#714,#715,#716,#717,#718,#719,#720,#721,#722,
    #723,#724,#725,#726,#727,#728,#729,#730,#731,#732,#733,#734,#735,
    #736,#737,#738,#739,#740),.UNSPECIFIED.,.F.,.F.,(9,7,7,7,7,9),(0.,
    0.392699081699,1.079922474671,2.110757564131,2.62617510886,
    3.14159265359),.UNSPECIFIED.);
#704 = CARTESIAN_POINT('',(3.14159265359,0.722734247813));
#705 = CARTESIAN_POINT('',(3.184883658184,0.722734247813));
#706 = CARTESIAN_POINT('',(3.228174583233,0.720305623129));
#707 = CARTESIAN_POINT('',(3.271059755118,0.715448413509));
#708 = CARTESIAN_POINT('',(3.313131393215,0.708204084755));
#709 = CARTESIAN_POINT('',(3.354023836344,0.698656222963));
#710 = CARTESIAN_POINT('',(3.393443332912,0.686920690927));
#711 = CARTESIAN_POINT('',(3.431178190147,0.673132351122));
#712 = CARTESIAN_POINT('',(3.529919381294,0.629965899763));
#713 = CARTESIAN_POINT('',(3.58715388112,0.596651467311));
#714 = CARTESIAN_POINT('',(3.638015181423,0.558264643827));
#715 = CARTESIAN_POINT('',(3.682389198213,0.515669150661));
#716 = CARTESIAN_POINT('',(3.720639454434,0.469643095352));
#717 = CARTESIAN_POINT('',(3.753167348906,0.420840975222));
#718 = CARTESIAN_POINT('',(3.780386449181,0.369825950628));
#719 = CARTESIAN_POINT('',(3.836015598049,0.237977328214));
#720 = CARTESIAN_POINT('',(3.858216751395,0.15498815473));
#721 = CARTESIAN_POINT('',(3.870399465775,6.977033213832E-02));
#722 = CARTESIAN_POINT('',(3.873398068044,-1.6400268403E-02));
#723 = CARTESIAN_POINT('',(3.867357720223,-0.102409272143));
#724 = CARTESIAN_POINT('',(3.852007331208,-0.187130752004));
#725 = CARTESIAN_POINT('',(3.826365358493,-0.269230981132));
#726 = CARTESIAN_POINT('',(3.770626554944,-0.38583482625));
#727 = CARTESIAN_POINT('',(3.749167753395,-0.423611720867));
#728 = CARTESIAN_POINT('',(3.724676055661,-0.460079927071));
#729 = CARTESIAN_POINT('',(3.696984912559,-0.494996420203));
#730 = CARTESIAN_POINT('',(3.665924469459,-0.528088516454));
#731 = CARTESIAN_POINT('',(3.631355963888,-0.559048979769));
#732 = CARTESIAN_POINT('',(3.593227359414,-0.587541275749));
#733 = CARTESIAN_POINT('',(3.510065845434,-0.638910211364));
#734 = CARTESIAN_POINT('',(3.465032881903,-0.661786872801));
#735 = CARTESIAN_POINT('',(3.416654222316,-0.681515929627));
#736 = CARTESIAN_POINT('',(3.365196084138,-0.697755240145));
#737 = CARTESIAN_POINT('',(3.311132801866,-0.710183358307));
#738 = CARTESIAN_POINT('',(3.255231492612,-0.718550548429));
#739 = CARTESIAN_POINT('',(3.19841209712,-0.722734247813));
#740 = CARTESIAN_POINT('',(3.14159265359,-0.722734247813));
#741 = ( GEOMETRIC_REPRESENTATION_CONTEXT(2) 
PARAMETRIC_REPRESENTATION_CONTEXT() REPRESENTATION_CONTEXT('2D SPACE',''
  ) );
#742 = ORIENTED_EDGE('',*,*,#576,.F.);
#743 = ORIENTED_EDGE('',*,*,#315,.F.);
#744 = ORIENTED_EDGE('',*,*,#745,.F.);
#745 = EDGE_CURVE('',#746,#81,#748,.T.);
#746 = VERTEX_POINT('',#747);
#747 = CARTESIAN_POINT('',(-8.881784197001E-16,20.,6.614378277661));
#748 = SURFACE_CURVE('',#749,(#754,#795),.PCURVE_S1.);
#749 = CIRCLE('',#750,6.614378277661);
#750 = AXIS2_PLACEMENT_3D('',#751,#752,#753);
#751 = CARTESIAN_POINT('',(0.,20.,0.));
#752 = DIRECTION('',(1.,0.,0.));
#753 = DIRECTION('',(-0.,0.,1.));
#754 = PCURVE('',#469,#755);
#755 = DEFINITIONAL_REPRESENTATION('',(#756),#794);
#756 = B_SPLINE_CURVE_WITH_KNOTS('',8,(#757,#758,#759,#760,#761,#762,
    #763,#764,#765,#766,#767,#768,#769,#770,#771,#772,#773,#774,#775,
    #776,#777,#778,#779,#780,#781,#782,#783,#784,#785,#786,#787,#788,
    #789,#790,#791,#792,#793),.UNSPECIFIED.,.F.,.F.,(9,7,7,7,7,9),(0.,
    0.392699081699,1.079922474671,2.110757564131,2.62617510886,
    3.14159265359),.UNSPECIFIED.);
#757 = CARTESIAN_POINT('',(6.28318530718,0.722734247813));
#758 = CARTESIAN_POINT('',(6.239894302585,0.722734247813));
#759 = CARTESIAN_POINT('',(6.196603377536,0.720305623129));
#760 = CARTESIAN_POINT('',(6.153718205652,0.715448413509));
#761 = CARTESIAN_POINT('',(6.111646567555,0.708204084755));
#762 = CARTESIAN_POINT('',(6.070754124425,0.698656222963));
#763 = CARTESIAN_POINT('',(6.031334627858,0.686920690927));
#764 = CARTESIAN_POINT('',(5.993599770622,0.673132351122));
#765 = CARTESIAN_POINT('',(5.894858579475,0.629965899763));
#766 = CARTESIAN_POINT('',(5.837624079652,0.596651467311));
#767 = CARTESIAN_POINT('',(5.786762779344,0.558264643827));
#768 = CARTESIAN_POINT('',(5.742388762554,0.515669150661));
#769 = CARTESIAN_POINT('',(5.70413850633,0.469643095352));
#770 = CARTESIAN_POINT('',(5.671610611862,0.420840975222));
#771 = CARTESIAN_POINT('',(5.644391511588,0.369825950628));
#772 = CARTESIAN_POINT('',(5.58876236272,0.237977328214));
#773 = CARTESIAN_POINT('',(5.566561209382,0.15498815473));
#774 = CARTESIAN_POINT('',(5.554378494971,6.977033213832E-02));
#775 = CARTESIAN_POINT('',(5.551379892752,-1.6400268403E-02));
#776 = CARTESIAN_POINT('',(5.557420240528,-0.102409272143));
#777 = CARTESIAN_POINT('',(5.572770629567,-0.187130752004));
#778 = CARTESIAN_POINT('',(5.598412602277,-0.269230981132));
#779 = CARTESIAN_POINT('',(5.654151405826,-0.38583482625));
#780 = CARTESIAN_POINT('',(5.675610207374,-0.423611720867));
#781 = CARTESIAN_POINT('',(5.70010190511,-0.460079927071));
#782 = CARTESIAN_POINT('',(5.727793048211,-0.494996420203));
#783 = CARTESIAN_POINT('',(5.758853491309,-0.528088516454));
#784 = CARTESIAN_POINT('',(5.793421996882,-0.559048979769));
#785 = CARTESIAN_POINT('',(5.831550601355,-0.587541275749));
#786 = CARTESIAN_POINT('',(5.914712115335,-0.638910211364));
#787 = CARTESIAN_POINT('',(5.959745078865,-0.661786872801));
#788 = CARTESIAN_POINT('',(6.008123738456,-0.681515929627));
#789 = CARTESIAN_POINT('',(6.05958187662,-0.697755240145));
#790 = CARTESIAN_POINT('',(6.113645158907,-0.710183358307));
#791 = CARTESIAN_POINT('',(6.169546468156,-0.718550548429));
#792 = CARTESIAN_POINT('',(6.22636586365,-0.722734247813));
#793 = CARTESIAN_POINT('',(6.28318530718,-0.722734247813));
#794 = ( GEOMETRIC_REPRESENTATION_CONTEXT(2) 
PARAMETRIC_REPRESENTATION_CONTEXT() REPRESENTATION_CONTEXT('2D SPACE',''
  ) );
#795 = PCURVE('',#234,#796);
#796 = DEFINITIONAL_REPRESENTATION('',(#797),#835);
#797 = B_SPLINE_CURVE_WITH_KNOTS('',8,(#798,#799,#800,#801,#802,#803,
    #804,#805,#806,#807,#808,#809,#810,#811,#812,#813,#814,#815,#816,
    #817,#818,#819,#820,#821,#822,#823,#824,#825,#826,#827,#828,#829,
    #830,#831,#832,#833,#834),.UNSPECIFIED.,.F.,.F.,(9,7,7,7,7,9),(0.,
    0.392699081699,1.079922474671,2.110757564131,2.62617510886,
    3.14159265359),.UNSPECIFIED.);
#798 = CARTESIAN_POINT('',(3.14159265359,0.722734247813));
#799 = CARTESIAN_POINT('',(3.184883658184,0.722734247813));
#800 = CARTESIAN_POINT('',(3.228174583233,0.720305623129));
#801 = CARTESIAN_POINT('',(3.271059755118,0.715448413509));
#802 = CARTESIAN_POINT('',(3.313131393215,0.708204084755));
#803 = CARTESIAN_POINT('',(3.354023836344,0.698656222963));
#804 = CARTESIAN_POINT('',(3.393443332912,0.686920690927));
#805 = CARTESIAN_POINT('',(3.431178190147,0.673132351122));
#806 = CARTESIAN_POINT('',(3.529919381294,0.629965899763));
#807 = CARTESIAN_POINT('',(3.58715388112,0.596651467311));
#808 = CARTESIAN_POINT('',(3.638015181423,0.558264643827));
#809 = CARTESIAN_POINT('',(3.682389198213,0.515669150661));
#810 = CARTESIAN_POINT('',(3.720639454434,0.469643095352));
#811 = CARTESIAN_POINT('',(3.753167348906,0.420840975222));
#812 = CARTESIAN_POINT('',(3.780386449181,0.369825950628));
#813 = CARTESIAN_POINT('',(3.836015598049,0.237977328214));
#814 = CARTESIAN_POINT('',(3.858216751395,0.15498815473));
#815 = CARTESIAN_POINT('',(3.870399465775,6.977033213832E-02));
#816 = CARTESIAN_POINT('',(3.873398068044,-1.6400268403E-02));
#817 = CARTESIAN_POINT('',(3.867357720223,-0.102409272143));
#818 = CARTESIAN_POINT('',(3.852007331208,-0.187130752004));
#819 = CARTESIAN_POINT('',(3.826365358493,-0.269230981132));
#820 = CARTESIAN_POINT('',(3.770626554944,-0.38583482625));
#821 = CARTESIAN_POINT('',(3.749167753395,-0.423611720867));
#822 = CARTESIAN_POINT('',(3.724676055661,-0.460079927071));
#823 = CARTESIAN_POINT('',(3.696984912559,-0.494996420203));
#824 = CARTESIAN_POINT('',(3.665924469459,-0.528088516454));
#825 = CARTESIAN_POINT('',(3.631355963888,-0.559048979769));
#826 = CARTESIAN_POINT('',(3.593227359414,-0.587541275749));
#827 = CARTESIAN_POINT('',(3.510065845434,-0.638910211364));
#828 = CARTESIAN_POINT('',(3.465032881903,-0.661786872801));
#829 = CARTESIAN_POINT('',(3.416654222316,-0.681515929627));
#830 = CARTESIAN_POINT('',(3.365196084138,-0.697755240145));
#831 = CARTESIAN_POINT('',(3.311132801866,-0.710183358307));
#832 = CARTESIAN_POINT('',(3.255231492612,-0.718550548429));
#833 = CARTESIAN_POINT('',(3.19841209712,-0.722734247813));
#834 = CARTESIAN_POINT('',(3.14159265359,-0.722734247813));
#835 = ( GEOMETRIC_REPRESENTATION_CONTEXT(2) 
PARAMETRIC_REPRESENTATION_CONTEXT() REPRESENTATION_CONTEXT('2D SPACE',''
  ) );
#836 = ORIENTED_EDGE('',*,*,#837,.T.);
#837 = EDGE_CURVE('',#746,#838,#840,.T.);
#838 = VERTEX_POINT('',#839);
#839 = CARTESIAN_POINT('',(-7.5,20.,10.));
#840 = SEAM_CURVE('',#841,(#846,#853),.PCURVE_S1.);
#841 = CIRCLE('',#842,10.);
#842 = AXIS2_PLACEMENT_3D('',#843,#844,#845);
#843 = CARTESIAN_POINT('',(-7.5,20.,0.));
#844 = DIRECTION('',(-2.449293598295E-16,-1.,0.));
#845 = DIRECTION('',(1.,-2.449293598295E-16,0.));
#846 = PCURVE('',#469,#847);
#847 = DEFINITIONAL_REPRESENTATION('',(#848),#852);
#848 = LINE('',#849,#850);
#849 = CARTESIAN_POINT('',(0.,-6.28318530718));
#850 = VECTOR('',#851,1.);
#851 = DIRECTION('',(0.,1.));
#852 = ( GEOMETRIC_REPRESENTATION_CONTEXT(2) 
PARAMETRIC_REPRESENTATION_CONTEXT() REPRESENTATION_CONTEXT('2D SPACE',''
  ) );
#853 = PCURVE('',#469,#854);
#854 = DEFINITIONAL_REPRESENTATION('',(#855),#859);
#855 = LINE('',#856,#857);
#856 = CARTESIAN_POINT('',(6.28318530718,-6.28318530718));
#857 = VECTOR('',#858,1.);
#858 = DIRECTION('',(0.,1.));
#859 = ( GEOMETRIC_REPRESENTATION_CONTEXT(2) 
PARAMETRIC_REPRESENTATION_CONTEXT() REPRESENTATION_CONTEXT('2D SPACE',''
  ) );
#860 = ORIENTED_EDGE('',*,*,#837,.F.);
#861 = ORIENTED_EDGE('',*,*,#862,.F.);
#862 = EDGE_CURVE('',#630,#746,#863,.T.);
#863 = SURFACE_CURVE('',#864,(#869,#910),.PCURVE_S1.);
#864 = CIRCLE('',#865,6.614378277661);
#865 = AXIS2_PLACEMENT_3D('',#866,#867,#868);
#866 = CARTESIAN_POINT('',(0.,20.,0.));
#867 = DIRECTION('',(1.,0.,0.));
#868 = DIRECTION('',(-0.,0.,1.));
#869 = PCURVE('',#469,#870);
#870 = DEFINITIONAL_REPRESENTATION('',(#871),#909);
#871 = B_SPLINE_CURVE_WITH_KNOTS('',8,(#872,#873,#874,#875,#876,#877,
    #878,#879,#880,#881,#882,#883,#884,#885,#886,#887,#888,#889,#890,
    #891,#892,#893,#894,#895,#896,#897,#898,#899,#900,#901,#902,#903,
    #904,#905,#906,#907,#908),.UNSPECIFIED.,.F.,.F.,(9,7,7,7,7,9),(
    3.14159265359,3.534291735289,4.221515128261,5.25235021772,
    5.76776776245,6.28318530718),.UNSPECIFIED.);
#872 = CARTESIAN_POINT('',(-8.881784197001E-16,-0.722734247813));
#873 = CARTESIAN_POINT('',(4.329100459409E-02,-0.722734247813));
#874 = CARTESIAN_POINT('',(8.658192964311E-02,-0.720305623129));
#875 = CARTESIAN_POINT('',(0.129467101527,-0.71544841351));
#876 = CARTESIAN_POINT('',(0.171538739625,-0.708204084755));
#877 = CARTESIAN_POINT('',(0.212431182754,-0.698656222963));
#878 = CARTESIAN_POINT('',(0.251850679322,-0.686920690927));
#879 = CARTESIAN_POINT('',(0.289585536558,-0.673132351122));
#880 = CARTESIAN_POINT('',(0.388326727704,-0.629965899763));
#881 = CARTESIAN_POINT('',(0.445561227528,-0.596651467312));
#882 = CARTESIAN_POINT('',(0.496422527836,-0.558264643828));
#883 = CARTESIAN_POINT('',(0.540796544625,-0.515669150662));
#884 = CARTESIAN_POINT('',(0.57904680085,-0.469643095352));
#885 = CARTESIAN_POINT('',(0.611574695318,-0.420840975221));
#886 = CARTESIAN_POINT('',(0.638793795591,-0.369825950628));
#887 = CARTESIAN_POINT('',(0.694422944459,-0.237977328214));
#888 = CARTESIAN_POINT('',(0.716624097798,-0.15498815473));
#889 = CARTESIAN_POINT('',(0.728806812207,-6.977033213832E-02));
#890 = CARTESIAN_POINT('',(0.73180541443,1.640026840312E-02));
#891 = CARTESIAN_POINT('',(0.72576506665,0.102409272143));
#892 = CARTESIAN_POINT('',(0.710414677613,0.187130752004));
#893 = CARTESIAN_POINT('',(0.684772704903,0.269230981132));
#894 = CARTESIAN_POINT('',(0.629033901354,0.38583482625));
#895 = CARTESIAN_POINT('',(0.607575099806,0.423611720867));
#896 = CARTESIAN_POINT('',(0.583083402069,0.460079927071));
#897 = CARTESIAN_POINT('',(0.555392258969,0.494996420203));
#898 = CARTESIAN_POINT('',(0.52433181587,0.528088516455));
#899 = CARTESIAN_POINT('',(0.489763310297,0.559048979769));
#900 = CARTESIAN_POINT('',(0.451634705825,0.587541275749));
#901 = CARTESIAN_POINT('',(0.368473191845,0.638910211364));
#902 = CARTESIAN_POINT('',(0.323440228314,0.661786872801));
#903 = CARTESIAN_POINT('',(0.275061568724,0.681515929628));
#904 = CARTESIAN_POINT('',(0.22360343056,0.69775524014));
#905 = CARTESIAN_POINT('',(0.169540148272,0.710183358309));
#906 = CARTESIAN_POINT('',(0.113638839024,0.718550548428));
#907 = CARTESIAN_POINT('',(5.681944352975E-02,0.722734247813));
#908 = CARTESIAN_POINT('',(0.,0.722734247813));
#909 = ( GEOMETRIC_REPRESENTATION_CONTEXT(2) 
PARAMETRIC_REPRESENTATION_CONTEXT() REPRESENTATION_CONTEXT('2D SPACE',''
  ) );
#910 = PCURVE('',#234,#911);
#911 = DEFINITIONAL_REPRESENTATION('',(#912),#950);
#912 = B_SPLINE_CURVE_WITH_KNOTS('',8,(#913,#914,#915,#916,#917,#918,
    #919,#920,#921,#922,#923,#924,#925,#926,#927,#928,#929,#930,#931,
    #932,#933,#934,#935,#936,#937,#938,#939,#940,#941,#942,#943,#944,
    #945,#946,#947,#948,#949),.UNSPECIFIED.,.F.,.F.,(9,7,7,7,7,9),(
    3.14159265359,3.534291735289,4.221515128261,5.25235021772,
    5.76776776245,6.28318530718),.UNSPECIFIED.);
#913 = CARTESIAN_POINT('',(3.14159265359,-0.722734247813));
#914 = CARTESIAN_POINT('',(3.098301648996,-0.722734247813));
#915 = CARTESIAN_POINT('',(3.055010723946,-0.720305623129));
#916 = CARTESIAN_POINT('',(3.012125552062,-0.71544841351));
#917 = CARTESIAN_POINT('',(2.970053913965,-0.708204084755));
#918 = CARTESIAN_POINT('',(2.929161470835,-0.698656222963));
#919 = CARTESIAN_POINT('',(2.889741974268,-0.686920690927));
#920 = CARTESIAN_POINT('',(2.852007117032,-0.673132351122));
#921 = CARTESIAN_POINT('',(2.753265925885,-0.629965899763));
#922 = CARTESIAN_POINT('',(2.69603142606,-0.596651467312));
#923 = CARTESIAN_POINT('',(2.645170125744,-0.558264643828));
#924 = CARTESIAN_POINT('',(2.600796108974,-0.515669150662));
#925 = CARTESIAN_POINT('',(2.562545852734,-0.469643095352));
#926 = CARTESIAN_POINT('',(2.53001795827,-0.420840975221));
#927 = CARTESIAN_POINT('',(2.502798857998,-0.369825950628));
#928 = CARTESIAN_POINT('',(2.447169709131,-0.237977328214));
#929 = CARTESIAN_POINT('',(2.42496855579,-0.15498815473));
#930 = CARTESIAN_POINT('',(2.412785841383,-6.977033213832E-02));
#931 = CARTESIAN_POINT('',(2.40978723915,1.640026840312E-02));
#932 = CARTESIAN_POINT('',(2.415827586941,0.102409272143));
#933 = CARTESIAN_POINT('',(2.431177975975,0.187130752004));
#934 = CARTESIAN_POINT('',(2.456819948687,0.269230981132));
#935 = CARTESIAN_POINT('',(2.512558752236,0.38583482625));
#936 = CARTESIAN_POINT('',(2.534017553784,0.423611720867));
#937 = CARTESIAN_POINT('',(2.55850925152,0.460079927071));
#938 = CARTESIAN_POINT('',(2.586200394621,0.494996420203));
#939 = CARTESIAN_POINT('',(2.61726083772,0.528088516455));
#940 = CARTESIAN_POINT('',(2.651829343293,0.559048979769));
#941 = CARTESIAN_POINT('',(2.689957947765,0.587541275749));
#942 = CARTESIAN_POINT('',(2.773119461745,0.638910211364));
#943 = CARTESIAN_POINT('',(2.818152425274,0.661786872801));
#944 = CARTESIAN_POINT('',(2.86653108487,0.681515929628));
#945 = CARTESIAN_POINT('',(2.917989223013,0.69775524014));
#946 = CARTESIAN_POINT('',(2.972052505316,0.710183358309));
#947 = CARTESIAN_POINT('',(3.027953814563,0.718550548428));
#948 = CARTESIAN_POINT('',(3.08477321006,0.722734247813));
#949 = CARTESIAN_POINT('',(3.14159265359,0.722734247813));
#950 = ( GEOMETRIC_REPRESENTATION_CONTEXT(2) 
PARAMETRIC_REPRESENTATION_CONTEXT() REPRESENTATION_CONTEXT('2D SPACE',''
  ) );
#951 = ORIENTED_EDGE('',*,*,#627,.F.);
#952 = ADVANCED_FACE('',(#953,#957),#234,.T.);
#953 = FACE_BOUND('',#954,.T.);
#954 = VERTEX_LOOP('',#955);
#955 = VERTEX_POINT('',#956);
#956 = CARTESIAN_POINT('',(7.5,20.,10.));
#957 = FACE_BOUND('',#958,.T.);
#958 = EDGE_LOOP('',(#959,#960,#961,#962,#963));
#959 = ORIENTED_EDGE('',*,*,#80,.F.);
#960 = ORIENTED_EDGE('',*,*,#602,.F.);
#961 = ORIENTED_EDGE('',*,*,#653,.T.);
#962 = ORIENTED_EDGE('',*,*,#862,.T.);
#963 = ORIENTED_EDGE('',*,*,#745,.T.);
#964 = ( GEOMETRIC_REPRESENTATION_CONTEXT(3) 
GLOBAL_UNCERTAINTY_ASSIGNED_CONTEXT((#968)) GLOBAL_UNIT_ASSIGNED_CONTEXT
((#965,#966,#967)) REPRESENTATION_CONTEXT('Context #1',
  '3D Context with UNIT and UNCERTAINTY') );
#965 = ( LENGTH_UNIT() NAMED_UNIT(*) SI_UNIT(.MILLI.,.METRE.) );
#966 = ( NAMED_UNIT(*) PLANE_ANGLE_UNIT() SI_UNIT($,.RADIAN.) );
#967 = ( NAMED_UNIT(*) SI_UNIT($,.STERADIAN.) SOLID_ANGLE_UNIT() );
#968 = UNCERTAINTY_MEASURE_WITH_UNIT(LENGTH_MEASURE(1.E-07),#965,
  'distance_accuracy_value','confusion accuracy');
#969 = PRODUCT_RELATED_PRODUCT_CATEGORY('part',$,(#7));
ENDSEC;
END-ISO-10303-21;
