ISO-10303-21;
HEADER;
FILE_DESCRIPTION(('Open CASCADE Model'),'2;1');
FILE_NAME('Open CASCADE Shape Model','2026-03-24T19:05:09',('Author'),(
    'Open CASCADE'),'Open CASCADE STEP processor 7.7','Open CASCADE 7.7'
  ,'Unknown');
FILE_SCHEMA(('AUTOMOTIVE_DESIGN { 1 0 10303 214 1 1 1 1 }'));
ENDSEC;
DATA;
#1 = APPLICATION_PROTOCOL_DEFINITION('international standard',
  'automotive_design',2000,#2);
#2 = APPLICATION_CONTEXT(
  'core data for automotive mechanical design processes');
#3 = SHAPE_DEFINITION_REPRESENTATION(#4,#10);
#4 = PRODUCT_DEFINITION_SHAPE('','',#5);
#5 = PRODUCT_DEFINITION('design','',#6,#9);
#6 = PRODUCT_DEFINITION_FORMATION('','',#7);
#7 = PRODUCT('Open CASCADE STEP translator 7.7 1',
  'Open CASCADE STEP translator 7.7 1','',(#8));
#8 = PRODUCT_CONTEXT('',#2,'mechanical');
#9 = PRODUCT_DEFINITION_CONTEXT('part definition',#2,'design');
#10 = ADVANCED_BREP_SHAPE_REPRESENTATION('',(#11,#15),#747);
#11 = AXIS2_PLACEMENT_3D('',#12,#13,#14);
#12 = CARTESIAN_POINT('',(0.,0.,0.));
#13 = DIRECTION('',(0.,0.,1.));
#14 = DIRECTION('',(1.,0.,-0.));
#15 = MANIFOLD_SOLID_BREP('',#16);
#16 = CLOSED_SHELL('',(#17,#628,#735,#739,#743));
#17 = ADVANCED_FACE('',(#18),#122,.T.);
#18 = FACE_BOUND('',#19,.T.);
#19 = EDGE_LOOP('',(#20,#325,#348,#375,#376));
#20 = ORIENTED_EDGE('',*,*,#21,.F.);
#21 = EDGE_CURVE('',#22,#24,#26,.T.);
#22 = VERTEX_POINT('',#23);
#23 = CARTESIAN_POINT('',(32.419892333647,-4.582615137084E-15,
    163.65117547821));
#24 = VERTEX_POINT('',#25);
#25 = CARTESIAN_POINT('',(32.799696923857,-8.033608770161E-15,
    149.12923526427));
#26 = SURFACE_CURVE('',#27,(#121,#223),.PCURVE_S1.);
#27 = B_SPLINE_CURVE_WITH_KNOTS('',8,(#28,#29,#30,#31,#32,#33,#34,#35,
    #36,#37,#38,#39,#40,#41,#42,#43,#44,#45,#46,#47,#48,#49,#50,#51,#52,
    #53,#54,#55,#56,#57,#58,#59,#60,#61,#62,#63,#64,#65,#66,#67,#68,#69,
    #70,#71,#72,#73,#74,#75,#76,#77,#78,#79,#80,#81,#82,#83,#84,#85,#86,
    #87,#88,#89,#90,#91,#92,#93,#94,#95,#96,#97,#98,#99,#100,#101,#102,
    #103,#104,#105,#106,#107,#108,#109,#110,#111,#112,#113,#114,#115,
    #116,#117,#118,#119,#120),.UNSPECIFIED.,.F.,.F.,(9,7,7,7,7,7,7,7,7,7
    ,7,7,7,9),(0.,5.06174085151E-02,8.772557209593E-02,0.149838184056,
    0.216986854766,0.285987204743,0.40945556469,0.543284724735,
    0.683428919424,0.810716779014,0.863137929004,0.94731051016,
    0.967880656588,1.),.UNSPECIFIED.);
#28 = CARTESIAN_POINT('',(32.419892333647,-1.224646799147E-15,
    163.65117547821));
#29 = CARTESIAN_POINT('',(32.419892333647,0.169117914483,163.65117547821
    ));
#30 = CARTESIAN_POINT('',(32.41910535282,0.338284252139,163.64271689443)
  );
#31 = CARTESIAN_POINT('',(32.417530432832,0.506172707736,163.6257930606)
  );
#32 = CARTESIAN_POINT('',(32.415203391353,0.671703522354,163.60069464909
    ));
#33 = CARTESIAN_POINT('',(32.412185718049,0.834005424661,163.56791054769
    ));
#34 = CARTESIAN_POINT('',(32.40855492452,0.992385175882,163.52805102972)
  );
#35 = CARTESIAN_POINT('',(32.404396348189,1.146304718456,163.4817932174)
  );
#36 = CARTESIAN_POINT('',(32.396424146345,1.404644295738,163.39176785885
    ));
#37 = CARTESIAN_POINT('',(32.392812557082,1.511380332865,163.35060639531
    ));
#38 = CARTESIAN_POINT('',(32.388992946352,1.615485404112,163.30661180845
    ));
#39 = CARTESIAN_POINT('',(32.384995856777,1.716912472808,163.26002519935
    ));
#40 = CARTESIAN_POINT('',(32.380850085097,1.815648788526,163.21107455928
    ));
#41 = CARTESIAN_POINT('',(32.376582006511,1.911710003778,163.15996934737
    ));
#42 = CARTESIAN_POINT('',(32.372215207856,2.005135720145,163.10689649608
    ));
#43 = CARTESIAN_POINT('',(32.360330643893,2.248054807996,162.96016052672
    ));
#44 = CARTESIAN_POINT('',(32.352675688331,2.392841356058,162.86328488809
    ));
#45 = CARTESIAN_POINT('',(32.344901048166,2.530680962522,162.76213131357
    ));
#46 = CARTESIAN_POINT('',(32.337086954914,2.661897532426,162.65733188854
    ));
#47 = CARTESIAN_POINT('',(32.329299319123,2.786816432856,162.54941829693
    ));
#48 = CARTESIAN_POINT('',(32.321590991033,2.905770257187,162.43882585584
    ));
#49 = CARTESIAN_POINT('',(32.314003349139,3.019097942066,162.32589368647
    ));
#50 = CARTESIAN_POINT('',(32.298530247488,3.243936302909,162.08650156733
    ));
#51 = CARTESIAN_POINT('',(32.290674006572,3.354504536974,161.95974126076
    ));
#52 = CARTESIAN_POINT('',(32.28304177424,3.459243644524,161.83092311945)
  );
#53 = CARTESIAN_POINT('',(32.275667359968,3.558496425514,161.70033631163
    ));
#54 = CARTESIAN_POINT('',(32.26857750625,3.652566318917,161.56822306837)
  );
#55 = CARTESIAN_POINT('',(32.261793136482,3.741730177945,161.4347832421)
  );
#56 = CARTESIAN_POINT('',(32.255330446897,3.826244276239,161.30017651157
    ));
#57 = CARTESIAN_POINT('',(32.242904236922,3.988651616342,161.02512717763
    ));
#58 = CARTESIAN_POINT('',(32.236960300063,4.066286519172,160.88464596928
    ));
#59 = CARTESIAN_POINT('',(32.231383926549,4.139498237874,160.74322209053
    ));
#60 = CARTESIAN_POINT('',(32.226185753409,4.208503711809,160.60097989076
    ));
#61 = CARTESIAN_POINT('',(32.221373711317,4.273495100308,160.45802646808
    ));
#62 = CARTESIAN_POINT('',(32.216953518383,4.334645578345,160.31445300526
    ));
#63 = CARTESIAN_POINT('',(32.212929116526,4.392112662905,160.17033555963
    ));
#64 = CARTESIAN_POINT('',(32.2028146133,4.542534305909,159.76698943097)
  );
#65 = CARTESIAN_POINT('',(32.197602523762,4.627679973647,159.50673375724
    ));
#66 = CARTESIAN_POINT('',(32.193680728901,4.702297582618,159.24531953133
    ));
#67 = CARTESIAN_POINT('',(32.191051380509,4.767036089641,158.98304027858
    ));
#68 = CARTESIAN_POINT('',(32.189707812616,4.822424846071,158.7201388229)
  );
#69 = CARTESIAN_POINT('',(32.189637130403,4.868907677564,158.4568119166)
  );
#70 = CARTESIAN_POINT('',(32.190822410509,4.906858096513,158.19321248151
    ));
#71 = CARTESIAN_POINT('',(32.195869864711,4.96878693468,157.64355286873)
  );
#72 = CARTESIAN_POINT('',(32.199947987326,4.991322117106,157.35750152783
    ));
#73 = CARTESIAN_POINT('',(32.205453685019,5.004566880607,157.0714552444)
  );
#74 = CARTESIAN_POINT('',(32.212357802542,5.0088117486,156.78556167269)
  );
#75 = CARTESIAN_POINT('',(32.220628047679,5.004270584705,156.49995693265
    ));
#76 = CARTESIAN_POINT('',(32.230229723761,4.991090144453,156.21476612904
    ));
#77 = CARTESIAN_POINT('',(32.241126371941,4.96935067576,155.93010377271)
  );
#78 = CARTESIAN_POINT('',(32.266007786533,4.907335011058,155.34864184636
    ));
#79 = CARTESIAN_POINT('',(32.280112703319,4.866235392872,155.0519337957)
  );
#80 = CARTESIAN_POINT('',(32.295551678096,4.815769656346,154.75606182083
    ));
#81 = CARTESIAN_POINT('',(32.312278494784,4.755857094196,154.4611611439)
  );
#82 = CARTESIAN_POINT('',(32.330243536365,4.686333680934,154.16738946424
    ));
#83 = CARTESIAN_POINT('',(32.349393035712,4.606939395455,153.87492835742
    ));
#84 = CARTESIAN_POINT('',(32.369668157614,4.517284534349,153.58398694937
    ));
#85 = CARTESIAN_POINT('',(32.410382399401,4.325524052263,153.03215705289
    ));
#86 = CARTESIAN_POINT('',(32.430629606117,4.225344683227,152.77104469377
    ));
#87 = CARTESIAN_POINT('',(32.451700404331,4.115809002327,152.51158835504
    ));
#88 = CARTESIAN_POINT('',(32.47354127227,3.996366873465,152.25400617308)
  );
#89 = CARTESIAN_POINT('',(32.496085648333,3.866309895793,151.99863047214
    ));
#90 = CARTESIAN_POINT('',(32.519251195975,3.724761376762,151.74590922253
    ));
#91 = CARTESIAN_POINT('',(32.542934855047,3.570570101783,151.49642804002
    ));
#92 = CARTESIAN_POINT('',(32.57691298056,3.332529080824,151.14990442947)
  );
#93 = CARTESIAN_POINT('',(32.586887903873,3.260657947184,151.04952334567
    ));
#94 = CARTESIAN_POINT('',(32.596916751959,3.186230587885,150.94989867358
    ));
#95 = CARTESIAN_POINT('',(32.606988050192,3.109112854553,150.85110288672
    ));
#96 = CARTESIAN_POINT('',(32.617088244597,3.029156995062,150.75322475247
    ));
#97 = CARTESIAN_POINT('',(32.627201400998,2.946197227081,150.65637075235
    ));
#98 = CARTESIAN_POINT('',(32.637308781314,2.860042040638,150.56066760523
    ));
#99 = CARTESIAN_POINT('',(32.663572963931,2.626626634448,150.3146851726)
  );
#100 = CARTESIAN_POINT('',(32.679641681149,2.474354037026,
    150.16687295518));
#101 = CARTESIAN_POINT('',(32.69555269281,2.312351801234,150.02296184951
    ));
#102 = CARTESIAN_POINT('',(32.711197919808,2.139319561816,
    149.88370491633));
#103 = CARTESIAN_POINT('',(32.726397709915,1.954005706332,
    149.75043545291));
#104 = CARTESIAN_POINT('',(32.740882473707,1.755081801431,
    149.62515989219));
#105 = CARTESIAN_POINT('',(32.754296993052,1.541263909394,
    149.51047723286));
#106 = CARTESIAN_POINT('',(32.76904965031,1.254239351352,149.38547075883
    ));
#107 = CARTESIAN_POINT('',(32.771851503505,1.196909517655,
    149.36178987896));
#108 = CARTESIAN_POINT('',(32.774550247168,1.138609384171,149.3390357499
    ));
#109 = CARTESIAN_POINT('',(32.777137413073,1.079337385616,
    149.31727207719));
#110 = CARTESIAN_POINT('',(32.77960396687,1.019100015621,149.29656698257
    ));
#111 = CARTESIAN_POINT('',(32.781940482668,0.957912993246,
    149.27699165543));
#112 = CARTESIAN_POINT('',(32.784137317635,0.895802429503,
    149.25861900432));
#113 = CARTESIAN_POINT('',(32.789381815764,0.734439939125,
    149.21482659921));
#114 = CARTESIAN_POINT('',(32.792216276298,0.633865532715,
    149.19122842579));
#115 = CARTESIAN_POINT('',(32.794648702233,0.531288998469,
    149.17102897998));
#116 = CARTESIAN_POINT('',(32.796641697277,0.426974408493,149.1545119071
    ));
#117 = CARTESIAN_POINT('',(32.798162432516,0.321249358946,
    149.14192613419));
#118 = CARTESIAN_POINT('',(32.79918561453,0.214512093442,149.13346408247
    ));
#119 = CARTESIAN_POINT('',(32.799696923857,0.107240074063,
    149.12923526427));
#120 = CARTESIAN_POINT('',(32.799696923857,3.061616997868E-16,
    149.12923526427));
#121 = PCURVE('',#122,#127);
#122 = CYLINDRICAL_SURFACE('',#123,5.);
#123 = AXIS2_PLACEMENT_3D('',#124,#125,#126);
#124 = CARTESIAN_POINT('',(42.142135623731,0.,146.85786437626));
#125 = DIRECTION('',(-0.707106781187,0.,0.707106781187));
#126 = DIRECTION('',(0.707106781187,0.,0.707106781187));
#127 = DEFINITIONAL_REPRESENTATION('',(#128),#222);
#128 = B_SPLINE_CURVE_WITH_KNOTS('',8,(#129,#130,#131,#132,#133,#134,
    #135,#136,#137,#138,#139,#140,#141,#142,#143,#144,#145,#146,#147,
    #148,#149,#150,#151,#152,#153,#154,#155,#156,#157,#158,#159,#160,
    #161,#162,#163,#164,#165,#166,#167,#168,#169,#170,#171,#172,#173,
    #174,#175,#176,#177,#178,#179,#180,#181,#182,#183,#184,#185,#186,
    #187,#188,#189,#190,#191,#192,#193,#194,#195,#196,#197,#198,#199,
    #200,#201,#202,#203,#204,#205,#206,#207,#208,#209,#210,#211,#212,
    #213,#214,#215,#216,#217,#218,#219,#220,#221),.UNSPECIFIED.,.F.,.F.,
  (9,7,7,7,7,7,7,7,7,7,7,7,7,9),(0.,5.06174085151E-02,8.772557209593E-02
    ,0.149838184056,0.216986854766,0.285987204743,0.40945556469,
    0.543284724735,0.683428919424,0.810716779014,0.863137929004,
    0.94731051016,0.967880656588,1.),.UNSPECIFIED.);
#129 = CARTESIAN_POINT('',(0.,18.749328317528));
#130 = CARTESIAN_POINT('',(3.382358289663E-02,18.749328317528));
#131 = CARTESIAN_POINT('',(6.765680279733E-02,18.743903675053));
#132 = CARTESIAN_POINT('',(0.101293582124,18.733050353993));
#133 = CARTESIAN_POINT('',(0.134576699942,18.716948563829));
#134 = CARTESIAN_POINT('',(0.167383592135,18.695900520672));
#135 = CARTESIAN_POINT('',(0.199616422045,18.670282943942));
#136 = CARTESIAN_POINT('',(0.231196421576,18.640514288692));
#137 = CARTESIAN_POINT('',(0.284690757019,18.582493945166));
#138 = CARTESIAN_POINT('',(0.306949534981,18.555942174431));
#139 = CARTESIAN_POINT('',(0.328829175924,18.527534176379));
#140 = CARTESIAN_POINT('',(0.350325847082,18.497418838311));
#141 = CARTESIAN_POINT('',(0.371440496058,18.465737012044));
#142 = CARTESIAN_POINT('',(0.39217814275,18.43261815746));
#143 = CARTESIAN_POINT('',(0.412547510798,18.398177777359));
#144 = CARTESIAN_POINT('',(0.466060096248,18.30282343415));
#145 = CARTESIAN_POINT('',(0.498547251209,18.239734884126));
#146 = CARTESIAN_POINT('',(0.530090901706,18.17370600643));
#147 = CARTESIAN_POINT('',(0.560750564741,18.105127020651));
#148 = CARTESIAN_POINT('',(0.590582112828,18.03432727832));
#149 = CARTESIAN_POINT('',(0.619641489573,17.961577224338));
#150 = CARTESIAN_POINT('',(0.647986864056,17.887087394603));
#151 = CARTESIAN_POINT('',(0.705616866274,17.728752738896));
#152 = CARTESIAN_POINT('',(0.734778443487,17.644674867759));
#153 = CARTESIAN_POINT('',(0.763233366564,17.558983489739));
#154 = CARTESIAN_POINT('',(0.791038710969,17.471859170738));
#155 = CARTESIAN_POINT('',(0.818243865046,17.383454284186));
#156 = CARTESIAN_POINT('',(0.84489380034,17.293895352018));
#157 = CARTESIAN_POINT('',(0.871030963904,17.203283831695));
#158 = CARTESIAN_POINT('',(0.923068349808,17.017581239844));
#159 = CARTESIAN_POINT('',(0.948938450432,16.922449022849));
#160 = CARTESIAN_POINT('',(0.974347834736,16.82639033069));
#161 = CARTESIAN_POINT('',(0.999332202975,16.729485570137));
#162 = CARTESIAN_POINT('',(1.023923035375,16.631804863167));
#163 = CARTESIAN_POINT('',(1.048148935881,16.533408642406));
#164 = CARTESIAN_POINT('',(1.072036499654,16.434347901156));
#165 = CARTESIAN_POINT('',(1.137794090166,16.15629115223));
#166 = CARTESIAN_POINT('',(1.178968417358,15.975948104356));
#167 = CARTESIAN_POINT('',(1.219276935016,15.793873460257));
#168 = CARTESIAN_POINT('',(1.258833957955,15.61027325215));
#169 = CARTESIAN_POINT('',(1.297735930139,15.425323896023));
#170 = CARTESIAN_POINT('',(1.336069216994,15.239173634777));
#171 = CARTESIAN_POINT('',(1.373914626552,15.051942567107));
#172 = CARTESIAN_POINT('',(1.451923954873,14.659705438477));
#173 = CARTESIAN_POINT('',(1.492010788691,14.454552927402));
#174 = CARTESIAN_POINT('',(1.531704224357,14.24839454448));
#175 = CARTESIAN_POINT('',(1.571088762213,14.041355312911));
#176 = CARTESIAN_POINT('',(1.610242699918,13.833554318068));
#177 = CARTESIAN_POINT('',(1.649241928487,13.625104556634));
#178 = CARTESIAN_POINT('',(1.688163163946,13.416112780304));
#179 = CARTESIAN_POINT('',(1.767846757164,12.987363292197));
#180 = CARTESIAN_POINT('',(1.808605316456,12.767585335235));
#181 = CARTESIAN_POINT('',(1.84945514535,12.547455251687));
#182 = CARTESIAN_POINT('',(1.890490153862,12.327101337745));
#183 = CARTESIAN_POINT('',(1.931807638505,12.106670188209));
#184 = CARTESIAN_POINT('',(1.973513605909,11.8863282155));
#185 = CARTESIAN_POINT('',(2.015731090675,11.666264896748));
#186 = CARTESIAN_POINT('',(2.097558149457,11.247272918432));
#187 = CARTESIAN_POINT('',(2.13703910527,11.048321661473));
#188 = CARTESIAN_POINT('',(2.17717774521,10.849959020633));
#189 = CARTESIAN_POINT('',(2.218104329796,10.652377087231));
#190 = CARTESIAN_POINT('',(2.259970460185,10.455857916159));
#191 = CARTESIAN_POINT('',(2.302953676973,10.260776490979));
#192 = CARTESIAN_POINT('',(2.347280182271,10.067619779111));
#193 = CARTESIAN_POINT('',(2.412243515858,9.79856442129));
#194 = CARTESIAN_POINT('',(2.431476707821,9.720530940317));
#195 = CARTESIAN_POINT('',(2.451016940263,9.642994192622));
#196 = CARTESIAN_POINT('',(2.470889719757,9.566013538503));
#197 = CARTESIAN_POINT('',(2.491122771424,9.489661330092));
#198 = CARTESIAN_POINT('',(2.511747060468,9.414024128345));
#199 = CARTESIAN_POINT('',(2.532798458846,9.339204786881));
#200 = CARTESIAN_POINT('',(2.588877262878,9.146697359083));
#201 = CARTESIAN_POINT('',(2.624552807583,9.030816038892));
#202 = CARTESIAN_POINT('',(2.661617558767,8.917804735941));
#203 = CARTESIAN_POINT('',(2.700318460157,8.808272368059));
#204 = CARTESIAN_POINT('',(2.740880732031,8.703288752097));
#205 = CARTESIAN_POINT('',(2.783547693823,8.604463278889));
#206 = CARTESIAN_POINT('',(2.828570029792,8.513884895199));
#207 = CARTESIAN_POINT('',(2.88805483423,8.415060265735));
#208 = CARTESIAN_POINT('',(2.899893873681,8.3963341456));
#209 = CARTESIAN_POINT('',(2.911892074799,8.378336246696));
#210 = CARTESIAN_POINT('',(2.924050405954,8.361117603584));
#211 = CARTESIAN_POINT('',(2.936368435269,8.344732773856));
#212 = CARTESIAN_POINT('',(2.948844147177,8.329238761127));
#213 = CARTESIAN_POINT('',(2.961473758973,8.314693938036));
#214 = CARTESIAN_POINT('',(2.994203454277,8.280019611227));
#215 = CARTESIAN_POINT('',(3.014526443203,8.261328916515));
#216 = CARTESIAN_POINT('',(3.035185799489,8.245325766529));
#217 = CARTESIAN_POINT('',(3.056137594564,8.232237171985));
#218 = CARTESIAN_POINT('',(3.077327739637,8.222262364412));
#219 = CARTESIAN_POINT('',(3.098690239836,8.215555291319));
#220 = CARTESIAN_POINT('',(3.120144638777,8.212203515001));
#221 = CARTESIAN_POINT('',(3.14159265359,8.212203515001));
#222 = ( GEOMETRIC_REPRESENTATION_CONTEXT(2) 
PARAMETRIC_REPRESENTATION_CONTEXT() REPRESENTATION_CONTEXT('2D SPACE',''
  ) );
#223 = PCURVE('',#224,#229);
#224 = CONICAL_SURFACE('',#225,35.,2.61478853168E-02);
#225 = AXIS2_PLACEMENT_3D('',#226,#227,#228);
#226 = CARTESIAN_POINT('',(0.,0.,65.));
#227 = DIRECTION('',(-0.,-0.,-1.));
#228 = DIRECTION('',(1.,0.,-0.));
#229 = DEFINITIONAL_REPRESENTATION('',(#230),#324);
#230 = B_SPLINE_CURVE_WITH_KNOTS('',8,(#231,#232,#233,#234,#235,#236,
    #237,#238,#239,#240,#241,#242,#243,#244,#245,#246,#247,#248,#249,
    #250,#251,#252,#253,#254,#255,#256,#257,#258,#259,#260,#261,#262,
    #263,#264,#265,#266,#267,#268,#269,#270,#271,#272,#273,#274,#275,
    #276,#277,#278,#279,#280,#281,#282,#283,#284,#285,#286,#287,#288,
    #289,#290,#291,#292,#293,#294,#295,#296,#297,#298,#299,#300,#301,
    #302,#303,#304,#305,#306,#307,#308,#309,#310,#311,#312,#313,#314,
    #315,#316,#317,#318,#319,#320,#321,#322,#323),.UNSPECIFIED.,.F.,.F.,
  (9,7,7,7,7,7,7,7,7,7,7,7,7,9),(0.,5.06174085151E-02,8.772557209593E-02
    ,0.149838184056,0.216986854766,0.285987204743,0.40945556469,
    0.543284724735,0.683428919424,0.810716779014,0.863137929004,
    0.94731051016,0.967880656588,1.),.UNSPECIFIED.);
#231 = CARTESIAN_POINT('',(0.,-98.65117547821));
#232 = CARTESIAN_POINT('',(-5.216486000098E-03,-98.65117547821));
#233 = CARTESIAN_POINT('',(-1.043446558705E-02,-98.64271689443));
#234 = CARTESIAN_POINT('',(-1.56131026043E-02,-98.6257930606));
#235 = CARTESIAN_POINT('',(-2.071916559861E-02,-98.60069464909));
#236 = CARTESIAN_POINT('',(-2.572583890817E-02,-98.56791054769));
#237 = CARTESIAN_POINT('',(-3.061177536673E-02,-98.52805102972));
#238 = CARTESIAN_POINT('',(-3.536039062399E-02,-98.4817932174));
#239 = CARTESIAN_POINT('',(-4.333098137307E-02,-98.39176785885));
#240 = CARTESIAN_POINT('',(-4.662427954694E-02,-98.35060639531));
#241 = CARTESIAN_POINT('',(-4.983655829239E-02,-98.30661180845));
#242 = CARTESIAN_POINT('',(-5.296636057813E-02,-98.26002519935));
#243 = CARTESIAN_POINT('',(-5.601328324829E-02,-98.21107455928));
#244 = CARTESIAN_POINT('',(-5.897779663388E-02,-98.15996934737));
#245 = CARTESIAN_POINT('',(-6.186110818017E-02,-98.10689649608));
#246 = CARTESIAN_POINT('',(-6.935841466015E-02,-97.96016052672));
#247 = CARTESIAN_POINT('',(-7.382736220776E-02,-97.86328488809));
#248 = CARTESIAN_POINT('',(-7.80821724969E-02,-97.76213131357));
#249 = CARTESIAN_POINT('',(-8.213275933197E-02,-97.65733188854));
#250 = CARTESIAN_POINT('',(-8.598908115217E-02,-97.54941829693));
#251 = CARTESIAN_POINT('',(-8.966132376591E-02,-97.43882585584));
#252 = CARTESIAN_POINT('',(-9.315987522532E-02,-97.32589368647));
#253 = CARTESIAN_POINT('',(-0.100100728192,-97.08650156733));
#254 = CARTESIAN_POINT('',(-0.103513922801,-96.95974126076));
#255 = CARTESIAN_POINT('',(-0.106746990259,-96.83092311945));
#256 = CARTESIAN_POINT('',(-0.109810434482,-96.70033631163));
#257 = CARTESIAN_POINT('',(-0.11271355359,-96.56822306837));
#258 = CARTESIAN_POINT('',(-0.11546483415,-96.4347832421));
#259 = CARTESIAN_POINT('',(-0.118072135787,-96.30017651157));
#260 = CARTESIAN_POINT('',(-0.123081323421,-96.02512717763));
#261 = CARTESIAN_POINT('',(-0.125475207672,-95.88464596928));
#262 = CARTESIAN_POINT('',(-0.127731987958,-95.74322209053));
#263 = CARTESIAN_POINT('',(-0.129858321713,-95.60097989076));
#264 = CARTESIAN_POINT('',(-0.13186010924,-95.45802646808));
#265 = CARTESIAN_POINT('',(-0.133742671884,-95.31445300526));
#266 = CARTESIAN_POINT('',(-0.135510853916,-95.17033555963));
#267 = CARTESIAN_POINT('',(-0.140136199973,-94.76698943097));
#268 = CARTESIAN_POINT('',(-0.142750792192,-94.50673375724));
#269 = CARTESIAN_POINT('',(-0.145038112051,-94.24531953133));
#270 = CARTESIAN_POINT('',(-0.147018180224,-93.98304027858));
#271 = CARTESIAN_POINT('',(-0.148707376229,-93.7201388229));
#272 = CARTESIAN_POINT('',(-0.150119482614,-93.4568119166));
#273 = CARTESIAN_POINT('',(-0.15126614788,-93.19321248151));
#274 = CARTESIAN_POINT('',(-0.15312212442,-92.64355286873));
#275 = CARTESIAN_POINT('',(-0.153786555196,-92.35750152783));
#276 = CARTESIAN_POINT('',(-0.154162159659,-92.0714552444));
#277 = CARTESIAN_POINT('',(-0.154258148334,-91.78556167269));
#278 = CARTESIAN_POINT('',(-0.154081409052,-91.49995693265));
#279 = CARTESIAN_POINT('',(-0.153636798879,-91.21476612904));
#280 = CARTESIAN_POINT('',(-0.152927162004,-90.93010377271));
#281 = CARTESIAN_POINT('',(-0.150933020547,-90.34864184636));
#282 = CARTESIAN_POINT('',(-0.149623062629,-90.0519337957));
#283 = CARTESIAN_POINT('',(-0.148024005392,-89.75606182083));
#284 = CARTESIAN_POINT('',(-0.146133882837,-89.4611611439));
#285 = CARTESIAN_POINT('',(-0.143948214218,-89.16738946424));
#286 = CARTESIAN_POINT('',(-0.141459620369,-88.87492835742));
#287 = CARTESIAN_POINT('',(-0.138656799521,-88.58398694937));
#288 = CARTESIAN_POINT('',(-0.132676422035,-88.03215705289));
#289 = CARTESIAN_POINT('',(-0.129557751693,-87.77104469377));
#290 = CARTESIAN_POINT('',(-0.126153641107,-87.51158835504));
#291 = CARTESIAN_POINT('',(-0.122447803274,-87.25400617308));
#292 = CARTESIAN_POINT('',(-0.118419174982,-86.99863047214));
#293 = CARTESIAN_POINT('',(-0.11404161335,-86.74590922253));
#294 = CARTESIAN_POINT('',(-0.109280657432,-86.49642804002));
#295 = CARTESIAN_POINT('',(-0.101942474488,-86.14990442947));
#296 = CARTESIAN_POINT('',(-9.972817129306E-02,-86.04952334567));
#297 = CARTESIAN_POINT('',(-9.743645213826E-02,-85.94989867358));
#298 = CARTESIAN_POINT('',(-9.50632791851E-02,-85.85110288672));
#299 = CARTESIAN_POINT('',(-9.260420330905E-02,-85.75322475247));
#300 = CARTESIAN_POINT('',(-9.005422871802E-02,-85.65637075235));
#301 = CARTESIAN_POINT('',(-8.740757767159E-02,-85.56066760523));
#302 = CARTESIAN_POINT('',(-8.024132635479E-02,-85.3146851726));
#303 = CARTESIAN_POINT('',(-7.557026784202E-02,-85.16687295518));
#304 = CARTESIAN_POINT('',(-7.060488641259E-02,-85.0229618495));
#305 = CARTESIAN_POINT('',(-6.530580567072E-02,-84.88370491633));
#306 = CARTESIAN_POINT('',(-5.963521719722E-02,-84.75043545291));
#307 = CARTESIAN_POINT('',(-5.355297550351E-02,-84.62515989219));
#308 = CARTESIAN_POINT('',(-4.702018769222E-02,-84.51047723286));
#309 = CARTESIAN_POINT('',(-3.8256411523E-02,-84.38547075883));
#310 = CARTESIAN_POINT('',(-3.650620215988E-02,-84.36178987896));
#311 = CARTESIAN_POINT('',(-3.472661972154E-02,-84.3390357499));
#312 = CARTESIAN_POINT('',(-3.291761471158E-02,-84.31727207719));
#313 = CARTESIAN_POINT('',(-3.107938180987E-02,-84.29656698257));
#314 = CARTESIAN_POINT('',(-2.921239507825E-02,-84.27699165543));
#315 = CARTESIAN_POINT('',(-2.731744316613E-02,-84.25861900432));
#316 = CARTESIAN_POINT('',(-2.239489499627E-02,-84.21482659921));
#317 = CARTESIAN_POINT('',(-1.932723950796E-02,-84.19122842579));
#318 = CARTESIAN_POINT('',(-1.619894924441E-02,-84.17102897998));
#319 = CARTESIAN_POINT('',(-1.301802243545E-02,-84.1545119071));
#320 = CARTESIAN_POINT('',(-9.794375667003E-03,-84.14192613419));
#321 = CARTESIAN_POINT('',(-6.540063253649E-03,-84.13346408247));
#322 = CARTESIAN_POINT('',(-3.269544664135E-03,-84.12923526427));
#323 = CARTESIAN_POINT('',(-9.3342844142E-18,-84.12923526427));
#324 = ( GEOMETRIC_REPRESENTATION_CONTEXT(2) 
PARAMETRIC_REPRESENTATION_CONTEXT() REPRESENTATION_CONTEXT('2D SPACE',''
  ) );
#325 = ORIENTED_EDGE('',*,*,#326,.F.);
#326 = EDGE_CURVE('',#327,#22,#329,.T.);
#327 = VERTEX_POINT('',#328);
#328 = CARTESIAN_POINT('',(45.677669529664,-1.224646799147E-15,
    150.3933982822));
#329 = SEAM_CURVE('',#330,(#334,#341),.PCURVE_S1.);
#330 = LINE('',#331,#332);
#331 = CARTESIAN_POINT('',(45.677669529664,-1.224646799147E-15,
    150.3933982822));
#332 = VECTOR('',#333,1.);
#333 = DIRECTION('',(-0.707106781187,0.,0.707106781187));
#334 = PCURVE('',#122,#335);
#335 = DEFINITIONAL_REPRESENTATION('',(#336),#340);
#336 = LINE('',#337,#338);
#337 = CARTESIAN_POINT('',(6.28318530718,-0.));
#338 = VECTOR('',#339,1.);
#339 = DIRECTION('',(0.,1.));
#340 = ( GEOMETRIC_REPRESENTATION_CONTEXT(2) 
PARAMETRIC_REPRESENTATION_CONTEXT() REPRESENTATION_CONTEXT('2D SPACE',''
  ) );
#341 = PCURVE('',#122,#342);
#342 = DEFINITIONAL_REPRESENTATION('',(#343),#347);
#343 = LINE('',#344,#345);
#344 = CARTESIAN_POINT('',(0.,-0.));
#345 = VECTOR('',#346,1.);
#346 = DIRECTION('',(0.,1.));
#347 = ( GEOMETRIC_REPRESENTATION_CONTEXT(2) 
PARAMETRIC_REPRESENTATION_CONTEXT() REPRESENTATION_CONTEXT('2D SPACE',''
  ) );
#348 = ORIENTED_EDGE('',*,*,#349,.T.);
#349 = EDGE_CURVE('',#327,#327,#350,.T.);
#350 = SURFACE_CURVE('',#351,(#356,#363),.PCURVE_S1.);
#351 = CIRCLE('',#352,5.);
#352 = AXIS2_PLACEMENT_3D('',#353,#354,#355);
#353 = CARTESIAN_POINT('',(42.142135623731,0.,146.85786437626));
#354 = DIRECTION('',(-0.707106781187,0.,0.707106781187));
#355 = DIRECTION('',(0.707106781187,0.,0.707106781187));
#356 = PCURVE('',#122,#357);
#357 = DEFINITIONAL_REPRESENTATION('',(#358),#362);
#358 = LINE('',#359,#360);
#359 = CARTESIAN_POINT('',(0.,0.));
#360 = VECTOR('',#361,1.);
#361 = DIRECTION('',(1.,0.));
#362 = ( GEOMETRIC_REPRESENTATION_CONTEXT(2) 
PARAMETRIC_REPRESENTATION_CONTEXT() REPRESENTATION_CONTEXT('2D SPACE',''
  ) );
#363 = PCURVE('',#364,#369);
#364 = PLANE('',#365);
#365 = AXIS2_PLACEMENT_3D('',#366,#367,#368);
#366 = CARTESIAN_POINT('',(42.142135623731,0.,146.85786437626));
#367 = DIRECTION('',(-0.707106781187,0.,0.707106781187));
#368 = DIRECTION('',(0.707106781187,0.,0.707106781187));
#369 = DEFINITIONAL_REPRESENTATION('',(#370),#374);
#370 = CIRCLE('',#371,5.);
#371 = AXIS2_PLACEMENT_2D('',#372,#373);
#372 = CARTESIAN_POINT('',(0.,0.));
#373 = DIRECTION('',(1.,0.));
#374 = ( GEOMETRIC_REPRESENTATION_CONTEXT(2) 
PARAMETRIC_REPRESENTATION_CONTEXT() REPRESENTATION_CONTEXT('2D SPACE',''
  ) );
#375 = ORIENTED_EDGE('',*,*,#326,.T.);
#376 = ORIENTED_EDGE('',*,*,#377,.F.);
#377 = EDGE_CURVE('',#24,#22,#378,.T.);
#378 = SURFACE_CURVE('',#379,(#460,#544),.PCURVE_S1.);
#379 = B_SPLINE_CURVE_WITH_KNOTS('',7,(#380,#381,#382,#383,#384,#385,
    #386,#387,#388,#389,#390,#391,#392,#393,#394,#395,#396,#397,#398,
    #399,#400,#401,#402,#403,#404,#405,#406,#407,#408,#409,#410,#411,
    #412,#413,#414,#415,#416,#417,#418,#419,#420,#421,#422,#423,#424,
    #425,#426,#427,#428,#429,#430,#431,#432,#433,#434,#435,#436,#437,
    #438,#439,#440,#441,#442,#443,#444,#445,#446,#447,#448,#449,#450,
    #451,#452,#453,#454,#455,#456,#457,#458,#459),.UNSPECIFIED.,.F.,.F.,
  (8,6,6,6,6,6,6,6,6,6,6,6,6,8),(0.,3.56259881822E-02,6.1536831143E-02,
    0.105203962408,0.154489316804,0.208072758573,0.326167295901,
    0.455925969162,0.620720369568,0.766146713631,0.83472880932,
    0.929665382131,0.956728101001,1.),.UNSPECIFIED.);
#380 = CARTESIAN_POINT('',(32.799696923857,0.,149.12923526427));
#381 = CARTESIAN_POINT('',(32.799696923857,-0.13598765113,
    149.12923526427));
#382 = CARTESIAN_POINT('',(32.798857614348,-0.272031232025,
    149.13617688409));
#383 = CARTESIAN_POINT('',(32.797177677494,-0.406877388155,
    149.15007023528));
#384 = CARTESIAN_POINT('',(32.794701476282,-0.539560363377,
    149.1705760899));
#385 = CARTESIAN_POINT('',(32.791500451186,-0.669350246447,
    149.19715251936));
#386 = CARTESIAN_POINT('',(32.787658706821,-0.795714271223,
    149.22916316458));
#387 = CARTESIAN_POINT('',(32.780065629638,-1.007441561892,
    149.29270018468));
#388 = CARTESIAN_POINT('',(32.776573548887,-1.094636918578,
    149.32199306342));
#389 = CARTESIAN_POINT('',(32.772817176419,-1.179799083742,
    149.35359453727));
#390 = CARTESIAN_POINT('',(32.768826020029,-1.262894785686,
    149.38728195665));
#391 = CARTESIAN_POINT('',(32.764627525128,-1.343928493292,
    149.42284863736));
#392 = CARTESIAN_POINT('',(32.760246134645,-1.422935271432,
    149.46011123916));
#393 = CARTESIAN_POINT('',(32.748044779177,-1.629805166761,
    149.56431611878));
#394 = CARTESIAN_POINT('',(32.739929553642,-1.753988340117,
    149.63406804011));
#395 = CARTESIAN_POINT('',(32.731453826699,-1.872856520654,
    149.7074516436));
#396 = CARTESIAN_POINT('',(32.722697097036,-1.986724489133,
    149.78387843412));
#397 = CARTESIAN_POINT('',(32.713722828133,-2.095908990601,
    149.86287907356));
#398 = CARTESIAN_POINT('',(32.704579658491,-2.200737323112,
    149.94409776228));
#399 = CARTESIAN_POINT('',(32.684831104949,-2.415320417752,
    150.12119559307));
#400 = CARTESIAN_POINT('',(32.674193844933,-2.523921020188,
    150.21757253339));
#401 = CARTESIAN_POINT('',(32.663444494027,-2.627791113555,
    150.31604011445));
#402 = CARTESIAN_POINT('',(32.652625951851,-2.72728490427,
    150.41629421571));
#403 = CARTESIAN_POINT('',(32.641772395864,-2.822706986633,
    150.51809466566));
#404 = CARTESIAN_POINT('',(32.630910826821,-2.91433404399,
    150.62125639368));
#405 = CARTESIAN_POINT('',(32.608266459035,-3.098180950715,
    150.83914546821));
#406 = CARTESIAN_POINT('',(32.596487959628,-3.189739522609,
    150.95407731378));
#407 = CARTESIAN_POINT('',(32.584754216621,-3.277404174125,
    151.07025955549));
#408 = CARTESIAN_POINT('',(32.573088308986,-3.361426395717,
    151.18754196078));
#409 = CARTESIAN_POINT('',(32.561509419826,-3.442019767351,
    151.30580242697));
#410 = CARTESIAN_POINT('',(32.55003354304,-3.519372668093,
    151.42494327848));
#411 = CARTESIAN_POINT('',(32.51363785058,-3.757356955181,
    151.80924652701));
#412 = CARTESIAN_POINT('',(32.489172384289,-3.906090917697,
    152.07745457735));
#413 = CARTESIAN_POINT('',(32.465417243103,-4.041653330825,
    152.34872808153));
#414 = CARTESIAN_POINT('',(32.442477751191,-4.165159456981,
    152.62250693269));
#415 = CARTESIAN_POINT('',(32.420438653293,-4.277483365299,
    152.89836910743));
#416 = CARTESIAN_POINT('',(32.399367771243,-4.379277370545,
    153.17602853385));
#417 = CARTESIAN_POINT('',(32.357296752547,-4.57187866453,
    153.76219542677));
#418 = CARTESIAN_POINT('',(32.336514468118,-4.660583481165,
    154.07096707224));
#419 = CARTESIAN_POINT('',(32.317054716546,-4.737813034852,
    154.38134628304));
#420 = CARTESIAN_POINT('',(32.298988640272,-4.803970500774,
    154.69308892025));
#421 = CARTESIAN_POINT('',(32.282380885538,-4.859298806755,
    155.00598539276));
#422 = CARTESIAN_POINT('',(32.267290953373,-4.903919699606,
    155.31985654289));
#423 = CARTESIAN_POINT('',(32.236607779372,-4.980879879906,
    156.03422342489));
#424 = CARTESIAN_POINT('',(32.221981769764,-5.006642424387,
    156.4351558011));
#425 = CARTESIAN_POINT('',(32.210007137381,-5.015108151531,
    156.83706770774));
#426 = CARTESIAN_POINT('',(32.200790982861,-5.005916073471,
    157.23961138768));
#427 = CARTESIAN_POINT('',(32.194431566071,-4.97842708856,157.642374101)
  );
#428 = CARTESIAN_POINT('',(32.191011702469,-4.931668653375,
    158.04487298015));
#429 = CARTESIAN_POINT('',(32.190218816476,-4.804554475182,
    158.8010110445));
#430 = CARTESIAN_POINT('',(32.192182528199,-4.728819599259,
    159.15467662751));
#431 = CARTESIAN_POINT('',(32.1965183272,-4.635906139749,159.50727835673
    ));
#432 = CARTESIAN_POINT('',(32.203253740384,-4.524483685801,
    159.85827759457));
#433 = CARTESIAN_POINT('',(32.212386562729,-4.392805224376,
    160.20683133595));
#434 = CARTESIAN_POINT('',(32.223863704531,-4.238748120943,
    160.55179746919));
#435 = CARTESIAN_POINT('',(32.24399506742,-3.974170929521,
    161.05182794986));
#436 = CARTESIAN_POINT('',(32.250934750885,-3.883681111582,
    161.21087845646));
#437 = CARTESIAN_POINT('',(32.258347434566,-3.7871429906,161.36857121198
    ));
#438 = CARTESIAN_POINT('',(32.266211621988,-3.684168096625,
    161.52467365717));
#439 = CARTESIAN_POINT('',(32.274497482365,-3.574325796165,
    161.67888675455));
#440 = CARTESIAN_POINT('',(32.283164155698,-3.457120106791,
    161.83083750194));
#441 = CARTESIAN_POINT('',(32.304604384858,-3.158663500932,
    162.18663506003));
#442 = CARTESIAN_POINT('',(32.31765137929,-2.970457101532,
    162.38757212909));
#443 = CARTESIAN_POINT('',(32.331178505435,-2.765364430658,
    162.58221564021));
#444 = CARTESIAN_POINT('',(32.344982402985,-2.541439234839,
    162.76879266338));
#445 = CARTESIAN_POINT('',(32.358725277466,-2.296785315384,
    162.94439172198));
#446 = CARTESIAN_POINT('',(32.371902682987,-2.029851750302,
    163.10513267318));
#447 = CARTESIAN_POINT('',(32.387243415757,-1.655978739465,
    163.28592060937));
#448 = CARTESIAN_POINT('',(32.390543235928,-1.571151524737,
    163.3243658875));
#449 = CARTESIAN_POINT('',(32.393723388513,-1.484426779098,
    163.3610225805));
#450 = CARTESIAN_POINT('',(32.396765683703,-1.395818185152,
    163.39574664831));
#451 = CARTESIAN_POINT('',(32.399650820073,-1.305362669395,
    163.42838500953));
#452 = CARTESIAN_POINT('',(32.402358961469,-1.213124574136,
    163.45878029575));
#453 = CARTESIAN_POINT('',(32.408885837615,-0.969018981472,
    163.53153867043));
#454 = CARTESIAN_POINT('',(32.412400686858,-0.814436293235,
    163.57019315418));
#455 = CARTESIAN_POINT('',(32.415329508121,-0.655978404086,
    163.60204338972));
#456 = CARTESIAN_POINT('',(32.417592697577,-0.49433329317,
    163.62646187941));
#457 = CARTESIAN_POINT('',(32.419126167022,-0.330367898502,
    163.64294100758));
#458 = CARTESIAN_POINT('',(32.419892333647,-0.165153661938,
    163.65117547821));
#459 = CARTESIAN_POINT('',(32.419892333647,-8.881784197001E-16,
    163.65117547821));
#460 = PCURVE('',#122,#461);
#461 = DEFINITIONAL_REPRESENTATION('',(#462),#543);
#462 = B_SPLINE_CURVE_WITH_KNOTS('',7,(#463,#464,#465,#466,#467,#468,
    #469,#470,#471,#472,#473,#474,#475,#476,#477,#478,#479,#480,#481,
    #482,#483,#484,#485,#486,#487,#488,#489,#490,#491,#492,#493,#494,
    #495,#496,#497,#498,#499,#500,#501,#502,#503,#504,#505,#506,#507,
    #508,#509,#510,#511,#512,#513,#514,#515,#516,#517,#518,#519,#520,
    #521,#522,#523,#524,#525,#526,#527,#528,#529,#530,#531,#532,#533,
    #534,#535,#536,#537,#538,#539,#540,#541,#542),.UNSPECIFIED.,.F.,.F.,
  (8,6,6,6,6,6,6,6,6,6,6,6,6,8),(0.,3.56259881822E-02,6.1536831143E-02,
    0.105203962408,0.154489316804,0.208072758573,0.326167295901,
    0.455925969162,0.620720369568,0.766146713631,0.83472880932,
    0.929665382131,0.956728101001,1.),.UNSPECIFIED.);
#463 = CARTESIAN_POINT('',(3.14159265359,8.212203515001));
#464 = CARTESIAN_POINT('',(3.168790183816,8.212203515001));
#465 = CARTESIAN_POINT('',(3.195998884255,8.217705462892));
#466 = CARTESIAN_POINT('',(3.223001029831,8.22871744047));
#467 = CARTESIAN_POINT('',(3.249636252005,8.244968207993));
#468 = CARTESIAN_POINT('',(3.275785222244,8.266024048039));
#469 = CARTESIAN_POINT('',(3.30135975888,8.291375515836));
#470 = CARTESIAN_POINT('',(3.344437970537,8.341672089975));
#471 = CARTESIAN_POINT('',(3.362250521402,8.364854557152));
#472 = CARTESIAN_POINT('',(3.379726237321,8.389856330049));
#473 = CARTESIAN_POINT('',(3.396861652593,8.416499106479));
#474 = CARTESIAN_POINT('',(3.413659596003,8.444617331808));
#475 = CARTESIAN_POINT('',(3.430128178405,8.474064081153));
#476 = CARTESIAN_POINT('',(3.473499817904,8.55637571935));
#477 = CARTESIAN_POINT('',(3.499807483613,8.611436106931));
#478 = CARTESIAN_POINT('',(3.525272798804,8.669319394583));
#479 = CARTESIAN_POINT('',(3.5499573438,8.729553239351));
#480 = CARTESIAN_POINT('',(3.573920888462,8.791760893615));
#481 = CARTESIAN_POINT('',(3.59722528966,8.855656376422));
#482 = CARTESIAN_POINT('',(3.645567942475,8.994847789635));
#483 = CARTESIAN_POINT('',(3.670431620797,9.070518256381));
#484 = CARTESIAN_POINT('',(3.694611644378,9.147746289592));
#485 = CARTESIAN_POINT('',(3.718174139091,9.226286508972));
#486 = CARTESIAN_POINT('',(3.74117548934,9.305944920493));
#487 = CARTESIAN_POINT('',(3.763667421175,9.386571567062));
#488 = CARTESIAN_POINT('',(3.809649997383,9.556654395228));
#489 = CARTESIAN_POINT('',(3.833052634372,9.646252139409));
#490 = CARTESIAN_POINT('',(3.855964932096,9.736702399618));
#491 = CARTESIAN_POINT('',(3.878434199597,9.827882626115));
#492 = CARTESIAN_POINT('',(3.900500770289,9.919692914746));
#493 = CARTESIAN_POINT('',(3.922200778711,10.012052889064));
#494 = CARTESIAN_POINT('',(3.990656999666,10.309531963074));
#495 = CARTESIAN_POINT('',(4.036114572052,10.516483391354));
#496 = CARTESIAN_POINT('',(4.080294669884,10.725100147141));
#497 = CARTESIAN_POINT('',(4.123424455482,10.93491169963));
#498 = CARTESIAN_POINT('',(4.165692108956,11.145559709638));
#499 = CARTESIAN_POINT('',(4.207253931841,11.356793936502));
#500 = CARTESIAN_POINT('',(4.29330401461,11.801025223999));
#501 = CARTESIAN_POINT('',(4.337665020177,12.034055042597));
#502 = CARTESIAN_POINT('',(4.381518232783,12.267286409592));
#503 = CARTESIAN_POINT('',(4.425007547145,12.500496387393));
#504 = CARTESIAN_POINT('',(4.46825851608,12.733491060905));
#505 = CARTESIAN_POINT('',(4.511390190007,12.966101672945));
#506 = CARTESIAN_POINT('',(4.609295159369,13.492931619867));
#507 = CARTESIAN_POINT('',(4.664058064144,13.786775772456));
#508 = CARTESIAN_POINT('',(4.719051493267,14.079437750842));
#509 = CARTESIAN_POINT('',(4.774501542659,14.370595922004));
#510 = CARTESIAN_POINT('',(4.830634374541,14.659888954539));
#511 = CARTESIAN_POINT('',(4.887704567082,14.946916850152));
#512 = CARTESIAN_POINT('',(4.997510064856,15.482147858033));
#513 = CARTESIAN_POINT('',(5.049943892032,15.730838636172));
#514 = CARTESIAN_POINT('',(5.103576713803,15.977099837086));
#515 = CARTESIAN_POINT('',(5.158656862159,16.220531122019));
#516 = CARTESIAN_POINT('',(5.21548038588,16.460537955546));
#517 = CARTESIAN_POINT('',(5.274394081585,16.696350282844));
#518 = CARTESIAN_POINT('',(5.365010914892,17.035690203311));
#519 = CARTESIAN_POINT('',(5.394635643983,17.143248797839));
#520 = CARTESIAN_POINT('',(5.424905071344,17.249512855715));
#521 = CARTESIAN_POINT('',(5.455882932477,17.354333133014));
#522 = CARTESIAN_POINT('',(5.487638630843,17.457519271855));
#523 = CARTESIAN_POINT('',(5.520253311097,17.558836412263));
#524 = CARTESIAN_POINT('',(5.600310920266,17.795262746885));
#525 = CARTESIAN_POINT('',(5.648542508995,17.928121092776));
#526 = CARTESIAN_POINT('',(5.698909056435,18.056189716768));
#527 = CARTESIAN_POINT('',(5.751731399463,18.178358765504));
#528 = CARTESIAN_POINT('',(5.807310200798,18.292808370873));
#529 = CARTESIAN_POINT('',(5.865918322079,18.397151554675));
#530 = CARTESIAN_POINT('',(5.945671505244,18.514140394146));
#531 = CARTESIAN_POINT('',(5.963631084509,18.538991985794));
#532 = CARTESIAN_POINT('',(5.981861628501,18.562663474534));
#533 = CARTESIAN_POINT('',(6.000362930299,18.585065870794));
#534 = CARTESIAN_POINT('',(6.019131231368,18.606104577849));
#535 = CARTESIAN_POINT('',(6.038158659917,18.625682345706));
#536 = CARTESIAN_POINT('',(6.088250821328,18.672515087446));
#537 = CARTESIAN_POINT('',(6.119717761583,18.697362561297));
#538 = CARTESIAN_POINT('',(6.151754029817,18.717813089452));
#539 = CARTESIAN_POINT('',(6.18425974422,18.733479252487));
#540 = CARTESIAN_POINT('',(6.217111744461,18.744047429118));
#541 = CARTESIAN_POINT('',(6.250154574792,18.749328317528));
#542 = CARTESIAN_POINT('',(6.28318530718,18.749328317528));
#543 = ( GEOMETRIC_REPRESENTATION_CONTEXT(2) 
PARAMETRIC_REPRESENTATION_CONTEXT() REPRESENTATION_CONTEXT('2D SPACE',''
  ) );
#544 = PCURVE('',#224,#545);
#545 = DEFINITIONAL_REPRESENTATION('',(#546),#627);
#546 = B_SPLINE_CURVE_WITH_KNOTS('',7,(#547,#548,#549,#550,#551,#552,
    #553,#554,#555,#556,#557,#558,#559,#560,#561,#562,#563,#564,#565,
    #566,#567,#568,#569,#570,#571,#572,#573,#574,#575,#576,#577,#578,
    #579,#580,#581,#582,#583,#584,#585,#586,#587,#588,#589,#590,#591,
    #592,#593,#594,#595,#596,#597,#598,#599,#600,#601,#602,#603,#604,
    #605,#606,#607,#608,#609,#610,#611,#612,#613,#614,#615,#616,#617,
    #618,#619,#620,#621,#622,#623,#624,#625,#626),.UNSPECIFIED.,.F.,.F.,
  (8,6,6,6,6,6,6,6,6,6,6,6,6,8),(0.,3.56259881822E-02,6.1536831143E-02,
    0.105203962408,0.154489316804,0.208072758573,0.326167295901,
    0.455925969162,0.620720369568,0.766146713631,0.83472880932,
    0.929665382131,0.956728101001,1.),.UNSPECIFIED.);
#547 = CARTESIAN_POINT('',(-6.28318530718,-84.12923526427));
#548 = CARTESIAN_POINT('',(-6.279039303897,-84.12923526427));
#549 = CARTESIAN_POINT('',(-6.274891595515,-84.13617688409));
#550 = CARTESIAN_POINT('',(-6.270780181135,-84.15007023528));
#551 = CARTESIAN_POINT('',(-6.266734292301,-84.1705760899));
#552 = CARTESIAN_POINT('',(-6.262776014908,-84.19715251936));
#553 = CARTESIAN_POINT('',(-6.25892148439,-84.22916316458));
#554 = CARTESIAN_POINT('',(-6.252461669188,-84.29270018468));
#555 = CARTESIAN_POINT('',(-6.249800885467,-84.32199306342));
#556 = CARTESIAN_POINT('',(-6.247201660339,-84.35359453727));
#557 = CARTESIAN_POINT('',(-6.244664994654,-84.38728195665));
#558 = CARTESIAN_POINT('',(-6.242190747629,-84.42284863736));
#559 = CARTESIAN_POINT('',(-6.239777851692,-84.46011123916));
#560 = CARTESIAN_POINT('',(-6.233458507228,-84.56431611878));
#561 = CARTESIAN_POINT('',(-6.22966344396,-84.63406804011));
#562 = CARTESIAN_POINT('',(-6.226029194959,-84.7074516436));
#563 = CARTESIAN_POINT('',(-6.222546217919,-84.78387843412));
#564 = CARTESIAN_POINT('',(-6.21920492448,-84.86287907356));
#565 = CARTESIAN_POINT('',(-6.215995403733,-84.94409776228));
#566 = CARTESIAN_POINT('',(-6.209422338974,-85.12119559307));
#567 = CARTESIAN_POINT('',(-6.206093722014,-85.21757253339));
#568 = CARTESIAN_POINT('',(-6.202908178233,-85.31604011445));
#569 = CARTESIAN_POINT('',(-6.199855002326,-85.41629421571));
#570 = CARTESIAN_POINT('',(-6.196924998365,-85.51809466566));
#571 = CARTESIAN_POINT('',(-6.19410981413,-85.62125639368));
#572 = CARTESIAN_POINT('',(-6.18845779499,-85.83914546821));
#573 = CARTESIAN_POINT('',(-6.185640978011,-85.95407731378));
#574 = CARTESIAN_POINT('',(-6.182942025592,-86.07025955549));
#575 = CARTESIAN_POINT('',(-6.180353364892,-86.18754196078));
#576 = CARTESIAN_POINT('',(-6.177868573493,-86.30580242697));
#577 = CARTESIAN_POINT('',(-6.175481991241,-86.42494327848));
#578 = CARTESIAN_POINT('',(-6.168134192204,-86.80924652701));
#579 = CARTESIAN_POINT('',(-6.163533754194,-87.07745457735));
#580 = CARTESIAN_POINT('',(-6.159333253007,-87.34872808153));
#581 = CARTESIAN_POINT('',(-6.155499434597,-87.62250693269));
#582 = CARTESIAN_POINT('',(-6.152006332046,-87.89836910744));
#583 = CARTESIAN_POINT('',(-6.148834674014,-88.17602853385));
#584 = CARTESIAN_POINT('',(-6.142821630097,-88.76219542677));
#585 = CARTESIAN_POINT('',(-6.140044563857,-89.07096707224));
#586 = CARTESIAN_POINT('',(-6.137619310371,-89.38134628304));
#587 = CARTESIAN_POINT('',(-6.135534292565,-89.69308892025));
#588 = CARTESIAN_POINT('',(-6.133782776069,-90.00598539276));
#589 = CARTESIAN_POINT('',(-6.132361683015,-90.31985654289));
#590 = CARTESIAN_POINT('',(-6.129887940241,-91.03422342489));
#591 = CARTESIAN_POINT('',(-6.129038620269,-91.4351558011));
#592 = CARTESIAN_POINT('',(-6.128725260971,-91.83706770774));
#593 = CARTESIAN_POINT('',(-6.128960036993,-92.23961138768));
#594 = CARTESIAN_POINT('',(-6.129763530357,-92.642374101));
#595 = CARTESIAN_POINT('',(-6.131166418265,-93.04487298015));
#596 = CARTESIAN_POINT('',(-6.135023430109,-93.8010110445));
#597 = CARTESIAN_POINT('',(-6.137333826265,-94.15467662751));
#598 = CARTESIAN_POINT('',(-6.140178657676,-94.50727835673));
#599 = CARTESIAN_POINT('',(-6.143599133939,-94.85827759457));
#600 = CARTESIAN_POINT('',(-6.147649156135,-95.20683133595));
#601 = CARTESIAN_POINT('',(-6.15239398029,-95.55179746919));
#602 = CARTESIAN_POINT('',(-6.160550417556,-96.05182794986));
#603 = CARTESIAN_POINT('',(-6.163341051304,-96.21087845646));
#604 = CARTESIAN_POINT('',(-6.166319093191,-96.36857121198));
#605 = CARTESIAN_POINT('',(-6.169496460958,-96.52467365717));
#606 = CARTESIAN_POINT('',(-6.172886356387,-96.67888675455));
#607 = CARTESIAN_POINT('',(-6.176503979087,-96.83083750194));
#608 = CARTESIAN_POINT('',(-6.185716789837,-97.18663506003));
#609 = CARTESIAN_POINT('',(-6.191526958728,-97.38757212909));
#610 = CARTESIAN_POINT('',(-6.197858607413,-97.5822156402));
#611 = CARTESIAN_POINT('',(-6.204771411811,-97.76879266338));
#612 = CARTESIAN_POINT('',(-6.212323398733,-97.94439172198));
#613 = CARTESIAN_POINT('',(-6.220561911942,-98.10513267318));
#614 = CARTESIAN_POINT('',(-6.232099131611,-98.28592060937));
#615 = CARTESIAN_POINT('',(-6.234716679928,-98.3243658875));
#616 = CARTESIAN_POINT('',(-6.237392670848,-98.3610225805));
#617 = CARTESIAN_POINT('',(-6.24012667688,-98.39574664831));
#618 = CARTESIAN_POINT('',(-6.242917555556,-98.42838500953));
#619 = CARTESIAN_POINT('',(-6.245763321352,-98.45878029575));
#620 = CARTESIAN_POINT('',(-6.253294285268,-98.53153867043));
#621 = CARTESIAN_POINT('',(-6.258063087281,-98.57019315418));
#622 = CARTESIAN_POINT('',(-6.262951187404,-98.60204338972));
#623 = CARTESIAN_POINT('',(-6.267937394569,-98.62646187941));
#624 = CARTESIAN_POINT('',(-6.272995023538,-98.64294100758));
#625 = CARTESIAN_POINT('',(-6.278091099579,-98.65117547821));
#626 = CARTESIAN_POINT('',(-6.28318530718,-98.65117547821));
#627 = ( GEOMETRIC_REPRESENTATION_CONTEXT(2) 
PARAMETRIC_REPRESENTATION_CONTEXT() REPRESENTATION_CONTEXT('2D SPACE',''
  ) );
#628 = ADVANCED_FACE('',(#629),#224,.T.);
#629 = FACE_BOUND('',#630,.T.);
#630 = EDGE_LOOP('',(#631,#654,#681,#682,#683,#706,#733,#734));
#631 = ORIENTED_EDGE('',*,*,#632,.T.);
#632 = EDGE_CURVE('',#22,#633,#635,.T.);
#633 = VERTEX_POINT('',#634);
#634 = CARTESIAN_POINT('',(31.6,-7.739767770611E-15,195.));
#635 = SEAM_CURVE('',#636,(#640,#647),.PCURVE_S1.);
#636 = LINE('',#637,#638);
#637 = CARTESIAN_POINT('',(35.,-8.572527594031E-15,65.));
#638 = VECTOR('',#639,1.);
#639 = DIRECTION('',(-2.614490581524E-02,6.403655044128E-18,
    0.999658163524));
#640 = PCURVE('',#224,#641);
#641 = DEFINITIONAL_REPRESENTATION('',(#642),#646);
#642 = LINE('',#643,#644);
#643 = CARTESIAN_POINT('',(-6.28318530718,0.));
#644 = VECTOR('',#645,1.);
#645 = DIRECTION('',(-0.,-1.));
#646 = ( GEOMETRIC_REPRESENTATION_CONTEXT(2) 
PARAMETRIC_REPRESENTATION_CONTEXT() REPRESENTATION_CONTEXT('2D SPACE',''
  ) );
#647 = PCURVE('',#224,#648);
#648 = DEFINITIONAL_REPRESENTATION('',(#649),#653);
#649 = LINE('',#650,#651);
#650 = CARTESIAN_POINT('',(0.,-0.));
#651 = VECTOR('',#652,1.);
#652 = DIRECTION('',(-0.,-1.));
#653 = ( GEOMETRIC_REPRESENTATION_CONTEXT(2) 
PARAMETRIC_REPRESENTATION_CONTEXT() REPRESENTATION_CONTEXT('2D SPACE',''
  ) );
#654 = ORIENTED_EDGE('',*,*,#655,.F.);
#655 = EDGE_CURVE('',#633,#633,#656,.T.);
#656 = SURFACE_CURVE('',#657,(#662,#669),.PCURVE_S1.);
#657 = CIRCLE('',#658,31.6);
#658 = AXIS2_PLACEMENT_3D('',#659,#660,#661);
#659 = CARTESIAN_POINT('',(0.,0.,195.));
#660 = DIRECTION('',(0.,0.,1.));
#661 = DIRECTION('',(1.,0.,-0.));
#662 = PCURVE('',#224,#663);
#663 = DEFINITIONAL_REPRESENTATION('',(#664),#668);
#664 = LINE('',#665,#666);
#665 = CARTESIAN_POINT('',(-0.,-130.));
#666 = VECTOR('',#667,1.);
#667 = DIRECTION('',(-1.,-0.));
#668 = ( GEOMETRIC_REPRESENTATION_CONTEXT(2) 
PARAMETRIC_REPRESENTATION_CONTEXT() REPRESENTATION_CONTEXT('2D SPACE',''
  ) );
#669 = PCURVE('',#670,#675);
#670 = PLANE('',#671);
#671 = AXIS2_PLACEMENT_3D('',#672,#673,#674);
#672 = CARTESIAN_POINT('',(0.,0.,195.));
#673 = DIRECTION('',(0.,0.,1.));
#674 = DIRECTION('',(1.,0.,-0.));
#675 = DEFINITIONAL_REPRESENTATION('',(#676),#680);
#676 = CIRCLE('',#677,31.6);
#677 = AXIS2_PLACEMENT_2D('',#678,#679);
#678 = CARTESIAN_POINT('',(0.,0.));
#679 = DIRECTION('',(1.,0.));
#680 = ( GEOMETRIC_REPRESENTATION_CONTEXT(2) 
PARAMETRIC_REPRESENTATION_CONTEXT() REPRESENTATION_CONTEXT('2D SPACE',''
  ) );
#681 = ORIENTED_EDGE('',*,*,#632,.F.);
#682 = ORIENTED_EDGE('',*,*,#21,.T.);
#683 = ORIENTED_EDGE('',*,*,#684,.F.);
#684 = EDGE_CURVE('',#685,#24,#687,.T.);
#685 = VERTEX_POINT('',#686);
#686 = CARTESIAN_POINT('',(35.,-8.572527594031E-15,65.));
#687 = SEAM_CURVE('',#688,(#692,#699),.PCURVE_S1.);
#688 = LINE('',#689,#690);
#689 = CARTESIAN_POINT('',(35.,-8.572527594031E-15,65.));
#690 = VECTOR('',#691,1.);
#691 = DIRECTION('',(-2.614490581524E-02,6.403655044128E-18,
    0.999658163524));
#692 = PCURVE('',#224,#693);
#693 = DEFINITIONAL_REPRESENTATION('',(#694),#698);
#694 = LINE('',#695,#696);
#695 = CARTESIAN_POINT('',(-6.28318530718,0.));
#696 = VECTOR('',#697,1.);
#697 = DIRECTION('',(-0.,-1.));
#698 = ( GEOMETRIC_REPRESENTATION_CONTEXT(2) 
PARAMETRIC_REPRESENTATION_CONTEXT() REPRESENTATION_CONTEXT('2D SPACE',''
  ) );
#699 = PCURVE('',#224,#700);
#700 = DEFINITIONAL_REPRESENTATION('',(#701),#705);
#701 = LINE('',#702,#703);
#702 = CARTESIAN_POINT('',(0.,-0.));
#703 = VECTOR('',#704,1.);
#704 = DIRECTION('',(-0.,-1.));
#705 = ( GEOMETRIC_REPRESENTATION_CONTEXT(2) 
PARAMETRIC_REPRESENTATION_CONTEXT() REPRESENTATION_CONTEXT('2D SPACE',''
  ) );
#706 = ORIENTED_EDGE('',*,*,#707,.T.);
#707 = EDGE_CURVE('',#685,#685,#708,.T.);
#708 = SURFACE_CURVE('',#709,(#714,#721),.PCURVE_S1.);
#709 = CIRCLE('',#710,35.);
#710 = AXIS2_PLACEMENT_3D('',#711,#712,#713);
#711 = CARTESIAN_POINT('',(0.,0.,65.));
#712 = DIRECTION('',(0.,0.,1.));
#713 = DIRECTION('',(1.,0.,-0.));
#714 = PCURVE('',#224,#715);
#715 = DEFINITIONAL_REPRESENTATION('',(#716),#720);
#716 = LINE('',#717,#718);
#717 = CARTESIAN_POINT('',(-0.,-0.));
#718 = VECTOR('',#719,1.);
#719 = DIRECTION('',(-1.,-0.));
#720 = ( GEOMETRIC_REPRESENTATION_CONTEXT(2) 
PARAMETRIC_REPRESENTATION_CONTEXT() REPRESENTATION_CONTEXT('2D SPACE',''
  ) );
#721 = PCURVE('',#722,#727);
#722 = PLANE('',#723);
#723 = AXIS2_PLACEMENT_3D('',#724,#725,#726);
#724 = CARTESIAN_POINT('',(0.,0.,65.));
#725 = DIRECTION('',(0.,0.,1.));
#726 = DIRECTION('',(1.,0.,-0.));
#727 = DEFINITIONAL_REPRESENTATION('',(#728),#732);
#728 = CIRCLE('',#729,35.);
#729 = AXIS2_PLACEMENT_2D('',#730,#731);
#730 = CARTESIAN_POINT('',(0.,0.));
#731 = DIRECTION('',(1.,0.));
#732 = ( GEOMETRIC_REPRESENTATION_CONTEXT(2) 
PARAMETRIC_REPRESENTATION_CONTEXT() REPRESENTATION_CONTEXT('2D SPACE',''
  ) );
#733 = ORIENTED_EDGE('',*,*,#684,.T.);
#734 = ORIENTED_EDGE('',*,*,#377,.T.);
#735 = ADVANCED_FACE('',(#736),#364,.F.);
#736 = FACE_BOUND('',#737,.F.);
#737 = EDGE_LOOP('',(#738));
#738 = ORIENTED_EDGE('',*,*,#349,.T.);
#739 = ADVANCED_FACE('',(#740),#722,.F.);
#740 = FACE_BOUND('',#741,.T.);
#741 = EDGE_LOOP('',(#742));
#742 = ORIENTED_EDGE('',*,*,#707,.F.);
#743 = ADVANCED_FACE('',(#744),#670,.T.);
#744 = FACE_BOUND('',#745,.T.);
#745 = EDGE_LOOP('',(#746));
#746 = ORIENTED_EDGE('',*,*,#655,.T.);
#747 = ( GEOMETRIC_REPRESENTATION_CONTEXT(3) 
GLOBAL_UNCERTAINTY_ASSIGNED_CONTEXT((#751)) GLOBAL_UNIT_ASSIGNED_CONTEXT
((#748,#749,#750)) REPRESENTATION_CONTEXT('Context #1',
  '3D Context with UNIT and UNCERTAINTY') );
#748 = ( LENGTH_UNIT() NAMED_UNIT(*) SI_UNIT(.MILLI.,.METRE.) );
#749 = ( NAMED_UNIT(*) PLANE_ANGLE_UNIT() SI_UNIT($,.RADIAN.) );
#750 = ( NAMED_UNIT(*) SI_UNIT($,.STERADIAN.) SOLID_ANGLE_UNIT() );
#751 = UNCERTAINTY_MEASURE_WITH_UNIT(LENGTH_MEASURE(1.E-07),#748,
  'distance_accuracy_value','confusion accuracy');
#752 = PRODUCT_RELATED_PRODUCT_CATEGORY('part',$,(#7));
ENDSEC;
END-ISO-10303-21;
