ISO-10303-21;
HEADER;
FILE_DESCRIPTION(('Open CASCADE Model'),'2;1');
FILE_NAME('Open CASCADE Shape Model','2026-03-24T16:58:10',('Author'),(
    'Open CASCADE'),'Open CASCADE STEP processor 7.7','Open CASCADE 7.7'
  ,'Unknown');
FILE_SCHEMA(('AUTOMOTIVE_DESIGN { 1 0 10303 214 1 1 1 1 }'));
ENDSEC;
DATA;
#1 = APPLICATION_PROTOCOL_DEFINITION('international standard',
  'automotive_design',2000,#2);
#2 = APPLICATION_CONTEXT(
  'core data for automotive mechanical design processes');
#3 = SHAPE_DEFINITION_REPRESENTATION(#4,#10);
#4 = PRODUCT_DEFINITION_SHAPE('','',#5);
#5 = PRODUCT_DEFINITION('design','',#6,#9);
#6 = PRODUCT_DEFINITION_FORMATION('','',#7);
#7 = PRODUCT('Open CASCADE STEP translator 7.7 1',
  'Open CASCADE STEP translator 7.7 1','',(#8));
#8 = PRODUCT_CONTEXT('',#2,'mechanical');
#9 = PRODUCT_DEFINITION_CONTEXT('part definition',#2,'design');
#10 = ADVANCED_BREP_SHAPE_REPRESENTATION('',(#11,#15),#916);
#11 = AXIS2_PLACEMENT_3D('',#12,#13,#14);
#12 = CARTESIAN_POINT('',(0.,0.,0.));
#13 = DIRECTION('',(0.,0.,1.));
#14 = DIRECTION('',(1.,0.,-0.));
#15 = MANIFOLD_SOLID_BREP('',#16);
#16 = CLOSED_SHELL('',(#17,#409,#518,#522,#557,#617,#672,#728,#763,#767,
    #822,#857,#912));
#17 = ADVANCED_FACE('',(#18),#79,.T.);
#18 = FACE_BOUND('',#19,.T.);
#19 = EDGE_LOOP('',(#20,#196,#219,#246,#247));
#20 = ORIENTED_EDGE('',*,*,#21,.F.);
#21 = EDGE_CURVE('',#22,#24,#26,.T.);
#22 = VERTEX_POINT('',#23);
#23 = CARTESIAN_POINT('',(5.,19.364916731037,160.));
#24 = VERTEX_POINT('',#25);
#25 = CARTESIAN_POINT('',(1.224646799147E-15,20.,165.));
#26 = SURFACE_CURVE('',#27,(#78,#137),.PCURVE_S1.);
#27 = B_SPLINE_CURVE_WITH_KNOTS('',7,(#28,#29,#30,#31,#32,#33,#34,#35,
    #36,#37,#38,#39,#40,#41,#42,#43,#44,#45,#46,#47,#48,#49,#50,#51,#52,
    #53,#54,#55,#56,#57,#58,#59,#60,#61,#62,#63,#64,#65,#66,#67,#68,#69,
    #70,#71,#72,#73,#74,#75,#76,#77),.UNSPECIFIED.,.T.,.F.,(8,6,6,6,6,6,
    6,6,8),(0.,0.13883384163,0.24999999955,0.36116615747,0.499999999101,
    0.638833840731,0.749999998661,0.861166156583,1.),.UNSPECIFIED.);
#28 = CARTESIAN_POINT('',(5.,19.364916731037,160.));
#29 = CARTESIAN_POINT('',(5.,19.364916731037,160.53804979572));
#30 = CARTESIAN_POINT('',(4.932450196387,19.382357741342,161.07493927151
    ));
#31 = CARTESIAN_POINT('',(4.797878051644,19.417105437336,161.60594280119
    ));
#32 = CARTESIAN_POINT('',(4.594603790962,19.468004338152,162.12600441107
    ));
#33 = CARTESIAN_POINT('',(4.319433254205,19.532790463971,162.62826498311
    ));
#34 = CARTESIAN_POINT('',(3.967892232123,19.60736583727,163.10317557974)
  );
#35 = CARTESIAN_POINT('',(3.189338674259,19.747198184175,163.8817291376)
  );
#36 = CARTESIAN_POINT('',(2.781559740846,19.813104096149,164.21041104319
    ));
#37 = CARTESIAN_POINT('',(2.313438309552,19.877923627024,164.5022079695)
  );
#38 = CARTESIAN_POINT('',(1.790560736704,19.935070239933,164.74026296122
    ));
#39 = CARTESIAN_POINT('',(1.222219490337,19.977544021208,164.91018019437
    ));
#40 = CARTESIAN_POINT('',(0.620436970141,20.,165.));
#41 = CARTESIAN_POINT('',(-0.620436970141,20.,165.));
#42 = CARTESIAN_POINT('',(-1.222219490335,19.977544021208,
    164.91018019437));
#43 = CARTESIAN_POINT('',(-1.790560736705,19.935070239934,
    164.74026296122));
#44 = CARTESIAN_POINT('',(-2.313438309554,19.877923627023,
    164.50220796949));
#45 = CARTESIAN_POINT('',(-2.781559740844,19.81310409615,164.21041104319
    ));
#46 = CARTESIAN_POINT('',(-3.189338674259,19.747198184174,163.8817291376
    ));
#47 = CARTESIAN_POINT('',(-3.967892232123,19.60736583727,163.10317557974
    ));
#48 = CARTESIAN_POINT('',(-4.319433254203,19.532790463971,
    162.62826498311));
#49 = CARTESIAN_POINT('',(-4.594603790965,19.468004338152,
    162.12600441107));
#50 = CARTESIAN_POINT('',(-4.797878051642,19.417105437336,
    161.60594280118));
#51 = CARTESIAN_POINT('',(-4.932450196388,19.382357741342,
    161.07493927151));
#52 = CARTESIAN_POINT('',(-5.,19.364916731037,160.53804979572));
#53 = CARTESIAN_POINT('',(-5.,19.364916731037,159.46195020427));
#54 = CARTESIAN_POINT('',(-4.932450196388,19.382357741342,
    158.92506072848));
#55 = CARTESIAN_POINT('',(-4.797878051642,19.417105437336,
    158.39405719881));
#56 = CARTESIAN_POINT('',(-4.594603790964,19.468004338152,
    157.87399558892));
#57 = CARTESIAN_POINT('',(-4.319433254204,19.532790463971,
    157.37173501688));
#58 = CARTESIAN_POINT('',(-3.967892232123,19.60736583727,156.89682442025
    ));
#59 = CARTESIAN_POINT('',(-3.189338674232,19.747198184179,
    156.11827086236));
#60 = CARTESIAN_POINT('',(-2.781559740869,19.813104096144,
    155.78958895684));
#61 = CARTESIAN_POINT('',(-2.313438309589,19.87792362702,155.4977920305)
  );
#62 = CARTESIAN_POINT('',(-1.790560736671,19.935070239941,
    155.25973703874));
#63 = CARTESIAN_POINT('',(-1.222219490301,19.977544021205,
    155.08981980563));
#64 = CARTESIAN_POINT('',(-0.620436970179,20.,155.));
#65 = CARTESIAN_POINT('',(0.620436970141,20.,155.));
#66 = CARTESIAN_POINT('',(1.222219490336,19.977544021208,155.08981980562
    ));
#67 = CARTESIAN_POINT('',(1.790560736704,19.935070239934,155.25973703877
    ));
#68 = CARTESIAN_POINT('',(2.313438309555,19.877923627023,155.4977920305)
  );
#69 = CARTESIAN_POINT('',(2.781559740843,19.81310409615,155.7895889568)
  );
#70 = CARTESIAN_POINT('',(3.18933867426,19.747198184174,156.11827086239)
  );
#71 = CARTESIAN_POINT('',(3.967892237678,19.607365836273,156.89682442581
    ));
#72 = CARTESIAN_POINT('',(4.31943323731,19.532790467104,157.37173499356)
  );
#73 = CARTESIAN_POINT('',(4.594603814267,19.468004333718,157.87399563296
    ));
#74 = CARTESIAN_POINT('',(4.797878035154,19.417105440534,158.39405715327
    ));
#75 = CARTESIAN_POINT('',(4.932450201464,19.382357740344,158.92506075441
    ));
#76 = CARTESIAN_POINT('',(5.,19.364916731037,159.46195019747));
#77 = CARTESIAN_POINT('',(5.,19.364916731037,160.));
#78 = PCURVE('',#79,#84);
#79 = CYLINDRICAL_SURFACE('',#80,5.);
#80 = AXIS2_PLACEMENT_3D('',#81,#82,#83);
#81 = CARTESIAN_POINT('',(0.,40.,160.));
#82 = DIRECTION('',(0.,-1.,1.110223024625E-16));
#83 = DIRECTION('',(1.,0.,0.));
#84 = DEFINITIONAL_REPRESENTATION('',(#85),#136);
#85 = B_SPLINE_CURVE_WITH_KNOTS('',7,(#86,#87,#88,#89,#90,#91,#92,#93,
    #94,#95,#96,#97,#98,#99,#100,#101,#102,#103,#104,#105,#106,#107,#108
    ,#109,#110,#111,#112,#113,#114,#115,#116,#117,#118,#119,#120,#121,
    #122,#123,#124,#125,#126,#127,#128,#129,#130,#131,#132,#133,#134,
    #135),.UNSPECIFIED.,.F.,.F.,(8,6,6,6,6,6,6,6,8),(0.,0.13883384163,
    0.24999999955,0.36116615747,0.499999999101,0.638833840731,
    0.749999998661,0.861166156583,1.),.UNSPECIFIED.);
#86 = CARTESIAN_POINT('',(0.,20.635083268963));
#87 = CARTESIAN_POINT('',(0.107609959145,20.635083268963));
#88 = CARTESIAN_POINT('',(0.214987579276,20.617642258658));
#89 = CARTESIAN_POINT('',(0.32322493494,20.582894562664));
#90 = CARTESIAN_POINT('',(0.433300679932,20.531995661848));
#91 = CARTESIAN_POINT('',(0.546230402359,20.467209536029));
#92 = CARTESIAN_POINT('',(0.663108761657,20.39263416273));
#93 = CARTESIAN_POINT('',(0.88331696177,20.252801815825));
#94 = CARTESIAN_POINT('',(0.987468360671,20.186895903851));
#95 = CARTESIAN_POINT('',(1.096469815171,20.122076372976));
#96 = CARTESIAN_POINT('',(1.209563392392,20.064929760066));
#97 = CARTESIAN_POINT('',(1.32635246272,20.022455978792));
#98 = CARTESIAN_POINT('',(1.446708932767,20.));
#99 = CARTESIAN_POINT('',(1.694883720823,20.));
#100 = CARTESIAN_POINT('',(1.81524019087,20.022455978792));
#101 = CARTESIAN_POINT('',(1.932029261198,20.064929760066));
#102 = CARTESIAN_POINT('',(2.045122838419,20.122076372977));
#103 = CARTESIAN_POINT('',(2.154124292918,20.18689590385));
#104 = CARTESIAN_POINT('',(2.25827569182,20.252801815826));
#105 = CARTESIAN_POINT('',(2.478483891933,20.39263416273));
#106 = CARTESIAN_POINT('',(2.59536225123,20.467209536029));
#107 = CARTESIAN_POINT('',(2.708291973658,20.531995661848));
#108 = CARTESIAN_POINT('',(2.81836771865,20.582894562664));
#109 = CARTESIAN_POINT('',(2.926605074313,20.617642258658));
#110 = CARTESIAN_POINT('',(3.033982694445,20.635083268963));
#111 = CARTESIAN_POINT('',(3.249202612734,20.635083268963));
#112 = CARTESIAN_POINT('',(3.356580232866,20.617642258658));
#113 = CARTESIAN_POINT('',(3.46481758853,20.582894562664));
#114 = CARTESIAN_POINT('',(3.574893333521,20.531995661848));
#115 = CARTESIAN_POINT('',(3.687823055949,20.467209536029));
#116 = CARTESIAN_POINT('',(3.804701415247,20.39263416273));
#117 = CARTESIAN_POINT('',(4.024909615367,20.252801815821));
#118 = CARTESIAN_POINT('',(4.129061014253,20.186895903856));
#119 = CARTESIAN_POINT('',(4.238062468755,20.12207637298));
#120 = CARTESIAN_POINT('',(4.351156045988,20.064929760059));
#121 = CARTESIAN_POINT('',(4.467945116317,20.022455978795));
#122 = CARTESIAN_POINT('',(4.588301586349,20.));
#123 = CARTESIAN_POINT('',(4.836476374413,20.));
#124 = CARTESIAN_POINT('',(4.95683284446,20.022455978792));
#125 = CARTESIAN_POINT('',(5.073621914787,20.064929760066));
#126 = CARTESIAN_POINT('',(5.18671549201,20.122076372977));
#127 = CARTESIAN_POINT('',(5.295716946508,20.18689590385));
#128 = CARTESIAN_POINT('',(5.39986834541,20.252801815826));
#129 = CARTESIAN_POINT('',(5.620076547094,20.392634163727));
#130 = CARTESIAN_POINT('',(5.736954898829,20.467209532896));
#131 = CARTESIAN_POINT('',(5.849884637801,20.531995666282));
#132 = CARTESIAN_POINT('',(5.959960361949,20.582894559466));
#133 = CARTESIAN_POINT('',(6.068197733442,20.617642259656));
#134 = CARTESIAN_POINT('',(6.175575346675,20.635083268963));
#135 = CARTESIAN_POINT('',(6.28318530718,20.635083268963));
#136 = ( GEOMETRIC_REPRESENTATION_CONTEXT(2) 
PARAMETRIC_REPRESENTATION_CONTEXT() REPRESENTATION_CONTEXT('2D SPACE',''
  ) );
#137 = PCURVE('',#138,#143);
#138 = CYLINDRICAL_SURFACE('',#139,20.);
#139 = AXIS2_PLACEMENT_3D('',#140,#141,#142);
#140 = CARTESIAN_POINT('',(0.,0.,145.));
#141 = DIRECTION('',(0.,0.,1.));
#142 = DIRECTION('',(1.,0.,0.));
#143 = DEFINITIONAL_REPRESENTATION('',(#144),#195);
#144 = B_SPLINE_CURVE_WITH_KNOTS('',7,(#145,#146,#147,#148,#149,#150,
    #151,#152,#153,#154,#155,#156,#157,#158,#159,#160,#161,#162,#163,
    #164,#165,#166,#167,#168,#169,#170,#171,#172,#173,#174,#175,#176,
    #177,#178,#179,#180,#181,#182,#183,#184,#185,#186,#187,#188,#189,
    #190,#191,#192,#193,#194),.UNSPECIFIED.,.T.,.F.,(8,6,6,6,6,6,6,6,8),
  (0.,0.13883384163,0.24999999955,0.36116615747,0.499999999101,
    0.638833840731,0.749999998661,0.861166156583,1.),.UNSPECIFIED.);
#145 = CARTESIAN_POINT('',(1.318116071653,15.));
#146 = CARTESIAN_POINT('',(1.318116071653,15.538049795724));
#147 = CARTESIAN_POINT('',(1.321604319274,16.074939271512));
#148 = CARTESIAN_POINT('',(1.328553645138,16.605942801192));
#149 = CARTESIAN_POINT('',(1.339030746315,17.126004411073));
#150 = CARTESIAN_POINT('',(1.353162507096,17.628264983116));
#151 = CARTESIAN_POINT('',(1.371121901015,18.103175579743));
#152 = CARTESIAN_POINT('',(1.410672461306,18.881729137607));
#153 = CARTESIAN_POINT('',(1.431322809071,19.210411043192));
#154 = CARTESIAN_POINT('',(1.454942202235,19.502207969501));
#155 = CARTESIAN_POINT('',(1.481219672359,19.740262961227));
#156 = CARTESIAN_POINT('',(1.509685319932,19.910180194376));
#157 = CARTESIAN_POINT('',(1.539774478288,20.));
#158 = CARTESIAN_POINT('',(1.601818175302,20.));
#159 = CARTESIAN_POINT('',(1.631907333657,19.910180194376));
#160 = CARTESIAN_POINT('',(1.660372981231,19.740262961228));
#161 = CARTESIAN_POINT('',(1.686650451355,19.5022079695));
#162 = CARTESIAN_POINT('',(1.710269844519,19.210411043194));
#163 = CARTESIAN_POINT('',(1.730920192284,18.881729137606));
#164 = CARTESIAN_POINT('',(1.770470752574,18.103175579742));
#165 = CARTESIAN_POINT('',(1.788430146494,17.628264983117));
#166 = CARTESIAN_POINT('',(1.802561907275,17.126004411073));
#167 = CARTESIAN_POINT('',(1.813039008452,16.605942801187));
#168 = CARTESIAN_POINT('',(1.819988334316,16.074939271517));
#169 = CARTESIAN_POINT('',(1.823476581937,15.538049795722));
#170 = CARTESIAN_POINT('',(1.823476581937,14.461950204277));
#171 = CARTESIAN_POINT('',(1.819988334316,13.925060728485));
#172 = CARTESIAN_POINT('',(1.813039008452,13.39405719881));
#173 = CARTESIAN_POINT('',(1.802561907275,12.873995588927));
#174 = CARTESIAN_POINT('',(1.788430146494,12.371735016883));
#175 = CARTESIAN_POINT('',(1.770470752574,11.896824420258));
#176 = CARTESIAN_POINT('',(1.730920192283,11.118270862367));
#177 = CARTESIAN_POINT('',(1.71026984452,10.789588956844));
#178 = CARTESIAN_POINT('',(1.686650451357,10.497792030503));
#179 = CARTESIAN_POINT('',(1.66037298123,10.259737038745));
#180 = CARTESIAN_POINT('',(1.631907333656,10.089819805636));
#181 = CARTESIAN_POINT('',(1.601818175304,10.));
#182 = CARTESIAN_POINT('',(1.539774478288,10.));
#183 = CARTESIAN_POINT('',(1.509685319932,10.089819805625));
#184 = CARTESIAN_POINT('',(1.481219672359,10.25973703877));
#185 = CARTESIAN_POINT('',(1.454942202235,10.497792030503));
#186 = CARTESIAN_POINT('',(1.431322809071,10.789588956805));
#187 = CARTESIAN_POINT('',(1.410672461306,11.118270862394));
#188 = CARTESIAN_POINT('',(1.371121900733,11.896824425813));
#189 = CARTESIAN_POINT('',(1.353162507955,12.371734993566));
#190 = CARTESIAN_POINT('',(1.339030745129,12.873995632962));
#191 = CARTESIAN_POINT('',(1.328553645978,13.394057153279));
#192 = CARTESIAN_POINT('',(1.321604319015,13.925060754416));
#193 = CARTESIAN_POINT('',(1.318116071653,14.461950197477));
#194 = CARTESIAN_POINT('',(1.318116071653,15.));
#195 = ( GEOMETRIC_REPRESENTATION_CONTEXT(2) 
PARAMETRIC_REPRESENTATION_CONTEXT() REPRESENTATION_CONTEXT('2D SPACE',''
  ) );
#196 = ORIENTED_EDGE('',*,*,#197,.F.);
#197 = EDGE_CURVE('',#198,#22,#200,.T.);
#198 = VERTEX_POINT('',#199);
#199 = CARTESIAN_POINT('',(5.,40.,160.));
#200 = SEAM_CURVE('',#201,(#205,#212),.PCURVE_S1.);
#201 = LINE('',#202,#203);
#202 = CARTESIAN_POINT('',(5.,40.,160.));
#203 = VECTOR('',#204,1.);
#204 = DIRECTION('',(0.,-1.,1.110223024625E-16));
#205 = PCURVE('',#79,#206);
#206 = DEFINITIONAL_REPRESENTATION('',(#207),#211);
#207 = LINE('',#208,#209);
#208 = CARTESIAN_POINT('',(6.28318530718,-0.));
#209 = VECTOR('',#210,1.);
#210 = DIRECTION('',(0.,1.));
#211 = ( GEOMETRIC_REPRESENTATION_CONTEXT(2) 
PARAMETRIC_REPRESENTATION_CONTEXT() REPRESENTATION_CONTEXT('2D SPACE',''
  ) );
#212 = PCURVE('',#79,#213);
#213 = DEFINITIONAL_REPRESENTATION('',(#214),#218);
#214 = LINE('',#215,#216);
#215 = CARTESIAN_POINT('',(0.,-0.));
#216 = VECTOR('',#217,1.);
#217 = DIRECTION('',(0.,1.));
#218 = ( GEOMETRIC_REPRESENTATION_CONTEXT(2) 
PARAMETRIC_REPRESENTATION_CONTEXT() REPRESENTATION_CONTEXT('2D SPACE',''
  ) );
#219 = ORIENTED_EDGE('',*,*,#220,.T.);
#220 = EDGE_CURVE('',#198,#198,#221,.T.);
#221 = SURFACE_CURVE('',#222,(#227,#234),.PCURVE_S1.);
#222 = CIRCLE('',#223,5.);
#223 = AXIS2_PLACEMENT_3D('',#224,#225,#226);
#224 = CARTESIAN_POINT('',(0.,40.,160.));
#225 = DIRECTION('',(0.,-1.,1.110223024625E-16));
#226 = DIRECTION('',(1.,0.,0.));
#227 = PCURVE('',#79,#228);
#228 = DEFINITIONAL_REPRESENTATION('',(#229),#233);
#229 = LINE('',#230,#231);
#230 = CARTESIAN_POINT('',(0.,0.));
#231 = VECTOR('',#232,1.);
#232 = DIRECTION('',(1.,0.));
#233 = ( GEOMETRIC_REPRESENTATION_CONTEXT(2) 
PARAMETRIC_REPRESENTATION_CONTEXT() REPRESENTATION_CONTEXT('2D SPACE',''
  ) );
#234 = PCURVE('',#235,#240);
#235 = PLANE('',#236);
#236 = AXIS2_PLACEMENT_3D('',#237,#238,#239);
#237 = CARTESIAN_POINT('',(0.,40.,160.));
#238 = DIRECTION('',(0.,-1.,1.110223024625E-16));
#239 = DIRECTION('',(1.,0.,0.));
#240 = DEFINITIONAL_REPRESENTATION('',(#241),#245);
#241 = CIRCLE('',#242,5.);
#242 = AXIS2_PLACEMENT_2D('',#243,#244);
#243 = CARTESIAN_POINT('',(0.,0.));
#244 = DIRECTION('',(1.,0.));
#245 = ( GEOMETRIC_REPRESENTATION_CONTEXT(2) 
PARAMETRIC_REPRESENTATION_CONTEXT() REPRESENTATION_CONTEXT('2D SPACE',''
  ) );
#246 = ORIENTED_EDGE('',*,*,#197,.T.);
#247 = ORIENTED_EDGE('',*,*,#248,.F.);
#248 = EDGE_CURVE('',#24,#22,#249,.T.);
#249 = SURFACE_CURVE('',#250,(#301,#355),.PCURVE_S1.);
#250 = B_SPLINE_CURVE_WITH_KNOTS('',7,(#251,#252,#253,#254,#255,#256,
    #257,#258,#259,#260,#261,#262,#263,#264,#265,#266,#267,#268,#269,
    #270,#271,#272,#273,#274,#275,#276,#277,#278,#279,#280,#281,#282,
    #283,#284,#285,#286,#287,#288,#289,#290,#291,#292,#293,#294,#295,
    #296,#297,#298,#299,#300),.UNSPECIFIED.,.T.,.F.,(8,6,6,6,6,6,6,6,8),
  (0.,0.13883384163,0.24999999955,0.36116615747,0.499999999101,
    0.638833840731,0.749999998661,0.861166156583,1.),.UNSPECIFIED.);
#251 = CARTESIAN_POINT('',(5.,19.364916731037,160.));
#252 = CARTESIAN_POINT('',(5.,19.364916731037,160.53804979572));
#253 = CARTESIAN_POINT('',(4.932450196387,19.382357741342,
    161.07493927151));
#254 = CARTESIAN_POINT('',(4.797878051644,19.417105437336,
    161.60594280119));
#255 = CARTESIAN_POINT('',(4.594603790962,19.468004338152,
    162.12600441107));
#256 = CARTESIAN_POINT('',(4.319433254205,19.532790463971,
    162.62826498311));
#257 = CARTESIAN_POINT('',(3.967892232123,19.60736583727,163.10317557974
    ));
#258 = CARTESIAN_POINT('',(3.189338674259,19.747198184175,163.8817291376
    ));
#259 = CARTESIAN_POINT('',(2.781559740846,19.813104096149,
    164.21041104319));
#260 = CARTESIAN_POINT('',(2.313438309552,19.877923627024,164.5022079695
    ));
#261 = CARTESIAN_POINT('',(1.790560736704,19.935070239933,
    164.74026296122));
#262 = CARTESIAN_POINT('',(1.222219490337,19.977544021208,
    164.91018019437));
#263 = CARTESIAN_POINT('',(0.620436970141,20.,165.));
#264 = CARTESIAN_POINT('',(-0.620436970141,20.,165.));
#265 = CARTESIAN_POINT('',(-1.222219490335,19.977544021208,
    164.91018019437));
#266 = CARTESIAN_POINT('',(-1.790560736705,19.935070239934,
    164.74026296122));
#267 = CARTESIAN_POINT('',(-2.313438309554,19.877923627023,
    164.50220796949));
#268 = CARTESIAN_POINT('',(-2.781559740844,19.81310409615,
    164.21041104319));
#269 = CARTESIAN_POINT('',(-3.189338674259,19.747198184174,
    163.8817291376));
#270 = CARTESIAN_POINT('',(-3.967892232123,19.60736583727,
    163.10317557974));
#271 = CARTESIAN_POINT('',(-4.319433254203,19.532790463971,
    162.62826498311));
#272 = CARTESIAN_POINT('',(-4.594603790965,19.468004338152,
    162.12600441107));
#273 = CARTESIAN_POINT('',(-4.797878051642,19.417105437336,
    161.60594280118));
#274 = CARTESIAN_POINT('',(-4.932450196388,19.382357741342,
    161.07493927151));
#275 = CARTESIAN_POINT('',(-5.,19.364916731037,160.53804979572));
#276 = CARTESIAN_POINT('',(-5.,19.364916731037,159.46195020427));
#277 = CARTESIAN_POINT('',(-4.932450196388,19.382357741342,
    158.92506072848));
#278 = CARTESIAN_POINT('',(-4.797878051642,19.417105437336,
    158.39405719881));
#279 = CARTESIAN_POINT('',(-4.594603790964,19.468004338152,
    157.87399558892));
#280 = CARTESIAN_POINT('',(-4.319433254204,19.532790463971,
    157.37173501688));
#281 = CARTESIAN_POINT('',(-3.967892232123,19.60736583727,
    156.89682442025));
#282 = CARTESIAN_POINT('',(-3.189338674232,19.747198184179,
    156.11827086236));
#283 = CARTESIAN_POINT('',(-2.781559740869,19.813104096144,
    155.78958895684));
#284 = CARTESIAN_POINT('',(-2.313438309589,19.87792362702,155.4977920305
    ));
#285 = CARTESIAN_POINT('',(-1.790560736671,19.935070239941,
    155.25973703874));
#286 = CARTESIAN_POINT('',(-1.222219490301,19.977544021205,
    155.08981980563));
#287 = CARTESIAN_POINT('',(-0.620436970179,20.,155.));
#288 = CARTESIAN_POINT('',(0.620436970141,20.,155.));
#289 = CARTESIAN_POINT('',(1.222219490336,19.977544021208,
    155.08981980562));
#290 = CARTESIAN_POINT('',(1.790560736704,19.935070239934,
    155.25973703877));
#291 = CARTESIAN_POINT('',(2.313438309555,19.877923627023,155.4977920305
    ));
#292 = CARTESIAN_POINT('',(2.781559740843,19.81310409615,155.7895889568)
  );
#293 = CARTESIAN_POINT('',(3.18933867426,19.747198184174,156.11827086239
    ));
#294 = CARTESIAN_POINT('',(3.967892237678,19.607365836273,
    156.89682442581));
#295 = CARTESIAN_POINT('',(4.31943323731,19.532790467104,157.37173499356
    ));
#296 = CARTESIAN_POINT('',(4.594603814267,19.468004333718,
    157.87399563296));
#297 = CARTESIAN_POINT('',(4.797878035154,19.417105440534,
    158.39405715327));
#298 = CARTESIAN_POINT('',(4.932450201464,19.382357740344,
    158.92506075441));
#299 = CARTESIAN_POINT('',(5.,19.364916731037,159.46195019747));
#300 = CARTESIAN_POINT('',(5.,19.364916731037,160.));
#301 = PCURVE('',#79,#302);
#302 = DEFINITIONAL_REPRESENTATION('',(#303),#354);
#303 = B_SPLINE_CURVE_WITH_KNOTS('',7,(#304,#305,#306,#307,#308,#309,
    #310,#311,#312,#313,#314,#315,#316,#317,#318,#319,#320,#321,#322,
    #323,#324,#325,#326,#327,#328,#329,#330,#331,#332,#333,#334,#335,
    #336,#337,#338,#339,#340,#341,#342,#343,#344,#345,#346,#347,#348,
    #349,#350,#351,#352,#353),.UNSPECIFIED.,.F.,.F.,(8,6,6,6,6,6,6,6,8),
  (0.,0.13883384163,0.24999999955,0.36116615747,0.499999999101,
    0.638833840731,0.749999998661,0.861166156583,1.),.UNSPECIFIED.);
#304 = CARTESIAN_POINT('',(0.,20.635083268963));
#305 = CARTESIAN_POINT('',(0.107609959145,20.635083268963));
#306 = CARTESIAN_POINT('',(0.214987579276,20.617642258658));
#307 = CARTESIAN_POINT('',(0.32322493494,20.582894562664));
#308 = CARTESIAN_POINT('',(0.433300679932,20.531995661848));
#309 = CARTESIAN_POINT('',(0.546230402359,20.467209536029));
#310 = CARTESIAN_POINT('',(0.663108761657,20.39263416273));
#311 = CARTESIAN_POINT('',(0.88331696177,20.252801815825));
#312 = CARTESIAN_POINT('',(0.987468360671,20.186895903851));
#313 = CARTESIAN_POINT('',(1.096469815171,20.122076372976));
#314 = CARTESIAN_POINT('',(1.209563392392,20.064929760066));
#315 = CARTESIAN_POINT('',(1.32635246272,20.022455978792));
#316 = CARTESIAN_POINT('',(1.446708932767,20.));
#317 = CARTESIAN_POINT('',(1.694883720823,20.));
#318 = CARTESIAN_POINT('',(1.81524019087,20.022455978792));
#319 = CARTESIAN_POINT('',(1.932029261198,20.064929760066));
#320 = CARTESIAN_POINT('',(2.045122838419,20.122076372977));
#321 = CARTESIAN_POINT('',(2.154124292918,20.18689590385));
#322 = CARTESIAN_POINT('',(2.25827569182,20.252801815826));
#323 = CARTESIAN_POINT('',(2.478483891933,20.39263416273));
#324 = CARTESIAN_POINT('',(2.59536225123,20.467209536029));
#325 = CARTESIAN_POINT('',(2.708291973658,20.531995661848));
#326 = CARTESIAN_POINT('',(2.81836771865,20.582894562664));
#327 = CARTESIAN_POINT('',(2.926605074313,20.617642258658));
#328 = CARTESIAN_POINT('',(3.033982694445,20.635083268963));
#329 = CARTESIAN_POINT('',(3.249202612734,20.635083268963));
#330 = CARTESIAN_POINT('',(3.356580232866,20.617642258658));
#331 = CARTESIAN_POINT('',(3.46481758853,20.582894562664));
#332 = CARTESIAN_POINT('',(3.574893333521,20.531995661848));
#333 = CARTESIAN_POINT('',(3.687823055949,20.467209536029));
#334 = CARTESIAN_POINT('',(3.804701415247,20.39263416273));
#335 = CARTESIAN_POINT('',(4.024909615367,20.252801815821));
#336 = CARTESIAN_POINT('',(4.129061014253,20.186895903856));
#337 = CARTESIAN_POINT('',(4.238062468755,20.12207637298));
#338 = CARTESIAN_POINT('',(4.351156045988,20.064929760059));
#339 = CARTESIAN_POINT('',(4.467945116317,20.022455978795));
#340 = CARTESIAN_POINT('',(4.588301586349,20.));
#341 = CARTESIAN_POINT('',(4.836476374413,20.));
#342 = CARTESIAN_POINT('',(4.95683284446,20.022455978792));
#343 = CARTESIAN_POINT('',(5.073621914787,20.064929760066));
#344 = CARTESIAN_POINT('',(5.18671549201,20.122076372977));
#345 = CARTESIAN_POINT('',(5.295716946508,20.18689590385));
#346 = CARTESIAN_POINT('',(5.39986834541,20.252801815826));
#347 = CARTESIAN_POINT('',(5.620076547094,20.392634163727));
#348 = CARTESIAN_POINT('',(5.736954898829,20.467209532896));
#349 = CARTESIAN_POINT('',(5.849884637801,20.531995666282));
#350 = CARTESIAN_POINT('',(5.959960361949,20.582894559466));
#351 = CARTESIAN_POINT('',(6.068197733442,20.617642259656));
#352 = CARTESIAN_POINT('',(6.175575346675,20.635083268963));
#353 = CARTESIAN_POINT('',(6.28318530718,20.635083268963));
#354 = ( GEOMETRIC_REPRESENTATION_CONTEXT(2) 
PARAMETRIC_REPRESENTATION_CONTEXT() REPRESENTATION_CONTEXT('2D SPACE',''
  ) );
#355 = PCURVE('',#138,#356);
#356 = DEFINITIONAL_REPRESENTATION('',(#357),#408);
#357 = B_SPLINE_CURVE_WITH_KNOTS('',7,(#358,#359,#360,#361,#362,#363,
    #364,#365,#366,#367,#368,#369,#370,#371,#372,#373,#374,#375,#376,
    #377,#378,#379,#380,#381,#382,#383,#384,#385,#386,#387,#388,#389,
    #390,#391,#392,#393,#394,#395,#396,#397,#398,#399,#400,#401,#402,
    #403,#404,#405,#406,#407),.UNSPECIFIED.,.T.,.F.,(8,6,6,6,6,6,6,6,8),
  (0.,0.13883384163,0.24999999955,0.36116615747,0.499999999101,
    0.638833840731,0.749999998661,0.861166156583,1.),.UNSPECIFIED.);
#358 = CARTESIAN_POINT('',(1.318116071653,15.));
#359 = CARTESIAN_POINT('',(1.318116071653,15.538049795724));
#360 = CARTESIAN_POINT('',(1.321604319274,16.074939271512));
#361 = CARTESIAN_POINT('',(1.328553645138,16.605942801192));
#362 = CARTESIAN_POINT('',(1.339030746315,17.126004411073));
#363 = CARTESIAN_POINT('',(1.353162507096,17.628264983116));
#364 = CARTESIAN_POINT('',(1.371121901015,18.103175579743));
#365 = CARTESIAN_POINT('',(1.410672461306,18.881729137607));
#366 = CARTESIAN_POINT('',(1.431322809071,19.210411043192));
#367 = CARTESIAN_POINT('',(1.454942202235,19.502207969501));
#368 = CARTESIAN_POINT('',(1.481219672359,19.740262961227));
#369 = CARTESIAN_POINT('',(1.509685319932,19.910180194376));
#370 = CARTESIAN_POINT('',(1.539774478288,20.));
#371 = CARTESIAN_POINT('',(1.601818175302,20.));
#372 = CARTESIAN_POINT('',(1.631907333657,19.910180194376));
#373 = CARTESIAN_POINT('',(1.660372981231,19.740262961228));
#374 = CARTESIAN_POINT('',(1.686650451355,19.5022079695));
#375 = CARTESIAN_POINT('',(1.710269844519,19.210411043194));
#376 = CARTESIAN_POINT('',(1.730920192284,18.881729137606));
#377 = CARTESIAN_POINT('',(1.770470752574,18.103175579742));
#378 = CARTESIAN_POINT('',(1.788430146494,17.628264983117));
#379 = CARTESIAN_POINT('',(1.802561907275,17.126004411073));
#380 = CARTESIAN_POINT('',(1.813039008452,16.605942801187));
#381 = CARTESIAN_POINT('',(1.819988334316,16.074939271517));
#382 = CARTESIAN_POINT('',(1.823476581937,15.538049795722));
#383 = CARTESIAN_POINT('',(1.823476581937,14.461950204277));
#384 = CARTESIAN_POINT('',(1.819988334316,13.925060728485));
#385 = CARTESIAN_POINT('',(1.813039008452,13.39405719881));
#386 = CARTESIAN_POINT('',(1.802561907275,12.873995588927));
#387 = CARTESIAN_POINT('',(1.788430146494,12.371735016883));
#388 = CARTESIAN_POINT('',(1.770470752574,11.896824420258));
#389 = CARTESIAN_POINT('',(1.730920192283,11.118270862367));
#390 = CARTESIAN_POINT('',(1.71026984452,10.789588956844));
#391 = CARTESIAN_POINT('',(1.686650451357,10.497792030503));
#392 = CARTESIAN_POINT('',(1.66037298123,10.259737038745));
#393 = CARTESIAN_POINT('',(1.631907333656,10.089819805636));
#394 = CARTESIAN_POINT('',(1.601818175304,10.));
#395 = CARTESIAN_POINT('',(1.539774478288,10.));
#396 = CARTESIAN_POINT('',(1.509685319932,10.089819805625));
#397 = CARTESIAN_POINT('',(1.481219672359,10.25973703877));
#398 = CARTESIAN_POINT('',(1.454942202235,10.497792030503));
#399 = CARTESIAN_POINT('',(1.431322809071,10.789588956805));
#400 = CARTESIAN_POINT('',(1.410672461306,11.118270862394));
#401 = CARTESIAN_POINT('',(1.371121900733,11.896824425813));
#402 = CARTESIAN_POINT('',(1.353162507955,12.371734993566));
#403 = CARTESIAN_POINT('',(1.339030745129,12.873995632962));
#404 = CARTESIAN_POINT('',(1.328553645978,13.394057153279));
#405 = CARTESIAN_POINT('',(1.321604319015,13.925060754416));
#406 = CARTESIAN_POINT('',(1.318116071653,14.461950197477));
#407 = CARTESIAN_POINT('',(1.318116071653,15.));
#408 = ( GEOMETRIC_REPRESENTATION_CONTEXT(2) 
PARAMETRIC_REPRESENTATION_CONTEXT() REPRESENTATION_CONTEXT('2D SPACE',''
  ) );
#409 = ADVANCED_FACE('',(#410,#514),#138,.T.);
#410 = FACE_BOUND('',#411,.T.);
#411 = EDGE_LOOP('',(#412,#437,#464,#486,#487));
#412 = ORIENTED_EDGE('',*,*,#413,.T.);
#413 = EDGE_CURVE('',#414,#416,#418,.T.);
#414 = VERTEX_POINT('',#415);
#415 = CARTESIAN_POINT('',(20.,-4.898587196589E-15,145.));
#416 = VERTEX_POINT('',#417);
#417 = CARTESIAN_POINT('',(20.,-4.898587196589E-15,165.));
#418 = SEAM_CURVE('',#419,(#423,#430),.PCURVE_S1.);
#419 = LINE('',#420,#421);
#420 = CARTESIAN_POINT('',(20.,-4.898587196589E-15,145.));
#421 = VECTOR('',#422,1.);
#422 = DIRECTION('',(0.,0.,1.));
#423 = PCURVE('',#138,#424);
#424 = DEFINITIONAL_REPRESENTATION('',(#425),#429);
#425 = LINE('',#426,#427);
#426 = CARTESIAN_POINT('',(6.28318530718,-0.));
#427 = VECTOR('',#428,1.);
#428 = DIRECTION('',(0.,1.));
#429 = ( GEOMETRIC_REPRESENTATION_CONTEXT(2) 
PARAMETRIC_REPRESENTATION_CONTEXT() REPRESENTATION_CONTEXT('2D SPACE',''
  ) );
#430 = PCURVE('',#138,#431);
#431 = DEFINITIONAL_REPRESENTATION('',(#432),#436);
#432 = LINE('',#433,#434);
#433 = CARTESIAN_POINT('',(0.,-0.));
#434 = VECTOR('',#435,1.);
#435 = DIRECTION('',(0.,1.));
#436 = ( GEOMETRIC_REPRESENTATION_CONTEXT(2) 
PARAMETRIC_REPRESENTATION_CONTEXT() REPRESENTATION_CONTEXT('2D SPACE',''
  ) );
#437 = ORIENTED_EDGE('',*,*,#438,.F.);
#438 = EDGE_CURVE('',#24,#416,#439,.T.);
#439 = SURFACE_CURVE('',#440,(#445,#452),.PCURVE_S1.);
#440 = CIRCLE('',#441,20.);
#441 = AXIS2_PLACEMENT_3D('',#442,#443,#444);
#442 = CARTESIAN_POINT('',(0.,0.,165.));
#443 = DIRECTION('',(0.,0.,1.));
#444 = DIRECTION('',(1.,0.,0.));
#445 = PCURVE('',#138,#446);
#446 = DEFINITIONAL_REPRESENTATION('',(#447),#451);
#447 = LINE('',#448,#449);
#448 = CARTESIAN_POINT('',(0.,20.));
#449 = VECTOR('',#450,1.);
#450 = DIRECTION('',(1.,0.));
#451 = ( GEOMETRIC_REPRESENTATION_CONTEXT(2) 
PARAMETRIC_REPRESENTATION_CONTEXT() REPRESENTATION_CONTEXT('2D SPACE',''
  ) );
#452 = PCURVE('',#453,#458);
#453 = PLANE('',#454);
#454 = AXIS2_PLACEMENT_3D('',#455,#456,#457);
#455 = CARTESIAN_POINT('',(0.,0.,165.));
#456 = DIRECTION('',(0.,0.,1.));
#457 = DIRECTION('',(1.,0.,0.));
#458 = DEFINITIONAL_REPRESENTATION('',(#459),#463);
#459 = CIRCLE('',#460,20.);
#460 = AXIS2_PLACEMENT_2D('',#461,#462);
#461 = CARTESIAN_POINT('',(0.,0.));
#462 = DIRECTION('',(1.,0.));
#463 = ( GEOMETRIC_REPRESENTATION_CONTEXT(2) 
PARAMETRIC_REPRESENTATION_CONTEXT() REPRESENTATION_CONTEXT('2D SPACE',''
  ) );
#464 = ORIENTED_EDGE('',*,*,#465,.F.);
#465 = EDGE_CURVE('',#416,#24,#466,.T.);
#466 = SURFACE_CURVE('',#467,(#472,#479),.PCURVE_S1.);
#467 = CIRCLE('',#468,20.);
#468 = AXIS2_PLACEMENT_3D('',#469,#470,#471);
#469 = CARTESIAN_POINT('',(0.,0.,165.));
#470 = DIRECTION('',(0.,0.,1.));
#471 = DIRECTION('',(1.,0.,0.));
#472 = PCURVE('',#138,#473);
#473 = DEFINITIONAL_REPRESENTATION('',(#474),#478);
#474 = LINE('',#475,#476);
#475 = CARTESIAN_POINT('',(0.,20.));
#476 = VECTOR('',#477,1.);
#477 = DIRECTION('',(1.,0.));
#478 = ( GEOMETRIC_REPRESENTATION_CONTEXT(2) 
PARAMETRIC_REPRESENTATION_CONTEXT() REPRESENTATION_CONTEXT('2D SPACE',''
  ) );
#479 = PCURVE('',#453,#480);
#480 = DEFINITIONAL_REPRESENTATION('',(#481),#485);
#481 = CIRCLE('',#482,20.);
#482 = AXIS2_PLACEMENT_2D('',#483,#484);
#483 = CARTESIAN_POINT('',(0.,0.));
#484 = DIRECTION('',(1.,0.));
#485 = ( GEOMETRIC_REPRESENTATION_CONTEXT(2) 
PARAMETRIC_REPRESENTATION_CONTEXT() REPRESENTATION_CONTEXT('2D SPACE',''
  ) );
#486 = ORIENTED_EDGE('',*,*,#413,.F.);
#487 = ORIENTED_EDGE('',*,*,#488,.T.);
#488 = EDGE_CURVE('',#414,#414,#489,.T.);
#489 = SURFACE_CURVE('',#490,(#495,#502),.PCURVE_S1.);
#490 = CIRCLE('',#491,20.);
#491 = AXIS2_PLACEMENT_3D('',#492,#493,#494);
#492 = CARTESIAN_POINT('',(0.,0.,145.));
#493 = DIRECTION('',(0.,0.,1.));
#494 = DIRECTION('',(1.,0.,0.));
#495 = PCURVE('',#138,#496);
#496 = DEFINITIONAL_REPRESENTATION('',(#497),#501);
#497 = LINE('',#498,#499);
#498 = CARTESIAN_POINT('',(0.,0.));
#499 = VECTOR('',#500,1.);
#500 = DIRECTION('',(1.,0.));
#501 = ( GEOMETRIC_REPRESENTATION_CONTEXT(2) 
PARAMETRIC_REPRESENTATION_CONTEXT() REPRESENTATION_CONTEXT('2D SPACE',''
  ) );
#502 = PCURVE('',#503,#508);
#503 = PLANE('',#504);
#504 = AXIS2_PLACEMENT_3D('',#505,#506,#507);
#505 = CARTESIAN_POINT('',(0.,0.,145.));
#506 = DIRECTION('',(0.,0.,1.));
#507 = DIRECTION('',(1.,0.,0.));
#508 = DEFINITIONAL_REPRESENTATION('',(#509),#513);
#509 = CIRCLE('',#510,20.);
#510 = AXIS2_PLACEMENT_2D('',#511,#512);
#511 = CARTESIAN_POINT('',(0.,0.));
#512 = DIRECTION('',(1.,0.));
#513 = ( GEOMETRIC_REPRESENTATION_CONTEXT(2) 
PARAMETRIC_REPRESENTATION_CONTEXT() REPRESENTATION_CONTEXT('2D SPACE',''
  ) );
#514 = FACE_BOUND('',#515,.T.);
#515 = EDGE_LOOP('',(#516,#517));
#516 = ORIENTED_EDGE('',*,*,#21,.T.);
#517 = ORIENTED_EDGE('',*,*,#248,.T.);
#518 = ADVANCED_FACE('',(#519),#235,.F.);
#519 = FACE_BOUND('',#520,.T.);
#520 = EDGE_LOOP('',(#521));
#521 = ORIENTED_EDGE('',*,*,#220,.F.);
#522 = ADVANCED_FACE('',(#523,#554),#503,.T.);
#523 = FACE_BOUND('',#524,.T.);
#524 = EDGE_LOOP('',(#525));
#525 = ORIENTED_EDGE('',*,*,#526,.T.);
#526 = EDGE_CURVE('',#527,#527,#529,.T.);
#527 = VERTEX_POINT('',#528);
#528 = CARTESIAN_POINT('',(28.,-6.858022075225E-15,145.));
#529 = SURFACE_CURVE('',#530,(#535,#542),.PCURVE_S1.);
#530 = CIRCLE('',#531,28.);
#531 = AXIS2_PLACEMENT_3D('',#532,#533,#534);
#532 = CARTESIAN_POINT('',(0.,0.,145.));
#533 = DIRECTION('',(0.,0.,1.));
#534 = DIRECTION('',(1.,0.,0.));
#535 = PCURVE('',#503,#536);
#536 = DEFINITIONAL_REPRESENTATION('',(#537),#541);
#537 = CIRCLE('',#538,28.);
#538 = AXIS2_PLACEMENT_2D('',#539,#540);
#539 = CARTESIAN_POINT('',(0.,0.));
#540 = DIRECTION('',(1.,0.));
#541 = ( GEOMETRIC_REPRESENTATION_CONTEXT(2) 
PARAMETRIC_REPRESENTATION_CONTEXT() REPRESENTATION_CONTEXT('2D SPACE',''
  ) );
#542 = PCURVE('',#543,#548);
#543 = CYLINDRICAL_SURFACE('',#544,28.);
#544 = AXIS2_PLACEMENT_3D('',#545,#546,#547);
#545 = CARTESIAN_POINT('',(0.,0.,135.));
#546 = DIRECTION('',(0.,0.,1.));
#547 = DIRECTION('',(1.,0.,0.));
#548 = DEFINITIONAL_REPRESENTATION('',(#549),#553);
#549 = LINE('',#550,#551);
#550 = CARTESIAN_POINT('',(0.,10.));
#551 = VECTOR('',#552,1.);
#552 = DIRECTION('',(1.,0.));
#553 = ( GEOMETRIC_REPRESENTATION_CONTEXT(2) 
PARAMETRIC_REPRESENTATION_CONTEXT() REPRESENTATION_CONTEXT('2D SPACE',''
  ) );
#554 = FACE_BOUND('',#555,.T.);
#555 = EDGE_LOOP('',(#556));
#556 = ORIENTED_EDGE('',*,*,#488,.F.);
#557 = ADVANCED_FACE('',(#558,#562),#453,.T.);
#558 = FACE_BOUND('',#559,.T.);
#559 = EDGE_LOOP('',(#560,#561));
#560 = ORIENTED_EDGE('',*,*,#438,.T.);
#561 = ORIENTED_EDGE('',*,*,#465,.T.);
#562 = FACE_BOUND('',#563,.T.);
#563 = EDGE_LOOP('',(#564,#595));
#564 = ORIENTED_EDGE('',*,*,#565,.F.);
#565 = EDGE_CURVE('',#566,#568,#570,.T.);
#566 = VERTEX_POINT('',#567);
#567 = CARTESIAN_POINT('',(9.184850993605E-16,15.,165.));
#568 = VERTEX_POINT('',#569);
#569 = CARTESIAN_POINT('',(15.,-3.673940397442E-15,165.));
#570 = SURFACE_CURVE('',#571,(#576,#583),.PCURVE_S1.);
#571 = CIRCLE('',#572,15.);
#572 = AXIS2_PLACEMENT_3D('',#573,#574,#575);
#573 = CARTESIAN_POINT('',(0.,0.,165.));
#574 = DIRECTION('',(0.,0.,1.));
#575 = DIRECTION('',(1.,0.,0.));
#576 = PCURVE('',#453,#577);
#577 = DEFINITIONAL_REPRESENTATION('',(#578),#582);
#578 = CIRCLE('',#579,15.);
#579 = AXIS2_PLACEMENT_2D('',#580,#581);
#580 = CARTESIAN_POINT('',(0.,0.));
#581 = DIRECTION('',(1.,0.));
#582 = ( GEOMETRIC_REPRESENTATION_CONTEXT(2) 
PARAMETRIC_REPRESENTATION_CONTEXT() REPRESENTATION_CONTEXT('2D SPACE',''
  ) );
#583 = PCURVE('',#584,#589);
#584 = CYLINDRICAL_SURFACE('',#585,15.);
#585 = AXIS2_PLACEMENT_3D('',#586,#587,#588);
#586 = CARTESIAN_POINT('',(0.,0.,165.));
#587 = DIRECTION('',(0.,0.,1.));
#588 = DIRECTION('',(1.,0.,0.));
#589 = DEFINITIONAL_REPRESENTATION('',(#590),#594);
#590 = LINE('',#591,#592);
#591 = CARTESIAN_POINT('',(0.,0.));
#592 = VECTOR('',#593,1.);
#593 = DIRECTION('',(1.,0.));
#594 = ( GEOMETRIC_REPRESENTATION_CONTEXT(2) 
PARAMETRIC_REPRESENTATION_CONTEXT() REPRESENTATION_CONTEXT('2D SPACE',''
  ) );
#595 = ORIENTED_EDGE('',*,*,#596,.F.);
#596 = EDGE_CURVE('',#568,#566,#597,.T.);
#597 = SURFACE_CURVE('',#598,(#603,#610),.PCURVE_S1.);
#598 = CIRCLE('',#599,15.);
#599 = AXIS2_PLACEMENT_3D('',#600,#601,#602);
#600 = CARTESIAN_POINT('',(0.,0.,165.));
#601 = DIRECTION('',(0.,0.,1.));
#602 = DIRECTION('',(1.,0.,0.));
#603 = PCURVE('',#453,#604);
#604 = DEFINITIONAL_REPRESENTATION('',(#605),#609);
#605 = CIRCLE('',#606,15.);
#606 = AXIS2_PLACEMENT_2D('',#607,#608);
#607 = CARTESIAN_POINT('',(0.,0.));
#608 = DIRECTION('',(1.,0.));
#609 = ( GEOMETRIC_REPRESENTATION_CONTEXT(2) 
PARAMETRIC_REPRESENTATION_CONTEXT() REPRESENTATION_CONTEXT('2D SPACE',''
  ) );
#610 = PCURVE('',#584,#611);
#611 = DEFINITIONAL_REPRESENTATION('',(#612),#616);
#612 = LINE('',#613,#614);
#613 = CARTESIAN_POINT('',(0.,0.));
#614 = VECTOR('',#615,1.);
#615 = DIRECTION('',(1.,0.));
#616 = ( GEOMETRIC_REPRESENTATION_CONTEXT(2) 
PARAMETRIC_REPRESENTATION_CONTEXT() REPRESENTATION_CONTEXT('2D SPACE',''
  ) );
#617 = ADVANCED_FACE('',(#618),#543,.T.);
#618 = FACE_BOUND('',#619,.T.);
#619 = EDGE_LOOP('',(#620,#621,#644,#671));
#620 = ORIENTED_EDGE('',*,*,#526,.F.);
#621 = ORIENTED_EDGE('',*,*,#622,.F.);
#622 = EDGE_CURVE('',#623,#527,#625,.T.);
#623 = VERTEX_POINT('',#624);
#624 = CARTESIAN_POINT('',(28.,-6.858022075225E-15,135.));
#625 = SEAM_CURVE('',#626,(#630,#637),.PCURVE_S1.);
#626 = LINE('',#627,#628);
#627 = CARTESIAN_POINT('',(28.,-6.858022075225E-15,135.));
#628 = VECTOR('',#629,1.);
#629 = DIRECTION('',(0.,0.,1.));
#630 = PCURVE('',#543,#631);
#631 = DEFINITIONAL_REPRESENTATION('',(#632),#636);
#632 = LINE('',#633,#634);
#633 = CARTESIAN_POINT('',(6.28318530718,-0.));
#634 = VECTOR('',#635,1.);
#635 = DIRECTION('',(0.,1.));
#636 = ( GEOMETRIC_REPRESENTATION_CONTEXT(2) 
PARAMETRIC_REPRESENTATION_CONTEXT() REPRESENTATION_CONTEXT('2D SPACE',''
  ) );
#637 = PCURVE('',#543,#638);
#638 = DEFINITIONAL_REPRESENTATION('',(#639),#643);
#639 = LINE('',#640,#641);
#640 = CARTESIAN_POINT('',(0.,-0.));
#641 = VECTOR('',#642,1.);
#642 = DIRECTION('',(0.,1.));
#643 = ( GEOMETRIC_REPRESENTATION_CONTEXT(2) 
PARAMETRIC_REPRESENTATION_CONTEXT() REPRESENTATION_CONTEXT('2D SPACE',''
  ) );
#644 = ORIENTED_EDGE('',*,*,#645,.T.);
#645 = EDGE_CURVE('',#623,#623,#646,.T.);
#646 = SURFACE_CURVE('',#647,(#652,#659),.PCURVE_S1.);
#647 = CIRCLE('',#648,28.);
#648 = AXIS2_PLACEMENT_3D('',#649,#650,#651);
#649 = CARTESIAN_POINT('',(0.,0.,135.));
#650 = DIRECTION('',(0.,0.,1.));
#651 = DIRECTION('',(1.,0.,0.));
#652 = PCURVE('',#543,#653);
#653 = DEFINITIONAL_REPRESENTATION('',(#654),#658);
#654 = LINE('',#655,#656);
#655 = CARTESIAN_POINT('',(0.,0.));
#656 = VECTOR('',#657,1.);
#657 = DIRECTION('',(1.,0.));
#658 = ( GEOMETRIC_REPRESENTATION_CONTEXT(2) 
PARAMETRIC_REPRESENTATION_CONTEXT() REPRESENTATION_CONTEXT('2D SPACE',''
  ) );
#659 = PCURVE('',#660,#665);
#660 = PLANE('',#661);
#661 = AXIS2_PLACEMENT_3D('',#662,#663,#664);
#662 = CARTESIAN_POINT('',(0.,0.,135.));
#663 = DIRECTION('',(0.,0.,1.));
#664 = DIRECTION('',(1.,0.,0.));
#665 = DEFINITIONAL_REPRESENTATION('',(#666),#670);
#666 = CIRCLE('',#667,28.);
#667 = AXIS2_PLACEMENT_2D('',#668,#669);
#668 = CARTESIAN_POINT('',(0.,0.));
#669 = DIRECTION('',(1.,0.));
#670 = ( GEOMETRIC_REPRESENTATION_CONTEXT(2) 
PARAMETRIC_REPRESENTATION_CONTEXT() REPRESENTATION_CONTEXT('2D SPACE',''
  ) );
#671 = ORIENTED_EDGE('',*,*,#622,.T.);
#672 = ADVANCED_FACE('',(#673),#584,.T.);
#673 = FACE_BOUND('',#674,.T.);
#674 = EDGE_LOOP('',(#675,#698,#725,#726,#727));
#675 = ORIENTED_EDGE('',*,*,#676,.T.);
#676 = EDGE_CURVE('',#568,#677,#679,.T.);
#677 = VERTEX_POINT('',#678);
#678 = CARTESIAN_POINT('',(15.,-3.673940397442E-15,170.));
#679 = SEAM_CURVE('',#680,(#684,#691),.PCURVE_S1.);
#680 = LINE('',#681,#682);
#681 = CARTESIAN_POINT('',(15.,-3.673940397442E-15,165.));
#682 = VECTOR('',#683,1.);
#683 = DIRECTION('',(0.,0.,1.));
#684 = PCURVE('',#584,#685);
#685 = DEFINITIONAL_REPRESENTATION('',(#686),#690);
#686 = LINE('',#687,#688);
#687 = CARTESIAN_POINT('',(6.28318530718,-0.));
#688 = VECTOR('',#689,1.);
#689 = DIRECTION('',(0.,1.));
#690 = ( GEOMETRIC_REPRESENTATION_CONTEXT(2) 
PARAMETRIC_REPRESENTATION_CONTEXT() REPRESENTATION_CONTEXT('2D SPACE',''
  ) );
#691 = PCURVE('',#584,#692);
#692 = DEFINITIONAL_REPRESENTATION('',(#693),#697);
#693 = LINE('',#694,#695);
#694 = CARTESIAN_POINT('',(0.,-0.));
#695 = VECTOR('',#696,1.);
#696 = DIRECTION('',(0.,1.));
#697 = ( GEOMETRIC_REPRESENTATION_CONTEXT(2) 
PARAMETRIC_REPRESENTATION_CONTEXT() REPRESENTATION_CONTEXT('2D SPACE',''
  ) );
#698 = ORIENTED_EDGE('',*,*,#699,.F.);
#699 = EDGE_CURVE('',#677,#677,#700,.T.);
#700 = SURFACE_CURVE('',#701,(#706,#713),.PCURVE_S1.);
#701 = CIRCLE('',#702,15.);
#702 = AXIS2_PLACEMENT_3D('',#703,#704,#705);
#703 = CARTESIAN_POINT('',(0.,0.,170.));
#704 = DIRECTION('',(0.,0.,1.));
#705 = DIRECTION('',(1.,0.,0.));
#706 = PCURVE('',#584,#707);
#707 = DEFINITIONAL_REPRESENTATION('',(#708),#712);
#708 = LINE('',#709,#710);
#709 = CARTESIAN_POINT('',(0.,5.));
#710 = VECTOR('',#711,1.);
#711 = DIRECTION('',(1.,0.));
#712 = ( GEOMETRIC_REPRESENTATION_CONTEXT(2) 
PARAMETRIC_REPRESENTATION_CONTEXT() REPRESENTATION_CONTEXT('2D SPACE',''
  ) );
#713 = PCURVE('',#714,#719);
#714 = PLANE('',#715);
#715 = AXIS2_PLACEMENT_3D('',#716,#717,#718);
#716 = CARTESIAN_POINT('',(0.,0.,170.));
#717 = DIRECTION('',(0.,0.,1.));
#718 = DIRECTION('',(1.,0.,0.));
#719 = DEFINITIONAL_REPRESENTATION('',(#720),#724);
#720 = CIRCLE('',#721,15.);
#721 = AXIS2_PLACEMENT_2D('',#722,#723);
#722 = CARTESIAN_POINT('',(0.,0.));
#723 = DIRECTION('',(1.,0.));
#724 = ( GEOMETRIC_REPRESENTATION_CONTEXT(2) 
PARAMETRIC_REPRESENTATION_CONTEXT() REPRESENTATION_CONTEXT('2D SPACE',''
  ) );
#725 = ORIENTED_EDGE('',*,*,#676,.F.);
#726 = ORIENTED_EDGE('',*,*,#596,.T.);
#727 = ORIENTED_EDGE('',*,*,#565,.T.);
#728 = ADVANCED_FACE('',(#729,#732),#660,.F.);
#729 = FACE_BOUND('',#730,.F.);
#730 = EDGE_LOOP('',(#731));
#731 = ORIENTED_EDGE('',*,*,#645,.T.);
#732 = FACE_BOUND('',#733,.F.);
#733 = EDGE_LOOP('',(#734));
#734 = ORIENTED_EDGE('',*,*,#735,.F.);
#735 = EDGE_CURVE('',#736,#736,#738,.T.);
#736 = VERTEX_POINT('',#737);
#737 = CARTESIAN_POINT('',(25.,-6.123233995737E-15,135.));
#738 = SURFACE_CURVE('',#739,(#744,#751),.PCURVE_S1.);
#739 = CIRCLE('',#740,25.);
#740 = AXIS2_PLACEMENT_3D('',#741,#742,#743);
#741 = CARTESIAN_POINT('',(0.,0.,135.));
#742 = DIRECTION('',(0.,0.,1.));
#743 = DIRECTION('',(1.,0.,0.));
#744 = PCURVE('',#660,#745);
#745 = DEFINITIONAL_REPRESENTATION('',(#746),#750);
#746 = CIRCLE('',#747,25.);
#747 = AXIS2_PLACEMENT_2D('',#748,#749);
#748 = CARTESIAN_POINT('',(0.,0.));
#749 = DIRECTION('',(1.,0.));
#750 = ( GEOMETRIC_REPRESENTATION_CONTEXT(2) 
PARAMETRIC_REPRESENTATION_CONTEXT() REPRESENTATION_CONTEXT('2D SPACE',''
  ) );
#751 = PCURVE('',#752,#757);
#752 = CYLINDRICAL_SURFACE('',#753,25.);
#753 = AXIS2_PLACEMENT_3D('',#754,#755,#756);
#754 = CARTESIAN_POINT('',(0.,0.,120.));
#755 = DIRECTION('',(0.,0.,1.));
#756 = DIRECTION('',(1.,0.,0.));
#757 = DEFINITIONAL_REPRESENTATION('',(#758),#762);
#758 = LINE('',#759,#760);
#759 = CARTESIAN_POINT('',(0.,15.));
#760 = VECTOR('',#761,1.);
#761 = DIRECTION('',(1.,0.));
#762 = ( GEOMETRIC_REPRESENTATION_CONTEXT(2) 
PARAMETRIC_REPRESENTATION_CONTEXT() REPRESENTATION_CONTEXT('2D SPACE',''
  ) );
#763 = ADVANCED_FACE('',(#764),#714,.T.);
#764 = FACE_BOUND('',#765,.T.);
#765 = EDGE_LOOP('',(#766));
#766 = ORIENTED_EDGE('',*,*,#699,.T.);
#767 = ADVANCED_FACE('',(#768),#752,.T.);
#768 = FACE_BOUND('',#769,.T.);
#769 = EDGE_LOOP('',(#770,#771,#794,#821));
#770 = ORIENTED_EDGE('',*,*,#735,.F.);
#771 = ORIENTED_EDGE('',*,*,#772,.F.);
#772 = EDGE_CURVE('',#773,#736,#775,.T.);
#773 = VERTEX_POINT('',#774);
#774 = CARTESIAN_POINT('',(25.,-6.123233995737E-15,120.));
#775 = SEAM_CURVE('',#776,(#780,#787),.PCURVE_S1.);
#776 = LINE('',#777,#778);
#777 = CARTESIAN_POINT('',(25.,-6.123233995737E-15,120.));
#778 = VECTOR('',#779,1.);
#779 = DIRECTION('',(0.,0.,1.));
#780 = PCURVE('',#752,#781);
#781 = DEFINITIONAL_REPRESENTATION('',(#782),#786);
#782 = LINE('',#783,#784);
#783 = CARTESIAN_POINT('',(6.28318530718,-0.));
#784 = VECTOR('',#785,1.);
#785 = DIRECTION('',(0.,1.));
#786 = ( GEOMETRIC_REPRESENTATION_CONTEXT(2) 
PARAMETRIC_REPRESENTATION_CONTEXT() REPRESENTATION_CONTEXT('2D SPACE',''
  ) );
#787 = PCURVE('',#752,#788);
#788 = DEFINITIONAL_REPRESENTATION('',(#789),#793);
#789 = LINE('',#790,#791);
#790 = CARTESIAN_POINT('',(0.,-0.));
#791 = VECTOR('',#792,1.);
#792 = DIRECTION('',(0.,1.));
#793 = ( GEOMETRIC_REPRESENTATION_CONTEXT(2) 
PARAMETRIC_REPRESENTATION_CONTEXT() REPRESENTATION_CONTEXT('2D SPACE',''
  ) );
#794 = ORIENTED_EDGE('',*,*,#795,.T.);
#795 = EDGE_CURVE('',#773,#773,#796,.T.);
#796 = SURFACE_CURVE('',#797,(#802,#809),.PCURVE_S1.);
#797 = CIRCLE('',#798,25.);
#798 = AXIS2_PLACEMENT_3D('',#799,#800,#801);
#799 = CARTESIAN_POINT('',(0.,0.,120.));
#800 = DIRECTION('',(0.,0.,1.));
#801 = DIRECTION('',(1.,0.,0.));
#802 = PCURVE('',#752,#803);
#803 = DEFINITIONAL_REPRESENTATION('',(#804),#808);
#804 = LINE('',#805,#806);
#805 = CARTESIAN_POINT('',(0.,0.));
#806 = VECTOR('',#807,1.);
#807 = DIRECTION('',(1.,0.));
#808 = ( GEOMETRIC_REPRESENTATION_CONTEXT(2) 
PARAMETRIC_REPRESENTATION_CONTEXT() REPRESENTATION_CONTEXT('2D SPACE',''
  ) );
#809 = PCURVE('',#810,#815);
#810 = PLANE('',#811);
#811 = AXIS2_PLACEMENT_3D('',#812,#813,#814);
#812 = CARTESIAN_POINT('',(0.,0.,120.));
#813 = DIRECTION('',(0.,0.,1.));
#814 = DIRECTION('',(1.,0.,0.));
#815 = DEFINITIONAL_REPRESENTATION('',(#816),#820);
#816 = CIRCLE('',#817,25.);
#817 = AXIS2_PLACEMENT_2D('',#818,#819);
#818 = CARTESIAN_POINT('',(0.,0.));
#819 = DIRECTION('',(1.,0.));
#820 = ( GEOMETRIC_REPRESENTATION_CONTEXT(2) 
PARAMETRIC_REPRESENTATION_CONTEXT() REPRESENTATION_CONTEXT('2D SPACE',''
  ) );
#821 = ORIENTED_EDGE('',*,*,#772,.T.);
#822 = ADVANCED_FACE('',(#823,#854),#810,.T.);
#823 = FACE_BOUND('',#824,.T.);
#824 = EDGE_LOOP('',(#825));
#825 = ORIENTED_EDGE('',*,*,#826,.T.);
#826 = EDGE_CURVE('',#827,#827,#829,.T.);
#827 = VERTEX_POINT('',#828);
#828 = CARTESIAN_POINT('',(35.,-8.572527594031E-15,120.));
#829 = SURFACE_CURVE('',#830,(#835,#842),.PCURVE_S1.);
#830 = CIRCLE('',#831,35.);
#831 = AXIS2_PLACEMENT_3D('',#832,#833,#834);
#832 = CARTESIAN_POINT('',(0.,0.,120.));
#833 = DIRECTION('',(0.,0.,1.));
#834 = DIRECTION('',(1.,0.,0.));
#835 = PCURVE('',#810,#836);
#836 = DEFINITIONAL_REPRESENTATION('',(#837),#841);
#837 = CIRCLE('',#838,35.);
#838 = AXIS2_PLACEMENT_2D('',#839,#840);
#839 = CARTESIAN_POINT('',(0.,0.));
#840 = DIRECTION('',(1.,0.));
#841 = ( GEOMETRIC_REPRESENTATION_CONTEXT(2) 
PARAMETRIC_REPRESENTATION_CONTEXT() REPRESENTATION_CONTEXT('2D SPACE',''
  ) );
#842 = PCURVE('',#843,#848);
#843 = CYLINDRICAL_SURFACE('',#844,35.);
#844 = AXIS2_PLACEMENT_3D('',#845,#846,#847);
#845 = CARTESIAN_POINT('',(0.,0.,0.));
#846 = DIRECTION('',(0.,0.,1.));
#847 = DIRECTION('',(1.,0.,0.));
#848 = DEFINITIONAL_REPRESENTATION('',(#849),#853);
#849 = LINE('',#850,#851);
#850 = CARTESIAN_POINT('',(0.,120.));
#851 = VECTOR('',#852,1.);
#852 = DIRECTION('',(1.,0.));
#853 = ( GEOMETRIC_REPRESENTATION_CONTEXT(2) 
PARAMETRIC_REPRESENTATION_CONTEXT() REPRESENTATION_CONTEXT('2D SPACE',''
  ) );
#854 = FACE_BOUND('',#855,.T.);
#855 = EDGE_LOOP('',(#856));
#856 = ORIENTED_EDGE('',*,*,#795,.F.);
#857 = ADVANCED_FACE('',(#858),#843,.T.);
#858 = FACE_BOUND('',#859,.T.);
#859 = EDGE_LOOP('',(#860,#861,#884,#911));
#860 = ORIENTED_EDGE('',*,*,#826,.F.);
#861 = ORIENTED_EDGE('',*,*,#862,.F.);
#862 = EDGE_CURVE('',#863,#827,#865,.T.);
#863 = VERTEX_POINT('',#864);
#864 = CARTESIAN_POINT('',(35.,-8.572527594031E-15,0.));
#865 = SEAM_CURVE('',#866,(#870,#877),.PCURVE_S1.);
#866 = LINE('',#867,#868);
#867 = CARTESIAN_POINT('',(35.,-8.572527594031E-15,0.));
#868 = VECTOR('',#869,1.);
#869 = DIRECTION('',(0.,0.,1.));
#870 = PCURVE('',#843,#871);
#871 = DEFINITIONAL_REPRESENTATION('',(#872),#876);
#872 = LINE('',#873,#874);
#873 = CARTESIAN_POINT('',(6.28318530718,-0.));
#874 = VECTOR('',#875,1.);
#875 = DIRECTION('',(0.,1.));
#876 = ( GEOMETRIC_REPRESENTATION_CONTEXT(2) 
PARAMETRIC_REPRESENTATION_CONTEXT() REPRESENTATION_CONTEXT('2D SPACE',''
  ) );
#877 = PCURVE('',#843,#878);
#878 = DEFINITIONAL_REPRESENTATION('',(#879),#883);
#879 = LINE('',#880,#881);
#880 = CARTESIAN_POINT('',(0.,-0.));
#881 = VECTOR('',#882,1.);
#882 = DIRECTION('',(0.,1.));
#883 = ( GEOMETRIC_REPRESENTATION_CONTEXT(2) 
PARAMETRIC_REPRESENTATION_CONTEXT() REPRESENTATION_CONTEXT('2D SPACE',''
  ) );
#884 = ORIENTED_EDGE('',*,*,#885,.T.);
#885 = EDGE_CURVE('',#863,#863,#886,.T.);
#886 = SURFACE_CURVE('',#887,(#892,#899),.PCURVE_S1.);
#887 = CIRCLE('',#888,35.);
#888 = AXIS2_PLACEMENT_3D('',#889,#890,#891);
#889 = CARTESIAN_POINT('',(0.,0.,0.));
#890 = DIRECTION('',(0.,0.,1.));
#891 = DIRECTION('',(1.,0.,0.));
#892 = PCURVE('',#843,#893);
#893 = DEFINITIONAL_REPRESENTATION('',(#894),#898);
#894 = LINE('',#895,#896);
#895 = CARTESIAN_POINT('',(0.,0.));
#896 = VECTOR('',#897,1.);
#897 = DIRECTION('',(1.,0.));
#898 = ( GEOMETRIC_REPRESENTATION_CONTEXT(2) 
PARAMETRIC_REPRESENTATION_CONTEXT() REPRESENTATION_CONTEXT('2D SPACE',''
  ) );
#899 = PCURVE('',#900,#905);
#900 = PLANE('',#901);
#901 = AXIS2_PLACEMENT_3D('',#902,#903,#904);
#902 = CARTESIAN_POINT('',(0.,0.,0.));
#903 = DIRECTION('',(0.,0.,1.));
#904 = DIRECTION('',(1.,0.,0.));
#905 = DEFINITIONAL_REPRESENTATION('',(#906),#910);
#906 = CIRCLE('',#907,35.);
#907 = AXIS2_PLACEMENT_2D('',#908,#909);
#908 = CARTESIAN_POINT('',(0.,0.));
#909 = DIRECTION('',(1.,0.));
#910 = ( GEOMETRIC_REPRESENTATION_CONTEXT(2) 
PARAMETRIC_REPRESENTATION_CONTEXT() REPRESENTATION_CONTEXT('2D SPACE',''
  ) );
#911 = ORIENTED_EDGE('',*,*,#862,.T.);
#912 = ADVANCED_FACE('',(#913),#900,.F.);
#913 = FACE_BOUND('',#914,.T.);
#914 = EDGE_LOOP('',(#915));
#915 = ORIENTED_EDGE('',*,*,#885,.F.);
#916 = ( GEOMETRIC_REPRESENTATION_CONTEXT(3) 
GLOBAL_UNCERTAINTY_ASSIGNED_CONTEXT((#920)) GLOBAL_UNIT_ASSIGNED_CONTEXT
((#917,#918,#919)) REPRESENTATION_CONTEXT('Context #1',
  '3D Context with UNIT and UNCERTAINTY') );
#917 = ( LENGTH_UNIT() NAMED_UNIT(*) SI_UNIT(.MILLI.,.METRE.) );
#918 = ( NAMED_UNIT(*) PLANE_ANGLE_UNIT() SI_UNIT($,.RADIAN.) );
#919 = ( NAMED_UNIT(*) SI_UNIT($,.STERADIAN.) SOLID_ANGLE_UNIT() );
#920 = UNCERTAINTY_MEASURE_WITH_UNIT(LENGTH_MEASURE(1.E-07),#917,
  'distance_accuracy_value','confusion accuracy');
#921 = PRODUCT_RELATED_PRODUCT_CATEGORY('part',$,(#7));
ENDSEC;
END-ISO-10303-21;
