ISO-10303-21;
HEADER;
FILE_DESCRIPTION(('Open CASCADE Model'),'2;1');
FILE_NAME('Open CASCADE Shape Model','2026-03-29T00:48:45',('Author'),(
    'Open CASCADE'),'Open CASCADE STEP processor 7.8','Open CASCADE 7.8'
  ,'Unknown');
FILE_SCHEMA(('AUTOMOTIVE_DESIGN { 1 0 10303 214 1 1 1 1 }'));
ENDSEC;
DATA;
#1 = APPLICATION_PROTOCOL_DEFINITION('international standard',
  'automotive_design',2000,#2);
#2 = APPLICATION_CONTEXT(
  'core data for automotive mechanical design processes');
#3 = SHAPE_DEFINITION_REPRESENTATION(#4,#10);
#4 = PRODUCT_DEFINITION_SHAPE('','',#5);
#5 = PRODUCT_DEFINITION('design','',#6,#9);
#6 = PRODUCT_DEFINITION_FORMATION('','',#7);
#7 = PRODUCT('Open CASCADE STEP translator 7.8 1',
  'Open CASCADE STEP translator 7.8 1','',(#8));
#8 = PRODUCT_CONTEXT('',#2,'mechanical');
#9 = PRODUCT_DEFINITION_CONTEXT('part definition',#2,'design');
#10 = ADVANCED_BREP_SHAPE_REPRESENTATION('',(#11,#15),#1089);
#11 = AXIS2_PLACEMENT_3D('',#12,#13,#14);
#12 = CARTESIAN_POINT('',(0.,0.,0.));
#13 = DIRECTION('',(0.,0.,1.));
#14 = DIRECTION('',(1.,0.,-0.));
#15 = MANIFOLD_SOLID_BREP('',#16);
#16 = CLOSED_SHELL('',(#17,#316,#369,#658,#724,#759,#809,#862,#887,#942,
    #997,#1032,#1062));
#17 = ADVANCED_FACE('',(#18),#32,.F.);
#18 = FACE_BOUND('',#19,.F.);
#19 = EDGE_LOOP('',(#20,#50,#180,#288,#289));
#20 = ORIENTED_EDGE('',*,*,#21,.T.);
#21 = EDGE_CURVE('',#22,#24,#26,.T.);
#22 = VERTEX_POINT('',#23);
#23 = CARTESIAN_POINT('',(0.92,0.,0.2));
#24 = VERTEX_POINT('',#25);
#25 = CARTESIAN_POINT('',(0.92,-6.980486755139E-17,9.855450927612));
#26 = SEAM_CURVE('',#27,(#31,#43),.PCURVE_S1.);
#27 = LINE('',#28,#29);
#28 = CARTESIAN_POINT('',(0.92,8.572527594031E-17,0.));
#29 = VECTOR('',#30,1.);
#30 = DIRECTION('',(0.,0.,1.));
#31 = PCURVE('',#32,#37);
#32 = CYLINDRICAL_SURFACE('',#33,0.35);
#33 = AXIS2_PLACEMENT_3D('',#34,#35,#36);
#34 = CARTESIAN_POINT('',(1.27,0.,0.));
#35 = DIRECTION('',(0.,0.,1.));
#36 = DIRECTION('',(-1.,0.,0.));
#37 = DEFINITIONAL_REPRESENTATION('',(#38),#42);
#38 = LINE('',#39,#40);
#39 = CARTESIAN_POINT('',(6.28318530718,-0.));
#40 = VECTOR('',#41,1.);
#41 = DIRECTION('',(0.,1.));
#42 = ( GEOMETRIC_REPRESENTATION_CONTEXT(2) 
PARAMETRIC_REPRESENTATION_CONTEXT() REPRESENTATION_CONTEXT('2D SPACE',''
  ) );
#43 = PCURVE('',#32,#44);
#44 = DEFINITIONAL_REPRESENTATION('',(#45),#49);
#45 = LINE('',#46,#47);
#46 = CARTESIAN_POINT('',(0.,-0.));
#47 = VECTOR('',#48,1.);
#48 = DIRECTION('',(0.,1.));
#49 = ( GEOMETRIC_REPRESENTATION_CONTEXT(2) 
PARAMETRIC_REPRESENTATION_CONTEXT() REPRESENTATION_CONTEXT('2D SPACE',''
  ) );
#50 = ORIENTED_EDGE('',*,*,#51,.F.);
#51 = EDGE_CURVE('',#52,#24,#54,.T.);
#52 = VERTEX_POINT('',#53);
#53 = CARTESIAN_POINT('',(1.62,-3.967855629237E-16,9.5249950495));
#54 = SURFACE_CURVE('',#55,(#93,#134),.PCURVE_S1.);
#55 = B_SPLINE_CURVE_WITH_KNOTS('',6,(#56,#57,#58,#59,#60,#61,#62,#63,
    #64,#65,#66,#67,#68,#69,#70,#71,#72,#73,#74,#75,#76,#77,#78,#79,#80,
    #81,#82,#83,#84,#85,#86,#87,#88,#89,#90,#91,#92),.UNSPECIFIED.,.F.,
  .F.,(7,5,5,5,5,5,5,7),(0.,0.185516752396,0.371666976976,0.532556765219
    ,0.601134453246,0.769955074681,0.884247542221,1.),.UNSPECIFIED.);
#56 = CARTESIAN_POINT('',(1.62,-3.967855629237E-16,9.5249950495));
#57 = CARTESIAN_POINT('',(1.62,3.442958775375E-02,9.5249950495));
#58 = CARTESIAN_POINT('',(1.615935914347,6.886287059067E-02,
    9.527039012712));
#59 = CARTESIAN_POINT('',(1.607805617888,0.102662767558,9.531128782673)
  );
#60 = CARTESIAN_POINT('',(1.595755026551,0.135212161307,9.537176895694)
  );
#61 = CARTESIAN_POINT('',(1.580050747717,0.165947458481,9.545026583848)
  );
#62 = CARTESIAN_POINT('',(1.54198984214,0.222933969979,9.563949223941));
#63 = CARTESIAN_POINT('',(1.519608614651,0.249171844543,9.575034334082)
  );
#64 = CARTESIAN_POINT('',(1.494267917512,0.272627727545,9.587521439755)
  );
#65 = CARTESIAN_POINT('',(1.466405042253,0.292914214888,9.60116550367));
#66 = CARTESIAN_POINT('',(1.436507853145,0.309734118207,9.615702604598)
  );
#67 = CARTESIAN_POINT('',(1.377929815496,0.334242067866,9.643979978956)
  );
#68 = CARTESIAN_POINT('',(1.349636199449,0.342858796133,9.657559810996)
  );
#69 = CARTESIAN_POINT('',(1.320534791271,0.348597280779,9.671440483027)
  );
#70 = CARTESIAN_POINT('',(1.290975918002,0.351369222578,9.68544887997));
#71 = CARTESIAN_POINT('',(1.261323995905,0.351137976483,9.699412177278)
  );
#72 = CARTESIAN_POINT('',(1.2194296153,0.346556302717,9.719022457486));
#73 = CARTESIAN_POINT('',(1.206959959484,0.344645507215,9.724844165519)
  );
#74 = CARTESIAN_POINT('',(1.194570098039,0.342194834117,9.730613717153)
  );
#75 = CARTESIAN_POINT('',(1.182289252309,0.339208217321,9.736318030669)
  );
#76 = CARTESIAN_POINT('',(1.170146793761,0.33569186653,9.74194416092));
#77 = CARTESIAN_POINT('',(1.128693983728,0.321714736776,9.761105385812)
  );
#78 = CARTESIAN_POINT('',(1.100226986636,0.308614582782,9.774182935875)
  );
#79 = CARTESIAN_POINT('',(1.073219660185,0.292483364153,9.786516879122)
  );
#80 = CARTESIAN_POINT('',(1.048109254046,0.273547198408,9.79792439575));
#81 = CARTESIAN_POINT('',(1.025281650557,0.252138789614,9.808249982417)
  );
#82 = CARTESIAN_POINT('',(0.991315603834,0.21278037204,9.823560973561));
#83 = CARTESIAN_POINT('',(0.978781015054,0.195944271821,9.829194950999)
  );
#84 = CARTESIAN_POINT('',(0.967515085143,0.178288404108,9.834246215105)
  );
#85 = CARTESIAN_POINT('',(0.957580613184,0.159946310936,9.838691596481)
  );
#86 = CARTESIAN_POINT('',(0.949017576657,0.141050286539,9.842517474212)
  );
#87 = CARTESIAN_POINT('',(0.934588246373,0.102150769739,9.848957064138)
  );
#88 = CARTESIAN_POINT('',(0.928757745805,8.213558344897E-02,
    9.851554697109));
#89 = CARTESIAN_POINT('',(0.924379291594,6.180407878661E-02,
    9.853503182131));
#90 = CARTESIAN_POINT('',(0.921460028223,4.126926367485E-02,
    9.854801558284));
#91 = CARTESIAN_POINT('',(0.92,2.063507992988E-02,9.855450927612));
#92 = CARTESIAN_POINT('',(0.92,8.572527594031E-17,9.855450927612));
#93 = PCURVE('',#32,#94);
#94 = DEFINITIONAL_REPRESENTATION('',(#95),#133);
#95 = B_SPLINE_CURVE_WITH_KNOTS('',6,(#96,#97,#98,#99,#100,#101,#102,
    #103,#104,#105,#106,#107,#108,#109,#110,#111,#112,#113,#114,#115,
    #116,#117,#118,#119,#120,#121,#122,#123,#124,#125,#126,#127,#128,
    #129,#130,#131,#132),.UNSPECIFIED.,.F.,.F.,(7,5,5,5,5,5,5,7),(0.,
    0.185516752396,0.371666976976,0.532556765219,0.601134453246,
    0.769955074681,0.884247542221,1.),.UNSPECIFIED.);
#96 = CARTESIAN_POINT('',(3.14159265359,9.5249950495));
#97 = CARTESIAN_POINT('',(3.239962904315,9.5249950495));
#98 = CARTESIAN_POINT('',(3.338342399333,9.527039012712));
#99 = CARTESIAN_POINT('',(3.436630731653,9.531128782673));
#100 = CARTESIAN_POINT('',(3.534766725554,9.537176895694));
#101 = CARTESIAN_POINT('',(3.632713567974,9.545026583848));
#102 = CARTESIAN_POINT('',(3.828508025506,9.563949223941));
#103 = CARTESIAN_POINT('',(3.926362665462,9.575034334082));
#104 = CARTESIAN_POINT('',(4.024005945814,9.587521439755));
#105 = CARTESIAN_POINT('',(4.121472351492,9.60116550367));
#106 = CARTESIAN_POINT('',(4.2188233286,9.615702604598));
#107 = CARTESIAN_POINT('',(4.400246862642,9.643979978956));
#108 = CARTESIAN_POINT('',(4.484324352683,9.657559810996));
#109 = CARTESIAN_POINT('',(4.56842678275,9.671440483027));
#110 = CARTESIAN_POINT('',(4.652603327431,9.68544887997));
#111 = CARTESIAN_POINT('',(4.736892465408,9.699412177278));
#112 = CARTESIAN_POINT('',(4.857304372773,9.719022457486));
#113 = CARTESIAN_POINT('',(4.89331416369,9.724844165519));
#114 = CARTESIAN_POINT('',(4.929349183855,9.730613717153));
#115 = CARTESIAN_POINT('',(4.965409408956,9.736318030669));
#116 = CARTESIAN_POINT('',(5.001493554172,9.74194416092));
#117 = CARTESIAN_POINT('',(5.126481573703,9.761105385812));
#118 = CARTESIAN_POINT('',(5.215511539331,9.774182935875));
#119 = CARTESIAN_POINT('',(5.30462012063,9.786516879122));
#120 = CARTESIAN_POINT('',(5.393703658841,9.79792439575));
#121 = CARTESIAN_POINT('',(5.482622956518,9.808249982417));
#122 = CARTESIAN_POINT('',(5.631160792388,9.823560973561));
#123 = CARTESIAN_POINT('',(5.69097574359,9.829194950999));
#124 = CARTESIAN_POINT('',(5.7505852244,9.834246215105));
#125 = CARTESIAN_POINT('',(5.809958011505,9.838691596481));
#126 = CARTESIAN_POINT('',(5.869085568349,9.842517474212));
#127 = CARTESIAN_POINT('',(5.987626975211,9.848957064138));
#128 = CARTESIAN_POINT('',(6.047036689474,9.851554697109));
#129 = CARTESIAN_POINT('',(6.106233903732,9.853503182131));
#130 = CARTESIAN_POINT('',(6.165272785644,9.854801558284));
#131 = CARTESIAN_POINT('',(6.224227935951,9.855450927612));
#132 = CARTESIAN_POINT('',(6.28318530718,9.855450927612));
#133 = ( GEOMETRIC_REPRESENTATION_CONTEXT(2) 
PARAMETRIC_REPRESENTATION_CONTEXT() REPRESENTATION_CONTEXT('2D SPACE',''
  ) );
#134 = PCURVE('',#135,#140);
#135 = SPHERICAL_SURFACE('',#136,3.);
#136 = AXIS2_PLACEMENT_3D('',#137,#138,#139);
#137 = CARTESIAN_POINT('',(0.,0.,7.));
#138 = DIRECTION('',(0.,0.,1.));
#139 = DIRECTION('',(1.,0.,-0.));
#140 = DEFINITIONAL_REPRESENTATION('',(#141),#179);
#141 = B_SPLINE_CURVE_WITH_KNOTS('',6,(#142,#143,#144,#145,#146,#147,
    #148,#149,#150,#151,#152,#153,#154,#155,#156,#157,#158,#159,#160,
    #161,#162,#163,#164,#165,#166,#167,#168,#169,#170,#171,#172,#173,
    #174,#175,#176,#177,#178),.UNSPECIFIED.,.F.,.F.,(7,5,5,5,5,5,5,7),(
    0.,0.185516752396,0.371666976976,0.532556765219,0.601134453246,
    0.769955074681,0.884247542221,1.),.UNSPECIFIED.);
#142 = CARTESIAN_POINT('',(0.,1.000359217395));
#143 = CARTESIAN_POINT('',(2.125283194676E-02,1.000359217395));
#144 = CARTESIAN_POINT('',(4.250774017173E-02,1.001621074027));
#145 = CARTESIAN_POINT('',(6.357782546449E-02,1.004145182061));
#146 = CARTESIAN_POINT('',(8.428578486332E-02,1.007897713473));
#147 = CARTESIAN_POINT('',(0.104452991369,1.012817247859));
#148 = CARTESIAN_POINT('',(0.143390521385,1.024846059854));
#149 = CARTESIAN_POINT('',(0.162157581874,1.031963426266));
#150 = CARTESIAN_POINT('',(0.180000977936,1.040091172819));
#151 = CARTESIAN_POINT('',(0.196724427278,1.049131063815));
#152 = CARTESIAN_POINT('',(0.212104734781,1.05897193386));
#153 = CARTESIAN_POINT('',(0.237771775699,1.078585740595));
#154 = CARTESIAN_POINT('',(0.248465497093,1.088186106502));
#155 = CARTESIAN_POINT('',(0.257781700226,1.098215296227));
#156 = CARTESIAN_POINT('',(0.265515415009,1.108586642181));
#157 = CARTESIAN_POINT('',(0.271428573971,1.119200854277));
#158 = CARTESIAN_POINT('',(0.276878896899,1.134519735588));
#159 = CARTESIAN_POINT('',(0.278127885103,1.139120736444));
#160 = CARTESIAN_POINT('',(0.278975834916,1.143735522427));
#161 = CARTESIAN_POINT('',(0.279401233353,1.148354300975));
#162 = CARTESIAN_POINT('',(0.279382220379,1.15296656604));
#163 = CARTESIAN_POINT('',(0.277701089165,1.168871653714));
#164 = CARTESIAN_POINT('',(0.273678169592,1.180077040108));
#165 = CARTESIAN_POINT('',(0.266502082982,1.191005387738));
#166 = CARTESIAN_POINT('',(0.255862750024,1.201460940332));
#167 = CARTESIAN_POINT('',(0.24155996992,1.211221522115));
#168 = CARTESIAN_POINT('',(0.211636969873,1.226076272294));
#169 = CARTESIAN_POINT('',(0.19793294451,1.231660322951));
#170 = CARTESIAN_POINT('',(0.182639027377,1.236766949638));
#171 = CARTESIAN_POINT('',(0.165854379829,1.241338233996));
#172 = CARTESIAN_POINT('',(0.14774188855,1.24532600564));
#173 = CARTESIAN_POINT('',(0.109066613679,1.252106791896));
#174 = CARTESIAN_POINT('',(8.847459374413E-02,1.254884003847));
#175 = CARTESIAN_POINT('',(6.697712702827E-02,1.256990076457));
#176 = CARTESIAN_POINT('',(4.485819642914E-02,1.258401607209));
#177 = CARTESIAN_POINT('',(2.242943470639E-02,1.259107353363));
#178 = CARTESIAN_POINT('',(0.,1.259107353363));
#179 = ( GEOMETRIC_REPRESENTATION_CONTEXT(2) 
PARAMETRIC_REPRESENTATION_CONTEXT() REPRESENTATION_CONTEXT('2D SPACE',''
  ) );
#180 = ORIENTED_EDGE('',*,*,#181,.F.);
#181 = EDGE_CURVE('',#24,#52,#182,.T.);
#182 = SURFACE_CURVE('',#183,(#216,#252),.PCURVE_S1.);
#183 = B_SPLINE_CURVE_WITH_KNOTS('',7,(#184,#185,#186,#187,#188,#189,
    #190,#191,#192,#193,#194,#195,#196,#197,#198,#199,#200,#201,#202,
    #203,#204,#205,#206,#207,#208,#209,#210,#211,#212,#213,#214,#215),
  .UNSPECIFIED.,.F.,.F.,(8,6,6,6,6,8),(0.,0.229578996626,0.398423313076,
    0.467509739969,0.628420473234,1.),.UNSPECIFIED.);
#184 = CARTESIAN_POINT('',(0.92,1.110223024625E-16,9.855450927612));
#185 = CARTESIAN_POINT('',(0.92,-3.506840054058E-02,9.855450927612));
#186 = CARTESIAN_POINT('',(0.924099249521,-7.014753526899E-02,
    9.853627732775));
#187 = CARTESIAN_POINT('',(0.932302683634,-0.104784925545,9.849979141427
    ));
#188 = CARTESIAN_POINT('',(0.944598618283,-0.1385064086,9.84450302577));
#189 = CARTESIAN_POINT('',(0.960940110259,-0.170748365922,9.837205598738
    ));
#190 = CARTESIAN_POINT('',(0.981105997854,-0.200861946718,9.828162575082
    ));
#191 = CARTESIAN_POINT('',(1.02199497575,-0.248393866147,9.80973197408)
  );
#192 = CARTESIAN_POINT('',(1.041163715162,-0.267068218356,9.801066449755
    ));
#193 = CARTESIAN_POINT('',(1.062007547435,-0.28403850123,9.791610686638)
  );
#194 = CARTESIAN_POINT('',(1.084319962427,-0.29910291794,9.781447377987)
  );
#195 = CARTESIAN_POINT('',(1.107866035559,-0.312101261342,9.770673052136
    ));
#196 = CARTESIAN_POINT('',(1.132394406186,-0.322917566015,9.759393857022
    ));
#197 = CARTESIAN_POINT('',(1.167982205965,-0.334979724427,9.74294513399)
  );
#198 = CARTESIAN_POINT('',(1.178437918293,-0.338104551699,9.738102808949
    ));
#199 = CARTESIAN_POINT('',(1.188998700276,-0.340846808002,9.733201747212
    ));
#200 = CARTESIAN_POINT('',(1.199647376306,-0.343202511658,9.728249487263
    ));
#201 = CARTESIAN_POINT('',(1.210366836218,-0.345168685827,9.723253628145
    ));
#202 = CARTESIAN_POINT('',(1.221140035296,-0.346743358507,9.718221829456
    ));
#203 = CARTESIAN_POINT('',(1.257127710103,-0.35067906022,9.701376410649)
  );
#204 = CARTESIAN_POINT('',(1.282503940478,-0.351303152264,9.689438393384
    ));
#205 = CARTESIAN_POINT('',(1.307866702955,-0.34978525581,9.677444081609)
  );
#206 = CARTESIAN_POINT('',(1.333006823541,-0.346137930174,9.665491623493
    ));
#207 = CARTESIAN_POINT('',(1.357720089881,-0.340396873728,9.65367985892)
  );
#208 = CARTESIAN_POINT('',(1.381809404461,-0.332618920781,9.642107185091
    ));
#209 = CARTESIAN_POINT('',(1.458840063197,-0.300390741377,9.604922177509
    ));
#210 = CARTESIAN_POINT('',(1.508302187061,-0.267429184918,9.580746625566
    ));
#211 = CARTESIAN_POINT('',(1.551087142292,-0.224928638973,9.559569997903
    ));
#212 = CARTESIAN_POINT('',(1.585026020736,-0.174475784628,9.542586276899
    ));
#213 = CARTESIAN_POINT('',(1.608347566346,-0.118271266718,9.53085580546)
  );
#214 = CARTESIAN_POINT('',(1.62,-5.912547366402E-02,9.5249950495));
#215 = CARTESIAN_POINT('',(1.62,-3.885780586188E-16,9.5249950495));
#216 = PCURVE('',#32,#217);
#217 = DEFINITIONAL_REPRESENTATION('',(#218),#251);
#218 = B_SPLINE_CURVE_WITH_KNOTS('',7,(#219,#220,#221,#222,#223,#224,
    #225,#226,#227,#228,#229,#230,#231,#232,#233,#234,#235,#236,#237,
    #238,#239,#240,#241,#242,#243,#244,#245,#246,#247,#248,#249,#250),
  .UNSPECIFIED.,.F.,.F.,(8,6,6,6,6,8),(0.,0.229578996626,0.398423313076,
    0.467509739969,0.628420473234,1.),.UNSPECIFIED.);
#219 = CARTESIAN_POINT('',(0.,9.855450927612));
#220 = CARTESIAN_POINT('',(0.100195430116,9.855450927612));
#221 = CARTESIAN_POINT('',(0.200421264982,9.853627732775));
#222 = CARTESIAN_POINT('',(0.301029553254,9.849979141427));
#223 = CARTESIAN_POINT('',(0.402306208383,9.84450302577));
#224 = CARTESIAN_POINT('',(0.504386023322,9.837205598738));
#225 = CARTESIAN_POINT('',(0.607186208129,9.828162575082));
#226 = CARTESIAN_POINT('',(0.786326829623,9.80973197408));
#227 = CARTESIAN_POINT('',(0.862491764562,9.801066449755));
#228 = CARTESIAN_POINT('',(0.938801352176,9.791610686638));
#229 = CARTESIAN_POINT('',(1.015169853432,9.781447377987));
#230 = CARTESIAN_POINT('',(1.09152764647,9.770673052136));
#231 = CARTESIAN_POINT('',(1.167820132522,9.759393857022));
#232 = CARTESIAN_POINT('',(1.275181325628,9.74294513399));
#233 = CARTESIAN_POINT('',(1.306339673581,9.738102808949));
#234 = CARTESIAN_POINT('',(1.337481082751,9.733201747212));
#235 = CARTESIAN_POINT('',(1.368604605585,9.728249487263));
#236 = CARTESIAN_POINT('',(1.399709851311,9.723253628145));
#237 = CARTESIAN_POINT('',(1.430796985941,9.718221829456));
#238 = CARTESIAN_POINT('',(1.534231969406,9.701376410649));
#239 = CARTESIAN_POINT('',(1.606499369515,9.689438393384));
#240 = CARTESIAN_POINT('',(1.678682863072,9.677444081609));
#241 = CARTESIAN_POINT('',(1.750802423592,9.665491623493));
#242 = CARTESIAN_POINT('',(1.822883094907,9.65367985892));
#243 = CARTESIAN_POINT('',(1.894954018444,9.642107185091));
#244 = CARTESIAN_POINT('',(2.133527635766,9.604922177509));
#245 = CARTESIAN_POINT('',(2.300245644744,9.580746625566));
#246 = CARTESIAN_POINT('',(2.467422295643,9.559569997903));
#247 = CARTESIAN_POINT('',(2.635214851238,9.542586276899));
#248 = CARTESIAN_POINT('',(2.803675139144,9.53085580546));
#249 = CARTESIAN_POINT('',(2.972662728835,9.5249950495));
#250 = CARTESIAN_POINT('',(3.14159265359,9.5249950495));
#251 = ( GEOMETRIC_REPRESENTATION_CONTEXT(2) 
PARAMETRIC_REPRESENTATION_CONTEXT() REPRESENTATION_CONTEXT('2D SPACE',''
  ) );
#252 = PCURVE('',#135,#253);
#253 = DEFINITIONAL_REPRESENTATION('',(#254),#287);
#254 = B_SPLINE_CURVE_WITH_KNOTS('',7,(#255,#256,#257,#258,#259,#260,
    #261,#262,#263,#264,#265,#266,#267,#268,#269,#270,#271,#272,#273,
    #274,#275,#276,#277,#278,#279,#280,#281,#282,#283,#284,#285,#286),
  .UNSPECIFIED.,.F.,.F.,(8,6,6,6,6,8),(0.,0.229578996626,0.398423313076,
    0.467509739969,0.628420473234,1.),.UNSPECIFIED.);
#255 = CARTESIAN_POINT('',(6.28318530718,1.259107353363));
#256 = CARTESIAN_POINT('',(6.245067480505,1.259107353363));
#257 = CARTESIAN_POINT('',(6.206938609118,1.257125559371));
#258 = CARTESIAN_POINT('',(6.170180256005,1.253160033658));
#259 = CARTESIAN_POINT('',(6.136220488331,1.247283545121));
#260 = CARTESIAN_POINT('',(6.106182681814,1.239661543381));
#261 = CARTESIAN_POINT('',(6.080643999135,1.230545233432));
#262 = CARTESIAN_POINT('',(6.044447606741,1.212656117683));
#263 = CARTESIAN_POINT('',(6.031636130342,1.204428521422));
#264 = CARTESIAN_POINT('',(6.021424409194,1.195672995217));
#265 = CARTESIAN_POINT('',(6.013745380734,1.186514453521));
#266 = CARTESIAN_POINT('',(6.008453937842,1.177072408991));
#267 = CARTESIAN_POINT('',(6.005370938082,1.167455458246));
#268 = CARTESIAN_POINT('',(6.003876349645,1.153795668987));
#269 = CARTESIAN_POINT('',(6.003781012689,1.149816273968));
#270 = CARTESIAN_POINT('',(6.004011344322,1.145830351356));
#271 = CARTESIAN_POINT('',(6.004554527009,1.141844148058));
#272 = CARTESIAN_POINT('',(6.005397894207,1.137863596038));
#273 = CARTESIAN_POINT('',(6.00652893037,1.133894312308));
#274 = CARTESIAN_POINT('',(6.011210810046,1.120735246317));
#275 = CARTESIAN_POINT('',(6.015980418226,1.11161927413));
#276 = CARTESIAN_POINT('',(6.022089157823,1.102660158699));
#277 = CARTESIAN_POINT('',(6.029396265504,1.093917071992));
#278 = CARTESIAN_POINT('',(6.037775159108,1.085443144769));
#279 = CARTESIAN_POINT('',(6.047113444498,1.077286729716));
#280 = CARTESIAN_POINT('',(6.080865839577,1.051494393309));
#281 = CARTESIAN_POINT('',(6.109026595212,1.035415470052));
#282 = CARTESIAN_POINT('',(6.140562253821,1.021831283258));
#283 = CARTESIAN_POINT('',(6.174540260926,1.011217584824));
#284 = CARTESIAN_POINT('',(6.210178407349,1.003977063796));
#285 = CARTESIAN_POINT('',(6.246688101214,1.000359217395));
#286 = CARTESIAN_POINT('',(6.28318530718,1.000359217395));
#287 = ( GEOMETRIC_REPRESENTATION_CONTEXT(2) 
PARAMETRIC_REPRESENTATION_CONTEXT() REPRESENTATION_CONTEXT('2D SPACE',''
  ) );
#288 = ORIENTED_EDGE('',*,*,#21,.F.);
#289 = ORIENTED_EDGE('',*,*,#290,.T.);
#290 = EDGE_CURVE('',#22,#22,#291,.T.);
#291 = SURFACE_CURVE('',#292,(#297,#304),.PCURVE_S1.);
#292 = CIRCLE('',#293,0.35);
#293 = AXIS2_PLACEMENT_3D('',#294,#295,#296);
#294 = CARTESIAN_POINT('',(1.27,0.,0.2));
#295 = DIRECTION('',(0.,0.,1.));
#296 = DIRECTION('',(-1.,0.,0.));
#297 = PCURVE('',#32,#298);
#298 = DEFINITIONAL_REPRESENTATION('',(#299),#303);
#299 = LINE('',#300,#301);
#300 = CARTESIAN_POINT('',(0.,0.2));
#301 = VECTOR('',#302,1.);
#302 = DIRECTION('',(1.,0.));
#303 = ( GEOMETRIC_REPRESENTATION_CONTEXT(2) 
PARAMETRIC_REPRESENTATION_CONTEXT() REPRESENTATION_CONTEXT('2D SPACE',''
  ) );
#304 = PCURVE('',#305,#310);
#305 = CONICAL_SURFACE('',#306,0.35,0.785398163397);
#306 = AXIS2_PLACEMENT_3D('',#307,#308,#309);
#307 = CARTESIAN_POINT('',(1.27,0.,0.2));
#308 = DIRECTION('',(-0.,-0.,-1.));
#309 = DIRECTION('',(-1.,0.,0.));
#310 = DEFINITIONAL_REPRESENTATION('',(#311),#315);
#311 = LINE('',#312,#313);
#312 = CARTESIAN_POINT('',(-0.,0.));
#313 = VECTOR('',#314,1.);
#314 = DIRECTION('',(-1.,0.));
#315 = ( GEOMETRIC_REPRESENTATION_CONTEXT(2) 
PARAMETRIC_REPRESENTATION_CONTEXT() REPRESENTATION_CONTEXT('2D SPACE',''
  ) );
#316 = ADVANCED_FACE('',(#317),#305,.F.);
#317 = FACE_BOUND('',#318,.T.);
#318 = EDGE_LOOP('',(#319,#340,#341,#342));
#319 = ORIENTED_EDGE('',*,*,#320,.F.);
#320 = EDGE_CURVE('',#22,#321,#323,.T.);
#321 = VERTEX_POINT('',#322);
#322 = CARTESIAN_POINT('',(0.72,0.,-2.775557561563E-17));
#323 = SEAM_CURVE('',#324,(#328,#334),.PCURVE_S1.);
#324 = LINE('',#325,#326);
#325 = CARTESIAN_POINT('',(0.92,0.,0.2));
#326 = VECTOR('',#327,1.);
#327 = DIRECTION('',(-0.707106781187,0.,-0.707106781187));
#328 = PCURVE('',#305,#329);
#329 = DEFINITIONAL_REPRESENTATION('',(#330),#333);
#330 = B_SPLINE_CURVE_WITH_KNOTS('',1,(#331,#332),.UNSPECIFIED.,.F.,.F.,
  (2,2),(0.,0.282842712475),.PIECEWISE_BEZIER_KNOTS.);
#331 = CARTESIAN_POINT('',(0.,0.));
#332 = CARTESIAN_POINT('',(0.,0.2));
#333 = ( GEOMETRIC_REPRESENTATION_CONTEXT(2) 
PARAMETRIC_REPRESENTATION_CONTEXT() REPRESENTATION_CONTEXT('2D SPACE',''
  ) );
#334 = PCURVE('',#305,#335);
#335 = DEFINITIONAL_REPRESENTATION('',(#336),#339);
#336 = B_SPLINE_CURVE_WITH_KNOTS('',1,(#337,#338),.UNSPECIFIED.,.F.,.F.,
  (2,2),(0.,0.282842712475),.PIECEWISE_BEZIER_KNOTS.);
#337 = CARTESIAN_POINT('',(-6.28318530718,0.));
#338 = CARTESIAN_POINT('',(-6.28318530718,0.2));
#339 = ( GEOMETRIC_REPRESENTATION_CONTEXT(2) 
PARAMETRIC_REPRESENTATION_CONTEXT() REPRESENTATION_CONTEXT('2D SPACE',''
  ) );
#340 = ORIENTED_EDGE('',*,*,#290,.T.);
#341 = ORIENTED_EDGE('',*,*,#320,.T.);
#342 = ORIENTED_EDGE('',*,*,#343,.F.);
#343 = EDGE_CURVE('',#321,#321,#344,.T.);
#344 = SURFACE_CURVE('',#345,(#350,#357),.PCURVE_S1.);
#345 = CIRCLE('',#346,0.55);
#346 = AXIS2_PLACEMENT_3D('',#347,#348,#349);
#347 = CARTESIAN_POINT('',(1.27,0.,0.));
#348 = DIRECTION('',(0.,0.,1.));
#349 = DIRECTION('',(-1.,0.,0.));
#350 = PCURVE('',#305,#351);
#351 = DEFINITIONAL_REPRESENTATION('',(#352),#356);
#352 = LINE('',#353,#354);
#353 = CARTESIAN_POINT('',(-0.,0.2));
#354 = VECTOR('',#355,1.);
#355 = DIRECTION('',(-1.,0.));
#356 = ( GEOMETRIC_REPRESENTATION_CONTEXT(2) 
PARAMETRIC_REPRESENTATION_CONTEXT() REPRESENTATION_CONTEXT('2D SPACE',''
  ) );
#357 = PCURVE('',#358,#363);
#358 = PLANE('',#359);
#359 = AXIS2_PLACEMENT_3D('',#360,#361,#362);
#360 = CARTESIAN_POINT('',(0.,3.081781398329E-16,0.));
#361 = DIRECTION('',(0.,0.,1.));
#362 = DIRECTION('',(1.,0.,-0.));
#363 = DEFINITIONAL_REPRESENTATION('',(#364),#368);
#364 = CIRCLE('',#365,0.55);
#365 = AXIS2_PLACEMENT_2D('',#366,#367);
#366 = CARTESIAN_POINT('',(1.27,-3.081781398329E-16));
#367 = DIRECTION('',(-1.,0.));
#368 = ( GEOMETRIC_REPRESENTATION_CONTEXT(2) 
PARAMETRIC_REPRESENTATION_CONTEXT() REPRESENTATION_CONTEXT('2D SPACE',''
  ) );
#369 = ADVANCED_FACE('',(#370,#451),#135,.T.);
#370 = FACE_BOUND('',#371,.T.);
#371 = EDGE_LOOP('',(#372,#396,#397,#398,#422,#449,#450));
#372 = ORIENTED_EDGE('',*,*,#373,.T.);
#373 = EDGE_CURVE('',#24,#374,#376,.T.);
#374 = VERTEX_POINT('',#375);
#375 = CARTESIAN_POINT('',(1.836970198721E-16,-4.499279347986E-32,10.));
#376 = SEAM_CURVE('',#377,(#382,#389),.PCURVE_S1.);
#377 = CIRCLE('',#378,3.);
#378 = AXIS2_PLACEMENT_3D('',#379,#380,#381);
#379 = CARTESIAN_POINT('',(0.,0.,7.));
#380 = DIRECTION('',(-2.449293598295E-16,-1.,0.));
#381 = DIRECTION('',(1.,-2.449293598295E-16,0.));
#382 = PCURVE('',#135,#383);
#383 = DEFINITIONAL_REPRESENTATION('',(#384),#388);
#384 = LINE('',#385,#386);
#385 = CARTESIAN_POINT('',(6.28318530718,-6.28318530718));
#386 = VECTOR('',#387,1.);
#387 = DIRECTION('',(0.,1.));
#388 = ( GEOMETRIC_REPRESENTATION_CONTEXT(2) 
PARAMETRIC_REPRESENTATION_CONTEXT() REPRESENTATION_CONTEXT('2D SPACE',''
  ) );
#389 = PCURVE('',#135,#390);
#390 = DEFINITIONAL_REPRESENTATION('',(#391),#395);
#391 = LINE('',#392,#393);
#392 = CARTESIAN_POINT('',(0.,-6.28318530718));
#393 = VECTOR('',#394,1.);
#394 = DIRECTION('',(0.,1.));
#395 = ( GEOMETRIC_REPRESENTATION_CONTEXT(2) 
PARAMETRIC_REPRESENTATION_CONTEXT() REPRESENTATION_CONTEXT('2D SPACE',''
  ) );
#396 = ORIENTED_EDGE('',*,*,#373,.F.);
#397 = ORIENTED_EDGE('',*,*,#51,.F.);
#398 = ORIENTED_EDGE('',*,*,#399,.F.);
#399 = EDGE_CURVE('',#400,#52,#402,.T.);
#400 = VERTEX_POINT('',#401);
#401 = CARTESIAN_POINT('',(3.,-7.347880794884E-16,7.));
#402 = SEAM_CURVE('',#403,(#408,#415),.PCURVE_S1.);
#403 = CIRCLE('',#404,3.);
#404 = AXIS2_PLACEMENT_3D('',#405,#406,#407);
#405 = CARTESIAN_POINT('',(0.,0.,7.));
#406 = DIRECTION('',(-2.449293598295E-16,-1.,0.));
#407 = DIRECTION('',(1.,-2.449293598295E-16,0.));
#408 = PCURVE('',#135,#409);
#409 = DEFINITIONAL_REPRESENTATION('',(#410),#414);
#410 = LINE('',#411,#412);
#411 = CARTESIAN_POINT('',(6.28318530718,-6.28318530718));
#412 = VECTOR('',#413,1.);
#413 = DIRECTION('',(0.,1.));
#414 = ( GEOMETRIC_REPRESENTATION_CONTEXT(2) 
PARAMETRIC_REPRESENTATION_CONTEXT() REPRESENTATION_CONTEXT('2D SPACE',''
  ) );
#415 = PCURVE('',#135,#416);
#416 = DEFINITIONAL_REPRESENTATION('',(#417),#421);
#417 = LINE('',#418,#419);
#418 = CARTESIAN_POINT('',(0.,-6.28318530718));
#419 = VECTOR('',#420,1.);
#420 = DIRECTION('',(0.,1.));
#421 = ( GEOMETRIC_REPRESENTATION_CONTEXT(2) 
PARAMETRIC_REPRESENTATION_CONTEXT() REPRESENTATION_CONTEXT('2D SPACE',''
  ) );
#422 = ORIENTED_EDGE('',*,*,#423,.T.);
#423 = EDGE_CURVE('',#400,#400,#424,.T.);
#424 = SURFACE_CURVE('',#425,(#430,#437),.PCURVE_S1.);
#425 = CIRCLE('',#426,3.);
#426 = AXIS2_PLACEMENT_3D('',#427,#428,#429);
#427 = CARTESIAN_POINT('',(0.,0.,7.));
#428 = DIRECTION('',(0.,0.,1.));
#429 = DIRECTION('',(1.,0.,-0.));
#430 = PCURVE('',#135,#431);
#431 = DEFINITIONAL_REPRESENTATION('',(#432),#436);
#432 = LINE('',#433,#434);
#433 = CARTESIAN_POINT('',(0.,0.));
#434 = VECTOR('',#435,1.);
#435 = DIRECTION('',(1.,0.));
#436 = ( GEOMETRIC_REPRESENTATION_CONTEXT(2) 
PARAMETRIC_REPRESENTATION_CONTEXT() REPRESENTATION_CONTEXT('2D SPACE',''
  ) );
#437 = PCURVE('',#438,#443);
#438 = PLANE('',#439);
#439 = AXIS2_PLACEMENT_3D('',#440,#441,#442);
#440 = CARTESIAN_POINT('',(0.,0.,7.));
#441 = DIRECTION('',(0.,0.,1.));
#442 = DIRECTION('',(1.,0.,-0.));
#443 = DEFINITIONAL_REPRESENTATION('',(#444),#448);
#444 = CIRCLE('',#445,3.);
#445 = AXIS2_PLACEMENT_2D('',#446,#447);
#446 = CARTESIAN_POINT('',(0.,0.));
#447 = DIRECTION('',(1.,0.));
#448 = ( GEOMETRIC_REPRESENTATION_CONTEXT(2) 
PARAMETRIC_REPRESENTATION_CONTEXT() REPRESENTATION_CONTEXT('2D SPACE',''
  ) );
#449 = ORIENTED_EDGE('',*,*,#399,.T.);
#450 = ORIENTED_EDGE('',*,*,#181,.F.);
#451 = FACE_BOUND('',#452,.T.);
#452 = EDGE_LOOP('',(#453));
#453 = ORIENTED_EDGE('',*,*,#454,.F.);
#454 = EDGE_CURVE('',#455,#455,#457,.T.);
#455 = VERTEX_POINT('',#456);
#456 = CARTESIAN_POINT('',(-1.62,8.572527594031E-17,9.5249950495));
#457 = SURFACE_CURVE('',#458,(#521,#587),.PCURVE_S1.);
#458 = B_SPLINE_CURVE_WITH_KNOTS('',7,(#459,#460,#461,#462,#463,#464,
    #465,#466,#467,#468,#469,#470,#471,#472,#473,#474,#475,#476,#477,
    #478,#479,#480,#481,#482,#483,#484,#485,#486,#487,#488,#489,#490,
    #491,#492,#493,#494,#495,#496,#497,#498,#499,#500,#501,#502,#503,
    #504,#505,#506,#507,#508,#509,#510,#511,#512,#513,#514,#515,#516,
    #517,#518,#519,#520),.UNSPECIFIED.,.T.,.F.,(8,6,6,6,6,6,6,6,6,6,8),(
    0.,0.185789648427,0.266245066011,0.300788301333,0.385210513021,
    0.499999883691,0.614789254362,0.699211466052,0.733754701374,
    0.814210118958,1.),.UNSPECIFIED.);
#459 = CARTESIAN_POINT('',(-1.62,1.110223024625E-16,9.5249950495));
#460 = CARTESIAN_POINT('',(-1.62,-5.912555747327E-02,9.5249950495));
#461 = CARTESIAN_POINT('',(-1.608347534006,-0.118271403264,
    9.530855821713));
#462 = CARTESIAN_POINT('',(-1.585025941558,-0.174475820447,
    9.542586316816));
#463 = CARTESIAN_POINT('',(-1.551087168943,-0.224928587207,
    9.559569983417));
#464 = CARTESIAN_POINT('',(-1.508302218413,-0.267429203771,
    9.580746611279));
#465 = CARTESIAN_POINT('',(-1.458839995897,-0.300390769534,
    9.604922209997));
#466 = CARTESIAN_POINT('',(-1.381809404461,-0.332618920781,
    9.642107185091));
#467 = CARTESIAN_POINT('',(-1.357720089881,-0.340396873728,9.65367985892
    ));
#468 = CARTESIAN_POINT('',(-1.333006823541,-0.346137930174,
    9.665491623493));
#469 = CARTESIAN_POINT('',(-1.307866702955,-0.34978525581,9.677444081609
    ));
#470 = CARTESIAN_POINT('',(-1.282503940478,-0.351303152264,
    9.689438393384));
#471 = CARTESIAN_POINT('',(-1.257127710103,-0.35067906022,9.701376410649
    ));
#472 = CARTESIAN_POINT('',(-1.221140035296,-0.346743358507,
    9.718221829456));
#473 = CARTESIAN_POINT('',(-1.210366836218,-0.345168685827,
    9.723253628145));
#474 = CARTESIAN_POINT('',(-1.199647376306,-0.343202511658,
    9.728249487263));
#475 = CARTESIAN_POINT('',(-1.188998700276,-0.340846808002,
    9.733201747212));
#476 = CARTESIAN_POINT('',(-1.178437918293,-0.338104551699,
    9.738102808949));
#477 = CARTESIAN_POINT('',(-1.167982205965,-0.334979724427,9.74294513399
    ));
#478 = CARTESIAN_POINT('',(-1.132394406186,-0.322917566015,
    9.759393857022));
#479 = CARTESIAN_POINT('',(-1.107866035559,-0.312101261342,
    9.770673052136));
#480 = CARTESIAN_POINT('',(-1.084319962427,-0.29910291794,9.781447377987
    ));
#481 = CARTESIAN_POINT('',(-1.062007547435,-0.28403850123,9.791610686638
    ));
#482 = CARTESIAN_POINT('',(-1.041163715162,-0.267068218356,
    9.801066449755));
#483 = CARTESIAN_POINT('',(-1.02199497575,-0.248393866147,9.80973197408)
  );
#484 = CARTESIAN_POINT('',(-0.981106038974,-0.200861994518,
    9.828162556547));
#485 = CARTESIAN_POINT('',(-0.96094007257,-0.170748347087,9.8372056159)
  );
#486 = CARTESIAN_POINT('',(-0.944598558916,-0.138506292155,
    9.844503052058));
#487 = CARTESIAN_POINT('',(-0.932302691691,-0.104784856423,
    9.849979137875));
#488 = CARTESIAN_POINT('',(-0.924099246422,-7.014754540668E-02,
    9.853627734147));
#489 = CARTESIAN_POINT('',(-0.92,-3.506838921201E-02,9.855450927612));
#490 = CARTESIAN_POINT('',(-0.92,3.506838921231E-02,9.855450927612));
#491 = CARTESIAN_POINT('',(-0.924099246422,7.014754540602E-02,
    9.853627734147));
#492 = CARTESIAN_POINT('',(-0.932302691691,0.104784856424,9.849979137875
    ));
#493 = CARTESIAN_POINT('',(-0.944598558916,0.138506292154,9.844503052058
    ));
#494 = CARTESIAN_POINT('',(-0.96094007257,0.170748347087,9.8372056159));
#495 = CARTESIAN_POINT('',(-0.981106038974,0.200861994518,9.828162556547
    ));
#496 = CARTESIAN_POINT('',(-1.02199497575,0.248393866147,9.80973197408)
  );
#497 = CARTESIAN_POINT('',(-1.041163715162,0.267068218356,9.801066449755
    ));
#498 = CARTESIAN_POINT('',(-1.062007547435,0.28403850123,9.791610686638)
  );
#499 = CARTESIAN_POINT('',(-1.084319962427,0.29910291794,9.781447377987)
  );
#500 = CARTESIAN_POINT('',(-1.107866035559,0.312101261342,9.770673052136
    ));
#501 = CARTESIAN_POINT('',(-1.132394406186,0.322917566015,9.759393857022
    ));
#502 = CARTESIAN_POINT('',(-1.167982205966,0.334979724427,9.74294513399)
  );
#503 = CARTESIAN_POINT('',(-1.178437918293,0.338104551699,9.738102808949
    ));
#504 = CARTESIAN_POINT('',(-1.188998700276,0.340846808002,9.733201747211
    ));
#505 = CARTESIAN_POINT('',(-1.199647376306,0.343202511658,9.728249487263
    ));
#506 = CARTESIAN_POINT('',(-1.210366836218,0.345168685827,9.723253628145
    ));
#507 = CARTESIAN_POINT('',(-1.221140035296,0.346743358507,9.718221829456
    ));
#508 = CARTESIAN_POINT('',(-1.257127710103,0.35067906022,9.701376410649)
  );
#509 = CARTESIAN_POINT('',(-1.282503940478,0.351303152264,9.689438393384
    ));
#510 = CARTESIAN_POINT('',(-1.307866702955,0.34978525581,9.677444081609)
  );
#511 = CARTESIAN_POINT('',(-1.333006823541,0.346137930174,9.665491623493
    ));
#512 = CARTESIAN_POINT('',(-1.357720089881,0.340396873728,9.65367985892)
  );
#513 = CARTESIAN_POINT('',(-1.381809404461,0.332618920781,9.642107185091
    ));
#514 = CARTESIAN_POINT('',(-1.458840063197,0.300390741377,9.604922177509
    ));
#515 = CARTESIAN_POINT('',(-1.50830218706,0.267429184918,9.580746625566)
  );
#516 = CARTESIAN_POINT('',(-1.551087142293,0.224928638972,9.559569997903
    ));
#517 = CARTESIAN_POINT('',(-1.585026020736,0.174475784629,9.542586276899
    ));
#518 = CARTESIAN_POINT('',(-1.608347566346,0.118271266717,9.53085580546)
  );
#519 = CARTESIAN_POINT('',(-1.62,5.912547366429E-02,9.5249950495));
#520 = CARTESIAN_POINT('',(-1.62,1.110223024625E-16,9.5249950495));
#521 = PCURVE('',#135,#522);
#522 = DEFINITIONAL_REPRESENTATION('',(#523),#586);
#523 = B_SPLINE_CURVE_WITH_KNOTS('',7,(#524,#525,#526,#527,#528,#529,
    #530,#531,#532,#533,#534,#535,#536,#537,#538,#539,#540,#541,#542,
    #543,#544,#545,#546,#547,#548,#549,#550,#551,#552,#553,#554,#555,
    #556,#557,#558,#559,#560,#561,#562,#563,#564,#565,#566,#567,#568,
    #569,#570,#571,#572,#573,#574,#575,#576,#577,#578,#579,#580,#581,
    #582,#583,#584,#585),.UNSPECIFIED.,.T.,.F.,(8,6,6,6,6,6,6,6,6,6,8),(
    0.,0.185789648427,0.266245066011,0.300788301333,0.385210513021,
    0.499999883691,0.614789254362,0.699211466052,0.733754701374,
    0.814210118958,1.),.UNSPECIFIED.);
#524 = CARTESIAN_POINT('',(3.14159265359,1.000359217395));
#525 = CARTESIAN_POINT('',(3.178089911289,1.000359217395));
#526 = CARTESIAN_POINT('',(3.214599636741,1.003977073919));
#527 = CARTESIAN_POINT('',(3.250237730037,1.011217609025));
#528 = CARTESIAN_POINT('',(3.284215677171,1.021831276538));
#529 = CARTESIAN_POINT('',(3.315751367813,1.035415458364));
#530 = CARTESIAN_POINT('',(3.343912150681,1.051494415843));
#531 = CARTESIAN_POINT('',(3.377664516271,1.077286729716));
#532 = CARTESIAN_POINT('',(3.387002801661,1.085443144769));
#533 = CARTESIAN_POINT('',(3.395381695266,1.093917071992));
#534 = CARTESIAN_POINT('',(3.402688802946,1.102660158699));
#535 = CARTESIAN_POINT('',(3.408797542543,1.11161927413));
#536 = CARTESIAN_POINT('',(3.413567150723,1.120735246317));
#537 = CARTESIAN_POINT('',(3.4182490304,1.133894312308));
#538 = CARTESIAN_POINT('',(3.419380066562,1.137863596038));
#539 = CARTESIAN_POINT('',(3.42022343376,1.141844148058));
#540 = CARTESIAN_POINT('',(3.420766616447,1.145830351356));
#541 = CARTESIAN_POINT('',(3.420996948081,1.149816273968));
#542 = CARTESIAN_POINT('',(3.420901611124,1.153795668987));
#543 = CARTESIAN_POINT('',(3.419407022687,1.167455458246));
#544 = CARTESIAN_POINT('',(3.416324022927,1.177072408991));
#545 = CARTESIAN_POINT('',(3.411032580036,1.186514453521));
#546 = CARTESIAN_POINT('',(3.403353551575,1.195672995217));
#547 = CARTESIAN_POINT('',(3.393141830427,1.204428521422));
#548 = CARTESIAN_POINT('',(3.380330354028,1.212656117683));
#549 = CARTESIAN_POINT('',(3.344133998035,1.230545215442));
#550 = CARTESIAN_POINT('',(3.318595274495,1.239661558597));
#551 = CARTESIAN_POINT('',(3.28855736525,1.247283574517));
#552 = CARTESIAN_POINT('',(3.254597618342,1.253160029496));
#553 = CARTESIAN_POINT('',(3.217839366402,1.257125560987));
#554 = CARTESIAN_POINT('',(3.179710467951,1.259107353363));
#555 = CARTESIAN_POINT('',(3.103474839229,1.259107353363));
#556 = CARTESIAN_POINT('',(3.065345940778,1.257125560987));
#557 = CARTESIAN_POINT('',(3.028587688837,1.253160029496));
#558 = CARTESIAN_POINT('',(2.994627941931,1.247283574517));
#559 = CARTESIAN_POINT('',(2.964590032684,1.239661558596));
#560 = CARTESIAN_POINT('',(2.939051309145,1.230545215442));
#561 = CARTESIAN_POINT('',(2.902854953152,1.212656117683));
#562 = CARTESIAN_POINT('',(2.890043476752,1.204428521422));
#563 = CARTESIAN_POINT('',(2.879831755604,1.195672995217));
#564 = CARTESIAN_POINT('',(2.872152727144,1.186514453521));
#565 = CARTESIAN_POINT('',(2.866861284252,1.177072408991));
#566 = CARTESIAN_POINT('',(2.863778284493,1.167455458246));
#567 = CARTESIAN_POINT('',(2.862283696055,1.153795668987));
#568 = CARTESIAN_POINT('',(2.862188359099,1.149816273968));
#569 = CARTESIAN_POINT('',(2.862418690732,1.145830351356));
#570 = CARTESIAN_POINT('',(2.862961873419,1.141844148058));
#571 = CARTESIAN_POINT('',(2.863805240618,1.137863596038));
#572 = CARTESIAN_POINT('',(2.86493627678,1.133894312308));
#573 = CARTESIAN_POINT('',(2.869618156457,1.120735246317));
#574 = CARTESIAN_POINT('',(2.874387764637,1.11161927413));
#575 = CARTESIAN_POINT('',(2.880496504233,1.102660158699));
#576 = CARTESIAN_POINT('',(2.887803611914,1.093917071992));
#577 = CARTESIAN_POINT('',(2.896182505519,1.085443144769));
#578 = CARTESIAN_POINT('',(2.905520790908,1.077286729716));
#579 = CARTESIAN_POINT('',(2.939273185988,1.051494393309));
#580 = CARTESIAN_POINT('',(2.967433941622,1.035415470052));
#581 = CARTESIAN_POINT('',(2.998969600232,1.021831283258));
#582 = CARTESIAN_POINT('',(3.032947607335,1.011217584825));
#583 = CARTESIAN_POINT('',(3.068585753759,1.003977063796));
#584 = CARTESIAN_POINT('',(3.105095447624,1.000359217395));
#585 = CARTESIAN_POINT('',(3.14159265359,1.000359217395));
#586 = ( GEOMETRIC_REPRESENTATION_CONTEXT(2) 
PARAMETRIC_REPRESENTATION_CONTEXT() REPRESENTATION_CONTEXT('2D SPACE',''
  ) );
#587 = PCURVE('',#588,#593);
#588 = CYLINDRICAL_SURFACE('',#589,0.35);
#589 = AXIS2_PLACEMENT_3D('',#590,#591,#592);
#590 = CARTESIAN_POINT('',(-1.27,0.,0.));
#591 = DIRECTION('',(0.,0.,1.));
#592 = DIRECTION('',(-1.,0.,0.));
#593 = DEFINITIONAL_REPRESENTATION('',(#594),#657);
#594 = B_SPLINE_CURVE_WITH_KNOTS('',7,(#595,#596,#597,#598,#599,#600,
    #601,#602,#603,#604,#605,#606,#607,#608,#609,#610,#611,#612,#613,
    #614,#615,#616,#617,#618,#619,#620,#621,#622,#623,#624,#625,#626,
    #627,#628,#629,#630,#631,#632,#633,#634,#635,#636,#637,#638,#639,
    #640,#641,#642,#643,#644,#645,#646,#647,#648,#649,#650,#651,#652,
    #653,#654,#655,#656),.UNSPECIFIED.,.F.,.F.,(8,6,6,6,6,6,6,6,6,6,8),(
    0.,0.185789648427,0.266245066011,0.300788301333,0.385210513021,
    0.499999883691,0.614789254362,0.699211466052,0.733754701374,
    0.814210118958,1.),.UNSPECIFIED.);
#595 = CARTESIAN_POINT('',(0.,9.5249950495));
#596 = CARTESIAN_POINT('',(0.168930164209,9.5249950495));
#597 = CARTESIAN_POINT('',(0.33791790062,9.530855821713));
#598 = CARTESIAN_POINT('',(0.506377955259,9.542586316816));
#599 = CARTESIAN_POINT('',(0.67417026368,9.559569983417));
#600 = CARTESIAN_POINT('',(0.84134694595,9.580746611279));
#601 = CARTESIAN_POINT('',(1.008065226261,9.604922209997));
#602 = CARTESIAN_POINT('',(1.246638635146,9.642107185091));
#603 = CARTESIAN_POINT('',(1.318709558682,9.65367985892));
#604 = CARTESIAN_POINT('',(1.390790229998,9.665491623493));
#605 = CARTESIAN_POINT('',(1.462909790518,9.677444081609));
#606 = CARTESIAN_POINT('',(1.535093284074,9.689438393384));
#607 = CARTESIAN_POINT('',(1.607360684184,9.701376410649));
#608 = CARTESIAN_POINT('',(1.710795667649,9.718221829456));
#609 = CARTESIAN_POINT('',(1.741882802279,9.723253628145));
#610 = CARTESIAN_POINT('',(1.772988048005,9.728249487263));
#611 = CARTESIAN_POINT('',(1.804111570838,9.733201747212));
#612 = CARTESIAN_POINT('',(1.835252980009,9.738102808949));
#613 = CARTESIAN_POINT('',(1.866411327962,9.74294513399));
#614 = CARTESIAN_POINT('',(1.973772521068,9.759393857022));
#615 = CARTESIAN_POINT('',(2.05006500712,9.770673052136));
#616 = CARTESIAN_POINT('',(2.126422800158,9.781447377987));
#617 = CARTESIAN_POINT('',(2.202791301414,9.791610686638));
#618 = CARTESIAN_POINT('',(2.279100889028,9.801066449755));
#619 = CARTESIAN_POINT('',(2.355265823967,9.80973197408));
#620 = CARTESIAN_POINT('',(2.534406265308,9.828162556547));
#621 = CARTESIAN_POINT('',(2.637206742723,9.8372056159));
#622 = CARTESIAN_POINT('',(2.73928679191,9.844503052058));
#623 = CARTESIAN_POINT('',(2.840563291081,9.849979137875));
#624 = CARTESIAN_POINT('',(2.941171361226,9.853627734147));
#625 = CARTESIAN_POINT('',(3.041397255841,9.855450927612));
#626 = CARTESIAN_POINT('',(3.241788051339,9.855450927612));
#627 = CARTESIAN_POINT('',(3.342013945951,9.853627734147));
#628 = CARTESIAN_POINT('',(3.442622016102,9.849979137875));
#629 = CARTESIAN_POINT('',(3.543898515267,9.844503052058));
#630 = CARTESIAN_POINT('',(3.645978564458,9.8372056159));
#631 = CARTESIAN_POINT('',(3.748779041872,9.828162556547));
#632 = CARTESIAN_POINT('',(3.927919483213,9.80973197408));
#633 = CARTESIAN_POINT('',(4.004084418152,9.801066449755));
#634 = CARTESIAN_POINT('',(4.080394005766,9.791610686638));
#635 = CARTESIAN_POINT('',(4.156762507022,9.781447377987));
#636 = CARTESIAN_POINT('',(4.23312030006,9.770673052136));
#637 = CARTESIAN_POINT('',(4.309412786112,9.759393857022));
#638 = CARTESIAN_POINT('',(4.416773979218,9.74294513399));
#639 = CARTESIAN_POINT('',(4.447932327171,9.738102808949));
#640 = CARTESIAN_POINT('',(4.479073736341,9.733201747211));
#641 = CARTESIAN_POINT('',(4.510197259175,9.728249487263));
#642 = CARTESIAN_POINT('',(4.541302504901,9.723253628145));
#643 = CARTESIAN_POINT('',(4.572389639531,9.718221829456));
#644 = CARTESIAN_POINT('',(4.675824622995,9.701376410649));
#645 = CARTESIAN_POINT('',(4.748092023105,9.689438393384));
#646 = CARTESIAN_POINT('',(4.820275516662,9.677444081609));
#647 = CARTESIAN_POINT('',(4.892395077181,9.665491623493));
#648 = CARTESIAN_POINT('',(4.964475748497,9.65367985892));
#649 = CARTESIAN_POINT('',(5.036546672034,9.642107185091));
#650 = CARTESIAN_POINT('',(5.275120289356,9.604922177509));
#651 = CARTESIAN_POINT('',(5.441838298332,9.580746625566));
#652 = CARTESIAN_POINT('',(5.609014949237,9.559569997903));
#653 = CARTESIAN_POINT('',(5.776807504823,9.542586276899));
#654 = CARTESIAN_POINT('',(5.945267792737,9.53085580546));
#655 = CARTESIAN_POINT('',(6.114255382424,9.5249950495));
#656 = CARTESIAN_POINT('',(6.28318530718,9.5249950495));
#657 = ( GEOMETRIC_REPRESENTATION_CONTEXT(2) 
PARAMETRIC_REPRESENTATION_CONTEXT() REPRESENTATION_CONTEXT('2D SPACE',''
  ) );
#658 = ADVANCED_FACE('',(#659,#690,#721),#358,.F.);
#659 = FACE_BOUND('',#660,.F.);
#660 = EDGE_LOOP('',(#661));
#661 = ORIENTED_EDGE('',*,*,#662,.T.);
#662 = EDGE_CURVE('',#663,#663,#665,.T.);
#663 = VERTEX_POINT('',#664);
#664 = CARTESIAN_POINT('',(2.3,0.,0.));
#665 = SURFACE_CURVE('',#666,(#671,#678),.PCURVE_S1.);
#666 = CIRCLE('',#667,2.3);
#667 = AXIS2_PLACEMENT_3D('',#668,#669,#670);
#668 = CARTESIAN_POINT('',(0.,0.,0.));
#669 = DIRECTION('',(0.,0.,1.));
#670 = DIRECTION('',(1.,0.,-0.));
#671 = PCURVE('',#358,#672);
#672 = DEFINITIONAL_REPRESENTATION('',(#673),#677);
#673 = CIRCLE('',#674,2.3);
#674 = AXIS2_PLACEMENT_2D('',#675,#676);
#675 = CARTESIAN_POINT('',(0.,-3.081781398329E-16));
#676 = DIRECTION('',(1.,0.));
#677 = ( GEOMETRIC_REPRESENTATION_CONTEXT(2) 
PARAMETRIC_REPRESENTATION_CONTEXT() REPRESENTATION_CONTEXT('2D SPACE',''
  ) );
#678 = PCURVE('',#679,#684);
#679 = CONICAL_SURFACE('',#680,2.5,0.785398163397);
#680 = AXIS2_PLACEMENT_3D('',#681,#682,#683);
#681 = CARTESIAN_POINT('',(0.,0.,0.2));
#682 = DIRECTION('',(0.,0.,1.));
#683 = DIRECTION('',(1.,0.,-0.));
#684 = DEFINITIONAL_REPRESENTATION('',(#685),#689);
#685 = LINE('',#686,#687);
#686 = CARTESIAN_POINT('',(0.,-0.2));
#687 = VECTOR('',#688,1.);
#688 = DIRECTION('',(1.,0.));
#689 = ( GEOMETRIC_REPRESENTATION_CONTEXT(2) 
PARAMETRIC_REPRESENTATION_CONTEXT() REPRESENTATION_CONTEXT('2D SPACE',''
  ) );
#690 = FACE_BOUND('',#691,.F.);
#691 = EDGE_LOOP('',(#692));
#692 = ORIENTED_EDGE('',*,*,#693,.F.);
#693 = EDGE_CURVE('',#694,#694,#696,.T.);
#694 = VERTEX_POINT('',#695);
#695 = CARTESIAN_POINT('',(-1.82,0.,-2.775557561563E-17));
#696 = SURFACE_CURVE('',#697,(#702,#709),.PCURVE_S1.);
#697 = CIRCLE('',#698,0.55);
#698 = AXIS2_PLACEMENT_3D('',#699,#700,#701);
#699 = CARTESIAN_POINT('',(-1.27,0.,0.));
#700 = DIRECTION('',(0.,0.,1.));
#701 = DIRECTION('',(-1.,0.,0.));
#702 = PCURVE('',#358,#703);
#703 = DEFINITIONAL_REPRESENTATION('',(#704),#708);
#704 = CIRCLE('',#705,0.55);
#705 = AXIS2_PLACEMENT_2D('',#706,#707);
#706 = CARTESIAN_POINT('',(-1.27,-3.081781398329E-16));
#707 = DIRECTION('',(-1.,0.));
#708 = ( GEOMETRIC_REPRESENTATION_CONTEXT(2) 
PARAMETRIC_REPRESENTATION_CONTEXT() REPRESENTATION_CONTEXT('2D SPACE',''
  ) );
#709 = PCURVE('',#710,#715);
#710 = CONICAL_SURFACE('',#711,0.35,0.785398163397);
#711 = AXIS2_PLACEMENT_3D('',#712,#713,#714);
#712 = CARTESIAN_POINT('',(-1.27,0.,0.2));
#713 = DIRECTION('',(-0.,-0.,-1.));
#714 = DIRECTION('',(-1.,0.,0.));
#715 = DEFINITIONAL_REPRESENTATION('',(#716),#720);
#716 = LINE('',#717,#718);
#717 = CARTESIAN_POINT('',(-0.,0.2));
#718 = VECTOR('',#719,1.);
#719 = DIRECTION('',(-1.,0.));
#720 = ( GEOMETRIC_REPRESENTATION_CONTEXT(2) 
PARAMETRIC_REPRESENTATION_CONTEXT() REPRESENTATION_CONTEXT('2D SPACE',''
  ) );
#721 = FACE_BOUND('',#722,.F.);
#722 = EDGE_LOOP('',(#723));
#723 = ORIENTED_EDGE('',*,*,#343,.F.);
#724 = ADVANCED_FACE('',(#725,#728),#438,.F.);
#725 = FACE_BOUND('',#726,.F.);
#726 = EDGE_LOOP('',(#727));
#727 = ORIENTED_EDGE('',*,*,#423,.T.);
#728 = FACE_BOUND('',#729,.F.);
#729 = EDGE_LOOP('',(#730));
#730 = ORIENTED_EDGE('',*,*,#731,.F.);
#731 = EDGE_CURVE('',#732,#732,#734,.T.);
#732 = VERTEX_POINT('',#733);
#733 = CARTESIAN_POINT('',(2.5,0.,7.));
#734 = SURFACE_CURVE('',#735,(#740,#747),.PCURVE_S1.);
#735 = CIRCLE('',#736,2.5);
#736 = AXIS2_PLACEMENT_3D('',#737,#738,#739);
#737 = CARTESIAN_POINT('',(0.,0.,7.));
#738 = DIRECTION('',(0.,0.,1.));
#739 = DIRECTION('',(1.,0.,0.));
#740 = PCURVE('',#438,#741);
#741 = DEFINITIONAL_REPRESENTATION('',(#742),#746);
#742 = CIRCLE('',#743,2.5);
#743 = AXIS2_PLACEMENT_2D('',#744,#745);
#744 = CARTESIAN_POINT('',(0.,0.));
#745 = DIRECTION('',(1.,0.));
#746 = ( GEOMETRIC_REPRESENTATION_CONTEXT(2) 
PARAMETRIC_REPRESENTATION_CONTEXT() REPRESENTATION_CONTEXT('2D SPACE',''
  ) );
#747 = PCURVE('',#748,#753);
#748 = CYLINDRICAL_SURFACE('',#749,2.5);
#749 = AXIS2_PLACEMENT_3D('',#750,#751,#752);
#750 = CARTESIAN_POINT('',(0.,0.,0.));
#751 = DIRECTION('',(-0.,-0.,-1.));
#752 = DIRECTION('',(1.,0.,0.));
#753 = DEFINITIONAL_REPRESENTATION('',(#754),#758);
#754 = LINE('',#755,#756);
#755 = CARTESIAN_POINT('',(-0.,-7.));
#756 = VECTOR('',#757,1.);
#757 = DIRECTION('',(-1.,0.));
#758 = ( GEOMETRIC_REPRESENTATION_CONTEXT(2) 
PARAMETRIC_REPRESENTATION_CONTEXT() REPRESENTATION_CONTEXT('2D SPACE',''
  ) );
#759 = ADVANCED_FACE('',(#760),#588,.F.);
#760 = FACE_BOUND('',#761,.F.);
#761 = EDGE_LOOP('',(#762,#785,#786,#787));
#762 = ORIENTED_EDGE('',*,*,#763,.T.);
#763 = EDGE_CURVE('',#764,#455,#766,.T.);
#764 = VERTEX_POINT('',#765);
#765 = CARTESIAN_POINT('',(-1.62,0.,0.2));
#766 = SEAM_CURVE('',#767,(#771,#778),.PCURVE_S1.);
#767 = LINE('',#768,#769);
#768 = CARTESIAN_POINT('',(-1.62,8.572527594031E-17,-0.));
#769 = VECTOR('',#770,1.);
#770 = DIRECTION('',(0.,0.,1.));
#771 = PCURVE('',#588,#772);
#772 = DEFINITIONAL_REPRESENTATION('',(#773),#777);
#773 = LINE('',#774,#775);
#774 = CARTESIAN_POINT('',(6.28318530718,-0.));
#775 = VECTOR('',#776,1.);
#776 = DIRECTION('',(0.,1.));
#777 = ( GEOMETRIC_REPRESENTATION_CONTEXT(2) 
PARAMETRIC_REPRESENTATION_CONTEXT() REPRESENTATION_CONTEXT('2D SPACE',''
  ) );
#778 = PCURVE('',#588,#779);
#779 = DEFINITIONAL_REPRESENTATION('',(#780),#784);
#780 = LINE('',#781,#782);
#781 = CARTESIAN_POINT('',(0.,-0.));
#782 = VECTOR('',#783,1.);
#783 = DIRECTION('',(0.,1.));
#784 = ( GEOMETRIC_REPRESENTATION_CONTEXT(2) 
PARAMETRIC_REPRESENTATION_CONTEXT() REPRESENTATION_CONTEXT('2D SPACE',''
  ) );
#785 = ORIENTED_EDGE('',*,*,#454,.F.);
#786 = ORIENTED_EDGE('',*,*,#763,.F.);
#787 = ORIENTED_EDGE('',*,*,#788,.T.);
#788 = EDGE_CURVE('',#764,#764,#789,.T.);
#789 = SURFACE_CURVE('',#790,(#795,#802),.PCURVE_S1.);
#790 = CIRCLE('',#791,0.35);
#791 = AXIS2_PLACEMENT_3D('',#792,#793,#794);
#792 = CARTESIAN_POINT('',(-1.27,0.,0.2));
#793 = DIRECTION('',(0.,0.,1.));
#794 = DIRECTION('',(-1.,0.,0.));
#795 = PCURVE('',#588,#796);
#796 = DEFINITIONAL_REPRESENTATION('',(#797),#801);
#797 = LINE('',#798,#799);
#798 = CARTESIAN_POINT('',(0.,0.2));
#799 = VECTOR('',#800,1.);
#800 = DIRECTION('',(1.,0.));
#801 = ( GEOMETRIC_REPRESENTATION_CONTEXT(2) 
PARAMETRIC_REPRESENTATION_CONTEXT() REPRESENTATION_CONTEXT('2D SPACE',''
  ) );
#802 = PCURVE('',#710,#803);
#803 = DEFINITIONAL_REPRESENTATION('',(#804),#808);
#804 = LINE('',#805,#806);
#805 = CARTESIAN_POINT('',(-0.,0.));
#806 = VECTOR('',#807,1.);
#807 = DIRECTION('',(-1.,0.));
#808 = ( GEOMETRIC_REPRESENTATION_CONTEXT(2) 
PARAMETRIC_REPRESENTATION_CONTEXT() REPRESENTATION_CONTEXT('2D SPACE',''
  ) );
#809 = ADVANCED_FACE('',(#810),#679,.T.);
#810 = FACE_BOUND('',#811,.T.);
#811 = EDGE_LOOP('',(#812,#833,#834,#835));
#812 = ORIENTED_EDGE('',*,*,#813,.F.);
#813 = EDGE_CURVE('',#663,#814,#816,.T.);
#814 = VERTEX_POINT('',#815);
#815 = CARTESIAN_POINT('',(2.5,0.,0.2));
#816 = SEAM_CURVE('',#817,(#821,#827),.PCURVE_S1.);
#817 = LINE('',#818,#819);
#818 = CARTESIAN_POINT('',(2.5,0.,0.2));
#819 = VECTOR('',#820,1.);
#820 = DIRECTION('',(0.707106781187,0.,0.707106781187));
#821 = PCURVE('',#679,#822);
#822 = DEFINITIONAL_REPRESENTATION('',(#823),#826);
#823 = B_SPLINE_CURVE_WITH_KNOTS('',1,(#824,#825),.UNSPECIFIED.,.F.,.F.,
  (2,2),(-0.282842712475,0.),.PIECEWISE_BEZIER_KNOTS.);
#824 = CARTESIAN_POINT('',(0.,-0.2));
#825 = CARTESIAN_POINT('',(0.,0.));
#826 = ( GEOMETRIC_REPRESENTATION_CONTEXT(2) 
PARAMETRIC_REPRESENTATION_CONTEXT() REPRESENTATION_CONTEXT('2D SPACE',''
  ) );
#827 = PCURVE('',#679,#828);
#828 = DEFINITIONAL_REPRESENTATION('',(#829),#832);
#829 = B_SPLINE_CURVE_WITH_KNOTS('',1,(#830,#831),.UNSPECIFIED.,.F.,.F.,
  (2,2),(-0.282842712475,0.),.PIECEWISE_BEZIER_KNOTS.);
#830 = CARTESIAN_POINT('',(6.28318530718,-0.2));
#831 = CARTESIAN_POINT('',(6.28318530718,0.));
#832 = ( GEOMETRIC_REPRESENTATION_CONTEXT(2) 
PARAMETRIC_REPRESENTATION_CONTEXT() REPRESENTATION_CONTEXT('2D SPACE',''
  ) );
#833 = ORIENTED_EDGE('',*,*,#662,.T.);
#834 = ORIENTED_EDGE('',*,*,#813,.T.);
#835 = ORIENTED_EDGE('',*,*,#836,.F.);
#836 = EDGE_CURVE('',#814,#814,#837,.T.);
#837 = SURFACE_CURVE('',#838,(#843,#850),.PCURVE_S1.);
#838 = CIRCLE('',#839,2.5);
#839 = AXIS2_PLACEMENT_3D('',#840,#841,#842);
#840 = CARTESIAN_POINT('',(0.,0.,0.2));
#841 = DIRECTION('',(0.,0.,1.));
#842 = DIRECTION('',(1.,0.,-0.));
#843 = PCURVE('',#679,#844);
#844 = DEFINITIONAL_REPRESENTATION('',(#845),#849);
#845 = LINE('',#846,#847);
#846 = CARTESIAN_POINT('',(0.,0.));
#847 = VECTOR('',#848,1.);
#848 = DIRECTION('',(1.,0.));
#849 = ( GEOMETRIC_REPRESENTATION_CONTEXT(2) 
PARAMETRIC_REPRESENTATION_CONTEXT() REPRESENTATION_CONTEXT('2D SPACE',''
  ) );
#850 = PCURVE('',#851,#856);
#851 = CYLINDRICAL_SURFACE('',#852,2.5);
#852 = AXIS2_PLACEMENT_3D('',#853,#854,#855);
#853 = CARTESIAN_POINT('',(0.,0.,0.));
#854 = DIRECTION('',(-0.,-0.,-1.));
#855 = DIRECTION('',(1.,0.,0.));
#856 = DEFINITIONAL_REPRESENTATION('',(#857),#861);
#857 = LINE('',#858,#859);
#858 = CARTESIAN_POINT('',(-0.,-0.2));
#859 = VECTOR('',#860,1.);
#860 = DIRECTION('',(-1.,0.));
#861 = ( GEOMETRIC_REPRESENTATION_CONTEXT(2) 
PARAMETRIC_REPRESENTATION_CONTEXT() REPRESENTATION_CONTEXT('2D SPACE',''
  ) );
#862 = ADVANCED_FACE('',(#863),#710,.F.);
#863 = FACE_BOUND('',#864,.T.);
#864 = EDGE_LOOP('',(#865,#884,#885,#886));
#865 = ORIENTED_EDGE('',*,*,#866,.F.);
#866 = EDGE_CURVE('',#764,#694,#867,.T.);
#867 = SEAM_CURVE('',#868,(#872,#878),.PCURVE_S1.);
#868 = LINE('',#869,#870);
#869 = CARTESIAN_POINT('',(-1.62,0.,0.2));
#870 = VECTOR('',#871,1.);
#871 = DIRECTION('',(-0.707106781187,0.,-0.707106781187));
#872 = PCURVE('',#710,#873);
#873 = DEFINITIONAL_REPRESENTATION('',(#874),#877);
#874 = B_SPLINE_CURVE_WITH_KNOTS('',1,(#875,#876),.UNSPECIFIED.,.F.,.F.,
  (2,2),(0.,0.282842712475),.PIECEWISE_BEZIER_KNOTS.);
#875 = CARTESIAN_POINT('',(0.,0.));
#876 = CARTESIAN_POINT('',(0.,0.2));
#877 = ( GEOMETRIC_REPRESENTATION_CONTEXT(2) 
PARAMETRIC_REPRESENTATION_CONTEXT() REPRESENTATION_CONTEXT('2D SPACE',''
  ) );
#878 = PCURVE('',#710,#879);
#879 = DEFINITIONAL_REPRESENTATION('',(#880),#883);
#880 = B_SPLINE_CURVE_WITH_KNOTS('',1,(#881,#882),.UNSPECIFIED.,.F.,.F.,
  (2,2),(0.,0.282842712475),.PIECEWISE_BEZIER_KNOTS.);
#881 = CARTESIAN_POINT('',(-6.28318530718,0.));
#882 = CARTESIAN_POINT('',(-6.28318530718,0.2));
#883 = ( GEOMETRIC_REPRESENTATION_CONTEXT(2) 
PARAMETRIC_REPRESENTATION_CONTEXT() REPRESENTATION_CONTEXT('2D SPACE',''
  ) );
#884 = ORIENTED_EDGE('',*,*,#788,.T.);
#885 = ORIENTED_EDGE('',*,*,#866,.T.);
#886 = ORIENTED_EDGE('',*,*,#693,.F.);
#887 = ADVANCED_FACE('',(#888),#748,.T.);
#888 = FACE_BOUND('',#889,.F.);
#889 = EDGE_LOOP('',(#890,#919,#940,#941));
#890 = ORIENTED_EDGE('',*,*,#891,.F.);
#891 = EDGE_CURVE('',#892,#892,#894,.T.);
#892 = VERTEX_POINT('',#893);
#893 = CARTESIAN_POINT('',(2.5,1.2111523905E-16,1.5));
#894 = SURFACE_CURVE('',#895,(#900,#907),.PCURVE_S1.);
#895 = CIRCLE('',#896,2.5);
#896 = AXIS2_PLACEMENT_3D('',#897,#898,#899);
#897 = CARTESIAN_POINT('',(1.29997023247E-14,1.2111523905E-16,1.5));
#898 = DIRECTION('',(0.,0.,1.));
#899 = DIRECTION('',(1.,0.,0.));
#900 = PCURVE('',#748,#901);
#901 = DEFINITIONAL_REPRESENTATION('',(#902),#906);
#902 = LINE('',#903,#904);
#903 = CARTESIAN_POINT('',(-0.,-1.5));
#904 = VECTOR('',#905,1.);
#905 = DIRECTION('',(-1.,0.));
#906 = ( GEOMETRIC_REPRESENTATION_CONTEXT(2) 
PARAMETRIC_REPRESENTATION_CONTEXT() REPRESENTATION_CONTEXT('2D SPACE',''
  ) );
#907 = PCURVE('',#908,#913);
#908 = PLANE('',#909);
#909 = AXIS2_PLACEMENT_3D('',#910,#911,#912);
#910 = CARTESIAN_POINT('',(-1.864691089826E-16,-1.122592899218E-16,1.5)
  );
#911 = DIRECTION('',(0.,0.,1.));
#912 = DIRECTION('',(1.,0.,-0.));
#913 = DEFINITIONAL_REPRESENTATION('',(#914),#918);
#914 = CIRCLE('',#915,2.5);
#915 = AXIS2_PLACEMENT_2D('',#916,#917);
#916 = CARTESIAN_POINT('',(1.318617143368E-14,2.333745289719E-16));
#917 = DIRECTION('',(1.,0.));
#918 = ( GEOMETRIC_REPRESENTATION_CONTEXT(2) 
PARAMETRIC_REPRESENTATION_CONTEXT() REPRESENTATION_CONTEXT('2D SPACE',''
  ) );
#919 = ORIENTED_EDGE('',*,*,#920,.T.);
#920 = EDGE_CURVE('',#892,#732,#921,.T.);
#921 = SEAM_CURVE('',#922,(#926,#933),.PCURVE_S1.);
#922 = LINE('',#923,#924);
#923 = CARTESIAN_POINT('',(2.5,0.,0.));
#924 = VECTOR('',#925,1.);
#925 = DIRECTION('',(0.,0.,1.));
#926 = PCURVE('',#748,#927);
#927 = DEFINITIONAL_REPRESENTATION('',(#928),#932);
#928 = LINE('',#929,#930);
#929 = CARTESIAN_POINT('',(-6.28318530718,0.));
#930 = VECTOR('',#931,1.);
#931 = DIRECTION('',(-0.,-1.));
#932 = ( GEOMETRIC_REPRESENTATION_CONTEXT(2) 
PARAMETRIC_REPRESENTATION_CONTEXT() REPRESENTATION_CONTEXT('2D SPACE',''
  ) );
#933 = PCURVE('',#748,#934);
#934 = DEFINITIONAL_REPRESENTATION('',(#935),#939);
#935 = LINE('',#936,#937);
#936 = CARTESIAN_POINT('',(-0.,0.));
#937 = VECTOR('',#938,1.);
#938 = DIRECTION('',(-0.,-1.));
#939 = ( GEOMETRIC_REPRESENTATION_CONTEXT(2) 
PARAMETRIC_REPRESENTATION_CONTEXT() REPRESENTATION_CONTEXT('2D SPACE',''
  ) );
#940 = ORIENTED_EDGE('',*,*,#731,.T.);
#941 = ORIENTED_EDGE('',*,*,#920,.F.);
#942 = ADVANCED_FACE('',(#943),#851,.T.);
#943 = FACE_BOUND('',#944,.F.);
#944 = EDGE_LOOP('',(#945,#968,#969,#970));
#945 = ORIENTED_EDGE('',*,*,#946,.F.);
#946 = EDGE_CURVE('',#814,#947,#949,.T.);
#947 = VERTEX_POINT('',#948);
#948 = CARTESIAN_POINT('',(2.5,1.2111523905E-16,1.));
#949 = SEAM_CURVE('',#950,(#954,#961),.PCURVE_S1.);
#950 = LINE('',#951,#952);
#951 = CARTESIAN_POINT('',(2.5,0.,0.));
#952 = VECTOR('',#953,1.);
#953 = DIRECTION('',(0.,0.,1.));
#954 = PCURVE('',#851,#955);
#955 = DEFINITIONAL_REPRESENTATION('',(#956),#960);
#956 = LINE('',#957,#958);
#957 = CARTESIAN_POINT('',(-6.28318530718,0.));
#958 = VECTOR('',#959,1.);
#959 = DIRECTION('',(-0.,-1.));
#960 = ( GEOMETRIC_REPRESENTATION_CONTEXT(2) 
PARAMETRIC_REPRESENTATION_CONTEXT() REPRESENTATION_CONTEXT('2D SPACE',''
  ) );
#961 = PCURVE('',#851,#962);
#962 = DEFINITIONAL_REPRESENTATION('',(#963),#967);
#963 = LINE('',#964,#965);
#964 = CARTESIAN_POINT('',(-0.,0.));
#965 = VECTOR('',#966,1.);
#966 = DIRECTION('',(-0.,-1.));
#967 = ( GEOMETRIC_REPRESENTATION_CONTEXT(2) 
PARAMETRIC_REPRESENTATION_CONTEXT() REPRESENTATION_CONTEXT('2D SPACE',''
  ) );
#968 = ORIENTED_EDGE('',*,*,#836,.F.);
#969 = ORIENTED_EDGE('',*,*,#946,.T.);
#970 = ORIENTED_EDGE('',*,*,#971,.T.);
#971 = EDGE_CURVE('',#947,#947,#972,.T.);
#972 = SURFACE_CURVE('',#973,(#978,#985),.PCURVE_S1.);
#973 = CIRCLE('',#974,2.5);
#974 = AXIS2_PLACEMENT_3D('',#975,#976,#977);
#975 = CARTESIAN_POINT('',(1.29997023247E-14,1.2111523905E-16,1.));
#976 = DIRECTION('',(0.,0.,1.));
#977 = DIRECTION('',(1.,0.,0.));
#978 = PCURVE('',#851,#979);
#979 = DEFINITIONAL_REPRESENTATION('',(#980),#984);
#980 = LINE('',#981,#982);
#981 = CARTESIAN_POINT('',(-0.,-1.));
#982 = VECTOR('',#983,1.);
#983 = DIRECTION('',(-1.,0.));
#984 = ( GEOMETRIC_REPRESENTATION_CONTEXT(2) 
PARAMETRIC_REPRESENTATION_CONTEXT() REPRESENTATION_CONTEXT('2D SPACE',''
  ) );
#985 = PCURVE('',#986,#991);
#986 = PLANE('',#987);
#987 = AXIS2_PLACEMENT_3D('',#988,#989,#990);
#988 = CARTESIAN_POINT('',(-1.864691089826E-16,-1.122592899218E-16,1.));
#989 = DIRECTION('',(0.,0.,1.));
#990 = DIRECTION('',(1.,0.,-0.));
#991 = DEFINITIONAL_REPRESENTATION('',(#992),#996);
#992 = CIRCLE('',#993,2.5);
#993 = AXIS2_PLACEMENT_2D('',#994,#995);
#994 = CARTESIAN_POINT('',(1.318617143368E-14,2.333745289719E-16));
#995 = DIRECTION('',(1.,0.));
#996 = ( GEOMETRIC_REPRESENTATION_CONTEXT(2) 
PARAMETRIC_REPRESENTATION_CONTEXT() REPRESENTATION_CONTEXT('2D SPACE',''
  ) );
#997 = ADVANCED_FACE('',(#998,#1029),#908,.T.);
#998 = FACE_BOUND('',#999,.T.);
#999 = EDGE_LOOP('',(#1000));
#1000 = ORIENTED_EDGE('',*,*,#1001,.T.);
#1001 = EDGE_CURVE('',#1002,#1002,#1004,.T.);
#1002 = VERTEX_POINT('',#1003);
#1003 = CARTESIAN_POINT('',(2.75,0.,1.5));
#1004 = SURFACE_CURVE('',#1005,(#1010,#1017),.PCURVE_S1.);
#1005 = CIRCLE('',#1006,2.75);
#1006 = AXIS2_PLACEMENT_3D('',#1007,#1008,#1009);
#1007 = CARTESIAN_POINT('',(0.,0.,1.5));
#1008 = DIRECTION('',(0.,0.,1.));
#1009 = DIRECTION('',(1.,0.,0.));
#1010 = PCURVE('',#908,#1011);
#1011 = DEFINITIONAL_REPRESENTATION('',(#1012),#1016);
#1012 = CIRCLE('',#1013,2.75);
#1013 = AXIS2_PLACEMENT_2D('',#1014,#1015);
#1014 = CARTESIAN_POINT('',(1.864691089826E-16,1.122592899218E-16));
#1015 = DIRECTION('',(1.,0.));
#1016 = ( GEOMETRIC_REPRESENTATION_CONTEXT(2) 
PARAMETRIC_REPRESENTATION_CONTEXT() REPRESENTATION_CONTEXT('2D SPACE',''
  ) );
#1017 = PCURVE('',#1018,#1023);
#1018 = CYLINDRICAL_SURFACE('',#1019,2.75);
#1019 = AXIS2_PLACEMENT_3D('',#1020,#1021,#1022);
#1020 = CARTESIAN_POINT('',(0.,0.,1.));
#1021 = DIRECTION('',(-0.,-0.,-1.));
#1022 = DIRECTION('',(1.,0.,0.));
#1023 = DEFINITIONAL_REPRESENTATION('',(#1024),#1028);
#1024 = LINE('',#1025,#1026);
#1025 = CARTESIAN_POINT('',(-0.,-0.5));
#1026 = VECTOR('',#1027,1.);
#1027 = DIRECTION('',(-1.,0.));
#1028 = ( GEOMETRIC_REPRESENTATION_CONTEXT(2) 
PARAMETRIC_REPRESENTATION_CONTEXT() REPRESENTATION_CONTEXT('2D SPACE',''
  ) );
#1029 = FACE_BOUND('',#1030,.T.);
#1030 = EDGE_LOOP('',(#1031));
#1031 = ORIENTED_EDGE('',*,*,#891,.F.);
#1032 = ADVANCED_FACE('',(#1033,#1059),#986,.F.);
#1033 = FACE_BOUND('',#1034,.F.);
#1034 = EDGE_LOOP('',(#1035));
#1035 = ORIENTED_EDGE('',*,*,#1036,.T.);
#1036 = EDGE_CURVE('',#1037,#1037,#1039,.T.);
#1037 = VERTEX_POINT('',#1038);
#1038 = CARTESIAN_POINT('',(2.75,0.,1.));
#1039 = SURFACE_CURVE('',#1040,(#1045,#1052),.PCURVE_S1.);
#1040 = CIRCLE('',#1041,2.75);
#1041 = AXIS2_PLACEMENT_3D('',#1042,#1043,#1044);
#1042 = CARTESIAN_POINT('',(0.,0.,1.));
#1043 = DIRECTION('',(0.,0.,1.));
#1044 = DIRECTION('',(1.,0.,0.));
#1045 = PCURVE('',#986,#1046);
#1046 = DEFINITIONAL_REPRESENTATION('',(#1047),#1051);
#1047 = CIRCLE('',#1048,2.75);
#1048 = AXIS2_PLACEMENT_2D('',#1049,#1050);
#1049 = CARTESIAN_POINT('',(1.864691089826E-16,1.122592899218E-16));
#1050 = DIRECTION('',(1.,0.));
#1051 = ( GEOMETRIC_REPRESENTATION_CONTEXT(2) 
PARAMETRIC_REPRESENTATION_CONTEXT() REPRESENTATION_CONTEXT('2D SPACE',''
  ) );
#1052 = PCURVE('',#1018,#1053);
#1053 = DEFINITIONAL_REPRESENTATION('',(#1054),#1058);
#1054 = LINE('',#1055,#1056);
#1055 = CARTESIAN_POINT('',(-0.,0.));
#1056 = VECTOR('',#1057,1.);
#1057 = DIRECTION('',(-1.,0.));
#1058 = ( GEOMETRIC_REPRESENTATION_CONTEXT(2) 
PARAMETRIC_REPRESENTATION_CONTEXT() REPRESENTATION_CONTEXT('2D SPACE',''
  ) );
#1059 = FACE_BOUND('',#1060,.F.);
#1060 = EDGE_LOOP('',(#1061));
#1061 = ORIENTED_EDGE('',*,*,#971,.F.);
#1062 = ADVANCED_FACE('',(#1063),#1018,.T.);
#1063 = FACE_BOUND('',#1064,.F.);
#1064 = EDGE_LOOP('',(#1065,#1086,#1087,#1088));
#1065 = ORIENTED_EDGE('',*,*,#1066,.T.);
#1066 = EDGE_CURVE('',#1037,#1002,#1067,.T.);
#1067 = SEAM_CURVE('',#1068,(#1072,#1079),.PCURVE_S1.);
#1068 = LINE('',#1069,#1070);
#1069 = CARTESIAN_POINT('',(2.75,0.,1.));
#1070 = VECTOR('',#1071,1.);
#1071 = DIRECTION('',(0.,0.,1.));
#1072 = PCURVE('',#1018,#1073);
#1073 = DEFINITIONAL_REPRESENTATION('',(#1074),#1078);
#1074 = LINE('',#1075,#1076);
#1075 = CARTESIAN_POINT('',(-0.,0.));
#1076 = VECTOR('',#1077,1.);
#1077 = DIRECTION('',(-0.,-1.));
#1078 = ( GEOMETRIC_REPRESENTATION_CONTEXT(2) 
PARAMETRIC_REPRESENTATION_CONTEXT() REPRESENTATION_CONTEXT('2D SPACE',''
  ) );
#1079 = PCURVE('',#1018,#1080);
#1080 = DEFINITIONAL_REPRESENTATION('',(#1081),#1085);
#1081 = LINE('',#1082,#1083);
#1082 = CARTESIAN_POINT('',(-6.28318530718,0.));
#1083 = VECTOR('',#1084,1.);
#1084 = DIRECTION('',(-0.,-1.));
#1085 = ( GEOMETRIC_REPRESENTATION_CONTEXT(2) 
PARAMETRIC_REPRESENTATION_CONTEXT() REPRESENTATION_CONTEXT('2D SPACE',''
  ) );
#1086 = ORIENTED_EDGE('',*,*,#1001,.T.);
#1087 = ORIENTED_EDGE('',*,*,#1066,.F.);
#1088 = ORIENTED_EDGE('',*,*,#1036,.F.);
#1089 = ( GEOMETRIC_REPRESENTATION_CONTEXT(3) 
GLOBAL_UNCERTAINTY_ASSIGNED_CONTEXT((#1093)) 
GLOBAL_UNIT_ASSIGNED_CONTEXT((#1090,#1091,#1092)) REPRESENTATION_CONTEXT
('Context #1','3D Context with UNIT and UNCERTAINTY') );
#1090 = ( LENGTH_UNIT() NAMED_UNIT(*) SI_UNIT(.MILLI.,.METRE.) );
#1091 = ( NAMED_UNIT(*) PLANE_ANGLE_UNIT() SI_UNIT($,.RADIAN.) );
#1092 = ( NAMED_UNIT(*) SI_UNIT($,.STERADIAN.) SOLID_ANGLE_UNIT() );
#1093 = UNCERTAINTY_MEASURE_WITH_UNIT(LENGTH_MEASURE(1.E-07),#1090,
  'distance_accuracy_value','confusion accuracy');
#1094 = PRODUCT_RELATED_PRODUCT_CATEGORY('part',$,(#7));
ENDSEC;
END-ISO-10303-21;
