ISO-10303-21;
HEADER;
FILE_DESCRIPTION(('Open CASCADE Model'),'2;1');
FILE_NAME('Open CASCADE Shape Model','2026-03-29T02:05:08',('Author'),(
    'Open CASCADE'),'Open CASCADE STEP processor 7.8','Open CASCADE 7.8'
  ,'Unknown');
FILE_SCHEMA(('AUTOMOTIVE_DESIGN { 1 0 10303 214 1 1 1 1 }'));
ENDSEC;
DATA;
#1 = APPLICATION_PROTOCOL_DEFINITION('international standard',
  'automotive_design',2000,#2);
#2 = APPLICATION_CONTEXT(
  'core data for automotive mechanical design processes');
#3 = SHAPE_DEFINITION_REPRESENTATION(#4,#10);
#4 = PRODUCT_DEFINITION_SHAPE('','',#5);
#5 = PRODUCT_DEFINITION('design','',#6,#9);
#6 = PRODUCT_DEFINITION_FORMATION('','',#7);
#7 = PRODUCT('Open CASCADE STEP translator 7.8 1',
  'Open CASCADE STEP translator 7.8 1','',(#8));
#8 = PRODUCT_CONTEXT('',#2,'mechanical');
#9 = PRODUCT_DEFINITION_CONTEXT('part definition',#2,'design');
#10 = ADVANCED_BREP_SHAPE_REPRESENTATION('',(#11,#15),#1797);
#11 = AXIS2_PLACEMENT_3D('',#12,#13,#14);
#12 = CARTESIAN_POINT('',(0.,0.,0.));
#13 = DIRECTION('',(0.,0.,1.));
#14 = DIRECTION('',(1.,0.,-0.));
#15 = MANIFOLD_SOLID_BREP('',#16);
#16 = CLOSED_SHELL('',(#17,#105,#140,#442,#891,#946,#996,#1067,#1199,
    #1331,#1416,#1501,#1528,#1578,#1628,#1659,#1694,#1723,#1770));
#17 = ADVANCED_FACE('',(#18),#32,.T.);
#18 = FACE_BOUND('',#19,.F.);
#19 = EDGE_LOOP('',(#20,#50,#77,#78));
#20 = ORIENTED_EDGE('',*,*,#21,.T.);
#21 = EDGE_CURVE('',#22,#24,#26,.T.);
#22 = VERTEX_POINT('',#23);
#23 = CARTESIAN_POINT('',(25.,0.,25.));
#24 = VERTEX_POINT('',#25);
#25 = CARTESIAN_POINT('',(25.,0.,27.5));
#26 = SEAM_CURVE('',#27,(#31,#43),.PCURVE_S1.);
#27 = LINE('',#28,#29);
#28 = CARTESIAN_POINT('',(25.,0.,25.));
#29 = VECTOR('',#30,1.);
#30 = DIRECTION('',(0.,0.,1.));
#31 = PCURVE('',#32,#37);
#32 = CYLINDRICAL_SURFACE('',#33,25.);
#33 = AXIS2_PLACEMENT_3D('',#34,#35,#36);
#34 = CARTESIAN_POINT('',(0.,0.,25.));
#35 = DIRECTION('',(-0.,-0.,-1.));
#36 = DIRECTION('',(1.,0.,0.));
#37 = DEFINITIONAL_REPRESENTATION('',(#38),#42);
#38 = LINE('',#39,#40);
#39 = CARTESIAN_POINT('',(-0.,0.));
#40 = VECTOR('',#41,1.);
#41 = DIRECTION('',(-0.,-1.));
#42 = ( GEOMETRIC_REPRESENTATION_CONTEXT(2) 
PARAMETRIC_REPRESENTATION_CONTEXT() REPRESENTATION_CONTEXT('2D SPACE',''
  ) );
#43 = PCURVE('',#32,#44);
#44 = DEFINITIONAL_REPRESENTATION('',(#45),#49);
#45 = LINE('',#46,#47);
#46 = CARTESIAN_POINT('',(-6.28318530718,0.));
#47 = VECTOR('',#48,1.);
#48 = DIRECTION('',(-0.,-1.));
#49 = ( GEOMETRIC_REPRESENTATION_CONTEXT(2) 
PARAMETRIC_REPRESENTATION_CONTEXT() REPRESENTATION_CONTEXT('2D SPACE',''
  ) );
#50 = ORIENTED_EDGE('',*,*,#51,.T.);
#51 = EDGE_CURVE('',#24,#24,#52,.T.);
#52 = SURFACE_CURVE('',#53,(#58,#65),.PCURVE_S1.);
#53 = CIRCLE('',#54,25.);
#54 = AXIS2_PLACEMENT_3D('',#55,#56,#57);
#55 = CARTESIAN_POINT('',(0.,0.,27.5));
#56 = DIRECTION('',(0.,0.,1.));
#57 = DIRECTION('',(1.,0.,0.));
#58 = PCURVE('',#32,#59);
#59 = DEFINITIONAL_REPRESENTATION('',(#60),#64);
#60 = LINE('',#61,#62);
#61 = CARTESIAN_POINT('',(-0.,-2.5));
#62 = VECTOR('',#63,1.);
#63 = DIRECTION('',(-1.,0.));
#64 = ( GEOMETRIC_REPRESENTATION_CONTEXT(2) 
PARAMETRIC_REPRESENTATION_CONTEXT() REPRESENTATION_CONTEXT('2D SPACE',''
  ) );
#65 = PCURVE('',#66,#71);
#66 = PLANE('',#67);
#67 = AXIS2_PLACEMENT_3D('',#68,#69,#70);
#68 = CARTESIAN_POINT('',(-8.751616848252E-16,1.604946055186E-15,27.5));
#69 = DIRECTION('',(0.,0.,1.));
#70 = DIRECTION('',(1.,0.,-0.));
#71 = DEFINITIONAL_REPRESENTATION('',(#72),#76);
#72 = CIRCLE('',#73,25.);
#73 = AXIS2_PLACEMENT_2D('',#74,#75);
#74 = CARTESIAN_POINT('',(8.751616848252E-16,-1.604946055186E-15));
#75 = DIRECTION('',(1.,0.));
#76 = ( GEOMETRIC_REPRESENTATION_CONTEXT(2) 
PARAMETRIC_REPRESENTATION_CONTEXT() REPRESENTATION_CONTEXT('2D SPACE',''
  ) );
#77 = ORIENTED_EDGE('',*,*,#21,.F.);
#78 = ORIENTED_EDGE('',*,*,#79,.F.);
#79 = EDGE_CURVE('',#22,#22,#80,.T.);
#80 = SURFACE_CURVE('',#81,(#86,#93),.PCURVE_S1.);
#81 = CIRCLE('',#82,25.);
#82 = AXIS2_PLACEMENT_3D('',#83,#84,#85);
#83 = CARTESIAN_POINT('',(0.,0.,25.));
#84 = DIRECTION('',(0.,0.,1.));
#85 = DIRECTION('',(1.,0.,0.));
#86 = PCURVE('',#32,#87);
#87 = DEFINITIONAL_REPRESENTATION('',(#88),#92);
#88 = LINE('',#89,#90);
#89 = CARTESIAN_POINT('',(-0.,0.));
#90 = VECTOR('',#91,1.);
#91 = DIRECTION('',(-1.,0.));
#92 = ( GEOMETRIC_REPRESENTATION_CONTEXT(2) 
PARAMETRIC_REPRESENTATION_CONTEXT() REPRESENTATION_CONTEXT('2D SPACE',''
  ) );
#93 = PCURVE('',#94,#99);
#94 = PLANE('',#95);
#95 = AXIS2_PLACEMENT_3D('',#96,#97,#98);
#96 = CARTESIAN_POINT('',(-8.751616848252E-16,1.604946055186E-15,25.));
#97 = DIRECTION('',(0.,0.,1.));
#98 = DIRECTION('',(1.,0.,-0.));
#99 = DEFINITIONAL_REPRESENTATION('',(#100),#104);
#100 = CIRCLE('',#101,25.);
#101 = AXIS2_PLACEMENT_2D('',#102,#103);
#102 = CARTESIAN_POINT('',(8.751616848252E-16,-1.604946055186E-15));
#103 = DIRECTION('',(1.,0.));
#104 = ( GEOMETRIC_REPRESENTATION_CONTEXT(2) 
PARAMETRIC_REPRESENTATION_CONTEXT() REPRESENTATION_CONTEXT('2D SPACE',''
  ) );
#105 = ADVANCED_FACE('',(#106,#109),#94,.F.);
#106 = FACE_BOUND('',#107,.F.);
#107 = EDGE_LOOP('',(#108));
#108 = ORIENTED_EDGE('',*,*,#79,.T.);
#109 = FACE_BOUND('',#110,.F.);
#110 = EDGE_LOOP('',(#111));
#111 = ORIENTED_EDGE('',*,*,#112,.F.);
#112 = EDGE_CURVE('',#113,#113,#115,.T.);
#113 = VERTEX_POINT('',#114);
#114 = CARTESIAN_POINT('',(14.,0.,25.));
#115 = SURFACE_CURVE('',#116,(#121,#128),.PCURVE_S1.);
#116 = CIRCLE('',#117,14.);
#117 = AXIS2_PLACEMENT_3D('',#118,#119,#120);
#118 = CARTESIAN_POINT('',(0.,0.,25.));
#119 = DIRECTION('',(0.,0.,1.));
#120 = DIRECTION('',(1.,0.,0.));
#121 = PCURVE('',#94,#122);
#122 = DEFINITIONAL_REPRESENTATION('',(#123),#127);
#123 = CIRCLE('',#124,14.);
#124 = AXIS2_PLACEMENT_2D('',#125,#126);
#125 = CARTESIAN_POINT('',(8.751616848252E-16,-1.604946055186E-15));
#126 = DIRECTION('',(1.,0.));
#127 = ( GEOMETRIC_REPRESENTATION_CONTEXT(2) 
PARAMETRIC_REPRESENTATION_CONTEXT() REPRESENTATION_CONTEXT('2D SPACE',''
  ) );
#128 = PCURVE('',#129,#134);
#129 = CYLINDRICAL_SURFACE('',#130,14.);
#130 = AXIS2_PLACEMENT_3D('',#131,#132,#133);
#131 = CARTESIAN_POINT('',(0.,0.,0.));
#132 = DIRECTION('',(-0.,-0.,-1.));
#133 = DIRECTION('',(1.,0.,0.));
#134 = DEFINITIONAL_REPRESENTATION('',(#135),#139);
#135 = LINE('',#136,#137);
#136 = CARTESIAN_POINT('',(-0.,-25.));
#137 = VECTOR('',#138,1.);
#138 = DIRECTION('',(-1.,0.));
#139 = ( GEOMETRIC_REPRESENTATION_CONTEXT(2) 
PARAMETRIC_REPRESENTATION_CONTEXT() REPRESENTATION_CONTEXT('2D SPACE',''
  ) );
#140 = ADVANCED_FACE('',(#141,#144,#179,#214,#372,#407),#66,.T.);
#141 = FACE_BOUND('',#142,.T.);
#142 = EDGE_LOOP('',(#143));
#143 = ORIENTED_EDGE('',*,*,#51,.T.);
#144 = FACE_BOUND('',#145,.T.);
#145 = EDGE_LOOP('',(#146));
#146 = ORIENTED_EDGE('',*,*,#147,.T.);
#147 = EDGE_CURVE('',#148,#148,#150,.T.);
#148 = VERTEX_POINT('',#149);
#149 = CARTESIAN_POINT('',(-6.717514421272,-6.717514421272,27.5));
#150 = SURFACE_CURVE('',#151,(#156,#167),.PCURVE_S1.);
#151 = CIRCLE('',#152,1.5);
#152 = AXIS2_PLACEMENT_3D('',#153,#154,#155);
#153 = CARTESIAN_POINT('',(-7.778174593052,-7.778174593052,27.5));
#154 = DIRECTION('',(0.,0.,-1.));
#155 = DIRECTION('',(0.707106781187,0.707106781187,0.));
#156 = PCURVE('',#66,#157);
#157 = DEFINITIONAL_REPRESENTATION('',(#158),#166);
#158 = ( BOUNDED_CURVE() B_SPLINE_CURVE(2,(#159,#160,#161,#162,#163,#164
,#165),.UNSPECIFIED.,.T.,.F.) B_SPLINE_CURVE_WITH_KNOTS((1,2,2,2,2,1),(
    -2.094395102393,0.,2.094395102393,4.188790204786,6.28318530718,
8.377580409573),.UNSPECIFIED.) CURVE() GEOMETRIC_REPRESENTATION_ITEM() 
RATIONAL_B_SPLINE_CURVE((1.,0.5,1.,0.5,1.,0.5,1.)) REPRESENTATION_ITEM(
  '') );
#159 = CARTESIAN_POINT('',(-6.717514421272,-6.717514421272));
#160 = CARTESIAN_POINT('',(-4.880397114185,-8.55463172836));
#161 = CARTESIAN_POINT('',(-7.389946025398,-9.227063332486));
#162 = CARTESIAN_POINT('',(-9.899494936612,-9.899494936612));
#163 = CARTESIAN_POINT('',(-9.227063332486,-7.389946025398));
#164 = CARTESIAN_POINT('',(-8.55463172836,-4.880397114185));
#165 = CARTESIAN_POINT('',(-6.717514421272,-6.717514421272));
#166 = ( GEOMETRIC_REPRESENTATION_CONTEXT(2) 
PARAMETRIC_REPRESENTATION_CONTEXT() REPRESENTATION_CONTEXT('2D SPACE',''
  ) );
#167 = PCURVE('',#168,#173);
#168 = CYLINDRICAL_SURFACE('',#169,1.5);
#169 = AXIS2_PLACEMENT_3D('',#170,#171,#172);
#170 = CARTESIAN_POINT('',(-7.778174593052,-7.778174593052,27.5));
#171 = DIRECTION('',(0.,-0.,-1.));
#172 = DIRECTION('',(0.707106781187,0.707106781187,0.));
#173 = DEFINITIONAL_REPRESENTATION('',(#174),#178);
#174 = LINE('',#175,#176);
#175 = CARTESIAN_POINT('',(0.,0.));
#176 = VECTOR('',#177,1.);
#177 = DIRECTION('',(1.,0.));
#178 = ( GEOMETRIC_REPRESENTATION_CONTEXT(2) 
PARAMETRIC_REPRESENTATION_CONTEXT() REPRESENTATION_CONTEXT('2D SPACE',''
  ) );
#179 = FACE_BOUND('',#180,.T.);
#180 = EDGE_LOOP('',(#181));
#181 = ORIENTED_EDGE('',*,*,#182,.T.);
#182 = EDGE_CURVE('',#183,#183,#185,.T.);
#183 = VERTEX_POINT('',#184);
#184 = CARTESIAN_POINT('',(6.717514421272,-6.717514421272,27.5));
#185 = SURFACE_CURVE('',#186,(#191,#202),.PCURVE_S1.);
#186 = CIRCLE('',#187,1.5);
#187 = AXIS2_PLACEMENT_3D('',#188,#189,#190);
#188 = CARTESIAN_POINT('',(7.778174593052,-7.778174593052,27.5));
#189 = DIRECTION('',(0.,0.,-1.));
#190 = DIRECTION('',(-0.707106781187,0.707106781187,0.));
#191 = PCURVE('',#66,#192);
#192 = DEFINITIONAL_REPRESENTATION('',(#193),#201);
#193 = ( BOUNDED_CURVE() B_SPLINE_CURVE(2,(#194,#195,#196,#197,#198,#199
,#200),.UNSPECIFIED.,.T.,.F.) B_SPLINE_CURVE_WITH_KNOTS((1,2,2,2,2,1),(
    -2.094395102393,0.,2.094395102393,4.188790204786,6.28318530718,
8.377580409573),.UNSPECIFIED.) CURVE() GEOMETRIC_REPRESENTATION_ITEM() 
RATIONAL_B_SPLINE_CURVE((1.,0.5,1.,0.5,1.,0.5,1.)) REPRESENTATION_ITEM(
  '') );
#194 = CARTESIAN_POINT('',(6.717514421272,-6.717514421272));
#195 = CARTESIAN_POINT('',(8.55463172836,-4.880397114185));
#196 = CARTESIAN_POINT('',(9.227063332486,-7.389946025398));
#197 = CARTESIAN_POINT('',(9.899494936612,-9.899494936612));
#198 = CARTESIAN_POINT('',(7.389946025398,-9.227063332486));
#199 = CARTESIAN_POINT('',(4.880397114185,-8.55463172836));
#200 = CARTESIAN_POINT('',(6.717514421272,-6.717514421272));
#201 = ( GEOMETRIC_REPRESENTATION_CONTEXT(2) 
PARAMETRIC_REPRESENTATION_CONTEXT() REPRESENTATION_CONTEXT('2D SPACE',''
  ) );
#202 = PCURVE('',#203,#208);
#203 = CYLINDRICAL_SURFACE('',#204,1.5);
#204 = AXIS2_PLACEMENT_3D('',#205,#206,#207);
#205 = CARTESIAN_POINT('',(7.778174593052,-7.778174593052,27.5));
#206 = DIRECTION('',(0.,0.,-1.));
#207 = DIRECTION('',(-0.707106781187,0.707106781187,0.));
#208 = DEFINITIONAL_REPRESENTATION('',(#209),#213);
#209 = LINE('',#210,#211);
#210 = CARTESIAN_POINT('',(0.,0.));
#211 = VECTOR('',#212,1.);
#212 = DIRECTION('',(1.,0.));
#213 = ( GEOMETRIC_REPRESENTATION_CONTEXT(2) 
PARAMETRIC_REPRESENTATION_CONTEXT() REPRESENTATION_CONTEXT('2D SPACE',''
  ) );
#214 = FACE_BOUND('',#215,.T.);
#215 = EDGE_LOOP('',(#216,#244,#270,#296,#322,#348));
#216 = ORIENTED_EDGE('',*,*,#217,.T.);
#217 = EDGE_CURVE('',#218,#220,#222,.T.);
#218 = VERTEX_POINT('',#219);
#219 = CARTESIAN_POINT('',(-4.275,7.404517202357,27.5));
#220 = VERTEX_POINT('',#221);
#221 = CARTESIAN_POINT('',(4.275,7.404517202357,27.5));
#222 = SURFACE_CURVE('',#223,(#227,#233),.PCURVE_S1.);
#223 = LINE('',#224,#225);
#224 = CARTESIAN_POINT('',(2.1375,7.404517202357,27.5));
#225 = VECTOR('',#226,1.);
#226 = DIRECTION('',(1.,-2.07761033848E-16,0.));
#227 = PCURVE('',#66,#228);
#228 = DEFINITIONAL_REPRESENTATION('',(#229),#232);
#229 = B_SPLINE_CURVE_WITH_KNOTS('',1,(#230,#231),.UNSPECIFIED.,.F.,.F.,
  (2,2),(-6.4125,2.1375),.PIECEWISE_BEZIER_KNOTS.);
#230 = CARTESIAN_POINT('',(-4.275,7.404517202357));
#231 = CARTESIAN_POINT('',(4.275,7.404517202357));
#232 = ( GEOMETRIC_REPRESENTATION_CONTEXT(2) 
PARAMETRIC_REPRESENTATION_CONTEXT() REPRESENTATION_CONTEXT('2D SPACE',''
  ) );
#233 = PCURVE('',#234,#239);
#234 = PLANE('',#235);
#235 = AXIS2_PLACEMENT_3D('',#236,#237,#238);
#236 = CARTESIAN_POINT('',(4.275,7.404517202357,-25.0000002));
#237 = DIRECTION('',(-2.07761033848E-16,-1.,0.));
#238 = DIRECTION('',(-1.,2.07761033848E-16,0.));
#239 = DEFINITIONAL_REPRESENTATION('',(#240),#243);
#240 = B_SPLINE_CURVE_WITH_KNOTS('',1,(#241,#242),.UNSPECIFIED.,.F.,.F.,
  (2,2),(-6.4125,2.1375),.PIECEWISE_BEZIER_KNOTS.);
#241 = CARTESIAN_POINT('',(8.55,-52.5000002));
#242 = CARTESIAN_POINT('',(0.,-52.5000002));
#243 = ( GEOMETRIC_REPRESENTATION_CONTEXT(2) 
PARAMETRIC_REPRESENTATION_CONTEXT() REPRESENTATION_CONTEXT('2D SPACE',''
  ) );
#244 = ORIENTED_EDGE('',*,*,#245,.T.);
#245 = EDGE_CURVE('',#220,#246,#248,.T.);
#246 = VERTEX_POINT('',#247);
#247 = CARTESIAN_POINT('',(8.55,0.,27.5));
#248 = SURFACE_CURVE('',#249,(#253,#259),.PCURVE_S1.);
#249 = LINE('',#250,#251);
#250 = CARTESIAN_POINT('',(7.48125,1.851129300589,27.5));
#251 = VECTOR('',#252,1.);
#252 = DIRECTION('',(0.5,-0.866025403784,0.));
#253 = PCURVE('',#66,#254);
#254 = DEFINITIONAL_REPRESENTATION('',(#255),#258);
#255 = B_SPLINE_CURVE_WITH_KNOTS('',1,(#256,#257),.UNSPECIFIED.,.F.,.F.,
  (2,2),(-6.4125,2.1375),.PIECEWISE_BEZIER_KNOTS.);
#256 = CARTESIAN_POINT('',(4.275,7.404517202357));
#257 = CARTESIAN_POINT('',(8.55,-1.110223024625E-15));
#258 = ( GEOMETRIC_REPRESENTATION_CONTEXT(2) 
PARAMETRIC_REPRESENTATION_CONTEXT() REPRESENTATION_CONTEXT('2D SPACE',''
  ) );
#259 = PCURVE('',#260,#265);
#260 = PLANE('',#261);
#261 = AXIS2_PLACEMENT_3D('',#262,#263,#264);
#262 = CARTESIAN_POINT('',(8.55,0.,-25.0000002));
#263 = DIRECTION('',(-0.866025403784,-0.5,0.));
#264 = DIRECTION('',(-0.5,0.866025403784,0.));
#265 = DEFINITIONAL_REPRESENTATION('',(#266),#269);
#266 = B_SPLINE_CURVE_WITH_KNOTS('',1,(#267,#268),.UNSPECIFIED.,.F.,.F.,
  (2,2),(-6.4125,2.1375),.PIECEWISE_BEZIER_KNOTS.);
#267 = CARTESIAN_POINT('',(8.55,-52.5000002));
#268 = CARTESIAN_POINT('',(0.,-52.5000002));
#269 = ( GEOMETRIC_REPRESENTATION_CONTEXT(2) 
PARAMETRIC_REPRESENTATION_CONTEXT() REPRESENTATION_CONTEXT('2D SPACE',''
  ) );
#270 = ORIENTED_EDGE('',*,*,#271,.T.);
#271 = EDGE_CURVE('',#246,#272,#274,.T.);
#272 = VERTEX_POINT('',#273);
#273 = CARTESIAN_POINT('',(4.275,-7.404517202357,27.5));
#274 = SURFACE_CURVE('',#275,(#279,#285),.PCURVE_S1.);
#275 = LINE('',#276,#277);
#276 = CARTESIAN_POINT('',(5.34375,-5.553387901768,27.5));
#277 = VECTOR('',#278,1.);
#278 = DIRECTION('',(-0.5,-0.866025403784,0.));
#279 = PCURVE('',#66,#280);
#280 = DEFINITIONAL_REPRESENTATION('',(#281),#284);
#281 = B_SPLINE_CURVE_WITH_KNOTS('',1,(#282,#283),.UNSPECIFIED.,.F.,.F.,
  (2,2),(-6.4125,2.1375),.PIECEWISE_BEZIER_KNOTS.);
#282 = CARTESIAN_POINT('',(8.55,-8.881784197001E-16));
#283 = CARTESIAN_POINT('',(4.275,-7.404517202357));
#284 = ( GEOMETRIC_REPRESENTATION_CONTEXT(2) 
PARAMETRIC_REPRESENTATION_CONTEXT() REPRESENTATION_CONTEXT('2D SPACE',''
  ) );
#285 = PCURVE('',#286,#291);
#286 = PLANE('',#287);
#287 = AXIS2_PLACEMENT_3D('',#288,#289,#290);
#288 = CARTESIAN_POINT('',(4.275,-7.404517202357,-25.0000002));
#289 = DIRECTION('',(-0.866025403784,0.5,0.));
#290 = DIRECTION('',(0.5,0.866025403784,0.));
#291 = DEFINITIONAL_REPRESENTATION('',(#292),#295);
#292 = B_SPLINE_CURVE_WITH_KNOTS('',1,(#293,#294),.UNSPECIFIED.,.F.,.F.,
  (2,2),(-6.4125,2.1375),.PIECEWISE_BEZIER_KNOTS.);
#293 = CARTESIAN_POINT('',(8.55,-52.5000002));
#294 = CARTESIAN_POINT('',(0.,-52.5000002));
#295 = ( GEOMETRIC_REPRESENTATION_CONTEXT(2) 
PARAMETRIC_REPRESENTATION_CONTEXT() REPRESENTATION_CONTEXT('2D SPACE',''
  ) );
#296 = ORIENTED_EDGE('',*,*,#297,.T.);
#297 = EDGE_CURVE('',#272,#298,#300,.T.);
#298 = VERTEX_POINT('',#299);
#299 = CARTESIAN_POINT('',(-4.275,-7.404517202357,27.5));
#300 = SURFACE_CURVE('',#301,(#305,#311),.PCURVE_S1.);
#301 = LINE('',#302,#303);
#302 = CARTESIAN_POINT('',(-2.1375,-7.404517202357,27.5));
#303 = VECTOR('',#304,1.);
#304 = DIRECTION('',(-1.,7.271636184679E-16,0.));
#305 = PCURVE('',#66,#306);
#306 = DEFINITIONAL_REPRESENTATION('',(#307),#310);
#307 = B_SPLINE_CURVE_WITH_KNOTS('',1,(#308,#309),.UNSPECIFIED.,.F.,.F.,
  (2,2),(-6.4125,2.1375),.PIECEWISE_BEZIER_KNOTS.);
#308 = CARTESIAN_POINT('',(4.275,-7.404517202357));
#309 = CARTESIAN_POINT('',(-4.275,-7.404517202357));
#310 = ( GEOMETRIC_REPRESENTATION_CONTEXT(2) 
PARAMETRIC_REPRESENTATION_CONTEXT() REPRESENTATION_CONTEXT('2D SPACE',''
  ) );
#311 = PCURVE('',#312,#317);
#312 = PLANE('',#313);
#313 = AXIS2_PLACEMENT_3D('',#314,#315,#316);
#314 = CARTESIAN_POINT('',(-4.275,-7.404517202357,-25.0000002));
#315 = DIRECTION('',(7.271636184679E-16,1.,0.));
#316 = DIRECTION('',(1.,-7.271636184679E-16,0.));
#317 = DEFINITIONAL_REPRESENTATION('',(#318),#321);
#318 = B_SPLINE_CURVE_WITH_KNOTS('',1,(#319,#320),.UNSPECIFIED.,.F.,.F.,
  (2,2),(-6.4125,2.1375),.PIECEWISE_BEZIER_KNOTS.);
#319 = CARTESIAN_POINT('',(8.55,-52.5000002));
#320 = CARTESIAN_POINT('',(0.,-52.5000002));
#321 = ( GEOMETRIC_REPRESENTATION_CONTEXT(2) 
PARAMETRIC_REPRESENTATION_CONTEXT() REPRESENTATION_CONTEXT('2D SPACE',''
  ) );
#322 = ORIENTED_EDGE('',*,*,#323,.T.);
#323 = EDGE_CURVE('',#298,#324,#326,.T.);
#324 = VERTEX_POINT('',#325);
#325 = CARTESIAN_POINT('',(-8.55,1.047073013271E-15,27.5));
#326 = SURFACE_CURVE('',#327,(#331,#337),.PCURVE_S1.);
#327 = LINE('',#328,#329);
#328 = CARTESIAN_POINT('',(-7.48125,-1.851129300589,27.5));
#329 = VECTOR('',#330,1.);
#330 = DIRECTION('',(-0.5,0.866025403784,0.));
#331 = PCURVE('',#66,#332);
#332 = DEFINITIONAL_REPRESENTATION('',(#333),#336);
#333 = B_SPLINE_CURVE_WITH_KNOTS('',1,(#334,#335),.UNSPECIFIED.,.F.,.F.,
  (2,2),(-6.4125,2.1375),.PIECEWISE_BEZIER_KNOTS.);
#334 = CARTESIAN_POINT('',(-4.275,-7.404517202357));
#335 = CARTESIAN_POINT('',(-8.55,-2.22044604925E-16));
#336 = ( GEOMETRIC_REPRESENTATION_CONTEXT(2) 
PARAMETRIC_REPRESENTATION_CONTEXT() REPRESENTATION_CONTEXT('2D SPACE',''
  ) );
#337 = PCURVE('',#338,#343);
#338 = PLANE('',#339);
#339 = AXIS2_PLACEMENT_3D('',#340,#341,#342);
#340 = CARTESIAN_POINT('',(-8.55,1.047073013271E-15,-25.0000002));
#341 = DIRECTION('',(0.866025403784,0.5,0.));
#342 = DIRECTION('',(0.5,-0.866025403784,0.));
#343 = DEFINITIONAL_REPRESENTATION('',(#344),#347);
#344 = B_SPLINE_CURVE_WITH_KNOTS('',1,(#345,#346),.UNSPECIFIED.,.F.,.F.,
  (2,2),(-6.4125,2.1375),.PIECEWISE_BEZIER_KNOTS.);
#345 = CARTESIAN_POINT('',(8.55,-52.5000002));
#346 = CARTESIAN_POINT('',(0.,-52.5000002));
#347 = ( GEOMETRIC_REPRESENTATION_CONTEXT(2) 
PARAMETRIC_REPRESENTATION_CONTEXT() REPRESENTATION_CONTEXT('2D SPACE',''
  ) );
#348 = ORIENTED_EDGE('',*,*,#349,.T.);
#349 = EDGE_CURVE('',#324,#218,#350,.T.);
#350 = SURFACE_CURVE('',#351,(#355,#361),.PCURVE_S1.);
#351 = LINE('',#352,#353);
#352 = CARTESIAN_POINT('',(-5.34375,5.553387901768,27.5));
#353 = VECTOR('',#354,1.);
#354 = DIRECTION('',(0.5,0.866025403784,-0.));
#355 = PCURVE('',#66,#356);
#356 = DEFINITIONAL_REPRESENTATION('',(#357),#360);
#357 = B_SPLINE_CURVE_WITH_KNOTS('',1,(#358,#359),.UNSPECIFIED.,.F.,.F.,
  (2,2),(-6.4125,2.1375),.PIECEWISE_BEZIER_KNOTS.);
#358 = CARTESIAN_POINT('',(-8.55,-8.881784197001E-16));
#359 = CARTESIAN_POINT('',(-4.275,7.404517202357));
#360 = ( GEOMETRIC_REPRESENTATION_CONTEXT(2) 
PARAMETRIC_REPRESENTATION_CONTEXT() REPRESENTATION_CONTEXT('2D SPACE',''
  ) );
#361 = PCURVE('',#362,#367);
#362 = PLANE('',#363);
#363 = AXIS2_PLACEMENT_3D('',#364,#365,#366);
#364 = CARTESIAN_POINT('',(-4.275,7.404517202357,-25.0000002));
#365 = DIRECTION('',(0.866025403784,-0.5,0.));
#366 = DIRECTION('',(-0.5,-0.866025403784,0.));
#367 = DEFINITIONAL_REPRESENTATION('',(#368),#371);
#368 = B_SPLINE_CURVE_WITH_KNOTS('',1,(#369,#370),.UNSPECIFIED.,.F.,.F.,
  (2,2),(-6.4125,2.1375),.PIECEWISE_BEZIER_KNOTS.);
#369 = CARTESIAN_POINT('',(8.55,-52.5000002));
#370 = CARTESIAN_POINT('',(0.,-52.5000002));
#371 = ( GEOMETRIC_REPRESENTATION_CONTEXT(2) 
PARAMETRIC_REPRESENTATION_CONTEXT() REPRESENTATION_CONTEXT('2D SPACE',''
  ) );
#372 = FACE_BOUND('',#373,.T.);
#373 = EDGE_LOOP('',(#374));
#374 = ORIENTED_EDGE('',*,*,#375,.T.);
#375 = EDGE_CURVE('',#376,#376,#378,.T.);
#376 = VERTEX_POINT('',#377);
#377 = CARTESIAN_POINT('',(-6.717514421272,6.717514421272,27.5));
#378 = SURFACE_CURVE('',#379,(#384,#395),.PCURVE_S1.);
#379 = CIRCLE('',#380,1.5);
#380 = AXIS2_PLACEMENT_3D('',#381,#382,#383);
#381 = CARTESIAN_POINT('',(-7.778174593052,7.778174593052,27.5));
#382 = DIRECTION('',(0.,-0.,-1.));
#383 = DIRECTION('',(0.707106781187,-0.707106781187,0.));
#384 = PCURVE('',#66,#385);
#385 = DEFINITIONAL_REPRESENTATION('',(#386),#394);
#386 = ( BOUNDED_CURVE() B_SPLINE_CURVE(2,(#387,#388,#389,#390,#391,#392
,#393),.UNSPECIFIED.,.T.,.F.) B_SPLINE_CURVE_WITH_KNOTS((1,2,2,2,2,1),(
    -2.094395102393,0.,2.094395102393,4.188790204786,6.28318530718,
8.377580409573),.UNSPECIFIED.) CURVE() GEOMETRIC_REPRESENTATION_ITEM() 
RATIONAL_B_SPLINE_CURVE((1.,0.5,1.,0.5,1.,0.5,1.)) REPRESENTATION_ITEM(
  '') );
#387 = CARTESIAN_POINT('',(-6.717514421272,6.717514421272));
#388 = CARTESIAN_POINT('',(-8.55463172836,4.880397114185));
#389 = CARTESIAN_POINT('',(-9.227063332486,7.389946025398));
#390 = CARTESIAN_POINT('',(-9.899494936612,9.899494936612));
#391 = CARTESIAN_POINT('',(-7.389946025398,9.227063332486));
#392 = CARTESIAN_POINT('',(-4.880397114185,8.55463172836));
#393 = CARTESIAN_POINT('',(-6.717514421272,6.717514421272));
#394 = ( GEOMETRIC_REPRESENTATION_CONTEXT(2) 
PARAMETRIC_REPRESENTATION_CONTEXT() REPRESENTATION_CONTEXT('2D SPACE',''
  ) );
#395 = PCURVE('',#396,#401);
#396 = CYLINDRICAL_SURFACE('',#397,1.5);
#397 = AXIS2_PLACEMENT_3D('',#398,#399,#400);
#398 = CARTESIAN_POINT('',(-7.778174593052,7.778174593052,27.5));
#399 = DIRECTION('',(-0.,0.,-1.));
#400 = DIRECTION('',(0.707106781187,-0.707106781187,0.));
#401 = DEFINITIONAL_REPRESENTATION('',(#402),#406);
#402 = LINE('',#403,#404);
#403 = CARTESIAN_POINT('',(0.,0.));
#404 = VECTOR('',#405,1.);
#405 = DIRECTION('',(1.,0.));
#406 = ( GEOMETRIC_REPRESENTATION_CONTEXT(2) 
PARAMETRIC_REPRESENTATION_CONTEXT() REPRESENTATION_CONTEXT('2D SPACE',''
  ) );
#407 = FACE_BOUND('',#408,.T.);
#408 = EDGE_LOOP('',(#409));
#409 = ORIENTED_EDGE('',*,*,#410,.T.);
#410 = EDGE_CURVE('',#411,#411,#413,.T.);
#411 = VERTEX_POINT('',#412);
#412 = CARTESIAN_POINT('',(6.717514421272,6.717514421272,27.5));
#413 = SURFACE_CURVE('',#414,(#419,#430),.PCURVE_S1.);
#414 = CIRCLE('',#415,1.5);
#415 = AXIS2_PLACEMENT_3D('',#416,#417,#418);
#416 = CARTESIAN_POINT('',(7.778174593052,7.778174593052,27.5));
#417 = DIRECTION('',(-0.,0.,-1.));
#418 = DIRECTION('',(-0.707106781187,-0.707106781187,0.));
#419 = PCURVE('',#66,#420);
#420 = DEFINITIONAL_REPRESENTATION('',(#421),#429);
#421 = ( BOUNDED_CURVE() B_SPLINE_CURVE(2,(#422,#423,#424,#425,#426,#427
,#428),.UNSPECIFIED.,.T.,.F.) B_SPLINE_CURVE_WITH_KNOTS((1,2,2,2,2,1),(
    -2.094395102393,0.,2.094395102393,4.188790204786,6.28318530718,
8.377580409573),.UNSPECIFIED.) CURVE() GEOMETRIC_REPRESENTATION_ITEM() 
RATIONAL_B_SPLINE_CURVE((1.,0.5,1.,0.5,1.,0.5,1.)) REPRESENTATION_ITEM(
  '') );
#422 = CARTESIAN_POINT('',(6.717514421272,6.717514421272));
#423 = CARTESIAN_POINT('',(4.880397114185,8.55463172836));
#424 = CARTESIAN_POINT('',(7.389946025398,9.227063332486));
#425 = CARTESIAN_POINT('',(9.899494936612,9.899494936612));
#426 = CARTESIAN_POINT('',(9.227063332486,7.389946025398));
#427 = CARTESIAN_POINT('',(8.55463172836,4.880397114185));
#428 = CARTESIAN_POINT('',(6.717514421272,6.717514421272));
#429 = ( GEOMETRIC_REPRESENTATION_CONTEXT(2) 
PARAMETRIC_REPRESENTATION_CONTEXT() REPRESENTATION_CONTEXT('2D SPACE',''
  ) );
#430 = PCURVE('',#431,#436);
#431 = CYLINDRICAL_SURFACE('',#432,1.5);
#432 = AXIS2_PLACEMENT_3D('',#433,#434,#435);
#433 = CARTESIAN_POINT('',(7.778174593052,7.778174593052,27.5));
#434 = DIRECTION('',(0.,0.,-1.));
#435 = DIRECTION('',(-0.707106781187,-0.707106781187,0.));
#436 = DEFINITIONAL_REPRESENTATION('',(#437),#441);
#437 = LINE('',#438,#439);
#438 = CARTESIAN_POINT('',(0.,0.));
#439 = VECTOR('',#440,1.);
#440 = DIRECTION('',(1.,0.));
#441 = ( GEOMETRIC_REPRESENTATION_CONTEXT(2) 
PARAMETRIC_REPRESENTATION_CONTEXT() REPRESENTATION_CONTEXT('2D SPACE',''
  ) );
#442 = ADVANCED_FACE('',(#443,#717),#129,.T.);
#443 = FACE_BOUND('',#444,.F.);
#444 = EDGE_LOOP('',(#445,#468,#469,#470,#567,#590,#621,#622,#663));
#445 = ORIENTED_EDGE('',*,*,#446,.T.);
#446 = EDGE_CURVE('',#447,#113,#449,.T.);
#447 = VERTEX_POINT('',#448);
#448 = CARTESIAN_POINT('',(14.,0.,1.));
#449 = SEAM_CURVE('',#450,(#454,#461),.PCURVE_S1.);
#450 = LINE('',#451,#452);
#451 = CARTESIAN_POINT('',(14.,0.,-22.5));
#452 = VECTOR('',#453,1.);
#453 = DIRECTION('',(0.,0.,1.));
#454 = PCURVE('',#129,#455);
#455 = DEFINITIONAL_REPRESENTATION('',(#456),#460);
#456 = LINE('',#457,#458);
#457 = CARTESIAN_POINT('',(-0.,22.5));
#458 = VECTOR('',#459,1.);
#459 = DIRECTION('',(-0.,-1.));
#460 = ( GEOMETRIC_REPRESENTATION_CONTEXT(2) 
PARAMETRIC_REPRESENTATION_CONTEXT() REPRESENTATION_CONTEXT('2D SPACE',''
  ) );
#461 = PCURVE('',#129,#462);
#462 = DEFINITIONAL_REPRESENTATION('',(#463),#467);
#463 = LINE('',#464,#465);
#464 = CARTESIAN_POINT('',(-6.28318530718,22.5));
#465 = VECTOR('',#466,1.);
#466 = DIRECTION('',(-0.,-1.));
#467 = ( GEOMETRIC_REPRESENTATION_CONTEXT(2) 
PARAMETRIC_REPRESENTATION_CONTEXT() REPRESENTATION_CONTEXT('2D SPACE',''
  ) );
#468 = ORIENTED_EDGE('',*,*,#112,.T.);
#469 = ORIENTED_EDGE('',*,*,#446,.F.);
#470 = ORIENTED_EDGE('',*,*,#471,.T.);
#471 = EDGE_CURVE('',#447,#472,#474,.T.);
#472 = VERTEX_POINT('',#473);
#473 = CARTESIAN_POINT('',(14.,0.,-1.));
#474 = SURFACE_CURVE('',#475,(#502,#532),.PCURVE_S1.);
#475 = B_SPLINE_CURVE_WITH_KNOTS('',7,(#476,#477,#478,#479,#480,#481,
    #482,#483,#484,#485,#486,#487,#488,#489,#490,#491,#492,#493,#494,
    #495,#496,#497,#498,#499,#500,#501),.UNSPECIFIED.,.F.,.F.,(8,6,6,6,8
    ),(0.,0.193716199569,0.500014308998,0.806302980247,1.),
  .UNSPECIFIED.);
#476 = CARTESIAN_POINT('',(14.,-1.110223024625E-15,1.));
#477 = CARTESIAN_POINT('',(14.,-9.765333337844E-02,1.));
#478 = CARTESIAN_POINT('',(13.999205491378,-0.194689730582,
    0.988874265826));
#479 = CARTESIAN_POINT('',(13.997633618425,-0.28931910195,0.966876954103
    ));
#480 = CARTESIAN_POINT('',(13.995391479134,-0.379831291822,
    0.934699670738));
#481 = CARTESIAN_POINT('',(13.992659605694,-0.464693669701,
    0.893452208106));
#482 = CARTESIAN_POINT('',(13.989655512745,-0.542662351897,
    0.844642388288));
#483 = CARTESIAN_POINT('',(13.981710159057,-0.723975820196,
    0.704001245851));
#484 = CARTESIAN_POINT('',(13.976619022615,-0.816627250933,
    0.602960064668));
#485 = CARTESIAN_POINT('',(13.971938755502,-0.890395380748,
    0.491444517681));
#486 = CARTESIAN_POINT('',(13.968151636253,-0.945380564459,
    0.372804608787));
#487 = CARTESIAN_POINT('',(13.965541428405,-0.981826442137,
    0.249805468728));
#488 = CARTESIAN_POINT('',(13.964240043769,-1.,0.124809863904));
#489 = CARTESIAN_POINT('',(13.964240043769,-1.,-0.124806018049));
#490 = CARTESIAN_POINT('',(13.965541347193,-0.981827565926,
    -0.249803361155));
#491 = CARTESIAN_POINT('',(13.968151605985,-0.945380998718,
    -0.372805478675));
#492 = CARTESIAN_POINT('',(13.971938848572,-0.890394352681,
    -0.491446553539));
#493 = CARTESIAN_POINT('',(13.97661906884,-0.816625983389,
    -0.602960758297));
#494 = CARTESIAN_POINT('',(13.981710134716,-0.723976375655,
    -0.704000814992));
#495 = CARTESIAN_POINT('',(13.98965531821,-0.54266679119,-0.844638944819
    ));
#496 = CARTESIAN_POINT('',(13.992659516331,-0.464696880862,
    -0.893451197667));
#497 = CARTESIAN_POINT('',(13.995391610215,-0.379829414034,
    -0.934701798037));
#498 = CARTESIAN_POINT('',(13.997633854722,-0.289311310987,
    -0.966880269863));
#499 = CARTESIAN_POINT('',(13.99920564222,-0.194678504475,
    -0.988876383979));
#500 = CARTESIAN_POINT('',(14.,-9.764402674472E-02,-1.));
#501 = CARTESIAN_POINT('',(14.,-8.881784197001E-16,-1.));
#502 = PCURVE('',#129,#503);
#503 = DEFINITIONAL_REPRESENTATION('',(#504),#531);
#504 = B_SPLINE_CURVE_WITH_KNOTS('',7,(#505,#506,#507,#508,#509,#510,
    #511,#512,#513,#514,#515,#516,#517,#518,#519,#520,#521,#522,#523,
    #524,#525,#526,#527,#528,#529,#530),.UNSPECIFIED.,.F.,.F.,(8,6,6,6,8
    ),(0.,0.193716199569,0.500014308998,0.806302980247,1.),
  .UNSPECIFIED.);
#505 = CARTESIAN_POINT('',(-6.28318530718,-1.));
#506 = CARTESIAN_POINT('',(-6.276210069081,-1.));
#507 = CARTESIAN_POINT('',(-6.269278897014,-0.988874265826));
#508 = CARTESIAN_POINT('',(-6.262519105434,-0.966876954103));
#509 = CARTESIAN_POINT('',(-6.256052310233,-0.934699670738));
#510 = CARTESIAN_POINT('',(-6.249987776087,-0.893452208106));
#511 = CARTESIAN_POINT('',(-6.244414529182,-0.844642388288));
#512 = CARTESIAN_POINT('',(-6.231451138336,-0.704001245851));
#513 = CARTESIAN_POINT('',(-6.224823604463,-0.602960064668));
#514 = CARTESIAN_POINT('',(-6.219544046141,-0.491444517681));
#515 = CARTESIAN_POINT('',(-6.215607234756,-0.372804608787));
#516 = CARTESIAN_POINT('',(-6.212997293192,-0.249805468728));
#517 = CARTESIAN_POINT('',(-6.211695857294,-0.124809863904));
#518 = CARTESIAN_POINT('',(-6.211695857294,0.124806018049));
#519 = CARTESIAN_POINT('',(-6.212997212719,0.249803361155));
#520 = CARTESIAN_POINT('',(-6.215607203658,0.372805478675));
#521 = CARTESIAN_POINT('',(-6.21954411984,0.491446553539));
#522 = CARTESIAN_POINT('',(-6.224823695045,0.602960758297));
#523 = CARTESIAN_POINT('',(-6.231451098623,0.704000814992));
#524 = CARTESIAN_POINT('',(-6.244414211785,0.844638944819));
#525 = CARTESIAN_POINT('',(-6.249987546667,0.893451197667));
#526 = CARTESIAN_POINT('',(-6.256052444584,0.934701798037));
#527 = CARTESIAN_POINT('',(-6.262519662117,0.966880269863));
#528 = CARTESIAN_POINT('',(-6.269279698865,0.988876383979));
#529 = CARTESIAN_POINT('',(-6.276210733841,1.));
#530 = CARTESIAN_POINT('',(-6.28318530718,1.));
#531 = ( GEOMETRIC_REPRESENTATION_CONTEXT(2) 
PARAMETRIC_REPRESENTATION_CONTEXT() REPRESENTATION_CONTEXT('2D SPACE',''
  ) );
#532 = PCURVE('',#533,#538);
#533 = CYLINDRICAL_SURFACE('',#534,1.);
#534 = AXIS2_PLACEMENT_3D('',#535,#536,#537);
#535 = CARTESIAN_POINT('',(0.,0.,0.));
#536 = DIRECTION('',(-1.,-0.,-0.));
#537 = DIRECTION('',(0.,1.,0.));
#538 = DEFINITIONAL_REPRESENTATION('',(#539),#566);
#539 = B_SPLINE_CURVE_WITH_KNOTS('',7,(#540,#541,#542,#543,#544,#545,
    #546,#547,#548,#549,#550,#551,#552,#553,#554,#555,#556,#557,#558,
    #559,#560,#561,#562,#563,#564,#565),.UNSPECIFIED.,.F.,.F.,(8,6,6,6,8
    ),(0.,0.193716199569,0.500014308998,0.806302980247,1.),
  .UNSPECIFIED.);
#540 = CARTESIAN_POINT('',(-1.570796326795,-14.));
#541 = CARTESIAN_POINT('',(-1.668449660173,-14.));
#542 = CARTESIAN_POINT('',(-1.765485735072,-13.99920549137));
#543 = CARTESIAN_POINT('',(-1.861637354874,-13.99763361842));
#544 = CARTESIAN_POINT('',(-1.956624026402,-13.99539147913));
#545 = CARTESIAN_POINT('',(-2.050108002301,-13.99265960569));
#546 = CARTESIAN_POINT('',(-2.141630883831,-13.98965551274));
#547 = CARTESIAN_POINT('',(-2.371096577852,-13.98171015905));
#548 = CARTESIAN_POINT('',(-2.506234882872,-13.97661902261));
#549 = CARTESIAN_POINT('',(-2.637405293663,-13.9719387555));
#550 = CARTESIAN_POINT('',(-2.765611132638,-13.96815163625));
#551 = CARTESIAN_POINT('',(-2.891787556468,-13.9655414284));
#552 = CARTESIAN_POINT('',(-3.016782789686,-13.96424004376));
#553 = CARTESIAN_POINT('',(-3.266398671639,-13.96424004376));
#554 = CARTESIAN_POINT('',(-3.39139562574,-13.96554134719));
#555 = CARTESIAN_POINT('',(-3.517574806472,-13.96815160598));
#556 = CARTESIAN_POINT('',(-3.645782043903,-13.97193884857));
#557 = CARTESIAN_POINT('',(-3.776951843762,-13.97661906884));
#558 = CARTESIAN_POINT('',(-3.912088026352,-13.98171013471));
#559 = CARTESIAN_POINT('',(-4.141548805091,-13.98965531821));
#560 = CARTESIAN_POINT('',(-4.233074145905,-13.99265951633));
#561 = CARTESIAN_POINT('',(-4.32656385485,-13.99539161021));
#562 = CARTESIAN_POINT('',(-4.421556173364,-13.99763385472));
#563 = CARTESIAN_POINT('',(-4.517710799742,-13.99920564222));
#564 = CARTESIAN_POINT('',(-4.61474495364,-14.));
#565 = CARTESIAN_POINT('',(-4.712388980385,-14.));
#566 = ( GEOMETRIC_REPRESENTATION_CONTEXT(2) 
PARAMETRIC_REPRESENTATION_CONTEXT() REPRESENTATION_CONTEXT('2D SPACE',''
  ) );
#567 = ORIENTED_EDGE('',*,*,#568,.F.);
#568 = EDGE_CURVE('',#569,#472,#571,.T.);
#569 = VERTEX_POINT('',#570);
#570 = CARTESIAN_POINT('',(14.,0.,-22.5));
#571 = SEAM_CURVE('',#572,(#576,#583),.PCURVE_S1.);
#572 = LINE('',#573,#574);
#573 = CARTESIAN_POINT('',(14.,0.,-22.5));
#574 = VECTOR('',#575,1.);
#575 = DIRECTION('',(0.,0.,1.));
#576 = PCURVE('',#129,#577);
#577 = DEFINITIONAL_REPRESENTATION('',(#578),#582);
#578 = LINE('',#579,#580);
#579 = CARTESIAN_POINT('',(-0.,22.5));
#580 = VECTOR('',#581,1.);
#581 = DIRECTION('',(-0.,-1.));
#582 = ( GEOMETRIC_REPRESENTATION_CONTEXT(2) 
PARAMETRIC_REPRESENTATION_CONTEXT() REPRESENTATION_CONTEXT('2D SPACE',''
  ) );
#583 = PCURVE('',#129,#584);
#584 = DEFINITIONAL_REPRESENTATION('',(#585),#589);
#585 = LINE('',#586,#587);
#586 = CARTESIAN_POINT('',(-6.28318530718,22.5));
#587 = VECTOR('',#588,1.);
#588 = DIRECTION('',(-0.,-1.));
#589 = ( GEOMETRIC_REPRESENTATION_CONTEXT(2) 
PARAMETRIC_REPRESENTATION_CONTEXT() REPRESENTATION_CONTEXT('2D SPACE',''
  ) );
#590 = ORIENTED_EDGE('',*,*,#591,.F.);
#591 = EDGE_CURVE('',#569,#569,#592,.T.);
#592 = SURFACE_CURVE('',#593,(#598,#605),.PCURVE_S1.);
#593 = CIRCLE('',#594,14.);
#594 = AXIS2_PLACEMENT_3D('',#595,#596,#597);
#595 = CARTESIAN_POINT('',(0.,0.,-22.5));
#596 = DIRECTION('',(0.,0.,1.));
#597 = DIRECTION('',(1.,0.,-0.));
#598 = PCURVE('',#129,#599);
#599 = DEFINITIONAL_REPRESENTATION('',(#600),#604);
#600 = LINE('',#601,#602);
#601 = CARTESIAN_POINT('',(0.,22.5));
#602 = VECTOR('',#603,1.);
#603 = DIRECTION('',(-1.,-0.));
#604 = ( GEOMETRIC_REPRESENTATION_CONTEXT(2) 
PARAMETRIC_REPRESENTATION_CONTEXT() REPRESENTATION_CONTEXT('2D SPACE',''
  ) );
#605 = PCURVE('',#606,#611);
#606 = PLANE('',#607);
#607 = AXIS2_PLACEMENT_3D('',#608,#609,#610);
#608 = CARTESIAN_POINT('',(-8.751616848252E-16,-1.604946055186E-15,-22.5
    ));
#609 = DIRECTION('',(-0.,-0.,-1.));
#610 = DIRECTION('',(-1.,0.,0.));
#611 = DEFINITIONAL_REPRESENTATION('',(#612),#620);
#612 = ( BOUNDED_CURVE() B_SPLINE_CURVE(2,(#613,#614,#615,#616,#617,#618
,#619),.UNSPECIFIED.,.T.,.F.) B_SPLINE_CURVE_WITH_KNOTS((1,2,2,2,2,1),(
    -2.094395102393,0.,2.094395102393,4.188790204786,6.28318530718,
8.377580409573),.UNSPECIFIED.) CURVE() GEOMETRIC_REPRESENTATION_ITEM() 
RATIONAL_B_SPLINE_CURVE((1.,0.5,1.,0.5,1.,0.5,1.)) REPRESENTATION_ITEM(
  '') );
#613 = CARTESIAN_POINT('',(-14.,1.604946055186E-15));
#614 = CARTESIAN_POINT('',(-14.,24.248711305964));
#615 = CARTESIAN_POINT('',(7.,12.124355652982));
#616 = CARTESIAN_POINT('',(28.,5.033957092799E-15));
#617 = CARTESIAN_POINT('',(7.,-12.12435565298));
#618 = CARTESIAN_POINT('',(-14.,-24.24871130596));
#619 = CARTESIAN_POINT('',(-14.,1.604946055186E-15));
#620 = ( GEOMETRIC_REPRESENTATION_CONTEXT(2) 
PARAMETRIC_REPRESENTATION_CONTEXT() REPRESENTATION_CONTEXT('2D SPACE',''
  ) );
#621 = ORIENTED_EDGE('',*,*,#568,.T.);
#622 = ORIENTED_EDGE('',*,*,#623,.T.);
#623 = EDGE_CURVE('',#472,#624,#626,.T.);
#624 = VERTEX_POINT('',#625);
#625 = CARTESIAN_POINT('',(13.964240043769,1.,0.));
#626 = SURFACE_CURVE('',#627,(#637,#650),.PCURVE_S1.);
#627 = B_SPLINE_CURVE_WITH_KNOTS('',8,(#628,#629,#630,#631,#632,#633,
    #634,#635,#636),.UNSPECIFIED.,.F.,.F.,(9,9),(0.,1.),
  .PIECEWISE_BEZIER_KNOTS.);
#628 = CARTESIAN_POINT('',(14.,7.963299097641E-16,-1.));
#629 = CARTESIAN_POINT('',(14.,0.22673786155,-1.));
#630 = CARTESIAN_POINT('',(13.99580301764,0.439502921444,-0.941246510721
    ));
#631 = CARTESIAN_POINT('',(13.98831609464,0.625221137278,-0.836402630912
    ));
#632 = CARTESIAN_POINT('',(13.979708085687,0.777149724948,
    -0.696749225562));
#633 = CARTESIAN_POINT('',(13.972051028105,0.890907603783,
    -0.533104443536));
#634 = CARTESIAN_POINT('',(13.966746363306,0.965004946315,
    -0.355839470326));
#635 = CARTESIAN_POINT('',(13.964240043769,1.,-0.174989329278));
#636 = CARTESIAN_POINT('',(13.964240043769,1.,-2.22044604925E-16));
#637 = PCURVE('',#129,#638);
#638 = DEFINITIONAL_REPRESENTATION('',(#639),#649);
#639 = B_SPLINE_CURVE_WITH_KNOTS('',8,(#640,#641,#642,#643,#644,#645,
    #646,#647,#648),.UNSPECIFIED.,.F.,.F.,(9,9),(0.,1.),
  .PIECEWISE_BEZIER_KNOTS.);
#640 = CARTESIAN_POINT('',(0.,1.));
#641 = CARTESIAN_POINT('',(-1.619556153926E-02,1.));
#642 = CARTESIAN_POINT('',(-3.139306934315E-02,0.941246510721));
#643 = CARTESIAN_POINT('',(-4.466510721118E-02,0.836402630912));
#644 = CARTESIAN_POINT('',(-5.553329302436E-02,0.696749225562));
#645 = CARTESIAN_POINT('',(-6.367719576106E-02,0.533104443536));
#646 = CARTESIAN_POINT('',(-6.89833989914E-02,0.355839470326));
#647 = CARTESIAN_POINT('',(-7.148944988552E-02,0.174989329278));
#648 = CARTESIAN_POINT('',(-7.148944988552E-02,2.449293598295E-16));
#649 = ( GEOMETRIC_REPRESENTATION_CONTEXT(2) 
PARAMETRIC_REPRESENTATION_CONTEXT() REPRESENTATION_CONTEXT('2D SPACE',''
  ) );
#650 = PCURVE('',#533,#651);
#651 = DEFINITIONAL_REPRESENTATION('',(#652),#662);
#652 = B_SPLINE_CURVE_WITH_KNOTS('',8,(#653,#654,#655,#656,#657,#658,
    #659,#660,#661),.UNSPECIFIED.,.F.,.F.,(9,9),(0.,1.),
  .PIECEWISE_BEZIER_KNOTS.);
#653 = CARTESIAN_POINT('',(-4.712388980385,-14.));
#654 = CARTESIAN_POINT('',(-4.939126841934,-14.));
#655 = CARTESIAN_POINT('',(-5.15189550579,-13.99580301764));
#656 = CARTESIAN_POINT('',(-5.355350829778,-13.98831609464));
#657 = CARTESIAN_POINT('',(-5.551475110503,-13.97970808568));
#658 = CARTESIAN_POINT('',(-5.741918941171,-13.9720510281));
#659 = CARTESIAN_POINT('',(-5.927344943378,-13.9667463633));
#660 = CARTESIAN_POINT('',(-6.108195977902,-13.96424004376));
#661 = CARTESIAN_POINT('',(-6.28318530718,-13.96424004376));
#662 = ( GEOMETRIC_REPRESENTATION_CONTEXT(2) 
PARAMETRIC_REPRESENTATION_CONTEXT() REPRESENTATION_CONTEXT('2D SPACE',''
  ) );
#663 = ORIENTED_EDGE('',*,*,#664,.T.);
#664 = EDGE_CURVE('',#624,#447,#665,.T.);
#665 = SURFACE_CURVE('',#666,(#681,#699),.PCURVE_S1.);
#666 = B_SPLINE_CURVE_WITH_KNOTS('',7,(#667,#668,#669,#670,#671,#672,
    #673,#674,#675,#676,#677,#678,#679,#680),.UNSPECIFIED.,.F.,.F.,(8,6,
    8),(0.,0.612660063097,1.),.UNSPECIFIED.);
#667 = CARTESIAN_POINT('',(13.964240043769,1.,-2.449293598295E-16));
#668 = CARTESIAN_POINT('',(13.964240043769,1.,0.124806018049));
#669 = CARTESIAN_POINT('',(13.965541347193,0.981827565926,0.249803361155
    ));
#670 = CARTESIAN_POINT('',(13.968151605985,0.945380998718,0.372805478675
    ));
#671 = CARTESIAN_POINT('',(13.971938848572,0.890394352681,0.491446553539
    ));
#672 = CARTESIAN_POINT('',(13.97661906884,0.816625983389,0.602960758297)
  );
#673 = CARTESIAN_POINT('',(13.981710134716,0.723976375655,0.704000814992
    ));
#674 = CARTESIAN_POINT('',(13.989654472812,0.54268608322,0.844623980387)
  );
#675 = CARTESIAN_POINT('',(13.992658967766,0.464714183145,0.893444200003
    ));
#676 = CARTESIAN_POINT('',(13.9953919547,0.379828433765,0.934707516649)
  );
#677 = CARTESIAN_POINT('',(13.997634719025,0.289285954921,0.966892366548
    ));
#678 = CARTESIAN_POINT('',(13.999206241818,0.194636162863,0.988885004581
    ));
#679 = CARTESIAN_POINT('',(14.,9.76062660695E-02,1.));
#680 = CARTESIAN_POINT('',(14.,5.971700597435E-16,1.));
#681 = PCURVE('',#129,#682);
#682 = DEFINITIONAL_REPRESENTATION('',(#683),#698);
#683 = B_SPLINE_CURVE_WITH_KNOTS('',7,(#684,#685,#686,#687,#688,#689,
    #690,#691,#692,#693,#694,#695,#696,#697),.UNSPECIFIED.,.F.,.F.,(8,6,
    8),(0.,0.612660063097,1.),.UNSPECIFIED.);
#684 = CARTESIAN_POINT('',(-7.148944988552E-02,2.22044604925E-16));
#685 = CARTESIAN_POINT('',(-7.148944988552E-02,-0.124806018049));
#686 = CARTESIAN_POINT('',(-7.018809446016E-02,-0.249803361155));
#687 = CARTESIAN_POINT('',(-6.757810352159E-02,-0.372805478675));
#688 = CARTESIAN_POINT('',(-6.364118733985E-02,-0.491446553539));
#689 = CARTESIAN_POINT('',(-5.836161213458E-02,-0.602960758298));
#690 = CARTESIAN_POINT('',(-5.173420855696E-02,-0.704000814992));
#691 = CARTESIAN_POINT('',(-3.877247471935E-02,-0.844623980387));
#692 = CARTESIAN_POINT('',(-3.319899680961E-02,-0.893444200003));
#693 = CARTESIAN_POINT('',(-2.713279189584E-02,-0.934707516649));
#694 = CARTESIAN_POINT('',(-2.066383322327E-02,-0.966892366548));
#695 = CARTESIAN_POINT('',(-1.390258387369E-02,-0.988885004581));
#696 = CARTESIAN_POINT('',(-6.971876147822E-03,-1.));
#697 = CARTESIAN_POINT('',(0.,-1.));
#698 = ( GEOMETRIC_REPRESENTATION_CONTEXT(2) 
PARAMETRIC_REPRESENTATION_CONTEXT() REPRESENTATION_CONTEXT('2D SPACE',''
  ) );
#699 = PCURVE('',#533,#700);
#700 = DEFINITIONAL_REPRESENTATION('',(#701),#716);
#701 = B_SPLINE_CURVE_WITH_KNOTS('',7,(#702,#703,#704,#705,#706,#707,
    #708,#709,#710,#711,#712,#713,#714,#715),.UNSPECIFIED.,.F.,.F.,(8,6,
    8),(0.,0.612660063097,1.),.UNSPECIFIED.);
#702 = CARTESIAN_POINT('',(0.,-13.96424004376));
#703 = CARTESIAN_POINT('',(-0.124806018049,-13.96424004376));
#704 = CARTESIAN_POINT('',(-0.24980297215,-13.96554134719));
#705 = CARTESIAN_POINT('',(-0.375982152882,-13.96815160598));
#706 = CARTESIAN_POINT('',(-0.504189390313,-13.97193884857));
#707 = CARTESIAN_POINT('',(-0.635359190172,-13.97661906884));
#708 = CARTESIAN_POINT('',(-0.770495372762,-13.98171013471));
#709 = CARTESIAN_POINT('',(-0.999931736002,-13.98965447281));
#710 = CARTESIAN_POINT('',(-1.09146350261,-13.99265896776));
#711 = CARTESIAN_POINT('',(-1.184974570805,-13.9953919547));
#712 = CARTESIAN_POINT('',(-1.279990637794,-13.99763471902));
#713 = CARTESIAN_POINT('',(-1.376160462631,-13.99920624181));
#714 = CARTESIAN_POINT('',(-1.473190060725,-14.));
#715 = CARTESIAN_POINT('',(-1.570796326795,-14.));
#716 = ( GEOMETRIC_REPRESENTATION_CONTEXT(2) 
PARAMETRIC_REPRESENTATION_CONTEXT() REPRESENTATION_CONTEXT('2D SPACE',''
  ) );
#717 = FACE_BOUND('',#718,.F.);
#718 = EDGE_LOOP('',(#719));
#719 = ORIENTED_EDGE('',*,*,#720,.F.);
#720 = EDGE_CURVE('',#721,#721,#723,.T.);
#721 = VERTEX_POINT('',#722);
#722 = CARTESIAN_POINT('',(-13.96424004376,1.,0.));
#723 = SURFACE_CURVE('',#724,(#776,#831),.PCURVE_S1.);
#724 = B_SPLINE_CURVE_WITH_KNOTS('',8,(#725,#726,#727,#728,#729,#730,
    #731,#732,#733,#734,#735,#736,#737,#738,#739,#740,#741,#742,#743,
    #744,#745,#746,#747,#748,#749,#750,#751,#752,#753,#754,#755,#756,
    #757,#758,#759,#760,#761,#762,#763,#764,#765,#766,#767,#768,#769,
    #770,#771,#772,#773,#774,#775),.UNSPECIFIED.,.T.,.F.,(9,7,7,7,7,7,7,
    9),(0.,0.152069790067,0.24821234356,0.344401258537,0.496492218771,
    0.648578492519,0.744757883844,1.),.UNSPECIFIED.);
#725 = CARTESIAN_POINT('',(-13.96424004376,1.,-2.22044604925E-16));
#726 = CARTESIAN_POINT('',(-13.96424004376,1.,0.109205265793));
#727 = CARTESIAN_POINT('',(-13.96521602133,0.986370674445,0.218554025378
    ));
#728 = CARTESIAN_POINT('',(-13.96717275893,0.959048461421,0.326679684605
    ));
#729 = CARTESIAN_POINT('',(-13.97004522727,0.9178876757,0.432126016107)
  );
#730 = CARTESIAN_POINT('',(-13.97369393117,0.862731214197,0.533264380323
    ));
#731 = CARTESIAN_POINT('',(-13.9778918353,0.793463581455,0.628220772471)
  );
#732 = CARTESIAN_POINT('',(-13.98231853205,0.710092710405,0.714770089665
    ));
#733 = CARTESIAN_POINT('',(-13.98926982788,0.551463704524,0.837815359385
    ));
#734 = CARTESIAN_POINT('',(-13.99190784402,0.484207158164,0.881239145099
    ));
#735 = CARTESIAN_POINT('',(-13.9943670846,0.411660589782,0.919233772907)
  );
#736 = CARTESIAN_POINT('',(-13.99651333686,0.334557194343,0.950799941599
    ));
#737 = CARTESIAN_POINT('',(-13.99822404007,0.253792282899,0.97513960581)
  );
#738 = CARTESIAN_POINT('',(-13.99940468136,0.170378688665,0.991663753436
    ));
#739 = CARTESIAN_POINT('',(-14.,8.54054828108E-02,1.));
#740 = CARTESIAN_POINT('',(-14.,-8.544666670613E-02,1.));
#741 = CARTESIAN_POINT('',(-13.99940411853,-0.170430631281,0.99165569937
    ));
#742 = CARTESIAN_POINT('',(-13.99822307078,-0.253833087687,
    0.975125945999));
#743 = CARTESIAN_POINT('',(-13.99651254877,-0.334575196886,0.95078831242
    ));
#744 = CARTESIAN_POINT('',(-13.99436702659,-0.411654683527,
    0.919231872251));
#745 = CARTESIAN_POINT('',(-13.99190858245,-0.48418584025,0.881249753151
    ));
#746 = CARTESIAN_POINT('',(-13.98927073782,-0.551442939616,
    0.837831466299));
#747 = CARTESIAN_POINT('',(-13.98231855334,-0.710092224378,
    0.714770466667));
#748 = CARTESIAN_POINT('',(-13.97789180672,-0.793464393249,
    0.628220359964));
#749 = CARTESIAN_POINT('',(-13.97369385566,-0.862732332067,
    0.533262847801));
#750 = CARTESIAN_POINT('',(-13.97004519587,-0.917887972604,
    0.432124563234));
#751 = CARTESIAN_POINT('',(-13.96717280831,-0.959047768589,
    0.326679931264));
#752 = CARTESIAN_POINT('',(-13.96521608224,-0.986369831602,
    0.218556567522));
#753 = CARTESIAN_POINT('',(-13.96424004376,-1.,0.109208630916));
#754 = CARTESIAN_POINT('',(-13.96424004376,-1.,-0.109205265793));
#755 = CARTESIAN_POINT('',(-13.96521602133,-0.986370674445,
    -0.218554025379));
#756 = CARTESIAN_POINT('',(-13.96717275893,-0.959048461421,
    -0.326679684605));
#757 = CARTESIAN_POINT('',(-13.97004522727,-0.9178876757,-0.432126016107
    ));
#758 = CARTESIAN_POINT('',(-13.97369393117,-0.862731214196,
    -0.533264380324));
#759 = CARTESIAN_POINT('',(-13.9778918353,-0.793463581456,
    -0.628220772471));
#760 = CARTESIAN_POINT('',(-13.98231853205,-0.710092710405,
    -0.714770089665));
#761 = CARTESIAN_POINT('',(-13.9892705676,-0.551446823998,
    -0.837828453263));
#762 = CARTESIAN_POINT('',(-13.9919084668,-0.484189358444,
    -0.881248134455));
#763 = CARTESIAN_POINT('',(-13.994367075,-0.411654714094,-0.919232822898
    ));
#764 = CARTESIAN_POINT('',(-13.99651273246,-0.33457036251,-0.95079103395
    ));
#765 = CARTESIAN_POINT('',(-13.99822327503,-0.253824008545,
    -0.975128812657));
#766 = CARTESIAN_POINT('',(-13.99940423166,-0.170419885043,
    -0.991657287984));
#767 = CARTESIAN_POINT('',(-14.,-8.543852340163E-02,-1.));
#768 = CARTESIAN_POINT('',(-14.,0.226737861552,-1.));
#769 = CARTESIAN_POINT('',(-13.99580301764,0.43950292144,-0.941246510721
    ));
#770 = CARTESIAN_POINT('',(-13.98831609464,0.625221137282,
    -0.836402630914));
#771 = CARTESIAN_POINT('',(-13.97970808568,0.777149724947,
    -0.696749225558));
#772 = CARTESIAN_POINT('',(-13.9720510281,0.890907603782,-0.533104443537
    ));
#773 = CARTESIAN_POINT('',(-13.9667463633,0.965004946315,-0.355839470328
    ));
#774 = CARTESIAN_POINT('',(-13.96424004376,1.,-0.174989329277));
#775 = CARTESIAN_POINT('',(-13.96424004376,1.,-2.22044604925E-16));
#776 = PCURVE('',#129,#777);
#777 = DEFINITIONAL_REPRESENTATION('',(#778),#830);
#778 = B_SPLINE_CURVE_WITH_KNOTS('',8,(#779,#780,#781,#782,#783,#784,
    #785,#786,#787,#788,#789,#790,#791,#792,#793,#794,#795,#796,#797,
    #798,#799,#800,#801,#802,#803,#804,#805,#806,#807,#808,#809,#810,
    #811,#812,#813,#814,#815,#816,#817,#818,#819,#820,#821,#822,#823,
    #824,#825,#826,#827,#828,#829),.UNSPECIFIED.,.T.,.F.,(9,7,7,7,7,7,7,
    9),(0.,0.152069790067,0.24821234356,0.344401258537,0.496492218771,
    0.648578492519,0.744757883844,1.),.UNSPECIFIED.);
#779 = CARTESIAN_POINT('',(-3.070103203704,2.22044604925E-16));
#780 = CARTESIAN_POINT('',(-3.070103203704,-0.109205265793));
#781 = CARTESIAN_POINT('',(-3.071079220273,-0.218554025378));
#782 = CARTESIAN_POINT('',(-3.073035803466,-0.326679684605));
#783 = CARTESIAN_POINT('',(-3.075983008159,-0.432126016107));
#784 = CARTESIAN_POINT('',(-3.079931306952,-0.533264380323));
#785 = CARTESIAN_POINT('',(-3.08488789235,-0.628220772471));
#786 = CARTESIAN_POINT('',(-3.090851087117,-0.714770089665));
#787 = CARTESIAN_POINT('',(-3.102192604225,-0.837815359385));
#788 = CARTESIAN_POINT('',(-3.107000287303,-0.881239145099));
#789 = CARTESIAN_POINT('',(-3.112185034851,-0.919233772907));
#790 = CARTESIAN_POINT('',(-3.11769434103,-0.950799941598));
#791 = CARTESIAN_POINT('',(-3.123464288873,-0.97513960581));
#792 = CARTESIAN_POINT('',(-3.129422746648,-0.991663753436));
#793 = CARTESIAN_POINT('',(-3.13549226196,-1.));
#794 = CARTESIAN_POINT('',(-3.147695986926,-1.));
#795 = CARTESIAN_POINT('',(-3.153766270738,-0.99165569937));
#796 = CARTESIAN_POINT('',(-3.159723933493,-0.975125945999));
#797 = CARTESIAN_POINT('',(-3.165492252936,-0.95078831242));
#798 = CARTESIAN_POINT('',(-3.170999850841,-0.919231872251));
#799 = CARTESIAN_POINT('',(-3.176183496409,-0.881249753151));
#800 = CARTESIAN_POINT('',(-3.180991218324,-0.837831466299));
#801 = CARTESIAN_POINT('',(-3.192334185313,-0.714770466667));
#802 = CARTESIAN_POINT('',(-3.198297472838,-0.628220359964));
#803 = CARTESIAN_POINT('',(-3.203254080258,-0.533262847801));
#804 = CARTESIAN_POINT('',(-3.207202320321,-0.432124563234));
#805 = CARTESIAN_POINT('',(-3.2101494541,-0.326679931264));
#806 = CARTESIAN_POINT('',(-3.212106026552,-0.218556567522));
#807 = CARTESIAN_POINT('',(-3.213082103475,-0.109208630916));
#808 = CARTESIAN_POINT('',(-3.213082103475,0.109205265793));
#809 = CARTESIAN_POINT('',(-3.212106086906,0.218554025379));
#810 = CARTESIAN_POINT('',(-3.210149503713,0.326679684605));
#811 = CARTESIAN_POINT('',(-3.207202299021,0.432126016107));
#812 = CARTESIAN_POINT('',(-3.203254000228,0.533264380324));
#813 = CARTESIAN_POINT('',(-3.19829741483,0.628220772471));
#814 = CARTESIAN_POINT('',(-3.192334220063,0.714770089665));
#815 = CARTESIAN_POINT('',(-3.180991496046,0.837828453263));
#816 = CARTESIAN_POINT('',(-3.176183747823,0.881248134455));
#817 = CARTESIAN_POINT('',(-3.170999852904,0.919232822898));
#818 = CARTESIAN_POINT('',(-3.165491907419,0.95079103395));
#819 = CARTESIAN_POINT('',(-3.159723284872,0.975128812657));
#820 = CARTESIAN_POINT('',(-3.153765503161,0.991657287984));
#821 = CARTESIAN_POINT('',(-3.147695405261,1.));
#822 = CARTESIAN_POINT('',(-3.12539709205,1.));
#823 = CARTESIAN_POINT('',(-3.110199584247,0.941246510721));
#824 = CARTESIAN_POINT('',(-3.096927546378,0.836402630914));
#825 = CARTESIAN_POINT('',(-3.086059360566,0.696749225558));
#826 = CARTESIAN_POINT('',(-3.077915457829,0.533104443537));
#827 = CARTESIAN_POINT('',(-3.072609254598,0.355839470328));
#828 = CARTESIAN_POINT('',(-3.070103203704,0.174989329277));
#829 = CARTESIAN_POINT('',(-3.070103203704,2.22044604925E-16));
#830 = ( GEOMETRIC_REPRESENTATION_CONTEXT(2) 
PARAMETRIC_REPRESENTATION_CONTEXT() REPRESENTATION_CONTEXT('2D SPACE',''
  ) );
#831 = PCURVE('',#832,#837);
#832 = CYLINDRICAL_SURFACE('',#833,1.);
#833 = AXIS2_PLACEMENT_3D('',#834,#835,#836);
#834 = CARTESIAN_POINT('',(0.,0.,0.));
#835 = DIRECTION('',(1.,0.,0.));
#836 = DIRECTION('',(0.,1.,0.));
#837 = DEFINITIONAL_REPRESENTATION('',(#838),#890);
#838 = B_SPLINE_CURVE_WITH_KNOTS('',8,(#839,#840,#841,#842,#843,#844,
    #845,#846,#847,#848,#849,#850,#851,#852,#853,#854,#855,#856,#857,
    #858,#859,#860,#861,#862,#863,#864,#865,#866,#867,#868,#869,#870,
    #871,#872,#873,#874,#875,#876,#877,#878,#879,#880,#881,#882,#883,
    #884,#885,#886,#887,#888,#889),.UNSPECIFIED.,.F.,.F.,(9,7,7,7,7,7,7,
    9),(0.,0.152069790067,0.24821234356,0.344401258537,0.496492218771,
    0.648578492519,0.744757883844,1.),.UNSPECIFIED.);
#839 = CARTESIAN_POINT('',(0.,-13.96424004376));
#840 = CARTESIAN_POINT('',(0.109205265793,-13.96424004376));
#841 = CARTESIAN_POINT('',(0.218553733625,-13.96521602133));
#842 = CARTESIAN_POINT('',(0.328664960108,-13.96717275893));
#843 = CARTESIAN_POINT('',(0.440085771597,-13.97004522727));
#844 = CARTESIAN_POINT('',(0.55337806526,-13.97369393117));
#845 = CARTESIAN_POINT('',(0.669143235819,-13.9778918353));
#846 = CARTESIAN_POINT('',(0.788066184859,-13.98231853205));
#847 = CARTESIAN_POINT('',(0.988823002694,-13.98926982788));
#848 = CARTESIAN_POINT('',(1.068580560958,-13.99190784402));
#849 = CARTESIAN_POINT('',(1.149907920232,-13.9943670846));
#850 = CARTESIAN_POINT('',(1.2324826043,-13.99651333686));
#851 = CARTESIAN_POINT('',(1.316054322108,-13.99822404007));
#852 = CARTESIAN_POINT('',(1.400417862155,-13.99940468136));
#853 = CARTESIAN_POINT('',(1.485390843984,-14.));
#854 = CARTESIAN_POINT('',(1.656242993501,-14.));
#855 = CARTESIAN_POINT('',(1.741226716347,-13.99940411853));
#856 = CARTESIAN_POINT('',(1.825580497448,-13.99822307078));
#857 = CARTESIAN_POINT('',(1.909130690638,-13.99651254877));
#858 = CARTESIAN_POINT('',(1.991680517364,-13.99436702659));
#859 = CARTESIAN_POINT('',(2.072988722684,-13.99190858245));
#860 = CARTESIAN_POINT('',(2.152743371359,-13.98927073782));
#861 = CARTESIAN_POINT('',(2.353525853627,-13.98231855334));
#862 = CARTESIAN_POINT('',(2.472450306618,-13.97789180672));
#863 = CARTESIAN_POINT('',(2.588216389617,-13.97369385566));
#864 = CARTESIAN_POINT('',(2.701508213151,-13.97004519587));
#865 = CARTESIAN_POINT('',(2.812927291575,-13.96717280831));
#866 = CARTESIAN_POINT('',(2.923036364772,-13.96521608224));
#867 = CARTESIAN_POINT('',(3.032384022674,-13.96424004376));
#868 = CARTESIAN_POINT('',(3.250797919383,-13.96424004376));
#869 = CARTESIAN_POINT('',(3.360146387215,-13.96521602133));
#870 = CARTESIAN_POINT('',(3.470257613697,-13.96717275893));
#871 = CARTESIAN_POINT('',(3.581678425187,-13.97004522727));
#872 = CARTESIAN_POINT('',(3.69497071885,-13.97369393117));
#873 = CARTESIAN_POINT('',(3.810735889409,-13.9778918353));
#874 = CARTESIAN_POINT('',(3.929658838449,-13.98231853205));
#875 = CARTESIAN_POINT('',(4.130437019846,-13.9892705676));
#876 = CARTESIAN_POINT('',(4.210192810702,-13.9919084668));
#877 = CARTESIAN_POINT('',(4.291505213996,-13.994367075));
#878 = CARTESIAN_POINT('',(4.374060014107,-13.99651273246));
#879 = CARTESIAN_POINT('',(4.457614158256,-13.99822327503));
#880 = CARTESIAN_POINT('',(4.541969338217,-13.99940423166));
#881 = CARTESIAN_POINT('',(4.626950456983,-14.));
#882 = CARTESIAN_POINT('',(4.939126841936,-14.));
#883 = CARTESIAN_POINT('',(5.151895505785,-13.99580301764));
#884 = CARTESIAN_POINT('',(5.355350829785,-13.98831609464));
#885 = CARTESIAN_POINT('',(5.551475110498,-13.97970808568));
#886 = CARTESIAN_POINT('',(5.741918941175,-13.9720510281));
#887 = CARTESIAN_POINT('',(5.927344943376,-13.9667463633));
#888 = CARTESIAN_POINT('',(6.108195977903,-13.96424004376));
#889 = CARTESIAN_POINT('',(6.28318530718,-13.96424004376));
#890 = ( GEOMETRIC_REPRESENTATION_CONTEXT(2) 
PARAMETRIC_REPRESENTATION_CONTEXT() REPRESENTATION_CONTEXT('2D SPACE',''
  ) );
#891 = ADVANCED_FACE('',(#892),#168,.F.);
#892 = FACE_BOUND('',#893,.F.);
#893 = EDGE_LOOP('',(#894,#923,#944,#945));
#894 = ORIENTED_EDGE('',*,*,#895,.F.);
#895 = EDGE_CURVE('',#896,#896,#898,.T.);
#896 = VERTEX_POINT('',#897);
#897 = CARTESIAN_POINT('',(-6.717514421272,-6.717514421272,-25.));
#898 = SURFACE_CURVE('',#899,(#904,#911),.PCURVE_S1.);
#899 = CIRCLE('',#900,1.5);
#900 = AXIS2_PLACEMENT_3D('',#901,#902,#903);
#901 = CARTESIAN_POINT('',(-7.778174593052,-7.778174593052,-25.));
#902 = DIRECTION('',(0.,0.,-1.));
#903 = DIRECTION('',(0.707106781187,0.707106781187,0.));
#904 = PCURVE('',#168,#905);
#905 = DEFINITIONAL_REPRESENTATION('',(#906),#910);
#906 = LINE('',#907,#908);
#907 = CARTESIAN_POINT('',(0.,52.5));
#908 = VECTOR('',#909,1.);
#909 = DIRECTION('',(1.,0.));
#910 = ( GEOMETRIC_REPRESENTATION_CONTEXT(2) 
PARAMETRIC_REPRESENTATION_CONTEXT() REPRESENTATION_CONTEXT('2D SPACE',''
  ) );
#911 = PCURVE('',#912,#917);
#912 = PLANE('',#913);
#913 = AXIS2_PLACEMENT_3D('',#914,#915,#916);
#914 = CARTESIAN_POINT('',(-8.751616848252E-16,-1.604946055186E-15,-25.)
  );
#915 = DIRECTION('',(-0.,-0.,-1.));
#916 = DIRECTION('',(-1.,0.,0.));
#917 = DEFINITIONAL_REPRESENTATION('',(#918),#922);
#918 = CIRCLE('',#919,1.5);
#919 = AXIS2_PLACEMENT_2D('',#920,#921);
#920 = CARTESIAN_POINT('',(7.778174593052,-7.778174593052));
#921 = DIRECTION('',(-0.707106781187,0.707106781187));
#922 = ( GEOMETRIC_REPRESENTATION_CONTEXT(2) 
PARAMETRIC_REPRESENTATION_CONTEXT() REPRESENTATION_CONTEXT('2D SPACE',''
  ) );
#923 = ORIENTED_EDGE('',*,*,#924,.F.);
#924 = EDGE_CURVE('',#148,#896,#925,.T.);
#925 = SEAM_CURVE('',#926,(#930,#937),.PCURVE_S1.);
#926 = LINE('',#927,#928);
#927 = CARTESIAN_POINT('',(-6.717514421272,-6.717514421272,27.5));
#928 = VECTOR('',#929,1.);
#929 = DIRECTION('',(0.,-0.,-1.));
#930 = PCURVE('',#168,#931);
#931 = DEFINITIONAL_REPRESENTATION('',(#932),#936);
#932 = LINE('',#933,#934);
#933 = CARTESIAN_POINT('',(6.28318530718,-0.));
#934 = VECTOR('',#935,1.);
#935 = DIRECTION('',(0.,1.));
#936 = ( GEOMETRIC_REPRESENTATION_CONTEXT(2) 
PARAMETRIC_REPRESENTATION_CONTEXT() REPRESENTATION_CONTEXT('2D SPACE',''
  ) );
#937 = PCURVE('',#168,#938);
#938 = DEFINITIONAL_REPRESENTATION('',(#939),#943);
#939 = LINE('',#940,#941);
#940 = CARTESIAN_POINT('',(0.,-0.));
#941 = VECTOR('',#942,1.);
#942 = DIRECTION('',(0.,1.));
#943 = ( GEOMETRIC_REPRESENTATION_CONTEXT(2) 
PARAMETRIC_REPRESENTATION_CONTEXT() REPRESENTATION_CONTEXT('2D SPACE',''
  ) );
#944 = ORIENTED_EDGE('',*,*,#147,.T.);
#945 = ORIENTED_EDGE('',*,*,#924,.T.);
#946 = ADVANCED_FACE('',(#947),#203,.F.);
#947 = FACE_BOUND('',#948,.F.);
#948 = EDGE_LOOP('',(#949,#973,#994,#995));
#949 = ORIENTED_EDGE('',*,*,#950,.F.);
#950 = EDGE_CURVE('',#951,#951,#953,.T.);
#951 = VERTEX_POINT('',#952);
#952 = CARTESIAN_POINT('',(6.717514421272,-6.717514421272,-25.));
#953 = SURFACE_CURVE('',#954,(#959,#966),.PCURVE_S1.);
#954 = CIRCLE('',#955,1.5);
#955 = AXIS2_PLACEMENT_3D('',#956,#957,#958);
#956 = CARTESIAN_POINT('',(7.778174593052,-7.778174593052,-25.));
#957 = DIRECTION('',(0.,0.,-1.));
#958 = DIRECTION('',(-0.707106781187,0.707106781187,0.));
#959 = PCURVE('',#203,#960);
#960 = DEFINITIONAL_REPRESENTATION('',(#961),#965);
#961 = LINE('',#962,#963);
#962 = CARTESIAN_POINT('',(0.,52.5));
#963 = VECTOR('',#964,1.);
#964 = DIRECTION('',(1.,0.));
#965 = ( GEOMETRIC_REPRESENTATION_CONTEXT(2) 
PARAMETRIC_REPRESENTATION_CONTEXT() REPRESENTATION_CONTEXT('2D SPACE',''
  ) );
#966 = PCURVE('',#912,#967);
#967 = DEFINITIONAL_REPRESENTATION('',(#968),#972);
#968 = CIRCLE('',#969,1.5);
#969 = AXIS2_PLACEMENT_2D('',#970,#971);
#970 = CARTESIAN_POINT('',(-7.778174593052,-7.778174593052));
#971 = DIRECTION('',(0.707106781187,0.707106781187));
#972 = ( GEOMETRIC_REPRESENTATION_CONTEXT(2) 
PARAMETRIC_REPRESENTATION_CONTEXT() REPRESENTATION_CONTEXT('2D SPACE',''
  ) );
#973 = ORIENTED_EDGE('',*,*,#974,.F.);
#974 = EDGE_CURVE('',#183,#951,#975,.T.);
#975 = SEAM_CURVE('',#976,(#980,#987),.PCURVE_S1.);
#976 = LINE('',#977,#978);
#977 = CARTESIAN_POINT('',(6.717514421272,-6.717514421272,27.5));
#978 = VECTOR('',#979,1.);
#979 = DIRECTION('',(0.,0.,-1.));
#980 = PCURVE('',#203,#981);
#981 = DEFINITIONAL_REPRESENTATION('',(#982),#986);
#982 = LINE('',#983,#984);
#983 = CARTESIAN_POINT('',(6.28318530718,-0.));
#984 = VECTOR('',#985,1.);
#985 = DIRECTION('',(0.,1.));
#986 = ( GEOMETRIC_REPRESENTATION_CONTEXT(2) 
PARAMETRIC_REPRESENTATION_CONTEXT() REPRESENTATION_CONTEXT('2D SPACE',''
  ) );
#987 = PCURVE('',#203,#988);
#988 = DEFINITIONAL_REPRESENTATION('',(#989),#993);
#989 = LINE('',#990,#991);
#990 = CARTESIAN_POINT('',(0.,-0.));
#991 = VECTOR('',#992,1.);
#992 = DIRECTION('',(0.,1.));
#993 = ( GEOMETRIC_REPRESENTATION_CONTEXT(2) 
PARAMETRIC_REPRESENTATION_CONTEXT() REPRESENTATION_CONTEXT('2D SPACE',''
  ) );
#994 = ORIENTED_EDGE('',*,*,#182,.T.);
#995 = ORIENTED_EDGE('',*,*,#974,.T.);
#996 = ADVANCED_FACE('',(#997),#234,.T.);
#997 = FACE_BOUND('',#998,.T.);
#998 = EDGE_LOOP('',(#999,#1024,#1045,#1046));
#999 = ORIENTED_EDGE('',*,*,#1000,.F.);
#1000 = EDGE_CURVE('',#1001,#1003,#1005,.T.);
#1001 = VERTEX_POINT('',#1002);
#1002 = CARTESIAN_POINT('',(4.275,7.404517202357,-25.0000002));
#1003 = VERTEX_POINT('',#1004);
#1004 = CARTESIAN_POINT('',(-4.275,7.404517202357,-25.0000002));
#1005 = SURFACE_CURVE('',#1006,(#1010,#1017),.PCURVE_S1.);
#1006 = LINE('',#1007,#1008);
#1007 = CARTESIAN_POINT('',(4.275,7.404517202357,-25.0000002));
#1008 = VECTOR('',#1009,1.);
#1009 = DIRECTION('',(-1.,2.07761033848E-16,0.));
#1010 = PCURVE('',#234,#1011);
#1011 = DEFINITIONAL_REPRESENTATION('',(#1012),#1016);
#1012 = LINE('',#1013,#1014);
#1013 = CARTESIAN_POINT('',(0.,0.));
#1014 = VECTOR('',#1015,1.);
#1015 = DIRECTION('',(1.,0.));
#1016 = ( GEOMETRIC_REPRESENTATION_CONTEXT(2) 
PARAMETRIC_REPRESENTATION_CONTEXT() REPRESENTATION_CONTEXT('2D SPACE',''
  ) );
#1017 = PCURVE('',#912,#1018);
#1018 = DEFINITIONAL_REPRESENTATION('',(#1019),#1023);
#1019 = LINE('',#1020,#1021);
#1020 = CARTESIAN_POINT('',(-4.275,7.404517202357));
#1021 = VECTOR('',#1022,1.);
#1022 = DIRECTION('',(1.,2.07761033848E-16));
#1023 = ( GEOMETRIC_REPRESENTATION_CONTEXT(2) 
PARAMETRIC_REPRESENTATION_CONTEXT() REPRESENTATION_CONTEXT('2D SPACE',''
  ) );
#1024 = ORIENTED_EDGE('',*,*,#1025,.T.);
#1025 = EDGE_CURVE('',#1001,#220,#1026,.T.);
#1026 = SURFACE_CURVE('',#1027,(#1031,#1038),.PCURVE_S1.);
#1027 = LINE('',#1028,#1029);
#1028 = CARTESIAN_POINT('',(4.275,7.404517202357,-25.0000002));
#1029 = VECTOR('',#1030,1.);
#1030 = DIRECTION('',(0.,0.,1.));
#1031 = PCURVE('',#234,#1032);
#1032 = DEFINITIONAL_REPRESENTATION('',(#1033),#1037);
#1033 = LINE('',#1034,#1035);
#1034 = CARTESIAN_POINT('',(0.,0.));
#1035 = VECTOR('',#1036,1.);
#1036 = DIRECTION('',(0.,-1.));
#1037 = ( GEOMETRIC_REPRESENTATION_CONTEXT(2) 
PARAMETRIC_REPRESENTATION_CONTEXT() REPRESENTATION_CONTEXT('2D SPACE',''
  ) );
#1038 = PCURVE('',#260,#1039);
#1039 = DEFINITIONAL_REPRESENTATION('',(#1040),#1044);
#1040 = LINE('',#1041,#1042);
#1041 = CARTESIAN_POINT('',(8.55,0.));
#1042 = VECTOR('',#1043,1.);
#1043 = DIRECTION('',(0.,-1.));
#1044 = ( GEOMETRIC_REPRESENTATION_CONTEXT(2) 
PARAMETRIC_REPRESENTATION_CONTEXT() REPRESENTATION_CONTEXT('2D SPACE',''
  ) );
#1045 = ORIENTED_EDGE('',*,*,#217,.F.);
#1046 = ORIENTED_EDGE('',*,*,#1047,.F.);
#1047 = EDGE_CURVE('',#1003,#218,#1048,.T.);
#1048 = SURFACE_CURVE('',#1049,(#1053,#1060),.PCURVE_S1.);
#1049 = LINE('',#1050,#1051);
#1050 = CARTESIAN_POINT('',(-4.275,7.404517202357,-25.0000002));
#1051 = VECTOR('',#1052,1.);
#1052 = DIRECTION('',(0.,0.,1.));
#1053 = PCURVE('',#234,#1054);
#1054 = DEFINITIONAL_REPRESENTATION('',(#1055),#1059);
#1055 = LINE('',#1056,#1057);
#1056 = CARTESIAN_POINT('',(8.55,0.));
#1057 = VECTOR('',#1058,1.);
#1058 = DIRECTION('',(0.,-1.));
#1059 = ( GEOMETRIC_REPRESENTATION_CONTEXT(2) 
PARAMETRIC_REPRESENTATION_CONTEXT() REPRESENTATION_CONTEXT('2D SPACE',''
  ) );
#1060 = PCURVE('',#362,#1061);
#1061 = DEFINITIONAL_REPRESENTATION('',(#1062),#1066);
#1062 = LINE('',#1063,#1064);
#1063 = CARTESIAN_POINT('',(0.,0.));
#1064 = VECTOR('',#1065,1.);
#1065 = DIRECTION('',(0.,-1.));
#1066 = ( GEOMETRIC_REPRESENTATION_CONTEXT(2) 
PARAMETRIC_REPRESENTATION_CONTEXT() REPRESENTATION_CONTEXT('2D SPACE',''
  ) );
#1067 = ADVANCED_FACE('',(#1068),#362,.T.);
#1068 = FACE_BOUND('',#1069,.T.);
#1069 = EDGE_LOOP('',(#1070,#1093,#1094,#1095,#1118,#1148,#1178));
#1070 = ORIENTED_EDGE('',*,*,#1071,.F.);
#1071 = EDGE_CURVE('',#1003,#1072,#1074,.T.);
#1072 = VERTEX_POINT('',#1073);
#1073 = CARTESIAN_POINT('',(-8.55,1.047073013271E-15,-25.0000002));
#1074 = SURFACE_CURVE('',#1075,(#1079,#1086),.PCURVE_S1.);
#1075 = LINE('',#1076,#1077);
#1076 = CARTESIAN_POINT('',(-4.275,7.404517202357,-25.0000002));
#1077 = VECTOR('',#1078,1.);
#1078 = DIRECTION('',(-0.5,-0.866025403784,0.));
#1079 = PCURVE('',#362,#1080);
#1080 = DEFINITIONAL_REPRESENTATION('',(#1081),#1085);
#1081 = LINE('',#1082,#1083);
#1082 = CARTESIAN_POINT('',(0.,0.));
#1083 = VECTOR('',#1084,1.);
#1084 = DIRECTION('',(1.,0.));
#1085 = ( GEOMETRIC_REPRESENTATION_CONTEXT(2) 
PARAMETRIC_REPRESENTATION_CONTEXT() REPRESENTATION_CONTEXT('2D SPACE',''
  ) );
#1086 = PCURVE('',#912,#1087);
#1087 = DEFINITIONAL_REPRESENTATION('',(#1088),#1092);
#1088 = LINE('',#1089,#1090);
#1089 = CARTESIAN_POINT('',(4.275,7.404517202357));
#1090 = VECTOR('',#1091,1.);
#1091 = DIRECTION('',(0.5,-0.866025403784));
#1092 = ( GEOMETRIC_REPRESENTATION_CONTEXT(2) 
PARAMETRIC_REPRESENTATION_CONTEXT() REPRESENTATION_CONTEXT('2D SPACE',''
  ) );
#1093 = ORIENTED_EDGE('',*,*,#1047,.T.);
#1094 = ORIENTED_EDGE('',*,*,#349,.F.);
#1095 = ORIENTED_EDGE('',*,*,#1096,.F.);
#1096 = EDGE_CURVE('',#1097,#324,#1099,.T.);
#1097 = VERTEX_POINT('',#1098);
#1098 = CARTESIAN_POINT('',(-8.55,1.047073013271E-15,1.));
#1099 = SURFACE_CURVE('',#1100,(#1104,#1111),.PCURVE_S1.);
#1100 = LINE('',#1101,#1102);
#1101 = CARTESIAN_POINT('',(-8.55,1.047073013271E-15,-25.0000002));
#1102 = VECTOR('',#1103,1.);
#1103 = DIRECTION('',(0.,0.,1.));
#1104 = PCURVE('',#362,#1105);
#1105 = DEFINITIONAL_REPRESENTATION('',(#1106),#1110);
#1106 = LINE('',#1107,#1108);
#1107 = CARTESIAN_POINT('',(8.55,0.));
#1108 = VECTOR('',#1109,1.);
#1109 = DIRECTION('',(0.,-1.));
#1110 = ( GEOMETRIC_REPRESENTATION_CONTEXT(2) 
PARAMETRIC_REPRESENTATION_CONTEXT() REPRESENTATION_CONTEXT('2D SPACE',''
  ) );
#1111 = PCURVE('',#338,#1112);
#1112 = DEFINITIONAL_REPRESENTATION('',(#1113),#1117);
#1113 = LINE('',#1114,#1115);
#1114 = CARTESIAN_POINT('',(0.,0.));
#1115 = VECTOR('',#1116,1.);
#1116 = DIRECTION('',(0.,-1.));
#1117 = ( GEOMETRIC_REPRESENTATION_CONTEXT(2) 
PARAMETRIC_REPRESENTATION_CONTEXT() REPRESENTATION_CONTEXT('2D SPACE',''
  ) );
#1118 = ORIENTED_EDGE('',*,*,#1119,.F.);
#1119 = EDGE_CURVE('',#1120,#1097,#1122,.T.);
#1120 = VERTEX_POINT('',#1121);
#1121 = CARTESIAN_POINT('',(-7.97264973081,1.,0.));
#1122 = SURFACE_CURVE('',#1123,(#1128,#1135),.PCURVE_S1.);
#1123 = ELLIPSE('',#1124,1.154700538379,1.);
#1124 = AXIS2_PLACEMENT_3D('',#1125,#1126,#1127);
#1125 = CARTESIAN_POINT('',(-8.55,0.,0.));
#1126 = DIRECTION('',(0.866025403784,-0.5,0.));
#1127 = DIRECTION('',(0.5,0.866025403784,0.));
#1128 = PCURVE('',#362,#1129);
#1129 = DEFINITIONAL_REPRESENTATION('',(#1130),#1134);
#1130 = ELLIPSE('',#1131,1.154700538379,1.);
#1131 = AXIS2_PLACEMENT_2D('',#1132,#1133);
#1132 = CARTESIAN_POINT('',(8.55,-25.0000002));
#1133 = DIRECTION('',(-1.,0.));
#1134 = ( GEOMETRIC_REPRESENTATION_CONTEXT(2) 
PARAMETRIC_REPRESENTATION_CONTEXT() REPRESENTATION_CONTEXT('2D SPACE',''
  ) );
#1135 = PCURVE('',#832,#1136);
#1136 = DEFINITIONAL_REPRESENTATION('',(#1137),#1147);
#1137 = B_SPLINE_CURVE_WITH_KNOTS('',8,(#1138,#1139,#1140,#1141,#1142,
    #1143,#1144,#1145,#1146),.UNSPECIFIED.,.F.,.F.,(9,9),(0.,
    2.404538529715),.PIECEWISE_BEZIER_KNOTS.);
#1138 = CARTESIAN_POINT('',(0.,-7.97264973081));
#1139 = CARTESIAN_POINT('',(0.300567316214,-7.97264973081));
#1140 = CARTESIAN_POINT('',(0.601134632428,-8.03226061122));
#1141 = CARTESIAN_POINT('',(0.901701948643,-8.151469224304));
#1142 = CARTESIAN_POINT('',(1.202269264857,-8.318842671426));
#1143 = CARTESIAN_POINT('',(1.50283658107,-8.511253007258));
#1144 = CARTESIAN_POINT('',(1.803403897286,-8.700094682648));
#1145 = CARTESIAN_POINT('',(2.103971213501,-8.860867067878));
#1146 = CARTESIAN_POINT('',(2.404538529715,-8.9775));
#1147 = ( GEOMETRIC_REPRESENTATION_CONTEXT(2) 
PARAMETRIC_REPRESENTATION_CONTEXT() REPRESENTATION_CONTEXT('2D SPACE',''
  ) );
#1148 = ORIENTED_EDGE('',*,*,#1149,.F.);
#1149 = EDGE_CURVE('',#1150,#1120,#1152,.T.);
#1150 = VERTEX_POINT('',#1151);
#1151 = CARTESIAN_POINT('',(-8.55,1.047073013271E-15,-1.));
#1152 = SURFACE_CURVE('',#1153,(#1158,#1165),.PCURVE_S1.);
#1153 = ELLIPSE('',#1154,1.154700538379,1.);
#1154 = AXIS2_PLACEMENT_3D('',#1155,#1156,#1157);
#1155 = CARTESIAN_POINT('',(-8.55,0.,0.));
#1156 = DIRECTION('',(0.866025403784,-0.5,0.));
#1157 = DIRECTION('',(0.5,0.866025403784,0.));
#1158 = PCURVE('',#362,#1159);
#1159 = DEFINITIONAL_REPRESENTATION('',(#1160),#1164);
#1160 = ELLIPSE('',#1161,1.154700538379,1.);
#1161 = AXIS2_PLACEMENT_2D('',#1162,#1163);
#1162 = CARTESIAN_POINT('',(8.55,-25.0000002));
#1163 = DIRECTION('',(-1.,0.));
#1164 = ( GEOMETRIC_REPRESENTATION_CONTEXT(2) 
PARAMETRIC_REPRESENTATION_CONTEXT() REPRESENTATION_CONTEXT('2D SPACE',''
  ) );
#1165 = PCURVE('',#832,#1166);
#1166 = DEFINITIONAL_REPRESENTATION('',(#1167),#1177);
#1167 = B_SPLINE_CURVE_WITH_KNOTS('',8,(#1168,#1169,#1170,#1171,#1172,
    #1173,#1174,#1175,#1176),.UNSPECIFIED.,.F.,.F.,(9,9),(3.878646777464
    ,6.28318530718),.PIECEWISE_BEZIER_KNOTS.);
#1168 = CARTESIAN_POINT('',(3.878646777464,-8.9775));
#1169 = CARTESIAN_POINT('',(4.179214093679,-8.860867067878));
#1170 = CARTESIAN_POINT('',(4.479781409903,-8.700094682658));
#1171 = CARTESIAN_POINT('',(4.780348726083,-8.511253007237));
#1172 = CARTESIAN_POINT('',(5.080916042356,-8.318842671448));
#1173 = CARTESIAN_POINT('',(5.381483358502,-8.151469224274));
#1174 = CARTESIAN_POINT('',(5.682050674762,-8.032260611234));
#1175 = CARTESIAN_POINT('',(5.982617990965,-7.97264973081));
#1176 = CARTESIAN_POINT('',(6.28318530718,-7.97264973081));
#1177 = ( GEOMETRIC_REPRESENTATION_CONTEXT(2) 
PARAMETRIC_REPRESENTATION_CONTEXT() REPRESENTATION_CONTEXT('2D SPACE',''
  ) );
#1178 = ORIENTED_EDGE('',*,*,#1179,.F.);
#1179 = EDGE_CURVE('',#1072,#1150,#1180,.T.);
#1180 = SURFACE_CURVE('',#1181,(#1185,#1192),.PCURVE_S1.);
#1181 = LINE('',#1182,#1183);
#1182 = CARTESIAN_POINT('',(-8.55,1.047073013271E-15,-25.0000002));
#1183 = VECTOR('',#1184,1.);
#1184 = DIRECTION('',(0.,0.,1.));
#1185 = PCURVE('',#362,#1186);
#1186 = DEFINITIONAL_REPRESENTATION('',(#1187),#1191);
#1187 = LINE('',#1188,#1189);
#1188 = CARTESIAN_POINT('',(8.55,0.));
#1189 = VECTOR('',#1190,1.);
#1190 = DIRECTION('',(0.,-1.));
#1191 = ( GEOMETRIC_REPRESENTATION_CONTEXT(2) 
PARAMETRIC_REPRESENTATION_CONTEXT() REPRESENTATION_CONTEXT('2D SPACE',''
  ) );
#1192 = PCURVE('',#338,#1193);
#1193 = DEFINITIONAL_REPRESENTATION('',(#1194),#1198);
#1194 = LINE('',#1195,#1196);
#1195 = CARTESIAN_POINT('',(0.,0.));
#1196 = VECTOR('',#1197,1.);
#1197 = DIRECTION('',(0.,-1.));
#1198 = ( GEOMETRIC_REPRESENTATION_CONTEXT(2) 
PARAMETRIC_REPRESENTATION_CONTEXT() REPRESENTATION_CONTEXT('2D SPACE',''
  ) );
#1199 = ADVANCED_FACE('',(#1200),#260,.T.);
#1200 = FACE_BOUND('',#1201,.T.);
#1201 = EDGE_LOOP('',(#1202,#1225,#1248,#1278,#1308,#1329,#1330));
#1202 = ORIENTED_EDGE('',*,*,#1203,.F.);
#1203 = EDGE_CURVE('',#1204,#1001,#1206,.T.);
#1204 = VERTEX_POINT('',#1205);
#1205 = CARTESIAN_POINT('',(8.55,0.,-25.0000002));
#1206 = SURFACE_CURVE('',#1207,(#1211,#1218),.PCURVE_S1.);
#1207 = LINE('',#1208,#1209);
#1208 = CARTESIAN_POINT('',(8.55,0.,-25.0000002));
#1209 = VECTOR('',#1210,1.);
#1210 = DIRECTION('',(-0.5,0.866025403784,0.));
#1211 = PCURVE('',#260,#1212);
#1212 = DEFINITIONAL_REPRESENTATION('',(#1213),#1217);
#1213 = LINE('',#1214,#1215);
#1214 = CARTESIAN_POINT('',(0.,0.));
#1215 = VECTOR('',#1216,1.);
#1216 = DIRECTION('',(1.,0.));
#1217 = ( GEOMETRIC_REPRESENTATION_CONTEXT(2) 
PARAMETRIC_REPRESENTATION_CONTEXT() REPRESENTATION_CONTEXT('2D SPACE',''
  ) );
#1218 = PCURVE('',#912,#1219);
#1219 = DEFINITIONAL_REPRESENTATION('',(#1220),#1224);
#1220 = LINE('',#1221,#1222);
#1221 = CARTESIAN_POINT('',(-8.55,1.604946055186E-15));
#1222 = VECTOR('',#1223,1.);
#1223 = DIRECTION('',(0.5,0.866025403784));
#1224 = ( GEOMETRIC_REPRESENTATION_CONTEXT(2) 
PARAMETRIC_REPRESENTATION_CONTEXT() REPRESENTATION_CONTEXT('2D SPACE',''
  ) );
#1225 = ORIENTED_EDGE('',*,*,#1226,.T.);
#1226 = EDGE_CURVE('',#1204,#1227,#1229,.T.);
#1227 = VERTEX_POINT('',#1228);
#1228 = CARTESIAN_POINT('',(8.55,0.,-1.));
#1229 = SURFACE_CURVE('',#1230,(#1234,#1241),.PCURVE_S1.);
#1230 = LINE('',#1231,#1232);
#1231 = CARTESIAN_POINT('',(8.55,0.,-25.0000002));
#1232 = VECTOR('',#1233,1.);
#1233 = DIRECTION('',(0.,0.,1.));
#1234 = PCURVE('',#260,#1235);
#1235 = DEFINITIONAL_REPRESENTATION('',(#1236),#1240);
#1236 = LINE('',#1237,#1238);
#1237 = CARTESIAN_POINT('',(0.,0.));
#1238 = VECTOR('',#1239,1.);
#1239 = DIRECTION('',(0.,-1.));
#1240 = ( GEOMETRIC_REPRESENTATION_CONTEXT(2) 
PARAMETRIC_REPRESENTATION_CONTEXT() REPRESENTATION_CONTEXT('2D SPACE',''
  ) );
#1241 = PCURVE('',#286,#1242);
#1242 = DEFINITIONAL_REPRESENTATION('',(#1243),#1247);
#1243 = LINE('',#1244,#1245);
#1244 = CARTESIAN_POINT('',(8.55,0.));
#1245 = VECTOR('',#1246,1.);
#1246 = DIRECTION('',(0.,-1.));
#1247 = ( GEOMETRIC_REPRESENTATION_CONTEXT(2) 
PARAMETRIC_REPRESENTATION_CONTEXT() REPRESENTATION_CONTEXT('2D SPACE',''
  ) );
#1248 = ORIENTED_EDGE('',*,*,#1249,.F.);
#1249 = EDGE_CURVE('',#1250,#1227,#1252,.T.);
#1250 = VERTEX_POINT('',#1251);
#1251 = CARTESIAN_POINT('',(7.97264973081,1.,0.));
#1252 = SURFACE_CURVE('',#1253,(#1258,#1265),.PCURVE_S1.);
#1253 = ELLIPSE('',#1254,1.154700538379,1.);
#1254 = AXIS2_PLACEMENT_3D('',#1255,#1256,#1257);
#1255 = CARTESIAN_POINT('',(8.55,0.,0.));
#1256 = DIRECTION('',(-0.866025403784,-0.5,0.));
#1257 = DIRECTION('',(-0.5,0.866025403784,0.));
#1258 = PCURVE('',#260,#1259);
#1259 = DEFINITIONAL_REPRESENTATION('',(#1260),#1264);
#1260 = ELLIPSE('',#1261,1.154700538379,1.);
#1261 = AXIS2_PLACEMENT_2D('',#1262,#1263);
#1262 = CARTESIAN_POINT('',(0.,-25.0000002));
#1263 = DIRECTION('',(1.,0.));
#1264 = ( GEOMETRIC_REPRESENTATION_CONTEXT(2) 
PARAMETRIC_REPRESENTATION_CONTEXT() REPRESENTATION_CONTEXT('2D SPACE',''
  ) );
#1265 = PCURVE('',#533,#1266);
#1266 = DEFINITIONAL_REPRESENTATION('',(#1267),#1277);
#1267 = B_SPLINE_CURVE_WITH_KNOTS('',8,(#1268,#1269,#1270,#1271,#1272,
    #1273,#1274,#1275,#1276),.UNSPECIFIED.,.F.,.F.,(9,9),(
    5.551115123126E-17,2.404538529715),.PIECEWISE_BEZIER_KNOTS.);
#1268 = CARTESIAN_POINT('',(-6.28318530718,-7.97264973081));
#1269 = CARTESIAN_POINT('',(-5.982617990965,-7.97264973081));
#1270 = CARTESIAN_POINT('',(-5.682050674751,-8.032260611228));
#1271 = CARTESIAN_POINT('',(-5.381483358541,-8.151469224274));
#1272 = CARTESIAN_POINT('',(-5.08091604232,-8.318842671455));
#1273 = CARTESIAN_POINT('',(-4.78034872611,-8.511253007229));
#1274 = CARTESIAN_POINT('',(-4.479781409892,-8.700094682656));
#1275 = CARTESIAN_POINT('',(-4.179214093679,-8.860867067878));
#1276 = CARTESIAN_POINT('',(-3.878646777464,-8.9775));
#1277 = ( GEOMETRIC_REPRESENTATION_CONTEXT(2) 
PARAMETRIC_REPRESENTATION_CONTEXT() REPRESENTATION_CONTEXT('2D SPACE',''
  ) );
#1278 = ORIENTED_EDGE('',*,*,#1279,.F.);
#1279 = EDGE_CURVE('',#1280,#1250,#1282,.T.);
#1280 = VERTEX_POINT('',#1281);
#1281 = CARTESIAN_POINT('',(8.55,0.,1.));
#1282 = SURFACE_CURVE('',#1283,(#1288,#1295),.PCURVE_S1.);
#1283 = ELLIPSE('',#1284,1.154700538379,1.);
#1284 = AXIS2_PLACEMENT_3D('',#1285,#1286,#1287);
#1285 = CARTESIAN_POINT('',(8.55,0.,0.));
#1286 = DIRECTION('',(-0.866025403784,-0.5,0.));
#1287 = DIRECTION('',(-0.5,0.866025403784,0.));
#1288 = PCURVE('',#260,#1289);
#1289 = DEFINITIONAL_REPRESENTATION('',(#1290),#1294);
#1290 = ELLIPSE('',#1291,1.154700538379,1.);
#1291 = AXIS2_PLACEMENT_2D('',#1292,#1293);
#1292 = CARTESIAN_POINT('',(0.,-25.0000002));
#1293 = DIRECTION('',(1.,0.));
#1294 = ( GEOMETRIC_REPRESENTATION_CONTEXT(2) 
PARAMETRIC_REPRESENTATION_CONTEXT() REPRESENTATION_CONTEXT('2D SPACE',''
  ) );
#1295 = PCURVE('',#533,#1296);
#1296 = DEFINITIONAL_REPRESENTATION('',(#1297),#1307);
#1297 = B_SPLINE_CURVE_WITH_KNOTS('',8,(#1298,#1299,#1300,#1301,#1302,
    #1303,#1304,#1305,#1306),.UNSPECIFIED.,.F.,.F.,(9,9),(3.878646777464
    ,6.28318530718),.PIECEWISE_BEZIER_KNOTS.);
#1298 = CARTESIAN_POINT('',(-2.404538529715,-8.9775));
#1299 = CARTESIAN_POINT('',(-2.103971213501,-8.860867067878));
#1300 = CARTESIAN_POINT('',(-1.803403897287,-8.700094682655));
#1301 = CARTESIAN_POINT('',(-1.50283658107,-8.511253007251));
#1302 = CARTESIAN_POINT('',(-1.202269264852,-8.318842671448));
#1303 = CARTESIAN_POINT('',(-0.901701948641,-8.151469224274));
#1304 = CARTESIAN_POINT('',(-0.601134632429,-8.032260611234));
#1305 = CARTESIAN_POINT('',(-0.300567316214,-7.97264973081));
#1306 = CARTESIAN_POINT('',(-2.449293598295E-16,-7.97264973081));
#1307 = ( GEOMETRIC_REPRESENTATION_CONTEXT(2) 
PARAMETRIC_REPRESENTATION_CONTEXT() REPRESENTATION_CONTEXT('2D SPACE',''
  ) );
#1308 = ORIENTED_EDGE('',*,*,#1309,.T.);
#1309 = EDGE_CURVE('',#1280,#246,#1310,.T.);
#1310 = SURFACE_CURVE('',#1311,(#1315,#1322),.PCURVE_S1.);
#1311 = LINE('',#1312,#1313);
#1312 = CARTESIAN_POINT('',(8.55,0.,-25.0000002));
#1313 = VECTOR('',#1314,1.);
#1314 = DIRECTION('',(0.,0.,1.));
#1315 = PCURVE('',#260,#1316);
#1316 = DEFINITIONAL_REPRESENTATION('',(#1317),#1321);
#1317 = LINE('',#1318,#1319);
#1318 = CARTESIAN_POINT('',(0.,0.));
#1319 = VECTOR('',#1320,1.);
#1320 = DIRECTION('',(0.,-1.));
#1321 = ( GEOMETRIC_REPRESENTATION_CONTEXT(2) 
PARAMETRIC_REPRESENTATION_CONTEXT() REPRESENTATION_CONTEXT('2D SPACE',''
  ) );
#1322 = PCURVE('',#286,#1323);
#1323 = DEFINITIONAL_REPRESENTATION('',(#1324),#1328);
#1324 = LINE('',#1325,#1326);
#1325 = CARTESIAN_POINT('',(8.55,0.));
#1326 = VECTOR('',#1327,1.);
#1327 = DIRECTION('',(0.,-1.));
#1328 = ( GEOMETRIC_REPRESENTATION_CONTEXT(2) 
PARAMETRIC_REPRESENTATION_CONTEXT() REPRESENTATION_CONTEXT('2D SPACE',''
  ) );
#1329 = ORIENTED_EDGE('',*,*,#245,.F.);
#1330 = ORIENTED_EDGE('',*,*,#1025,.F.);
#1331 = ADVANCED_FACE('',(#1332),#338,.T.);
#1332 = FACE_BOUND('',#1333,.T.);
#1333 = EDGE_LOOP('',(#1334,#1357,#1358,#1393,#1394,#1395));
#1334 = ORIENTED_EDGE('',*,*,#1335,.F.);
#1335 = EDGE_CURVE('',#1072,#1336,#1338,.T.);
#1336 = VERTEX_POINT('',#1337);
#1337 = CARTESIAN_POINT('',(-4.275,-7.404517202357,-25.0000002));
#1338 = SURFACE_CURVE('',#1339,(#1343,#1350),.PCURVE_S1.);
#1339 = LINE('',#1340,#1341);
#1340 = CARTESIAN_POINT('',(-8.55,1.047073013271E-15,-25.0000002));
#1341 = VECTOR('',#1342,1.);
#1342 = DIRECTION('',(0.5,-0.866025403784,0.));
#1343 = PCURVE('',#338,#1344);
#1344 = DEFINITIONAL_REPRESENTATION('',(#1345),#1349);
#1345 = LINE('',#1346,#1347);
#1346 = CARTESIAN_POINT('',(0.,0.));
#1347 = VECTOR('',#1348,1.);
#1348 = DIRECTION('',(1.,0.));
#1349 = ( GEOMETRIC_REPRESENTATION_CONTEXT(2) 
PARAMETRIC_REPRESENTATION_CONTEXT() REPRESENTATION_CONTEXT('2D SPACE',''
  ) );
#1350 = PCURVE('',#912,#1351);
#1351 = DEFINITIONAL_REPRESENTATION('',(#1352),#1356);
#1352 = LINE('',#1353,#1354);
#1353 = CARTESIAN_POINT('',(8.55,2.652019068457E-15));
#1354 = VECTOR('',#1355,1.);
#1355 = DIRECTION('',(-0.5,-0.866025403784));
#1356 = ( GEOMETRIC_REPRESENTATION_CONTEXT(2) 
PARAMETRIC_REPRESENTATION_CONTEXT() REPRESENTATION_CONTEXT('2D SPACE',''
  ) );
#1357 = ORIENTED_EDGE('',*,*,#1179,.T.);
#1358 = ORIENTED_EDGE('',*,*,#1359,.F.);
#1359 = EDGE_CURVE('',#1097,#1150,#1360,.T.);
#1360 = SURFACE_CURVE('',#1361,(#1366,#1373),.PCURVE_S1.);
#1361 = ELLIPSE('',#1362,1.154700538379,1.);
#1362 = AXIS2_PLACEMENT_3D('',#1363,#1364,#1365);
#1363 = CARTESIAN_POINT('',(-8.55,0.,0.));
#1364 = DIRECTION('',(0.866025403784,0.5,0.));
#1365 = DIRECTION('',(0.5,-0.866025403784,0.));
#1366 = PCURVE('',#338,#1367);
#1367 = DEFINITIONAL_REPRESENTATION('',(#1368),#1372);
#1368 = ELLIPSE('',#1369,1.154700538379,1.);
#1369 = AXIS2_PLACEMENT_2D('',#1370,#1371);
#1370 = CARTESIAN_POINT('',(9.067918291098E-16,-25.0000002));
#1371 = DIRECTION('',(1.,0.));
#1372 = ( GEOMETRIC_REPRESENTATION_CONTEXT(2) 
PARAMETRIC_REPRESENTATION_CONTEXT() REPRESENTATION_CONTEXT('2D SPACE',''
  ) );
#1373 = PCURVE('',#832,#1374);
#1374 = DEFINITIONAL_REPRESENTATION('',(#1375),#1392);
#1375 = B_SPLINE_CURVE_WITH_KNOTS('',8,(#1376,#1377,#1378,#1379,#1380,
    #1381,#1382,#1383,#1384,#1385,#1386,#1387,#1388,#1389,#1390,#1391),
  .UNSPECIFIED.,.F.,.F.,(9,7,9),(3.878646777464,6.28318530718,
    8.687723836895),.UNSPECIFIED.);
#1376 = CARTESIAN_POINT('',(0.737054123874,-8.9775));
#1377 = CARTESIAN_POINT('',(1.037621440089,-8.860867067878));
#1378 = CARTESIAN_POINT('',(1.338188756301,-8.70009468266));
#1379 = CARTESIAN_POINT('',(1.638756072512,-8.5112530072));
#1380 = CARTESIAN_POINT('',(1.939323388733,-8.318842671506));
#1381 = CARTESIAN_POINT('',(2.239890704938,-8.151469224249));
#1382 = CARTESIAN_POINT('',(2.54045802116,-8.032260611237));
#1383 = CARTESIAN_POINT('',(2.841025337375,-7.97264973081));
#1384 = CARTESIAN_POINT('',(3.442159969804,-7.97264973081));
#1385 = CARTESIAN_POINT('',(3.742727286015,-8.032260611221));
#1386 = CARTESIAN_POINT('',(4.043294602228,-8.151469224311));
#1387 = CARTESIAN_POINT('',(4.343861918445,-8.318842671404));
#1388 = CARTESIAN_POINT('',(4.644429234651,-8.511253007266));
#1389 = CARTESIAN_POINT('',(4.944996550875,-8.700094682643));
#1390 = CARTESIAN_POINT('',(5.245563867091,-8.860867067878));
#1391 = CARTESIAN_POINT('',(5.546131183305,-8.9775));
#1392 = ( GEOMETRIC_REPRESENTATION_CONTEXT(2) 
PARAMETRIC_REPRESENTATION_CONTEXT() REPRESENTATION_CONTEXT('2D SPACE',''
  ) );
#1393 = ORIENTED_EDGE('',*,*,#1096,.T.);
#1394 = ORIENTED_EDGE('',*,*,#323,.F.);
#1395 = ORIENTED_EDGE('',*,*,#1396,.F.);
#1396 = EDGE_CURVE('',#1336,#298,#1397,.T.);
#1397 = SURFACE_CURVE('',#1398,(#1402,#1409),.PCURVE_S1.);
#1398 = LINE('',#1399,#1400);
#1399 = CARTESIAN_POINT('',(-4.275,-7.404517202357,-25.0000002));
#1400 = VECTOR('',#1401,1.);
#1401 = DIRECTION('',(0.,0.,1.));
#1402 = PCURVE('',#338,#1403);
#1403 = DEFINITIONAL_REPRESENTATION('',(#1404),#1408);
#1404 = LINE('',#1405,#1406);
#1405 = CARTESIAN_POINT('',(8.55,0.));
#1406 = VECTOR('',#1407,1.);
#1407 = DIRECTION('',(0.,-1.));
#1408 = ( GEOMETRIC_REPRESENTATION_CONTEXT(2) 
PARAMETRIC_REPRESENTATION_CONTEXT() REPRESENTATION_CONTEXT('2D SPACE',''
  ) );
#1409 = PCURVE('',#312,#1410);
#1410 = DEFINITIONAL_REPRESENTATION('',(#1411),#1415);
#1411 = LINE('',#1412,#1413);
#1412 = CARTESIAN_POINT('',(0.,0.));
#1413 = VECTOR('',#1414,1.);
#1414 = DIRECTION('',(0.,-1.));
#1415 = ( GEOMETRIC_REPRESENTATION_CONTEXT(2) 
PARAMETRIC_REPRESENTATION_CONTEXT() REPRESENTATION_CONTEXT('2D SPACE',''
  ) );
#1416 = ADVANCED_FACE('',(#1417),#286,.T.);
#1417 = FACE_BOUND('',#1418,.T.);
#1418 = EDGE_LOOP('',(#1419,#1442,#1463,#1464,#1465,#1500));
#1419 = ORIENTED_EDGE('',*,*,#1420,.F.);
#1420 = EDGE_CURVE('',#1421,#1204,#1423,.T.);
#1421 = VERTEX_POINT('',#1422);
#1422 = CARTESIAN_POINT('',(4.275,-7.404517202357,-25.0000002));
#1423 = SURFACE_CURVE('',#1424,(#1428,#1435),.PCURVE_S1.);
#1424 = LINE('',#1425,#1426);
#1425 = CARTESIAN_POINT('',(4.275,-7.404517202357,-25.0000002));
#1426 = VECTOR('',#1427,1.);
#1427 = DIRECTION('',(0.5,0.866025403784,0.));
#1428 = PCURVE('',#286,#1429);
#1429 = DEFINITIONAL_REPRESENTATION('',(#1430),#1434);
#1430 = LINE('',#1431,#1432);
#1431 = CARTESIAN_POINT('',(0.,0.));
#1432 = VECTOR('',#1433,1.);
#1433 = DIRECTION('',(1.,0.));
#1434 = ( GEOMETRIC_REPRESENTATION_CONTEXT(2) 
PARAMETRIC_REPRESENTATION_CONTEXT() REPRESENTATION_CONTEXT('2D SPACE',''
  ) );
#1435 = PCURVE('',#912,#1436);
#1436 = DEFINITIONAL_REPRESENTATION('',(#1437),#1441);
#1437 = LINE('',#1438,#1439);
#1438 = CARTESIAN_POINT('',(-4.275,-7.404517202357));
#1439 = VECTOR('',#1440,1.);
#1440 = DIRECTION('',(-0.5,0.866025403784));
#1441 = ( GEOMETRIC_REPRESENTATION_CONTEXT(2) 
PARAMETRIC_REPRESENTATION_CONTEXT() REPRESENTATION_CONTEXT('2D SPACE',''
  ) );
#1442 = ORIENTED_EDGE('',*,*,#1443,.T.);
#1443 = EDGE_CURVE('',#1421,#272,#1444,.T.);
#1444 = SURFACE_CURVE('',#1445,(#1449,#1456),.PCURVE_S1.);
#1445 = LINE('',#1446,#1447);
#1446 = CARTESIAN_POINT('',(4.275,-7.404517202357,-25.0000002));
#1447 = VECTOR('',#1448,1.);
#1448 = DIRECTION('',(0.,0.,1.));
#1449 = PCURVE('',#286,#1450);
#1450 = DEFINITIONAL_REPRESENTATION('',(#1451),#1455);
#1451 = LINE('',#1452,#1453);
#1452 = CARTESIAN_POINT('',(0.,0.));
#1453 = VECTOR('',#1454,1.);
#1454 = DIRECTION('',(0.,-1.));
#1455 = ( GEOMETRIC_REPRESENTATION_CONTEXT(2) 
PARAMETRIC_REPRESENTATION_CONTEXT() REPRESENTATION_CONTEXT('2D SPACE',''
  ) );
#1456 = PCURVE('',#312,#1457);
#1457 = DEFINITIONAL_REPRESENTATION('',(#1458),#1462);
#1458 = LINE('',#1459,#1460);
#1459 = CARTESIAN_POINT('',(8.55,0.));
#1460 = VECTOR('',#1461,1.);
#1461 = DIRECTION('',(0.,-1.));
#1462 = ( GEOMETRIC_REPRESENTATION_CONTEXT(2) 
PARAMETRIC_REPRESENTATION_CONTEXT() REPRESENTATION_CONTEXT('2D SPACE',''
  ) );
#1463 = ORIENTED_EDGE('',*,*,#271,.F.);
#1464 = ORIENTED_EDGE('',*,*,#1309,.F.);
#1465 = ORIENTED_EDGE('',*,*,#1466,.F.);
#1466 = EDGE_CURVE('',#1227,#1280,#1467,.T.);
#1467 = SURFACE_CURVE('',#1468,(#1473,#1480),.PCURVE_S1.);
#1468 = ELLIPSE('',#1469,1.154700538379,1.);
#1469 = AXIS2_PLACEMENT_3D('',#1470,#1471,#1472);
#1470 = CARTESIAN_POINT('',(8.55,0.,0.));
#1471 = DIRECTION('',(-0.866025403784,0.5,0.));
#1472 = DIRECTION('',(-0.5,-0.866025403784,0.));
#1473 = PCURVE('',#286,#1474);
#1474 = DEFINITIONAL_REPRESENTATION('',(#1475),#1479);
#1475 = ELLIPSE('',#1476,1.154700538379,1.);
#1476 = AXIS2_PLACEMENT_2D('',#1477,#1478);
#1477 = CARTESIAN_POINT('',(8.55,-25.0000002));
#1478 = DIRECTION('',(-1.,-0.));
#1479 = ( GEOMETRIC_REPRESENTATION_CONTEXT(2) 
PARAMETRIC_REPRESENTATION_CONTEXT() REPRESENTATION_CONTEXT('2D SPACE',''
  ) );
#1480 = PCURVE('',#533,#1481);
#1481 = DEFINITIONAL_REPRESENTATION('',(#1482),#1499);
#1482 = B_SPLINE_CURVE_WITH_KNOTS('',8,(#1483,#1484,#1485,#1486,#1487,
    #1488,#1489,#1490,#1491,#1492,#1493,#1494,#1495,#1496,#1497,#1498),
  .UNSPECIFIED.,.F.,.F.,(9,7,9),(3.878646777464,6.28318530718,
    8.687723836895),.UNSPECIFIED.);
#1483 = CARTESIAN_POINT('',(-5.546131183305,-8.9775));
#1484 = CARTESIAN_POINT('',(-5.245563867091,-8.860867067878));
#1485 = CARTESIAN_POINT('',(-4.944996550875,-8.700094682666));
#1486 = CARTESIAN_POINT('',(-4.644429234651,-8.511253007207));
#1487 = CARTESIAN_POINT('',(-4.343861918434,-8.318842671506));
#1488 = CARTESIAN_POINT('',(-4.043294602223,-8.151469224245));
#1489 = CARTESIAN_POINT('',(-3.742727286017,-8.032260611241));
#1490 = CARTESIAN_POINT('',(-3.442159969804,-7.97264973081));
#1491 = CARTESIAN_POINT('',(-2.841025337375,-7.97264973081));
#1492 = CARTESIAN_POINT('',(-2.540458021161,-8.032260611225));
#1493 = CARTESIAN_POINT('',(-2.239890704945,-8.151469224282));
#1494 = CARTESIAN_POINT('',(-1.939323388726,-8.318842671433));
#1495 = CARTESIAN_POINT('',(-1.638756072509,-8.511253007251));
#1496 = CARTESIAN_POINT('',(-1.338188756303,-8.70009468265));
#1497 = CARTESIAN_POINT('',(-1.037621440089,-8.860867067878));
#1498 = CARTESIAN_POINT('',(-0.737054123874,-8.9775));
#1499 = ( GEOMETRIC_REPRESENTATION_CONTEXT(2) 
PARAMETRIC_REPRESENTATION_CONTEXT() REPRESENTATION_CONTEXT('2D SPACE',''
  ) );
#1500 = ORIENTED_EDGE('',*,*,#1226,.F.);
#1501 = ADVANCED_FACE('',(#1502),#312,.T.);
#1502 = FACE_BOUND('',#1503,.T.);
#1503 = EDGE_LOOP('',(#1504,#1525,#1526,#1527));
#1504 = ORIENTED_EDGE('',*,*,#1505,.F.);
#1505 = EDGE_CURVE('',#1336,#1421,#1506,.T.);
#1506 = SURFACE_CURVE('',#1507,(#1511,#1518),.PCURVE_S1.);
#1507 = LINE('',#1508,#1509);
#1508 = CARTESIAN_POINT('',(-4.275,-7.404517202357,-25.0000002));
#1509 = VECTOR('',#1510,1.);
#1510 = DIRECTION('',(1.,-7.271636184679E-16,0.));
#1511 = PCURVE('',#312,#1512);
#1512 = DEFINITIONAL_REPRESENTATION('',(#1513),#1517);
#1513 = LINE('',#1514,#1515);
#1514 = CARTESIAN_POINT('',(0.,0.));
#1515 = VECTOR('',#1516,1.);
#1516 = DIRECTION('',(1.,0.));
#1517 = ( GEOMETRIC_REPRESENTATION_CONTEXT(2) 
PARAMETRIC_REPRESENTATION_CONTEXT() REPRESENTATION_CONTEXT('2D SPACE',''
  ) );
#1518 = PCURVE('',#912,#1519);
#1519 = DEFINITIONAL_REPRESENTATION('',(#1520),#1524);
#1520 = LINE('',#1521,#1522);
#1521 = CARTESIAN_POINT('',(4.275,-7.404517202357));
#1522 = VECTOR('',#1523,1.);
#1523 = DIRECTION('',(-1.,-7.271636184679E-16));
#1524 = ( GEOMETRIC_REPRESENTATION_CONTEXT(2) 
PARAMETRIC_REPRESENTATION_CONTEXT() REPRESENTATION_CONTEXT('2D SPACE',''
  ) );
#1525 = ORIENTED_EDGE('',*,*,#1396,.T.);
#1526 = ORIENTED_EDGE('',*,*,#297,.F.);
#1527 = ORIENTED_EDGE('',*,*,#1443,.F.);
#1528 = ADVANCED_FACE('',(#1529),#396,.F.);
#1529 = FACE_BOUND('',#1530,.F.);
#1530 = EDGE_LOOP('',(#1531,#1555,#1576,#1577));
#1531 = ORIENTED_EDGE('',*,*,#1532,.F.);
#1532 = EDGE_CURVE('',#1533,#1533,#1535,.T.);
#1533 = VERTEX_POINT('',#1534);
#1534 = CARTESIAN_POINT('',(-6.717514421272,6.717514421272,-25.));
#1535 = SURFACE_CURVE('',#1536,(#1541,#1548),.PCURVE_S1.);
#1536 = CIRCLE('',#1537,1.5);
#1537 = AXIS2_PLACEMENT_3D('',#1538,#1539,#1540);
#1538 = CARTESIAN_POINT('',(-7.778174593052,7.778174593052,-25.));
#1539 = DIRECTION('',(-0.,0.,-1.));
#1540 = DIRECTION('',(0.707106781187,-0.707106781187,-0.));
#1541 = PCURVE('',#396,#1542);
#1542 = DEFINITIONAL_REPRESENTATION('',(#1543),#1547);
#1543 = LINE('',#1544,#1545);
#1544 = CARTESIAN_POINT('',(0.,52.5));
#1545 = VECTOR('',#1546,1.);
#1546 = DIRECTION('',(1.,0.));
#1547 = ( GEOMETRIC_REPRESENTATION_CONTEXT(2) 
PARAMETRIC_REPRESENTATION_CONTEXT() REPRESENTATION_CONTEXT('2D SPACE',''
  ) );
#1548 = PCURVE('',#912,#1549);
#1549 = DEFINITIONAL_REPRESENTATION('',(#1550),#1554);
#1550 = CIRCLE('',#1551,1.5);
#1551 = AXIS2_PLACEMENT_2D('',#1552,#1553);
#1552 = CARTESIAN_POINT('',(7.778174593052,7.778174593052));
#1553 = DIRECTION('',(-0.707106781187,-0.707106781187));
#1554 = ( GEOMETRIC_REPRESENTATION_CONTEXT(2) 
PARAMETRIC_REPRESENTATION_CONTEXT() REPRESENTATION_CONTEXT('2D SPACE',''
  ) );
#1555 = ORIENTED_EDGE('',*,*,#1556,.F.);
#1556 = EDGE_CURVE('',#376,#1533,#1557,.T.);
#1557 = SEAM_CURVE('',#1558,(#1562,#1569),.PCURVE_S1.);
#1558 = LINE('',#1559,#1560);
#1559 = CARTESIAN_POINT('',(-6.717514421272,6.717514421272,27.5));
#1560 = VECTOR('',#1561,1.);
#1561 = DIRECTION('',(-0.,0.,-1.));
#1562 = PCURVE('',#396,#1563);
#1563 = DEFINITIONAL_REPRESENTATION('',(#1564),#1568);
#1564 = LINE('',#1565,#1566);
#1565 = CARTESIAN_POINT('',(6.28318530718,-0.));
#1566 = VECTOR('',#1567,1.);
#1567 = DIRECTION('',(0.,1.));
#1568 = ( GEOMETRIC_REPRESENTATION_CONTEXT(2) 
PARAMETRIC_REPRESENTATION_CONTEXT() REPRESENTATION_CONTEXT('2D SPACE',''
  ) );
#1569 = PCURVE('',#396,#1570);
#1570 = DEFINITIONAL_REPRESENTATION('',(#1571),#1575);
#1571 = LINE('',#1572,#1573);
#1572 = CARTESIAN_POINT('',(0.,-0.));
#1573 = VECTOR('',#1574,1.);
#1574 = DIRECTION('',(0.,1.));
#1575 = ( GEOMETRIC_REPRESENTATION_CONTEXT(2) 
PARAMETRIC_REPRESENTATION_CONTEXT() REPRESENTATION_CONTEXT('2D SPACE',''
  ) );
#1576 = ORIENTED_EDGE('',*,*,#375,.T.);
#1577 = ORIENTED_EDGE('',*,*,#1556,.T.);
#1578 = ADVANCED_FACE('',(#1579),#431,.F.);
#1579 = FACE_BOUND('',#1580,.F.);
#1580 = EDGE_LOOP('',(#1581,#1605,#1626,#1627));
#1581 = ORIENTED_EDGE('',*,*,#1582,.F.);
#1582 = EDGE_CURVE('',#1583,#1583,#1585,.T.);
#1583 = VERTEX_POINT('',#1584);
#1584 = CARTESIAN_POINT('',(6.717514421272,6.717514421272,-25.));
#1585 = SURFACE_CURVE('',#1586,(#1591,#1598),.PCURVE_S1.);
#1586 = CIRCLE('',#1587,1.5);
#1587 = AXIS2_PLACEMENT_3D('',#1588,#1589,#1590);
#1588 = CARTESIAN_POINT('',(7.778174593052,7.778174593052,-25.));
#1589 = DIRECTION('',(0.,0.,-1.));
#1590 = DIRECTION('',(-0.707106781187,-0.707106781187,-0.));
#1591 = PCURVE('',#431,#1592);
#1592 = DEFINITIONAL_REPRESENTATION('',(#1593),#1597);
#1593 = LINE('',#1594,#1595);
#1594 = CARTESIAN_POINT('',(0.,52.5));
#1595 = VECTOR('',#1596,1.);
#1596 = DIRECTION('',(1.,0.));
#1597 = ( GEOMETRIC_REPRESENTATION_CONTEXT(2) 
PARAMETRIC_REPRESENTATION_CONTEXT() REPRESENTATION_CONTEXT('2D SPACE',''
  ) );
#1598 = PCURVE('',#912,#1599);
#1599 = DEFINITIONAL_REPRESENTATION('',(#1600),#1604);
#1600 = CIRCLE('',#1601,1.5);
#1601 = AXIS2_PLACEMENT_2D('',#1602,#1603);
#1602 = CARTESIAN_POINT('',(-7.778174593052,7.778174593052));
#1603 = DIRECTION('',(0.707106781187,-0.707106781187));
#1604 = ( GEOMETRIC_REPRESENTATION_CONTEXT(2) 
PARAMETRIC_REPRESENTATION_CONTEXT() REPRESENTATION_CONTEXT('2D SPACE',''
  ) );
#1605 = ORIENTED_EDGE('',*,*,#1606,.F.);
#1606 = EDGE_CURVE('',#411,#1583,#1607,.T.);
#1607 = SEAM_CURVE('',#1608,(#1612,#1619),.PCURVE_S1.);
#1608 = LINE('',#1609,#1610);
#1609 = CARTESIAN_POINT('',(6.717514421272,6.717514421272,27.5));
#1610 = VECTOR('',#1611,1.);
#1611 = DIRECTION('',(0.,0.,-1.));
#1612 = PCURVE('',#431,#1613);
#1613 = DEFINITIONAL_REPRESENTATION('',(#1614),#1618);
#1614 = LINE('',#1615,#1616);
#1615 = CARTESIAN_POINT('',(6.28318530718,-0.));
#1616 = VECTOR('',#1617,1.);
#1617 = DIRECTION('',(0.,1.));
#1618 = ( GEOMETRIC_REPRESENTATION_CONTEXT(2) 
PARAMETRIC_REPRESENTATION_CONTEXT() REPRESENTATION_CONTEXT('2D SPACE',''
  ) );
#1619 = PCURVE('',#431,#1620);
#1620 = DEFINITIONAL_REPRESENTATION('',(#1621),#1625);
#1621 = LINE('',#1622,#1623);
#1622 = CARTESIAN_POINT('',(0.,-0.));
#1623 = VECTOR('',#1624,1.);
#1624 = DIRECTION('',(0.,1.));
#1625 = ( GEOMETRIC_REPRESENTATION_CONTEXT(2) 
PARAMETRIC_REPRESENTATION_CONTEXT() REPRESENTATION_CONTEXT('2D SPACE',''
  ) );
#1626 = ORIENTED_EDGE('',*,*,#410,.T.);
#1627 = ORIENTED_EDGE('',*,*,#1606,.T.);
#1628 = ADVANCED_FACE('',(#1629),#533,.F.);
#1629 = FACE_BOUND('',#1630,.T.);
#1630 = EDGE_LOOP('',(#1631,#1632,#1653,#1654,#1655,#1656,#1657,#1658));
#1631 = ORIENTED_EDGE('',*,*,#1279,.T.);
#1632 = ORIENTED_EDGE('',*,*,#1633,.T.);
#1633 = EDGE_CURVE('',#1250,#624,#1634,.T.);
#1634 = SEAM_CURVE('',#1635,(#1639,#1646),.PCURVE_S1.);
#1635 = LINE('',#1636,#1637);
#1636 = CARTESIAN_POINT('',(0.,1.,0.));
#1637 = VECTOR('',#1638,1.);
#1638 = DIRECTION('',(1.,0.,0.));
#1639 = PCURVE('',#533,#1640);
#1640 = DEFINITIONAL_REPRESENTATION('',(#1641),#1645);
#1641 = LINE('',#1642,#1643);
#1642 = CARTESIAN_POINT('',(-6.28318530718,0.));
#1643 = VECTOR('',#1644,1.);
#1644 = DIRECTION('',(-0.,-1.));
#1645 = ( GEOMETRIC_REPRESENTATION_CONTEXT(2) 
PARAMETRIC_REPRESENTATION_CONTEXT() REPRESENTATION_CONTEXT('2D SPACE',''
  ) );
#1646 = PCURVE('',#533,#1647);
#1647 = DEFINITIONAL_REPRESENTATION('',(#1648),#1652);
#1648 = LINE('',#1649,#1650);
#1649 = CARTESIAN_POINT('',(-0.,0.));
#1650 = VECTOR('',#1651,1.);
#1651 = DIRECTION('',(-0.,-1.));
#1652 = ( GEOMETRIC_REPRESENTATION_CONTEXT(2) 
PARAMETRIC_REPRESENTATION_CONTEXT() REPRESENTATION_CONTEXT('2D SPACE',''
  ) );
#1653 = ORIENTED_EDGE('',*,*,#664,.T.);
#1654 = ORIENTED_EDGE('',*,*,#471,.T.);
#1655 = ORIENTED_EDGE('',*,*,#623,.T.);
#1656 = ORIENTED_EDGE('',*,*,#1633,.F.);
#1657 = ORIENTED_EDGE('',*,*,#1249,.T.);
#1658 = ORIENTED_EDGE('',*,*,#1466,.T.);
#1659 = ADVANCED_FACE('',(#1660,#1691),#606,.F.);
#1660 = FACE_BOUND('',#1661,.F.);
#1661 = EDGE_LOOP('',(#1662));
#1662 = ORIENTED_EDGE('',*,*,#1663,.T.);
#1663 = EDGE_CURVE('',#1664,#1664,#1666,.T.);
#1664 = VERTEX_POINT('',#1665);
#1665 = CARTESIAN_POINT('',(25.,0.,-22.5));
#1666 = SURFACE_CURVE('',#1667,(#1672,#1679),.PCURVE_S1.);
#1667 = CIRCLE('',#1668,25.);
#1668 = AXIS2_PLACEMENT_3D('',#1669,#1670,#1671);
#1669 = CARTESIAN_POINT('',(0.,0.,-22.5));
#1670 = DIRECTION('',(0.,0.,-1.));
#1671 = DIRECTION('',(1.,0.,0.));
#1672 = PCURVE('',#606,#1673);
#1673 = DEFINITIONAL_REPRESENTATION('',(#1674),#1678);
#1674 = CIRCLE('',#1675,25.);
#1675 = AXIS2_PLACEMENT_2D('',#1676,#1677);
#1676 = CARTESIAN_POINT('',(-8.751616848252E-16,1.604946055186E-15));
#1677 = DIRECTION('',(-1.,0.));
#1678 = ( GEOMETRIC_REPRESENTATION_CONTEXT(2) 
PARAMETRIC_REPRESENTATION_CONTEXT() REPRESENTATION_CONTEXT('2D SPACE',''
  ) );
#1679 = PCURVE('',#1680,#1685);
#1680 = CYLINDRICAL_SURFACE('',#1681,25.);
#1681 = AXIS2_PLACEMENT_3D('',#1682,#1683,#1684);
#1682 = CARTESIAN_POINT('',(0.,0.,-25.));
#1683 = DIRECTION('',(0.,0.,-1.));
#1684 = DIRECTION('',(1.,0.,0.));
#1685 = DEFINITIONAL_REPRESENTATION('',(#1686),#1690);
#1686 = LINE('',#1687,#1688);
#1687 = CARTESIAN_POINT('',(0.,-2.5));
#1688 = VECTOR('',#1689,1.);
#1689 = DIRECTION('',(1.,0.));
#1690 = ( GEOMETRIC_REPRESENTATION_CONTEXT(2) 
PARAMETRIC_REPRESENTATION_CONTEXT() REPRESENTATION_CONTEXT('2D SPACE',''
  ) );
#1691 = FACE_BOUND('',#1692,.F.);
#1692 = EDGE_LOOP('',(#1693));
#1693 = ORIENTED_EDGE('',*,*,#591,.T.);
#1694 = ADVANCED_FACE('',(#1695),#832,.F.);
#1695 = FACE_BOUND('',#1696,.F.);
#1696 = EDGE_LOOP('',(#1697,#1698,#1719,#1720,#1721,#1722));
#1697 = ORIENTED_EDGE('',*,*,#1119,.F.);
#1698 = ORIENTED_EDGE('',*,*,#1699,.T.);
#1699 = EDGE_CURVE('',#1120,#721,#1700,.T.);
#1700 = SEAM_CURVE('',#1701,(#1705,#1712),.PCURVE_S1.);
#1701 = LINE('',#1702,#1703);
#1702 = CARTESIAN_POINT('',(0.,1.,0.));
#1703 = VECTOR('',#1704,1.);
#1704 = DIRECTION('',(-1.,-0.,-0.));
#1705 = PCURVE('',#832,#1706);
#1706 = DEFINITIONAL_REPRESENTATION('',(#1707),#1711);
#1707 = LINE('',#1708,#1709);
#1708 = CARTESIAN_POINT('',(6.28318530718,0.));
#1709 = VECTOR('',#1710,1.);
#1710 = DIRECTION('',(0.,-1.));
#1711 = ( GEOMETRIC_REPRESENTATION_CONTEXT(2) 
PARAMETRIC_REPRESENTATION_CONTEXT() REPRESENTATION_CONTEXT('2D SPACE',''
  ) );
#1712 = PCURVE('',#832,#1713);
#1713 = DEFINITIONAL_REPRESENTATION('',(#1714),#1718);
#1714 = LINE('',#1715,#1716);
#1715 = CARTESIAN_POINT('',(0.,0.));
#1716 = VECTOR('',#1717,1.);
#1717 = DIRECTION('',(0.,-1.));
#1718 = ( GEOMETRIC_REPRESENTATION_CONTEXT(2) 
PARAMETRIC_REPRESENTATION_CONTEXT() REPRESENTATION_CONTEXT('2D SPACE',''
  ) );
#1719 = ORIENTED_EDGE('',*,*,#720,.T.);
#1720 = ORIENTED_EDGE('',*,*,#1699,.F.);
#1721 = ORIENTED_EDGE('',*,*,#1149,.F.);
#1722 = ORIENTED_EDGE('',*,*,#1359,.F.);
#1723 = ADVANCED_FACE('',(#1724,#1750,#1753,#1756,#1764,#1767),#912,.T.
  );
#1724 = FACE_BOUND('',#1725,.T.);
#1725 = EDGE_LOOP('',(#1726));
#1726 = ORIENTED_EDGE('',*,*,#1727,.T.);
#1727 = EDGE_CURVE('',#1728,#1728,#1730,.T.);
#1728 = VERTEX_POINT('',#1729);
#1729 = CARTESIAN_POINT('',(25.,0.,-25.));
#1730 = SURFACE_CURVE('',#1731,(#1736,#1743),.PCURVE_S1.);
#1731 = CIRCLE('',#1732,25.);
#1732 = AXIS2_PLACEMENT_3D('',#1733,#1734,#1735);
#1733 = CARTESIAN_POINT('',(0.,0.,-25.));
#1734 = DIRECTION('',(0.,0.,-1.));
#1735 = DIRECTION('',(1.,0.,0.));
#1736 = PCURVE('',#912,#1737);
#1737 = DEFINITIONAL_REPRESENTATION('',(#1738),#1742);
#1738 = CIRCLE('',#1739,25.);
#1739 = AXIS2_PLACEMENT_2D('',#1740,#1741);
#1740 = CARTESIAN_POINT('',(-8.751616848252E-16,1.604946055186E-15));
#1741 = DIRECTION('',(-1.,0.));
#1742 = ( GEOMETRIC_REPRESENTATION_CONTEXT(2) 
PARAMETRIC_REPRESENTATION_CONTEXT() REPRESENTATION_CONTEXT('2D SPACE',''
  ) );
#1743 = PCURVE('',#1680,#1744);
#1744 = DEFINITIONAL_REPRESENTATION('',(#1745),#1749);
#1745 = LINE('',#1746,#1747);
#1746 = CARTESIAN_POINT('',(0.,0.));
#1747 = VECTOR('',#1748,1.);
#1748 = DIRECTION('',(1.,0.));
#1749 = ( GEOMETRIC_REPRESENTATION_CONTEXT(2) 
PARAMETRIC_REPRESENTATION_CONTEXT() REPRESENTATION_CONTEXT('2D SPACE',''
  ) );
#1750 = FACE_BOUND('',#1751,.T.);
#1751 = EDGE_LOOP('',(#1752));
#1752 = ORIENTED_EDGE('',*,*,#950,.F.);
#1753 = FACE_BOUND('',#1754,.T.);
#1754 = EDGE_LOOP('',(#1755));
#1755 = ORIENTED_EDGE('',*,*,#895,.F.);
#1756 = FACE_BOUND('',#1757,.T.);
#1757 = EDGE_LOOP('',(#1758,#1759,#1760,#1761,#1762,#1763));
#1758 = ORIENTED_EDGE('',*,*,#1420,.T.);
#1759 = ORIENTED_EDGE('',*,*,#1203,.T.);
#1760 = ORIENTED_EDGE('',*,*,#1000,.T.);
#1761 = ORIENTED_EDGE('',*,*,#1071,.T.);
#1762 = ORIENTED_EDGE('',*,*,#1335,.T.);
#1763 = ORIENTED_EDGE('',*,*,#1505,.T.);
#1764 = FACE_BOUND('',#1765,.T.);
#1765 = EDGE_LOOP('',(#1766));
#1766 = ORIENTED_EDGE('',*,*,#1582,.F.);
#1767 = FACE_BOUND('',#1768,.T.);
#1768 = EDGE_LOOP('',(#1769));
#1769 = ORIENTED_EDGE('',*,*,#1532,.F.);
#1770 = ADVANCED_FACE('',(#1771),#1680,.T.);
#1771 = FACE_BOUND('',#1772,.T.);
#1772 = EDGE_LOOP('',(#1773,#1794,#1795,#1796));
#1773 = ORIENTED_EDGE('',*,*,#1774,.T.);
#1774 = EDGE_CURVE('',#1728,#1664,#1775,.T.);
#1775 = SEAM_CURVE('',#1776,(#1780,#1787),.PCURVE_S1.);
#1776 = LINE('',#1777,#1778);
#1777 = CARTESIAN_POINT('',(25.,0.,-25.));
#1778 = VECTOR('',#1779,1.);
#1779 = DIRECTION('',(0.,0.,1.));
#1780 = PCURVE('',#1680,#1781);
#1781 = DEFINITIONAL_REPRESENTATION('',(#1782),#1786);
#1782 = LINE('',#1783,#1784);
#1783 = CARTESIAN_POINT('',(0.,0.));
#1784 = VECTOR('',#1785,1.);
#1785 = DIRECTION('',(0.,-1.));
#1786 = ( GEOMETRIC_REPRESENTATION_CONTEXT(2) 
PARAMETRIC_REPRESENTATION_CONTEXT() REPRESENTATION_CONTEXT('2D SPACE',''
  ) );
#1787 = PCURVE('',#1680,#1788);
#1788 = DEFINITIONAL_REPRESENTATION('',(#1789),#1793);
#1789 = LINE('',#1790,#1791);
#1790 = CARTESIAN_POINT('',(6.28318530718,0.));
#1791 = VECTOR('',#1792,1.);
#1792 = DIRECTION('',(0.,-1.));
#1793 = ( GEOMETRIC_REPRESENTATION_CONTEXT(2) 
PARAMETRIC_REPRESENTATION_CONTEXT() REPRESENTATION_CONTEXT('2D SPACE',''
  ) );
#1794 = ORIENTED_EDGE('',*,*,#1663,.T.);
#1795 = ORIENTED_EDGE('',*,*,#1774,.F.);
#1796 = ORIENTED_EDGE('',*,*,#1727,.F.);
#1797 = ( GEOMETRIC_REPRESENTATION_CONTEXT(3) 
GLOBAL_UNCERTAINTY_ASSIGNED_CONTEXT((#1801)) 
GLOBAL_UNIT_ASSIGNED_CONTEXT((#1798,#1799,#1800)) REPRESENTATION_CONTEXT
('Context #1','3D Context with UNIT and UNCERTAINTY') );
#1798 = ( LENGTH_UNIT() NAMED_UNIT(*) SI_UNIT(.MILLI.,.METRE.) );
#1799 = ( NAMED_UNIT(*) PLANE_ANGLE_UNIT() SI_UNIT($,.RADIAN.) );
#1800 = ( NAMED_UNIT(*) SI_UNIT($,.STERADIAN.) SOLID_ANGLE_UNIT() );
#1801 = UNCERTAINTY_MEASURE_WITH_UNIT(LENGTH_MEASURE(2.E-07),#1798,
  'distance_accuracy_value','confusion accuracy');
#1802 = PRODUCT_RELATED_PRODUCT_CATEGORY('part',$,(#7));
ENDSEC;
END-ISO-10303-21;
