ISO-10303-21;
HEADER;
FILE_DESCRIPTION(('Open CASCADE Model'),'2;1');
FILE_NAME('Open CASCADE Shape Model','2026-03-19T03:06:48',('Author'),(
    'Open CASCADE'),'Open CASCADE STEP processor 7.8','Open CASCADE 7.8'
  ,'Unknown');
FILE_SCHEMA(('AUTOMOTIVE_DESIGN { 1 0 10303 214 1 1 1 1 }'));
ENDSEC;
DATA;
#1 = APPLICATION_PROTOCOL_DEFINITION('international standard',
  'automotive_design',2000,#2);
#2 = APPLICATION_CONTEXT(
  'core data for automotive mechanical design processes');
#3 = SHAPE_DEFINITION_REPRESENTATION(#4,#10);
#4 = PRODUCT_DEFINITION_SHAPE('','',#5);
#5 = PRODUCT_DEFINITION('design','',#6,#9);
#6 = PRODUCT_DEFINITION_FORMATION('','',#7);
#7 = PRODUCT('Open CASCADE STEP translator 7.8 1',
  'Open CASCADE STEP translator 7.8 1','',(#8));
#8 = PRODUCT_CONTEXT('',#2,'mechanical');
#9 = PRODUCT_DEFINITION_CONTEXT('part definition',#2,'design');
#10 = ADVANCED_BREP_SHAPE_REPRESENTATION('',(#11,#15),#130);
#11 = AXIS2_PLACEMENT_3D('',#12,#13,#14);
#12 = CARTESIAN_POINT('',(0.,0.,0.));
#13 = DIRECTION('',(0.,0.,1.));
#14 = DIRECTION('',(1.,0.,-0.));
#15 = MANIFOLD_SOLID_BREP('',#16);
#16 = CLOSED_SHELL('',(#17));
#17 = ADVANCED_FACE('',(#18),#22,.F.);
#18 = FACE_BOUND('',#19,.F.);
#19 = VERTEX_LOOP('',#20);
#20 = VERTEX_POINT('',#21);
#21 = CARTESIAN_POINT('',(4.591690043317E-47,-26.5625,0.));
#22 = SURFACE_OF_REVOLUTION('',#23,#127);
#23 = B_SPLINE_CURVE_WITH_KNOTS('',3,(#24,#25,#26,#27,#28,#29,#30,#31,
    #32,#33,#34,#35,#36,#37,#38,#39,#40,#41,#42,#43,#44,#45,#46,#47,#48,
    #49,#50,#51,#52,#53,#54,#55,#56,#57,#58,#59,#60,#61,#62,#63,#64,#65,
    #66,#67,#68,#69,#70,#71,#72,#73,#74,#75,#76,#77,#78,#79,#80,#81,#82,
    #83,#84,#85,#86,#87,#88,#89,#90,#91,#92,#93,#94,#95,#96,#97,#98,#99,
    #100,#101,#102,#103,#104,#105,#106,#107,#108,#109,#110,#111,#112,
    #113,#114,#115,#116,#117,#118,#119,#120,#121,#122,#123,#124,#125,
    #126),.UNSPECIFIED.,.F.,.F.,(4,1,1,1,1,1,1,1,1,1,1,1,1,1,1,1,1,1,1,1
    ,1,1,1,1,1,1,1,1,1,1,1,1,1,1,1,1,1,1,1,1,1,1,1,1,1,1,1,1,1,1,1,1,1,1
    ,1,1,1,1,1,1,1,1,1,1,1,1,1,1,1,1,1,1,1,1,1,1,1,1,1,1,1,1,1,1,1,1,1,1
    ,1,1,1,1,1,1,1,1,1,1,1,1,4),(0.,3.159233315827E-02,0.126127641677,
    0.282890212044,0.500700943301,0.777938722846,1.112569592088,
    1.502183458955,1.944037795855,2.435107618685,2.972140904986,
    3.551718467479,4.170317150398,4.824375058558,5.510357363237,
    6.22482105707,6.964476859339,7.726246316305,8.507312020149,
    9.305158815793,10.117603917767,10.942814065413,11.779308247904,
    12.625945159643,13.481895400397,14.346599467173,15.219713700394,
    16.101047406627,16.990495227303,17.887969318829,18.79333597064,
    19.706360908267,20.626666781491,21.553705351718,22.486745816449,
    23.424879674266,24.367041632009,25.312045327298,26.258632078643,
    27.205530443372,28.151524003651,29.095524452807,30.036646667843,
    30.97428200267,31.90816553143,32.838432478224,33.765658721991,
    34.690880264476,35.615587136564,36.541688606193,37.47144881758,
    38.40739497001,39.35220337609,40.308571549473,41.27908618002,
    42.26609703508,43.271605483914,44.297173900333,45.343859306726,
    46.412171909608,47.50205706511,48.612897862152,49.743534867782,
    50.892299473402,52.05705751446,53.235260239708,54.424000158952,
    55.620069728711,56.820021209503,58.020226337158,59.216934697976,
    60.406329893993,61.584582741977,62.747900878805,63.892574255653,
    65.01501610061,66.111799018841,67.179685984329,68.2156560595,
    69.216924759504,70.180959056941,71.105487099969,71.988502791695,
    72.82826545065,73.623294840303,74.372361919197,75.074475721608,
    75.72886683094,76.33496795381,76.892392141206,77.400909233788,
    77.860421130636,78.270936493964,78.632545505855,78.945395286221,
    79.209666563293,79.425552158553,79.593237806893,79.712885781408,
    79.784621741437,79.808525396187),.UNSPECIFIED.);
#24 = CARTESIAN_POINT('',(0.,7.8125,0.));
#25 = CARTESIAN_POINT('',(1.547105992028E-04,7.82303110995,0.));
#26 = CARTESIAN_POINT('',(1.191979362075E-03,7.865061032628,0.));
#27 = CARTESIAN_POINT('',(7.108939347538E-03,7.959203988696,0.));
#28 = CARTESIAN_POINT('',(2.195499808511E-02,8.114890787801,0.));
#29 = CARTESIAN_POINT('',(5.066512858765E-02,8.330313206011,0.));
#30 = CARTESIAN_POINT('',(9.735749620075E-02,8.60296714797,0.));
#31 = CARTESIAN_POINT('',(0.166299564797,8.929685358598,0.));
#32 = CARTESIAN_POINT('',(0.261413897458,9.306673534267,0.));
#33 = CARTESIAN_POINT('',(0.386412378009,9.729555494962,0.));
#34 = CARTESIAN_POINT('',(0.544696625723,10.193424300019,0.));
#35 = CARTESIAN_POINT('',(0.739344676819,10.692899534813,0.));
#36 = CARTESIAN_POINT('',(0.973072723795,11.222189659796,0.));
#37 = CARTESIAN_POINT('',(1.248209104982,11.775158679729,0.));
#38 = CARTESIAN_POINT('',(1.566668890084,12.345396199323,0.));
#39 = CARTESIAN_POINT('',(1.929932914878,12.926289946006,0.));
#40 = CARTESIAN_POINT('',(2.339030257558,13.511099816965,0.));
#41 = CARTESIAN_POINT('',(2.794524571081,14.0930325255,0.));
#42 = CARTESIAN_POINT('',(3.296504217936,14.665315957281,0.));
#43 = CARTESIAN_POINT('',(3.844576265872,15.22127240459,0.));
#44 = CARTESIAN_POINT('',(4.437864373792,15.754389915906,0.));
#45 = CARTESIAN_POINT('',(5.075010643442,16.258391066295,0.));
#46 = CARTESIAN_POINT('',(5.75418157031,16.727298502181,0.));
#47 = CARTESIAN_POINT('',(6.47307829936,17.155496622964,0.));
#48 = CARTESIAN_POINT('',(7.228951444866,17.537788719557,0.));
#49 = CARTESIAN_POINT('',(8.018620733011,17.869448801529,0.));
#50 = CARTESIAN_POINT('',(8.838499636269,18.146267240129,0.));
#51 = CARTESIAN_POINT('',(9.684624976134,18.364589286384,0.));
#52 = CARTESIAN_POINT('',(10.552691197204,18.521345551065,0.));
#53 = CARTESIAN_POINT('',(11.438088719858,18.614073696948,0.));
#54 = CARTESIAN_POINT('',(12.335945539548,18.640930891575,0.));
#55 = CARTESIAN_POINT('',(13.241171124384,18.600696950255,0.));
#56 = CARTESIAN_POINT('',(14.14850169449,18.492768483033,0.));
#57 = CARTESIAN_POINT('',(15.052546120225,18.317144667302,0.));
#58 = CARTESIAN_POINT('',(15.947831889068,18.074405454028,0.));
#59 = CARTESIAN_POINT('',(16.828850792699,17.765683080069,0.));
#60 = CARTESIAN_POINT('',(17.690104126214,17.392627737077,0.));
#61 = CARTESIAN_POINT('',(18.526147252526,16.957368188901,0.));
#62 = CARTESIAN_POINT('',(19.331633377737,16.462468077729,0.));
#63 = CARTESIAN_POINT('',(20.10135633559,15.910878640597,0.));
#64 = CARTESIAN_POINT('',(20.830292122985,15.305888579607,0.));
#65 = CARTESIAN_POINT('',(21.51363889238,14.651071883494,0.));
#66 = CARTESIAN_POINT('',(22.146855111594,13.950234467623,0.));
#67 = CARTESIAN_POINT('',(22.725695660214,13.207360559262,0.));
#68 = CARTESIAN_POINT('',(23.246245747591,12.426559773239,0.));
#69 = CARTESIAN_POINT('',(23.704952697521,11.612015762092,0.));
#70 = CARTESIAN_POINT('',(24.098655811574,10.767937146799,0.));
#71 = CARTESIAN_POINT('',(24.424614625411,9.898511118895,0.));
#72 = CARTESIAN_POINT('',(24.680535811196,9.007859679817,0.));
#73 = CARTESIAN_POINT('',(24.864598660829,8.099998055409,0.));
#74 = CARTESIAN_POINT('',(24.975478490499,7.178794583066,0.));
#75 = CARTESIAN_POINT('',(25.012366570597,6.247931529024,0.));
#76 = CARTESIAN_POINT('',(24.974984610532,5.310866954718,0.));
#77 = CARTESIAN_POINT('',(24.863591778675,4.370798763782,0.));
#78 = CARTESIAN_POINT('',(24.678982909684,3.430633008729,0.));
#79 = CARTESIAN_POINT('',(24.422477783086,2.492958930016,0.));
#80 = CARTESIAN_POINT('',(24.095902659415,1.560032784533,0.));
#81 = CARTESIAN_POINT('',(23.701566095712,0.633771453526,0.));
#82 = CARTESIAN_POINT('',(23.24223116355,-0.284244431649,0.));
#83 = CARTESIAN_POINT('',(22.721085677424,-1.192759068086,0.));
#84 = CARTESIAN_POINT('',(22.14171126537,-2.090823420674,0.));
#85 = CARTESIAN_POINT('',(21.50805142804,-2.977772135792,0.));
#86 = CARTESIAN_POINT('',(20.824378324954,-3.853196731454,0.));
#87 = CARTESIAN_POINT('',(20.095257909467,-4.716916000412,0.));
#88 = CARTESIAN_POINT('',(19.325513118275,-5.56894427624,0.));
#89 = CARTESIAN_POINT('',(18.520184998547,-6.409458047926,0.));
#90 = CARTESIAN_POINT('',(17.684491844496,-7.238761350229,0.));
#91 = CARTESIAN_POINT('',(16.823786571999,-8.057250366676,0.));
#92 = CARTESIAN_POINT('',(15.943512671138,-8.865377722446,0.));
#93 = CARTESIAN_POINT('',(15.049159145328,-9.663616988605,0.));
#94 = CARTESIAN_POINT('',(14.146214881653,-10.45242795202,0.));
#95 = CARTESIAN_POINT('',(13.240122910279,-11.23222322006,0.));
#96 = CARTESIAN_POINT('',(12.336235009329,-12.00333672419,0.));
#97 = CARTESIAN_POINT('',(11.439767101143,-12.765994664,0.));
#98 = CARTESIAN_POINT('',(10.555755869818,-13.52028939386,0.));
#99 = CARTESIAN_POINT('',(9.689017010276,-14.26615670338,0.));
#100 = CARTESIAN_POINT('',(8.844105496918,-15.00335688036,0.));
#101 = CARTESIAN_POINT('',(8.025278235593,-15.73145987497,0.));
#102 = CARTESIAN_POINT('',(7.236459436398,-16.44983480804,0.));
#103 = CARTESIAN_POINT('',(6.481209016725,-17.15764398639,0.));
#104 = CARTESIAN_POINT('',(5.762694314153,-17.85384150607,0.));
#105 = CARTESIAN_POINT('',(5.083665357286,-18.53717644157,0.));
#106 = CARTESIAN_POINT('',(4.446433909648,-19.20620053759,0.));
#107 = CARTESIAN_POINT('',(3.852856467426,-19.85928024027,0.));
#108 = CARTESIAN_POINT('',(3.30432135654,-20.4946128294,0.));
#109 = CARTESIAN_POINT('',(2.801740038498,-21.1102463423,0.));
#110 = CARTESIAN_POINT('',(2.345542697608,-21.70410291524,0.));
#111 = CARTESIAN_POINT('',(1.935678146847,-22.27400511057,0.));
#112 = CARTESIAN_POINT('',(1.571618048701,-22.81770474763,0.));
#113 = CARTESIAN_POINT('',(1.252365426697,-23.33291371379,0.));
#114 = CARTESIAN_POINT('',(0.976467356941,-23.81733619916,0.));
#115 = CARTESIAN_POINT('',(0.742031864359,-24.2687017743,0.));
#116 = CARTESIAN_POINT('',(0.546748459904,-24.68479871791,0.));
#117 = CARTESIAN_POINT('',(0.387913519085,-25.06350698973,0.));
#118 = CARTESIAN_POINT('',(0.262455958119,-25.40283027056,0.));
#119 = CARTESIAN_POINT('',(0.166976499871,-25.70092643707,0.));
#120 = CARTESIAN_POINT('',(9.775929083269E-02,-25.95613607234,0.));
#121 = CARTESIAN_POINT('',(5.087623550212E-02,-26.16700802703,0.));
#122 = CARTESIAN_POINT('',(2.204470335484E-02,-26.33232285516,0.));
#123 = CARTESIAN_POINT('',(7.137514163855E-03,-26.45111026092,0.));
#124 = CARTESIAN_POINT('',(1.194702695311E-03,-26.52266856842,0.));
#125 = CARTESIAN_POINT('',(1.55160119405E-04,-26.55453167356,-0.));
#126 = CARTESIAN_POINT('',(4.591690043317E-47,-26.5625,0.));
#127 = AXIS1_PLACEMENT('',#128,#129);
#128 = CARTESIAN_POINT('',(0.,0.,0.));
#129 = DIRECTION('',(0.,1.,0.));
#130 = ( GEOMETRIC_REPRESENTATION_CONTEXT(3) 
GLOBAL_UNCERTAINTY_ASSIGNED_CONTEXT((#134)) GLOBAL_UNIT_ASSIGNED_CONTEXT
((#131,#132,#133)) REPRESENTATION_CONTEXT('Context #1',
  '3D Context with UNIT and UNCERTAINTY') );
#131 = ( LENGTH_UNIT() NAMED_UNIT(*) SI_UNIT(.MILLI.,.METRE.) );
#132 = ( NAMED_UNIT(*) PLANE_ANGLE_UNIT() SI_UNIT($,.RADIAN.) );
#133 = ( NAMED_UNIT(*) SI_UNIT($,.STERADIAN.) SOLID_ANGLE_UNIT() );
#134 = UNCERTAINTY_MEASURE_WITH_UNIT(LENGTH_MEASURE(1.E-07),#131,
  'distance_accuracy_value','confusion accuracy');
#135 = PRODUCT_RELATED_PRODUCT_CATEGORY('part',$,(#7));
ENDSEC;
END-ISO-10303-21;
