ISO-10303-21;
HEADER;
FILE_DESCRIPTION(('Open CASCADE Model'),'2;1');
FILE_NAME('Open CASCADE Shape Model','2026-03-19T00:28:15',('Author'),(
    'Open CASCADE'),'Open CASCADE STEP processor 7.8','Open CASCADE 7.8'
  ,'Unknown');
FILE_SCHEMA(('AUTOMOTIVE_DESIGN { 1 0 10303 214 1 1 1 1 }'));
ENDSEC;
DATA;
#1 = APPLICATION_PROTOCOL_DEFINITION('international standard',
  'automotive_design',2000,#2);
#2 = APPLICATION_CONTEXT(
  'core data for automotive mechanical design processes');
#3 = SHAPE_DEFINITION_REPRESENTATION(#4,#10);
#4 = PRODUCT_DEFINITION_SHAPE('','',#5);
#5 = PRODUCT_DEFINITION('design','',#6,#9);
#6 = PRODUCT_DEFINITION_FORMATION('','',#7);
#7 = PRODUCT('Open CASCADE STEP translator 7.8 1',
  'Open CASCADE STEP translator 7.8 1','',(#8));
#8 = PRODUCT_CONTEXT('',#2,'mechanical');
#9 = PRODUCT_DEFINITION_CONTEXT('part definition',#2,'design');
#10 = SHAPE_REPRESENTATION('',(#11,#15,#19),#23);
#11 = AXIS2_PLACEMENT_3D('',#12,#13,#14);
#12 = CARTESIAN_POINT('',(0.,0.,0.));
#13 = DIRECTION('',(0.,0.,1.));
#14 = DIRECTION('',(1.,0.,-0.));
#15 = AXIS2_PLACEMENT_3D('',#16,#17,#18);
#16 = CARTESIAN_POINT('',(0.,0.,0.));
#17 = DIRECTION('',(0.,0.,1.));
#18 = DIRECTION('',(1.,0.,-0.));
#19 = AXIS2_PLACEMENT_3D('',#20,#21,#22);
#20 = CARTESIAN_POINT('',(0.,0.,0.));
#21 = DIRECTION('',(0.,0.,1.));
#22 = DIRECTION('',(1.,0.,-0.));
#23 = ( GEOMETRIC_REPRESENTATION_CONTEXT(3) 
GLOBAL_UNCERTAINTY_ASSIGNED_CONTEXT((#27)) GLOBAL_UNIT_ASSIGNED_CONTEXT(
(#24,#25,#26)) REPRESENTATION_CONTEXT('Context #1',
  '3D Context with UNIT and UNCERTAINTY') );
#24 = ( LENGTH_UNIT() NAMED_UNIT(*) SI_UNIT(.MILLI.,.METRE.) );
#25 = ( NAMED_UNIT(*) PLANE_ANGLE_UNIT() SI_UNIT($,.RADIAN.) );
#26 = ( NAMED_UNIT(*) SI_UNIT($,.STERADIAN.) SOLID_ANGLE_UNIT() );
#27 = UNCERTAINTY_MEASURE_WITH_UNIT(LENGTH_MEASURE(1.E-07),#24,
  'distance_accuracy_value','confusion accuracy');
#28 = PRODUCT_RELATED_PRODUCT_CATEGORY('part',$,(#7));
#29 = SHAPE_DEFINITION_REPRESENTATION(#30,#36);
#30 = PRODUCT_DEFINITION_SHAPE('','',#31);
#31 = PRODUCT_DEFINITION('design','',#32,#35);
#32 = PRODUCT_DEFINITION_FORMATION('','',#33);
#33 = PRODUCT('Open CASCADE STEP translator 7.8 1.1',
  'Open CASCADE STEP translator 7.8 1.1','',(#34));
#34 = PRODUCT_CONTEXT('',#2,'mechanical');
#35 = PRODUCT_DEFINITION_CONTEXT('part definition',#2,'design');
#36 = ADVANCED_BREP_SHAPE_REPRESENTATION('',(#11,#37),#1356);
#37 = MANIFOLD_SOLID_BREP('',#38);
#38 = CLOSED_SHELL('',(#39,#706,#906,#1011,#1060,#1133,#1182,#1208,#1256
    ,#1283,#1289,#1316,#1322,#1349));
#39 = ADVANCED_FACE('',(#40),#55,.T.);
#40 = FACE_BOUND('',#41,.T.);
#41 = EDGE_LOOP('',(#42,#132,#156,#157,#235,#264,#296,#374,#406,#435,
    #513,#537,#538,#616,#645,#679));
#42 = ORIENTED_EDGE('',*,*,#43,.F.);
#43 = EDGE_CURVE('',#44,#46,#48,.T.);
#44 = VERTEX_POINT('',#45);
#45 = CARTESIAN_POINT('',(0.,3.,2.5));
#46 = VERTEX_POINT('',#47);
#47 = CARTESIAN_POINT('',(0.,1.5,2.));
#48 = SURFACE_CURVE('',#49,(#54,#93),.PCURVE_S1.);
#49 = CIRCLE('',#50,2.5);
#50 = AXIS2_PLACEMENT_3D('',#51,#52,#53);
#51 = CARTESIAN_POINT('',(0.,3.,0.));
#52 = DIRECTION('',(1.,0.,0.));
#53 = DIRECTION('',(-0.,0.,1.));
#54 = PCURVE('',#55,#60);
#55 = SPHERICAL_SURFACE('',#56,6.5);
#56 = AXIS2_PLACEMENT_3D('',#57,#58,#59);
#57 = CARTESIAN_POINT('',(-6.,3.,0.));
#58 = DIRECTION('',(0.,0.,1.));
#59 = DIRECTION('',(1.,0.,0.));
#60 = DEFINITIONAL_REPRESENTATION('',(#61),#92);
#61 = B_SPLINE_CURVE_WITH_KNOTS('',8,(#62,#63,#64,#65,#66,#67,#68,#69,
    #70,#71,#72,#73,#74,#75,#76,#77,#78,#79,#80,#81,#82,#83,#84,#85,#86,
    #87,#88,#89,#90,#91),.UNSPECIFIED.,.F.,.F.,(9,7,7,7,9),(0.,
    0.785398163397,1.963495408494,2.552544031042,3.14159265359),
  .UNSPECIFIED.);
#62 = CARTESIAN_POINT('',(6.28318530718,0.3947911197));
#63 = CARTESIAN_POINT('',(6.242279152836,0.3947911197));
#64 = CARTESIAN_POINT('',(6.20137301621,0.390201442639));
#65 = CARTESIAN_POINT('',(6.161276144271,0.381022247273));
#66 = CARTESIAN_POINT('',(6.122798428734,0.367396358967));
#67 = CARTESIAN_POINT('',(6.086652193032,0.349612853961));
#68 = CARTESIAN_POINT('',(6.053356959191,0.328060773892));
#69 = CARTESIAN_POINT('',(6.02327908529,0.303179355364));
#70 = CARTESIAN_POINT('',(5.956742300074,0.233814778937));
#71 = CARTESIAN_POINT('',(5.924612195061,0.185751112832));
#72 = CARTESIAN_POINT('',(5.901106395486,0.132810809803));
#73 = CARTESIAN_POINT('',(5.886443570251,7.669140289732E-02));
#74 = CARTESIAN_POINT('',(5.880566358484,1.900208097675E-02));
#75 = CARTESIAN_POINT('',(5.883496343172,-3.870243113128E-02));
#76 = CARTESIAN_POINT('',(5.895269527284,-9.481854813032E-02));
#77 = CARTESIAN_POINT('',(5.925945507631,-0.174174650035));
#78 = CARTESIAN_POINT('',(5.938340305044,-0.199823677494));
#79 = CARTESIAN_POINT('',(5.952883042756,-0.224466673696));
#80 = CARTESIAN_POINT('',(5.969540954206,-0.247899518509));
#81 = CARTESIAN_POINT('',(5.988259473584,-0.269917383812));
#82 = CARTESIAN_POINT('',(6.008952398278,-0.290318115207));
#83 = CARTESIAN_POINT('',(6.031492776792,-0.308908608072));
#84 = CARTESIAN_POINT('',(6.079916267479,-0.342119747823));
#85 = CARTESIAN_POINT('',(6.105799473074,-0.35674026303));
#86 = CARTESIAN_POINT('',(6.133179114591,-0.369201649278));
#87 = CARTESIAN_POINT('',(6.161832884965,-0.379346382099));
#88 = CARTESIAN_POINT('',(6.191487588908,-0.387045852636));
#89 = CARTESIAN_POINT('',(6.221826215863,-0.392209558497));
#90 = CARTESIAN_POINT('',(6.252505691422,-0.3947911197));
#91 = CARTESIAN_POINT('',(6.28318530718,-0.3947911197));
#92 = ( GEOMETRIC_REPRESENTATION_CONTEXT(2) 
PARAMETRIC_REPRESENTATION_CONTEXT() REPRESENTATION_CONTEXT('2D SPACE',''
  ) );
#93 = PCURVE('',#94,#99);
#94 = SPHERICAL_SURFACE('',#95,6.5);
#95 = AXIS2_PLACEMENT_3D('',#96,#97,#98);
#96 = CARTESIAN_POINT('',(6.,3.,0.));
#97 = DIRECTION('',(0.,0.,1.));
#98 = DIRECTION('',(1.,0.,0.));
#99 = DEFINITIONAL_REPRESENTATION('',(#100),#131);
#100 = B_SPLINE_CURVE_WITH_KNOTS('',8,(#101,#102,#103,#104,#105,#106,
    #107,#108,#109,#110,#111,#112,#113,#114,#115,#116,#117,#118,#119,
    #120,#121,#122,#123,#124,#125,#126,#127,#128,#129,#130),
  .UNSPECIFIED.,.F.,.F.,(9,7,7,7,9),(0.,0.785398163397,1.963495408494,
    2.552544031042,3.14159265359),.UNSPECIFIED.);
#101 = CARTESIAN_POINT('',(3.14159265359,0.3947911197));
#102 = CARTESIAN_POINT('',(3.182498807933,0.3947911197));
#103 = CARTESIAN_POINT('',(3.223404944563,0.390201442639));
#104 = CARTESIAN_POINT('',(3.263501816469,0.381022247273));
#105 = CARTESIAN_POINT('',(3.301979532063,0.367396358967));
#106 = CARTESIAN_POINT('',(3.338125767716,0.349612853961));
#107 = CARTESIAN_POINT('',(3.371421001581,0.328060773892));
#108 = CARTESIAN_POINT('',(3.40149887548,0.303179355364));
#109 = CARTESIAN_POINT('',(3.468035660696,0.233814778937));
#110 = CARTESIAN_POINT('',(3.500165765704,0.185751112832));
#111 = CARTESIAN_POINT('',(3.523671565297,0.132810809803));
#112 = CARTESIAN_POINT('',(3.538334390509,7.669140289732E-02));
#113 = CARTESIAN_POINT('',(3.544211602299,1.900208097675E-02));
#114 = CARTESIAN_POINT('',(3.541281617594,-3.870243113128E-02));
#115 = CARTESIAN_POINT('',(3.529508433486,-9.481854813032E-02));
#116 = CARTESIAN_POINT('',(3.498832453138,-0.174174650035));
#117 = CARTESIAN_POINT('',(3.486437655726,-0.199823677494));
#118 = CARTESIAN_POINT('',(3.471894918014,-0.224466673696));
#119 = CARTESIAN_POINT('',(3.455237006563,-0.247899518509));
#120 = CARTESIAN_POINT('',(3.436518487185,-0.269917383812));
#121 = CARTESIAN_POINT('',(3.415825562492,-0.290318115207));
#122 = CARTESIAN_POINT('',(3.393285183978,-0.308908608072));
#123 = CARTESIAN_POINT('',(3.344861693291,-0.342119747823));
#124 = CARTESIAN_POINT('',(3.318978487695,-0.35674026303));
#125 = CARTESIAN_POINT('',(3.291598846178,-0.369201649278));
#126 = CARTESIAN_POINT('',(3.262945075804,-0.379346382099));
#127 = CARTESIAN_POINT('',(3.233290371862,-0.387045852636));
#128 = CARTESIAN_POINT('',(3.202951744906,-0.392209558497));
#129 = CARTESIAN_POINT('',(3.172272269348,-0.3947911197));
#130 = CARTESIAN_POINT('',(3.14159265359,-0.3947911197));
#131 = ( GEOMETRIC_REPRESENTATION_CONTEXT(2) 
PARAMETRIC_REPRESENTATION_CONTEXT() REPRESENTATION_CONTEXT('2D SPACE',''
  ) );
#132 = ORIENTED_EDGE('',*,*,#133,.T.);
#133 = EDGE_CURVE('',#44,#134,#136,.T.);
#134 = VERTEX_POINT('',#135);
#135 = CARTESIAN_POINT('',(-6.,3.,6.5));
#136 = SEAM_CURVE('',#137,(#142,#149),.PCURVE_S1.);
#137 = CIRCLE('',#138,6.5);
#138 = AXIS2_PLACEMENT_3D('',#139,#140,#141);
#139 = CARTESIAN_POINT('',(-6.,3.,0.));
#140 = DIRECTION('',(-2.449293598295E-16,-1.,0.));
#141 = DIRECTION('',(1.,-2.449293598295E-16,0.));
#142 = PCURVE('',#55,#143);
#143 = DEFINITIONAL_REPRESENTATION('',(#144),#148);
#144 = LINE('',#145,#146);
#145 = CARTESIAN_POINT('',(0.,-6.28318530718));
#146 = VECTOR('',#147,1.);
#147 = DIRECTION('',(0.,1.));
#148 = ( GEOMETRIC_REPRESENTATION_CONTEXT(2) 
PARAMETRIC_REPRESENTATION_CONTEXT() REPRESENTATION_CONTEXT('2D SPACE',''
  ) );
#149 = PCURVE('',#55,#150);
#150 = DEFINITIONAL_REPRESENTATION('',(#151),#155);
#151 = LINE('',#152,#153);
#152 = CARTESIAN_POINT('',(6.28318530718,-6.28318530718));
#153 = VECTOR('',#154,1.);
#154 = DIRECTION('',(0.,1.));
#155 = ( GEOMETRIC_REPRESENTATION_CONTEXT(2) 
PARAMETRIC_REPRESENTATION_CONTEXT() REPRESENTATION_CONTEXT('2D SPACE',''
  ) );
#156 = ORIENTED_EDGE('',*,*,#133,.F.);
#157 = ORIENTED_EDGE('',*,*,#158,.F.);
#158 = EDGE_CURVE('',#159,#44,#161,.T.);
#159 = VERTEX_POINT('',#160);
#160 = CARTESIAN_POINT('',(0.,4.5,2.));
#161 = SURFACE_CURVE('',#162,(#167,#201),.PCURVE_S1.);
#162 = CIRCLE('',#163,2.5);
#163 = AXIS2_PLACEMENT_3D('',#164,#165,#166);
#164 = CARTESIAN_POINT('',(0.,3.,0.));
#165 = DIRECTION('',(1.,0.,0.));
#166 = DIRECTION('',(-0.,0.,1.));
#167 = PCURVE('',#55,#168);
#168 = DEFINITIONAL_REPRESENTATION('',(#169),#200);
#169 = B_SPLINE_CURVE_WITH_KNOTS('',8,(#170,#171,#172,#173,#174,#175,
    #176,#177,#178,#179,#180,#181,#182,#183,#184,#185,#186,#187,#188,
    #189,#190,#191,#192,#193,#194,#195,#196,#197,#198,#199),
  .UNSPECIFIED.,.F.,.F.,(9,7,7,7,9),(3.14159265359,3.926990816987,
    5.105088062083,5.694136684632,6.28318530718),.UNSPECIFIED.);
#170 = CARTESIAN_POINT('',(0.,-0.3947911197));
#171 = CARTESIAN_POINT('',(4.090615434362E-02,-0.3947911197));
#172 = CARTESIAN_POINT('',(8.181229096988E-02,-0.390201442638));
#173 = CARTESIAN_POINT('',(0.121909162909,-0.381022247276));
#174 = CARTESIAN_POINT('',(0.160386878445,-0.367396358964));
#175 = CARTESIAN_POINT('',(0.196533114148,-0.349612853963));
#176 = CARTESIAN_POINT('',(0.229828347988,-0.328060773891));
#177 = CARTESIAN_POINT('',(0.25990622189,-0.303179355364));
#178 = CARTESIAN_POINT('',(0.326443007106,-0.233814778937));
#179 = CARTESIAN_POINT('',(0.358573112119,-0.185751112832));
#180 = CARTESIAN_POINT('',(0.382078911693,-0.132810809803));
#181 = CARTESIAN_POINT('',(0.396741736932,-7.66914028971E-02));
#182 = CARTESIAN_POINT('',(0.402618948694,-1.900208097712E-02));
#183 = CARTESIAN_POINT('',(0.399688964009,3.870243113133E-02));
#184 = CARTESIAN_POINT('',(0.387915779896,9.481854813032E-02));
#185 = CARTESIAN_POINT('',(0.357239799549,0.174174650035));
#186 = CARTESIAN_POINT('',(0.344845002136,0.199823677494));
#187 = CARTESIAN_POINT('',(0.330302264424,0.224466673696));
#188 = CARTESIAN_POINT('',(0.313644352973,0.247899518509));
#189 = CARTESIAN_POINT('',(0.294925833595,0.269917383812));
#190 = CARTESIAN_POINT('',(0.274232908902,0.290318115207));
#191 = CARTESIAN_POINT('',(0.251692530388,0.308908608072));
#192 = CARTESIAN_POINT('',(0.203269039701,0.342119747823));
#193 = CARTESIAN_POINT('',(0.177385834105,0.35674026303));
#194 = CARTESIAN_POINT('',(0.150006192588,0.369201649278));
#195 = CARTESIAN_POINT('',(0.121352422214,0.379346382099));
#196 = CARTESIAN_POINT('',(9.16977182719E-02,0.387045852636));
#197 = CARTESIAN_POINT('',(6.135909131638E-02,0.392209558497));
#198 = CARTESIAN_POINT('',(3.067961575771E-02,0.3947911197));
#199 = CARTESIAN_POINT('',(7.401486830834E-17,0.3947911197));
#200 = ( GEOMETRIC_REPRESENTATION_CONTEXT(2) 
PARAMETRIC_REPRESENTATION_CONTEXT() REPRESENTATION_CONTEXT('2D SPACE',''
  ) );
#201 = PCURVE('',#94,#202);
#202 = DEFINITIONAL_REPRESENTATION('',(#203),#234);
#203 = B_SPLINE_CURVE_WITH_KNOTS('',8,(#204,#205,#206,#207,#208,#209,
    #210,#211,#212,#213,#214,#215,#216,#217,#218,#219,#220,#221,#222,
    #223,#224,#225,#226,#227,#228,#229,#230,#231,#232,#233),
  .UNSPECIFIED.,.F.,.F.,(9,7,7,7,9),(3.14159265359,3.926990816987,
    5.105088062083,5.694136684631,6.28318530718),.UNSPECIFIED.);
#204 = CARTESIAN_POINT('',(3.14159265359,-0.3947911197));
#205 = CARTESIAN_POINT('',(3.100686499246,-0.3947911197));
#206 = CARTESIAN_POINT('',(3.059780362616,-0.390201442638));
#207 = CARTESIAN_POINT('',(3.019683490678,-0.381022247276));
#208 = CARTESIAN_POINT('',(2.981205775126,-0.367396358964));
#209 = CARTESIAN_POINT('',(2.945059539441,-0.349612853963));
#210 = CARTESIAN_POINT('',(2.911764305599,-0.328060773891));
#211 = CARTESIAN_POINT('',(2.8816864317,-0.303179355364));
#212 = CARTESIAN_POINT('',(2.815149646484,-0.233814778937));
#213 = CARTESIAN_POINT('',(2.783019541466,-0.185751112832));
#214 = CARTESIAN_POINT('',(2.759513741905,-0.132810809803));
#215 = CARTESIAN_POINT('',(2.744850916632,-7.66914028971E-02));
#216 = CARTESIAN_POINT('',(2.738973704905,-1.900208097712E-02));
#217 = CARTESIAN_POINT('',(2.741903689578,3.870243113133E-02));
#218 = CARTESIAN_POINT('',(2.753676873694,9.481854813032E-02));
#219 = CARTESIAN_POINT('',(2.784352854041,0.174174650035));
#220 = CARTESIAN_POINT('',(2.796747651454,0.199823677494));
#221 = CARTESIAN_POINT('',(2.811290389166,0.224466673696));
#222 = CARTESIAN_POINT('',(2.827948300616,0.247899518509));
#223 = CARTESIAN_POINT('',(2.846666819994,0.269917383812));
#224 = CARTESIAN_POINT('',(2.867359744688,0.290318115207));
#225 = CARTESIAN_POINT('',(2.889900123202,0.308908608072));
#226 = CARTESIAN_POINT('',(2.938323613889,0.342119747823));
#227 = CARTESIAN_POINT('',(2.964206819485,0.35674026303));
#228 = CARTESIAN_POINT('',(2.991586461002,0.369201649278));
#229 = CARTESIAN_POINT('',(3.020240231376,0.379346382099));
#230 = CARTESIAN_POINT('',(3.049894935318,0.387045852636));
#231 = CARTESIAN_POINT('',(3.080233562273,0.392209558497));
#232 = CARTESIAN_POINT('',(3.110913037832,0.3947911197));
#233 = CARTESIAN_POINT('',(3.14159265359,0.3947911197));
#234 = ( GEOMETRIC_REPRESENTATION_CONTEXT(2) 
PARAMETRIC_REPRESENTATION_CONTEXT() REPRESENTATION_CONTEXT('2D SPACE',''
  ) );
#235 = ORIENTED_EDGE('',*,*,#236,.T.);
#236 = EDGE_CURVE('',#159,#237,#239,.T.);
#237 = VERTEX_POINT('',#238);
#238 = CARTESIAN_POINT('',(-2.183118647192E-02,4.584770531326,2.));
#239 = SURFACE_CURVE('',#240,(#245,#252),.PCURVE_S1.);
#240 = CIRCLE('',#241,6.184658438426);
#241 = AXIS2_PLACEMENT_3D('',#242,#243,#244);
#242 = CARTESIAN_POINT('',(-6.,3.,2.));
#243 = DIRECTION('',(0.,0.,1.));
#244 = DIRECTION('',(1.,0.,-0.));
#245 = PCURVE('',#55,#246);
#246 = DEFINITIONAL_REPRESENTATION('',(#247),#251);
#247 = LINE('',#248,#249);
#248 = CARTESIAN_POINT('',(0.,0.312766721942));
#249 = VECTOR('',#250,1.);
#250 = DIRECTION('',(1.,0.));
#251 = ( GEOMETRIC_REPRESENTATION_CONTEXT(2) 
PARAMETRIC_REPRESENTATION_CONTEXT() REPRESENTATION_CONTEXT('2D SPACE',''
  ) );
#252 = PCURVE('',#253,#258);
#253 = PLANE('',#254);
#254 = AXIS2_PLACEMENT_3D('',#255,#256,#257);
#255 = CARTESIAN_POINT('',(-8.881784197001E-16,-16.60660171779,2.));
#256 = DIRECTION('',(0.,0.,1.));
#257 = DIRECTION('',(0.707106781187,0.707106781187,0.));
#258 = DEFINITIONAL_REPRESENTATION('',(#259),#263);
#259 = CIRCLE('',#260,6.184658438426);
#260 = AXIS2_PLACEMENT_2D('',#261,#262);
#261 = CARTESIAN_POINT('',(9.62132034356,18.106601717798));
#262 = DIRECTION('',(0.707106781187,-0.707106781187));
#263 = ( GEOMETRIC_REPRESENTATION_CONTEXT(2) 
PARAMETRIC_REPRESENTATION_CONTEXT() REPRESENTATION_CONTEXT('2D SPACE',''
  ) );
#264 = ORIENTED_EDGE('',*,*,#265,.T.);
#265 = EDGE_CURVE('',#237,#266,#268,.T.);
#266 = VERTEX_POINT('',#267);
#267 = CARTESIAN_POINT('',(4.440892098501E-16,4.606601717798,
    1.915419254463));
#268 = SURFACE_CURVE('',#269,(#274,#284),.PCURVE_S1.);
#269 = CIRCLE('',#270,5.709555654074);
#270 = AXIS2_PLACEMENT_3D('',#271,#272,#273);
#271 = CARTESIAN_POINT('',(-3.803300858899,0.803300858899,0.));
#272 = DIRECTION('',(-0.707106781187,0.707106781187,0.));
#273 = DIRECTION('',(-0.707106781187,-0.707106781187,0.));
#274 = PCURVE('',#55,#275);
#275 = DEFINITIONAL_REPRESENTATION('',(#276),#283);
#276 = B_SPLINE_CURVE_WITH_KNOTS('',5,(#277,#278,#279,#280,#281,#282),
  .UNSPECIFIED.,.F.,.F.,(6,6),(2.783711997696,2.799482119937),
  .PIECEWISE_BEZIER_KNOTS.);
#277 = CARTESIAN_POINT('',(0.259132598915,0.312766721942));
#278 = CARTESIAN_POINT('',(0.25964492821,0.310039471912));
#279 = CARTESIAN_POINT('',(0.260150726949,0.307311207284));
#280 = CARTESIAN_POINT('',(0.260650036567,0.304581946792));
#281 = CARTESIAN_POINT('',(0.26114289732,0.301851708896));
#282 = CARTESIAN_POINT('',(0.261629348318,0.299120511794));
#283 = ( GEOMETRIC_REPRESENTATION_CONTEXT(2) 
PARAMETRIC_REPRESENTATION_CONTEXT() REPRESENTATION_CONTEXT('2D SPACE',''
  ) );
#284 = PCURVE('',#285,#290);
#285 = PLANE('',#286);
#286 = AXIS2_PLACEMENT_3D('',#287,#288,#289);
#287 = CARTESIAN_POINT('',(-10.60660171779,-6.,-2.));
#288 = DIRECTION('',(-0.707106781187,0.707106781187,0.));
#289 = DIRECTION('',(0.,0.,1.));
#290 = DEFINITIONAL_REPRESENTATION('',(#291),#295);
#291 = CIRCLE('',#292,5.709555654074);
#292 = AXIS2_PLACEMENT_2D('',#293,#294);
#293 = CARTESIAN_POINT('',(2.,9.62132034356));
#294 = DIRECTION('',(0.,-1.));
#295 = ( GEOMETRIC_REPRESENTATION_CONTEXT(2) 
PARAMETRIC_REPRESENTATION_CONTEXT() REPRESENTATION_CONTEXT('2D SPACE',''
  ) );
#296 = ORIENTED_EDGE('',*,*,#297,.F.);
#297 = EDGE_CURVE('',#298,#266,#300,.T.);
#298 = VERTEX_POINT('',#299);
#299 = CARTESIAN_POINT('',(4.440892098501E-16,4.606601717798,
    -1.915419254463));
#300 = SURFACE_CURVE('',#301,(#306,#340),.PCURVE_S1.);
#301 = CIRCLE('',#302,2.5);
#302 = AXIS2_PLACEMENT_3D('',#303,#304,#305);
#303 = CARTESIAN_POINT('',(0.,3.,0.));
#304 = DIRECTION('',(1.,0.,0.));
#305 = DIRECTION('',(-0.,0.,1.));
#306 = PCURVE('',#55,#307);
#307 = DEFINITIONAL_REPRESENTATION('',(#308),#339);
#308 = B_SPLINE_CURVE_WITH_KNOTS('',8,(#309,#310,#311,#312,#313,#314,
    #315,#316,#317,#318,#319,#320,#321,#322,#323,#324,#325,#326,#327,
    #328,#329,#330,#331,#332,#333,#334,#335,#336,#337,#338),
  .UNSPECIFIED.,.F.,.F.,(9,7,7,7,9),(3.14159265359,3.926990816987,
    5.105088062083,5.694136684632,6.28318530718),.UNSPECIFIED.);
#309 = CARTESIAN_POINT('',(0.,-0.3947911197));
#310 = CARTESIAN_POINT('',(4.090615434362E-02,-0.3947911197));
#311 = CARTESIAN_POINT('',(8.181229096988E-02,-0.390201442638));
#312 = CARTESIAN_POINT('',(0.121909162909,-0.381022247276));
#313 = CARTESIAN_POINT('',(0.160386878445,-0.367396358964));
#314 = CARTESIAN_POINT('',(0.196533114148,-0.349612853963));
#315 = CARTESIAN_POINT('',(0.229828347988,-0.328060773891));
#316 = CARTESIAN_POINT('',(0.25990622189,-0.303179355364));
#317 = CARTESIAN_POINT('',(0.326443007106,-0.233814778937));
#318 = CARTESIAN_POINT('',(0.358573112119,-0.185751112832));
#319 = CARTESIAN_POINT('',(0.382078911693,-0.132810809803));
#320 = CARTESIAN_POINT('',(0.396741736932,-7.66914028971E-02));
#321 = CARTESIAN_POINT('',(0.402618948694,-1.900208097712E-02));
#322 = CARTESIAN_POINT('',(0.399688964009,3.870243113133E-02));
#323 = CARTESIAN_POINT('',(0.387915779896,9.481854813032E-02));
#324 = CARTESIAN_POINT('',(0.357239799549,0.174174650035));
#325 = CARTESIAN_POINT('',(0.344845002136,0.199823677494));
#326 = CARTESIAN_POINT('',(0.330302264424,0.224466673696));
#327 = CARTESIAN_POINT('',(0.313644352973,0.247899518509));
#328 = CARTESIAN_POINT('',(0.294925833595,0.269917383812));
#329 = CARTESIAN_POINT('',(0.274232908902,0.290318115207));
#330 = CARTESIAN_POINT('',(0.251692530388,0.308908608072));
#331 = CARTESIAN_POINT('',(0.203269039701,0.342119747823));
#332 = CARTESIAN_POINT('',(0.177385834105,0.35674026303));
#333 = CARTESIAN_POINT('',(0.150006192588,0.369201649278));
#334 = CARTESIAN_POINT('',(0.121352422214,0.379346382099));
#335 = CARTESIAN_POINT('',(9.16977182719E-02,0.387045852636));
#336 = CARTESIAN_POINT('',(6.135909131638E-02,0.392209558497));
#337 = CARTESIAN_POINT('',(3.067961575771E-02,0.3947911197));
#338 = CARTESIAN_POINT('',(7.401486830834E-17,0.3947911197));
#339 = ( GEOMETRIC_REPRESENTATION_CONTEXT(2) 
PARAMETRIC_REPRESENTATION_CONTEXT() REPRESENTATION_CONTEXT('2D SPACE',''
  ) );
#340 = PCURVE('',#94,#341);
#341 = DEFINITIONAL_REPRESENTATION('',(#342),#373);
#342 = B_SPLINE_CURVE_WITH_KNOTS('',8,(#343,#344,#345,#346,#347,#348,
    #349,#350,#351,#352,#353,#354,#355,#356,#357,#358,#359,#360,#361,
    #362,#363,#364,#365,#366,#367,#368,#369,#370,#371,#372),
  .UNSPECIFIED.,.F.,.F.,(9,7,7,7,9),(3.14159265359,3.926990816987,
    5.105088062083,5.694136684631,6.28318530718),.UNSPECIFIED.);
#343 = CARTESIAN_POINT('',(3.14159265359,-0.3947911197));
#344 = CARTESIAN_POINT('',(3.100686499246,-0.3947911197));
#345 = CARTESIAN_POINT('',(3.059780362616,-0.390201442638));
#346 = CARTESIAN_POINT('',(3.019683490678,-0.381022247276));
#347 = CARTESIAN_POINT('',(2.981205775126,-0.367396358964));
#348 = CARTESIAN_POINT('',(2.945059539441,-0.349612853963));
#349 = CARTESIAN_POINT('',(2.911764305599,-0.328060773891));
#350 = CARTESIAN_POINT('',(2.8816864317,-0.303179355364));
#351 = CARTESIAN_POINT('',(2.815149646484,-0.233814778937));
#352 = CARTESIAN_POINT('',(2.783019541466,-0.185751112832));
#353 = CARTESIAN_POINT('',(2.759513741905,-0.132810809803));
#354 = CARTESIAN_POINT('',(2.744850916632,-7.66914028971E-02));
#355 = CARTESIAN_POINT('',(2.738973704905,-1.900208097712E-02));
#356 = CARTESIAN_POINT('',(2.741903689578,3.870243113133E-02));
#357 = CARTESIAN_POINT('',(2.753676873694,9.481854813032E-02));
#358 = CARTESIAN_POINT('',(2.784352854041,0.174174650035));
#359 = CARTESIAN_POINT('',(2.796747651454,0.199823677494));
#360 = CARTESIAN_POINT('',(2.811290389166,0.224466673696));
#361 = CARTESIAN_POINT('',(2.827948300616,0.247899518509));
#362 = CARTESIAN_POINT('',(2.846666819994,0.269917383812));
#363 = CARTESIAN_POINT('',(2.867359744688,0.290318115207));
#364 = CARTESIAN_POINT('',(2.889900123202,0.308908608072));
#365 = CARTESIAN_POINT('',(2.938323613889,0.342119747823));
#366 = CARTESIAN_POINT('',(2.964206819485,0.35674026303));
#367 = CARTESIAN_POINT('',(2.991586461002,0.369201649278));
#368 = CARTESIAN_POINT('',(3.020240231376,0.379346382099));
#369 = CARTESIAN_POINT('',(3.049894935318,0.387045852636));
#370 = CARTESIAN_POINT('',(3.080233562273,0.392209558497));
#371 = CARTESIAN_POINT('',(3.110913037832,0.3947911197));
#372 = CARTESIAN_POINT('',(3.14159265359,0.3947911197));
#373 = ( GEOMETRIC_REPRESENTATION_CONTEXT(2) 
PARAMETRIC_REPRESENTATION_CONTEXT() REPRESENTATION_CONTEXT('2D SPACE',''
  ) );
#374 = ORIENTED_EDGE('',*,*,#375,.T.);
#375 = EDGE_CURVE('',#298,#376,#378,.T.);
#376 = VERTEX_POINT('',#377);
#377 = CARTESIAN_POINT('',(-2.183118647192E-02,4.584770531326,-2.));
#378 = SURFACE_CURVE('',#379,(#384,#394),.PCURVE_S1.);
#379 = CIRCLE('',#380,5.709555654074);
#380 = AXIS2_PLACEMENT_3D('',#381,#382,#383);
#381 = CARTESIAN_POINT('',(-3.803300858899,0.803300858899,0.));
#382 = DIRECTION('',(-0.707106781187,0.707106781187,0.));
#383 = DIRECTION('',(-0.707106781187,-0.707106781187,0.));
#384 = PCURVE('',#55,#385);
#385 = DEFINITIONAL_REPRESENTATION('',(#386),#393);
#386 = B_SPLINE_CURVE_WITH_KNOTS('',5,(#387,#388,#389,#390,#391,#392),
  .UNSPECIFIED.,.F.,.F.,(6,6),(3.483703187243,3.499473309484),
  .PIECEWISE_BEZIER_KNOTS.);
#387 = CARTESIAN_POINT('',(0.261629348318,-0.299120511794));
#388 = CARTESIAN_POINT('',(0.26114289732,-0.301851708896));
#389 = CARTESIAN_POINT('',(0.260650036567,-0.304581946792));
#390 = CARTESIAN_POINT('',(0.260150726948,-0.307311207284));
#391 = CARTESIAN_POINT('',(0.25964492821,-0.310039471912));
#392 = CARTESIAN_POINT('',(0.259132598915,-0.312766721942));
#393 = ( GEOMETRIC_REPRESENTATION_CONTEXT(2) 
PARAMETRIC_REPRESENTATION_CONTEXT() REPRESENTATION_CONTEXT('2D SPACE',''
  ) );
#394 = PCURVE('',#395,#400);
#395 = PLANE('',#396);
#396 = AXIS2_PLACEMENT_3D('',#397,#398,#399);
#397 = CARTESIAN_POINT('',(-10.60660171779,-6.,-2.));
#398 = DIRECTION('',(-0.707106781187,0.707106781187,0.));
#399 = DIRECTION('',(0.,0.,1.));
#400 = DEFINITIONAL_REPRESENTATION('',(#401),#405);
#401 = CIRCLE('',#402,5.709555654074);
#402 = AXIS2_PLACEMENT_2D('',#403,#404);
#403 = CARTESIAN_POINT('',(2.,9.62132034356));
#404 = DIRECTION('',(0.,-1.));
#405 = ( GEOMETRIC_REPRESENTATION_CONTEXT(2) 
PARAMETRIC_REPRESENTATION_CONTEXT() REPRESENTATION_CONTEXT('2D SPACE',''
  ) );
#406 = ORIENTED_EDGE('',*,*,#407,.F.);
#407 = EDGE_CURVE('',#408,#376,#410,.T.);
#408 = VERTEX_POINT('',#409);
#409 = CARTESIAN_POINT('',(0.,4.5,-2.));
#410 = SURFACE_CURVE('',#411,(#416,#423),.PCURVE_S1.);
#411 = CIRCLE('',#412,6.184658438426);
#412 = AXIS2_PLACEMENT_3D('',#413,#414,#415);
#413 = CARTESIAN_POINT('',(-6.,3.,-2.));
#414 = DIRECTION('',(0.,0.,1.));
#415 = DIRECTION('',(1.,0.,-0.));
#416 = PCURVE('',#55,#417);
#417 = DEFINITIONAL_REPRESENTATION('',(#418),#422);
#418 = LINE('',#419,#420);
#419 = CARTESIAN_POINT('',(0.,-0.312766721942));
#420 = VECTOR('',#421,1.);
#421 = DIRECTION('',(1.,0.));
#422 = ( GEOMETRIC_REPRESENTATION_CONTEXT(2) 
PARAMETRIC_REPRESENTATION_CONTEXT() REPRESENTATION_CONTEXT('2D SPACE',''
  ) );
#423 = PCURVE('',#424,#429);
#424 = PLANE('',#425);
#425 = AXIS2_PLACEMENT_3D('',#426,#427,#428);
#426 = CARTESIAN_POINT('',(-8.881784197001E-16,-16.60660171779,-2.));
#427 = DIRECTION('',(0.,0.,1.));
#428 = DIRECTION('',(0.707106781187,0.707106781187,0.));
#429 = DEFINITIONAL_REPRESENTATION('',(#430),#434);
#430 = CIRCLE('',#431,6.184658438426);
#431 = AXIS2_PLACEMENT_2D('',#432,#433);
#432 = CARTESIAN_POINT('',(9.62132034356,18.106601717798));
#433 = DIRECTION('',(0.707106781187,-0.707106781187));
#434 = ( GEOMETRIC_REPRESENTATION_CONTEXT(2) 
PARAMETRIC_REPRESENTATION_CONTEXT() REPRESENTATION_CONTEXT('2D SPACE',''
  ) );
#435 = ORIENTED_EDGE('',*,*,#436,.F.);
#436 = EDGE_CURVE('',#437,#408,#439,.T.);
#437 = VERTEX_POINT('',#438);
#438 = CARTESIAN_POINT('',(-8.881784197001E-16,3.,-2.5));
#439 = SURFACE_CURVE('',#440,(#445,#479),.PCURVE_S1.);
#440 = CIRCLE('',#441,2.5);
#441 = AXIS2_PLACEMENT_3D('',#442,#443,#444);
#442 = CARTESIAN_POINT('',(0.,3.,0.));
#443 = DIRECTION('',(1.,0.,0.));
#444 = DIRECTION('',(-0.,0.,1.));
#445 = PCURVE('',#55,#446);
#446 = DEFINITIONAL_REPRESENTATION('',(#447),#478);
#447 = B_SPLINE_CURVE_WITH_KNOTS('',8,(#448,#449,#450,#451,#452,#453,
    #454,#455,#456,#457,#458,#459,#460,#461,#462,#463,#464,#465,#466,
    #467,#468,#469,#470,#471,#472,#473,#474,#475,#476,#477),
  .UNSPECIFIED.,.F.,.F.,(9,7,7,7,9),(3.14159265359,3.926990816987,
    5.105088062083,5.694136684632,6.28318530718),.UNSPECIFIED.);
#448 = CARTESIAN_POINT('',(0.,-0.3947911197));
#449 = CARTESIAN_POINT('',(4.090615434362E-02,-0.3947911197));
#450 = CARTESIAN_POINT('',(8.181229096988E-02,-0.390201442638));
#451 = CARTESIAN_POINT('',(0.121909162909,-0.381022247276));
#452 = CARTESIAN_POINT('',(0.160386878445,-0.367396358964));
#453 = CARTESIAN_POINT('',(0.196533114148,-0.349612853963));
#454 = CARTESIAN_POINT('',(0.229828347988,-0.328060773891));
#455 = CARTESIAN_POINT('',(0.25990622189,-0.303179355364));
#456 = CARTESIAN_POINT('',(0.326443007106,-0.233814778937));
#457 = CARTESIAN_POINT('',(0.358573112119,-0.185751112832));
#458 = CARTESIAN_POINT('',(0.382078911693,-0.132810809803));
#459 = CARTESIAN_POINT('',(0.396741736932,-7.66914028971E-02));
#460 = CARTESIAN_POINT('',(0.402618948694,-1.900208097712E-02));
#461 = CARTESIAN_POINT('',(0.399688964009,3.870243113133E-02));
#462 = CARTESIAN_POINT('',(0.387915779896,9.481854813032E-02));
#463 = CARTESIAN_POINT('',(0.357239799549,0.174174650035));
#464 = CARTESIAN_POINT('',(0.344845002136,0.199823677494));
#465 = CARTESIAN_POINT('',(0.330302264424,0.224466673696));
#466 = CARTESIAN_POINT('',(0.313644352973,0.247899518509));
#467 = CARTESIAN_POINT('',(0.294925833595,0.269917383812));
#468 = CARTESIAN_POINT('',(0.274232908902,0.290318115207));
#469 = CARTESIAN_POINT('',(0.251692530388,0.308908608072));
#470 = CARTESIAN_POINT('',(0.203269039701,0.342119747823));
#471 = CARTESIAN_POINT('',(0.177385834105,0.35674026303));
#472 = CARTESIAN_POINT('',(0.150006192588,0.369201649278));
#473 = CARTESIAN_POINT('',(0.121352422214,0.379346382099));
#474 = CARTESIAN_POINT('',(9.16977182719E-02,0.387045852636));
#475 = CARTESIAN_POINT('',(6.135909131638E-02,0.392209558497));
#476 = CARTESIAN_POINT('',(3.067961575771E-02,0.3947911197));
#477 = CARTESIAN_POINT('',(7.401486830834E-17,0.3947911197));
#478 = ( GEOMETRIC_REPRESENTATION_CONTEXT(2) 
PARAMETRIC_REPRESENTATION_CONTEXT() REPRESENTATION_CONTEXT('2D SPACE',''
  ) );
#479 = PCURVE('',#94,#480);
#480 = DEFINITIONAL_REPRESENTATION('',(#481),#512);
#481 = B_SPLINE_CURVE_WITH_KNOTS('',8,(#482,#483,#484,#485,#486,#487,
    #488,#489,#490,#491,#492,#493,#494,#495,#496,#497,#498,#499,#500,
    #501,#502,#503,#504,#505,#506,#507,#508,#509,#510,#511),
  .UNSPECIFIED.,.F.,.F.,(9,7,7,7,9),(3.14159265359,3.926990816987,
    5.105088062083,5.694136684631,6.28318530718),.UNSPECIFIED.);
#482 = CARTESIAN_POINT('',(3.14159265359,-0.3947911197));
#483 = CARTESIAN_POINT('',(3.100686499246,-0.3947911197));
#484 = CARTESIAN_POINT('',(3.059780362616,-0.390201442638));
#485 = CARTESIAN_POINT('',(3.019683490678,-0.381022247276));
#486 = CARTESIAN_POINT('',(2.981205775126,-0.367396358964));
#487 = CARTESIAN_POINT('',(2.945059539441,-0.349612853963));
#488 = CARTESIAN_POINT('',(2.911764305599,-0.328060773891));
#489 = CARTESIAN_POINT('',(2.8816864317,-0.303179355364));
#490 = CARTESIAN_POINT('',(2.815149646484,-0.233814778937));
#491 = CARTESIAN_POINT('',(2.783019541466,-0.185751112832));
#492 = CARTESIAN_POINT('',(2.759513741905,-0.132810809803));
#493 = CARTESIAN_POINT('',(2.744850916632,-7.66914028971E-02));
#494 = CARTESIAN_POINT('',(2.738973704905,-1.900208097712E-02));
#495 = CARTESIAN_POINT('',(2.741903689578,3.870243113133E-02));
#496 = CARTESIAN_POINT('',(2.753676873694,9.481854813032E-02));
#497 = CARTESIAN_POINT('',(2.784352854041,0.174174650035));
#498 = CARTESIAN_POINT('',(2.796747651454,0.199823677494));
#499 = CARTESIAN_POINT('',(2.811290389166,0.224466673696));
#500 = CARTESIAN_POINT('',(2.827948300616,0.247899518509));
#501 = CARTESIAN_POINT('',(2.846666819994,0.269917383812));
#502 = CARTESIAN_POINT('',(2.867359744688,0.290318115207));
#503 = CARTESIAN_POINT('',(2.889900123202,0.308908608072));
#504 = CARTESIAN_POINT('',(2.938323613889,0.342119747823));
#505 = CARTESIAN_POINT('',(2.964206819485,0.35674026303));
#506 = CARTESIAN_POINT('',(2.991586461002,0.369201649278));
#507 = CARTESIAN_POINT('',(3.020240231376,0.379346382099));
#508 = CARTESIAN_POINT('',(3.049894935318,0.387045852636));
#509 = CARTESIAN_POINT('',(3.080233562273,0.392209558497));
#510 = CARTESIAN_POINT('',(3.110913037832,0.3947911197));
#511 = CARTESIAN_POINT('',(3.14159265359,0.3947911197));
#512 = ( GEOMETRIC_REPRESENTATION_CONTEXT(2) 
PARAMETRIC_REPRESENTATION_CONTEXT() REPRESENTATION_CONTEXT('2D SPACE',''
  ) );
#513 = ORIENTED_EDGE('',*,*,#514,.F.);
#514 = EDGE_CURVE('',#515,#437,#517,.T.);
#515 = VERTEX_POINT('',#516);
#516 = CARTESIAN_POINT('',(-6.,3.,-6.5));
#517 = SEAM_CURVE('',#518,(#523,#530),.PCURVE_S1.);
#518 = CIRCLE('',#519,6.5);
#519 = AXIS2_PLACEMENT_3D('',#520,#521,#522);
#520 = CARTESIAN_POINT('',(-6.,3.,0.));
#521 = DIRECTION('',(-2.449293598295E-16,-1.,0.));
#522 = DIRECTION('',(1.,-2.449293598295E-16,0.));
#523 = PCURVE('',#55,#524);
#524 = DEFINITIONAL_REPRESENTATION('',(#525),#529);
#525 = LINE('',#526,#527);
#526 = CARTESIAN_POINT('',(6.28318530718,-6.28318530718));
#527 = VECTOR('',#528,1.);
#528 = DIRECTION('',(0.,1.));
#529 = ( GEOMETRIC_REPRESENTATION_CONTEXT(2) 
PARAMETRIC_REPRESENTATION_CONTEXT() REPRESENTATION_CONTEXT('2D SPACE',''
  ) );
#530 = PCURVE('',#55,#531);
#531 = DEFINITIONAL_REPRESENTATION('',(#532),#536);
#532 = LINE('',#533,#534);
#533 = CARTESIAN_POINT('',(0.,-6.28318530718));
#534 = VECTOR('',#535,1.);
#535 = DIRECTION('',(0.,1.));
#536 = ( GEOMETRIC_REPRESENTATION_CONTEXT(2) 
PARAMETRIC_REPRESENTATION_CONTEXT() REPRESENTATION_CONTEXT('2D SPACE',''
  ) );
#537 = ORIENTED_EDGE('',*,*,#514,.T.);
#538 = ORIENTED_EDGE('',*,*,#539,.F.);
#539 = EDGE_CURVE('',#540,#437,#542,.T.);
#540 = VERTEX_POINT('',#541);
#541 = CARTESIAN_POINT('',(0.,1.5,-2.));
#542 = SURFACE_CURVE('',#543,(#548,#582),.PCURVE_S1.);
#543 = CIRCLE('',#544,2.5);
#544 = AXIS2_PLACEMENT_3D('',#545,#546,#547);
#545 = CARTESIAN_POINT('',(0.,3.,0.));
#546 = DIRECTION('',(1.,0.,0.));
#547 = DIRECTION('',(-0.,0.,1.));
#548 = PCURVE('',#55,#549);
#549 = DEFINITIONAL_REPRESENTATION('',(#550),#581);
#550 = B_SPLINE_CURVE_WITH_KNOTS('',8,(#551,#552,#553,#554,#555,#556,
    #557,#558,#559,#560,#561,#562,#563,#564,#565,#566,#567,#568,#569,
    #570,#571,#572,#573,#574,#575,#576,#577,#578,#579,#580),
  .UNSPECIFIED.,.F.,.F.,(9,7,7,7,9),(0.,0.785398163397,1.963495408494,
    2.552544031042,3.14159265359),.UNSPECIFIED.);
#551 = CARTESIAN_POINT('',(6.28318530718,0.3947911197));
#552 = CARTESIAN_POINT('',(6.242279152836,0.3947911197));
#553 = CARTESIAN_POINT('',(6.20137301621,0.390201442639));
#554 = CARTESIAN_POINT('',(6.161276144271,0.381022247273));
#555 = CARTESIAN_POINT('',(6.122798428734,0.367396358967));
#556 = CARTESIAN_POINT('',(6.086652193032,0.349612853961));
#557 = CARTESIAN_POINT('',(6.053356959191,0.328060773892));
#558 = CARTESIAN_POINT('',(6.02327908529,0.303179355364));
#559 = CARTESIAN_POINT('',(5.956742300074,0.233814778937));
#560 = CARTESIAN_POINT('',(5.924612195061,0.185751112832));
#561 = CARTESIAN_POINT('',(5.901106395486,0.132810809803));
#562 = CARTESIAN_POINT('',(5.886443570251,7.669140289732E-02));
#563 = CARTESIAN_POINT('',(5.880566358484,1.900208097675E-02));
#564 = CARTESIAN_POINT('',(5.883496343172,-3.870243113128E-02));
#565 = CARTESIAN_POINT('',(5.895269527284,-9.481854813032E-02));
#566 = CARTESIAN_POINT('',(5.925945507631,-0.174174650035));
#567 = CARTESIAN_POINT('',(5.938340305044,-0.199823677494));
#568 = CARTESIAN_POINT('',(5.952883042756,-0.224466673696));
#569 = CARTESIAN_POINT('',(5.969540954206,-0.247899518509));
#570 = CARTESIAN_POINT('',(5.988259473584,-0.269917383812));
#571 = CARTESIAN_POINT('',(6.008952398278,-0.290318115207));
#572 = CARTESIAN_POINT('',(6.031492776792,-0.308908608072));
#573 = CARTESIAN_POINT('',(6.079916267479,-0.342119747823));
#574 = CARTESIAN_POINT('',(6.105799473074,-0.35674026303));
#575 = CARTESIAN_POINT('',(6.133179114591,-0.369201649278));
#576 = CARTESIAN_POINT('',(6.161832884965,-0.379346382099));
#577 = CARTESIAN_POINT('',(6.191487588908,-0.387045852636));
#578 = CARTESIAN_POINT('',(6.221826215863,-0.392209558497));
#579 = CARTESIAN_POINT('',(6.252505691422,-0.3947911197));
#580 = CARTESIAN_POINT('',(6.28318530718,-0.3947911197));
#581 = ( GEOMETRIC_REPRESENTATION_CONTEXT(2) 
PARAMETRIC_REPRESENTATION_CONTEXT() REPRESENTATION_CONTEXT('2D SPACE',''
  ) );
#582 = PCURVE('',#94,#583);
#583 = DEFINITIONAL_REPRESENTATION('',(#584),#615);
#584 = B_SPLINE_CURVE_WITH_KNOTS('',8,(#585,#586,#587,#588,#589,#590,
    #591,#592,#593,#594,#595,#596,#597,#598,#599,#600,#601,#602,#603,
    #604,#605,#606,#607,#608,#609,#610,#611,#612,#613,#614),
  .UNSPECIFIED.,.F.,.F.,(9,7,7,7,9),(0.,0.785398163397,1.963495408494,
    2.552544031042,3.14159265359),.UNSPECIFIED.);
#585 = CARTESIAN_POINT('',(3.14159265359,0.3947911197));
#586 = CARTESIAN_POINT('',(3.182498807933,0.3947911197));
#587 = CARTESIAN_POINT('',(3.223404944563,0.390201442639));
#588 = CARTESIAN_POINT('',(3.263501816469,0.381022247273));
#589 = CARTESIAN_POINT('',(3.301979532063,0.367396358967));
#590 = CARTESIAN_POINT('',(3.338125767716,0.349612853961));
#591 = CARTESIAN_POINT('',(3.371421001581,0.328060773892));
#592 = CARTESIAN_POINT('',(3.40149887548,0.303179355364));
#593 = CARTESIAN_POINT('',(3.468035660696,0.233814778937));
#594 = CARTESIAN_POINT('',(3.500165765704,0.185751112832));
#595 = CARTESIAN_POINT('',(3.523671565297,0.132810809803));
#596 = CARTESIAN_POINT('',(3.538334390509,7.669140289732E-02));
#597 = CARTESIAN_POINT('',(3.544211602299,1.900208097675E-02));
#598 = CARTESIAN_POINT('',(3.541281617594,-3.870243113128E-02));
#599 = CARTESIAN_POINT('',(3.529508433486,-9.481854813032E-02));
#600 = CARTESIAN_POINT('',(3.498832453138,-0.174174650035));
#601 = CARTESIAN_POINT('',(3.486437655726,-0.199823677494));
#602 = CARTESIAN_POINT('',(3.471894918014,-0.224466673696));
#603 = CARTESIAN_POINT('',(3.455237006563,-0.247899518509));
#604 = CARTESIAN_POINT('',(3.436518487185,-0.269917383812));
#605 = CARTESIAN_POINT('',(3.415825562492,-0.290318115207));
#606 = CARTESIAN_POINT('',(3.393285183978,-0.308908608072));
#607 = CARTESIAN_POINT('',(3.344861693291,-0.342119747823));
#608 = CARTESIAN_POINT('',(3.318978487695,-0.35674026303));
#609 = CARTESIAN_POINT('',(3.291598846178,-0.369201649278));
#610 = CARTESIAN_POINT('',(3.262945075804,-0.379346382099));
#611 = CARTESIAN_POINT('',(3.233290371862,-0.387045852636));
#612 = CARTESIAN_POINT('',(3.202951744906,-0.392209558497));
#613 = CARTESIAN_POINT('',(3.172272269348,-0.3947911197));
#614 = CARTESIAN_POINT('',(3.14159265359,-0.3947911197));
#615 = ( GEOMETRIC_REPRESENTATION_CONTEXT(2) 
PARAMETRIC_REPRESENTATION_CONTEXT() REPRESENTATION_CONTEXT('2D SPACE',''
  ) );
#616 = ORIENTED_EDGE('',*,*,#617,.F.);
#617 = EDGE_CURVE('',#618,#540,#620,.T.);
#618 = VERTEX_POINT('',#619);
#619 = CARTESIAN_POINT('',(-7.584770531326,-2.978168813528,-2.));
#620 = SURFACE_CURVE('',#621,(#626,#633),.PCURVE_S1.);
#621 = CIRCLE('',#622,6.184658438426);
#622 = AXIS2_PLACEMENT_3D('',#623,#624,#625);
#623 = CARTESIAN_POINT('',(-6.,3.,-2.));
#624 = DIRECTION('',(0.,0.,1.));
#625 = DIRECTION('',(1.,0.,-0.));
#626 = PCURVE('',#55,#627);
#627 = DEFINITIONAL_REPRESENTATION('',(#628),#632);
#628 = LINE('',#629,#630);
#629 = CARTESIAN_POINT('',(0.,-0.312766721942));
#630 = VECTOR('',#631,1.);
#631 = DIRECTION('',(1.,0.));
#632 = ( GEOMETRIC_REPRESENTATION_CONTEXT(2) 
PARAMETRIC_REPRESENTATION_CONTEXT() REPRESENTATION_CONTEXT('2D SPACE',''
  ) );
#633 = PCURVE('',#634,#639);
#634 = PLANE('',#635);
#635 = AXIS2_PLACEMENT_3D('',#636,#637,#638);
#636 = CARTESIAN_POINT('',(-8.881784197001E-16,-16.60660171779,-2.));
#637 = DIRECTION('',(0.,0.,1.));
#638 = DIRECTION('',(0.707106781187,0.707106781187,0.));
#639 = DEFINITIONAL_REPRESENTATION('',(#640),#644);
#640 = CIRCLE('',#641,6.184658438426);
#641 = AXIS2_PLACEMENT_2D('',#642,#643);
#642 = CARTESIAN_POINT('',(9.62132034356,18.106601717798));
#643 = DIRECTION('',(0.707106781187,-0.707106781187));
#644 = ( GEOMETRIC_REPRESENTATION_CONTEXT(2) 
PARAMETRIC_REPRESENTATION_CONTEXT() REPRESENTATION_CONTEXT('2D SPACE',''
  ) );
#645 = ORIENTED_EDGE('',*,*,#646,.T.);
#646 = EDGE_CURVE('',#618,#647,#649,.T.);
#647 = VERTEX_POINT('',#648);
#648 = CARTESIAN_POINT('',(-7.584770531326,-2.978168813528,2.));
#649 = SURFACE_CURVE('',#650,(#655,#667),.PCURVE_S1.);
#650 = CIRCLE('',#651,5.709555654074);
#651 = AXIS2_PLACEMENT_3D('',#652,#653,#654);
#652 = CARTESIAN_POINT('',(-3.803300858899,0.803300858899,0.));
#653 = DIRECTION('',(-0.707106781187,0.707106781187,0.));
#654 = DIRECTION('',(-0.707106781187,-0.707106781187,0.));
#655 = PCURVE('',#55,#656);
#656 = DEFINITIONAL_REPRESENTATION('',(#657),#666);
#657 = B_SPLINE_CURVE_WITH_KNOTS('',7,(#658,#659,#660,#661,#662,#663,
    #664,#665),.UNSPECIFIED.,.F.,.F.,(8,8),(5.925304651286,
    6.641065963074),.PIECEWISE_BEZIER_KNOTS.);
#658 = CARTESIAN_POINT('',(4.45325638147,-0.312766721942));
#659 = CARTESIAN_POINT('',(4.43664696731,-0.224350881391));
#660 = CARTESIAN_POINT('',(4.426443454437,-0.134939785522));
#661 = CARTESIAN_POINT('',(4.421540967974,-4.503375027246E-02));
#662 = CARTESIAN_POINT('',(4.421540967975,4.503375027246E-02));
#663 = CARTESIAN_POINT('',(4.426443454436,0.134939785522));
#664 = CARTESIAN_POINT('',(4.43664696731,0.224350881391));
#665 = CARTESIAN_POINT('',(4.45325638147,0.312766721942));
#666 = ( GEOMETRIC_REPRESENTATION_CONTEXT(2) 
PARAMETRIC_REPRESENTATION_CONTEXT() REPRESENTATION_CONTEXT('2D SPACE',''
  ) );
#667 = PCURVE('',#668,#673);
#668 = PLANE('',#669);
#669 = AXIS2_PLACEMENT_3D('',#670,#671,#672);
#670 = CARTESIAN_POINT('',(-10.60660171779,-6.,-2.));
#671 = DIRECTION('',(-0.707106781187,0.707106781187,0.));
#672 = DIRECTION('',(0.,0.,1.));
#673 = DEFINITIONAL_REPRESENTATION('',(#674),#678);
#674 = CIRCLE('',#675,5.709555654074);
#675 = AXIS2_PLACEMENT_2D('',#676,#677);
#676 = CARTESIAN_POINT('',(2.,9.62132034356));
#677 = DIRECTION('',(0.,-1.));
#678 = ( GEOMETRIC_REPRESENTATION_CONTEXT(2) 
PARAMETRIC_REPRESENTATION_CONTEXT() REPRESENTATION_CONTEXT('2D SPACE',''
  ) );
#679 = ORIENTED_EDGE('',*,*,#680,.T.);
#680 = EDGE_CURVE('',#647,#46,#681,.T.);
#681 = SURFACE_CURVE('',#682,(#687,#694),.PCURVE_S1.);
#682 = CIRCLE('',#683,6.184658438426);
#683 = AXIS2_PLACEMENT_3D('',#684,#685,#686);
#684 = CARTESIAN_POINT('',(-6.,3.,2.));
#685 = DIRECTION('',(0.,0.,1.));
#686 = DIRECTION('',(1.,0.,-0.));
#687 = PCURVE('',#55,#688);
#688 = DEFINITIONAL_REPRESENTATION('',(#689),#693);
#689 = LINE('',#690,#691);
#690 = CARTESIAN_POINT('',(0.,0.312766721942));
#691 = VECTOR('',#692,1.);
#692 = DIRECTION('',(1.,0.));
#693 = ( GEOMETRIC_REPRESENTATION_CONTEXT(2) 
PARAMETRIC_REPRESENTATION_CONTEXT() REPRESENTATION_CONTEXT('2D SPACE',''
  ) );
#694 = PCURVE('',#695,#700);
#695 = PLANE('',#696);
#696 = AXIS2_PLACEMENT_3D('',#697,#698,#699);
#697 = CARTESIAN_POINT('',(-8.881784197001E-16,-16.60660171779,2.));
#698 = DIRECTION('',(0.,0.,1.));
#699 = DIRECTION('',(0.707106781187,0.707106781187,0.));
#700 = DEFINITIONAL_REPRESENTATION('',(#701),#705);
#701 = CIRCLE('',#702,6.184658438426);
#702 = AXIS2_PLACEMENT_2D('',#703,#704);
#703 = CARTESIAN_POINT('',(9.62132034356,18.106601717798));
#704 = DIRECTION('',(0.707106781187,-0.707106781187));
#705 = ( GEOMETRIC_REPRESENTATION_CONTEXT(2) 
PARAMETRIC_REPRESENTATION_CONTEXT() REPRESENTATION_CONTEXT('2D SPACE',''
  ) );
#706 = ADVANCED_FACE('',(#707,#711),#94,.T.);
#707 = FACE_BOUND('',#708,.T.);
#708 = VERTEX_LOOP('',#709);
#709 = VERTEX_POINT('',#710);
#710 = CARTESIAN_POINT('',(6.,3.,-6.5));
#711 = FACE_BOUND('',#712,.T.);
#712 = EDGE_LOOP('',(#713,#745,#746,#778,#800,#801,#802,#826,#860,#882,
    #883,#884));
#713 = ORIENTED_EDGE('',*,*,#714,.T.);
#714 = EDGE_CURVE('',#715,#298,#717,.T.);
#715 = VERTEX_POINT('',#716);
#716 = CARTESIAN_POINT('',(2.183118647192E-02,4.584770531326,-2.));
#717 = SURFACE_CURVE('',#718,(#723,#733),.PCURVE_S1.);
#718 = CIRCLE('',#719,5.709555654074);
#719 = AXIS2_PLACEMENT_3D('',#720,#721,#722);
#720 = CARTESIAN_POINT('',(3.803300858899,0.803300858899,0.));
#721 = DIRECTION('',(0.707106781187,0.707106781187,0.));
#722 = DIRECTION('',(-0.707106781187,0.707106781187,0.));
#723 = PCURVE('',#94,#724);
#724 = DEFINITIONAL_REPRESENTATION('',(#725),#732);
#725 = B_SPLINE_CURVE_WITH_KNOTS('',5,(#726,#727,#728,#729,#730,#731),
  .UNSPECIFIED.,.F.,.F.,(6,6),(5.925304651286,5.941074773527),
  .PIECEWISE_BEZIER_KNOTS.);
#726 = CARTESIAN_POINT('',(2.882460054675,-0.312766721942));
#727 = CARTESIAN_POINT('',(2.88194772538,-0.310039471912));
#728 = CARTESIAN_POINT('',(2.881441926641,-0.307311207284));
#729 = CARTESIAN_POINT('',(2.880942617023,-0.304581946792));
#730 = CARTESIAN_POINT('',(2.88044975627,-0.301851708896));
#731 = CARTESIAN_POINT('',(2.879963305271,-0.299120511794));
#732 = ( GEOMETRIC_REPRESENTATION_CONTEXT(2) 
PARAMETRIC_REPRESENTATION_CONTEXT() REPRESENTATION_CONTEXT('2D SPACE',''
  ) );
#733 = PCURVE('',#734,#739);
#734 = PLANE('',#735);
#735 = AXIS2_PLACEMENT_3D('',#736,#737,#738);
#736 = CARTESIAN_POINT('',(10.606601717798,-6.,-2.));
#737 = DIRECTION('',(0.707106781187,0.707106781187,0.));
#738 = DIRECTION('',(0.,0.,1.));
#739 = DEFINITIONAL_REPRESENTATION('',(#740),#744);
#740 = CIRCLE('',#741,5.709555654074);
#741 = AXIS2_PLACEMENT_2D('',#742,#743);
#742 = CARTESIAN_POINT('',(2.,-9.62132034356));
#743 = DIRECTION('',(0.,-1.));
#744 = ( GEOMETRIC_REPRESENTATION_CONTEXT(2) 
PARAMETRIC_REPRESENTATION_CONTEXT() REPRESENTATION_CONTEXT('2D SPACE',''
  ) );
#745 = ORIENTED_EDGE('',*,*,#297,.T.);
#746 = ORIENTED_EDGE('',*,*,#747,.T.);
#747 = EDGE_CURVE('',#266,#748,#750,.T.);
#748 = VERTEX_POINT('',#749);
#749 = CARTESIAN_POINT('',(2.183118647192E-02,4.584770531326,2.));
#750 = SURFACE_CURVE('',#751,(#756,#766),.PCURVE_S1.);
#751 = CIRCLE('',#752,5.709555654074);
#752 = AXIS2_PLACEMENT_3D('',#753,#754,#755);
#753 = CARTESIAN_POINT('',(3.803300858899,0.803300858899,0.));
#754 = DIRECTION('',(0.707106781187,0.707106781187,0.));
#755 = DIRECTION('',(-0.707106781187,0.707106781187,0.));
#756 = PCURVE('',#94,#757);
#757 = DEFINITIONAL_REPRESENTATION('',(#758),#765);
#758 = B_SPLINE_CURVE_WITH_KNOTS('',5,(#759,#760,#761,#762,#763,#764),
  .UNSPECIFIED.,.F.,.F.,(6,6),(0.342110533653,0.357880655894),
  .PIECEWISE_BEZIER_KNOTS.);
#759 = CARTESIAN_POINT('',(2.879963305271,0.299120511794));
#760 = CARTESIAN_POINT('',(2.88044975627,0.301851708896));
#761 = CARTESIAN_POINT('',(2.880942617023,0.304581946792));
#762 = CARTESIAN_POINT('',(2.881441926641,0.307311207284));
#763 = CARTESIAN_POINT('',(2.88194772538,0.310039471912));
#764 = CARTESIAN_POINT('',(2.882460054675,0.312766721942));
#765 = ( GEOMETRIC_REPRESENTATION_CONTEXT(2) 
PARAMETRIC_REPRESENTATION_CONTEXT() REPRESENTATION_CONTEXT('2D SPACE',''
  ) );
#766 = PCURVE('',#767,#772);
#767 = PLANE('',#768);
#768 = AXIS2_PLACEMENT_3D('',#769,#770,#771);
#769 = CARTESIAN_POINT('',(10.606601717798,-6.,-2.));
#770 = DIRECTION('',(0.707106781187,0.707106781187,0.));
#771 = DIRECTION('',(0.,0.,1.));
#772 = DEFINITIONAL_REPRESENTATION('',(#773),#777);
#773 = CIRCLE('',#774,5.709555654074);
#774 = AXIS2_PLACEMENT_2D('',#775,#776);
#775 = CARTESIAN_POINT('',(2.,-9.62132034356));
#776 = DIRECTION('',(0.,-1.));
#777 = ( GEOMETRIC_REPRESENTATION_CONTEXT(2) 
PARAMETRIC_REPRESENTATION_CONTEXT() REPRESENTATION_CONTEXT('2D SPACE',''
  ) );
#778 = ORIENTED_EDGE('',*,*,#779,.T.);
#779 = EDGE_CURVE('',#748,#159,#780,.T.);
#780 = SURFACE_CURVE('',#781,(#786,#793),.PCURVE_S1.);
#781 = CIRCLE('',#782,6.184658438426);
#782 = AXIS2_PLACEMENT_3D('',#783,#784,#785);
#783 = CARTESIAN_POINT('',(6.,3.,2.));
#784 = DIRECTION('',(0.,0.,1.));
#785 = DIRECTION('',(1.,0.,-0.));
#786 = PCURVE('',#94,#787);
#787 = DEFINITIONAL_REPRESENTATION('',(#788),#792);
#788 = LINE('',#789,#790);
#789 = CARTESIAN_POINT('',(0.,0.312766721942));
#790 = VECTOR('',#791,1.);
#791 = DIRECTION('',(1.,0.));
#792 = ( GEOMETRIC_REPRESENTATION_CONTEXT(2) 
PARAMETRIC_REPRESENTATION_CONTEXT() REPRESENTATION_CONTEXT('2D SPACE',''
  ) );
#793 = PCURVE('',#253,#794);
#794 = DEFINITIONAL_REPRESENTATION('',(#795),#799);
#795 = CIRCLE('',#796,6.184658438426);
#796 = AXIS2_PLACEMENT_2D('',#797,#798);
#797 = CARTESIAN_POINT('',(18.106601717798,9.62132034356));
#798 = DIRECTION('',(0.707106781187,-0.707106781187));
#799 = ( GEOMETRIC_REPRESENTATION_CONTEXT(2) 
PARAMETRIC_REPRESENTATION_CONTEXT() REPRESENTATION_CONTEXT('2D SPACE',''
  ) );
#800 = ORIENTED_EDGE('',*,*,#158,.T.);
#801 = ORIENTED_EDGE('',*,*,#43,.T.);
#802 = ORIENTED_EDGE('',*,*,#803,.T.);
#803 = EDGE_CURVE('',#46,#804,#806,.T.);
#804 = VERTEX_POINT('',#805);
#805 = CARTESIAN_POINT('',(7.584770531326,-2.978168813528,2.));
#806 = SURFACE_CURVE('',#807,(#812,#819),.PCURVE_S1.);
#807 = CIRCLE('',#808,6.184658438426);
#808 = AXIS2_PLACEMENT_3D('',#809,#810,#811);
#809 = CARTESIAN_POINT('',(6.,3.,2.));
#810 = DIRECTION('',(0.,0.,1.));
#811 = DIRECTION('',(1.,0.,-0.));
#812 = PCURVE('',#94,#813);
#813 = DEFINITIONAL_REPRESENTATION('',(#814),#818);
#814 = LINE('',#815,#816);
#815 = CARTESIAN_POINT('',(0.,0.312766721942));
#816 = VECTOR('',#817,1.);
#817 = DIRECTION('',(1.,0.));
#818 = ( GEOMETRIC_REPRESENTATION_CONTEXT(2) 
PARAMETRIC_REPRESENTATION_CONTEXT() REPRESENTATION_CONTEXT('2D SPACE',''
  ) );
#819 = PCURVE('',#695,#820);
#820 = DEFINITIONAL_REPRESENTATION('',(#821),#825);
#821 = CIRCLE('',#822,6.184658438426);
#822 = AXIS2_PLACEMENT_2D('',#823,#824);
#823 = CARTESIAN_POINT('',(18.106601717798,9.62132034356));
#824 = DIRECTION('',(0.707106781187,-0.707106781187));
#825 = ( GEOMETRIC_REPRESENTATION_CONTEXT(2) 
PARAMETRIC_REPRESENTATION_CONTEXT() REPRESENTATION_CONTEXT('2D SPACE',''
  ) );
#826 = ORIENTED_EDGE('',*,*,#827,.T.);
#827 = EDGE_CURVE('',#804,#828,#830,.T.);
#828 = VERTEX_POINT('',#829);
#829 = CARTESIAN_POINT('',(7.584770531326,-2.978168813528,-2.));
#830 = SURFACE_CURVE('',#831,(#836,#848),.PCURVE_S1.);
#831 = CIRCLE('',#832,5.709555654074);
#832 = AXIS2_PLACEMENT_3D('',#833,#834,#835);
#833 = CARTESIAN_POINT('',(3.803300858899,0.803300858899,0.));
#834 = DIRECTION('',(0.707106781187,0.707106781187,0.));
#835 = DIRECTION('',(-0.707106781187,0.707106781187,0.));
#836 = PCURVE('',#94,#837);
#837 = DEFINITIONAL_REPRESENTATION('',(#838),#847);
#838 = B_SPLINE_CURVE_WITH_KNOTS('',7,(#839,#840,#841,#842,#843,#844,
    #845,#846),.UNSPECIFIED.,.F.,.F.,(8,8),(2.783711997696,
    3.499473309484),.PIECEWISE_BEZIER_KNOTS.);
#839 = CARTESIAN_POINT('',(4.971521579299,0.312766721942));
#840 = CARTESIAN_POINT('',(4.98813099346,0.224350881391));
#841 = CARTESIAN_POINT('',(4.998334506333,0.134939785522));
#842 = CARTESIAN_POINT('',(5.003236992794,4.503375027245E-02));
#843 = CARTESIAN_POINT('',(5.003236992794,-4.503375027245E-02));
#844 = CARTESIAN_POINT('',(4.998334506333,-0.134939785522));
#845 = CARTESIAN_POINT('',(4.98813099346,-0.224350881391));
#846 = CARTESIAN_POINT('',(4.971521579299,-0.312766721942));
#847 = ( GEOMETRIC_REPRESENTATION_CONTEXT(2) 
PARAMETRIC_REPRESENTATION_CONTEXT() REPRESENTATION_CONTEXT('2D SPACE',''
  ) );
#848 = PCURVE('',#849,#854);
#849 = PLANE('',#850);
#850 = AXIS2_PLACEMENT_3D('',#851,#852,#853);
#851 = CARTESIAN_POINT('',(10.606601717798,-6.,-2.));
#852 = DIRECTION('',(0.707106781187,0.707106781187,0.));
#853 = DIRECTION('',(0.,0.,1.));
#854 = DEFINITIONAL_REPRESENTATION('',(#855),#859);
#855 = CIRCLE('',#856,5.709555654074);
#856 = AXIS2_PLACEMENT_2D('',#857,#858);
#857 = CARTESIAN_POINT('',(2.,-9.62132034356));
#858 = DIRECTION('',(0.,-1.));
#859 = ( GEOMETRIC_REPRESENTATION_CONTEXT(2) 
PARAMETRIC_REPRESENTATION_CONTEXT() REPRESENTATION_CONTEXT('2D SPACE',''
  ) );
#860 = ORIENTED_EDGE('',*,*,#861,.F.);
#861 = EDGE_CURVE('',#540,#828,#862,.T.);
#862 = SURFACE_CURVE('',#863,(#868,#875),.PCURVE_S1.);
#863 = CIRCLE('',#864,6.184658438426);
#864 = AXIS2_PLACEMENT_3D('',#865,#866,#867);
#865 = CARTESIAN_POINT('',(6.,3.,-2.));
#866 = DIRECTION('',(0.,0.,1.));
#867 = DIRECTION('',(1.,0.,-0.));
#868 = PCURVE('',#94,#869);
#869 = DEFINITIONAL_REPRESENTATION('',(#870),#874);
#870 = LINE('',#871,#872);
#871 = CARTESIAN_POINT('',(0.,-0.312766721942));
#872 = VECTOR('',#873,1.);
#873 = DIRECTION('',(1.,0.));
#874 = ( GEOMETRIC_REPRESENTATION_CONTEXT(2) 
PARAMETRIC_REPRESENTATION_CONTEXT() REPRESENTATION_CONTEXT('2D SPACE',''
  ) );
#875 = PCURVE('',#634,#876);
#876 = DEFINITIONAL_REPRESENTATION('',(#877),#881);
#877 = CIRCLE('',#878,6.184658438426);
#878 = AXIS2_PLACEMENT_2D('',#879,#880);
#879 = CARTESIAN_POINT('',(18.106601717798,9.62132034356));
#880 = DIRECTION('',(0.707106781187,-0.707106781187));
#881 = ( GEOMETRIC_REPRESENTATION_CONTEXT(2) 
PARAMETRIC_REPRESENTATION_CONTEXT() REPRESENTATION_CONTEXT('2D SPACE',''
  ) );
#882 = ORIENTED_EDGE('',*,*,#539,.T.);
#883 = ORIENTED_EDGE('',*,*,#436,.T.);
#884 = ORIENTED_EDGE('',*,*,#885,.F.);
#885 = EDGE_CURVE('',#715,#408,#886,.T.);
#886 = SURFACE_CURVE('',#887,(#892,#899),.PCURVE_S1.);
#887 = CIRCLE('',#888,6.184658438426);
#888 = AXIS2_PLACEMENT_3D('',#889,#890,#891);
#889 = CARTESIAN_POINT('',(6.,3.,-2.));
#890 = DIRECTION('',(0.,0.,1.));
#891 = DIRECTION('',(1.,0.,-0.));
#892 = PCURVE('',#94,#893);
#893 = DEFINITIONAL_REPRESENTATION('',(#894),#898);
#894 = LINE('',#895,#896);
#895 = CARTESIAN_POINT('',(0.,-0.312766721942));
#896 = VECTOR('',#897,1.);
#897 = DIRECTION('',(1.,0.));
#898 = ( GEOMETRIC_REPRESENTATION_CONTEXT(2) 
PARAMETRIC_REPRESENTATION_CONTEXT() REPRESENTATION_CONTEXT('2D SPACE',''
  ) );
#899 = PCURVE('',#424,#900);
#900 = DEFINITIONAL_REPRESENTATION('',(#901),#905);
#901 = CIRCLE('',#902,6.184658438426);
#902 = AXIS2_PLACEMENT_2D('',#903,#904);
#903 = CARTESIAN_POINT('',(18.106601717798,9.62132034356));
#904 = DIRECTION('',(0.707106781187,-0.707106781187));
#905 = ( GEOMETRIC_REPRESENTATION_CONTEXT(2) 
PARAMETRIC_REPRESENTATION_CONTEXT() REPRESENTATION_CONTEXT('2D SPACE',''
  ) );
#906 = ADVANCED_FACE('',(#907),#695,.T.);
#907 = FACE_BOUND('',#908,.T.);
#908 = EDGE_LOOP('',(#909,#932,#960,#988,#1009,#1010));
#909 = ORIENTED_EDGE('',*,*,#910,.F.);
#910 = EDGE_CURVE('',#911,#647,#913,.T.);
#911 = VERTEX_POINT('',#912);
#912 = CARTESIAN_POINT('',(-10.60660171779,-6.,2.));
#913 = SURFACE_CURVE('',#914,(#918,#925),.PCURVE_S1.);
#914 = LINE('',#915,#916);
#915 = CARTESIAN_POINT('',(-10.60660171779,-6.,2.));
#916 = VECTOR('',#917,1.);
#917 = DIRECTION('',(0.707106781187,0.707106781187,0.));
#918 = PCURVE('',#695,#919);
#919 = DEFINITIONAL_REPRESENTATION('',(#920),#924);
#920 = LINE('',#921,#922);
#921 = CARTESIAN_POINT('',(-8.881784197001E-16,15.));
#922 = VECTOR('',#923,1.);
#923 = DIRECTION('',(1.,0.));
#924 = ( GEOMETRIC_REPRESENTATION_CONTEXT(2) 
PARAMETRIC_REPRESENTATION_CONTEXT() REPRESENTATION_CONTEXT('2D SPACE',''
  ) );
#925 = PCURVE('',#668,#926);
#926 = DEFINITIONAL_REPRESENTATION('',(#927),#931);
#927 = LINE('',#928,#929);
#928 = CARTESIAN_POINT('',(4.,0.));
#929 = VECTOR('',#930,1.);
#930 = DIRECTION('',(0.,1.));
#931 = ( GEOMETRIC_REPRESENTATION_CONTEXT(2) 
PARAMETRIC_REPRESENTATION_CONTEXT() REPRESENTATION_CONTEXT('2D SPACE',''
  ) );
#932 = ORIENTED_EDGE('',*,*,#933,.F.);
#933 = EDGE_CURVE('',#934,#911,#936,.T.);
#934 = VERTEX_POINT('',#935);
#935 = CARTESIAN_POINT('',(-8.881784197001E-16,-16.60660171779,2.));
#936 = SURFACE_CURVE('',#937,(#941,#948),.PCURVE_S1.);
#937 = LINE('',#938,#939);
#938 = CARTESIAN_POINT('',(-8.881784197001E-16,-16.60660171779,2.));
#939 = VECTOR('',#940,1.);
#940 = DIRECTION('',(-0.707106781187,0.707106781187,0.));
#941 = PCURVE('',#695,#942);
#942 = DEFINITIONAL_REPRESENTATION('',(#943),#947);
#943 = LINE('',#944,#945);
#944 = CARTESIAN_POINT('',(0.,0.));
#945 = VECTOR('',#946,1.);
#946 = DIRECTION('',(0.,1.));
#947 = ( GEOMETRIC_REPRESENTATION_CONTEXT(2) 
PARAMETRIC_REPRESENTATION_CONTEXT() REPRESENTATION_CONTEXT('2D SPACE',''
  ) );
#948 = PCURVE('',#949,#954);
#949 = PLANE('',#950);
#950 = AXIS2_PLACEMENT_3D('',#951,#952,#953);
#951 = CARTESIAN_POINT('',(-8.881784197001E-16,-16.60660171779,-2.));
#952 = DIRECTION('',(0.707106781187,0.707106781187,0.));
#953 = DIRECTION('',(0.,0.,1.));
#954 = DEFINITIONAL_REPRESENTATION('',(#955),#959);
#955 = LINE('',#956,#957);
#956 = CARTESIAN_POINT('',(4.,0.));
#957 = VECTOR('',#958,1.);
#958 = DIRECTION('',(0.,-1.));
#959 = ( GEOMETRIC_REPRESENTATION_CONTEXT(2) 
PARAMETRIC_REPRESENTATION_CONTEXT() REPRESENTATION_CONTEXT('2D SPACE',''
  ) );
#960 = ORIENTED_EDGE('',*,*,#961,.T.);
#961 = EDGE_CURVE('',#934,#962,#964,.T.);
#962 = VERTEX_POINT('',#963);
#963 = CARTESIAN_POINT('',(10.606601717798,-6.,2.));
#964 = SURFACE_CURVE('',#965,(#969,#976),.PCURVE_S1.);
#965 = LINE('',#966,#967);
#966 = CARTESIAN_POINT('',(-8.881784197001E-16,-16.60660171779,2.));
#967 = VECTOR('',#968,1.);
#968 = DIRECTION('',(0.707106781187,0.707106781187,0.));
#969 = PCURVE('',#695,#970);
#970 = DEFINITIONAL_REPRESENTATION('',(#971),#975);
#971 = LINE('',#972,#973);
#972 = CARTESIAN_POINT('',(0.,0.));
#973 = VECTOR('',#974,1.);
#974 = DIRECTION('',(1.,0.));
#975 = ( GEOMETRIC_REPRESENTATION_CONTEXT(2) 
PARAMETRIC_REPRESENTATION_CONTEXT() REPRESENTATION_CONTEXT('2D SPACE',''
  ) );
#976 = PCURVE('',#977,#982);
#977 = PLANE('',#978);
#978 = AXIS2_PLACEMENT_3D('',#979,#980,#981);
#979 = CARTESIAN_POINT('',(-8.881784197001E-16,-16.60660171779,-2.));
#980 = DIRECTION('',(-0.707106781187,0.707106781187,0.));
#981 = DIRECTION('',(0.,0.,1.));
#982 = DEFINITIONAL_REPRESENTATION('',(#983),#987);
#983 = LINE('',#984,#985);
#984 = CARTESIAN_POINT('',(4.,0.));
#985 = VECTOR('',#986,1.);
#986 = DIRECTION('',(0.,1.));
#987 = ( GEOMETRIC_REPRESENTATION_CONTEXT(2) 
PARAMETRIC_REPRESENTATION_CONTEXT() REPRESENTATION_CONTEXT('2D SPACE',''
  ) );
#988 = ORIENTED_EDGE('',*,*,#989,.T.);
#989 = EDGE_CURVE('',#962,#804,#990,.T.);
#990 = SURFACE_CURVE('',#991,(#995,#1002),.PCURVE_S1.);
#991 = LINE('',#992,#993);
#992 = CARTESIAN_POINT('',(10.606601717798,-6.,2.));
#993 = VECTOR('',#994,1.);
#994 = DIRECTION('',(-0.707106781187,0.707106781187,0.));
#995 = PCURVE('',#695,#996);
#996 = DEFINITIONAL_REPRESENTATION('',(#997),#1001);
#997 = LINE('',#998,#999);
#998 = CARTESIAN_POINT('',(15.,8.881784197001E-16));
#999 = VECTOR('',#1000,1.);
#1000 = DIRECTION('',(0.,1.));
#1001 = ( GEOMETRIC_REPRESENTATION_CONTEXT(2) 
PARAMETRIC_REPRESENTATION_CONTEXT() REPRESENTATION_CONTEXT('2D SPACE',''
  ) );
#1002 = PCURVE('',#849,#1003);
#1003 = DEFINITIONAL_REPRESENTATION('',(#1004),#1008);
#1004 = LINE('',#1005,#1006);
#1005 = CARTESIAN_POINT('',(4.,0.));
#1006 = VECTOR('',#1007,1.);
#1007 = DIRECTION('',(0.,-1.));
#1008 = ( GEOMETRIC_REPRESENTATION_CONTEXT(2) 
PARAMETRIC_REPRESENTATION_CONTEXT() REPRESENTATION_CONTEXT('2D SPACE',''
  ) );
#1009 = ORIENTED_EDGE('',*,*,#803,.F.);
#1010 = ORIENTED_EDGE('',*,*,#680,.F.);
#1011 = ADVANCED_FACE('',(#1012),#668,.T.);
#1012 = FACE_BOUND('',#1013,.T.);
#1013 = EDGE_LOOP('',(#1014,#1037,#1058,#1059));
#1014 = ORIENTED_EDGE('',*,*,#1015,.F.);
#1015 = EDGE_CURVE('',#1016,#618,#1018,.T.);
#1016 = VERTEX_POINT('',#1017);
#1017 = CARTESIAN_POINT('',(-10.60660171779,-6.,-2.));
#1018 = SURFACE_CURVE('',#1019,(#1023,#1030),.PCURVE_S1.);
#1019 = LINE('',#1020,#1021);
#1020 = CARTESIAN_POINT('',(-10.60660171779,-6.,-2.));
#1021 = VECTOR('',#1022,1.);
#1022 = DIRECTION('',(0.707106781187,0.707106781187,0.));
#1023 = PCURVE('',#668,#1024);
#1024 = DEFINITIONAL_REPRESENTATION('',(#1025),#1029);
#1025 = LINE('',#1026,#1027);
#1026 = CARTESIAN_POINT('',(0.,0.));
#1027 = VECTOR('',#1028,1.);
#1028 = DIRECTION('',(0.,1.));
#1029 = ( GEOMETRIC_REPRESENTATION_CONTEXT(2) 
PARAMETRIC_REPRESENTATION_CONTEXT() REPRESENTATION_CONTEXT('2D SPACE',''
  ) );
#1030 = PCURVE('',#634,#1031);
#1031 = DEFINITIONAL_REPRESENTATION('',(#1032),#1036);
#1032 = LINE('',#1033,#1034);
#1033 = CARTESIAN_POINT('',(-8.881784197001E-16,15.));
#1034 = VECTOR('',#1035,1.);
#1035 = DIRECTION('',(1.,0.));
#1036 = ( GEOMETRIC_REPRESENTATION_CONTEXT(2) 
PARAMETRIC_REPRESENTATION_CONTEXT() REPRESENTATION_CONTEXT('2D SPACE',''
  ) );
#1037 = ORIENTED_EDGE('',*,*,#1038,.T.);
#1038 = EDGE_CURVE('',#1016,#911,#1039,.T.);
#1039 = SURFACE_CURVE('',#1040,(#1044,#1051),.PCURVE_S1.);
#1040 = LINE('',#1041,#1042);
#1041 = CARTESIAN_POINT('',(-10.60660171779,-6.,-2.));
#1042 = VECTOR('',#1043,1.);
#1043 = DIRECTION('',(0.,0.,1.));
#1044 = PCURVE('',#668,#1045);
#1045 = DEFINITIONAL_REPRESENTATION('',(#1046),#1050);
#1046 = LINE('',#1047,#1048);
#1047 = CARTESIAN_POINT('',(0.,0.));
#1048 = VECTOR('',#1049,1.);
#1049 = DIRECTION('',(1.,0.));
#1050 = ( GEOMETRIC_REPRESENTATION_CONTEXT(2) 
PARAMETRIC_REPRESENTATION_CONTEXT() REPRESENTATION_CONTEXT('2D SPACE',''
  ) );
#1051 = PCURVE('',#949,#1052);
#1052 = DEFINITIONAL_REPRESENTATION('',(#1053),#1057);
#1053 = LINE('',#1054,#1055);
#1054 = CARTESIAN_POINT('',(0.,-15.));
#1055 = VECTOR('',#1056,1.);
#1056 = DIRECTION('',(1.,0.));
#1057 = ( GEOMETRIC_REPRESENTATION_CONTEXT(2) 
PARAMETRIC_REPRESENTATION_CONTEXT() REPRESENTATION_CONTEXT('2D SPACE',''
  ) );
#1058 = ORIENTED_EDGE('',*,*,#910,.T.);
#1059 = ORIENTED_EDGE('',*,*,#646,.F.);
#1060 = ADVANCED_FACE('',(#1061),#634,.F.);
#1061 = FACE_BOUND('',#1062,.F.);
#1062 = EDGE_LOOP('',(#1063,#1064,#1087,#1110,#1131,#1132));
#1063 = ORIENTED_EDGE('',*,*,#1015,.F.);
#1064 = ORIENTED_EDGE('',*,*,#1065,.F.);
#1065 = EDGE_CURVE('',#1066,#1016,#1068,.T.);
#1066 = VERTEX_POINT('',#1067);
#1067 = CARTESIAN_POINT('',(-8.881784197001E-16,-16.60660171779,-2.));
#1068 = SURFACE_CURVE('',#1069,(#1073,#1080),.PCURVE_S1.);
#1069 = LINE('',#1070,#1071);
#1070 = CARTESIAN_POINT('',(-8.881784197001E-16,-16.60660171779,-2.));
#1071 = VECTOR('',#1072,1.);
#1072 = DIRECTION('',(-0.707106781187,0.707106781187,0.));
#1073 = PCURVE('',#634,#1074);
#1074 = DEFINITIONAL_REPRESENTATION('',(#1075),#1079);
#1075 = LINE('',#1076,#1077);
#1076 = CARTESIAN_POINT('',(0.,0.));
#1077 = VECTOR('',#1078,1.);
#1078 = DIRECTION('',(0.,1.));
#1079 = ( GEOMETRIC_REPRESENTATION_CONTEXT(2) 
PARAMETRIC_REPRESENTATION_CONTEXT() REPRESENTATION_CONTEXT('2D SPACE',''
  ) );
#1080 = PCURVE('',#949,#1081);
#1081 = DEFINITIONAL_REPRESENTATION('',(#1082),#1086);
#1082 = LINE('',#1083,#1084);
#1083 = CARTESIAN_POINT('',(0.,0.));
#1084 = VECTOR('',#1085,1.);
#1085 = DIRECTION('',(0.,-1.));
#1086 = ( GEOMETRIC_REPRESENTATION_CONTEXT(2) 
PARAMETRIC_REPRESENTATION_CONTEXT() REPRESENTATION_CONTEXT('2D SPACE',''
  ) );
#1087 = ORIENTED_EDGE('',*,*,#1088,.T.);
#1088 = EDGE_CURVE('',#1066,#1089,#1091,.T.);
#1089 = VERTEX_POINT('',#1090);
#1090 = CARTESIAN_POINT('',(10.606601717798,-6.,-2.));
#1091 = SURFACE_CURVE('',#1092,(#1096,#1103),.PCURVE_S1.);
#1092 = LINE('',#1093,#1094);
#1093 = CARTESIAN_POINT('',(-8.881784197001E-16,-16.60660171779,-2.));
#1094 = VECTOR('',#1095,1.);
#1095 = DIRECTION('',(0.707106781187,0.707106781187,0.));
#1096 = PCURVE('',#634,#1097);
#1097 = DEFINITIONAL_REPRESENTATION('',(#1098),#1102);
#1098 = LINE('',#1099,#1100);
#1099 = CARTESIAN_POINT('',(0.,0.));
#1100 = VECTOR('',#1101,1.);
#1101 = DIRECTION('',(1.,0.));
#1102 = ( GEOMETRIC_REPRESENTATION_CONTEXT(2) 
PARAMETRIC_REPRESENTATION_CONTEXT() REPRESENTATION_CONTEXT('2D SPACE',''
  ) );
#1103 = PCURVE('',#977,#1104);
#1104 = DEFINITIONAL_REPRESENTATION('',(#1105),#1109);
#1105 = LINE('',#1106,#1107);
#1106 = CARTESIAN_POINT('',(0.,0.));
#1107 = VECTOR('',#1108,1.);
#1108 = DIRECTION('',(0.,1.));
#1109 = ( GEOMETRIC_REPRESENTATION_CONTEXT(2) 
PARAMETRIC_REPRESENTATION_CONTEXT() REPRESENTATION_CONTEXT('2D SPACE',''
  ) );
#1110 = ORIENTED_EDGE('',*,*,#1111,.T.);
#1111 = EDGE_CURVE('',#1089,#828,#1112,.T.);
#1112 = SURFACE_CURVE('',#1113,(#1117,#1124),.PCURVE_S1.);
#1113 = LINE('',#1114,#1115);
#1114 = CARTESIAN_POINT('',(10.606601717798,-6.,-2.));
#1115 = VECTOR('',#1116,1.);
#1116 = DIRECTION('',(-0.707106781187,0.707106781187,0.));
#1117 = PCURVE('',#634,#1118);
#1118 = DEFINITIONAL_REPRESENTATION('',(#1119),#1123);
#1119 = LINE('',#1120,#1121);
#1120 = CARTESIAN_POINT('',(15.,8.881784197001E-16));
#1121 = VECTOR('',#1122,1.);
#1122 = DIRECTION('',(0.,1.));
#1123 = ( GEOMETRIC_REPRESENTATION_CONTEXT(2) 
PARAMETRIC_REPRESENTATION_CONTEXT() REPRESENTATION_CONTEXT('2D SPACE',''
  ) );
#1124 = PCURVE('',#849,#1125);
#1125 = DEFINITIONAL_REPRESENTATION('',(#1126),#1130);
#1126 = LINE('',#1127,#1128);
#1127 = CARTESIAN_POINT('',(0.,0.));
#1128 = VECTOR('',#1129,1.);
#1129 = DIRECTION('',(0.,-1.));
#1130 = ( GEOMETRIC_REPRESENTATION_CONTEXT(2) 
PARAMETRIC_REPRESENTATION_CONTEXT() REPRESENTATION_CONTEXT('2D SPACE',''
  ) );
#1131 = ORIENTED_EDGE('',*,*,#861,.F.);
#1132 = ORIENTED_EDGE('',*,*,#617,.F.);
#1133 = ADVANCED_FACE('',(#1134),#424,.F.);
#1134 = FACE_BOUND('',#1135,.F.);
#1135 = EDGE_LOOP('',(#1136,#1159,#1160,#1161));
#1136 = ORIENTED_EDGE('',*,*,#1137,.F.);
#1137 = EDGE_CURVE('',#376,#1138,#1140,.T.);
#1138 = VERTEX_POINT('',#1139);
#1139 = CARTESIAN_POINT('',(8.881784197001E-16,4.606601717798,-2.));
#1140 = SURFACE_CURVE('',#1141,(#1145,#1152),.PCURVE_S1.);
#1141 = LINE('',#1142,#1143);
#1142 = CARTESIAN_POINT('',(-10.60660171779,-6.,-2.));
#1143 = VECTOR('',#1144,1.);
#1144 = DIRECTION('',(0.707106781187,0.707106781187,0.));
#1145 = PCURVE('',#424,#1146);
#1146 = DEFINITIONAL_REPRESENTATION('',(#1147),#1151);
#1147 = LINE('',#1148,#1149);
#1148 = CARTESIAN_POINT('',(-8.881784197001E-16,15.));
#1149 = VECTOR('',#1150,1.);
#1150 = DIRECTION('',(1.,0.));
#1151 = ( GEOMETRIC_REPRESENTATION_CONTEXT(2) 
PARAMETRIC_REPRESENTATION_CONTEXT() REPRESENTATION_CONTEXT('2D SPACE',''
  ) );
#1152 = PCURVE('',#395,#1153);
#1153 = DEFINITIONAL_REPRESENTATION('',(#1154),#1158);
#1154 = LINE('',#1155,#1156);
#1155 = CARTESIAN_POINT('',(0.,0.));
#1156 = VECTOR('',#1157,1.);
#1157 = DIRECTION('',(0.,1.));
#1158 = ( GEOMETRIC_REPRESENTATION_CONTEXT(2) 
PARAMETRIC_REPRESENTATION_CONTEXT() REPRESENTATION_CONTEXT('2D SPACE',''
  ) );
#1159 = ORIENTED_EDGE('',*,*,#407,.F.);
#1160 = ORIENTED_EDGE('',*,*,#885,.F.);
#1161 = ORIENTED_EDGE('',*,*,#1162,.T.);
#1162 = EDGE_CURVE('',#715,#1138,#1163,.T.);
#1163 = SURFACE_CURVE('',#1164,(#1168,#1175),.PCURVE_S1.);
#1164 = LINE('',#1165,#1166);
#1165 = CARTESIAN_POINT('',(10.606601717798,-6.,-2.));
#1166 = VECTOR('',#1167,1.);
#1167 = DIRECTION('',(-0.707106781187,0.707106781187,0.));
#1168 = PCURVE('',#424,#1169);
#1169 = DEFINITIONAL_REPRESENTATION('',(#1170),#1174);
#1170 = LINE('',#1171,#1172);
#1171 = CARTESIAN_POINT('',(15.,8.881784197001E-16));
#1172 = VECTOR('',#1173,1.);
#1173 = DIRECTION('',(0.,1.));
#1174 = ( GEOMETRIC_REPRESENTATION_CONTEXT(2) 
PARAMETRIC_REPRESENTATION_CONTEXT() REPRESENTATION_CONTEXT('2D SPACE',''
  ) );
#1175 = PCURVE('',#734,#1176);
#1176 = DEFINITIONAL_REPRESENTATION('',(#1177),#1181);
#1177 = LINE('',#1178,#1179);
#1178 = CARTESIAN_POINT('',(0.,0.));
#1179 = VECTOR('',#1180,1.);
#1180 = DIRECTION('',(0.,-1.));
#1181 = ( GEOMETRIC_REPRESENTATION_CONTEXT(2) 
PARAMETRIC_REPRESENTATION_CONTEXT() REPRESENTATION_CONTEXT('2D SPACE',''
  ) );
#1182 = ADVANCED_FACE('',(#1183),#395,.T.);
#1183 = FACE_BOUND('',#1184,.T.);
#1184 = EDGE_LOOP('',(#1185,#1186,#1187));
#1185 = ORIENTED_EDGE('',*,*,#1137,.F.);
#1186 = ORIENTED_EDGE('',*,*,#375,.F.);
#1187 = ORIENTED_EDGE('',*,*,#1188,.F.);
#1188 = EDGE_CURVE('',#1138,#298,#1189,.T.);
#1189 = SURFACE_CURVE('',#1190,(#1194,#1201),.PCURVE_S1.);
#1190 = LINE('',#1191,#1192);
#1191 = CARTESIAN_POINT('',(8.881784197001E-16,4.606601717798,-2.));
#1192 = VECTOR('',#1193,1.);
#1193 = DIRECTION('',(0.,0.,1.));
#1194 = PCURVE('',#395,#1195);
#1195 = DEFINITIONAL_REPRESENTATION('',(#1196),#1200);
#1196 = LINE('',#1197,#1198);
#1197 = CARTESIAN_POINT('',(0.,15.));
#1198 = VECTOR('',#1199,1.);
#1199 = DIRECTION('',(1.,0.));
#1200 = ( GEOMETRIC_REPRESENTATION_CONTEXT(2) 
PARAMETRIC_REPRESENTATION_CONTEXT() REPRESENTATION_CONTEXT('2D SPACE',''
  ) );
#1201 = PCURVE('',#734,#1202);
#1202 = DEFINITIONAL_REPRESENTATION('',(#1203),#1207);
#1203 = LINE('',#1204,#1205);
#1204 = CARTESIAN_POINT('',(0.,-15.));
#1205 = VECTOR('',#1206,1.);
#1206 = DIRECTION('',(1.,0.));
#1207 = ( GEOMETRIC_REPRESENTATION_CONTEXT(2) 
PARAMETRIC_REPRESENTATION_CONTEXT() REPRESENTATION_CONTEXT('2D SPACE',''
  ) );
#1208 = ADVANCED_FACE('',(#1209),#285,.T.);
#1209 = FACE_BOUND('',#1210,.T.);
#1210 = EDGE_LOOP('',(#1211,#1212,#1235));
#1211 = ORIENTED_EDGE('',*,*,#265,.F.);
#1212 = ORIENTED_EDGE('',*,*,#1213,.T.);
#1213 = EDGE_CURVE('',#237,#1214,#1216,.T.);
#1214 = VERTEX_POINT('',#1215);
#1215 = CARTESIAN_POINT('',(8.881784197001E-16,4.606601717798,2.));
#1216 = SURFACE_CURVE('',#1217,(#1221,#1228),.PCURVE_S1.);
#1217 = LINE('',#1218,#1219);
#1218 = CARTESIAN_POINT('',(-10.60660171779,-6.,2.));
#1219 = VECTOR('',#1220,1.);
#1220 = DIRECTION('',(0.707106781187,0.707106781187,0.));
#1221 = PCURVE('',#285,#1222);
#1222 = DEFINITIONAL_REPRESENTATION('',(#1223),#1227);
#1223 = LINE('',#1224,#1225);
#1224 = CARTESIAN_POINT('',(4.,0.));
#1225 = VECTOR('',#1226,1.);
#1226 = DIRECTION('',(0.,1.));
#1227 = ( GEOMETRIC_REPRESENTATION_CONTEXT(2) 
PARAMETRIC_REPRESENTATION_CONTEXT() REPRESENTATION_CONTEXT('2D SPACE',''
  ) );
#1228 = PCURVE('',#253,#1229);
#1229 = DEFINITIONAL_REPRESENTATION('',(#1230),#1234);
#1230 = LINE('',#1231,#1232);
#1231 = CARTESIAN_POINT('',(-8.881784197001E-16,15.));
#1232 = VECTOR('',#1233,1.);
#1233 = DIRECTION('',(1.,0.));
#1234 = ( GEOMETRIC_REPRESENTATION_CONTEXT(2) 
PARAMETRIC_REPRESENTATION_CONTEXT() REPRESENTATION_CONTEXT('2D SPACE',''
  ) );
#1235 = ORIENTED_EDGE('',*,*,#1236,.F.);
#1236 = EDGE_CURVE('',#266,#1214,#1237,.T.);
#1237 = SURFACE_CURVE('',#1238,(#1242,#1249),.PCURVE_S1.);
#1238 = LINE('',#1239,#1240);
#1239 = CARTESIAN_POINT('',(8.881784197001E-16,4.606601717798,-2.));
#1240 = VECTOR('',#1241,1.);
#1241 = DIRECTION('',(0.,0.,1.));
#1242 = PCURVE('',#285,#1243);
#1243 = DEFINITIONAL_REPRESENTATION('',(#1244),#1248);
#1244 = LINE('',#1245,#1246);
#1245 = CARTESIAN_POINT('',(0.,15.));
#1246 = VECTOR('',#1247,1.);
#1247 = DIRECTION('',(1.,0.));
#1248 = ( GEOMETRIC_REPRESENTATION_CONTEXT(2) 
PARAMETRIC_REPRESENTATION_CONTEXT() REPRESENTATION_CONTEXT('2D SPACE',''
  ) );
#1249 = PCURVE('',#767,#1250);
#1250 = DEFINITIONAL_REPRESENTATION('',(#1251),#1255);
#1251 = LINE('',#1252,#1253);
#1252 = CARTESIAN_POINT('',(0.,-15.));
#1253 = VECTOR('',#1254,1.);
#1254 = DIRECTION('',(1.,0.));
#1255 = ( GEOMETRIC_REPRESENTATION_CONTEXT(2) 
PARAMETRIC_REPRESENTATION_CONTEXT() REPRESENTATION_CONTEXT('2D SPACE',''
  ) );
#1256 = ADVANCED_FACE('',(#1257),#253,.T.);
#1257 = FACE_BOUND('',#1258,.T.);
#1258 = EDGE_LOOP('',(#1259,#1260,#1261,#1262));
#1259 = ORIENTED_EDGE('',*,*,#1213,.F.);
#1260 = ORIENTED_EDGE('',*,*,#236,.F.);
#1261 = ORIENTED_EDGE('',*,*,#779,.F.);
#1262 = ORIENTED_EDGE('',*,*,#1263,.T.);
#1263 = EDGE_CURVE('',#748,#1214,#1264,.T.);
#1264 = SURFACE_CURVE('',#1265,(#1269,#1276),.PCURVE_S1.);
#1265 = LINE('',#1266,#1267);
#1266 = CARTESIAN_POINT('',(10.606601717798,-6.,2.));
#1267 = VECTOR('',#1268,1.);
#1268 = DIRECTION('',(-0.707106781187,0.707106781187,0.));
#1269 = PCURVE('',#253,#1270);
#1270 = DEFINITIONAL_REPRESENTATION('',(#1271),#1275);
#1271 = LINE('',#1272,#1273);
#1272 = CARTESIAN_POINT('',(15.,8.881784197001E-16));
#1273 = VECTOR('',#1274,1.);
#1274 = DIRECTION('',(0.,1.));
#1275 = ( GEOMETRIC_REPRESENTATION_CONTEXT(2) 
PARAMETRIC_REPRESENTATION_CONTEXT() REPRESENTATION_CONTEXT('2D SPACE',''
  ) );
#1276 = PCURVE('',#767,#1277);
#1277 = DEFINITIONAL_REPRESENTATION('',(#1278),#1282);
#1278 = LINE('',#1279,#1280);
#1279 = CARTESIAN_POINT('',(4.,0.));
#1280 = VECTOR('',#1281,1.);
#1281 = DIRECTION('',(0.,-1.));
#1282 = ( GEOMETRIC_REPRESENTATION_CONTEXT(2) 
PARAMETRIC_REPRESENTATION_CONTEXT() REPRESENTATION_CONTEXT('2D SPACE',''
  ) );
#1283 = ADVANCED_FACE('',(#1284),#734,.T.);
#1284 = FACE_BOUND('',#1285,.T.);
#1285 = EDGE_LOOP('',(#1286,#1287,#1288));
#1286 = ORIENTED_EDGE('',*,*,#714,.F.);
#1287 = ORIENTED_EDGE('',*,*,#1162,.T.);
#1288 = ORIENTED_EDGE('',*,*,#1188,.T.);
#1289 = ADVANCED_FACE('',(#1290),#849,.T.);
#1290 = FACE_BOUND('',#1291,.T.);
#1291 = EDGE_LOOP('',(#1292,#1293,#1314,#1315));
#1292 = ORIENTED_EDGE('',*,*,#989,.F.);
#1293 = ORIENTED_EDGE('',*,*,#1294,.F.);
#1294 = EDGE_CURVE('',#1089,#962,#1295,.T.);
#1295 = SURFACE_CURVE('',#1296,(#1300,#1307),.PCURVE_S1.);
#1296 = LINE('',#1297,#1298);
#1297 = CARTESIAN_POINT('',(10.606601717798,-6.,-2.));
#1298 = VECTOR('',#1299,1.);
#1299 = DIRECTION('',(0.,0.,1.));
#1300 = PCURVE('',#849,#1301);
#1301 = DEFINITIONAL_REPRESENTATION('',(#1302),#1306);
#1302 = LINE('',#1303,#1304);
#1303 = CARTESIAN_POINT('',(0.,0.));
#1304 = VECTOR('',#1305,1.);
#1305 = DIRECTION('',(1.,0.));
#1306 = ( GEOMETRIC_REPRESENTATION_CONTEXT(2) 
PARAMETRIC_REPRESENTATION_CONTEXT() REPRESENTATION_CONTEXT('2D SPACE',''
  ) );
#1307 = PCURVE('',#977,#1308);
#1308 = DEFINITIONAL_REPRESENTATION('',(#1309),#1313);
#1309 = LINE('',#1310,#1311);
#1310 = CARTESIAN_POINT('',(0.,15.));
#1311 = VECTOR('',#1312,1.);
#1312 = DIRECTION('',(1.,0.));
#1313 = ( GEOMETRIC_REPRESENTATION_CONTEXT(2) 
PARAMETRIC_REPRESENTATION_CONTEXT() REPRESENTATION_CONTEXT('2D SPACE',''
  ) );
#1314 = ORIENTED_EDGE('',*,*,#1111,.T.);
#1315 = ORIENTED_EDGE('',*,*,#827,.F.);
#1316 = ADVANCED_FACE('',(#1317),#767,.T.);
#1317 = FACE_BOUND('',#1318,.T.);
#1318 = EDGE_LOOP('',(#1319,#1320,#1321));
#1319 = ORIENTED_EDGE('',*,*,#1263,.F.);
#1320 = ORIENTED_EDGE('',*,*,#747,.F.);
#1321 = ORIENTED_EDGE('',*,*,#1236,.T.);
#1322 = ADVANCED_FACE('',(#1323),#977,.F.);
#1323 = FACE_BOUND('',#1324,.F.);
#1324 = EDGE_LOOP('',(#1325,#1326,#1347,#1348));
#1325 = ORIENTED_EDGE('',*,*,#1088,.F.);
#1326 = ORIENTED_EDGE('',*,*,#1327,.T.);
#1327 = EDGE_CURVE('',#1066,#934,#1328,.T.);
#1328 = SURFACE_CURVE('',#1329,(#1333,#1340),.PCURVE_S1.);
#1329 = LINE('',#1330,#1331);
#1330 = CARTESIAN_POINT('',(-8.881784197001E-16,-16.60660171779,-2.));
#1331 = VECTOR('',#1332,1.);
#1332 = DIRECTION('',(0.,0.,1.));
#1333 = PCURVE('',#977,#1334);
#1334 = DEFINITIONAL_REPRESENTATION('',(#1335),#1339);
#1335 = LINE('',#1336,#1337);
#1336 = CARTESIAN_POINT('',(0.,0.));
#1337 = VECTOR('',#1338,1.);
#1338 = DIRECTION('',(1.,0.));
#1339 = ( GEOMETRIC_REPRESENTATION_CONTEXT(2) 
PARAMETRIC_REPRESENTATION_CONTEXT() REPRESENTATION_CONTEXT('2D SPACE',''
  ) );
#1340 = PCURVE('',#949,#1341);
#1341 = DEFINITIONAL_REPRESENTATION('',(#1342),#1346);
#1342 = LINE('',#1343,#1344);
#1343 = CARTESIAN_POINT('',(0.,0.));
#1344 = VECTOR('',#1345,1.);
#1345 = DIRECTION('',(1.,0.));
#1346 = ( GEOMETRIC_REPRESENTATION_CONTEXT(2) 
PARAMETRIC_REPRESENTATION_CONTEXT() REPRESENTATION_CONTEXT('2D SPACE',''
  ) );
#1347 = ORIENTED_EDGE('',*,*,#961,.T.);
#1348 = ORIENTED_EDGE('',*,*,#1294,.F.);
#1349 = ADVANCED_FACE('',(#1350),#949,.F.);
#1350 = FACE_BOUND('',#1351,.F.);
#1351 = EDGE_LOOP('',(#1352,#1353,#1354,#1355));
#1352 = ORIENTED_EDGE('',*,*,#1327,.F.);
#1353 = ORIENTED_EDGE('',*,*,#1065,.T.);
#1354 = ORIENTED_EDGE('',*,*,#1038,.T.);
#1355 = ORIENTED_EDGE('',*,*,#933,.F.);
#1356 = ( GEOMETRIC_REPRESENTATION_CONTEXT(3) 
GLOBAL_UNCERTAINTY_ASSIGNED_CONTEXT((#1360)) 
GLOBAL_UNIT_ASSIGNED_CONTEXT((#1357,#1358,#1359)) REPRESENTATION_CONTEXT
('Context #1','3D Context with UNIT and UNCERTAINTY') );
#1357 = ( LENGTH_UNIT() NAMED_UNIT(*) SI_UNIT(.MILLI.,.METRE.) );
#1358 = ( NAMED_UNIT(*) PLANE_ANGLE_UNIT() SI_UNIT($,.RADIAN.) );
#1359 = ( NAMED_UNIT(*) SI_UNIT($,.STERADIAN.) SOLID_ANGLE_UNIT() );
#1360 = UNCERTAINTY_MEASURE_WITH_UNIT(LENGTH_MEASURE(1.E-07),#1357,
  'distance_accuracy_value','confusion accuracy');
#1361 = CONTEXT_DEPENDENT_SHAPE_REPRESENTATION(#1362,#1364);
#1362 = ( REPRESENTATION_RELATIONSHIP('','',#36,#10) 
REPRESENTATION_RELATIONSHIP_WITH_TRANSFORMATION(#1363) 
SHAPE_REPRESENTATION_RELATIONSHIP() );
#1363 = ITEM_DEFINED_TRANSFORMATION('','',#11,#15);
#1364 = PRODUCT_DEFINITION_SHAPE('Placement','Placement of an item',
  #1365);
#1365 = NEXT_ASSEMBLY_USAGE_OCCURRENCE('1','','',#5,#31,$);
#1366 = PRODUCT_RELATED_PRODUCT_CATEGORY('part',$,(#33));
#1367 = SHAPE_DEFINITION_REPRESENTATION(#1368,#1374);
#1368 = PRODUCT_DEFINITION_SHAPE('','',#1369);
#1369 = PRODUCT_DEFINITION('design','',#1370,#1373);
#1370 = PRODUCT_DEFINITION_FORMATION('','',#1371);
#1371 = PRODUCT('Open CASCADE STEP translator 7.8 1.2',
  'Open CASCADE STEP translator 7.8 1.2','',(#1372));
#1372 = PRODUCT_CONTEXT('',#2,'mechanical');
#1373 = PRODUCT_DEFINITION_CONTEXT('part definition',#2,'design');
#1374 = ADVANCED_BREP_SHAPE_REPRESENTATION('',(#11,#1375),#1557);
#1375 = MANIFOLD_SOLID_BREP('',#1376);
#1376 = CLOSED_SHELL('',(#1377,#1465,#1500,#1530));
#1377 = ADVANCED_FACE('',(#1378),#1391,.T.);
#1378 = FACE_BOUND('',#1379,.T.);
#1379 = EDGE_LOOP('',(#1380,#1414,#1437,#1464));
#1380 = ORIENTED_EDGE('',*,*,#1381,.F.);
#1381 = EDGE_CURVE('',#1382,#1382,#1384,.T.);
#1382 = VERTEX_POINT('',#1383);
#1383 = CARTESIAN_POINT('',(2.,11.5,2.));
#1384 = SURFACE_CURVE('',#1385,(#1390,#1402),.PCURVE_S1.);
#1385 = CIRCLE('',#1386,2.);
#1386 = AXIS2_PLACEMENT_3D('',#1387,#1388,#1389);
#1387 = CARTESIAN_POINT('',(0.,11.5,2.));
#1388 = DIRECTION('',(0.,0.,1.));
#1389 = DIRECTION('',(1.,0.,0.));
#1390 = PCURVE('',#1391,#1396);
#1391 = CYLINDRICAL_SURFACE('',#1392,2.);
#1392 = AXIS2_PLACEMENT_3D('',#1393,#1394,#1395);
#1393 = CARTESIAN_POINT('',(0.,11.5,-2.));
#1394 = DIRECTION('',(0.,0.,1.));
#1395 = DIRECTION('',(1.,0.,0.));
#1396 = DEFINITIONAL_REPRESENTATION('',(#1397),#1401);
#1397 = LINE('',#1398,#1399);
#1398 = CARTESIAN_POINT('',(0.,4.));
#1399 = VECTOR('',#1400,1.);
#1400 = DIRECTION('',(1.,0.));
#1401 = ( GEOMETRIC_REPRESENTATION_CONTEXT(2) 
PARAMETRIC_REPRESENTATION_CONTEXT() REPRESENTATION_CONTEXT('2D SPACE',''
  ) );
#1402 = PCURVE('',#1403,#1408);
#1403 = PLANE('',#1404);
#1404 = AXIS2_PLACEMENT_3D('',#1405,#1406,#1407);
#1405 = CARTESIAN_POINT('',(0.,11.5,2.));
#1406 = DIRECTION('',(0.,0.,1.));
#1407 = DIRECTION('',(1.,0.,0.));
#1408 = DEFINITIONAL_REPRESENTATION('',(#1409),#1413);
#1409 = CIRCLE('',#1410,2.);
#1410 = AXIS2_PLACEMENT_2D('',#1411,#1412);
#1411 = CARTESIAN_POINT('',(0.,0.));
#1412 = DIRECTION('',(1.,0.));
#1413 = ( GEOMETRIC_REPRESENTATION_CONTEXT(2) 
PARAMETRIC_REPRESENTATION_CONTEXT() REPRESENTATION_CONTEXT('2D SPACE',''
  ) );
#1414 = ORIENTED_EDGE('',*,*,#1415,.F.);
#1415 = EDGE_CURVE('',#1416,#1382,#1418,.T.);
#1416 = VERTEX_POINT('',#1417);
#1417 = CARTESIAN_POINT('',(2.,11.5,-2.));
#1418 = SEAM_CURVE('',#1419,(#1423,#1430),.PCURVE_S1.);
#1419 = LINE('',#1420,#1421);
#1420 = CARTESIAN_POINT('',(2.,11.5,-2.));
#1421 = VECTOR('',#1422,1.);
#1422 = DIRECTION('',(0.,0.,1.));
#1423 = PCURVE('',#1391,#1424);
#1424 = DEFINITIONAL_REPRESENTATION('',(#1425),#1429);
#1425 = LINE('',#1426,#1427);
#1426 = CARTESIAN_POINT('',(6.28318530718,-0.));
#1427 = VECTOR('',#1428,1.);
#1428 = DIRECTION('',(0.,1.));
#1429 = ( GEOMETRIC_REPRESENTATION_CONTEXT(2) 
PARAMETRIC_REPRESENTATION_CONTEXT() REPRESENTATION_CONTEXT('2D SPACE',''
  ) );
#1430 = PCURVE('',#1391,#1431);
#1431 = DEFINITIONAL_REPRESENTATION('',(#1432),#1436);
#1432 = LINE('',#1433,#1434);
#1433 = CARTESIAN_POINT('',(0.,-0.));
#1434 = VECTOR('',#1435,1.);
#1435 = DIRECTION('',(0.,1.));
#1436 = ( GEOMETRIC_REPRESENTATION_CONTEXT(2) 
PARAMETRIC_REPRESENTATION_CONTEXT() REPRESENTATION_CONTEXT('2D SPACE',''
  ) );
#1437 = ORIENTED_EDGE('',*,*,#1438,.T.);
#1438 = EDGE_CURVE('',#1416,#1416,#1439,.T.);
#1439 = SURFACE_CURVE('',#1440,(#1445,#1452),.PCURVE_S1.);
#1440 = CIRCLE('',#1441,2.);
#1441 = AXIS2_PLACEMENT_3D('',#1442,#1443,#1444);
#1442 = CARTESIAN_POINT('',(0.,11.5,-2.));
#1443 = DIRECTION('',(0.,0.,1.));
#1444 = DIRECTION('',(1.,0.,0.));
#1445 = PCURVE('',#1391,#1446);
#1446 = DEFINITIONAL_REPRESENTATION('',(#1447),#1451);
#1447 = LINE('',#1448,#1449);
#1448 = CARTESIAN_POINT('',(0.,0.));
#1449 = VECTOR('',#1450,1.);
#1450 = DIRECTION('',(1.,0.));
#1451 = ( GEOMETRIC_REPRESENTATION_CONTEXT(2) 
PARAMETRIC_REPRESENTATION_CONTEXT() REPRESENTATION_CONTEXT('2D SPACE',''
  ) );
#1452 = PCURVE('',#1453,#1458);
#1453 = PLANE('',#1454);
#1454 = AXIS2_PLACEMENT_3D('',#1455,#1456,#1457);
#1455 = CARTESIAN_POINT('',(0.,11.5,-2.));
#1456 = DIRECTION('',(0.,0.,1.));
#1457 = DIRECTION('',(1.,0.,0.));
#1458 = DEFINITIONAL_REPRESENTATION('',(#1459),#1463);
#1459 = CIRCLE('',#1460,2.);
#1460 = AXIS2_PLACEMENT_2D('',#1461,#1462);
#1461 = CARTESIAN_POINT('',(0.,0.));
#1462 = DIRECTION('',(1.,0.));
#1463 = ( GEOMETRIC_REPRESENTATION_CONTEXT(2) 
PARAMETRIC_REPRESENTATION_CONTEXT() REPRESENTATION_CONTEXT('2D SPACE',''
  ) );
#1464 = ORIENTED_EDGE('',*,*,#1415,.T.);
#1465 = ADVANCED_FACE('',(#1466,#1469),#1403,.T.);
#1466 = FACE_BOUND('',#1467,.T.);
#1467 = EDGE_LOOP('',(#1468));
#1468 = ORIENTED_EDGE('',*,*,#1381,.T.);
#1469 = FACE_BOUND('',#1470,.T.);
#1470 = EDGE_LOOP('',(#1471));
#1471 = ORIENTED_EDGE('',*,*,#1472,.F.);
#1472 = EDGE_CURVE('',#1473,#1473,#1475,.T.);
#1473 = VERTEX_POINT('',#1474);
#1474 = CARTESIAN_POINT('',(1.,11.5,2.));
#1475 = SURFACE_CURVE('',#1476,(#1481,#1488),.PCURVE_S1.);
#1476 = CIRCLE('',#1477,1.);
#1477 = AXIS2_PLACEMENT_3D('',#1478,#1479,#1480);
#1478 = CARTESIAN_POINT('',(0.,11.5,2.));
#1479 = DIRECTION('',(0.,0.,1.));
#1480 = DIRECTION('',(1.,0.,0.));
#1481 = PCURVE('',#1403,#1482);
#1482 = DEFINITIONAL_REPRESENTATION('',(#1483),#1487);
#1483 = CIRCLE('',#1484,1.);
#1484 = AXIS2_PLACEMENT_2D('',#1485,#1486);
#1485 = CARTESIAN_POINT('',(0.,0.));
#1486 = DIRECTION('',(1.,0.));
#1487 = ( GEOMETRIC_REPRESENTATION_CONTEXT(2) 
PARAMETRIC_REPRESENTATION_CONTEXT() REPRESENTATION_CONTEXT('2D SPACE',''
  ) );
#1488 = PCURVE('',#1489,#1494);
#1489 = CYLINDRICAL_SURFACE('',#1490,1.);
#1490 = AXIS2_PLACEMENT_3D('',#1491,#1492,#1493);
#1491 = CARTESIAN_POINT('',(0.,11.5,-2.));
#1492 = DIRECTION('',(0.,0.,1.));
#1493 = DIRECTION('',(1.,0.,0.));
#1494 = DEFINITIONAL_REPRESENTATION('',(#1495),#1499);
#1495 = LINE('',#1496,#1497);
#1496 = CARTESIAN_POINT('',(0.,4.));
#1497 = VECTOR('',#1498,1.);
#1498 = DIRECTION('',(1.,0.));
#1499 = ( GEOMETRIC_REPRESENTATION_CONTEXT(2) 
PARAMETRIC_REPRESENTATION_CONTEXT() REPRESENTATION_CONTEXT('2D SPACE',''
  ) );
#1500 = ADVANCED_FACE('',(#1501,#1504),#1453,.F.);
#1501 = FACE_BOUND('',#1502,.F.);
#1502 = EDGE_LOOP('',(#1503));
#1503 = ORIENTED_EDGE('',*,*,#1438,.T.);
#1504 = FACE_BOUND('',#1505,.F.);
#1505 = EDGE_LOOP('',(#1506));
#1506 = ORIENTED_EDGE('',*,*,#1507,.F.);
#1507 = EDGE_CURVE('',#1508,#1508,#1510,.T.);
#1508 = VERTEX_POINT('',#1509);
#1509 = CARTESIAN_POINT('',(1.,11.5,-2.));
#1510 = SURFACE_CURVE('',#1511,(#1516,#1523),.PCURVE_S1.);
#1511 = CIRCLE('',#1512,1.);
#1512 = AXIS2_PLACEMENT_3D('',#1513,#1514,#1515);
#1513 = CARTESIAN_POINT('',(0.,11.5,-2.));
#1514 = DIRECTION('',(0.,0.,1.));
#1515 = DIRECTION('',(1.,0.,0.));
#1516 = PCURVE('',#1453,#1517);
#1517 = DEFINITIONAL_REPRESENTATION('',(#1518),#1522);
#1518 = CIRCLE('',#1519,1.);
#1519 = AXIS2_PLACEMENT_2D('',#1520,#1521);
#1520 = CARTESIAN_POINT('',(0.,0.));
#1521 = DIRECTION('',(1.,0.));
#1522 = ( GEOMETRIC_REPRESENTATION_CONTEXT(2) 
PARAMETRIC_REPRESENTATION_CONTEXT() REPRESENTATION_CONTEXT('2D SPACE',''
  ) );
#1523 = PCURVE('',#1489,#1524);
#1524 = DEFINITIONAL_REPRESENTATION('',(#1525),#1529);
#1525 = LINE('',#1526,#1527);
#1526 = CARTESIAN_POINT('',(0.,0.));
#1527 = VECTOR('',#1528,1.);
#1528 = DIRECTION('',(1.,0.));
#1529 = ( GEOMETRIC_REPRESENTATION_CONTEXT(2) 
PARAMETRIC_REPRESENTATION_CONTEXT() REPRESENTATION_CONTEXT('2D SPACE',''
  ) );
#1530 = ADVANCED_FACE('',(#1531),#1489,.F.);
#1531 = FACE_BOUND('',#1532,.F.);
#1532 = EDGE_LOOP('',(#1533,#1534,#1555,#1556));
#1533 = ORIENTED_EDGE('',*,*,#1472,.F.);
#1534 = ORIENTED_EDGE('',*,*,#1535,.F.);
#1535 = EDGE_CURVE('',#1508,#1473,#1536,.T.);
#1536 = SEAM_CURVE('',#1537,(#1541,#1548),.PCURVE_S1.);
#1537 = LINE('',#1538,#1539);
#1538 = CARTESIAN_POINT('',(1.,11.5,-2.));
#1539 = VECTOR('',#1540,1.);
#1540 = DIRECTION('',(0.,0.,1.));
#1541 = PCURVE('',#1489,#1542);
#1542 = DEFINITIONAL_REPRESENTATION('',(#1543),#1547);
#1543 = LINE('',#1544,#1545);
#1544 = CARTESIAN_POINT('',(6.28318530718,-0.));
#1545 = VECTOR('',#1546,1.);
#1546 = DIRECTION('',(0.,1.));
#1547 = ( GEOMETRIC_REPRESENTATION_CONTEXT(2) 
PARAMETRIC_REPRESENTATION_CONTEXT() REPRESENTATION_CONTEXT('2D SPACE',''
  ) );
#1548 = PCURVE('',#1489,#1549);
#1549 = DEFINITIONAL_REPRESENTATION('',(#1550),#1554);
#1550 = LINE('',#1551,#1552);
#1551 = CARTESIAN_POINT('',(0.,-0.));
#1552 = VECTOR('',#1553,1.);
#1553 = DIRECTION('',(0.,1.));
#1554 = ( GEOMETRIC_REPRESENTATION_CONTEXT(2) 
PARAMETRIC_REPRESENTATION_CONTEXT() REPRESENTATION_CONTEXT('2D SPACE',''
  ) );
#1555 = ORIENTED_EDGE('',*,*,#1507,.T.);
#1556 = ORIENTED_EDGE('',*,*,#1535,.T.);
#1557 = ( GEOMETRIC_REPRESENTATION_CONTEXT(3) 
GLOBAL_UNCERTAINTY_ASSIGNED_CONTEXT((#1561)) 
GLOBAL_UNIT_ASSIGNED_CONTEXT((#1558,#1559,#1560)) REPRESENTATION_CONTEXT
('Context #1','3D Context with UNIT and UNCERTAINTY') );
#1558 = ( LENGTH_UNIT() NAMED_UNIT(*) SI_UNIT(.MILLI.,.METRE.) );
#1559 = ( NAMED_UNIT(*) PLANE_ANGLE_UNIT() SI_UNIT($,.RADIAN.) );
#1560 = ( NAMED_UNIT(*) SI_UNIT($,.STERADIAN.) SOLID_ANGLE_UNIT() );
#1561 = UNCERTAINTY_MEASURE_WITH_UNIT(LENGTH_MEASURE(1.E-07),#1558,
  'distance_accuracy_value','confusion accuracy');
#1562 = CONTEXT_DEPENDENT_SHAPE_REPRESENTATION(#1563,#1565);
#1563 = ( REPRESENTATION_RELATIONSHIP('','',#1374,#10) 
REPRESENTATION_RELATIONSHIP_WITH_TRANSFORMATION(#1564) 
SHAPE_REPRESENTATION_RELATIONSHIP() );
#1564 = ITEM_DEFINED_TRANSFORMATION('','',#11,#19);
#1565 = PRODUCT_DEFINITION_SHAPE('Placement','Placement of an item',
  #1566);
#1566 = NEXT_ASSEMBLY_USAGE_OCCURRENCE('2','','',#5,#1369,$);
#1567 = PRODUCT_RELATED_PRODUCT_CATEGORY('part',$,(#1371));
ENDSEC;
END-ISO-10303-21;
