ISO-10303-21;
HEADER;
FILE_DESCRIPTION(('Open CASCADE Model'),'2;1');
FILE_NAME('Open CASCADE Shape Model','2026-03-25T00:29:01',('Author'),(
    'Open CASCADE'),'Open CASCADE STEP processor 7.8','Open CASCADE 7.8'
  ,'Unknown');
FILE_SCHEMA(('AUTOMOTIVE_DESIGN { 1 0 10303 214 1 1 1 1 }'));
ENDSEC;
DATA;
#1 = APPLICATION_PROTOCOL_DEFINITION('international standard',
  'automotive_design',2000,#2);
#2 = APPLICATION_CONTEXT(
  'core data for automotive mechanical design processes');
#3 = SHAPE_DEFINITION_REPRESENTATION(#4,#10);
#4 = PRODUCT_DEFINITION_SHAPE('','',#5);
#5 = PRODUCT_DEFINITION('design','',#6,#9);
#6 = PRODUCT_DEFINITION_FORMATION('','',#7);
#7 = PRODUCT('Open CASCADE STEP translator 7.8 1',
  'Open CASCADE STEP translator 7.8 1','',(#8));
#8 = PRODUCT_CONTEXT('',#2,'mechanical');
#9 = PRODUCT_DEFINITION_CONTEXT('part definition',#2,'design');
#10 = ADVANCED_BREP_SHAPE_REPRESENTATION('',(#11,#15),#723);
#11 = AXIS2_PLACEMENT_3D('',#12,#13,#14);
#12 = CARTESIAN_POINT('',(0.,0.,0.));
#13 = DIRECTION('',(0.,0.,1.));
#14 = DIRECTION('',(1.,0.,-0.));
#15 = MANIFOLD_SOLID_BREP('',#16);
#16 = CLOSED_SHELL('',(#17,#655,#711,#715,#719));
#17 = ADVANCED_FACE('',(#18),#32,.T.);
#18 = FACE_BOUND('',#19,.T.);
#19 = EDGE_LOOP('',(#20,#50,#77,#78,#355,#378,#405,#406));
#20 = ORIENTED_EDGE('',*,*,#21,.T.);
#21 = EDGE_CURVE('',#22,#24,#26,.T.);
#22 = VERTEX_POINT('',#23);
#23 = CARTESIAN_POINT('',(32.265240128083,-4.318746344402E-15,
    173.47740055903));
#24 = VERTEX_POINT('',#25);
#25 = CARTESIAN_POINT('',(31.3,-7.666288962662E-15,210.));
#26 = SEAM_CURVE('',#27,(#31,#43),.PCURVE_S1.);
#27 = LINE('',#28,#29);
#28 = CARTESIAN_POINT('',(35.,-8.572527594031E-15,70.));
#29 = VECTOR('',#30,1.);
#30 = DIRECTION('',(-2.641934648674E-02,6.470873622111E-18,
    0.999650948147));
#31 = PCURVE('',#32,#37);
#32 = CONICAL_SURFACE('',#33,35.,2.642242082327E-02);
#33 = AXIS2_PLACEMENT_3D('',#34,#35,#36);
#34 = CARTESIAN_POINT('',(0.,0.,70.));
#35 = DIRECTION('',(-0.,-0.,-1.));
#36 = DIRECTION('',(1.,0.,-0.));
#37 = DEFINITIONAL_REPRESENTATION('',(#38),#42);
#38 = LINE('',#39,#40);
#39 = CARTESIAN_POINT('',(-6.28318530718,0.));
#40 = VECTOR('',#41,1.);
#41 = DIRECTION('',(-0.,-1.));
#42 = ( GEOMETRIC_REPRESENTATION_CONTEXT(2) 
PARAMETRIC_REPRESENTATION_CONTEXT() REPRESENTATION_CONTEXT('2D SPACE',''
  ) );
#43 = PCURVE('',#32,#44);
#44 = DEFINITIONAL_REPRESENTATION('',(#45),#49);
#45 = LINE('',#46,#47);
#46 = CARTESIAN_POINT('',(0.,-0.));
#47 = VECTOR('',#48,1.);
#48 = DIRECTION('',(-0.,-1.));
#49 = ( GEOMETRIC_REPRESENTATION_CONTEXT(2) 
PARAMETRIC_REPRESENTATION_CONTEXT() REPRESENTATION_CONTEXT('2D SPACE',''
  ) );
#50 = ORIENTED_EDGE('',*,*,#51,.F.);
#51 = EDGE_CURVE('',#24,#24,#52,.T.);
#52 = SURFACE_CURVE('',#53,(#58,#65),.PCURVE_S1.);
#53 = CIRCLE('',#54,31.3);
#54 = AXIS2_PLACEMENT_3D('',#55,#56,#57);
#55 = CARTESIAN_POINT('',(0.,0.,210.));
#56 = DIRECTION('',(0.,0.,1.));
#57 = DIRECTION('',(1.,0.,-0.));
#58 = PCURVE('',#32,#59);
#59 = DEFINITIONAL_REPRESENTATION('',(#60),#64);
#60 = LINE('',#61,#62);
#61 = CARTESIAN_POINT('',(-0.,-140.));
#62 = VECTOR('',#63,1.);
#63 = DIRECTION('',(-1.,-0.));
#64 = ( GEOMETRIC_REPRESENTATION_CONTEXT(2) 
PARAMETRIC_REPRESENTATION_CONTEXT() REPRESENTATION_CONTEXT('2D SPACE',''
  ) );
#65 = PCURVE('',#66,#71);
#66 = PLANE('',#67);
#67 = AXIS2_PLACEMENT_3D('',#68,#69,#70);
#68 = CARTESIAN_POINT('',(0.,0.,210.));
#69 = DIRECTION('',(0.,0.,1.));
#70 = DIRECTION('',(1.,0.,-0.));
#71 = DEFINITIONAL_REPRESENTATION('',(#72),#76);
#72 = CIRCLE('',#73,31.3);
#73 = AXIS2_PLACEMENT_2D('',#74,#75);
#74 = CARTESIAN_POINT('',(0.,0.));
#75 = DIRECTION('',(1.,0.));
#76 = ( GEOMETRIC_REPRESENTATION_CONTEXT(2) 
PARAMETRIC_REPRESENTATION_CONTEXT() REPRESENTATION_CONTEXT('2D SPACE',''
  ) );
#77 = ORIENTED_EDGE('',*,*,#21,.F.);
#78 = ORIENTED_EDGE('',*,*,#79,.T.);
#79 = EDGE_CURVE('',#22,#80,#82,.T.);
#80 = VERTEX_POINT('',#81);
#81 = CARTESIAN_POINT('',(32.495581588719,-7.959121995811E-15,
    164.76177772416));
#82 = SURFACE_CURVE('',#83,(#170,#260),.PCURVE_S1.);
#83 = B_SPLINE_CURVE_WITH_KNOTS('',8,(#84,#85,#86,#87,#88,#89,#90,#91,
    #92,#93,#94,#95,#96,#97,#98,#99,#100,#101,#102,#103,#104,#105,#106,
    #107,#108,#109,#110,#111,#112,#113,#114,#115,#116,#117,#118,#119,
    #120,#121,#122,#123,#124,#125,#126,#127,#128,#129,#130,#131,#132,
    #133,#134,#135,#136,#137,#138,#139,#140,#141,#142,#143,#144,#145,
    #146,#147,#148,#149,#150,#151,#152,#153,#154,#155,#156,#157,#158,
    #159,#160,#161,#162,#163,#164,#165,#166,#167,#168,#169),
  .UNSPECIFIED.,.F.,.F.,(9,7,7,7,7,7,7,7,7,7,7,7,9),(0.,
    4.851529418593E-02,8.408805683612E-02,0.143501695065,0.207925593867,
    0.274549894802,0.526985889393,0.671994118529,0.802483795365,
    0.85837858268,0.943196310025,0.965406725941,1.),.UNSPECIFIED.);
#84 = CARTESIAN_POINT('',(32.265240128083,-7.347880794884E-16,
    173.47740055903));
#85 = CARTESIAN_POINT('',(32.265240128083,9.522753396385E-02,
    173.47740055903));
#86 = CARTESIAN_POINT('',(32.2650428383,0.190478642072,173.47271218533)
  );
#87 = CARTESIAN_POINT('',(32.264648030095,0.285057528625,173.46333206831
    ));
#88 = CARTESIAN_POINT('',(32.26406456308,0.378394020055,173.44941453819)
  );
#89 = CARTESIAN_POINT('',(32.263307764127,0.47002531325,173.43122072252)
  );
#90 = CARTESIAN_POINT('',(32.26239708858,0.55958106936,173.40907841797)
  );
#91 = CARTESIAN_POINT('',(32.261354063646,0.646771853083,173.38335273653
    ));
#92 = CARTESIAN_POINT('',(32.259354699293,0.793418635923,173.33321875735
    ));
#93 = CARTESIAN_POINT('',(32.25844896374,0.854103825117,173.31027738012)
  );
#94 = CARTESIAN_POINT('',(32.257491341602,0.913387489948,173.28573840018
    ));
#95 = CARTESIAN_POINT('',(32.256489612002,0.971241790551,173.2597328964)
  );
#96 = CARTESIAN_POINT('',(32.255451162131,1.027657388242,173.23238538437
    ));
#97 = CARTESIAN_POINT('',(32.254382850482,1.082640791497,173.20381118));
#98 = CARTESIAN_POINT('',(32.253290870082,1.136211701945,173.17411376328
    ));
#99 = CARTESIAN_POINT('',(32.250326257882,1.275565872366,173.09205417907
    ));
#100 = CARTESIAN_POINT('',(32.248421733684,1.358839937134,
    173.03786303697));
#101 = CARTESIAN_POINT('',(32.246492025016,1.438392493252,
    172.98121687863));
#102 = CARTESIAN_POINT('',(32.244558315032,1.51439004544,172.92246506962
    ));
#103 = CARTESIAN_POINT('',(32.242638176909,1.587001160128,
    172.86190224551));
#104 = CARTESIAN_POINT('',(32.240745879347,1.656399025158,
    172.79977048829));
#105 = CARTESIAN_POINT('',(32.238892804785,1.722761073609,
    172.73625961186));
#106 = CARTESIAN_POINT('',(32.23513095787,1.855125514803,172.60129089152
    ));
#107 = CARTESIAN_POINT('',(32.233231459479,1.920597987483,
    172.52964307593));
#108 = CARTESIAN_POINT('',(32.231401439976,1.982896293882,
    172.45675688153));
#109 = CARTESIAN_POINT('',(32.229650614586,2.042202245316,172.3827964243
    ));
#110 = CARTESIAN_POINT('',(32.227986828564,2.098676675148,
    172.30789931788));
#111 = CARTESIAN_POINT('',(32.22641639136,2.152466319218,172.23217944252
    ));
#112 = CARTESIAN_POINT('',(32.224944375341,2.20370716187,172.15572832971
    ));
#113 = CARTESIAN_POINT('',(32.222158607627,2.303008683767,
    171.99886819005));
#114 = CARTESIAN_POINT('',(32.220852172803,2.350894232002,
    171.91842405576));
#115 = CARTESIAN_POINT('',(32.219660187447,2.396316128947,
    171.83736695871));
#116 = CARTESIAN_POINT('',(32.218586347561,2.439391340202,
    171.75576981411));
#117 = CARTESIAN_POINT('',(32.21763358611,2.480223204752,171.67369548839
    ));
#118 = CARTESIAN_POINT('',(32.216804212445,2.518904707417,
    171.59119767815));
#119 = CARTESIAN_POINT('',(32.216100037339,2.555520379311,
    171.50832143285));
#120 = CARTESIAN_POINT('',(32.213334162972,2.721344624403,171.109794245)
  );
#121 = CARTESIAN_POINT('',(32.212965568766,2.823871637181,
    170.78985402094));
#122 = CARTESIAN_POINT('',(32.21448641714,2.902101877776,170.46698724929
    ));
#123 = CARTESIAN_POINT('',(32.217905639279,2.958193723614,
    170.14241473194));
#124 = CARTESIAN_POINT('',(32.223196829682,2.99386311968,169.81709881457
    ));
#125 = CARTESIAN_POINT('',(32.23031151201,3.01010588454,169.49171256552)
  );
#126 = CARTESIAN_POINT('',(32.239193437175,3.007536688566,
    169.16670282932));
#127 = CARTESIAN_POINT('',(32.255875677956,2.973786301211,
    168.65591278904));
#128 = CARTESIAN_POINT('',(32.26252423814,2.955253731904,168.46984914962
    ));
#129 = CARTESIAN_POINT('',(32.269722006734,2.930510075477,
    168.28417105251));
#130 = CARTESIAN_POINT('',(32.277454358441,2.899502174183,
    168.09898032347));
#131 = CARTESIAN_POINT('',(32.285704585466,2.862122647343,
    167.91439371389));
#132 = CARTESIAN_POINT('',(32.294453539105,2.818202768933,
    167.73054400734));
#133 = CARTESIAN_POINT('',(32.303679176802,2.767491694393,
    167.54758260203));
#134 = CARTESIAN_POINT('',(32.322063985601,2.6575464201,167.20199667956)
  );
#135 = CARTESIAN_POINT('',(32.331134446395,2.599691229468,
    167.03922429364));
#136 = CARTESIAN_POINT('',(32.340550458654,2.535779533322,
    166.87745313435));
#137 = CARTESIAN_POINT('',(32.350290775051,2.465470599181,
    166.71683532009));
#138 = CARTESIAN_POINT('',(32.360327815031,2.38832948216,166.55759677532
    ));
#139 = CARTESIAN_POINT('',(32.370626390639,2.303821269448,
    166.40003849246));
#140 = CARTESIAN_POINT('',(32.381141446594,2.21125057109,166.24455027084
    ));
#141 = CARTESIAN_POINT('',(32.396384234418,2.066010987488,
    166.02616508189));
#142 = CARTESIAN_POINT('',(32.400983374613,2.020789987562,
    165.96116029848));
#143 = CARTESIAN_POINT('',(32.405605737177,1.973822591461,
    165.89668370053));
#144 = CARTESIAN_POINT('',(32.410245544946,1.925019498819,
    165.83278860683));
#145 = CARTESIAN_POINT('',(32.414895911818,1.87428275722,165.76954035967
    ));
#146 = CARTESIAN_POINT('',(32.419548686109,1.821502977162,
    165.70701731998));
#147 = CARTESIAN_POINT('',(32.424194231316,1.766554369967,165.6453126603
    ));
#148 = CARTESIAN_POINT('',(32.435842268377,1.622387974805,
    165.49231266346));
#149 = CARTESIAN_POINT('',(32.442805423733,1.530337520788,
    165.40242531239));
#150 = CARTESIAN_POINT('',(32.449687496653,1.432445172413,
    165.31502964204));
#151 = CARTESIAN_POINT('',(32.456440655311,1.328036535007,165.2305972433
    ));
#152 = CARTESIAN_POINT('',(32.462987408555,1.216439896592,
    165.14993550315));
#153 = CARTESIAN_POINT('',(32.469218993582,1.097014816739,
    165.07417044497));
#154 = CARTESIAN_POINT('',(32.474992411556,0.969126510819,
    165.00476548909));
#155 = CARTESIAN_POINT('',(32.481464517938,0.796053162207,
    164.92764394062));
#156 = CARTESIAN_POINT('',(32.482762509243,0.759525526484,164.9122188381
    ));
#157 = CARTESIAN_POINT('',(32.484011812471,0.722383077558,
    164.89741035928));
#158 = CARTESIAN_POINT('',(32.485208520811,0.684626925569,
    164.88325942731));
#159 = CARTESIAN_POINT('',(32.486348493085,0.646263259286,
    164.86980951366));
#160 = CARTESIAN_POINT('',(32.487427434429,0.607304059915,
    164.85710577231));
#161 = CARTESIAN_POINT('',(32.48844097698,0.567767814907,164.84519417375
    ));
#162 = CARTESIAN_POINT('',(32.490854726904,0.465242826031,
    164.81687333423));
#163 = CARTESIAN_POINT('',(32.492156138986,0.401439929206,
    164.80165117746));
#164 = CARTESIAN_POINT('',(32.493271438552,0.336404948705,
    164.78864074191));
#165 = CARTESIAN_POINT('',(32.494184142573,0.27030540726,164.77801601181
    ));
#166 = CARTESIAN_POINT('',(32.494879908383,0.203346088746,
    164.76992831606));
#167 = CARTESIAN_POINT('',(32.495347776155,0.13577281654,164.76449369836
    ));
#168 = CARTESIAN_POINT('',(32.495581588719,6.787686441935E-02,
    164.76177772416));
#169 = CARTESIAN_POINT('',(32.495581588719,1.836970198721E-16,
    164.76177772416));
#170 = PCURVE('',#32,#171);
#171 = DEFINITIONAL_REPRESENTATION('',(#172),#259);
#172 = B_SPLINE_CURVE_WITH_KNOTS('',8,(#173,#174,#175,#176,#177,#178,
    #179,#180,#181,#182,#183,#184,#185,#186,#187,#188,#189,#190,#191,
    #192,#193,#194,#195,#196,#197,#198,#199,#200,#201,#202,#203,#204,
    #205,#206,#207,#208,#209,#210,#211,#212,#213,#214,#215,#216,#217,
    #218,#219,#220,#221,#222,#223,#224,#225,#226,#227,#228,#229,#230,
    #231,#232,#233,#234,#235,#236,#237,#238,#239,#240,#241,#242,#243,
    #244,#245,#246,#247,#248,#249,#250,#251,#252,#253,#254,#255,#256,
    #257,#258),.UNSPECIFIED.,.F.,.F.,(9,7,7,7,7,7,7,7,7,7,7,7,9),(0.,
    4.851529418593E-02,8.408805683612E-02,0.143501695065,0.207925593867,
    0.274549894802,0.526985889393,0.671994118529,0.802483795365,
    0.85837858268,0.943196310025,0.965406725941,1.),.UNSPECIFIED.);
#173 = CARTESIAN_POINT('',(0.,-103.477400559));
#174 = CARTESIAN_POINT('',(-2.951397032405E-03,-103.477400559));
#175 = CARTESIAN_POINT('',(-5.903524707791E-03,-103.4727121853));
#176 = CARTESIAN_POINT('',(-8.834811961087E-03,-103.4633320683));
#177 = CARTESIAN_POINT('',(-1.172758124575E-02,-103.4494145381));
#178 = CARTESIAN_POINT('',(-1.456748275107E-02,-103.4312207225));
#179 = CARTESIAN_POINT('',(-1.734303244414E-02,-103.4090784179));
#180 = CARTESIAN_POINT('',(-2.004525393632E-02,-103.3833527365));
#181 = CARTESIAN_POINT('',(-2.459007230173E-02,-103.3332187573));
#182 = CARTESIAN_POINT('',(-2.647078207584E-02,-103.3102773801));
#183 = CARTESIAN_POINT('',(-2.830803275641E-02,-103.2857384001));
#184 = CARTESIAN_POINT('',(-3.010095934941E-02,-103.2597328964));
#185 = CARTESIAN_POINT('',(-3.18492703516E-02,-103.2323853843));
#186 = CARTESIAN_POINT('',(-3.355316549502E-02,-103.20381118));
#187 = CARTESIAN_POINT('',(-3.521325349143E-02,-103.1741137632));
#188 = CARTESIAN_POINT('',(-3.953154487356E-02,-103.092054179));
#189 = CARTESIAN_POINT('',(-4.211192443894E-02,-103.0378630369));
#190 = CARTESIAN_POINT('',(-4.457686685443E-02,-102.9812168786));
#191 = CARTESIAN_POINT('',(-4.693152482662E-02,-102.9224650696));
#192 = CARTESIAN_POINT('',(-4.918111593097E-02,-102.8619022455));
#193 = CARTESIAN_POINT('',(-5.133100190295E-02,-102.7997704882));
#194 = CARTESIAN_POINT('',(-5.338667667636E-02,-102.7362596118));
#195 = CARTESIAN_POINT('',(-5.748652260189E-02,-102.6012908915));
#196 = CARTESIAN_POINT('',(-5.951424809599E-02,-102.5296430759));
#197 = CARTESIAN_POINT('',(-6.144344144342E-02,-102.4567568815));
#198 = CARTESIAN_POINT('',(-6.327973260953E-02,-102.3827964243));
#199 = CARTESIAN_POINT('',(-6.502810247033E-02,-102.3078993178));
#200 = CARTESIAN_POINT('',(-6.669309591956E-02,-102.2321794425));
#201 = CARTESIAN_POINT('',(-6.827892534562E-02,-102.1557283297));
#202 = CARTESIAN_POINT('',(-7.135159616518E-02,-101.99886819));
#203 = CARTESIAN_POINT('',(-7.283299820324E-02,-101.9184240557));
#204 = CARTESIAN_POINT('',(-7.423786034081E-02,-101.8373669587));
#205 = CARTESIAN_POINT('',(-7.556980705488E-02,-101.7557698141));
#206 = CARTESIAN_POINT('',(-7.683204141013E-02,-101.6736954883));
#207 = CARTESIAN_POINT('',(-7.802744637892E-02,-101.5911976781));
#208 = CARTESIAN_POINT('',(-7.915864362189E-02,-101.5083214328));
#209 = CARTESIAN_POINT('',(-8.427978202688E-02,-101.109794245));
#210 = CARTESIAN_POINT('',(-8.744040234435E-02,-100.7898540209));
#211 = CARTESIAN_POINT('',(-8.984555620475E-02,-100.4669872492));
#212 = CARTESIAN_POINT('',(-9.156242027604E-02,-100.1424147319));
#213 = CARTESIAN_POINT('',(-9.264460138023E-02,-99.81709881457));
#214 = CARTESIAN_POINT('',(-9.312350310457E-02,-99.49171256552));
#215 = CARTESIAN_POINT('',(-9.301881374599E-02,-99.16670282932));
#216 = CARTESIAN_POINT('',(-9.193368987131E-02,-98.65591278904));
#217 = CARTESIAN_POINT('',(-9.134512881E-02,-98.46984914962));
#218 = CARTESIAN_POINT('',(-9.05643026598E-02,-98.28417105251));
#219 = CARTESIAN_POINT('',(-8.958973406025E-02,-98.09898032347));
#220 = CARTESIAN_POINT('',(-8.841828445078E-02,-97.91439371389));
#221 = CARTESIAN_POINT('',(-8.704493651122E-02,-97.73054400734));
#222 = CARTESIAN_POINT('',(-8.546215627792E-02,-97.54758260203));
#223 = CARTESIAN_POINT('',(-8.203606621023E-02,-97.20199667956));
#224 = CARTESIAN_POINT('',(-8.02352469082E-02,-97.03922429364));
#225 = CARTESIAN_POINT('',(-7.824799383437E-02,-96.87745313435));
#226 = CARTESIAN_POINT('',(-7.606397371497E-02,-96.71683532009));
#227 = CARTESIAN_POINT('',(-7.366997014944E-02,-96.55759677532));
#228 = CARTESIAN_POINT('',(-7.104970724522E-02,-96.40003849246));
#229 = CARTESIAN_POINT('',(-6.818198737573E-02,-96.24455027084));
#230 = CARTESIAN_POINT('',(-6.368657140308E-02,-96.02616508189));
#231 = CARTESIAN_POINT('',(-6.228736150002E-02,-95.96116029848));
#232 = CARTESIAN_POINT('',(-6.083458742481E-02,-95.89668370053));
#233 = CARTESIAN_POINT('',(-5.932551963747E-02,-95.83278860683));
#234 = CARTESIAN_POINT('',(-5.775716360457E-02,-95.76954035967));
#235 = CARTESIAN_POINT('',(-5.612617390049E-02,-95.70701731998));
#236 = CARTESIAN_POINT('',(-5.442870123098E-02,-95.6453126603));
#237 = CARTESIAN_POINT('',(-4.997651250407E-02,-95.49231266346));
#238 = CARTESIAN_POINT('',(-4.713501246936E-02,-95.40242531239));
#239 = CARTESIAN_POINT('',(-4.411445542044E-02,-95.31502964204));
#240 = CARTESIAN_POINT('',(-4.089416890569E-02,-95.2305972433));
#241 = CARTESIAN_POINT('',(-3.745358148631E-02,-95.14993550315));
#242 = CARTESIAN_POINT('',(-3.377308243172E-02,-95.07417044497));
#243 = CARTESIAN_POINT('',(-2.983320088298E-02,-95.00476548909));
#244 = CARTESIAN_POINT('',(-2.450300099119E-02,-94.92764394062));
#245 = CARTESIAN_POINT('',(-2.337813320517E-02,-94.9122188381));
#246 = CARTESIAN_POINT('',(-2.223441705622E-02,-94.89741035928));
#247 = CARTESIAN_POINT('',(-2.107188599139E-02,-94.88325942731));
#248 = CARTESIAN_POINT('',(-1.989072921098E-02,-94.86980951366));
#249 = CARTESIAN_POINT('',(-1.869131352221E-02,-94.85710577231));
#250 = CARTESIAN_POINT('',(-1.747420519293E-02,-94.84519417375));
#251 = CARTESIAN_POINT('',(-1.431818532535E-02,-94.81687333423));
#252 = CARTESIAN_POINT('',(-1.235430696545E-02,-94.80165117746));
#253 = CARTESIAN_POINT('',(-1.035264943145E-02,-94.78864074191));
#254 = CARTESIAN_POINT('',(-8.318349780744E-03,-94.77801601181));
#255 = CARTESIAN_POINT('',(-6.257685818054E-03,-94.76992831606));
#256 = CARTESIAN_POINT('',(-4.178193147408E-03,-94.76449369836));
#257 = CARTESIAN_POINT('',(-2.088802880294E-03,-94.76177772416));
#258 = CARTESIAN_POINT('',(-5.652984525622E-18,-94.76177772416));
#259 = ( GEOMETRIC_REPRESENTATION_CONTEXT(2) 
PARAMETRIC_REPRESENTATION_CONTEXT() REPRESENTATION_CONTEXT('2D SPACE',''
  ) );
#260 = PCURVE('',#261,#266);
#261 = CYLINDRICAL_SURFACE('',#262,3.);
#262 = AXIS2_PLACEMENT_3D('',#263,#264,#265);
#263 = CARTESIAN_POINT('',(58.177669529664,0.,143.32233047033));
#264 = DIRECTION('',(-0.707106781187,0.,0.707106781187));
#265 = DIRECTION('',(0.707106781187,0.,0.707106781187));
#266 = DEFINITIONAL_REPRESENTATION('',(#267),#354);
#267 = B_SPLINE_CURVE_WITH_KNOTS('',8,(#268,#269,#270,#271,#272,#273,
    #274,#275,#276,#277,#278,#279,#280,#281,#282,#283,#284,#285,#286,
    #287,#288,#289,#290,#291,#292,#293,#294,#295,#296,#297,#298,#299,
    #300,#301,#302,#303,#304,#305,#306,#307,#308,#309,#310,#311,#312,
    #313,#314,#315,#316,#317,#318,#319,#320,#321,#322,#323,#324,#325,
    #326,#327,#328,#329,#330,#331,#332,#333,#334,#335,#336,#337,#338,
    #339,#340,#341,#342,#343,#344,#345,#346,#347,#348,#349,#350,#351,
    #352,#353),.UNSPECIFIED.,.F.,.F.,(9,7,7,7,7,7,7,7,7,7,7,7,9),(0.,
    4.851529418593E-02,8.408805683612E-02,0.143501695065,0.207925593867,
    0.274549894802,0.526985889393,0.671994118529,0.802483795365,
    0.85837858268,0.943196310025,0.965406725941,1.),.UNSPECIFIED.);
#268 = CARTESIAN_POINT('',(0.,39.645709093751));
#269 = CARTESIAN_POINT('',(3.174251132128E-02,39.645709093751));
#270 = CARTESIAN_POINT('',(6.349284572849E-02,39.642533417856));
#271 = CARTESIAN_POINT('',(9.506796749494E-02,39.636179845061));
#272 = CARTESIAN_POINT('',(0.126326386956,39.626751238622));
#273 = CARTESIAN_POINT('',(0.157156854173,39.614421405856));
#274 = CARTESIAN_POINT('',(0.187470316856,39.599408377014));
#275 = CARTESIAN_POINT('',(0.217195142537,39.58195510322));
#276 = CARTESIAN_POINT('',(0.26759820866,39.547918790663));
#277 = CARTESIAN_POINT('',(0.28858654949,39.532337239011));
#278 = CARTESIAN_POINT('',(0.309231430764,39.515662700997));
#279 = CARTESIAN_POINT('',(0.329528618548,39.497982362722));
#280 = CARTESIAN_POINT('',(0.349478350776,39.479379046458));
#281 = CARTESIAN_POINT('',(0.36908484633,39.459929443196));
#282 = CARTESIAN_POINT('',(0.388355814112,39.439702345191));
#283 = CARTESIAN_POINT('',(0.438945823887,39.383773754125));
#284 = CARTESIAN_POINT('',(0.469670684715,39.346801532046));
#285 = CARTESIAN_POINT('',(0.499536329011,39.308111159437));
#286 = CARTESIAN_POINT('',(0.528595755923,39.267934696324));
#287 = CARTESIAN_POINT('',(0.556899274783,39.226468055394));
#288 = CARTESIAN_POINT('',(0.58449744112,39.183872324973));
#289 = CARTESIAN_POINT('',(0.611442833237,39.140273675161));
#290 = CARTESIAN_POINT('',(0.666360377933,39.047496405222));
#291 = CARTESIAN_POINT('',(0.694216006757,38.998176897159));
#292 = CARTESIAN_POINT('',(0.721421105095,38.94793259404));
#293 = CARTESIAN_POINT('',(0.748028172812,38.896872673698));
#294 = CARTESIAN_POINT('',(0.774082752439,38.845088896235));
#295 = CARTESIAN_POINT('',(0.799626326159,38.7926573257));
#296 = CARTESIAN_POINT('',(0.824698017725,38.739639097908));
#297 = CARTESIAN_POINT('',(0.874813661901,38.6306920647));
#298 = CARTESIAN_POINT('',(0.899823998419,38.57473326076));
#299 = CARTESIAN_POINT('',(0.924405342653,38.518260098697));
#300 = CARTESIAN_POINT('',(0.948591247838,38.461321523891));
#301 = CARTESIAN_POINT('',(0.972411280496,38.403959915696));
#302 = CARTESIAN_POINT('',(0.995892274038,38.346211610386));
#303 = CARTESIAN_POINT('',(1.01905914215,38.288107182325));
#304 = CARTESIAN_POINT('',(1.128611636494,38.00826167383));
#305 = CARTESIAN_POINT('',(1.211038477889,37.782290407286));
#306 = CARTESIAN_POINT('',(1.290580206678,37.552913721436));
#307 = CARTESIAN_POINT('',(1.367943853926,37.32098853827));
#308 = CARTESIAN_POINT('',(1.443759295509,37.087214010453));
#309 = CARTESIAN_POINT('',(1.518531709969,36.852100347129));
#310 = CARTESIAN_POINT('',(1.592781241357,36.616003289192));
#311 = CARTESIAN_POINT('',(1.709785679739,36.243024062366));
#312 = CARTESIAN_POINT('',(1.752472374127,36.106755959209));
#313 = CARTESIAN_POINT('',(1.795256993477,35.970372126646));
#314 = CARTESIAN_POINT('',(1.838240053807,35.833954908));
#315 = CARTESIAN_POINT('',(1.881524855557,35.697598673175));
#316 = CARTESIAN_POINT('',(1.925223308696,35.561410854509));
#317 = CARTESIAN_POINT('',(1.969464807323,35.42551409314));
#318 = CARTESIAN_POINT('',(2.054851670567,35.168147920906));
#319 = CARTESIAN_POINT('',(2.095850127023,35.046636678701));
#320 = CARTESIAN_POINT('',(2.137529544338,34.925589068843));
#321 = CARTESIAN_POINT('',(2.180022090667,34.805127679429));
#322 = CARTESIAN_POINT('',(2.223480036517,34.685431765562));
#323 = CARTESIAN_POINT('',(2.268080686995,34.566739042671));
#324 = CARTESIAN_POINT('',(2.314048413119,34.449356999398));
#325 = CARTESIAN_POINT('',(2.382139817546,34.284157072747));
#326 = CARTESIAN_POINT('',(2.402869073989,34.234939666363));
#327 = CARTESIAN_POINT('',(2.423933783927,34.186079322812));
#328 = CARTESIAN_POINT('',(2.445361910842,34.137617829237));
#329 = CARTESIAN_POINT('',(2.46718368156,34.089606258819));
#330 = CARTESIAN_POINT('',(2.489432713944,34.042105785226));
#331 = CARTESIAN_POINT('',(2.512147862187,33.995189105413));
#332 = CARTESIAN_POINT('',(2.57062305898,33.878765364135));
#333 = CARTESIAN_POINT('',(2.60697519336,33.810281714279));
#334 = CARTESIAN_POINT('',(2.644671065805,33.743617282696));
#335 = CARTESIAN_POINT('',(2.683921521735,33.679139356717));
#336 = CARTESIAN_POINT('',(2.724927622968,33.617473639657));
#337 = CARTESIAN_POINT('',(2.767883572432,33.559493257217));
#338 = CARTESIAN_POINT('',(2.813000321721,33.506334119263));
#339 = CARTESIAN_POINT('',(2.873046651828,33.447224479053));
#340 = CARTESIAN_POINT('',(2.885668386501,33.435399466006));
#341 = CARTESIAN_POINT('',(2.898452833191,33.424044899433));
#342 = CARTESIAN_POINT('',(2.911400497216,33.41319247889));
#343 = CARTESIAN_POINT('',(2.924510450119,33.402875871621));
#344 = CARTESIAN_POINT('',(2.937780146234,33.393130043218));
#345 = CARTESIAN_POINT('',(2.951205239237,33.383990588294));
#346 = CARTESIAN_POINT('',(2.985921489017,33.362257951685));
#347 = CARTESIAN_POINT('',(3.007434669449,33.350574024094));
#348 = CARTESIAN_POINT('',(3.029282583639,33.340585621004));
#349 = CARTESIAN_POINT('',(3.051420210288,33.332427423104));
#350 = CARTESIAN_POINT('',(3.073792966936,33.326216577869));
#351 = CARTESIAN_POINT('',(3.096335053011,33.322042890369));
#352 = CARTESIAN_POINT('',(3.118967032117,33.319957076143));
#353 = CARTESIAN_POINT('',(3.14159265359,33.319957076143));
#354 = ( GEOMETRIC_REPRESENTATION_CONTEXT(2) 
PARAMETRIC_REPRESENTATION_CONTEXT() REPRESENTATION_CONTEXT('2D SPACE',''
  ) );
#355 = ORIENTED_EDGE('',*,*,#356,.F.);
#356 = EDGE_CURVE('',#357,#80,#359,.T.);
#357 = VERTEX_POINT('',#358);
#358 = CARTESIAN_POINT('',(35.,-8.572527594031E-15,70.));
#359 = SEAM_CURVE('',#360,(#364,#371),.PCURVE_S1.);
#360 = LINE('',#361,#362);
#361 = CARTESIAN_POINT('',(35.,-8.572527594031E-15,70.));
#362 = VECTOR('',#363,1.);
#363 = DIRECTION('',(-2.641934648674E-02,6.470873622111E-18,
    0.999650948147));
#364 = PCURVE('',#32,#365);
#365 = DEFINITIONAL_REPRESENTATION('',(#366),#370);
#366 = LINE('',#367,#368);
#367 = CARTESIAN_POINT('',(-6.28318530718,0.));
#368 = VECTOR('',#369,1.);
#369 = DIRECTION('',(-0.,-1.));
#370 = ( GEOMETRIC_REPRESENTATION_CONTEXT(2) 
PARAMETRIC_REPRESENTATION_CONTEXT() REPRESENTATION_CONTEXT('2D SPACE',''
  ) );
#371 = PCURVE('',#32,#372);
#372 = DEFINITIONAL_REPRESENTATION('',(#373),#377);
#373 = LINE('',#374,#375);
#374 = CARTESIAN_POINT('',(0.,-0.));
#375 = VECTOR('',#376,1.);
#376 = DIRECTION('',(-0.,-1.));
#377 = ( GEOMETRIC_REPRESENTATION_CONTEXT(2) 
PARAMETRIC_REPRESENTATION_CONTEXT() REPRESENTATION_CONTEXT('2D SPACE',''
  ) );
#378 = ORIENTED_EDGE('',*,*,#379,.T.);
#379 = EDGE_CURVE('',#357,#357,#380,.T.);
#380 = SURFACE_CURVE('',#381,(#386,#393),.PCURVE_S1.);
#381 = CIRCLE('',#382,35.);
#382 = AXIS2_PLACEMENT_3D('',#383,#384,#385);
#383 = CARTESIAN_POINT('',(0.,0.,70.));
#384 = DIRECTION('',(0.,0.,1.));
#385 = DIRECTION('',(1.,0.,-0.));
#386 = PCURVE('',#32,#387);
#387 = DEFINITIONAL_REPRESENTATION('',(#388),#392);
#388 = LINE('',#389,#390);
#389 = CARTESIAN_POINT('',(-0.,-0.));
#390 = VECTOR('',#391,1.);
#391 = DIRECTION('',(-1.,-0.));
#392 = ( GEOMETRIC_REPRESENTATION_CONTEXT(2) 
PARAMETRIC_REPRESENTATION_CONTEXT() REPRESENTATION_CONTEXT('2D SPACE',''
  ) );
#393 = PCURVE('',#394,#399);
#394 = PLANE('',#395);
#395 = AXIS2_PLACEMENT_3D('',#396,#397,#398);
#396 = CARTESIAN_POINT('',(0.,0.,70.));
#397 = DIRECTION('',(0.,0.,1.));
#398 = DIRECTION('',(1.,0.,-0.));
#399 = DEFINITIONAL_REPRESENTATION('',(#400),#404);
#400 = CIRCLE('',#401,35.);
#401 = AXIS2_PLACEMENT_2D('',#402,#403);
#402 = CARTESIAN_POINT('',(0.,0.));
#403 = DIRECTION('',(1.,0.));
#404 = ( GEOMETRIC_REPRESENTATION_CONTEXT(2) 
PARAMETRIC_REPRESENTATION_CONTEXT() REPRESENTATION_CONTEXT('2D SPACE',''
  ) );
#405 = ORIENTED_EDGE('',*,*,#356,.T.);
#406 = ORIENTED_EDGE('',*,*,#407,.T.);
#407 = EDGE_CURVE('',#80,#22,#408,.T.);
#408 = SURFACE_CURVE('',#409,(#489,#572),.PCURVE_S1.);
#409 = B_SPLINE_CURVE_WITH_KNOTS('',8,(#410,#411,#412,#413,#414,#415,
    #416,#417,#418,#419,#420,#421,#422,#423,#424,#425,#426,#427,#428,
    #429,#430,#431,#432,#433,#434,#435,#436,#437,#438,#439,#440,#441,
    #442,#443,#444,#445,#446,#447,#448,#449,#450,#451,#452,#453,#454,
    #455,#456,#457,#458,#459,#460,#461,#462,#463,#464,#465,#466,#467,
    #468,#469,#470,#471,#472,#473,#474,#475,#476,#477,#478,#479,#480,
    #481,#482,#483,#484,#485,#486,#487,#488),.UNSPECIFIED.,.F.,.F.,(9,7,
    7,7,7,7,7,7,7,7,7,9),(0.,3.946888184657E-02,6.831541456754E-02,
    0.116369576021,0.200152415451,0.300219983452,0.472930800174,
    0.674313409806,0.841903292263,0.932110411749,0.958310057939,1.),
  .UNSPECIFIED.);
#410 = CARTESIAN_POINT('',(32.495581588719,0.,164.76177772416));
#411 = CARTESIAN_POINT('',(32.495581588719,-7.746178786793E-02,
    164.76177772416));
#412 = CARTESIAN_POINT('',(32.495277081386,-0.15495099532,
    164.76531492736));
#413 = CARTESIAN_POINT('',(32.494667666958,-0.231951830053,
    164.77239361128));
#414 = CARTESIAN_POINT('',(32.493763980267,-0.308041258837,
    164.78290055089));
#415 = CARTESIAN_POINT('',(32.492584348084,-0.382877162306,164.796641835
    ));
#416 = CARTESIAN_POINT('',(32.491151943033,-0.456188336922,
    164.81337320368));
#417 = CARTESIAN_POINT('',(32.489492434052,-0.527766344138,
    164.83282390654));
#418 = CARTESIAN_POINT('',(32.4862724997,-0.648395472174,164.87071290516
    ));
#419 = CARTESIAN_POINT('',(32.484804960294,-0.698348348901,
    164.88802244674));
#420 = CARTESIAN_POINT('',(32.48323897396,-0.74728350375,164.90654336354
    ));
#421 = CARTESIAN_POINT('',(32.481583731406,-0.795181847641,
    164.92617915406));
#422 = CARTESIAN_POINT('',(32.479847979097,-0.842037692807,
    164.94683808784));
#423 = CARTESIAN_POINT('',(32.47803984305,-0.887856910013,164.9684351349
    ));
#424 = CARTESIAN_POINT('',(32.476166652642,-0.932655085764,
    164.99089389511));
#425 = CARTESIAN_POINT('',(32.471016517341,-1.049421149072,
    165.05288739008));
#426 = CARTESIAN_POINT('',(32.467636641401,-1.119591064636,
    165.0938197957));
#427 = CARTESIAN_POINT('',(32.464124244994,-1.187094844444,
    165.13664515962));
#428 = CARTESIAN_POINT('',(32.460504260226,-1.252057726698,
    165.18110643356));
#429 = CARTESIAN_POINT('',(32.456797708891,-1.314605079703,
    165.22698696111));
#430 = CARTESIAN_POINT('',(32.453021931651,-1.374864895791,
    165.27410859865));
#431 = CARTESIAN_POINT('',(32.449190780434,-1.432968469017,
    165.32233110203));
#432 = CARTESIAN_POINT('',(32.43855692386,-1.586826587163,
    165.45737119148));
#433 = CARTESIAN_POINT('',(32.431668477854,-1.678372339507,
    165.54615380255));
#434 = CARTESIAN_POINT('',(32.424707609269,-1.764382214317,
    165.63732670688));
#435 = CARTESIAN_POINT('',(32.417718256578,-1.84535305665,
    165.73045782127));
#436 = CARTESIAN_POINT('',(32.410734507871,-1.921695408196,
    165.82521147007));
#437 = CARTESIAN_POINT('',(32.403782435825,-1.993769272187,
    165.92133429385));
#438 = CARTESIAN_POINT('',(32.396880974015,-2.06188831785,
    166.01865357621));
#439 = CARTESIAN_POINT('',(32.381876873878,-2.203314111794,
    166.23461344601));
#440 = CARTESIAN_POINT('',(32.373806426743,-2.275009485992,
    166.35365062502));
#441 = CARTESIAN_POINT('',(32.365858829754,-2.341875100761,
    166.47394466022));
#442 = CARTESIAN_POINT('',(32.358055660788,-2.404252847882,
    166.59530686618));
#443 = CARTESIAN_POINT('',(32.350414470165,-2.462414691464,
    166.71758614571));
#444 = CARTESIAN_POINT('',(32.342949651373,-2.516588355573,
    166.84066273749));
#445 = CARTESIAN_POINT('',(32.33567304212,-2.566969292007,
    166.96444539778));
#446 = CARTESIAN_POINT('',(32.31637668107,-2.694406088024,
    167.30362514071));
#447 = CARTESIAN_POINT('',(32.30475252375,-2.764250450728,
    167.52022418172));
#448 = CARTESIAN_POINT('',(32.293772758362,-2.824087790394,
    167.73830931835));
#449 = CARTESIAN_POINT('',(32.283479202144,-2.8744376704,167.95758650883
    ));
#450 = CARTESIAN_POINT('',(32.273906838743,-2.915648563488,
    168.17780860195));
#451 = CARTESIAN_POINT('',(32.265085091333,-2.947945790205,
    168.39876913492));
#452 = CARTESIAN_POINT('',(32.257038734314,-2.971433283825,
    168.62030140974));
#453 = CARTESIAN_POINT('',(32.241336022105,-3.003201954864,
    169.1010994696));
#454 = CARTESIAN_POINT('',(32.233969981332,-3.00830388857,
    169.36040727297));
#455 = CARTESIAN_POINT('',(32.22772261216,-3.001403595332,
    169.62000768588));
#456 = CARTESIAN_POINT('',(32.222623743951,-2.982275433335,
    169.87964741541));
#457 = CARTESIAN_POINT('',(32.218698795791,-2.95048216563,
    170.13900455049));
#458 = CARTESIAN_POINT('',(32.215965905624,-2.905389874493,
    170.39768698117));
#459 = CARTESIAN_POINT('',(32.21443246767,-2.846096614269,
    170.65522463613));
#460 = CARTESIAN_POINT('',(32.213806317421,-2.708844333503,
    171.12393677393));
#461 = CARTESIAN_POINT('',(32.214347677915,-2.635789461797,
    171.33528456195));
#462 = CARTESIAN_POINT('',(32.215705222896,-2.551185651454,
    171.54506093641));
#463 = CARTESIAN_POINT('',(32.217868418524,-2.453925141263,
    171.75286937496));
#464 = CARTESIAN_POINT('',(32.220815493013,-2.342747221229,
    171.95798110463));
#465 = CARTESIAN_POINT('',(32.224496814454,-2.21590713284,
    172.15921503373));
#466 = CARTESIAN_POINT('',(32.228826141317,-2.071471572947,
    172.35502811036));
#467 = CARTESIAN_POINT('',(32.236245969538,-1.816464975816,
    172.64422840358));
#468 = CARTESIAN_POINT('',(32.238979816186,-1.721245147689,
    172.74294191645));
#469 = CARTESIAN_POINT('',(32.241828926011,-1.619397744922,
    172.8389276264));
#470 = CARTESIAN_POINT('',(32.244761100764,-1.510294861305,
    172.93164768207));
#471 = CARTESIAN_POINT('',(32.247729375544,-1.393328233231,
    173.02026883209));
#472 = CARTESIAN_POINT('',(32.250668204768,-1.2679412767,173.10367816749
    ));
#473 = CARTESIAN_POINT('',(32.253491438049,-1.133632561188,
    173.18048034454));
#474 = CARTESIAN_POINT('',(32.256848400357,-0.948127659296,
    173.26882175703));
#475 = CARTESIAN_POINT('',(32.257584816564,-0.905602449674,
    173.28798983043));
#476 = CARTESIAN_POINT('',(32.258299366762,-0.862302174025,
    173.3063972599));
#477 = CARTESIAN_POINT('',(32.258989106328,-0.81823067495,
    173.32399451415));
#478 = CARTESIAN_POINT('',(32.259650934311,-0.773397885618,
    173.34072927059));
#479 = CARTESIAN_POINT('',(32.260281650312,-0.727820672212,
    173.3565474212));
#480 = CARTESIAN_POINT('',(32.260878011361,-0.681523676366,
    173.37139407828));
#481 = CARTESIAN_POINT('',(32.262325938169,-0.55977807262,173.4072063249
    ));
#482 = CARTESIAN_POINT('',(32.26312034911,-0.483242587731,
    173.42661032886));
#483 = CARTESIAN_POINT('',(32.26380638113,-0.405111921006,
    173.44318895632));
#484 = CARTESIAN_POINT('',(32.264371120787,-0.325607276408,
    173.45672289313));
#485 = CARTESIAN_POINT('',(32.264803356344,-0.244996432713,
    173.46702241157));
#486 = CARTESIAN_POINT('',(32.265094595767,-0.163598100844,
    173.47394231454));
#487 = CARTESIAN_POINT('',(32.265240128083,-8.178704963439E-02,
    173.47740055903));
#488 = CARTESIAN_POINT('',(32.265240128083,-8.881784197001E-16,
    173.47740055903));
#489 = PCURVE('',#32,#490);
#490 = DEFINITIONAL_REPRESENTATION('',(#491),#571);
#491 = B_SPLINE_CURVE_WITH_KNOTS('',8,(#492,#493,#494,#495,#496,#497,
    #498,#499,#500,#501,#502,#503,#504,#505,#506,#507,#508,#509,#510,
    #511,#512,#513,#514,#515,#516,#517,#518,#519,#520,#521,#522,#523,
    #524,#525,#526,#527,#528,#529,#530,#531,#532,#533,#534,#535,#536,
    #537,#538,#539,#540,#541,#542,#543,#544,#545,#546,#547,#548,#549,
    #550,#551,#552,#553,#554,#555,#556,#557,#558,#559,#560,#561,#562,
    #563,#564,#565,#566,#567,#568,#569,#570),.UNSPECIFIED.,.F.,.F.,(9,7,
    7,7,7,7,7,7,7,7,7,9),(0.,3.946888184657E-02,6.831541456754E-02,
    0.116369576021,0.200152415451,0.300219983452,0.472930800174,
    0.674313409806,0.841903292263,0.932110411749,0.958310057939,1.),
  .UNSPECIFIED.);
#492 = CARTESIAN_POINT('',(-6.28318530718,-94.76177772416));
#493 = CARTESIAN_POINT('',(-6.280801543478,-94.76177772416));
#494 = CARTESIAN_POINT('',(-6.278416936006,-94.76531492736));
#495 = CARTESIAN_POINT('',(-6.276047309275,-94.77239361128));
#496 = CARTESIAN_POINT('',(-6.273705633414,-94.78290055089));
#497 = CARTESIAN_POINT('',(-6.271402394659,-94.796641835));
#498 = CARTESIAN_POINT('',(-6.26914590642,-94.81337320368));
#499 = CARTESIAN_POINT('',(-6.266942560909,-94.83282390654));
#500 = CARTESIAN_POINT('',(-6.263228915678,-94.87071290516));
#501 = CARTESIAN_POINT('',(-6.261690961727,-94.88802244674));
#502 = CARTESIAN_POINT('',(-6.260184210236,-94.90654336354));
#503 = CARTESIAN_POINT('',(-6.258709245063,-94.92617915406));
#504 = CARTESIAN_POINT('',(-6.257266239481,-94.94683808784));
#505 = CARTESIAN_POINT('',(-6.255855012466,-94.9684351349));
#506 = CARTESIAN_POINT('',(-6.254475084994,-94.99089389511));
#507 = CARTESIAN_POINT('',(-6.250877916152,-95.05288739008));
#508 = CARTESIAN_POINT('',(-6.248715792066,-95.0938197957));
#509 = CARTESIAN_POINT('',(-6.246635386825,-95.13664515962));
#510 = CARTESIAN_POINT('',(-6.244632857809,-95.18110643356));
#511 = CARTESIAN_POINT('',(-6.24270436174,-95.22698696111));
#512 = CARTESIAN_POINT('',(-6.240845975758,-95.27410859865));
#513 = CARTESIAN_POINT('',(-6.239053674851,-95.32233110203));
#514 = CARTESIAN_POINT('',(-6.234306556837,-95.45737119148));
#515 = CARTESIAN_POINT('',(-6.231480742492,-95.54615380255));
#516 = CARTESIAN_POINT('',(-6.228824590077,-95.63732670688));
#517 = CARTESIAN_POINT('',(-6.226322889407,-95.73045782127));
#518 = CARTESIAN_POINT('',(-6.223963083392,-95.82521147007));
#519 = CARTESIAN_POINT('',(-6.221734163859,-95.92133429385));
#520 = CARTESIAN_POINT('',(-6.219626540172,-96.01865357621));
#521 = CARTESIAN_POINT('',(-6.215248661659,-96.23461344601));
#522 = CARTESIAN_POINT('',(-6.213027851511,-96.35365062502));
#523 = CARTESIAN_POINT('',(-6.210955270602,-96.47394466022));
#524 = CARTESIAN_POINT('',(-6.209020490263,-96.59530686618));
#525 = CARTESIAN_POINT('',(-6.20721522752,-96.71758614571));
#526 = CARTESIAN_POINT('',(-6.205532554582,-96.84066273749));
#527 = CARTESIAN_POINT('',(-6.203966530745,-96.96444539778));
#528 = CARTESIAN_POINT('',(-6.200002264096,-97.30362514071));
#529 = CARTESIAN_POINT('',(-6.197825957276,-97.52022418173));
#530 = CARTESIAN_POINT('',(-6.195957972791,-97.73830931835));
#531 = CARTESIAN_POINT('',(-6.19438265045,-97.95758650883));
#532 = CARTESIAN_POINT('',(-6.193089572065,-98.17780860195));
#533 = CARTESIAN_POINT('',(-6.192072088809,-98.39876913492));
#534 = CARTESIAN_POINT('',(-6.191327270228,-98.62030140974));
#535 = CARTESIAN_POINT('',(-6.190305861405,-99.1010994696));
#536 = CARTESIAN_POINT('',(-6.190127771142,-99.36040727297));
#537 = CARTESIAN_POINT('',(-6.190321914398,-99.62000768588));
#538 = CARTESIAN_POINT('',(-6.190895628683,-99.87964741541));
#539 = CARTESIAN_POINT('',(-6.191862762054,-100.1390045504));
#540 = CARTESIAN_POINT('',(-6.193243210259,-100.3976869811));
#541 = CARTESIAN_POINT('',(-6.195065122268,-100.6552246361));
#542 = CARTESIAN_POINT('',(-6.199292793627,-101.1239367739));
#543 = CARTESIAN_POINT('',(-6.201546126398,-101.3352845619));
#544 = CARTESIAN_POINT('',(-6.204158490302,-101.5450609364));
#545 = CARTESIAN_POINT('',(-6.207164270865,-101.7528693749));
#546 = CARTESIAN_POINT('',(-6.210602578292,-101.9579811046));
#547 = CARTESIAN_POINT('',(-6.214527491933,-102.1592150337));
#548 = CARTESIAN_POINT('',(-6.218998885499,-102.3550281103));
#549 = CARTESIAN_POINT('',(-6.22689608344,-102.6442284035));
#550 = CARTESIAN_POINT('',(-6.229845364452,-102.7429419164));
#551 = CARTESIAN_POINT('',(-6.233000344919,-102.8389276264));
#552 = CARTESIAN_POINT('',(-6.236380469902,-102.931647682));
#553 = CARTESIAN_POINT('',(-6.240004572673,-103.020268832));
#554 = CARTESIAN_POINT('',(-6.24388987874,-103.1036781674));
#555 = CARTESIAN_POINT('',(-6.24805189837,-103.1804803445));
#556 = CARTESIAN_POINT('',(-6.253800681639,-103.268821757));
#557 = CARTESIAN_POINT('',(-6.255118551424,-103.2879898304));
#558 = CARTESIAN_POINT('',(-6.256460456314,-103.3063972599));
#559 = CARTESIAN_POINT('',(-6.257826276387,-103.3239945141));
#560 = CARTESIAN_POINT('',(-6.259215702933,-103.3407292705));
#561 = CARTESIAN_POINT('',(-6.260628212344,-103.3565474212));
#562 = CARTESIAN_POINT('',(-6.26206304001,-103.3713940782));
#563 = CARTESIAN_POINT('',(-6.265836182303,-103.4072063249));
#564 = CARTESIAN_POINT('',(-6.268208196457,-103.4266103288));
#565 = CARTESIAN_POINT('',(-6.27062966956,-103.4431889563));
#566 = CARTESIAN_POINT('',(-6.273093742038,-103.4567228931));
#567 = CARTESIAN_POINT('',(-6.275592110736,-103.4670224115));
#568 = CARTESIAN_POINT('',(-6.278114893933,-103.4739423145));
#569 = CARTESIAN_POINT('',(-6.2806504725,-103.477400559));
#570 = CARTESIAN_POINT('',(-6.28318530718,-103.477400559));
#571 = ( GEOMETRIC_REPRESENTATION_CONTEXT(2) 
PARAMETRIC_REPRESENTATION_CONTEXT() REPRESENTATION_CONTEXT('2D SPACE',''
  ) );
#572 = PCURVE('',#261,#573);
#573 = DEFINITIONAL_REPRESENTATION('',(#574),#654);
#574 = B_SPLINE_CURVE_WITH_KNOTS('',8,(#575,#576,#577,#578,#579,#580,
    #581,#582,#583,#584,#585,#586,#587,#588,#589,#590,#591,#592,#593,
    #594,#595,#596,#597,#598,#599,#600,#601,#602,#603,#604,#605,#606,
    #607,#608,#609,#610,#611,#612,#613,#614,#615,#616,#617,#618,#619,
    #620,#621,#622,#623,#624,#625,#626,#627,#628,#629,#630,#631,#632,
    #633,#634,#635,#636,#637,#638,#639,#640,#641,#642,#643,#644,#645,
    #646,#647,#648,#649,#650,#651,#652,#653),.UNSPECIFIED.,.F.,.F.,(9,7,
    7,7,7,7,7,7,7,7,7,9),(0.,3.946888184657E-02,6.831541456754E-02,
    0.116369576021,0.200152415451,0.300219983452,0.472930800174,
    0.674313409806,0.841903292263,0.932110411749,0.958310057939,1.),
  .UNSPECIFIED.);
#575 = CARTESIAN_POINT('',(3.14159265359,33.319957076143));
#576 = CARTESIAN_POINT('',(3.167413249546,33.319957076143));
#577 = CARTESIAN_POINT('',(3.193242970428,33.322673575713));
#578 = CARTESIAN_POINT('',(3.218936185619,33.328109882193));
#579 = CARTESIAN_POINT('',(3.244378081046,33.336178413427));
#580 = CARTESIAN_POINT('',(3.269477888611,33.346729094521));
#581 = CARTESIAN_POINT('',(3.294163924341,33.359572822097));
#582 = CARTESIAN_POINT('',(3.318380435277,33.374499996037));
#583 = CARTESIAN_POINT('',(3.359412074207,33.403568401315));
#584 = CARTESIAN_POINT('',(3.376473110654,33.416845802608));
#585 = CARTESIAN_POINT('',(3.393261901468,33.431049388027));
#586 = CARTESIAN_POINT('',(3.409774977987,33.44610442189));
#587 = CARTESIAN_POINT('',(3.426012454031,33.461939856289));
#588 = CARTESIAN_POINT('',(3.441977614082,33.47848981998));
#589 = CARTESIAN_POINT('',(3.457676501457,33.49569510726));
#590 = CARTESIAN_POINT('',(3.49883999298,33.543172823539));
#591 = CARTESIAN_POINT('',(3.52383726044,33.574506338321));
#592 = CARTESIAN_POINT('',(3.548155173728,33.607272082868));
#593 = CARTESIAN_POINT('',(3.571835251968,33.64127066695));
#594 = CARTESIAN_POINT('',(3.59491727234,33.676334026692));
#595 = CARTESIAN_POINT('',(3.617441169625,33.712323933828));
#596 = CARTESIAN_POINT('',(3.639448231533,33.749131425975));
#597 = CARTESIAN_POINT('',(3.698525183147,33.85213846105));
#598 = CARTESIAN_POINT('',(3.734597046848,33.919788114275));
#599 = CARTESIAN_POINT('',(3.769418648252,33.989179170565));
#600 = CARTESIAN_POINT('',(3.803142908169,34.059975031777));
#601 = CARTESIAN_POINT('',(3.835894099651,34.131914235453));
#602 = CARTESIAN_POINT('',(3.867781899683,34.204799193262));
#603 = CARTESIAN_POINT('',(3.898904896052,34.278494388202));
#604 = CARTESIAN_POINT('',(3.96573209101,34.441810577554));
#605 = CARTESIAN_POINT('',(4.001129054336,34.531689241944));
#606 = CARTESIAN_POINT('',(4.035693896162,34.622369769697));
#607 = CARTESIAN_POINT('',(4.069536521348,34.713703482198));
#608 = CARTESIAN_POINT('',(4.102745994411,34.805571127657));
#609 = CARTESIAN_POINT('',(4.135399651226,34.897877844302));
#610 = CARTESIAN_POINT('',(4.167567913111,34.990550742533));
#611 = CARTESIAN_POINT('',(4.254108093874,35.244031626546));
#612 = CARTESIAN_POINT('',(4.307628265444,35.405409797716));
#613 = CARTESIAN_POINT('',(4.360199009014,35.567383143261));
#614 = CARTESIAN_POINT('',(4.412056258581,35.729714175011));
#615 = CARTESIAN_POINT('',(4.463397969221,35.892203393496));
#616 = CARTESIAN_POINT('',(4.514403591756,36.054684002148));
#617 = CARTESIAN_POINT('',(4.565242284685,36.217020609539));
#618 = CARTESIAN_POINT('',(4.675376591411,36.568099672334));
#619 = CARTESIAN_POINT('',(4.734648071058,36.756666555895));
#620 = CARTESIAN_POINT('',(4.794184232765,36.944649325367));
#621 = CARTESIAN_POINT('',(4.854240173124,37.131847783071));
#622 = CARTESIAN_POINT('',(4.915078886831,37.318016329497));
#623 = CARTESIAN_POINT('',(4.97698460988,37.502864875568));
#624 = CARTESIAN_POINT('',(5.040293924354,37.686055802176));
#625 = CARTESIAN_POINT('',(5.159732627577,38.01792808833));
#626 = CARTESIAN_POINT('',(5.215194278178,38.166990742754));
#627 = CARTESIAN_POINT('',(5.272207612814,38.314365110399));
#628 = CARTESIAN_POINT('',(5.331121789412,38.459778256194));
#629 = CARTESIAN_POINT('',(5.392285893955,38.602730254781));
#630 = CARTESIAN_POINT('',(5.456177641571,38.742421043304));
#631 = CARTESIAN_POINT('',(5.523327824543,38.877820501248));
#632 = CARTESIAN_POINT('',(5.633388470857,39.077069378858));
#633 = CARTESIAN_POINT('',(5.673091120951,39.144937251695));
#634 = CARTESIAN_POINT('',(5.714196118658,39.210794773222));
#635 = CARTESIAN_POINT('',(5.756888612742,39.274284392685));
#636 = CARTESIAN_POINT('',(5.801339313865,39.334850121599));
#637 = CARTESIAN_POINT('',(5.847708813352,39.391751362204));
#638 = CARTESIAN_POINT('',(5.896163751782,39.444062375008));
#639 = CARTESIAN_POINT('',(5.961667241593,39.504155456027));
#640 = CARTESIAN_POINT('',(5.976596462989,39.517188605812));
#641 = CARTESIAN_POINT('',(5.991713576555,39.529699360727));
#642 = CARTESIAN_POINT('',(6.007018712969,39.541654779012));
#643 = CARTESIAN_POINT('',(6.022510409259,39.553020055721));
#644 = CARTESIAN_POINT('',(6.038185411877,39.563759193719));
#645 = CARTESIAN_POINT('',(6.054038479771,39.573835674675));
#646 = CARTESIAN_POINT('',(6.095559762525,39.598134918248));
#647 = CARTESIAN_POINT('',(6.1215013528,39.611293887665));
#648 = CARTESIAN_POINT('',(6.14784167895,39.622531649673));
#649 = CARTESIAN_POINT('',(6.17452596756,39.631702256923));
#650 = CARTESIAN_POINT('',(6.201488938861,39.638679479564));
#651 = CARTESIAN_POINT('',(6.228652616207,39.643366652508));
#652 = CARTESIAN_POINT('',(6.255922957301,39.645709093751));
#653 = CARTESIAN_POINT('',(6.28318530718,39.645709093751));
#654 = ( GEOMETRIC_REPRESENTATION_CONTEXT(2) 
PARAMETRIC_REPRESENTATION_CONTEXT() REPRESENTATION_CONTEXT('2D SPACE',''
  ) );
#655 = ADVANCED_FACE('',(#656),#261,.T.);
#656 = FACE_BOUND('',#657,.T.);
#657 = EDGE_LOOP('',(#658,#659,#682,#709,#710));
#658 = ORIENTED_EDGE('',*,*,#79,.F.);
#659 = ORIENTED_EDGE('',*,*,#660,.F.);
#660 = EDGE_CURVE('',#661,#22,#663,.T.);
#661 = VERTEX_POINT('',#662);
#662 = CARTESIAN_POINT('',(60.298989873223,-7.347880794884E-16,
    145.44365081389));
#663 = SEAM_CURVE('',#664,(#668,#675),.PCURVE_S1.);
#664 = LINE('',#665,#666);
#665 = CARTESIAN_POINT('',(60.298989873223,-7.347880794884E-16,
    145.44365081389));
#666 = VECTOR('',#667,1.);
#667 = DIRECTION('',(-0.707106781187,0.,0.707106781187));
#668 = PCURVE('',#261,#669);
#669 = DEFINITIONAL_REPRESENTATION('',(#670),#674);
#670 = LINE('',#671,#672);
#671 = CARTESIAN_POINT('',(6.28318530718,-0.));
#672 = VECTOR('',#673,1.);
#673 = DIRECTION('',(0.,1.));
#674 = ( GEOMETRIC_REPRESENTATION_CONTEXT(2) 
PARAMETRIC_REPRESENTATION_CONTEXT() REPRESENTATION_CONTEXT('2D SPACE',''
  ) );
#675 = PCURVE('',#261,#676);
#676 = DEFINITIONAL_REPRESENTATION('',(#677),#681);
#677 = LINE('',#678,#679);
#678 = CARTESIAN_POINT('',(0.,-0.));
#679 = VECTOR('',#680,1.);
#680 = DIRECTION('',(0.,1.));
#681 = ( GEOMETRIC_REPRESENTATION_CONTEXT(2) 
PARAMETRIC_REPRESENTATION_CONTEXT() REPRESENTATION_CONTEXT('2D SPACE',''
  ) );
#682 = ORIENTED_EDGE('',*,*,#683,.T.);
#683 = EDGE_CURVE('',#661,#661,#684,.T.);
#684 = SURFACE_CURVE('',#685,(#690,#697),.PCURVE_S1.);
#685 = CIRCLE('',#686,3.);
#686 = AXIS2_PLACEMENT_3D('',#687,#688,#689);
#687 = CARTESIAN_POINT('',(58.177669529664,0.,143.32233047033));
#688 = DIRECTION('',(-0.707106781187,0.,0.707106781187));
#689 = DIRECTION('',(0.707106781187,0.,0.707106781187));
#690 = PCURVE('',#261,#691);
#691 = DEFINITIONAL_REPRESENTATION('',(#692),#696);
#692 = LINE('',#693,#694);
#693 = CARTESIAN_POINT('',(0.,0.));
#694 = VECTOR('',#695,1.);
#695 = DIRECTION('',(1.,0.));
#696 = ( GEOMETRIC_REPRESENTATION_CONTEXT(2) 
PARAMETRIC_REPRESENTATION_CONTEXT() REPRESENTATION_CONTEXT('2D SPACE',''
  ) );
#697 = PCURVE('',#698,#703);
#698 = PLANE('',#699);
#699 = AXIS2_PLACEMENT_3D('',#700,#701,#702);
#700 = CARTESIAN_POINT('',(58.177669529664,0.,143.32233047033));
#701 = DIRECTION('',(-0.707106781187,0.,0.707106781187));
#702 = DIRECTION('',(0.707106781187,0.,0.707106781187));
#703 = DEFINITIONAL_REPRESENTATION('',(#704),#708);
#704 = CIRCLE('',#705,3.);
#705 = AXIS2_PLACEMENT_2D('',#706,#707);
#706 = CARTESIAN_POINT('',(0.,0.));
#707 = DIRECTION('',(1.,0.));
#708 = ( GEOMETRIC_REPRESENTATION_CONTEXT(2) 
PARAMETRIC_REPRESENTATION_CONTEXT() REPRESENTATION_CONTEXT('2D SPACE',''
  ) );
#709 = ORIENTED_EDGE('',*,*,#660,.T.);
#710 = ORIENTED_EDGE('',*,*,#407,.F.);
#711 = ADVANCED_FACE('',(#712),#394,.F.);
#712 = FACE_BOUND('',#713,.T.);
#713 = EDGE_LOOP('',(#714));
#714 = ORIENTED_EDGE('',*,*,#379,.F.);
#715 = ADVANCED_FACE('',(#716),#66,.T.);
#716 = FACE_BOUND('',#717,.T.);
#717 = EDGE_LOOP('',(#718));
#718 = ORIENTED_EDGE('',*,*,#51,.T.);
#719 = ADVANCED_FACE('',(#720),#698,.F.);
#720 = FACE_BOUND('',#721,.T.);
#721 = EDGE_LOOP('',(#722));
#722 = ORIENTED_EDGE('',*,*,#683,.F.);
#723 = ( GEOMETRIC_REPRESENTATION_CONTEXT(3) 
GLOBAL_UNCERTAINTY_ASSIGNED_CONTEXT((#727)) GLOBAL_UNIT_ASSIGNED_CONTEXT
((#724,#725,#726)) REPRESENTATION_CONTEXT('Context #1',
  '3D Context with UNIT and UNCERTAINTY') );
#724 = ( LENGTH_UNIT() NAMED_UNIT(*) SI_UNIT(.MILLI.,.METRE.) );
#725 = ( NAMED_UNIT(*) PLANE_ANGLE_UNIT() SI_UNIT($,.RADIAN.) );
#726 = ( NAMED_UNIT(*) SI_UNIT($,.STERADIAN.) SOLID_ANGLE_UNIT() );
#727 = UNCERTAINTY_MEASURE_WITH_UNIT(LENGTH_MEASURE(1.E-07),#724,
  'distance_accuracy_value','confusion accuracy');
#728 = PRODUCT_RELATED_PRODUCT_CATEGORY('part',$,(#7));
ENDSEC;
END-ISO-10303-21;
