ISO-10303-21;
HEADER;
FILE_DESCRIPTION(('Open CASCADE Model'),'2;1');
FILE_NAME('Open CASCADE Shape Model','2026-03-24T15:57:34',('Author'),(
    'Open CASCADE'),'Open CASCADE STEP processor 7.7','Open CASCADE 7.7'
  ,'Unknown');
FILE_SCHEMA(('AUTOMOTIVE_DESIGN { 1 0 10303 214 1 1 1 1 }'));
ENDSEC;
DATA;
#1 = APPLICATION_PROTOCOL_DEFINITION('international standard',
  'automotive_design',2000,#2);
#2 = APPLICATION_CONTEXT(
  'core data for automotive mechanical design processes');
#3 = SHAPE_DEFINITION_REPRESENTATION(#4,#10);
#4 = PRODUCT_DEFINITION_SHAPE('','',#5);
#5 = PRODUCT_DEFINITION('design','',#6,#9);
#6 = PRODUCT_DEFINITION_FORMATION('','',#7);
#7 = PRODUCT('Open CASCADE STEP translator 7.7 1',
  'Open CASCADE STEP translator 7.7 1','',(#8));
#8 = PRODUCT_CONTEXT('',#2,'mechanical');
#9 = PRODUCT_DEFINITION_CONTEXT('part definition',#2,'design');
#10 = SHAPE_REPRESENTATION('',(#11,#15),#19);
#11 = AXIS2_PLACEMENT_3D('',#12,#13,#14);
#12 = CARTESIAN_POINT('',(0.,0.,0.));
#13 = DIRECTION('',(0.,0.,1.));
#14 = DIRECTION('',(1.,0.,-0.));
#15 = AXIS2_PLACEMENT_3D('',#16,#17,#18);
#16 = CARTESIAN_POINT('',(0.,0.,0.));
#17 = DIRECTION('',(0.,0.,1.));
#18 = DIRECTION('',(1.,0.,-0.));
#19 = ( GEOMETRIC_REPRESENTATION_CONTEXT(3) 
GLOBAL_UNCERTAINTY_ASSIGNED_CONTEXT((#23)) GLOBAL_UNIT_ASSIGNED_CONTEXT(
(#20,#21,#22)) REPRESENTATION_CONTEXT('Context #1',
  '3D Context with UNIT and UNCERTAINTY') );
#20 = ( LENGTH_UNIT() NAMED_UNIT(*) SI_UNIT(.MILLI.,.METRE.) );
#21 = ( NAMED_UNIT(*) PLANE_ANGLE_UNIT() SI_UNIT($,.RADIAN.) );
#22 = ( NAMED_UNIT(*) SI_UNIT($,.STERADIAN.) SOLID_ANGLE_UNIT() );
#23 = UNCERTAINTY_MEASURE_WITH_UNIT(LENGTH_MEASURE(1.E-07),#20,
  'distance_accuracy_value','confusion accuracy');
#24 = PRODUCT_RELATED_PRODUCT_CATEGORY('part',$,(#7));
#25 = SHAPE_DEFINITION_REPRESENTATION(#26,#32);
#26 = PRODUCT_DEFINITION_SHAPE('','',#27);
#27 = PRODUCT_DEFINITION('design','',#28,#31);
#28 = PRODUCT_DEFINITION_FORMATION('','',#29);
#29 = PRODUCT('Open CASCADE STEP translator 7.7 1.1',
  'Open CASCADE STEP translator 7.7 1.1','',(#30));
#30 = PRODUCT_CONTEXT('',#2,'mechanical');
#31 = PRODUCT_DEFINITION_CONTEXT('part definition',#2,'design');
#32 = SHAPE_REPRESENTATION('',(#11,#33,#37,#41),#45);
#33 = AXIS2_PLACEMENT_3D('',#34,#35,#36);
#34 = CARTESIAN_POINT('',(0.,0.,0.));
#35 = DIRECTION('',(0.,0.,1.));
#36 = DIRECTION('',(1.,0.,-0.));
#37 = AXIS2_PLACEMENT_3D('',#38,#39,#40);
#38 = CARTESIAN_POINT('',(0.,0.,0.));
#39 = DIRECTION('',(0.,0.,1.));
#40 = DIRECTION('',(1.,0.,-0.));
#41 = AXIS2_PLACEMENT_3D('',#42,#43,#44);
#42 = CARTESIAN_POINT('',(0.,0.,0.));
#43 = DIRECTION('',(0.,0.,1.));
#44 = DIRECTION('',(1.,0.,0.));
#45 = ( GEOMETRIC_REPRESENTATION_CONTEXT(3) 
GLOBAL_UNCERTAINTY_ASSIGNED_CONTEXT((#49)) GLOBAL_UNIT_ASSIGNED_CONTEXT(
(#46,#47,#48)) REPRESENTATION_CONTEXT('Context #1',
  '3D Context with UNIT and UNCERTAINTY') );
#46 = ( LENGTH_UNIT() NAMED_UNIT(*) SI_UNIT(.MILLI.,.METRE.) );
#47 = ( NAMED_UNIT(*) PLANE_ANGLE_UNIT() SI_UNIT($,.RADIAN.) );
#48 = ( NAMED_UNIT(*) SI_UNIT($,.STERADIAN.) SOLID_ANGLE_UNIT() );
#49 = UNCERTAINTY_MEASURE_WITH_UNIT(LENGTH_MEASURE(1.E-07),#46,
  'distance_accuracy_value','confusion accuracy');
#50 = CONTEXT_DEPENDENT_SHAPE_REPRESENTATION(#51,#53);
#51 = ( REPRESENTATION_RELATIONSHIP('','',#32,#10) 
REPRESENTATION_RELATIONSHIP_WITH_TRANSFORMATION(#52) 
SHAPE_REPRESENTATION_RELATIONSHIP() );
#52 = ITEM_DEFINED_TRANSFORMATION('','',#11,#15);
#53 = PRODUCT_DEFINITION_SHAPE('Placement','Placement of an item',#54);
#54 = NEXT_ASSEMBLY_USAGE_OCCURRENCE('4','','',#5,#27,$);
#55 = PRODUCT_RELATED_PRODUCT_CATEGORY('part',$,(#29));
#56 = SHAPE_DEFINITION_REPRESENTATION(#57,#63);
#57 = PRODUCT_DEFINITION_SHAPE('','',#58);
#58 = PRODUCT_DEFINITION('design','',#59,#62);
#59 = PRODUCT_DEFINITION_FORMATION('','',#60);
#60 = PRODUCT('Open CASCADE STEP translator 7.7 1.1.1',
  'Open CASCADE STEP translator 7.7 1.1.1','',(#61));
#61 = PRODUCT_CONTEXT('',#2,'mechanical');
#62 = PRODUCT_DEFINITION_CONTEXT('part definition',#2,'design');
#63 = ADVANCED_BREP_SHAPE_REPRESENTATION('',(#11,#64),#611);
#64 = MANIFOLD_SOLID_BREP('',#65);
#65 = CLOSED_SHELL('',(#66,#149,#475,#498,#550,#607));
#66 = ADVANCED_FACE('',(#67),#82,.T.);
#67 = FACE_BOUND('',#68,.T.);
#68 = EDGE_LOOP('',(#69,#105,#128));
#69 = ORIENTED_EDGE('',*,*,#70,.F.);
#70 = EDGE_CURVE('',#71,#73,#75,.T.);
#71 = VERTEX_POINT('',#72);
#72 = CARTESIAN_POINT('',(4.286263797016E-16,30.,192.));
#73 = VERTEX_POINT('',#74);
#74 = CARTESIAN_POINT('',(4.286263797016E-16,30.,178.));
#75 = SURFACE_CURVE('',#76,(#81,#93),.PCURVE_S1.);
#76 = CIRCLE('',#77,7.);
#77 = AXIS2_PLACEMENT_3D('',#78,#79,#80);
#78 = CARTESIAN_POINT('',(0.,30.,185.));
#79 = DIRECTION('',(0.,-1.,1.110223024625E-16));
#80 = DIRECTION('',(1.,0.,0.));
#81 = PCURVE('',#82,#87);
#82 = SPHERICAL_SURFACE('',#83,7.);
#83 = AXIS2_PLACEMENT_3D('',#84,#85,#86);
#84 = CARTESIAN_POINT('',(0.,30.,185.));
#85 = DIRECTION('',(0.,0.,1.));
#86 = DIRECTION('',(1.,0.,0.));
#87 = DEFINITIONAL_REPRESENTATION('',(#88),#92);
#88 = LINE('',#89,#90);
#89 = CARTESIAN_POINT('',(3.14159265359,3.14159265359));
#90 = VECTOR('',#91,1.);
#91 = DIRECTION('',(0.,-1.));
#92 = ( GEOMETRIC_REPRESENTATION_CONTEXT(2) 
PARAMETRIC_REPRESENTATION_CONTEXT() REPRESENTATION_CONTEXT('2D SPACE',''
  ) );
#93 = PCURVE('',#94,#99);
#94 = CYLINDRICAL_SURFACE('',#95,7.);
#95 = AXIS2_PLACEMENT_3D('',#96,#97,#98);
#96 = CARTESIAN_POINT('',(0.,30.,185.));
#97 = DIRECTION('',(0.,-1.,1.110223024625E-16));
#98 = DIRECTION('',(1.,0.,0.));
#99 = DEFINITIONAL_REPRESENTATION('',(#100),#104);
#100 = LINE('',#101,#102);
#101 = CARTESIAN_POINT('',(0.,0.));
#102 = VECTOR('',#103,1.);
#103 = DIRECTION('',(1.,0.));
#104 = ( GEOMETRIC_REPRESENTATION_CONTEXT(2) 
PARAMETRIC_REPRESENTATION_CONTEXT() REPRESENTATION_CONTEXT('2D SPACE',''
  ) );
#105 = ORIENTED_EDGE('',*,*,#106,.F.);
#106 = EDGE_CURVE('',#107,#71,#109,.T.);
#107 = VERTEX_POINT('',#108);
#108 = CARTESIAN_POINT('',(7.,30.,185.));
#109 = SURFACE_CURVE('',#110,(#115,#121),.PCURVE_S1.);
#110 = CIRCLE('',#111,7.);
#111 = AXIS2_PLACEMENT_3D('',#112,#113,#114);
#112 = CARTESIAN_POINT('',(0.,30.,185.));
#113 = DIRECTION('',(0.,-1.,1.110223024625E-16));
#114 = DIRECTION('',(1.,0.,0.));
#115 = PCURVE('',#82,#116);
#116 = DEFINITIONAL_REPRESENTATION('',(#117),#120);
#117 = B_SPLINE_CURVE_WITH_KNOTS('',1,(#118,#119),.UNSPECIFIED.,.F.,.F.,
  (2,2),(0.,1.570796326795),.PIECEWISE_BEZIER_KNOTS.);
#118 = CARTESIAN_POINT('',(0.,0.));
#119 = CARTESIAN_POINT('',(0.,1.570796326795));
#120 = ( GEOMETRIC_REPRESENTATION_CONTEXT(2) 
PARAMETRIC_REPRESENTATION_CONTEXT() REPRESENTATION_CONTEXT('2D SPACE',''
  ) );
#121 = PCURVE('',#94,#122);
#122 = DEFINITIONAL_REPRESENTATION('',(#123),#127);
#123 = LINE('',#124,#125);
#124 = CARTESIAN_POINT('',(0.,0.));
#125 = VECTOR('',#126,1.);
#126 = DIRECTION('',(1.,0.));
#127 = ( GEOMETRIC_REPRESENTATION_CONTEXT(2) 
PARAMETRIC_REPRESENTATION_CONTEXT() REPRESENTATION_CONTEXT('2D SPACE',''
  ) );
#128 = ORIENTED_EDGE('',*,*,#129,.F.);
#129 = EDGE_CURVE('',#73,#107,#130,.T.);
#130 = SURFACE_CURVE('',#131,(#136,#142),.PCURVE_S1.);
#131 = CIRCLE('',#132,7.);
#132 = AXIS2_PLACEMENT_3D('',#133,#134,#135);
#133 = CARTESIAN_POINT('',(0.,30.,185.));
#134 = DIRECTION('',(0.,-1.,1.110223024625E-16));
#135 = DIRECTION('',(1.,0.,0.));
#136 = PCURVE('',#82,#137);
#137 = DEFINITIONAL_REPRESENTATION('',(#138),#141);
#138 = B_SPLINE_CURVE_WITH_KNOTS('',1,(#139,#140),.UNSPECIFIED.,.F.,.F.,
  (2,2),(4.712388980385,6.28318530718),.PIECEWISE_BEZIER_KNOTS.);
#139 = CARTESIAN_POINT('',(0.,-1.570796326795));
#140 = CARTESIAN_POINT('',(0.,0.));
#141 = ( GEOMETRIC_REPRESENTATION_CONTEXT(2) 
PARAMETRIC_REPRESENTATION_CONTEXT() REPRESENTATION_CONTEXT('2D SPACE',''
  ) );
#142 = PCURVE('',#94,#143);
#143 = DEFINITIONAL_REPRESENTATION('',(#144),#148);
#144 = LINE('',#145,#146);
#145 = CARTESIAN_POINT('',(0.,0.));
#146 = VECTOR('',#147,1.);
#147 = DIRECTION('',(1.,0.));
#148 = ( GEOMETRIC_REPRESENTATION_CONTEXT(2) 
PARAMETRIC_REPRESENTATION_CONTEXT() REPRESENTATION_CONTEXT('2D SPACE',''
  ) );
#149 = ADVANCED_FACE('',(#150),#94,.T.);
#150 = FACE_BOUND('',#151,.T.);
#151 = EDGE_LOOP('',(#152,#183,#211,#232,#233,#234,#235,#236,#456));
#152 = ORIENTED_EDGE('',*,*,#153,.F.);
#153 = EDGE_CURVE('',#154,#156,#158,.T.);
#154 = VERTEX_POINT('',#155);
#155 = CARTESIAN_POINT('',(7.,0.,185.));
#156 = VERTEX_POINT('',#157);
#157 = CARTESIAN_POINT('',(-7.,9.517417514128E-32,185.));
#158 = SURFACE_CURVE('',#159,(#164,#171),.PCURVE_S1.);
#159 = CIRCLE('',#160,7.);
#160 = AXIS2_PLACEMENT_3D('',#161,#162,#163);
#161 = CARTESIAN_POINT('',(0.,0.,185.));
#162 = DIRECTION('',(0.,-1.,1.110223024625E-16));
#163 = DIRECTION('',(1.,0.,0.));
#164 = PCURVE('',#94,#165);
#165 = DEFINITIONAL_REPRESENTATION('',(#166),#170);
#166 = LINE('',#167,#168);
#167 = CARTESIAN_POINT('',(0.,30.));
#168 = VECTOR('',#169,1.);
#169 = DIRECTION('',(1.,0.));
#170 = ( GEOMETRIC_REPRESENTATION_CONTEXT(2) 
PARAMETRIC_REPRESENTATION_CONTEXT() REPRESENTATION_CONTEXT('2D SPACE',''
  ) );
#171 = PCURVE('',#172,#177);
#172 = PLANE('',#173);
#173 = AXIS2_PLACEMENT_3D('',#174,#175,#176);
#174 = CARTESIAN_POINT('',(0.,0.,185.));
#175 = DIRECTION('',(0.,-1.,1.110223024625E-16));
#176 = DIRECTION('',(1.,0.,0.));
#177 = DEFINITIONAL_REPRESENTATION('',(#178),#182);
#178 = CIRCLE('',#179,7.);
#179 = AXIS2_PLACEMENT_2D('',#180,#181);
#180 = CARTESIAN_POINT('',(0.,0.));
#181 = DIRECTION('',(1.,0.));
#182 = ( GEOMETRIC_REPRESENTATION_CONTEXT(2) 
PARAMETRIC_REPRESENTATION_CONTEXT() REPRESENTATION_CONTEXT('2D SPACE',''
  ) );
#183 = ORIENTED_EDGE('',*,*,#184,.F.);
#184 = EDGE_CURVE('',#185,#154,#187,.T.);
#185 = VERTEX_POINT('',#186);
#186 = CARTESIAN_POINT('',(7.,13.266499161422,185.));
#187 = SURFACE_CURVE('',#188,(#192,#199),.PCURVE_S1.);
#188 = LINE('',#189,#190);
#189 = CARTESIAN_POINT('',(7.,30.,185.));
#190 = VECTOR('',#191,1.);
#191 = DIRECTION('',(0.,-1.,1.110223024625E-16));
#192 = PCURVE('',#94,#193);
#193 = DEFINITIONAL_REPRESENTATION('',(#194),#198);
#194 = LINE('',#195,#196);
#195 = CARTESIAN_POINT('',(0.,-0.));
#196 = VECTOR('',#197,1.);
#197 = DIRECTION('',(0.,1.));
#198 = ( GEOMETRIC_REPRESENTATION_CONTEXT(2) 
PARAMETRIC_REPRESENTATION_CONTEXT() REPRESENTATION_CONTEXT('2D SPACE',''
  ) );
#199 = PCURVE('',#200,#205);
#200 = PLANE('',#201);
#201 = AXIS2_PLACEMENT_3D('',#202,#203,#204);
#202 = CARTESIAN_POINT('',(0.,0.,185.));
#203 = DIRECTION('',(0.,0.,1.));
#204 = DIRECTION('',(1.,0.,0.));
#205 = DEFINITIONAL_REPRESENTATION('',(#206),#210);
#206 = LINE('',#207,#208);
#207 = CARTESIAN_POINT('',(7.,30.));
#208 = VECTOR('',#209,1.);
#209 = DIRECTION('',(0.,-1.));
#210 = ( GEOMETRIC_REPRESENTATION_CONTEXT(2) 
PARAMETRIC_REPRESENTATION_CONTEXT() REPRESENTATION_CONTEXT('2D SPACE',''
  ) );
#211 = ORIENTED_EDGE('',*,*,#212,.F.);
#212 = EDGE_CURVE('',#107,#185,#213,.T.);
#213 = SEAM_CURVE('',#214,(#218,#225),.PCURVE_S1.);
#214 = LINE('',#215,#216);
#215 = CARTESIAN_POINT('',(7.,30.,185.));
#216 = VECTOR('',#217,1.);
#217 = DIRECTION('',(0.,-1.,1.110223024625E-16));
#218 = PCURVE('',#94,#219);
#219 = DEFINITIONAL_REPRESENTATION('',(#220),#224);
#220 = LINE('',#221,#222);
#221 = CARTESIAN_POINT('',(6.28318530718,-0.));
#222 = VECTOR('',#223,1.);
#223 = DIRECTION('',(0.,1.));
#224 = ( GEOMETRIC_REPRESENTATION_CONTEXT(2) 
PARAMETRIC_REPRESENTATION_CONTEXT() REPRESENTATION_CONTEXT('2D SPACE',''
  ) );
#225 = PCURVE('',#94,#226);
#226 = DEFINITIONAL_REPRESENTATION('',(#227),#231);
#227 = LINE('',#228,#229);
#228 = CARTESIAN_POINT('',(0.,-0.));
#229 = VECTOR('',#230,1.);
#230 = DIRECTION('',(0.,1.));
#231 = ( GEOMETRIC_REPRESENTATION_CONTEXT(2) 
PARAMETRIC_REPRESENTATION_CONTEXT() REPRESENTATION_CONTEXT('2D SPACE',''
  ) );
#232 = ORIENTED_EDGE('',*,*,#106,.T.);
#233 = ORIENTED_EDGE('',*,*,#70,.T.);
#234 = ORIENTED_EDGE('',*,*,#129,.T.);
#235 = ORIENTED_EDGE('',*,*,#212,.T.);
#236 = ORIENTED_EDGE('',*,*,#237,.F.);
#237 = EDGE_CURVE('',#238,#185,#240,.T.);
#238 = VERTEX_POINT('',#239);
#239 = CARTESIAN_POINT('',(-7.,13.266499161422,185.));
#240 = SURFACE_CURVE('',#241,(#309,#380),.PCURVE_S1.);
#241 = B_SPLINE_CURVE_WITH_KNOTS('',6,(#242,#243,#244,#245,#246,#247,
    #248,#249,#250,#251,#252,#253,#254,#255,#256,#257,#258,#259,#260,
    #261,#262,#263,#264,#265,#266,#267,#268,#269,#270,#271,#272,#273,
    #274,#275,#276,#277,#278,#279,#280,#281,#282,#283,#284,#285,#286,
    #287,#288,#289,#290,#291,#292,#293,#294,#295,#296,#297,#298,#299,
    #300,#301,#302,#303,#304,#305,#306,#307,#308),.UNSPECIFIED.,.F.,.F.,
  (7,5,5,5,5,5,5,5,5,5,5,5,5,7),(0.,0.142035303285,0.247669141896,
    0.28145974748,0.325717087334,0.380850247694,0.451123983963,
    0.548894140313,0.618286745628,0.674441974739,0.719071835926,
    0.75303773776,0.85894322797,1.),.UNSPECIFIED.);
#242 = CARTESIAN_POINT('',(-7.,13.266499161422,185.0000006));
#243 = CARTESIAN_POINT('',(-7.000000039266,13.266499140703,
    184.54189312434));
#244 = CARTESIAN_POINT('',(-6.964023815996,13.285481791604,
    184.0841457252));
#245 = CARTESIAN_POINT('',(-6.892176291784,13.323391841062,
    183.6291633236));
#246 = CARTESIAN_POINT('',(-6.78443938071,13.379303155957,
    183.17939100895));
#247 = CARTESIAN_POINT('',(-6.640714399882,13.451415078998,
    182.73747112207));
#248 = CARTESIAN_POINT('',(-6.327339758871,13.60098178287,
    181.98579710926));
#249 = CARTESIAN_POINT('',(-6.173735882758,13.672349434905,
    181.67110451953));
#250 = CARTESIAN_POINT('',(-5.99996484935,13.750350149853,
    181.36307739265));
#251 = CARTESIAN_POINT('',(-5.805639150425,13.833890746553,
    181.06264722254));
#252 = CARTESIAN_POINT('',(-5.590251321588,13.921690778606,
    180.77100257286));
#253 = CARTESIAN_POINT('',(-5.277397663252,14.041212983777,
    180.39968244774));
#254 = CARTESIAN_POINT('',(-5.199349585352,14.070466119034,
    180.31073299188));
#255 = CARTESIAN_POINT('',(-5.119051576311,14.099957845953,
    180.22287197475));
#256 = CARTESIAN_POINT('',(-5.036477696792,14.129638173275,
    180.13614948237));
#257 = CARTESIAN_POINT('',(-4.951600454746,14.159454519923,
    180.0506201315));
#258 = CARTESIAN_POINT('',(-4.750167724086,14.228509649615,179.855960953
    ));
#259 = CARTESIAN_POINT('',(-4.631945459423,14.267805480092,
    179.74772892179));
#260 = CARTESIAN_POINT('',(-4.509656304902,14.307115965333,
    179.64177840223));
#261 = CARTESIAN_POINT('',(-4.383234846177,14.346306775213,
    179.53826162963));
#262 = CARTESIAN_POINT('',(-4.252617961068,14.385232490586,
    179.43735164841));
#263 = CARTESIAN_POINT('',(-3.949727885793,14.471702735617,
    179.21702353915));
#264 = CARTESIAN_POINT('',(-3.77506956748,14.519024859204,
    179.09912436929));
#265 = CARTESIAN_POINT('',(-3.593697718442,14.565385080448,
    178.98596035245));
#266 = CARTESIAN_POINT('',(-3.405562175609,14.610437784178,
    178.87798965791));
#267 = CARTESIAN_POINT('',(-3.210635369007,14.653812421315,
    178.77571409817));
#268 = CARTESIAN_POINT('',(-2.751793817538,14.747762972639,
    178.55727352693));
#269 = CARTESIAN_POINT('',(-2.483246349959,14.797124854833,
    178.4448233395));
#270 = CARTESIAN_POINT('',(-2.204027274609,14.842199807721,
    178.34391242314));
#271 = CARTESIAN_POINT('',(-1.915011123288,14.882025044946,
    178.2559661376));
#272 = CARTESIAN_POINT('',(-1.617189305857,14.915721924598,
    178.18227032167));
#273 = CARTESIAN_POINT('',(-0.886606441842,14.979853122812,
    178.04290418679));
#274 = CARTESIAN_POINT('',(-0.44702281509,15.003818523648,
    177.99172841731));
#275 = CARTESIAN_POINT('',(5.419916080385E-07,15.012106316259,
    177.97426582802));
#276 = CARTESIAN_POINT('',(0.44702363957,15.003818468194,177.99172853584
    ));
#277 = CARTESIAN_POINT('',(0.886606690624,14.979853100973,
    178.04290423425));
#278 = CARTESIAN_POINT('',(1.613358349323,14.916058209289,
    178.18153952763));
#279 = CARTESIAN_POINT('',(1.907578083491,14.882865778383,
    178.25412746228));
#280 = CARTESIAN_POINT('',(2.193241108844,14.843683734139,
    178.34063556955));
#281 = CARTESIAN_POINT('',(2.469370597331,14.79935866273,178.43982344093
    ));
#282 = CARTESIAN_POINT('',(2.735101394593,14.750820736266,
    178.55031076589));
#283 = CARTESIAN_POINT('',(3.195697251593,14.65713878879,178.76787106579
    ));
#284 = CARTESIAN_POINT('',(3.394665461488,14.613061790279,
    178.87169461696));
#285 = CARTESIAN_POINT('',(3.586587964128,14.56722617962,178.98145106732
    ));
#286 = CARTESIAN_POINT('',(3.771492049109,14.520024523775,
    179.09660837245));
#287 = CARTESIAN_POINT('',(3.949429507836,14.471822668181,
    179.21668124323));
#288 = CARTESIAN_POINT('',(4.256416618747,14.384119914762,
    179.44021621794));
#289 = CARTESIAN_POINT('',(4.388029503352,14.344856626082,179.542047884)
  );
#290 = CARTESIAN_POINT('',(4.515377153508,14.305327110157,
    179.64652650164));
#291 = CARTESIAN_POINT('',(4.63852438941,14.265680280271,179.75347502501
    ));
#292 = CARTESIAN_POINT('',(4.757538306011,14.226053615395,
    179.86273785911));
#293 = CARTESIAN_POINT('',(4.959971836526,14.156526253687,
    180.05899541952));
#294 = CARTESIAN_POINT('',(5.045100359062,14.126564511166,
    180.14507164273));
#295 = CARTESIAN_POINT('',(5.127903298267,14.096743827441,
    180.23234971663));
#296 = CARTESIAN_POINT('',(5.208408506855,14.067117468746,
    180.32077441787));
#297 = CARTESIAN_POINT('',(5.286642232611,14.03773607273,180.41029511267
    ));
#298 = CARTESIAN_POINT('',(5.599555799383,13.917950105745,
    180.78326451389));
#299 = CARTESIAN_POINT('',(5.814746325611,13.830060419649,
    181.07599767289));
#300 = CARTESIAN_POINT('',(6.008781885696,13.746490959591,
    181.37752761031));
#301 = CARTESIAN_POINT('',(6.182169145593,13.668528782425,
    181.68666026724));
#302 = CARTESIAN_POINT('',(6.335293891861,13.597272059688,
    182.00245897008));
#303 = CARTESIAN_POINT('',(6.645626540171,13.448949515874,
    182.75263331952));
#304 = CARTESIAN_POINT('',(6.78738480729,13.377774464704,183.19173166721
    ));
#305 = CARTESIAN_POINT('',(6.893650271361,13.322614099302,
    183.63852681245));
#306 = CARTESIAN_POINT('',(6.96451646118,13.285221851011,184.09042936897
    ));
#307 = CARTESIAN_POINT('',(7.,13.266499161422,184.54504044382));
#308 = CARTESIAN_POINT('',(7.,13.266499161422,185.));
#309 = PCURVE('',#94,#310);
#310 = DEFINITIONAL_REPRESENTATION('',(#311),#379);
#311 = B_SPLINE_CURVE_WITH_KNOTS('',6,(#312,#313,#314,#315,#316,#317,
    #318,#319,#320,#321,#322,#323,#324,#325,#326,#327,#328,#329,#330,
    #331,#332,#333,#334,#335,#336,#337,#338,#339,#340,#341,#342,#343,
    #344,#345,#346,#347,#348,#349,#350,#351,#352,#353,#354,#355,#356,
    #357,#358,#359,#360,#361,#362,#363,#364,#365,#366,#367,#368,#369,
    #370,#371,#372,#373,#374,#375,#376,#377,#378),.UNSPECIFIED.,.F.,.F.,
  (7,5,5,5,5,5,5,5,5,5,5,5,5,7),(0.,0.142035303285,0.247669141896,
    0.28145974748,0.325717087334,0.380850247694,0.451123983963,
    0.548894140313,0.618286745628,0.674441974739,0.719071835926,
    0.75303773776,0.85894322797,1.),.UNSPECIFIED.);
#312 = CARTESIAN_POINT('',(3.141592567876,16.733500838578));
#313 = CARTESIAN_POINT('',(3.207036492969,16.733500859297));
#314 = CARTESIAN_POINT('',(3.272428972183,16.714518208396));
#315 = CARTESIAN_POINT('',(3.337931003589,16.676608158939));
#316 = CARTESIAN_POINT('',(3.403693756004,16.620696844043));
#317 = CARTESIAN_POINT('',(3.4698648108,16.548584921002));
#318 = CARTESIAN_POINT('',(3.586205047856,16.39901821713));
#319 = CARTESIAN_POINT('',(3.636143235433,16.327650565095));
#320 = CARTESIAN_POINT('',(3.686531443059,16.249649850147));
#321 = CARTESIAN_POINT('',(3.737501320302,16.166109253447));
#322 = CARTESIAN_POINT('',(3.789189347962,16.078309221394));
#323 = CARTESIAN_POINT('',(3.858553228296,15.958787016223));
#324 = CARTESIAN_POINT('',(3.875455051109,15.929533880966));
#325 = CARTESIAN_POINT('',(3.892453571191,15.900042154047));
#326 = CARTESIAN_POINT('',(3.909554759564,15.870361826725));
#327 = CARTESIAN_POINT('',(3.92676480438,15.840545480077));
#328 = CARTESIAN_POINT('',(3.966781979457,15.771490350385));
#329 = CARTESIAN_POINT('',(3.989671333049,15.732194519908));
#330 = CARTESIAN_POINT('',(4.012772801037,15.692884034667));
#331 = CARTESIAN_POINT('',(4.036101052782,15.653693224787));
#332 = CARTESIAN_POINT('',(4.059670797666,15.614767509414));
#333 = CARTESIAN_POINT('',(4.113177782416,15.528297264383));
#334 = CARTESIAN_POINT('',(4.143263018864,15.480975140796));
#335 = CARTESIAN_POINT('',(4.173773024184,15.434614919552));
#336 = CARTESIAN_POINT('',(4.204728479331,15.389562215822));
#337 = CARTESIAN_POINT('',(4.236151714349,15.346187578685));
#338 = CARTESIAN_POINT('',(4.308749551574,15.252237027361));
#339 = CARTESIAN_POINT('',(4.350293570314,15.202875145167));
#340 = CARTESIAN_POINT('',(4.392626823611,15.157800192279));
#341 = CARTESIAN_POINT('',(4.435695506291,15.117974955054));
#342 = CARTESIAN_POINT('',(4.479460665806,15.084278075402));
#343 = CARTESIAN_POINT('',(4.585711643304,15.020146877188));
#344 = CARTESIAN_POINT('',(4.648766858185,14.996181476352));
#345 = CARTESIAN_POINT('',(4.712389057383,14.987893683741));
#346 = CARTESIAN_POINT('',(4.776011220743,14.996181531806));
#347 = CARTESIAN_POINT('',(4.839066353647,15.020146899027));
#348 = CARTESIAN_POINT('',(4.944760146833,15.083941790711));
#349 = CARTESIAN_POINT('',(4.987990177166,15.117134221617));
#350 = CARTESIAN_POINT('',(5.030543975354,15.156316265861));
#351 = CARTESIAN_POINT('',(5.072381299746,15.20064133727));
#352 = CARTESIAN_POINT('',(5.113447569723,15.249179263734));
#353 = CARTESIAN_POINT('',(5.186217970128,15.34286121121));
#354 = CARTESIAN_POINT('',(5.218253830401,15.386938209721));
#355 = CARTESIAN_POINT('',(5.249803594474,15.43277382038));
#356 = CARTESIAN_POINT('',(5.280890736641,15.479975476225));
#357 = CARTESIAN_POINT('',(5.311536939495,15.528177331819));
#358 = CARTESIAN_POINT('',(5.365786734224,15.615880085238));
#359 = CARTESIAN_POINT('',(5.389549338498,15.655143373918));
#360 = CARTESIAN_POINT('',(5.413066680131,15.694672889843));
#361 = CARTESIAN_POINT('',(5.436353847993,15.734319719729));
#362 = CARTESIAN_POINT('',(5.459425880951,15.773946384605));
#363 = CARTESIAN_POINT('',(5.499704594703,15.843473746313));
#364 = CARTESIAN_POINT('',(5.516995351039,15.873435488834));
#365 = CARTESIAN_POINT('',(5.534176535185,15.903256172559));
#366 = CARTESIAN_POINT('',(5.551254422105,15.932882531254));
#367 = CARTESIAN_POINT('',(5.568235063408,15.96226392727));
#368 = CARTESIAN_POINT('',(5.637784792279,16.082049894255));
#369 = CARTESIAN_POINT('',(5.68958064168,16.169939580351));
#370 = CARTESIAN_POINT('',(5.740659150614,16.253509040409));
#371 = CARTESIAN_POINT('',(5.791157233226,16.331471217575));
#372 = CARTESIAN_POINT('',(5.84120696409,16.402727940312));
#373 = CARTESIAN_POINT('',(5.957182674704,16.551050484126));
#374 = CARTESIAN_POINT('',(6.022888292322,16.622225535296));
#375 = CARTESIAN_POINT('',(6.088194926029,16.677385900698));
#376 = CARTESIAN_POINT('',(6.153246651573,16.714778148989));
#377 = CARTESIAN_POINT('',(6.218191084869,16.733500838578));
#378 = CARTESIAN_POINT('',(6.28318530718,16.733500838578));
#379 = ( GEOMETRIC_REPRESENTATION_CONTEXT(2) 
PARAMETRIC_REPRESENTATION_CONTEXT() REPRESENTATION_CONTEXT('2D SPACE',''
  ) );
#380 = PCURVE('',#381,#386);
#381 = CYLINDRICAL_SURFACE('',#382,15.);
#382 = AXIS2_PLACEMENT_3D('',#383,#384,#385);
#383 = CARTESIAN_POINT('',(0.,0.,155.));
#384 = DIRECTION('',(0.,0.,1.));
#385 = DIRECTION('',(1.,0.,0.));
#386 = DEFINITIONAL_REPRESENTATION('',(#387),#455);
#387 = B_SPLINE_CURVE_WITH_KNOTS('',6,(#388,#389,#390,#391,#392,#393,
    #394,#395,#396,#397,#398,#399,#400,#401,#402,#403,#404,#405,#406,
    #407,#408,#409,#410,#411,#412,#413,#414,#415,#416,#417,#418,#419,
    #420,#421,#422,#423,#424,#425,#426,#427,#428,#429,#430,#431,#432,
    #433,#434,#435,#436,#437,#438,#439,#440,#441,#442,#443,#444,#445,
    #446,#447,#448,#449,#450,#451,#452,#453,#454),.UNSPECIFIED.,.F.,.F.,
  (7,5,5,5,5,5,5,5,5,5,5,5,5,7),(0.,0.142035303285,0.247669141896,
    0.28145974748,0.325717087334,0.380850247694,0.451123983963,
    0.548894140313,0.618286745628,0.674441974739,0.719071835926,
    0.75303773776,0.85894322797,1.),.UNSPECIFIED.);
#388 = CARTESIAN_POINT('',(2.05631444909,30.0000006));
#389 = CARTESIAN_POINT('',(2.05631445205,29.541893124349));
#390 = CARTESIAN_POINT('',(2.053602649166,29.084145725206));
#391 = CARTESIAN_POINT('',(2.048186905897,28.629163323605));
#392 = CARTESIAN_POINT('',(2.040095109232,28.179391008953));
#393 = CARTESIAN_POINT('',(2.029377128833,27.737471122073));
#394 = CARTESIAN_POINT('',(2.006227963785,26.985797109267));
#395 = CARTESIAN_POINT('',(1.994937008606,26.671104519533));
#396 = CARTESIAN_POINT('',(1.982240383339,26.363077392658));
#397 = CARTESIAN_POINT('',(1.968142192716,26.062647222543));
#398 = CARTESIAN_POINT('',(1.952639586108,25.771002572862));
#399 = CARTESIAN_POINT('',(1.93031242586,25.399682447743));
#400 = CARTESIAN_POINT('',(1.924755856835,25.310732991884));
#401 = CARTESIAN_POINT('',(1.919053213987,25.222871974758));
#402 = CARTESIAN_POINT('',(1.913203703649,25.136149482377));
#403 = CARTESIAN_POINT('',(1.90720640537,25.050620131506));
#404 = CARTESIAN_POINT('',(1.89301035648,24.855960953003));
#405 = CARTESIAN_POINT('',(1.884705241065,24.747728921794));
#406 = CARTESIAN_POINT('',(1.876142426226,24.641778402236));
#407 = CARTESIAN_POINT('',(1.867319425822,24.538261629636));
#408 = CARTESIAN_POINT('',(1.858233767001,24.437351648417));
#409 = CARTESIAN_POINT('',(1.837234348916,24.217023539155));
#410 = CARTESIAN_POINT('',(1.825171744566,24.099124369293));
#411 = CARTESIAN_POINT('',(1.812693524235,23.985960352459));
#412 = CARTESIAN_POINT('',(1.799798942533,23.877989657916));
#413 = CARTESIAN_POINT('',(1.786487908641,23.775714098179));
#414 = CARTESIAN_POINT('',(1.755263824244,23.557273526934));
#415 = CARTESIAN_POINT('',(1.737064417112,23.444823339506));
#416 = CARTESIAN_POINT('',(1.718215797027,23.343912423142));
#417 = CARTESIAN_POINT('',(1.698774247068,23.255966137604));
#418 = CARTESIAN_POINT('',(1.678799096215,23.182270321674));
#419 = CARTESIAN_POINT('',(1.629906282302,23.042904186797));
#420 = CARTESIAN_POINT('',(1.600573208342,22.99172841731));
#421 = CARTESIAN_POINT('',(1.570796291483,22.974265828027));
#422 = CARTESIAN_POINT('',(1.541019389286,22.991728535843));
#423 = CARTESIAN_POINT('',(1.511686354639,23.042904234255));
#424 = CARTESIAN_POINT('',(1.463049936568,23.181539527631));
#425 = CARTESIAN_POINT('',(1.443316944326,23.254127462285));
#426 = CARTESIAN_POINT('',(1.42410240488,23.340635569555));
#427 = CARTESIAN_POINT('',(1.405464858494,23.43982344093));
#428 = CARTESIAN_POINT('',(1.387459945173,23.550310765897));
#429 = CARTESIAN_POINT('',(1.356124849424,23.76787106579));
#430 = CARTESIAN_POINT('',(1.342540769094,23.871694616962));
#431 = CARTESIAN_POINT('',(1.329388655422,23.981451067323));
#432 = CARTESIAN_POINT('',(1.316668511041,24.096608372456));
#433 = CARTESIAN_POINT('',(1.304379627448,24.216681243237));
#434 = CARTESIAN_POINT('',(1.283095010236,24.440216217943));
#435 = CARTESIAN_POINT('',(1.273939303418,24.542047884005));
#436 = CARTESIAN_POINT('',(1.265050657196,24.646526501649));
#437 = CARTESIAN_POINT('',(1.25642653281,24.753475025011));
#438 = CARTESIAN_POINT('',(1.248064383334,24.862737859115));
#439 = CARTESIAN_POINT('',(1.233795008465,25.058995419525));
#440 = CARTESIAN_POINT('',(1.227778693007,25.145071642735));
#441 = CARTESIAN_POINT('',(1.221911648071,25.23234971663));
#442 = CARTESIAN_POINT('',(1.216192944883,25.320774417873));
#443 = CARTESIAN_POINT('',(1.210621785129,25.410295112673));
#444 = CARTESIAN_POINT('',(1.188284613503,25.783264513894));
#445 = CARTESIAN_POINT('',(1.172791926975,26.075997672895));
#446 = CARTESIAN_POINT('',(1.158710732235,26.37752761031));
#447 = CARTESIAN_POINT('',(1.146038482834,26.686660267247));
#448 = CARTESIAN_POINT('',(1.13477960181,27.002458970085));
#449 = CARTESIAN_POINT('',(1.111849182459,27.752633319526));
#450 = CARTESIAN_POINT('',(1.101276318626,28.191731667216));
#451 = CARTESIAN_POINT('',(1.093294641035,28.638526812457));
#452 = CARTESIAN_POINT('',(1.087952870238,29.09042936897));
#453 = CARTESIAN_POINT('',(1.085278204499,29.545040443826));
#454 = CARTESIAN_POINT('',(1.085278204499,30.));
#455 = ( GEOMETRIC_REPRESENTATION_CONTEXT(2) 
PARAMETRIC_REPRESENTATION_CONTEXT() REPRESENTATION_CONTEXT('2D SPACE',''
  ) );
#456 = ORIENTED_EDGE('',*,*,#457,.T.);
#457 = EDGE_CURVE('',#238,#156,#458,.T.);
#458 = SURFACE_CURVE('',#459,(#463,#469),.PCURVE_S1.);
#459 = LINE('',#460,#461);
#460 = CARTESIAN_POINT('',(-7.,30.,185.));
#461 = VECTOR('',#462,1.);
#462 = DIRECTION('',(0.,-1.,1.110223024625E-16));
#463 = PCURVE('',#94,#464);
#464 = DEFINITIONAL_REPRESENTATION('',(#465),#468);
#465 = B_SPLINE_CURVE_WITH_KNOTS('',1,(#466,#467),.UNSPECIFIED.,.F.,.F.,
  (2,2),(12.,30.0000006),.PIECEWISE_BEZIER_KNOTS.);
#466 = CARTESIAN_POINT('',(3.14159265359,12.));
#467 = CARTESIAN_POINT('',(3.14159265359,30.0000006));
#468 = ( GEOMETRIC_REPRESENTATION_CONTEXT(2) 
PARAMETRIC_REPRESENTATION_CONTEXT() REPRESENTATION_CONTEXT('2D SPACE',''
  ) );
#469 = PCURVE('',#200,#470);
#470 = DEFINITIONAL_REPRESENTATION('',(#471),#474);
#471 = B_SPLINE_CURVE_WITH_KNOTS('',1,(#472,#473),.UNSPECIFIED.,.F.,.F.,
  (2,2),(12.,30.0000006),.PIECEWISE_BEZIER_KNOTS.);
#472 = CARTESIAN_POINT('',(-7.,18.));
#473 = CARTESIAN_POINT('',(-7.,-5.999999999062E-07));
#474 = ( GEOMETRIC_REPRESENTATION_CONTEXT(2) 
PARAMETRIC_REPRESENTATION_CONTEXT() REPRESENTATION_CONTEXT('2D SPACE',''
  ) );
#475 = ADVANCED_FACE('',(#476),#172,.T.);
#476 = FACE_BOUND('',#477,.T.);
#477 = EDGE_LOOP('',(#478,#497));
#478 = ORIENTED_EDGE('',*,*,#479,.T.);
#479 = EDGE_CURVE('',#156,#154,#480,.T.);
#480 = SURFACE_CURVE('',#481,(#485,#491),.PCURVE_S1.);
#481 = LINE('',#482,#483);
#482 = CARTESIAN_POINT('',(0.,0.,185.));
#483 = VECTOR('',#484,1.);
#484 = DIRECTION('',(1.,0.,-0.));
#485 = PCURVE('',#172,#486);
#486 = DEFINITIONAL_REPRESENTATION('',(#487),#490);
#487 = B_SPLINE_CURVE_WITH_KNOTS('',1,(#488,#489),.UNSPECIFIED.,.F.,.F.,
  (2,2),(-7.,7.),.PIECEWISE_BEZIER_KNOTS.);
#488 = CARTESIAN_POINT('',(-7.,0.));
#489 = CARTESIAN_POINT('',(7.,0.));
#490 = ( GEOMETRIC_REPRESENTATION_CONTEXT(2) 
PARAMETRIC_REPRESENTATION_CONTEXT() REPRESENTATION_CONTEXT('2D SPACE',''
  ) );
#491 = PCURVE('',#200,#492);
#492 = DEFINITIONAL_REPRESENTATION('',(#493),#496);
#493 = B_SPLINE_CURVE_WITH_KNOTS('',1,(#494,#495),.UNSPECIFIED.,.F.,.F.,
  (2,2),(-7.,7.),.PIECEWISE_BEZIER_KNOTS.);
#494 = CARTESIAN_POINT('',(-7.,0.));
#495 = CARTESIAN_POINT('',(7.,0.));
#496 = ( GEOMETRIC_REPRESENTATION_CONTEXT(2) 
PARAMETRIC_REPRESENTATION_CONTEXT() REPRESENTATION_CONTEXT('2D SPACE',''
  ) );
#497 = ORIENTED_EDGE('',*,*,#153,.T.);
#498 = ADVANCED_FACE('',(#499),#200,.T.);
#499 = FACE_BOUND('',#500,.T.);
#500 = EDGE_LOOP('',(#501,#525,#547,#548,#549));
#501 = ORIENTED_EDGE('',*,*,#502,.T.);
#502 = EDGE_CURVE('',#238,#503,#505,.T.);
#503 = VERTEX_POINT('',#504);
#504 = CARTESIAN_POINT('',(15.,-3.673940397442E-15,185.));
#505 = SURFACE_CURVE('',#506,(#511,#518),.PCURVE_S1.);
#506 = CIRCLE('',#507,15.);
#507 = AXIS2_PLACEMENT_3D('',#508,#509,#510);
#508 = CARTESIAN_POINT('',(0.,0.,185.));
#509 = DIRECTION('',(0.,0.,1.));
#510 = DIRECTION('',(1.,0.,0.));
#511 = PCURVE('',#200,#512);
#512 = DEFINITIONAL_REPRESENTATION('',(#513),#517);
#513 = CIRCLE('',#514,15.);
#514 = AXIS2_PLACEMENT_2D('',#515,#516);
#515 = CARTESIAN_POINT('',(0.,0.));
#516 = DIRECTION('',(1.,0.));
#517 = ( GEOMETRIC_REPRESENTATION_CONTEXT(2) 
PARAMETRIC_REPRESENTATION_CONTEXT() REPRESENTATION_CONTEXT('2D SPACE',''
  ) );
#518 = PCURVE('',#381,#519);
#519 = DEFINITIONAL_REPRESENTATION('',(#520),#524);
#520 = LINE('',#521,#522);
#521 = CARTESIAN_POINT('',(0.,30.));
#522 = VECTOR('',#523,1.);
#523 = DIRECTION('',(1.,0.));
#524 = ( GEOMETRIC_REPRESENTATION_CONTEXT(2) 
PARAMETRIC_REPRESENTATION_CONTEXT() REPRESENTATION_CONTEXT('2D SPACE',''
  ) );
#525 = ORIENTED_EDGE('',*,*,#526,.T.);
#526 = EDGE_CURVE('',#503,#185,#527,.T.);
#527 = SURFACE_CURVE('',#528,(#533,#540),.PCURVE_S1.);
#528 = CIRCLE('',#529,15.);
#529 = AXIS2_PLACEMENT_3D('',#530,#531,#532);
#530 = CARTESIAN_POINT('',(0.,0.,185.));
#531 = DIRECTION('',(0.,0.,1.));
#532 = DIRECTION('',(1.,0.,0.));
#533 = PCURVE('',#200,#534);
#534 = DEFINITIONAL_REPRESENTATION('',(#535),#539);
#535 = CIRCLE('',#536,15.);
#536 = AXIS2_PLACEMENT_2D('',#537,#538);
#537 = CARTESIAN_POINT('',(0.,0.));
#538 = DIRECTION('',(1.,0.));
#539 = ( GEOMETRIC_REPRESENTATION_CONTEXT(2) 
PARAMETRIC_REPRESENTATION_CONTEXT() REPRESENTATION_CONTEXT('2D SPACE',''
  ) );
#540 = PCURVE('',#381,#541);
#541 = DEFINITIONAL_REPRESENTATION('',(#542),#546);
#542 = LINE('',#543,#544);
#543 = CARTESIAN_POINT('',(0.,30.));
#544 = VECTOR('',#545,1.);
#545 = DIRECTION('',(1.,0.));
#546 = ( GEOMETRIC_REPRESENTATION_CONTEXT(2) 
PARAMETRIC_REPRESENTATION_CONTEXT() REPRESENTATION_CONTEXT('2D SPACE',''
  ) );
#547 = ORIENTED_EDGE('',*,*,#184,.T.);
#548 = ORIENTED_EDGE('',*,*,#479,.F.);
#549 = ORIENTED_EDGE('',*,*,#457,.F.);
#550 = ADVANCED_FACE('',(#551),#381,.T.);
#551 = FACE_BOUND('',#552,.T.);
#552 = EDGE_LOOP('',(#553,#576,#577,#578,#579,#580));
#553 = ORIENTED_EDGE('',*,*,#554,.T.);
#554 = EDGE_CURVE('',#555,#503,#557,.T.);
#555 = VERTEX_POINT('',#556);
#556 = CARTESIAN_POINT('',(15.,-3.673940397442E-15,155.));
#557 = SEAM_CURVE('',#558,(#562,#569),.PCURVE_S1.);
#558 = LINE('',#559,#560);
#559 = CARTESIAN_POINT('',(15.,-3.673940397442E-15,155.));
#560 = VECTOR('',#561,1.);
#561 = DIRECTION('',(0.,0.,1.));
#562 = PCURVE('',#381,#563);
#563 = DEFINITIONAL_REPRESENTATION('',(#564),#568);
#564 = LINE('',#565,#566);
#565 = CARTESIAN_POINT('',(6.28318530718,-0.));
#566 = VECTOR('',#567,1.);
#567 = DIRECTION('',(0.,1.));
#568 = ( GEOMETRIC_REPRESENTATION_CONTEXT(2) 
PARAMETRIC_REPRESENTATION_CONTEXT() REPRESENTATION_CONTEXT('2D SPACE',''
  ) );
#569 = PCURVE('',#381,#570);
#570 = DEFINITIONAL_REPRESENTATION('',(#571),#575);
#571 = LINE('',#572,#573);
#572 = CARTESIAN_POINT('',(0.,-0.));
#573 = VECTOR('',#574,1.);
#574 = DIRECTION('',(0.,1.));
#575 = ( GEOMETRIC_REPRESENTATION_CONTEXT(2) 
PARAMETRIC_REPRESENTATION_CONTEXT() REPRESENTATION_CONTEXT('2D SPACE',''
  ) );
#576 = ORIENTED_EDGE('',*,*,#502,.F.);
#577 = ORIENTED_EDGE('',*,*,#237,.T.);
#578 = ORIENTED_EDGE('',*,*,#526,.F.);
#579 = ORIENTED_EDGE('',*,*,#554,.F.);
#580 = ORIENTED_EDGE('',*,*,#581,.T.);
#581 = EDGE_CURVE('',#555,#555,#582,.T.);
#582 = SURFACE_CURVE('',#583,(#588,#595),.PCURVE_S1.);
#583 = CIRCLE('',#584,15.);
#584 = AXIS2_PLACEMENT_3D('',#585,#586,#587);
#585 = CARTESIAN_POINT('',(0.,0.,155.));
#586 = DIRECTION('',(0.,0.,1.));
#587 = DIRECTION('',(1.,0.,0.));
#588 = PCURVE('',#381,#589);
#589 = DEFINITIONAL_REPRESENTATION('',(#590),#594);
#590 = LINE('',#591,#592);
#591 = CARTESIAN_POINT('',(0.,0.));
#592 = VECTOR('',#593,1.);
#593 = DIRECTION('',(1.,0.));
#594 = ( GEOMETRIC_REPRESENTATION_CONTEXT(2) 
PARAMETRIC_REPRESENTATION_CONTEXT() REPRESENTATION_CONTEXT('2D SPACE',''
  ) );
#595 = PCURVE('',#596,#601);
#596 = PLANE('',#597);
#597 = AXIS2_PLACEMENT_3D('',#598,#599,#600);
#598 = CARTESIAN_POINT('',(0.,0.,155.));
#599 = DIRECTION('',(0.,0.,1.));
#600 = DIRECTION('',(1.,0.,0.));
#601 = DEFINITIONAL_REPRESENTATION('',(#602),#606);
#602 = CIRCLE('',#603,15.);
#603 = AXIS2_PLACEMENT_2D('',#604,#605);
#604 = CARTESIAN_POINT('',(0.,0.));
#605 = DIRECTION('',(1.,0.));
#606 = ( GEOMETRIC_REPRESENTATION_CONTEXT(2) 
PARAMETRIC_REPRESENTATION_CONTEXT() REPRESENTATION_CONTEXT('2D SPACE',''
  ) );
#607 = ADVANCED_FACE('',(#608),#596,.F.);
#608 = FACE_BOUND('',#609,.T.);
#609 = EDGE_LOOP('',(#610));
#610 = ORIENTED_EDGE('',*,*,#581,.F.);
#611 = ( GEOMETRIC_REPRESENTATION_CONTEXT(3) 
GLOBAL_UNCERTAINTY_ASSIGNED_CONTEXT((#615)) GLOBAL_UNIT_ASSIGNED_CONTEXT
((#612,#613,#614)) REPRESENTATION_CONTEXT('Context #1',
  '3D Context with UNIT and UNCERTAINTY') );
#612 = ( LENGTH_UNIT() NAMED_UNIT(*) SI_UNIT(.MILLI.,.METRE.) );
#613 = ( NAMED_UNIT(*) PLANE_ANGLE_UNIT() SI_UNIT($,.RADIAN.) );
#614 = ( NAMED_UNIT(*) SI_UNIT($,.STERADIAN.) SOLID_ANGLE_UNIT() );
#615 = UNCERTAINTY_MEASURE_WITH_UNIT(LENGTH_MEASURE(1.E-07),#612,
  'distance_accuracy_value','confusion accuracy');
#616 = CONTEXT_DEPENDENT_SHAPE_REPRESENTATION(#617,#619);
#617 = ( REPRESENTATION_RELATIONSHIP('','',#63,#32) 
REPRESENTATION_RELATIONSHIP_WITH_TRANSFORMATION(#618) 
SHAPE_REPRESENTATION_RELATIONSHIP() );
#618 = ITEM_DEFINED_TRANSFORMATION('','',#11,#33);
#619 = PRODUCT_DEFINITION_SHAPE('Placement','Placement of an item',#620
  );
#620 = NEXT_ASSEMBLY_USAGE_OCCURRENCE('1','','',#27,#58,$);
#621 = PRODUCT_RELATED_PRODUCT_CATEGORY('part',$,(#60));
#622 = SHAPE_DEFINITION_REPRESENTATION(#623,#629);
#623 = PRODUCT_DEFINITION_SHAPE('','',#624);
#624 = PRODUCT_DEFINITION('design','',#625,#628);
#625 = PRODUCT_DEFINITION_FORMATION('','',#626);
#626 = PRODUCT('Open CASCADE STEP translator 7.7 1.1.2',
  'Open CASCADE STEP translator 7.7 1.1.2','',(#627));
#627 = PRODUCT_CONTEXT('',#2,'mechanical');
#628 = PRODUCT_DEFINITION_CONTEXT('part definition',#2,'design');
#629 = ADVANCED_BREP_SHAPE_REPRESENTATION('',(#11,#630),#783);
#630 = MANIFOLD_SOLID_BREP('',#631);
#631 = CLOSED_SHELL('',(#632,#720,#775,#779));
#632 = ADVANCED_FACE('',(#633),#647,.T.);
#633 = FACE_BOUND('',#634,.T.);
#634 = EDGE_LOOP('',(#635,#665,#692,#693));
#635 = ORIENTED_EDGE('',*,*,#636,.T.);
#636 = EDGE_CURVE('',#637,#639,#641,.T.);
#637 = VERTEX_POINT('',#638);
#638 = CARTESIAN_POINT('',(22.,-5.388445916248E-15,147.33333333333));
#639 = VERTEX_POINT('',#640);
#640 = CARTESIAN_POINT('',(22.,-5.388445916248E-15,150.));
#641 = SEAM_CURVE('',#642,(#646,#658),.PCURVE_S1.);
#642 = LINE('',#643,#644);
#643 = CARTESIAN_POINT('',(22.,-5.388445916248E-15,140.));
#644 = VECTOR('',#645,1.);
#645 = DIRECTION('',(0.,0.,1.));
#646 = PCURVE('',#647,#652);
#647 = CYLINDRICAL_SURFACE('',#648,22.);
#648 = AXIS2_PLACEMENT_3D('',#649,#650,#651);
#649 = CARTESIAN_POINT('',(0.,0.,140.));
#650 = DIRECTION('',(0.,0.,1.));
#651 = DIRECTION('',(1.,0.,0.));
#652 = DEFINITIONAL_REPRESENTATION('',(#653),#657);
#653 = LINE('',#654,#655);
#654 = CARTESIAN_POINT('',(6.28318530718,-0.));
#655 = VECTOR('',#656,1.);
#656 = DIRECTION('',(0.,1.));
#657 = ( GEOMETRIC_REPRESENTATION_CONTEXT(2) 
PARAMETRIC_REPRESENTATION_CONTEXT() REPRESENTATION_CONTEXT('2D SPACE',''
  ) );
#658 = PCURVE('',#647,#659);
#659 = DEFINITIONAL_REPRESENTATION('',(#660),#664);
#660 = LINE('',#661,#662);
#661 = CARTESIAN_POINT('',(0.,-0.));
#662 = VECTOR('',#663,1.);
#663 = DIRECTION('',(0.,1.));
#664 = ( GEOMETRIC_REPRESENTATION_CONTEXT(2) 
PARAMETRIC_REPRESENTATION_CONTEXT() REPRESENTATION_CONTEXT('2D SPACE',''
  ) );
#665 = ORIENTED_EDGE('',*,*,#666,.F.);
#666 = EDGE_CURVE('',#639,#639,#667,.T.);
#667 = SURFACE_CURVE('',#668,(#673,#680),.PCURVE_S1.);
#668 = CIRCLE('',#669,22.);
#669 = AXIS2_PLACEMENT_3D('',#670,#671,#672);
#670 = CARTESIAN_POINT('',(0.,0.,150.));
#671 = DIRECTION('',(0.,0.,1.));
#672 = DIRECTION('',(1.,0.,0.));
#673 = PCURVE('',#647,#674);
#674 = DEFINITIONAL_REPRESENTATION('',(#675),#679);
#675 = LINE('',#676,#677);
#676 = CARTESIAN_POINT('',(0.,10.));
#677 = VECTOR('',#678,1.);
#678 = DIRECTION('',(1.,0.));
#679 = ( GEOMETRIC_REPRESENTATION_CONTEXT(2) 
PARAMETRIC_REPRESENTATION_CONTEXT() REPRESENTATION_CONTEXT('2D SPACE',''
  ) );
#680 = PCURVE('',#681,#686);
#681 = PLANE('',#682);
#682 = AXIS2_PLACEMENT_3D('',#683,#684,#685);
#683 = CARTESIAN_POINT('',(0.,0.,150.));
#684 = DIRECTION('',(0.,0.,1.));
#685 = DIRECTION('',(1.,0.,0.));
#686 = DEFINITIONAL_REPRESENTATION('',(#687),#691);
#687 = CIRCLE('',#688,22.);
#688 = AXIS2_PLACEMENT_2D('',#689,#690);
#689 = CARTESIAN_POINT('',(0.,0.));
#690 = DIRECTION('',(1.,0.));
#691 = ( GEOMETRIC_REPRESENTATION_CONTEXT(2) 
PARAMETRIC_REPRESENTATION_CONTEXT() REPRESENTATION_CONTEXT('2D SPACE',''
  ) );
#692 = ORIENTED_EDGE('',*,*,#636,.F.);
#693 = ORIENTED_EDGE('',*,*,#694,.T.);
#694 = EDGE_CURVE('',#637,#637,#695,.T.);
#695 = SURFACE_CURVE('',#696,(#701,#708),.PCURVE_S1.);
#696 = CIRCLE('',#697,22.);
#697 = AXIS2_PLACEMENT_3D('',#698,#699,#700);
#698 = CARTESIAN_POINT('',(0.,0.,147.33333333333));
#699 = DIRECTION('',(0.,0.,1.));
#700 = DIRECTION('',(0.,-1.,0.));
#701 = PCURVE('',#647,#702);
#702 = DEFINITIONAL_REPRESENTATION('',(#703),#707);
#703 = LINE('',#704,#705);
#704 = CARTESIAN_POINT('',(-1.570796326795,7.333333333333));
#705 = VECTOR('',#706,1.);
#706 = DIRECTION('',(1.,0.));
#707 = ( GEOMETRIC_REPRESENTATION_CONTEXT(2) 
PARAMETRIC_REPRESENTATION_CONTEXT() REPRESENTATION_CONTEXT('2D SPACE',''
  ) );
#708 = PCURVE('',#709,#714);
#709 = CONICAL_SURFACE('',#710,35.,0.643501108793);
#710 = AXIS2_PLACEMENT_3D('',#711,#712,#713);
#711 = CARTESIAN_POINT('',(0.,0.,130.));
#712 = DIRECTION('',(-0.,-0.,-1.));
#713 = DIRECTION('',(1.,0.,-0.));
#714 = DEFINITIONAL_REPRESENTATION('',(#715),#719);
#715 = LINE('',#716,#717);
#716 = CARTESIAN_POINT('',(1.570796326795,-17.33333333333));
#717 = VECTOR('',#718,1.);
#718 = DIRECTION('',(-1.,-0.));
#719 = ( GEOMETRIC_REPRESENTATION_CONTEXT(2) 
PARAMETRIC_REPRESENTATION_CONTEXT() REPRESENTATION_CONTEXT('2D SPACE',''
  ) );
#720 = ADVANCED_FACE('',(#721),#709,.T.);
#721 = FACE_BOUND('',#722,.T.);
#722 = EDGE_LOOP('',(#723,#724,#747,#774));
#723 = ORIENTED_EDGE('',*,*,#694,.F.);
#724 = ORIENTED_EDGE('',*,*,#725,.F.);
#725 = EDGE_CURVE('',#726,#637,#728,.T.);
#726 = VERTEX_POINT('',#727);
#727 = CARTESIAN_POINT('',(35.,-8.572527594031E-15,130.));
#728 = SEAM_CURVE('',#729,(#733,#740),.PCURVE_S1.);
#729 = LINE('',#730,#731);
#730 = CARTESIAN_POINT('',(35.,-8.572527594031E-15,130.));
#731 = VECTOR('',#732,1.);
#732 = DIRECTION('',(-0.6,1.469576158977E-16,0.8));
#733 = PCURVE('',#709,#734);
#734 = DEFINITIONAL_REPRESENTATION('',(#735),#739);
#735 = LINE('',#736,#737);
#736 = CARTESIAN_POINT('',(-6.28318530718,0.));
#737 = VECTOR('',#738,1.);
#738 = DIRECTION('',(-0.,-1.));
#739 = ( GEOMETRIC_REPRESENTATION_CONTEXT(2) 
PARAMETRIC_REPRESENTATION_CONTEXT() REPRESENTATION_CONTEXT('2D SPACE',''
  ) );
#740 = PCURVE('',#709,#741);
#741 = DEFINITIONAL_REPRESENTATION('',(#742),#746);
#742 = LINE('',#743,#744);
#743 = CARTESIAN_POINT('',(0.,-0.));
#744 = VECTOR('',#745,1.);
#745 = DIRECTION('',(-0.,-1.));
#746 = ( GEOMETRIC_REPRESENTATION_CONTEXT(2) 
PARAMETRIC_REPRESENTATION_CONTEXT() REPRESENTATION_CONTEXT('2D SPACE',''
  ) );
#747 = ORIENTED_EDGE('',*,*,#748,.T.);
#748 = EDGE_CURVE('',#726,#726,#749,.T.);
#749 = SURFACE_CURVE('',#750,(#755,#762),.PCURVE_S1.);
#750 = CIRCLE('',#751,35.);
#751 = AXIS2_PLACEMENT_3D('',#752,#753,#754);
#752 = CARTESIAN_POINT('',(0.,0.,130.));
#753 = DIRECTION('',(0.,0.,1.));
#754 = DIRECTION('',(1.,0.,-0.));
#755 = PCURVE('',#709,#756);
#756 = DEFINITIONAL_REPRESENTATION('',(#757),#761);
#757 = LINE('',#758,#759);
#758 = CARTESIAN_POINT('',(-0.,-0.));
#759 = VECTOR('',#760,1.);
#760 = DIRECTION('',(-1.,-0.));
#761 = ( GEOMETRIC_REPRESENTATION_CONTEXT(2) 
PARAMETRIC_REPRESENTATION_CONTEXT() REPRESENTATION_CONTEXT('2D SPACE',''
  ) );
#762 = PCURVE('',#763,#768);
#763 = PLANE('',#764);
#764 = AXIS2_PLACEMENT_3D('',#765,#766,#767);
#765 = CARTESIAN_POINT('',(0.,0.,130.));
#766 = DIRECTION('',(0.,0.,1.));
#767 = DIRECTION('',(1.,0.,-0.));
#768 = DEFINITIONAL_REPRESENTATION('',(#769),#773);
#769 = CIRCLE('',#770,35.);
#770 = AXIS2_PLACEMENT_2D('',#771,#772);
#771 = CARTESIAN_POINT('',(0.,0.));
#772 = DIRECTION('',(1.,0.));
#773 = ( GEOMETRIC_REPRESENTATION_CONTEXT(2) 
PARAMETRIC_REPRESENTATION_CONTEXT() REPRESENTATION_CONTEXT('2D SPACE',''
  ) );
#774 = ORIENTED_EDGE('',*,*,#725,.T.);
#775 = ADVANCED_FACE('',(#776),#681,.T.);
#776 = FACE_BOUND('',#777,.T.);
#777 = EDGE_LOOP('',(#778));
#778 = ORIENTED_EDGE('',*,*,#666,.T.);
#779 = ADVANCED_FACE('',(#780),#763,.F.);
#780 = FACE_BOUND('',#781,.T.);
#781 = EDGE_LOOP('',(#782));
#782 = ORIENTED_EDGE('',*,*,#748,.F.);
#783 = ( GEOMETRIC_REPRESENTATION_CONTEXT(3) 
GLOBAL_UNCERTAINTY_ASSIGNED_CONTEXT((#787)) GLOBAL_UNIT_ASSIGNED_CONTEXT
((#784,#785,#786)) REPRESENTATION_CONTEXT('Context #1',
  '3D Context with UNIT and UNCERTAINTY') );
#784 = ( LENGTH_UNIT() NAMED_UNIT(*) SI_UNIT(.MILLI.,.METRE.) );
#785 = ( NAMED_UNIT(*) PLANE_ANGLE_UNIT() SI_UNIT($,.RADIAN.) );
#786 = ( NAMED_UNIT(*) SI_UNIT($,.STERADIAN.) SOLID_ANGLE_UNIT() );
#787 = UNCERTAINTY_MEASURE_WITH_UNIT(LENGTH_MEASURE(1.E-07),#784,
  'distance_accuracy_value','confusion accuracy');
#788 = CONTEXT_DEPENDENT_SHAPE_REPRESENTATION(#789,#791);
#789 = ( REPRESENTATION_RELATIONSHIP('','',#629,#32) 
REPRESENTATION_RELATIONSHIP_WITH_TRANSFORMATION(#790) 
SHAPE_REPRESENTATION_RELATIONSHIP() );
#790 = ITEM_DEFINED_TRANSFORMATION('','',#11,#37);
#791 = PRODUCT_DEFINITION_SHAPE('Placement','Placement of an item',#792
  );
#792 = NEXT_ASSEMBLY_USAGE_OCCURRENCE('2','','',#27,#624,$);
#793 = PRODUCT_RELATED_PRODUCT_CATEGORY('part',$,(#626));
#794 = SHAPE_DEFINITION_REPRESENTATION(#795,#801);
#795 = PRODUCT_DEFINITION_SHAPE('','',#796);
#796 = PRODUCT_DEFINITION('design','',#797,#800);
#797 = PRODUCT_DEFINITION_FORMATION('','',#798);
#798 = PRODUCT('Open CASCADE STEP translator 7.7 1.1.3',
  'Open CASCADE STEP translator 7.7 1.1.3','',(#799));
#799 = PRODUCT_CONTEXT('',#2,'mechanical');
#800 = PRODUCT_DEFINITION_CONTEXT('part definition',#2,'design');
#801 = ADVANCED_BREP_SHAPE_REPRESENTATION('',(#11,#802),#900);
#802 = MANIFOLD_SOLID_BREP('',#803);
#803 = CLOSED_SHELL('',(#804,#892,#896));
#804 = ADVANCED_FACE('',(#805),#818,.T.);
#805 = FACE_BOUND('',#806,.T.);
#806 = EDGE_LOOP('',(#807,#841,#864,#891));
#807 = ORIENTED_EDGE('',*,*,#808,.F.);
#808 = EDGE_CURVE('',#809,#809,#811,.T.);
#809 = VERTEX_POINT('',#810);
#810 = CARTESIAN_POINT('',(35.,-8.572527594031E-15,120.));
#811 = SURFACE_CURVE('',#812,(#817,#829),.PCURVE_S1.);
#812 = CIRCLE('',#813,35.);
#813 = AXIS2_PLACEMENT_3D('',#814,#815,#816);
#814 = CARTESIAN_POINT('',(0.,0.,120.));
#815 = DIRECTION('',(0.,0.,1.));
#816 = DIRECTION('',(1.,0.,0.));
#817 = PCURVE('',#818,#823);
#818 = CYLINDRICAL_SURFACE('',#819,35.);
#819 = AXIS2_PLACEMENT_3D('',#820,#821,#822);
#820 = CARTESIAN_POINT('',(0.,0.,0.));
#821 = DIRECTION('',(0.,0.,1.));
#822 = DIRECTION('',(1.,0.,0.));
#823 = DEFINITIONAL_REPRESENTATION('',(#824),#828);
#824 = LINE('',#825,#826);
#825 = CARTESIAN_POINT('',(0.,120.));
#826 = VECTOR('',#827,1.);
#827 = DIRECTION('',(1.,0.));
#828 = ( GEOMETRIC_REPRESENTATION_CONTEXT(2) 
PARAMETRIC_REPRESENTATION_CONTEXT() REPRESENTATION_CONTEXT('2D SPACE',''
  ) );
#829 = PCURVE('',#830,#835);
#830 = PLANE('',#831);
#831 = AXIS2_PLACEMENT_3D('',#832,#833,#834);
#832 = CARTESIAN_POINT('',(0.,0.,120.));
#833 = DIRECTION('',(0.,0.,1.));
#834 = DIRECTION('',(1.,0.,0.));
#835 = DEFINITIONAL_REPRESENTATION('',(#836),#840);
#836 = CIRCLE('',#837,35.);
#837 = AXIS2_PLACEMENT_2D('',#838,#839);
#838 = CARTESIAN_POINT('',(0.,0.));
#839 = DIRECTION('',(1.,0.));
#840 = ( GEOMETRIC_REPRESENTATION_CONTEXT(2) 
PARAMETRIC_REPRESENTATION_CONTEXT() REPRESENTATION_CONTEXT('2D SPACE',''
  ) );
#841 = ORIENTED_EDGE('',*,*,#842,.F.);
#842 = EDGE_CURVE('',#843,#809,#845,.T.);
#843 = VERTEX_POINT('',#844);
#844 = CARTESIAN_POINT('',(35.,-8.572527594031E-15,0.));
#845 = SEAM_CURVE('',#846,(#850,#857),.PCURVE_S1.);
#846 = LINE('',#847,#848);
#847 = CARTESIAN_POINT('',(35.,-8.572527594031E-15,0.));
#848 = VECTOR('',#849,1.);
#849 = DIRECTION('',(0.,0.,1.));
#850 = PCURVE('',#818,#851);
#851 = DEFINITIONAL_REPRESENTATION('',(#852),#856);
#852 = LINE('',#853,#854);
#853 = CARTESIAN_POINT('',(6.28318530718,-0.));
#854 = VECTOR('',#855,1.);
#855 = DIRECTION('',(0.,1.));
#856 = ( GEOMETRIC_REPRESENTATION_CONTEXT(2) 
PARAMETRIC_REPRESENTATION_CONTEXT() REPRESENTATION_CONTEXT('2D SPACE',''
  ) );
#857 = PCURVE('',#818,#858);
#858 = DEFINITIONAL_REPRESENTATION('',(#859),#863);
#859 = LINE('',#860,#861);
#860 = CARTESIAN_POINT('',(0.,-0.));
#861 = VECTOR('',#862,1.);
#862 = DIRECTION('',(0.,1.));
#863 = ( GEOMETRIC_REPRESENTATION_CONTEXT(2) 
PARAMETRIC_REPRESENTATION_CONTEXT() REPRESENTATION_CONTEXT('2D SPACE',''
  ) );
#864 = ORIENTED_EDGE('',*,*,#865,.T.);
#865 = EDGE_CURVE('',#843,#843,#866,.T.);
#866 = SURFACE_CURVE('',#867,(#872,#879),.PCURVE_S1.);
#867 = CIRCLE('',#868,35.);
#868 = AXIS2_PLACEMENT_3D('',#869,#870,#871);
#869 = CARTESIAN_POINT('',(0.,0.,0.));
#870 = DIRECTION('',(0.,0.,1.));
#871 = DIRECTION('',(1.,0.,0.));
#872 = PCURVE('',#818,#873);
#873 = DEFINITIONAL_REPRESENTATION('',(#874),#878);
#874 = LINE('',#875,#876);
#875 = CARTESIAN_POINT('',(0.,0.));
#876 = VECTOR('',#877,1.);
#877 = DIRECTION('',(1.,0.));
#878 = ( GEOMETRIC_REPRESENTATION_CONTEXT(2) 
PARAMETRIC_REPRESENTATION_CONTEXT() REPRESENTATION_CONTEXT('2D SPACE',''
  ) );
#879 = PCURVE('',#880,#885);
#880 = PLANE('',#881);
#881 = AXIS2_PLACEMENT_3D('',#882,#883,#884);
#882 = CARTESIAN_POINT('',(0.,0.,0.));
#883 = DIRECTION('',(0.,0.,1.));
#884 = DIRECTION('',(1.,0.,0.));
#885 = DEFINITIONAL_REPRESENTATION('',(#886),#890);
#886 = CIRCLE('',#887,35.);
#887 = AXIS2_PLACEMENT_2D('',#888,#889);
#888 = CARTESIAN_POINT('',(0.,0.));
#889 = DIRECTION('',(1.,0.));
#890 = ( GEOMETRIC_REPRESENTATION_CONTEXT(2) 
PARAMETRIC_REPRESENTATION_CONTEXT() REPRESENTATION_CONTEXT('2D SPACE',''
  ) );
#891 = ORIENTED_EDGE('',*,*,#842,.T.);
#892 = ADVANCED_FACE('',(#893),#830,.T.);
#893 = FACE_BOUND('',#894,.T.);
#894 = EDGE_LOOP('',(#895));
#895 = ORIENTED_EDGE('',*,*,#808,.T.);
#896 = ADVANCED_FACE('',(#897),#880,.F.);
#897 = FACE_BOUND('',#898,.T.);
#898 = EDGE_LOOP('',(#899));
#899 = ORIENTED_EDGE('',*,*,#865,.F.);
#900 = ( GEOMETRIC_REPRESENTATION_CONTEXT(3) 
GLOBAL_UNCERTAINTY_ASSIGNED_CONTEXT((#904)) GLOBAL_UNIT_ASSIGNED_CONTEXT
((#901,#902,#903)) REPRESENTATION_CONTEXT('Context #1',
  '3D Context with UNIT and UNCERTAINTY') );
#901 = ( LENGTH_UNIT() NAMED_UNIT(*) SI_UNIT(.MILLI.,.METRE.) );
#902 = ( NAMED_UNIT(*) PLANE_ANGLE_UNIT() SI_UNIT($,.RADIAN.) );
#903 = ( NAMED_UNIT(*) SI_UNIT($,.STERADIAN.) SOLID_ANGLE_UNIT() );
#904 = UNCERTAINTY_MEASURE_WITH_UNIT(LENGTH_MEASURE(1.E-07),#901,
  'distance_accuracy_value','confusion accuracy');
#905 = CONTEXT_DEPENDENT_SHAPE_REPRESENTATION(#906,#908);
#906 = ( REPRESENTATION_RELATIONSHIP('','',#801,#32) 
REPRESENTATION_RELATIONSHIP_WITH_TRANSFORMATION(#907) 
SHAPE_REPRESENTATION_RELATIONSHIP() );
#907 = ITEM_DEFINED_TRANSFORMATION('','',#11,#41);
#908 = PRODUCT_DEFINITION_SHAPE('Placement','Placement of an item',#909
  );
#909 = NEXT_ASSEMBLY_USAGE_OCCURRENCE('3','','',#27,#796,$);
#910 = PRODUCT_RELATED_PRODUCT_CATEGORY('part',$,(#798));
ENDSEC;
END-ISO-10303-21;
