ISO-10303-21;
HEADER;
FILE_DESCRIPTION(('Open CASCADE Model'),'2;1');
FILE_NAME('Open CASCADE Shape Model','2026-03-24T16:33:52',('Author'),(
    'Open CASCADE'),'Open CASCADE STEP processor 7.7','Open CASCADE 7.7'
  ,'Unknown');
FILE_SCHEMA(('AUTOMOTIVE_DESIGN { 1 0 10303 214 1 1 1 1 }'));
ENDSEC;
DATA;
#1 = APPLICATION_PROTOCOL_DEFINITION('international standard',
  'automotive_design',2000,#2);
#2 = APPLICATION_CONTEXT(
  'core data for automotive mechanical design processes');
#3 = SHAPE_DEFINITION_REPRESENTATION(#4,#10);
#4 = PRODUCT_DEFINITION_SHAPE('','',#5);
#5 = PRODUCT_DEFINITION('design','',#6,#9);
#6 = PRODUCT_DEFINITION_FORMATION('','',#7);
#7 = PRODUCT('Open CASCADE STEP translator 7.7 1',
  'Open CASCADE STEP translator 7.7 1','',(#8));
#8 = PRODUCT_CONTEXT('',#2,'mechanical');
#9 = PRODUCT_DEFINITION_CONTEXT('part definition',#2,'design');
#10 = ADVANCED_BREP_SHAPE_REPRESENTATION('',(#11,#15),#685);
#11 = AXIS2_PLACEMENT_3D('',#12,#13,#14);
#12 = CARTESIAN_POINT('',(0.,0.,0.));
#13 = DIRECTION('',(0.,0.,1.));
#14 = DIRECTION('',(1.,0.,-0.));
#15 = MANIFOLD_SOLID_BREP('',#16);
#16 = CLOSED_SHELL('',(#17,#407,#493,#497,#532,#567,#622,#677,#681));
#17 = ADVANCED_FACE('',(#18),#131,.T.);
#18 = FACE_BOUND('',#19,.T.);
#19 = EDGE_LOOP('',(#20,#356,#379,#406));
#20 = ORIENTED_EDGE('',*,*,#21,.F.);
#21 = EDGE_CURVE('',#22,#22,#24,.T.);
#22 = VERTEX_POINT('',#23);
#23 = CARTESIAN_POINT('',(5.,19.364916731037,138.82720248465));
#24 = SURFACE_CURVE('',#25,(#130,#243),.PCURVE_S1.);
#25 = B_SPLINE_CURVE_WITH_KNOTS('',7,(#26,#27,#28,#29,#30,#31,#32,#33,
    #34,#35,#36,#37,#38,#39,#40,#41,#42,#43,#44,#45,#46,#47,#48,#49,#50,
    #51,#52,#53,#54,#55,#56,#57,#58,#59,#60,#61,#62,#63,#64,#65,#66,#67,
    #68,#69,#70,#71,#72,#73,#74,#75,#76,#77,#78,#79,#80,#81,#82,#83,#84,
    #85,#86,#87,#88,#89,#90,#91,#92,#93,#94,#95,#96,#97,#98,#99,#100,
    #101,#102,#103,#104,#105,#106,#107,#108,#109,#110,#111,#112,#113,
    #114,#115,#116,#117,#118,#119,#120,#121,#122,#123,#124,#125,#126,
    #127,#128,#129),.UNSPECIFIED.,.T.,.F.,(8,6,6,6,6,6,6,6,6,6,6,6,6,6,6
    ,6,6,8),(0.,0.115344203066,0.160672131237,0.210707777364,
    0.266685294064,0.326266333644,0.373708413188,0.415063819648,
    0.447479083031,0.526191118729,0.59765174291,0.650253448951,
    0.705665674657,0.742209773806,0.803101025215,0.836958937317,
    0.959254528598,1.),.UNSPECIFIED.);
#26 = CARTESIAN_POINT('',(5.,19.364916731037,138.82720248465));
#27 = CARTESIAN_POINT('',(5.,19.364916731037,139.28427552294));
#28 = CARTESIAN_POINT('',(4.954519378174,19.376659743377,139.74283386321
    ));
#29 = CARTESIAN_POINT('',(4.861892025752,19.400576217757,140.1998155401)
  );
#30 = CARTESIAN_POINT('',(4.719610284561,19.43659481361,140.65165604084)
  );
#31 = CARTESIAN_POINT('',(4.524407309391,19.483980063139,141.09398875465
    ));
#32 = CARTESIAN_POINT('',(4.272375169226,19.540953457118,141.52101444052
    ));
#33 = CARTESIAN_POINT('',(3.836187208215,19.62904551529,142.08291640661)
  );
#34 = CARTESIAN_POINT('',(3.703694989551,19.654865382709,142.23778681399
    ));
#35 = CARTESIAN_POINT('',(3.56157192779,19.681439046019,142.38841538834)
  );
#36 = CARTESIAN_POINT('',(3.409644265435,19.708511137751,142.53416075414
    ));
#37 = CARTESIAN_POINT('',(3.247768145687,19.735784747818,142.67432279439
    ));
#38 = CARTESIAN_POINT('',(3.07583972428,19.762921218414,142.8081337023)
  );
#39 = CARTESIAN_POINT('',(2.692864904406,19.818923255843,143.07451451807
    ));
#40 = CARTESIAN_POINT('',(2.479262523675,19.847726560306,143.20575407405
    ));
#41 = CARTESIAN_POINT('',(2.253440261278,19.875350008289,143.32686571618
    ));
#42 = CARTESIAN_POINT('',(2.016034891136,19.90114894321,143.43633691456)
  );
#43 = CARTESIAN_POINT('',(1.76787030493,19.924473348122,143.53274606181)
  );
#44 = CARTESIAN_POINT('',(1.509949978096,19.944707297919,143.61476394086
    ));
#45 = CARTESIAN_POINT('',(0.945301221293,19.979880953052,143.75543058849
    ));
#46 = CARTESIAN_POINT('',(0.63664901357,19.993892134697,143.81008918487)
  );
#47 = CARTESIAN_POINT('',(0.32091304139,20.002488315822,143.84302140846)
  );
#48 = CARTESIAN_POINT('',(1.841268839755E-03,20.005115117861,
    143.85304416103));
#49 = CARTESIAN_POINT('',(-0.3166764127,20.001645839668,143.83989107251)
  );
#50 = CARTESIAN_POINT('',(-0.63079562459,19.992398727435,143.8042158516)
  );
#51 = CARTESIAN_POINT('',(-1.262723250836,19.962763335034,
    143.68735756421));
#52 = CARTESIAN_POINT('',(-1.578289283553,19.941751407982,
    143.60361054699));
#53 = CARTESIAN_POINT('',(-1.881280726402,19.91579968633,143.49824137621
    ));
#54 = CARTESIAN_POINT('',(-2.169702984669,19.885912917016,
    143.37338582718));
#55 = CARTESIAN_POINT('',(-2.441923581151,19.853206237874,
    143.23143432674));
#56 = CARTESIAN_POINT('',(-2.696704923688,19.818803189878,
    143.07502452299));
#57 = CARTESIAN_POINT('',(-3.12157848313,19.755809273117,142.77326937733
    ));
#58 = CARTESIAN_POINT('',(-3.298866185745,19.727385569403,
    142.63179506047));
#59 = CARTESIAN_POINT('',(-3.46517948274,19.698891021869,142.48356233527
    ));
#60 = CARTESIAN_POINT('',(-3.62065411801,19.670703011905,142.32942967982
    ));
#61 = CARTESIAN_POINT('',(-3.765469883949,19.643148805542,142.17017378)
  );
#62 = CARTESIAN_POINT('',(-3.89983822823,19.616506460341,142.00650069003
    ));
#63 = CARTESIAN_POINT('',(-4.132213219864,19.568776669284,
    141.69309580817));
#64 = CARTESIAN_POINT('',(-4.23269864966,19.54741008931,141.54423587782)
  );
#65 = CARTESIAN_POINT('',(-4.325631238353,19.527051536755,
    141.39284914008));
#66 = CARTESIAN_POINT('',(-4.411190015477,19.507822489156,
    141.23927469113));
#67 = CARTESIAN_POINT('',(-4.489548318504,19.48982238039,141.08381925315
    ));
#68 = CARTESIAN_POINT('',(-4.560874159628,19.47313062389,140.92675764205
    ));
#69 = CARTESIAN_POINT('',(-4.675852940864,19.445798929747,
    140.64415675365));
#70 = CARTESIAN_POINT('',(-4.722154413861,19.43463088533,140.51914382412
    ));
#71 = CARTESIAN_POINT('',(-4.764313991106,19.424333910804,
    140.39340891104));
#72 = CARTESIAN_POINT('',(-4.80240582437,19.414931322464,140.26705933224
    ));
#73 = CARTESIAN_POINT('',(-4.836499422172,19.406440851477,
    140.14019536048));
#74 = CARTESIAN_POINT('',(-4.866659834309,19.398875150659,
    140.01291032471));
#75 = CARTESIAN_POINT('',(-4.95678141179,19.376136151698,139.57539967568
    ));
#76 = CARTESIAN_POINT('',(-4.99776395324,19.365534942728,139.26362233684
    ));
#77 = CARTESIAN_POINT('',(-5.016804587762,19.360544198503,
    138.95110514743));
#78 = CARTESIAN_POINT('',(-5.014593499501,19.36112562821,138.63883244312
    ));
#79 = CARTESIAN_POINT('',(-4.991619017956,19.36713406909,138.32770293288
    ));
#80 = CARTESIAN_POINT('',(-4.948175734135,19.378335510407,
    138.01860328675));
#81 = CARTESIAN_POINT('',(-4.826430296713,19.408996360879,
    137.43455632574));
#82 = CARTESIAN_POINT('',(-4.751729108342,19.427594737273,
    137.15918666151));
#83 = CARTESIAN_POINT('',(-4.660307394549,19.449966173871,
    136.88683232676));
#84 = CARTESIAN_POINT('',(-4.551996720214,19.475836251972,
    136.61803761508));
#85 = CARTESIAN_POINT('',(-4.426444569515,19.504877261506,
    136.35350855946));
#86 = CARTESIAN_POINT('',(-4.283142670177,19.536683244862,
    136.09419240169));
#87 = CARTESIAN_POINT('',(-4.002432489502,19.595798734414,
    135.65524576906));
#88 = CARTESIAN_POINT('',(-3.873455162907,19.622078349354,
    135.47265563607));
#89 = CARTESIAN_POINT('',(-3.734152841314,19.649389938432,
    135.29391306529));
#90 = CARTESIAN_POINT('',(-3.584089686433,19.677517507572,
    135.11950456918));
#91 = CARTESIAN_POINT('',(-3.422789207973,19.706196827561,
    134.95010629012));
#92 = CARTESIAN_POINT('',(-3.249762298495,19.735100175733,
    134.78661399527));
#93 = CARTESIAN_POINT('',(-2.869411520797,19.794076543106,
    134.46537347771));
#94 = CARTESIAN_POINT('',(-2.660175278044,19.824218807795,
    134.30791460433));
#95 = CARTESIAN_POINT('',(-2.43649052225,19.853715172816,134.15952225));
#96 = CARTESIAN_POINT('',(-2.198121765861,19.881937492451,
    134.02213993239));
#97 = CARTESIAN_POINT('',(-1.944975050318,19.908157635095,
    133.89794961255));
#98 = CARTESIAN_POINT('',(-1.677143228412,19.931563153999,133.7893992941
    ));
#99 = CARTESIAN_POINT('',(-1.208854086142,19.96430501806,133.63977622098
    ));
#100 = CARTESIAN_POINT('',(-1.016461008009,19.975721621412,
    133.58829753465));
#101 = CARTESIAN_POINT('',(-0.818869587842,19.985224484252,
    133.54591897337));
#102 = CARTESIAN_POINT('',(-0.617228290784,19.992550571981,
    133.51349626445));
#103 = CARTESIAN_POINT('',(-0.412725826293,19.99751072198,
    133.49162697938));
#104 = CARTESIAN_POINT('',(-0.206575664829,20.,133.48065153356));
#105 = CARTESIAN_POINT('',(0.344204701583,20.,133.48065153356));
#106 = CARTESIAN_POINT('',(0.684641148554,19.993089285679,
    133.51112317781));
#107 = CARTESIAN_POINT('',(1.017301167788,19.979537845355,
    133.57086570683));
#108 = CARTESIAN_POINT('',(1.338300388207,19.960086960258,
    133.65756839305));
#109 = CARTESIAN_POINT('',(1.644037776339,19.935880982172,
    133.76782544241));
#110 = CARTESIAN_POINT('',(1.931311556709,19.908332408592,
    133.89711966555));
#111 = CARTESIAN_POINT('',(2.345342358969,19.862565950404,
    134.11909680601));
#112 = CARTESIAN_POINT('',(2.487779011377,19.845520797808,
    134.20310620636));
#113 = CARTESIAN_POINT('',(2.624782834232,19.827945860535,
    134.29131744234));
#114 = CARTESIAN_POINT('',(2.756448201695,19.809987498951,
    134.38329343712));
#115 = CARTESIAN_POINT('',(2.88288209496,19.791777382753,134.47864555854
    ));
#116 = CARTESIAN_POINT('',(3.004203695073,19.773432502863,
    134.57703346374));
#117 = CARTESIAN_POINT('',(3.540767862262,19.688675863918,
    135.04345427711));
#118 = CARTESIAN_POINT('',(3.897983751305,19.62156010038,135.4462653939)
  );
#119 = CARTESIAN_POINT('',(4.196737371574,19.558611669479,
    135.87304576545));
#120 = CARTESIAN_POINT('',(4.441892691477,19.502841352908,
    136.31597494176));
#121 = CARTESIAN_POINT('',(4.637198630151,19.456016906883,
    136.77075811477));
#122 = CARTESIAN_POINT('',(4.784687591648,19.419505735501,
    137.23556507766));
#123 = CARTESIAN_POINT('',(4.916772204352,19.3862453762,137.86753697941)
  );
#124 = CARTESIAN_POINT('',(4.944355588765,19.37922990807,138.02624890103
    ));
#125 = CARTESIAN_POINT('',(4.966502762873,19.373554666516,
    138.18561455671));
#126 = CARTESIAN_POINT('',(4.983188509955,19.36925741133,138.34551257318
    ));
#127 = CARTESIAN_POINT('',(4.994372672283,19.366369730417,
    138.50582265013));
#128 = CARTESIAN_POINT('',(5.,19.364916731037,138.66642544949));
#129 = CARTESIAN_POINT('',(5.,19.364916731037,138.82720248465));
#130 = PCURVE('',#131,#136);
#131 = CYLINDRICAL_SURFACE('',#132,5.);
#132 = AXIS2_PLACEMENT_3D('',#133,#134,#135);
#133 = CARTESIAN_POINT('',(0.,53.638516525781,129.64361909795));
#134 = DIRECTION('',(0.,-0.965925826289,0.258819045103));
#135 = DIRECTION('',(1.,0.,0.));
#136 = DEFINITIONAL_REPRESENTATION('',(#137),#242);
#137 = B_SPLINE_CURVE_WITH_KNOTS('',7,(#138,#139,#140,#141,#142,#143,
    #144,#145,#146,#147,#148,#149,#150,#151,#152,#153,#154,#155,#156,
    #157,#158,#159,#160,#161,#162,#163,#164,#165,#166,#167,#168,#169,
    #170,#171,#172,#173,#174,#175,#176,#177,#178,#179,#180,#181,#182,
    #183,#184,#185,#186,#187,#188,#189,#190,#191,#192,#193,#194,#195,
    #196,#197,#198,#199,#200,#201,#202,#203,#204,#205,#206,#207,#208,
    #209,#210,#211,#212,#213,#214,#215,#216,#217,#218,#219,#220,#221,
    #222,#223,#224,#225,#226,#227,#228,#229,#230,#231,#232,#233,#234,
    #235,#236,#237,#238,#239,#240,#241),.UNSPECIFIED.,.F.,.F.,(8,6,6,6,6
    ,6,6,6,6,6,6,6,6,6,6,6,6,8),(0.,0.115344203066,0.160672131237,
    0.210707777364,0.266685294064,0.326266333644,0.373708413188,
    0.415063819648,0.447479083031,0.526191118729,0.59765174291,
    0.650253448951,0.705665674657,0.742209773806,0.803101025215,
    0.836958937317,0.959254528598,1.),.UNSPECIFIED.);
#138 = CARTESIAN_POINT('',(0.,35.482641484407));
#139 = CARTESIAN_POINT('',(8.829973043633E-02,35.600940691718));
#140 = CARTESIAN_POINT('',(0.177494093043,35.708281444572));
#141 = CARTESIAN_POINT('',(0.268139489672,35.803455465538));
#142 = CARTESIAN_POINT('',(0.360766963617,35.885609100516));
#143 = CARTESIAN_POINT('',(0.455977595098,35.954322594817));
#144 = CARTESIAN_POINT('',(0.55442067024,36.009812902414));
#145 = CARTESIAN_POINT('',(0.697265059311,36.070153438639));
#146 = CARTESIAN_POINT('',(0.73819743056,36.085296772819));
#147 = CARTESIAN_POINT('',(0.779795264298,36.098614128908));
#148 = CARTESIAN_POINT('',(0.82209288656,36.110186172736));
#149 = CARTESIAN_POINT('',(0.86512827014,36.120118493814));
#150 = CARTESIAN_POINT('',(0.908943911257,36.128539487439));
#151 = CARTESIAN_POINT('',(1.00286816566,36.143390101533));
#152 = CARTESIAN_POINT('',(1.053243098538,36.149535542429));
#153 = CARTESIAN_POINT('',(1.104638967371,36.154199340179));
#154 = CARTESIAN_POINT('',(1.15699784516,36.157612713679));
#155 = CARTESIAN_POINT('',(1.210275581816,36.16003559202));
#156 = CARTESIAN_POINT('',(1.264439970589,36.161718886481));
#157 = CARTESIAN_POINT('',(1.381032696844,36.164150952001));
#158 = CARTESIAN_POINT('',(1.443630107957,36.164763875515));
#159 = CARTESIAN_POINT('',(1.506867338172,36.164984088821));
#160 = CARTESIAN_POINT('',(1.570393169845,36.165040872142));
#161 = CARTESIAN_POINT('',(1.633873553689,36.164987667735));
#162 = CARTESIAN_POINT('',(1.696965728746,36.164686265651));
#163 = CARTESIAN_POINT('',(1.825630256516,36.163066706188));
#164 = CARTESIAN_POINT('',(1.890861038667,36.161687346161));
#165 = CARTESIAN_POINT('',(1.954928629611,36.159483236177));
#166 = CARTESIAN_POINT('',(2.017759757513,36.156036644546));
#167 = CARTESIAN_POINT('',(2.079257411091,36.150889118826));
#168 = CARTESIAN_POINT('',(2.139294769145,36.143638075337));
#169 = CARTESIAN_POINT('',(2.244222228523,36.12638554778));
#170 = CARTESIAN_POINT('',(2.289834023825,36.117224489681));
#171 = CARTESIAN_POINT('',(2.334600411351,36.106382656663));
#172 = CARTESIAN_POINT('',(2.378570944778,36.093717716777));
#173 = CARTESIAN_POINT('',(2.421789955707,36.079114576406));
#174 = CARTESIAN_POINT('',(2.464297673247,36.062487392855));
#175 = CARTESIAN_POINT('',(2.542597882576,36.027475678466));
#176 = CARTESIAN_POINT('',(2.57856063667,36.009586424856));
#177 = CARTESIAN_POINT('',(2.6140567663,35.99006950565));
#178 = CARTESIAN_POINT('',(2.649119287653,35.968895347113));
#179 = CARTESIAN_POINT('',(2.683778633092,35.946047289032));
#180 = CARTESIAN_POINT('',(2.718064211528,35.921519751514));
#181 = CARTESIAN_POINT('',(2.778610253377,35.874777648682));
#182 = CARTESIAN_POINT('',(2.805003097293,35.853209424167));
#183 = CARTESIAN_POINT('',(2.831199374276,35.830612947654));
#184 = CARTESIAN_POINT('',(2.857213003104,35.806993473234));
#185 = CARTESIAN_POINT('',(2.883057269499,35.782359826406));
#186 = CARTESIAN_POINT('',(2.908745148013,35.756723940809));
#187 = CARTESIAN_POINT('',(2.996317739322,35.665452038765));
#188 = CARTESIAN_POINT('',(3.05748302485,35.594998107175));
#189 = CARTESIAN_POINT('',(3.117990235243,35.518933395374));
#190 = CARTESIAN_POINT('',(3.178025593192,35.437549654262));
#191 = CARTESIAN_POINT('',(3.237766856219,35.351219703297));
#192 = CARTESIAN_POINT('',(3.297390785002,35.260399066583));
#193 = CARTESIAN_POINT('',(3.411266505942,35.079620482512));
#194 = CARTESIAN_POINT('',(3.465487668799,34.99038491688));
#195 = CARTESIAN_POINT('',(3.519923711014,34.89828527965));
#196 = CARTESIAN_POINT('',(3.574754903937,34.803727512478));
#197 = CARTESIAN_POINT('',(3.63016044808,34.707210893771));
#198 = CARTESIAN_POINT('',(3.68632363101,34.609372712682));
#199 = CARTESIAN_POINT('',(3.785485207315,34.438663786281));
#200 = CARTESIAN_POINT('',(3.82804406705,34.366021823642));
#201 = CARTESIAN_POINT('',(3.871237144263,34.293378872907));
#202 = CARTESIAN_POINT('',(3.915179710782,34.221069487022));
#203 = CARTESIAN_POINT('',(3.959985769646,34.149523890336));
#204 = CARTESIAN_POINT('',(4.005770803524,34.079290480235));
#205 = CARTESIAN_POINT('',(4.102043249244,33.939180519846));
#206 = CARTESIAN_POINT('',(4.152796669022,33.86931197267));
#207 = CARTESIAN_POINT('',(4.204976876543,33.802413904466));
#208 = CARTESIAN_POINT('',(4.258657299012,33.739596076794));
#209 = CARTESIAN_POINT('',(4.313922504428,33.682126543854));
#210 = CARTESIAN_POINT('',(4.370874517181,33.6314236589));
#211 = CARTESIAN_POINT('',(4.468404918402,33.561072145892));
#212 = CARTESIAN_POINT('',(4.507965358028,33.536720889426));
#213 = CARTESIAN_POINT('',(4.548156461611,33.516573450022));
#214 = CARTESIAN_POINT('',(4.588828131636,33.501105378118));
#215 = CARTESIAN_POINT('',(4.629843815894,33.490654053653));
#216 = CARTESIAN_POINT('',(4.671073847419,33.485408941317));
#217 = CARTESIAN_POINT('',(4.781229920701,33.485408941317));
#218 = CARTESIAN_POINT('',(4.849317202393,33.499970820624));
#219 = CARTESIAN_POINT('',(4.91638213475,33.528523011132));
#220 = CARTESIAN_POINT('',(4.982127833791,33.569751429845));
#221 = CARTESIAN_POINT('',(5.046203518107,33.62166923346));
#222 = CARTESIAN_POINT('',(5.108162915596,33.681742919529));
#223 = CARTESIAN_POINT('',(5.20034868233,33.783401835001));
#224 = CARTESIAN_POINT('',(5.232682238985,33.821609420882));
#225 = CARTESIAN_POINT('',(5.264442777926,33.861416254554));
#226 = CARTESIAN_POINT('',(5.29566231549,33.902567838948));
#227 = CARTESIAN_POINT('',(5.326371174297,33.944836405497));
#228 = CARTESIAN_POINT('',(5.35659960007,33.988020862436));
#229 = CARTESIAN_POINT('',(5.493944652897,34.190608078476));
#230 = CARTESIAN_POINT('',(5.596164246538,34.359692116433));
#231 = CARTESIAN_POINT('',(5.69430361171,34.530954519796));
#232 = CARTESIAN_POINT('',(5.789409383325,34.699463015373));
#233 = CARTESIAN_POINT('',(5.882521079774,34.862398503658));
#234 = CARTESIAN_POINT('',(5.974704670901,35.017966481337));
#235 = CARTESIAN_POINT('',(6.097935376908,35.21365988552));
#236 = CARTESIAN_POINT('',(6.128711281309,35.26151397537));
#237 = CARTESIAN_POINT('',(6.159492946641,35.308242704581));
#238 = CARTESIAN_POINT('',(6.190305715814,35.353778186284));
#239 = CARTESIAN_POINT('',(6.221174702324,35.398058772894));
#240 = CARTESIAN_POINT('',(6.252125569073,35.441029325692));
#241 = CARTESIAN_POINT('',(6.28318530718,35.482641484407));
#242 = ( GEOMETRIC_REPRESENTATION_CONTEXT(2) 
PARAMETRIC_REPRESENTATION_CONTEXT() REPRESENTATION_CONTEXT('2D SPACE',''
  ) );
#243 = PCURVE('',#244,#249);
#244 = CYLINDRICAL_SURFACE('',#245,20.);
#245 = AXIS2_PLACEMENT_3D('',#246,#247,#248);
#246 = CARTESIAN_POINT('',(0.,0.,120.));
#247 = DIRECTION('',(0.,0.,1.));
#248 = DIRECTION('',(1.,0.,0.));
#249 = DEFINITIONAL_REPRESENTATION('',(#250),#355);
#250 = B_SPLINE_CURVE_WITH_KNOTS('',7,(#251,#252,#253,#254,#255,#256,
    #257,#258,#259,#260,#261,#262,#263,#264,#265,#266,#267,#268,#269,
    #270,#271,#272,#273,#274,#275,#276,#277,#278,#279,#280,#281,#282,
    #283,#284,#285,#286,#287,#288,#289,#290,#291,#292,#293,#294,#295,
    #296,#297,#298,#299,#300,#301,#302,#303,#304,#305,#306,#307,#308,
    #309,#310,#311,#312,#313,#314,#315,#316,#317,#318,#319,#320,#321,
    #322,#323,#324,#325,#326,#327,#328,#329,#330,#331,#332,#333,#334,
    #335,#336,#337,#338,#339,#340,#341,#342,#343,#344,#345,#346,#347,
    #348,#349,#350,#351,#352,#353,#354),.UNSPECIFIED.,.F.,.F.,(8,6,6,6,6
    ,6,6,6,6,6,6,6,6,6,6,6,6,8),(0.,0.115344203066,0.160672131237,
    0.210707777364,0.266685294064,0.326266333644,0.373708413188,
    0.415063819648,0.447479083031,0.526191118729,0.59765174291,
    0.650253448951,0.705665674657,0.742209773806,0.803101025215,
    0.836958937317,0.959254528598,1.),.UNSPECIFIED.);
#251 = CARTESIAN_POINT('',(1.318116071653,18.827202484659));
#252 = CARTESIAN_POINT('',(1.318116071653,19.284275522946));
#253 = CARTESIAN_POINT('',(1.320464677308,19.74283386321));
#254 = CARTESIAN_POINT('',(1.325247952808,20.199815540107));
#255 = CARTESIAN_POINT('',(1.332586320914,20.651656040843));
#256 = CARTESIAN_POINT('',(1.342628975329,21.093988754653));
#257 = CARTESIAN_POINT('',(1.355545124453,21.521014440529));
#258 = CARTESIAN_POINT('',(1.377794851869,22.082916406617));
#259 = CARTESIAN_POINT('',(1.384543925556,22.237786813991));
#260 = CARTESIAN_POINT('',(1.39177288205,22.388415388345));
#261 = CARTESIAN_POINT('',(1.399488377231,22.534160754144));
#262 = CARTESIAN_POINT('',(1.407695590885,22.674322794398));
#263 = CARTESIAN_POINT('',(1.416397873226,22.8081337023));
#264 = CARTESIAN_POINT('',(1.435750259439,23.074514518071));
#265 = CARTESIAN_POINT('',(1.446526391757,23.205754074054));
#266 = CARTESIAN_POINT('',(1.45790020163,23.326865716189));
#267 = CARTESIAN_POINT('',(1.469838268856,23.436336914569));
#268 = CARTESIAN_POINT('',(1.482298931231,23.532746061811));
#269 = CARTESIAN_POINT('',(1.495232876021,23.614763940863));
#270 = CARTESIAN_POINT('',(1.523520037622,23.755430588498));
#271 = CARTESIAN_POINT('',(1.538966362425,23.810089184875));
#272 = CARTESIAN_POINT('',(1.554754734542,23.84302140846));
#273 = CARTESIAN_POINT('',(1.570703695109,23.853044161039));
#274 = CARTESIAN_POINT('',(1.586626045308,23.839891072513));
#275 = CARTESIAN_POINT('',(1.60233643694,23.804215851609));
#276 = CARTESIAN_POINT('',(1.633967544306,23.687357564217));
#277 = CARTESIAN_POINT('',(1.649777665372,23.603610546995));
#278 = CARTESIAN_POINT('',(1.664978617556,23.498241376219));
#279 = CARTESIAN_POINT('',(1.679473195579,23.373385827186));
#280 = CARTESIAN_POINT('',(1.693179554024,23.231434326748));
#281 = CARTESIAN_POINT('',(1.706033220885,23.075024522996));
#282 = CARTESIAN_POINT('',(1.727509124536,22.773269377335));
#283 = CARTESIAN_POINT('',(1.736486093055,22.631795060476));
#284 = CARTESIAN_POINT('',(1.74492219503,22.483562335277));
#285 = CARTESIAN_POINT('',(1.752822075356,22.329429679828));
#286 = CARTESIAN_POINT('',(1.760192407132,22.170173780003));
#287 = CARTESIAN_POINT('',(1.767041453309,22.006500690035));
#288 = CARTESIAN_POINT('',(1.77890276328,21.693095808173));
#289 = CARTESIAN_POINT('',(1.7840392387,21.544235877826));
#290 = CARTESIAN_POINT('',(1.788795924763,21.392849140082));
#291 = CARTESIAN_POINT('',(1.793180477071,21.239274691136));
#292 = CARTESIAN_POINT('',(1.79720038243,21.083819253155));
#293 = CARTESIAN_POINT('',(1.80086300461,20.926757642055));
#294 = CARTESIAN_POINT('',(1.806772137719,20.644156753652));
#295 = CARTESIAN_POINT('',(1.809153590693,20.519143824125));
#296 = CARTESIAN_POINT('',(1.811323518591,20.393408911041));
#297 = CARTESIAN_POINT('',(1.813285267296,20.267059332249));
#298 = CARTESIAN_POINT('',(1.815042008617,20.140195360481));
#299 = CARTESIAN_POINT('',(1.816596749896,20.012910324719));
#300 = CARTESIAN_POINT('',(1.821244050403,19.575399675689));
#301 = CARTESIAN_POINT('',(1.82336058797,19.263622336847));
#302 = CARTESIAN_POINT('',(1.824344791705,18.951105147439));
#303 = CARTESIAN_POINT('',(1.824230480163,18.638832443126));
#304 = CARTESIAN_POINT('',(1.823043109482,18.327702932886));
#305 = CARTESIAN_POINT('',(1.820799938877,18.01860328675));
#306 = CARTESIAN_POINT('',(1.814522590853,17.434556325741));
#307 = CARTESIAN_POINT('',(1.810673523728,17.15918666151));
#308 = CARTESIAN_POINT('',(1.805967633629,16.886832326764));
#309 = CARTESIAN_POINT('',(1.800399935025,16.618037615081));
#310 = CARTESIAN_POINT('',(1.793956921293,16.353508559466));
#311 = CARTESIAN_POINT('',(1.786617894526,16.09419240169));
#312 = CARTESIAN_POINT('',(1.772274529628,15.65524576906));
#313 = CARTESIAN_POINT('',(1.765693309608,15.472655636076));
#314 = CARTESIAN_POINT('',(1.758595897951,15.293913065297));
#315 = CARTESIAN_POINT('',(1.750962591605,15.119504569184));
#316 = CARTESIAN_POINT('',(1.742771757021,14.950106290123));
#317 = CARTESIAN_POINT('',(1.734001127841,14.786613995272));
#318 = CARTESIAN_POINT('',(1.714756328154,14.465373477714));
#319 = CARTESIAN_POINT('',(1.704187131102,14.307914604335));
#320 = CARTESIAN_POINT('',(1.692907406845,14.159522250005));
#321 = CARTESIAN_POINT('',(1.680907788001,14.02213993239));
#322 = CARTESIAN_POINT('',(1.668185208539,13.897949612554));
#323 = CARTESIAN_POINT('',(1.654744608374,13.789399294107));
#324 = CARTESIAN_POINT('',(1.631272989851,13.639776220986));
#325 = CARTESIAN_POINT('',(1.621636948272,13.588297534651));
#326 = CARTESIAN_POINT('',(1.611746973952,13.545918973371));
#327 = CARTESIAN_POINT('',(1.601659539329,13.513496264455));
#328 = CARTESIAN_POINT('',(1.591432618801,13.491626979388));
#329 = CARTESIAN_POINT('',(1.581125110036,13.480651533563));
#330 = CARTESIAN_POINT('',(1.553586091716,13.480651533563));
#331 = CARTESIAN_POINT('',(1.536564262963,13.511123177811));
#332 = CARTESIAN_POINT('',(1.519922961075,13.570865706839));
#333 = CARTESIAN_POINT('',(1.503848796915,13.657568393051));
#334 = CARTESIAN_POINT('',(1.488517602619,13.767825442412));
#335 = CARTESIAN_POINT('',(1.474089527125,13.897119665552));
#336 = CARTESIAN_POINT('',(1.453261896804,14.119096806019));
#337 = CARTESIAN_POINT('',(1.446089541931,14.20310620636));
#338 = CARTESIAN_POINT('',(1.439183601831,14.291317442346));
#339 = CARTESIAN_POINT('',(1.432539734613,14.383293437126));
#340 = CARTESIAN_POINT('',(1.426153065051,14.478645558547));
#341 = CARTESIAN_POINT('',(1.420018163288,14.577033463746));
#342 = CARTESIAN_POINT('',(1.392857309409,15.043454277116));
#343 = CARTESIAN_POINT('',(1.374691666247,15.446265393907));
#344 = CARTESIAN_POINT('',(1.359430123174,15.873045765451));
#345 = CARTESIAN_POINT('',(1.346860917879,16.315974941762));
#346 = CARTESIAN_POINT('',(1.336819316352,16.770758114777));
#347 = CARTESIAN_POINT('',(1.329222329202,17.235565077668));
#348 = CARTESIAN_POINT('',(1.322411933396,17.867536979417));
#349 = CARTESIAN_POINT('',(1.320988859491,18.026248901036));
#350 = CARTESIAN_POINT('',(1.319845724142,18.185614556712));
#351 = CARTESIAN_POINT('',(1.318984213243,18.345512573182));
#352 = CARTESIAN_POINT('',(1.318406665636,18.505822650139));
#353 = CARTESIAN_POINT('',(1.318116071653,18.666425449499));
#354 = CARTESIAN_POINT('',(1.318116071653,18.827202484659));
#355 = ( GEOMETRIC_REPRESENTATION_CONTEXT(2) 
PARAMETRIC_REPRESENTATION_CONTEXT() REPRESENTATION_CONTEXT('2D SPACE',''
  ) );
#356 = ORIENTED_EDGE('',*,*,#357,.F.);
#357 = EDGE_CURVE('',#358,#22,#360,.T.);
#358 = VERTEX_POINT('',#359);
#359 = CARTESIAN_POINT('',(5.,53.638516525781,129.64361909795));
#360 = SEAM_CURVE('',#361,(#365,#372),.PCURVE_S1.);
#361 = LINE('',#362,#363);
#362 = CARTESIAN_POINT('',(5.,53.638516525781,129.64361909795));
#363 = VECTOR('',#364,1.);
#364 = DIRECTION('',(0.,-0.965925826289,0.258819045103));
#365 = PCURVE('',#131,#366);
#366 = DEFINITIONAL_REPRESENTATION('',(#367),#371);
#367 = LINE('',#368,#369);
#368 = CARTESIAN_POINT('',(6.28318530718,-0.));
#369 = VECTOR('',#370,1.);
#370 = DIRECTION('',(0.,1.));
#371 = ( GEOMETRIC_REPRESENTATION_CONTEXT(2) 
PARAMETRIC_REPRESENTATION_CONTEXT() REPRESENTATION_CONTEXT('2D SPACE',''
  ) );
#372 = PCURVE('',#131,#373);
#373 = DEFINITIONAL_REPRESENTATION('',(#374),#378);
#374 = LINE('',#375,#376);
#375 = CARTESIAN_POINT('',(0.,-0.));
#376 = VECTOR('',#377,1.);
#377 = DIRECTION('',(0.,1.));
#378 = ( GEOMETRIC_REPRESENTATION_CONTEXT(2) 
PARAMETRIC_REPRESENTATION_CONTEXT() REPRESENTATION_CONTEXT('2D SPACE',''
  ) );
#379 = ORIENTED_EDGE('',*,*,#380,.T.);
#380 = EDGE_CURVE('',#358,#358,#381,.T.);
#381 = SURFACE_CURVE('',#382,(#387,#394),.PCURVE_S1.);
#382 = CIRCLE('',#383,5.);
#383 = AXIS2_PLACEMENT_3D('',#384,#385,#386);
#384 = CARTESIAN_POINT('',(0.,53.638516525781,129.64361909795));
#385 = DIRECTION('',(0.,-0.965925826289,0.258819045103));
#386 = DIRECTION('',(1.,0.,0.));
#387 = PCURVE('',#131,#388);
#388 = DEFINITIONAL_REPRESENTATION('',(#389),#393);
#389 = LINE('',#390,#391);
#390 = CARTESIAN_POINT('',(0.,0.));
#391 = VECTOR('',#392,1.);
#392 = DIRECTION('',(1.,0.));
#393 = ( GEOMETRIC_REPRESENTATION_CONTEXT(2) 
PARAMETRIC_REPRESENTATION_CONTEXT() REPRESENTATION_CONTEXT('2D SPACE',''
  ) );
#394 = PCURVE('',#395,#400);
#395 = PLANE('',#396);
#396 = AXIS2_PLACEMENT_3D('',#397,#398,#399);
#397 = CARTESIAN_POINT('',(0.,53.638516525781,129.64361909795));
#398 = DIRECTION('',(0.,-0.965925826289,0.258819045103));
#399 = DIRECTION('',(1.,0.,0.));
#400 = DEFINITIONAL_REPRESENTATION('',(#401),#405);
#401 = CIRCLE('',#402,5.);
#402 = AXIS2_PLACEMENT_2D('',#403,#404);
#403 = CARTESIAN_POINT('',(0.,0.));
#404 = DIRECTION('',(1.,0.));
#405 = ( GEOMETRIC_REPRESENTATION_CONTEXT(2) 
PARAMETRIC_REPRESENTATION_CONTEXT() REPRESENTATION_CONTEXT('2D SPACE',''
  ) );
#406 = ORIENTED_EDGE('',*,*,#357,.T.);
#407 = ADVANCED_FACE('',(#408,#490),#244,.T.);
#408 = FACE_BOUND('',#409,.T.);
#409 = EDGE_LOOP('',(#410,#435,#462,#463));
#410 = ORIENTED_EDGE('',*,*,#411,.T.);
#411 = EDGE_CURVE('',#412,#414,#416,.T.);
#412 = VERTEX_POINT('',#413);
#413 = CARTESIAN_POINT('',(20.,-4.898587196589E-15,120.));
#414 = VERTEX_POINT('',#415);
#415 = CARTESIAN_POINT('',(20.,-4.898587196589E-15,150.));
#416 = SEAM_CURVE('',#417,(#421,#428),.PCURVE_S1.);
#417 = LINE('',#418,#419);
#418 = CARTESIAN_POINT('',(20.,-4.898587196589E-15,120.));
#419 = VECTOR('',#420,1.);
#420 = DIRECTION('',(0.,0.,1.));
#421 = PCURVE('',#244,#422);
#422 = DEFINITIONAL_REPRESENTATION('',(#423),#427);
#423 = LINE('',#424,#425);
#424 = CARTESIAN_POINT('',(6.28318530718,-0.));
#425 = VECTOR('',#426,1.);
#426 = DIRECTION('',(0.,1.));
#427 = ( GEOMETRIC_REPRESENTATION_CONTEXT(2) 
PARAMETRIC_REPRESENTATION_CONTEXT() REPRESENTATION_CONTEXT('2D SPACE',''
  ) );
#428 = PCURVE('',#244,#429);
#429 = DEFINITIONAL_REPRESENTATION('',(#430),#434);
#430 = LINE('',#431,#432);
#431 = CARTESIAN_POINT('',(0.,-0.));
#432 = VECTOR('',#433,1.);
#433 = DIRECTION('',(0.,1.));
#434 = ( GEOMETRIC_REPRESENTATION_CONTEXT(2) 
PARAMETRIC_REPRESENTATION_CONTEXT() REPRESENTATION_CONTEXT('2D SPACE',''
  ) );
#435 = ORIENTED_EDGE('',*,*,#436,.F.);
#436 = EDGE_CURVE('',#414,#414,#437,.T.);
#437 = SURFACE_CURVE('',#438,(#443,#450),.PCURVE_S1.);
#438 = CIRCLE('',#439,20.);
#439 = AXIS2_PLACEMENT_3D('',#440,#441,#442);
#440 = CARTESIAN_POINT('',(0.,0.,150.));
#441 = DIRECTION('',(0.,0.,1.));
#442 = DIRECTION('',(1.,0.,0.));
#443 = PCURVE('',#244,#444);
#444 = DEFINITIONAL_REPRESENTATION('',(#445),#449);
#445 = LINE('',#446,#447);
#446 = CARTESIAN_POINT('',(0.,30.));
#447 = VECTOR('',#448,1.);
#448 = DIRECTION('',(1.,0.));
#449 = ( GEOMETRIC_REPRESENTATION_CONTEXT(2) 
PARAMETRIC_REPRESENTATION_CONTEXT() REPRESENTATION_CONTEXT('2D SPACE',''
  ) );
#450 = PCURVE('',#451,#456);
#451 = PLANE('',#452);
#452 = AXIS2_PLACEMENT_3D('',#453,#454,#455);
#453 = CARTESIAN_POINT('',(0.,0.,150.));
#454 = DIRECTION('',(0.,0.,1.));
#455 = DIRECTION('',(1.,0.,0.));
#456 = DEFINITIONAL_REPRESENTATION('',(#457),#461);
#457 = CIRCLE('',#458,20.);
#458 = AXIS2_PLACEMENT_2D('',#459,#460);
#459 = CARTESIAN_POINT('',(0.,0.));
#460 = DIRECTION('',(1.,0.));
#461 = ( GEOMETRIC_REPRESENTATION_CONTEXT(2) 
PARAMETRIC_REPRESENTATION_CONTEXT() REPRESENTATION_CONTEXT('2D SPACE',''
  ) );
#462 = ORIENTED_EDGE('',*,*,#411,.F.);
#463 = ORIENTED_EDGE('',*,*,#464,.T.);
#464 = EDGE_CURVE('',#412,#412,#465,.T.);
#465 = SURFACE_CURVE('',#466,(#471,#478),.PCURVE_S1.);
#466 = CIRCLE('',#467,20.);
#467 = AXIS2_PLACEMENT_3D('',#468,#469,#470);
#468 = CARTESIAN_POINT('',(0.,0.,120.));
#469 = DIRECTION('',(0.,0.,1.));
#470 = DIRECTION('',(1.,0.,0.));
#471 = PCURVE('',#244,#472);
#472 = DEFINITIONAL_REPRESENTATION('',(#473),#477);
#473 = LINE('',#474,#475);
#474 = CARTESIAN_POINT('',(0.,0.));
#475 = VECTOR('',#476,1.);
#476 = DIRECTION('',(1.,0.));
#477 = ( GEOMETRIC_REPRESENTATION_CONTEXT(2) 
PARAMETRIC_REPRESENTATION_CONTEXT() REPRESENTATION_CONTEXT('2D SPACE',''
  ) );
#478 = PCURVE('',#479,#484);
#479 = PLANE('',#480);
#480 = AXIS2_PLACEMENT_3D('',#481,#482,#483);
#481 = CARTESIAN_POINT('',(0.,0.,120.));
#482 = DIRECTION('',(0.,0.,1.));
#483 = DIRECTION('',(1.,0.,0.));
#484 = DEFINITIONAL_REPRESENTATION('',(#485),#489);
#485 = CIRCLE('',#486,20.);
#486 = AXIS2_PLACEMENT_2D('',#487,#488);
#487 = CARTESIAN_POINT('',(0.,0.));
#488 = DIRECTION('',(1.,0.));
#489 = ( GEOMETRIC_REPRESENTATION_CONTEXT(2) 
PARAMETRIC_REPRESENTATION_CONTEXT() REPRESENTATION_CONTEXT('2D SPACE',''
  ) );
#490 = FACE_BOUND('',#491,.T.);
#491 = EDGE_LOOP('',(#492));
#492 = ORIENTED_EDGE('',*,*,#21,.T.);
#493 = ADVANCED_FACE('',(#494),#395,.F.);
#494 = FACE_BOUND('',#495,.T.);
#495 = EDGE_LOOP('',(#496));
#496 = ORIENTED_EDGE('',*,*,#380,.F.);
#497 = ADVANCED_FACE('',(#498,#529),#479,.T.);
#498 = FACE_BOUND('',#499,.T.);
#499 = EDGE_LOOP('',(#500));
#500 = ORIENTED_EDGE('',*,*,#501,.T.);
#501 = EDGE_CURVE('',#502,#502,#504,.T.);
#502 = VERTEX_POINT('',#503);
#503 = CARTESIAN_POINT('',(35.,-8.572527594031E-15,120.));
#504 = SURFACE_CURVE('',#505,(#510,#517),.PCURVE_S1.);
#505 = CIRCLE('',#506,35.);
#506 = AXIS2_PLACEMENT_3D('',#507,#508,#509);
#507 = CARTESIAN_POINT('',(0.,0.,120.));
#508 = DIRECTION('',(0.,0.,1.));
#509 = DIRECTION('',(1.,0.,0.));
#510 = PCURVE('',#479,#511);
#511 = DEFINITIONAL_REPRESENTATION('',(#512),#516);
#512 = CIRCLE('',#513,35.);
#513 = AXIS2_PLACEMENT_2D('',#514,#515);
#514 = CARTESIAN_POINT('',(0.,0.));
#515 = DIRECTION('',(1.,0.));
#516 = ( GEOMETRIC_REPRESENTATION_CONTEXT(2) 
PARAMETRIC_REPRESENTATION_CONTEXT() REPRESENTATION_CONTEXT('2D SPACE',''
  ) );
#517 = PCURVE('',#518,#523);
#518 = CYLINDRICAL_SURFACE('',#519,35.);
#519 = AXIS2_PLACEMENT_3D('',#520,#521,#522);
#520 = CARTESIAN_POINT('',(0.,0.,0.));
#521 = DIRECTION('',(0.,0.,1.));
#522 = DIRECTION('',(1.,0.,0.));
#523 = DEFINITIONAL_REPRESENTATION('',(#524),#528);
#524 = LINE('',#525,#526);
#525 = CARTESIAN_POINT('',(0.,120.));
#526 = VECTOR('',#527,1.);
#527 = DIRECTION('',(1.,0.));
#528 = ( GEOMETRIC_REPRESENTATION_CONTEXT(2) 
PARAMETRIC_REPRESENTATION_CONTEXT() REPRESENTATION_CONTEXT('2D SPACE',''
  ) );
#529 = FACE_BOUND('',#530,.T.);
#530 = EDGE_LOOP('',(#531));
#531 = ORIENTED_EDGE('',*,*,#464,.F.);
#532 = ADVANCED_FACE('',(#533,#536),#451,.T.);
#533 = FACE_BOUND('',#534,.T.);
#534 = EDGE_LOOP('',(#535));
#535 = ORIENTED_EDGE('',*,*,#436,.T.);
#536 = FACE_BOUND('',#537,.T.);
#537 = EDGE_LOOP('',(#538));
#538 = ORIENTED_EDGE('',*,*,#539,.F.);
#539 = EDGE_CURVE('',#540,#540,#542,.T.);
#540 = VERTEX_POINT('',#541);
#541 = CARTESIAN_POINT('',(15.,-3.673940397442E-15,150.));
#542 = SURFACE_CURVE('',#543,(#548,#555),.PCURVE_S1.);
#543 = CIRCLE('',#544,15.);
#544 = AXIS2_PLACEMENT_3D('',#545,#546,#547);
#545 = CARTESIAN_POINT('',(0.,0.,150.));
#546 = DIRECTION('',(0.,0.,1.));
#547 = DIRECTION('',(1.,0.,0.));
#548 = PCURVE('',#451,#549);
#549 = DEFINITIONAL_REPRESENTATION('',(#550),#554);
#550 = CIRCLE('',#551,15.);
#551 = AXIS2_PLACEMENT_2D('',#552,#553);
#552 = CARTESIAN_POINT('',(0.,0.));
#553 = DIRECTION('',(1.,0.));
#554 = ( GEOMETRIC_REPRESENTATION_CONTEXT(2) 
PARAMETRIC_REPRESENTATION_CONTEXT() REPRESENTATION_CONTEXT('2D SPACE',''
  ) );
#555 = PCURVE('',#556,#561);
#556 = CYLINDRICAL_SURFACE('',#557,15.);
#557 = AXIS2_PLACEMENT_3D('',#558,#559,#560);
#558 = CARTESIAN_POINT('',(0.,0.,150.));
#559 = DIRECTION('',(0.,0.,1.));
#560 = DIRECTION('',(1.,0.,0.));
#561 = DEFINITIONAL_REPRESENTATION('',(#562),#566);
#562 = LINE('',#563,#564);
#563 = CARTESIAN_POINT('',(0.,0.));
#564 = VECTOR('',#565,1.);
#565 = DIRECTION('',(1.,0.));
#566 = ( GEOMETRIC_REPRESENTATION_CONTEXT(2) 
PARAMETRIC_REPRESENTATION_CONTEXT() REPRESENTATION_CONTEXT('2D SPACE',''
  ) );
#567 = ADVANCED_FACE('',(#568),#518,.T.);
#568 = FACE_BOUND('',#569,.T.);
#569 = EDGE_LOOP('',(#570,#571,#594,#621));
#570 = ORIENTED_EDGE('',*,*,#501,.F.);
#571 = ORIENTED_EDGE('',*,*,#572,.F.);
#572 = EDGE_CURVE('',#573,#502,#575,.T.);
#573 = VERTEX_POINT('',#574);
#574 = CARTESIAN_POINT('',(35.,-8.572527594031E-15,0.));
#575 = SEAM_CURVE('',#576,(#580,#587),.PCURVE_S1.);
#576 = LINE('',#577,#578);
#577 = CARTESIAN_POINT('',(35.,-8.572527594031E-15,0.));
#578 = VECTOR('',#579,1.);
#579 = DIRECTION('',(0.,0.,1.));
#580 = PCURVE('',#518,#581);
#581 = DEFINITIONAL_REPRESENTATION('',(#582),#586);
#582 = LINE('',#583,#584);
#583 = CARTESIAN_POINT('',(6.28318530718,-0.));
#584 = VECTOR('',#585,1.);
#585 = DIRECTION('',(0.,1.));
#586 = ( GEOMETRIC_REPRESENTATION_CONTEXT(2) 
PARAMETRIC_REPRESENTATION_CONTEXT() REPRESENTATION_CONTEXT('2D SPACE',''
  ) );
#587 = PCURVE('',#518,#588);
#588 = DEFINITIONAL_REPRESENTATION('',(#589),#593);
#589 = LINE('',#590,#591);
#590 = CARTESIAN_POINT('',(0.,-0.));
#591 = VECTOR('',#592,1.);
#592 = DIRECTION('',(0.,1.));
#593 = ( GEOMETRIC_REPRESENTATION_CONTEXT(2) 
PARAMETRIC_REPRESENTATION_CONTEXT() REPRESENTATION_CONTEXT('2D SPACE',''
  ) );
#594 = ORIENTED_EDGE('',*,*,#595,.T.);
#595 = EDGE_CURVE('',#573,#573,#596,.T.);
#596 = SURFACE_CURVE('',#597,(#602,#609),.PCURVE_S1.);
#597 = CIRCLE('',#598,35.);
#598 = AXIS2_PLACEMENT_3D('',#599,#600,#601);
#599 = CARTESIAN_POINT('',(0.,0.,0.));
#600 = DIRECTION('',(0.,0.,1.));
#601 = DIRECTION('',(1.,0.,0.));
#602 = PCURVE('',#518,#603);
#603 = DEFINITIONAL_REPRESENTATION('',(#604),#608);
#604 = LINE('',#605,#606);
#605 = CARTESIAN_POINT('',(0.,0.));
#606 = VECTOR('',#607,1.);
#607 = DIRECTION('',(1.,0.));
#608 = ( GEOMETRIC_REPRESENTATION_CONTEXT(2) 
PARAMETRIC_REPRESENTATION_CONTEXT() REPRESENTATION_CONTEXT('2D SPACE',''
  ) );
#609 = PCURVE('',#610,#615);
#610 = PLANE('',#611);
#611 = AXIS2_PLACEMENT_3D('',#612,#613,#614);
#612 = CARTESIAN_POINT('',(0.,0.,0.));
#613 = DIRECTION('',(0.,0.,1.));
#614 = DIRECTION('',(1.,0.,0.));
#615 = DEFINITIONAL_REPRESENTATION('',(#616),#620);
#616 = CIRCLE('',#617,35.);
#617 = AXIS2_PLACEMENT_2D('',#618,#619);
#618 = CARTESIAN_POINT('',(0.,0.));
#619 = DIRECTION('',(1.,0.));
#620 = ( GEOMETRIC_REPRESENTATION_CONTEXT(2) 
PARAMETRIC_REPRESENTATION_CONTEXT() REPRESENTATION_CONTEXT('2D SPACE',''
  ) );
#621 = ORIENTED_EDGE('',*,*,#572,.T.);
#622 = ADVANCED_FACE('',(#623),#556,.T.);
#623 = FACE_BOUND('',#624,.T.);
#624 = EDGE_LOOP('',(#625,#654,#675,#676));
#625 = ORIENTED_EDGE('',*,*,#626,.F.);
#626 = EDGE_CURVE('',#627,#627,#629,.T.);
#627 = VERTEX_POINT('',#628);
#628 = CARTESIAN_POINT('',(15.,-3.673940397442E-15,155.));
#629 = SURFACE_CURVE('',#630,(#635,#642),.PCURVE_S1.);
#630 = CIRCLE('',#631,15.);
#631 = AXIS2_PLACEMENT_3D('',#632,#633,#634);
#632 = CARTESIAN_POINT('',(0.,0.,155.));
#633 = DIRECTION('',(0.,0.,1.));
#634 = DIRECTION('',(1.,0.,0.));
#635 = PCURVE('',#556,#636);
#636 = DEFINITIONAL_REPRESENTATION('',(#637),#641);
#637 = LINE('',#638,#639);
#638 = CARTESIAN_POINT('',(0.,5.));
#639 = VECTOR('',#640,1.);
#640 = DIRECTION('',(1.,0.));
#641 = ( GEOMETRIC_REPRESENTATION_CONTEXT(2) 
PARAMETRIC_REPRESENTATION_CONTEXT() REPRESENTATION_CONTEXT('2D SPACE',''
  ) );
#642 = PCURVE('',#643,#648);
#643 = PLANE('',#644);
#644 = AXIS2_PLACEMENT_3D('',#645,#646,#647);
#645 = CARTESIAN_POINT('',(0.,0.,155.));
#646 = DIRECTION('',(0.,0.,1.));
#647 = DIRECTION('',(1.,0.,0.));
#648 = DEFINITIONAL_REPRESENTATION('',(#649),#653);
#649 = CIRCLE('',#650,15.);
#650 = AXIS2_PLACEMENT_2D('',#651,#652);
#651 = CARTESIAN_POINT('',(0.,0.));
#652 = DIRECTION('',(1.,0.));
#653 = ( GEOMETRIC_REPRESENTATION_CONTEXT(2) 
PARAMETRIC_REPRESENTATION_CONTEXT() REPRESENTATION_CONTEXT('2D SPACE',''
  ) );
#654 = ORIENTED_EDGE('',*,*,#655,.F.);
#655 = EDGE_CURVE('',#540,#627,#656,.T.);
#656 = SEAM_CURVE('',#657,(#661,#668),.PCURVE_S1.);
#657 = LINE('',#658,#659);
#658 = CARTESIAN_POINT('',(15.,-3.673940397442E-15,150.));
#659 = VECTOR('',#660,1.);
#660 = DIRECTION('',(0.,0.,1.));
#661 = PCURVE('',#556,#662);
#662 = DEFINITIONAL_REPRESENTATION('',(#663),#667);
#663 = LINE('',#664,#665);
#664 = CARTESIAN_POINT('',(6.28318530718,-0.));
#665 = VECTOR('',#666,1.);
#666 = DIRECTION('',(0.,1.));
#667 = ( GEOMETRIC_REPRESENTATION_CONTEXT(2) 
PARAMETRIC_REPRESENTATION_CONTEXT() REPRESENTATION_CONTEXT('2D SPACE',''
  ) );
#668 = PCURVE('',#556,#669);
#669 = DEFINITIONAL_REPRESENTATION('',(#670),#674);
#670 = LINE('',#671,#672);
#671 = CARTESIAN_POINT('',(0.,-0.));
#672 = VECTOR('',#673,1.);
#673 = DIRECTION('',(0.,1.));
#674 = ( GEOMETRIC_REPRESENTATION_CONTEXT(2) 
PARAMETRIC_REPRESENTATION_CONTEXT() REPRESENTATION_CONTEXT('2D SPACE',''
  ) );
#675 = ORIENTED_EDGE('',*,*,#539,.T.);
#676 = ORIENTED_EDGE('',*,*,#655,.T.);
#677 = ADVANCED_FACE('',(#678),#610,.F.);
#678 = FACE_BOUND('',#679,.T.);
#679 = EDGE_LOOP('',(#680));
#680 = ORIENTED_EDGE('',*,*,#595,.F.);
#681 = ADVANCED_FACE('',(#682),#643,.T.);
#682 = FACE_BOUND('',#683,.T.);
#683 = EDGE_LOOP('',(#684));
#684 = ORIENTED_EDGE('',*,*,#626,.T.);
#685 = ( GEOMETRIC_REPRESENTATION_CONTEXT(3) 
GLOBAL_UNCERTAINTY_ASSIGNED_CONTEXT((#689)) GLOBAL_UNIT_ASSIGNED_CONTEXT
((#686,#687,#688)) REPRESENTATION_CONTEXT('Context #1',
  '3D Context with UNIT and UNCERTAINTY') );
#686 = ( LENGTH_UNIT() NAMED_UNIT(*) SI_UNIT(.MILLI.,.METRE.) );
#687 = ( NAMED_UNIT(*) PLANE_ANGLE_UNIT() SI_UNIT($,.RADIAN.) );
#688 = ( NAMED_UNIT(*) SI_UNIT($,.STERADIAN.) SOLID_ANGLE_UNIT() );
#689 = UNCERTAINTY_MEASURE_WITH_UNIT(LENGTH_MEASURE(1.E-07),#686,
  'distance_accuracy_value','confusion accuracy');
#690 = PRODUCT_RELATED_PRODUCT_CATEGORY('part',$,(#7));
ENDSEC;
END-ISO-10303-21;
