ISO-10303-21;
HEADER;
FILE_DESCRIPTION(('Open CASCADE Model'),'2;1');
FILE_NAME('Open CASCADE Shape Model','2026-03-26T16:34:47',('Author'),(
    'Open CASCADE'),'Open CASCADE STEP processor 7.8','Open CASCADE 7.8'
  ,'Unknown');
FILE_SCHEMA(('AUTOMOTIVE_DESIGN { 1 0 10303 214 1 1 1 1 }'));
ENDSEC;
DATA;
#1 = APPLICATION_PROTOCOL_DEFINITION('international standard',
  'automotive_design',2000,#2);
#2 = APPLICATION_CONTEXT(
  'core data for automotive mechanical design processes');
#3 = SHAPE_DEFINITION_REPRESENTATION(#4,#10);
#4 = PRODUCT_DEFINITION_SHAPE('','',#5);
#5 = PRODUCT_DEFINITION('design','',#6,#9);
#6 = PRODUCT_DEFINITION_FORMATION('','',#7);
#7 = PRODUCT('Open CASCADE STEP translator 7.8 1',
  'Open CASCADE STEP translator 7.8 1','',(#8));
#8 = PRODUCT_CONTEXT('',#2,'mechanical');
#9 = PRODUCT_DEFINITION_CONTEXT('part definition',#2,'design');
#10 = ADVANCED_BREP_SHAPE_REPRESENTATION('',(#11,#15),#841);
#11 = AXIS2_PLACEMENT_3D('',#12,#13,#14);
#12 = CARTESIAN_POINT('',(0.,0.,0.));
#13 = DIRECTION('',(0.,0.,1.));
#14 = DIRECTION('',(1.,0.,-0.));
#15 = MANIFOLD_SOLID_BREP('',#16);
#16 = CLOSED_SHELL('',(#17,#594,#629,#633,#688,#743,#778,#782,#837));
#17 = ADVANCED_FACE('',(#18,#105),#32,.T.);
#18 = FACE_BOUND('',#19,.T.);
#19 = EDGE_LOOP('',(#20,#50,#77,#78));
#20 = ORIENTED_EDGE('',*,*,#21,.T.);
#21 = EDGE_CURVE('',#22,#24,#26,.T.);
#22 = VERTEX_POINT('',#23);
#23 = CARTESIAN_POINT('',(35.,-8.572527594031E-15,65.));
#24 = VERTEX_POINT('',#25);
#25 = CARTESIAN_POINT('',(31.6,-7.739767770611E-15,195.));
#26 = SEAM_CURVE('',#27,(#31,#43),.PCURVE_S1.);
#27 = LINE('',#28,#29);
#28 = CARTESIAN_POINT('',(35.,-8.572527594031E-15,65.));
#29 = VECTOR('',#30,1.);
#30 = DIRECTION('',(-2.614490581524E-02,6.403655044128E-18,
    0.999658163524));
#31 = PCURVE('',#32,#37);
#32 = CONICAL_SURFACE('',#33,35.,2.61478853168E-02);
#33 = AXIS2_PLACEMENT_3D('',#34,#35,#36);
#34 = CARTESIAN_POINT('',(0.,0.,65.));
#35 = DIRECTION('',(-0.,-0.,-1.));
#36 = DIRECTION('',(1.,0.,-0.));
#37 = DEFINITIONAL_REPRESENTATION('',(#38),#42);
#38 = LINE('',#39,#40);
#39 = CARTESIAN_POINT('',(-6.28318530718,0.));
#40 = VECTOR('',#41,1.);
#41 = DIRECTION('',(-0.,-1.));
#42 = ( GEOMETRIC_REPRESENTATION_CONTEXT(2) 
PARAMETRIC_REPRESENTATION_CONTEXT() REPRESENTATION_CONTEXT('2D SPACE',''
  ) );
#43 = PCURVE('',#32,#44);
#44 = DEFINITIONAL_REPRESENTATION('',(#45),#49);
#45 = LINE('',#46,#47);
#46 = CARTESIAN_POINT('',(0.,-0.));
#47 = VECTOR('',#48,1.);
#48 = DIRECTION('',(-0.,-1.));
#49 = ( GEOMETRIC_REPRESENTATION_CONTEXT(2) 
PARAMETRIC_REPRESENTATION_CONTEXT() REPRESENTATION_CONTEXT('2D SPACE',''
  ) );
#50 = ORIENTED_EDGE('',*,*,#51,.F.);
#51 = EDGE_CURVE('',#24,#24,#52,.T.);
#52 = SURFACE_CURVE('',#53,(#58,#65),.PCURVE_S1.);
#53 = CIRCLE('',#54,31.6);
#54 = AXIS2_PLACEMENT_3D('',#55,#56,#57);
#55 = CARTESIAN_POINT('',(0.,0.,195.));
#56 = DIRECTION('',(0.,0.,1.));
#57 = DIRECTION('',(1.,0.,-0.));
#58 = PCURVE('',#32,#59);
#59 = DEFINITIONAL_REPRESENTATION('',(#60),#64);
#60 = LINE('',#61,#62);
#61 = CARTESIAN_POINT('',(-0.,-130.));
#62 = VECTOR('',#63,1.);
#63 = DIRECTION('',(-1.,-0.));
#64 = ( GEOMETRIC_REPRESENTATION_CONTEXT(2) 
PARAMETRIC_REPRESENTATION_CONTEXT() REPRESENTATION_CONTEXT('2D SPACE',''
  ) );
#65 = PCURVE('',#66,#71);
#66 = PLANE('',#67);
#67 = AXIS2_PLACEMENT_3D('',#68,#69,#70);
#68 = CARTESIAN_POINT('',(0.,0.,195.));
#69 = DIRECTION('',(0.,0.,1.));
#70 = DIRECTION('',(1.,0.,-0.));
#71 = DEFINITIONAL_REPRESENTATION('',(#72),#76);
#72 = CIRCLE('',#73,31.6);
#73 = AXIS2_PLACEMENT_2D('',#74,#75);
#74 = CARTESIAN_POINT('',(0.,0.));
#75 = DIRECTION('',(1.,0.));
#76 = ( GEOMETRIC_REPRESENTATION_CONTEXT(2) 
PARAMETRIC_REPRESENTATION_CONTEXT() REPRESENTATION_CONTEXT('2D SPACE',''
  ) );
#77 = ORIENTED_EDGE('',*,*,#21,.F.);
#78 = ORIENTED_EDGE('',*,*,#79,.T.);
#79 = EDGE_CURVE('',#22,#22,#80,.T.);
#80 = SURFACE_CURVE('',#81,(#86,#93),.PCURVE_S1.);
#81 = CIRCLE('',#82,35.);
#82 = AXIS2_PLACEMENT_3D('',#83,#84,#85);
#83 = CARTESIAN_POINT('',(0.,0.,65.));
#84 = DIRECTION('',(0.,0.,1.));
#85 = DIRECTION('',(1.,0.,-0.));
#86 = PCURVE('',#32,#87);
#87 = DEFINITIONAL_REPRESENTATION('',(#88),#92);
#88 = LINE('',#89,#90);
#89 = CARTESIAN_POINT('',(-0.,-0.));
#90 = VECTOR('',#91,1.);
#91 = DIRECTION('',(-1.,-0.));
#92 = ( GEOMETRIC_REPRESENTATION_CONTEXT(2) 
PARAMETRIC_REPRESENTATION_CONTEXT() REPRESENTATION_CONTEXT('2D SPACE',''
  ) );
#93 = PCURVE('',#94,#99);
#94 = PLANE('',#95);
#95 = AXIS2_PLACEMENT_3D('',#96,#97,#98);
#96 = CARTESIAN_POINT('',(0.,0.,65.));
#97 = DIRECTION('',(0.,0.,1.));
#98 = DIRECTION('',(1.,0.,-0.));
#99 = DEFINITIONAL_REPRESENTATION('',(#100),#104);
#100 = CIRCLE('',#101,35.);
#101 = AXIS2_PLACEMENT_2D('',#102,#103);
#102 = CARTESIAN_POINT('',(0.,0.));
#103 = DIRECTION('',(1.,0.));
#104 = ( GEOMETRIC_REPRESENTATION_CONTEXT(2) 
PARAMETRIC_REPRESENTATION_CONTEXT() REPRESENTATION_CONTEXT('2D SPACE',''
  ) );
#105 = FACE_BOUND('',#106,.T.);
#106 = EDGE_LOOP('',(#107));
#107 = ORIENTED_EDGE('',*,*,#108,.T.);
#108 = EDGE_CURVE('',#109,#109,#111,.T.);
#109 = VERTEX_POINT('',#110);
#110 = CARTESIAN_POINT('',(5.,32.102182417654,161.));
#111 = SURFACE_CURVE('',#112,(#269,#429),.PCURVE_S1.);
#112 = B_SPLINE_CURVE_WITH_KNOTS('',8,(#113,#114,#115,#116,#117,#118,
    #119,#120,#121,#122,#123,#124,#125,#126,#127,#128,#129,#130,#131,
    #132,#133,#134,#135,#136,#137,#138,#139,#140,#141,#142,#143,#144,
    #145,#146,#147,#148,#149,#150,#151,#152,#153,#154,#155,#156,#157,
    #158,#159,#160,#161,#162,#163,#164,#165,#166,#167,#168,#169,#170,
    #171,#172,#173,#174,#175,#176,#177,#178,#179,#180,#181,#182,#183,
    #184,#185,#186,#187,#188,#189,#190,#191,#192,#193,#194,#195,#196,
    #197,#198,#199,#200,#201,#202,#203,#204,#205,#206,#207,#208,#209,
    #210,#211,#212,#213,#214,#215,#216,#217,#218,#219,#220,#221,#222,
    #223,#224,#225,#226,#227,#228,#229,#230,#231,#232,#233,#234,#235,
    #236,#237,#238,#239,#240,#241,#242,#243,#244,#245,#246,#247,#248,
    #249,#250,#251,#252,#253,#254,#255,#256,#257,#258,#259,#260,#261,
    #262,#263,#264,#265,#266,#267,#268),.UNSPECIFIED.,.T.,.F.,(9,7,7,7,7
    ,7,7,7,7,7,7,7,7,7,7,7,7,7,7,7,7,7,9),(0.,7.004664296076E-02,
    0.13091564754,0.171711091978,0.202119436953,0.249505316548,
    0.297305791462,0.327714406102,0.368510212318,0.401778652664,
    0.428255146103,0.501167606762,0.573503308968,0.599974635913,
    0.632704379121,0.672995950286,0.702939918262,0.749475075904,
    0.796424836932,0.826369068171,0.866660993572,0.982574235714,1.),
  .UNSPECIFIED.);
#113 = CARTESIAN_POINT('',(5.,32.102182417654,161.));
#114 = CARTESIAN_POINT('',(5.,32.095886608053,161.23785437834));
#115 = CARTESIAN_POINT('',(4.987068537254,32.091604257822,
    161.47573135616));
#116 = CARTESIAN_POINT('',(4.961201710344,32.089348202324,
    161.71323149857));
#117 = CARTESIAN_POINT('',(4.922329134775,32.089112505121,
    161.94992105299));
#118 = CARTESIAN_POINT('',(4.870330725241,32.090869881376,162.1853333139
    ));
#119 = CARTESIAN_POINT('',(4.805040241564,32.094569569546,
    162.41896820956));
#120 = CARTESIAN_POINT('',(4.726235598306,32.100135651386,
    162.65029011035));
#121 = CARTESIAN_POINT('',(4.553131473889,32.113835577047,
    163.07722780317));
#122 = CARTESIAN_POINT('',(4.462233906916,32.121535907611,
    163.27350324749));
#123 = CARTESIAN_POINT('',(4.360727388894,32.130499146534,163.4671929354
    ));
#124 = CARTESIAN_POINT('',(4.248386247418,32.140641480296,163.657857532)
  );
#125 = CARTESIAN_POINT('',(4.124969604424,32.151858867177,
    163.84498028731));
#126 = CARTESIAN_POINT('',(3.99022560713,32.164023851549,164.02796786144
    ));
#127 = CARTESIAN_POINT('',(3.843885271406,32.176983272538,
    164.20614731193));
#128 = CARTESIAN_POINT('',(3.57959123868,32.199654121468,164.49444670172
    ));
#129 = CARTESIAN_POINT('',(3.468210890651,32.209025470982,
    164.60761210614));
#130 = CARTESIAN_POINT('',(3.351419663358,32.218616597442,
    164.71802510378));
#131 = CARTESIAN_POINT('',(3.229144936112,32.228365433655,
    164.82541761783));
#132 = CARTESIAN_POINT('',(3.101331405159,32.238202316358,
    164.92948655604));
#133 = CARTESIAN_POINT('',(2.967945791193,32.248050139186,
    165.02989651942));
#134 = CARTESIAN_POINT('',(2.828981546858,32.257824505641,
    165.12628251096));
#135 = CARTESIAN_POINT('',(2.57674191223,32.274596574798,165.28680587589
    ));
#136 = CARTESIAN_POINT('',(2.465942453242,32.281667075534,
    165.35290043349));
#137 = CARTESIAN_POINT('',(2.352081889003,32.288607526592,
    165.41637185483));
#138 = CARTESIAN_POINT('',(2.235195130552,32.295377242047,
    165.47704210489));
#139 = CARTESIAN_POINT('',(2.115338728806,32.301933474974,
    165.53472314863));
#140 = CARTESIAN_POINT('',(1.992594305109,32.30823218468,165.58922052375
    ));
#141 = CARTESIAN_POINT('',(1.867071981779,32.31422880394,165.64033691332
    ));
#142 = CARTESIAN_POINT('',(1.539202596022,32.328683819709,
    165.76195630724));
#143 = CARTESIAN_POINT('',(1.332972476826,32.336652747014,165.8273940745
    ));
#144 = CARTESIAN_POINT('',(1.120906069926,32.343610413763,165.8833693501
    ));
#145 = CARTESIAN_POINT('',(0.903833590205,32.349390857249,
    165.92914166364));
#146 = CARTESIAN_POINT('',(0.682741914998,32.353849971268,
    165.96407207234));
#147 = CARTESIAN_POINT('',(0.458788386086,32.356878425063,
    165.98766618635));
#148 = CARTESIAN_POINT('',(0.233319351282,32.358415056381,
    165.99963789148));
#149 = CARTESIAN_POINT('',(-0.219504788676,32.358506820634,
    166.00035276091));
#150 = CARTESIAN_POINT('',(-0.447024330326,32.357035786191,
    165.98889202071));
#151 = CARTESIAN_POINT('',(-0.673060912584,32.354044109084,
    165.96559248812));
#152 = CARTESIAN_POINT('',(-0.896228318023,32.349592773146,
    165.93074006018));
#153 = CARTESIAN_POINT('',(-1.115334512221,32.343792960359,
    165.88483764092));
#154 = CARTESIAN_POINT('',(-1.329362662343,32.336792171202,
    165.82853890861));
#155 = CARTESIAN_POINT('',(-1.537457040606,32.328760777278,
    165.76260380103));
#156 = CARTESIAN_POINT('',(-1.867071981779,32.31422880394,
    165.64033691332));
#157 = CARTESIAN_POINT('',(-1.992594305108,32.30823218468,
    165.58922052375));
#158 = CARTESIAN_POINT('',(-2.115338728806,32.301933474974,
    165.53472314863));
#159 = CARTESIAN_POINT('',(-2.235195130552,32.295377242047,
    165.47704210489));
#160 = CARTESIAN_POINT('',(-2.352081889003,32.288607526592,
    165.41637185483));
#161 = CARTESIAN_POINT('',(-2.465942453242,32.281667075534,
    165.35290043349));
#162 = CARTESIAN_POINT('',(-2.57674191223,32.274596574798,
    165.28680587589));
#163 = CARTESIAN_POINT('',(-2.828981546858,32.257824505641,
    165.12628251096));
#164 = CARTESIAN_POINT('',(-2.967945791193,32.248050139186,
    165.02989651942));
#165 = CARTESIAN_POINT('',(-3.101331405159,32.238202316358,
    164.92948655604));
#166 = CARTESIAN_POINT('',(-3.229144936112,32.228365433655,
    164.82541761783));
#167 = CARTESIAN_POINT('',(-3.351419663358,32.218616597442,
    164.71802510378));
#168 = CARTESIAN_POINT('',(-3.468210890651,32.209025470982,
    164.60761210614));
#169 = CARTESIAN_POINT('',(-3.57959123868,32.199654121468,
    164.49444670172));
#170 = CARTESIAN_POINT('',(-3.772132141666,32.183138176407,
    164.28441765086));
#171 = CARTESIAN_POINT('',(-3.855070580413,32.175902365815,
    164.1884056037));
#172 = CARTESIAN_POINT('',(-3.934505078777,32.168879342454,
    164.09085163261));
#173 = CARTESIAN_POINT('',(-4.010479274655,32.162096363205,
    163.99187540033));
#174 = CARTESIAN_POINT('',(-4.083036508717,32.155578175814,
    163.89158769878));
#175 = CARTESIAN_POINT('',(-4.152219714261,32.149347160054,
    163.79009044649));
#176 = CARTESIAN_POINT('',(-4.218071307068,32.143423468891,
    163.68747668609));
#177 = CARTESIAN_POINT('',(-4.330422492125,32.133369795977,
    163.50134443647));
#178 = CARTESIAN_POINT('',(-4.378127342349,32.129120637609,
    163.41820596647));
#179 = CARTESIAN_POINT('',(-4.423768122672,32.125086774796,
    163.33445830486));
#180 = CARTESIAN_POINT('',(-4.467364352428,32.121276603887,
    163.25014250752));
#181 = CARTESIAN_POINT('',(-4.508934573542,32.117697837326,
    163.1652975531));
#182 = CARTESIAN_POINT('',(-4.548496350531,32.114357503655,
    163.07996034299));
#183 = CARTESIAN_POINT('',(-4.586066270501,32.111261947508,
    162.99416570132));
#184 = CARTESIAN_POINT('',(-4.71967980604,32.100581783532,
    162.67051073221));
#185 = CARTESIAN_POINT('',(-4.8026991635,32.094647367882,162.42988775095
    ));
#186 = CARTESIAN_POINT('',(-4.871066073969,32.090731205252,
    162.18672691103));
#187 = CARTESIAN_POINT('',(-4.925032718718,32.088920021459,
    161.94163269789));
#188 = CARTESIAN_POINT('',(-4.96478514783,32.089271018738,
    161.69516924082));
#189 = CARTESIAN_POINT('',(-4.990456074685,32.091813814205,
    161.4478629246));
#190 = CARTESIAN_POINT('',(-5.002120718963,32.096552943606,
    161.20020297456));
#191 = CARTESIAN_POINT('',(-4.997449227124,32.110334193807,
    160.70703534925));
#192 = CARTESIAN_POINT('',(-4.981334410167,32.119340297009,
    160.46158629841));
#193 = CARTESIAN_POINT('',(-4.95144096075,32.130470385911,
    160.21673225934));
#194 = CARTESIAN_POINT('',(-4.907702788163,32.143682208444,
    159.97294975584));
#195 = CARTESIAN_POINT('',(-4.849997712186,32.158907585989,
    159.73075076379));
#196 = CARTESIAN_POINT('',(-4.778150492247,32.176050307153,
    159.49068323305));
#197 = CARTESIAN_POINT('',(-4.691919171043,32.194984443846,
    159.25333380598));
#198 = CARTESIAN_POINT('',(-4.554020348843,32.223080207387,
    158.9336997918));
#199 = CARTESIAN_POINT('',(-4.515106043367,32.230825799164,
    158.84851964291));
#200 = CARTESIAN_POINT('',(-4.474206299385,32.238782054502,
    158.76382480456));
#201 = CARTESIAN_POINT('',(-4.431304568289,32.246940390363,
    158.67964990756));
#202 = CARTESIAN_POINT('',(-4.386383269699,32.255291451142,
    158.59603169505));
#203 = CARTESIAN_POINT('',(-4.339423791467,32.263825108669,
    158.51300902252));
#204 = CARTESIAN_POINT('',(-4.290406489671,32.272530462205,
    158.43062285777));
#205 = CARTESIAN_POINT('',(-4.176134692534,32.292357188754,
    158.24789243416));
#206 = CARTESIAN_POINT('',(-4.109782625337,32.303562858999,
    158.14790985627));
#207 = CARTESIAN_POINT('',(-4.040214266666,32.314990812063,
    158.0490486492));
#208 = CARTESIAN_POINT('',(-3.967388770613,32.326616655311,
    157.9513974396));
#209 = CARTESIAN_POINT('',(-3.891264744923,32.338413514664,
    157.85505337972));
#210 = CARTESIAN_POINT('',(-3.811800330196,32.35035190867,
    157.76012214823));
#211 = CARTESIAN_POINT('',(-3.728953279086,32.362399622572,
    157.66671795108));
#212 = CARTESIAN_POINT('',(-3.536476589607,32.389444180569,
    157.46201029582));
#213 = CARTESIAN_POINT('',(-3.42509066348,32.404477878586,
    157.35156719388));
#214 = CARTESIAN_POINT('',(-3.308439326802,32.419558401791,
    157.24385656948));
#215 = CARTESIAN_POINT('',(-3.18645105927,32.434612276526,
    157.13913770705));
#216 = CARTESIAN_POINT('',(-3.059071308395,32.44955713161,
    157.03770416515));
#217 = CARTESIAN_POINT('',(-2.926267047303,32.464301999835,
    156.93988111918));
#218 = CARTESIAN_POINT('',(-2.788031332521,32.478747619452,
    156.8460227041));
#219 = CARTESIAN_POINT('',(-2.537634628704,32.503220353273,
    156.68998465431));
#220 = CARTESIAN_POINT('',(-2.427902390692,32.513428675424,
    156.62586489855));
#221 = CARTESIAN_POINT('',(-2.315207190054,32.52336760173,
    156.56430834277));
#222 = CARTESIAN_POINT('',(-2.19958281642,32.532989727207,
    156.50548636479));
#223 = CARTESIAN_POINT('',(-2.081084128034,32.542245247014,
    156.44958000019));
#224 = CARTESIAN_POINT('',(-1.959790373038,32.551082861184,
    156.39677647518));
#225 = CARTESIAN_POINT('',(-1.835808510766,32.559450679363,
    156.34726573957));
#226 = CARTESIAN_POINT('',(-1.51263641053,32.579491087629,
    156.22970490771));
#227 = CARTESIAN_POINT('',(-1.309724015201,32.590433061202,
    156.16654016006));
#228 = CARTESIAN_POINT('',(-1.10119711496,32.599918526984,
    156.11252422775));
#229 = CARTESIAN_POINT('',(-0.887854977876,32.607756045229,
    156.0683635356));
#230 = CARTESIAN_POINT('',(-0.67064726193,32.613779777106,
    156.03466752863));
#231 = CARTESIAN_POINT('',(-0.450687322326,32.617863507972,
    156.0119074336));
#232 = CARTESIAN_POINT('',(-0.229269936323,32.619936172551,
    156.00035571574));
#233 = CARTESIAN_POINT('',(0.215455391354,32.620062150176,
    155.99965363183));
#234 = CARTESIAN_POINT('',(0.438921675673,32.618079535422,156.010703529)
  );
#235 = CARTESIAN_POINT('',(0.660962395988,32.614046784109,
    156.03317416706));
#236 = CARTESIAN_POINT('',(0.880243735748,32.608034780571,
    156.06679330789));
#237 = CARTESIAN_POINT('',(1.095618363054,32.600171920002,
    156.11108146848));
#238 = CARTESIAN_POINT('',(1.306107274974,32.590627998625,
    156.16541488878));
#239 = CARTESIAN_POINT('',(1.510886196339,32.579599621153,
    156.22906822949));
#240 = CARTESIAN_POINT('',(1.835808510766,32.559450679363,
    156.34726573958));
#241 = CARTESIAN_POINT('',(1.959790373038,32.551082861184,
    156.39677647518));
#242 = CARTESIAN_POINT('',(2.081084128034,32.542245247014,
    156.44958000019));
#243 = CARTESIAN_POINT('',(2.199582816421,32.532989727207,
    156.50548636479));
#244 = CARTESIAN_POINT('',(2.315207190055,32.52336760173,156.56430834277
    ));
#245 = CARTESIAN_POINT('',(2.427902390693,32.513428675424,
    156.62586489855));
#246 = CARTESIAN_POINT('',(2.537634628705,32.503220353273,
    156.68998465431));
#247 = CARTESIAN_POINT('',(2.788031332522,32.478747619452,156.8460227041
    ));
#248 = CARTESIAN_POINT('',(2.926267047303,32.464301999835,
    156.93988111918));
#249 = CARTESIAN_POINT('',(3.059071308396,32.44955713161,157.03770416515
    ));
#250 = CARTESIAN_POINT('',(3.18645105927,32.434612276525,157.13913770705
    ));
#251 = CARTESIAN_POINT('',(3.308439326803,32.419558401791,
    157.24385656948));
#252 = CARTESIAN_POINT('',(3.425090663481,32.404477878585,
    157.35156719388));
#253 = CARTESIAN_POINT('',(3.536476589607,32.389444180569,
    157.46201029582));
#254 = CARTESIAN_POINT('',(3.948213757785,32.331591721893,
    157.89991137626));
#255 = CARTESIAN_POINT('',(4.210326990106,32.289657877554,
    158.24506151605));
#256 = CARTESIAN_POINT('',(4.431860711848,32.250170181763,
    158.60561950754));
#257 = CARTESIAN_POINT('',(4.614322854728,32.214224569082,
    158.97777307986));
#258 = CARTESIAN_POINT('',(4.759183967871,32.182622681384,
    159.35827927721));
#259 = CARTESIAN_POINT('',(4.867548457765,32.15589033855,159.74455485675
    ));
#260 = CARTESIAN_POINT('',(4.940296509745,32.134348275429,
    160.13459917837));
#261 = CARTESIAN_POINT('',(4.983192373571,32.115750744927,
    160.58610753715));
#262 = CARTESIAN_POINT('',(4.987995863118,32.113442239332,
    160.64515790802));
#263 = CARTESIAN_POINT('',(4.991997768637,32.111256335293,
    160.70424526542));
#264 = CARTESIAN_POINT('',(4.995198768825,32.109193589251,
    160.76336282168));
#265 = CARTESIAN_POINT('',(4.997599334088,32.107254474899,
    160.82250380964));
#266 = CARTESIAN_POINT('',(4.999199726539,32.105439383178,
    160.88166148265));
#267 = CARTESIAN_POINT('',(5.,32.103748622282,160.94082911463));
#268 = CARTESIAN_POINT('',(5.,32.102182417654,161.));
#269 = PCURVE('',#32,#270);
#270 = DEFINITIONAL_REPRESENTATION('',(#271),#428);
#271 = B_SPLINE_CURVE_WITH_KNOTS('',8,(#272,#273,#274,#275,#276,#277,
    #278,#279,#280,#281,#282,#283,#284,#285,#286,#287,#288,#289,#290,
    #291,#292,#293,#294,#295,#296,#297,#298,#299,#300,#301,#302,#303,
    #304,#305,#306,#307,#308,#309,#310,#311,#312,#313,#314,#315,#316,
    #317,#318,#319,#320,#321,#322,#323,#324,#325,#326,#327,#328,#329,
    #330,#331,#332,#333,#334,#335,#336,#337,#338,#339,#340,#341,#342,
    #343,#344,#345,#346,#347,#348,#349,#350,#351,#352,#353,#354,#355,
    #356,#357,#358,#359,#360,#361,#362,#363,#364,#365,#366,#367,#368,
    #369,#370,#371,#372,#373,#374,#375,#376,#377,#378,#379,#380,#381,
    #382,#383,#384,#385,#386,#387,#388,#389,#390,#391,#392,#393,#394,
    #395,#396,#397,#398,#399,#400,#401,#402,#403,#404,#405,#406,#407,
    #408,#409,#410,#411,#412,#413,#414,#415,#416,#417,#418,#419,#420,
    #421,#422,#423,#424,#425,#426,#427),.UNSPECIFIED.,.T.,.F.,(9,7,7,7,7
    ,7,7,7,7,7,7,7,7,7,7,7,7,7,7,7,7,7,9),(0.,7.004664296076E-02,
    0.13091564754,0.171711091978,0.202119436953,0.249505316548,
    0.297305791462,0.327714406102,0.368510212318,0.401778652664,
    0.428255146103,0.501167606762,0.573503308968,0.599974635913,
    0.632704379121,0.672995950286,0.702939918262,0.749475075904,
    0.796424836932,0.826369068171,0.866660993572,0.982574235714,1.),
  .UNSPECIFIED.);
#272 = CARTESIAN_POINT('',(-1.416285118172,-96.));
#273 = CARTESIAN_POINT('',(-1.416255295763,-96.23785437834));
#274 = CARTESIAN_POINT('',(-1.41662827929,-96.47573135616));
#275 = CARTESIAN_POINT('',(-1.417404556045,-96.71323149857));
#276 = CARTESIAN_POINT('',(-1.418586548794,-96.94992105299));
#277 = CARTESIAN_POINT('',(-1.420178089846,-97.1853333139));
#278 = CARTESIAN_POINT('',(-1.422184309982,-97.41896820956));
#279 = CARTESIAN_POINT('',(-1.424611942259,-97.65029011035));
#280 = CARTESIAN_POINT('',(-1.429953665856,-98.07722780317));
#281 = CARTESIAN_POINT('',(-1.432761761759,-98.27350324749));
#282 = CARTESIAN_POINT('',(-1.435900218366,-98.4671929354));
#283 = CARTESIAN_POINT('',(-1.439375786627,-98.657857532));
#284 = CARTESIAN_POINT('',(-1.44319562401,-98.84498028731));
#285 = CARTESIAN_POINT('',(-1.447367169377,-99.02796786144));
#286 = CARTESIAN_POINT('',(-1.451898347197,-99.20614731193));
#287 = CARTESIAN_POINT('',(-1.460081999689,-99.49444670172));
#288 = CARTESIAN_POINT('',(-1.463530862185,-99.60761210614));
#289 = CARTESIAN_POINT('',(-1.467147200003,-99.71802510378));
#290 = CARTESIAN_POINT('',(-1.470933127433,-99.82541761783));
#291 = CARTESIAN_POINT('',(-1.474890221348,-99.92948655604));
#292 = CARTESIAN_POINT('',(-1.47901938093,-100.0298965194));
#293 = CARTESIAN_POINT('',(-1.483320687379,-100.1262825109));
#294 = CARTESIAN_POINT('',(-1.491127058455,-100.2868058758));
#295 = CARTESIAN_POINT('',(-1.494555768045,-100.3529004334));
#296 = CARTESIAN_POINT('',(-1.498078831782,-100.4163718548));
#297 = CARTESIAN_POINT('',(-1.501695130753,-100.4770421048));
#298 = CARTESIAN_POINT('',(-1.505402883553,-100.5347231486));
#299 = CARTESIAN_POINT('',(-1.509199542085,-100.5892205237));
#300 = CARTESIAN_POINT('',(-1.513081687361,-100.6403369133));
#301 = CARTESIAN_POINT('',(-1.52322091142,-100.7619563072));
#302 = CARTESIAN_POINT('',(-1.529597472378,-100.8273940745));
#303 = CARTESIAN_POINT('',(-1.53615349183,-100.8833693501));
#304 = CARTESIAN_POINT('',(-1.542863363229,-100.9291416636));
#305 = CARTESIAN_POINT('',(-1.549696721272,-100.9640720723));
#306 = CARTESIAN_POINT('',(-1.556618007206,-100.9876661863));
#307 = CARTESIAN_POINT('',(-1.563585867968,-100.9996378914));
#308 = CARTESIAN_POINT('',(-1.577579862894,-101.0003527609));
#309 = CARTESIAN_POINT('',(-1.58461107872,-100.9888920207));
#310 = CARTESIAN_POINT('',(-1.591596718751,-100.9655924881));
#311 = CARTESIAN_POINT('',(-1.598494206176,-100.9307400601));
#312 = CARTESIAN_POINT('',(-1.605266917621,-100.8848376409));
#313 = CARTESIAN_POINT('',(-1.611883567099,-100.8285389086));
#314 = CARTESIAN_POINT('',(-1.618317761596,-100.762603801));
#315 = CARTESIAN_POINT('',(-1.628510966229,-100.6403369133));
#316 = CARTESIAN_POINT('',(-1.632393111505,-100.5892205237));
#317 = CARTESIAN_POINT('',(-1.636189770036,-100.5347231486));
#318 = CARTESIAN_POINT('',(-1.639897522836,-100.4770421048));
#319 = CARTESIAN_POINT('',(-1.643513821808,-100.4163718548));
#320 = CARTESIAN_POINT('',(-1.647036885545,-100.3529004334));
#321 = CARTESIAN_POINT('',(-1.650465595134,-100.2868058758));
#322 = CARTESIAN_POINT('',(-1.658271966211,-100.1262825109));
#323 = CARTESIAN_POINT('',(-1.66257327266,-100.0298965194));
#324 = CARTESIAN_POINT('',(-1.666702432241,-99.92948655604));
#325 = CARTESIAN_POINT('',(-1.670659526157,-99.82541761783));
#326 = CARTESIAN_POINT('',(-1.674445453586,-99.71802510378));
#327 = CARTESIAN_POINT('',(-1.678061791405,-99.60761210614));
#328 = CARTESIAN_POINT('',(-1.681510653901,-99.49444670172));
#329 = CARTESIAN_POINT('',(-1.687472528349,-99.28441765086));
#330 = CARTESIAN_POINT('',(-1.690040610781,-99.1884056037));
#331 = CARTESIAN_POINT('',(-1.69250008672,-99.09085163261));
#332 = CARTESIAN_POINT('',(-1.694852239714,-98.99187540033));
#333 = CARTESIAN_POINT('',(-1.697098347226,-98.89158769878));
#334 = CARTESIAN_POINT('',(-1.69923967793,-98.79009044649));
#335 = CARTESIAN_POINT('',(-1.701277489015,-98.68747668609));
#336 = CARTESIAN_POINT('',(-1.704753407261,-98.50134443647));
#337 = CARTESIAN_POINT('',(-1.706228984609,-98.41820596647));
#338 = CARTESIAN_POINT('',(-1.707640364247,-98.33445830486));
#339 = CARTESIAN_POINT('',(-1.708988126864,-98.25014250752));
#340 = CARTESIAN_POINT('',(-1.710272825116,-98.1652975531));
#341 = CARTESIAN_POINT('',(-1.711494983629,-98.07996034299));
#342 = CARTESIAN_POINT('',(-1.712655098998,-97.99416570132));
#343 = CARTESIAN_POINT('',(-1.716778863355,-97.67051073221));
#344 = CARTESIAN_POINT('',(-1.719336715914,-97.42988775095));
#345 = CARTESIAN_POINT('',(-1.721437668908,-97.18672691103));
#346 = CARTESIAN_POINT('',(-1.723089362941,-96.94163269789));
#347 = CARTESIAN_POINT('',(-1.724297539988,-96.69516924082));
#348 = CARTESIAN_POINT('',(-1.725066444343,-96.4478629246));
#349 = CARTESIAN_POINT('',(-1.72539869233,-96.20020297456));
#350 = CARTESIAN_POINT('',(-1.725191352507,-95.70703534925));
#351 = CARTESIAN_POINT('',(-1.724658665357,-95.46158629841));
#352 = CARTESIAN_POINT('',(-1.7236972738,-95.21673225934));
#353 = CARTESIAN_POINT('',(-1.72230570546,-94.97294975584));
#354 = CARTESIAN_POINT('',(-1.720480902343,-94.73075076379));
#355 = CARTESIAN_POINT('',(-1.71821830941,-94.49068323305));
#356 = CARTESIAN_POINT('',(-1.715511440494,-94.25333380598));
#357 = CARTESIAN_POINT('',(-1.711194326274,-93.9336997918));
#358 = CARTESIAN_POINT('',(-1.709977034327,-93.84851964291));
#359 = CARTESIAN_POINT('',(-1.708698620907,-93.76382480456));
#360 = CARTESIAN_POINT('',(-1.707358631176,-93.67964990756));
#361 = CARTESIAN_POINT('',(-1.705956580248,-93.59603169505));
#362 = CARTESIAN_POINT('',(-1.704491953194,-93.51300902252));
#363 = CARTESIAN_POINT('',(-1.702964205035,-93.43062285777));
#364 = CARTESIAN_POINT('',(-1.699405063288,-93.24789243416));
#365 = CARTESIAN_POINT('',(-1.697340034782,-93.14790985627));
#366 = CARTESIAN_POINT('',(-1.695176551723,-93.0490486492));
#367 = CARTESIAN_POINT('',(-1.692913475411,-92.9513974396));
#368 = CARTESIAN_POINT('',(-1.690549652897,-92.85505337972));
#369 = CARTESIAN_POINT('',(-1.688083917939,-92.76012214823));
#370 = CARTESIAN_POINT('',(-1.685515091945,-92.66671795108));
#371 = CARTESIAN_POINT('',(-1.679551287507,-92.46201029582));
#372 = CARTESIAN_POINT('',(-1.676102843681,-92.35156719388));
#373 = CARTESIAN_POINT('',(-1.672494290141,-92.24385656948));
#374 = CARTESIAN_POINT('',(-1.668723646374,-92.13913770705));
#375 = CARTESIAN_POINT('',(-1.66478944407,-92.03770416515));
#376 = CARTESIAN_POINT('',(-1.660690856524,-91.93988111918));
#377 = CARTESIAN_POINT('',(-1.656427828045,-91.8460227041));
#378 = CARTESIAN_POINT('',(-1.648711415831,-91.68998465431));
#379 = CARTESIAN_POINT('',(-1.645331511133,-91.62586489855));
#380 = CARTESIAN_POINT('',(-1.641862029911,-91.56430834277));
#381 = CARTESIAN_POINT('',(-1.638304044912,-91.50548636479));
#382 = CARTESIAN_POINT('',(-1.634659259457,-91.44958000019));
#383 = CARTESIAN_POINT('',(-1.630930105925,-91.39677647518));
#384 = CARTESIAN_POINT('',(-1.627119844236,-91.34726573957));
#385 = CARTESIAN_POINT('',(-1.617191686875,-91.22970490771));
#386 = CARTESIAN_POINT('',(-1.610961452691,-91.16654016006));
#387 = CARTESIAN_POINT('',(-1.604561972643,-91.11252422775));
#388 = CARTESIAN_POINT('',(-1.598017441751,-91.0683635356));
#389 = CARTESIAN_POINT('',(-1.591356494544,-91.03466752863));
#390 = CARTESIAN_POINT('',(-1.584612634741,-91.0119074336));
#391 = CARTESIAN_POINT('',(-1.577824835263,-91.00035571574));
#392 = CARTESIAN_POINT('',(-1.564191317564,-90.99965363183));
#393 = CARTESIAN_POINT('',(-1.557340745833,-91.010703529));
#394 = CARTESIAN_POINT('',(-1.550533155887,-91.03317416706));
#395 = CARTESIAN_POINT('',(-1.543808694705,-91.06679330789));
#396 = CARTESIAN_POINT('',(-1.537201886522,-91.11108146848));
#397 = CARTESIAN_POINT('',(-1.530742249311,-91.16541488878));
#398 = CARTESIAN_POINT('',(-1.524454734976,-91.22906822949));
#399 = CARTESIAN_POINT('',(-1.514472809354,-91.34726573958));
#400 = CARTESIAN_POINT('',(-1.510662547664,-91.39677647518));
#401 = CARTESIAN_POINT('',(-1.506933394133,-91.44958000019));
#402 = CARTESIAN_POINT('',(-1.503288608678,-91.50548636479));
#403 = CARTESIAN_POINT('',(-1.499730623679,-91.56430834277));
#404 = CARTESIAN_POINT('',(-1.496261142457,-91.62586489855));
#405 = CARTESIAN_POINT('',(-1.492881237759,-91.68998465431));
#406 = CARTESIAN_POINT('',(-1.485164825545,-91.8460227041));
#407 = CARTESIAN_POINT('',(-1.480901797065,-91.93988111918));
#408 = CARTESIAN_POINT('',(-1.47680320952,-92.03770416515));
#409 = CARTESIAN_POINT('',(-1.472869007216,-92.13913770705));
#410 = CARTESIAN_POINT('',(-1.469098363449,-92.24385656948));
#411 = CARTESIAN_POINT('',(-1.465489809908,-92.35156719388));
#412 = CARTESIAN_POINT('',(-1.462041366083,-92.46201029582));
#413 = CARTESIAN_POINT('',(-1.449283873434,-92.89991137626));
#414 = CARTESIAN_POINT('',(-1.441139246992,-93.24506151605));
#415 = CARTESIAN_POINT('',(-1.434234615924,-93.60561950754));
#416 = CARTESIAN_POINT('',(-1.428529059939,-93.97777307986));
#417 = CARTESIAN_POINT('',(-1.423982394023,-94.35827927721));
#418 = CARTESIAN_POINT('',(-1.420564763806,-94.74455485675));
#419 = CARTESIAN_POINT('',(-1.418252243238,-95.13459917837));
#420 = CARTESIAN_POINT('',(-1.416860372673,-95.58610753715));
#421 = CARTESIAN_POINT('',(-1.416703426229,-95.64515790802));
#422 = CARTESIAN_POINT('',(-1.416571414422,-95.70424526542));
#423 = CARTESIAN_POINT('',(-1.416464323963,-95.76336282168));
#424 = CARTESIAN_POINT('',(-1.416382147516,-95.82250380964));
#425 = CARTESIAN_POINT('',(-1.416324883697,-95.88166148265));
#426 = CARTESIAN_POINT('',(-1.416292537075,-95.94082911463));
#427 = CARTESIAN_POINT('',(-1.416285118172,-96.));
#428 = ( GEOMETRIC_REPRESENTATION_CONTEXT(2) 
PARAMETRIC_REPRESENTATION_CONTEXT() REPRESENTATION_CONTEXT('2D SPACE',''
  ) );
#429 = PCURVE('',#430,#435);
#430 = CYLINDRICAL_SURFACE('',#431,5.);
#431 = AXIS2_PLACEMENT_3D('',#432,#433,#434);
#432 = CARTESIAN_POINT('',(0.,72.,161.));
#433 = DIRECTION('',(0.,-1.,1.110223024625E-16));
#434 = DIRECTION('',(1.,0.,0.));
#435 = DEFINITIONAL_REPRESENTATION('',(#436),#593);
#436 = B_SPLINE_CURVE_WITH_KNOTS('',8,(#437,#438,#439,#440,#441,#442,
    #443,#444,#445,#446,#447,#448,#449,#450,#451,#452,#453,#454,#455,
    #456,#457,#458,#459,#460,#461,#462,#463,#464,#465,#466,#467,#468,
    #469,#470,#471,#472,#473,#474,#475,#476,#477,#478,#479,#480,#481,
    #482,#483,#484,#485,#486,#487,#488,#489,#490,#491,#492,#493,#494,
    #495,#496,#497,#498,#499,#500,#501,#502,#503,#504,#505,#506,#507,
    #508,#509,#510,#511,#512,#513,#514,#515,#516,#517,#518,#519,#520,
    #521,#522,#523,#524,#525,#526,#527,#528,#529,#530,#531,#532,#533,
    #534,#535,#536,#537,#538,#539,#540,#541,#542,#543,#544,#545,#546,
    #547,#548,#549,#550,#551,#552,#553,#554,#555,#556,#557,#558,#559,
    #560,#561,#562,#563,#564,#565,#566,#567,#568,#569,#570,#571,#572,
    #573,#574,#575,#576,#577,#578,#579,#580,#581,#582,#583,#584,#585,
    #586,#587,#588,#589,#590,#591,#592),.UNSPECIFIED.,.F.,.F.,(9,7,7,7,7
    ,7,7,7,7,7,7,7,7,7,7,7,7,7,7,7,7,7,9),(0.,7.004664296076E-02,
    0.13091564754,0.171711091978,0.202119436953,0.249505316548,
    0.297305791462,0.327714406102,0.368510212318,0.401778652664,
    0.428255146103,0.501167606762,0.573503308968,0.599974635913,
    0.632704379121,0.672995950286,0.702939918262,0.749475075904,
    0.796424836932,0.826369068171,0.866660993572,0.982574235714,1.),
  .UNSPECIFIED.);
#437 = CARTESIAN_POINT('',(0.,39.897817582346));
#438 = CARTESIAN_POINT('',(4.757087566957E-02,39.904113391947));
#439 = CARTESIAN_POINT('',(9.514634385965E-02,39.908395742178));
#440 = CARTESIAN_POINT('',(0.142810231559,39.910651797676));
#441 = CARTESIAN_POINT('',(0.190640497135,39.910887494879));
#442 = CARTESIAN_POINT('',(0.23871275154,39.909130118624));
#443 = CARTESIAN_POINT('',(0.287104637157,39.905430430454));
#444 = CARTESIAN_POINT('',(0.335901064286,39.899864348614));
#445 = CARTESIAN_POINT('',(0.428040270151,39.886164422953));
#446 = CARTESIAN_POINT('',(0.471249786233,39.878464092389));
#447 = CARTESIAN_POINT('',(0.514896903431,39.869500853466));
#448 = CARTESIAN_POINT('',(0.559046046541,39.859358519704));
#449 = CARTESIAN_POINT('',(0.603760187256,39.848141132823));
#450 = CARTESIAN_POINT('',(0.649104375717,39.835976148451));
#451 = CARTESIAN_POINT('',(0.695150631575,39.823016727462));
#452 = CARTESIAN_POINT('',(0.773372846805,39.800345878532));
#453 = CARTESIAN_POINT('',(0.805109474713,39.790974529018));
#454 = CARTESIAN_POINT('',(0.837218671094,39.781383402558));
#455 = CARTESIAN_POINT('',(0.869722315392,39.771634566345));
#456 = CARTESIAN_POINT('',(0.902639979126,39.761797683642));
#457 = CARTESIAN_POINT('',(0.935989331324,39.751949860814));
#458 = CARTESIAN_POINT('',(0.969786543947,39.742175494359));
#459 = CARTESIAN_POINT('',(1.029583729154,39.725403425202));
#460 = CARTESIAN_POINT('',(1.055376113653,39.718332924466));
#461 = CARTESIAN_POINT('',(1.081428616738,39.711392473408));
#462 = CARTESIAN_POINT('',(1.107743832597,39.704622757953));
#463 = CARTESIAN_POINT('',(1.134321887799,39.698066525026));
#464 = CARTESIAN_POINT('',(1.161160145411,39.69176781532));
#465 = CARTESIAN_POINT('',(1.188252909104,39.68577119606));
#466 = CARTESIAN_POINT('',(1.258192772156,39.671316180291));
#467 = CARTESIAN_POINT('',(1.301415550836,39.663347252986));
#468 = CARTESIAN_POINT('',(1.34519268502,39.656389586237));
#469 = CARTESIAN_POINT('',(1.389448578622,39.650609142751));
#470 = CARTESIAN_POINT('',(1.434096989612,39.646150028732));
#471 = CARTESIAN_POINT('',(1.479034945108,39.643121574937));
#472 = CARTESIAN_POINT('',(1.524132399701,39.641584943619));
#473 = CARTESIAN_POINT('',(1.614697340548,39.641493179366));
#474 = CARTESIAN_POINT('',(1.660197493219,39.642964213809));
#475 = CARTESIAN_POINT('',(1.7055409621,39.645955890916));
#476 = CARTESIAN_POINT('',(1.750593793131,39.650407226854));
#477 = CARTESIAN_POINT('',(1.795249964334,39.656207039641));
#478 = CARTESIAN_POINT('',(1.839420582893,39.663207828798));
#479 = CARTESIAN_POINT('',(1.883027526124,39.671239222722));
#480 = CARTESIAN_POINT('',(1.953339744486,39.68577119606));
#481 = CARTESIAN_POINT('',(1.980432508179,39.69176781532));
#482 = CARTESIAN_POINT('',(2.00727076579,39.698066525026));
#483 = CARTESIAN_POINT('',(2.033848820993,39.704622757953));
#484 = CARTESIAN_POINT('',(2.060164036851,39.711392473408));
#485 = CARTESIAN_POINT('',(2.086216539937,39.718332924466));
#486 = CARTESIAN_POINT('',(2.112008924436,39.725403425202));
#487 = CARTESIAN_POINT('',(2.171806109643,39.742175494359));
#488 = CARTESIAN_POINT('',(2.205603322266,39.751949860814));
#489 = CARTESIAN_POINT('',(2.238952674463,39.761797683642));
#490 = CARTESIAN_POINT('',(2.271870338198,39.771634566345));
#491 = CARTESIAN_POINT('',(2.304373982496,39.781383402558));
#492 = CARTESIAN_POINT('',(2.336483178876,39.790974529018));
#493 = CARTESIAN_POINT('',(2.368219806785,39.800345878532));
#494 = CARTESIAN_POINT('',(2.425205489733,39.816861823593));
#495 = CARTESIAN_POINT('',(2.450569311566,39.824097634185));
#496 = CARTESIAN_POINT('',(2.475712438737,39.831120657546));
#497 = CARTESIAN_POINT('',(2.500646744673,39.837903636795));
#498 = CARTESIAN_POINT('',(2.525383686542,39.844421824186));
#499 = CARTESIAN_POINT('',(2.549934529788,39.850652839946));
#500 = CARTESIAN_POINT('',(2.574310572663,39.856576531109));
#501 = CARTESIAN_POINT('',(2.617792984339,39.866630204023));
#502 = CARTESIAN_POINT('',(2.636958902298,39.870879362391));
#503 = CARTESIAN_POINT('',(2.656026645895,39.874913225204));
#504 = CARTESIAN_POINT('',(2.675001616343,39.878723396113));
#505 = CARTESIAN_POINT('',(2.693889094808,39.882302162674));
#506 = CARTESIAN_POINT('',(2.712694242405,39.885642496345));
#507 = CARTESIAN_POINT('',(2.731422100203,39.888738052492));
#508 = CARTESIAN_POINT('',(2.80145212688,39.899418216468));
#509 = CARTESIAN_POINT('',(2.852271178676,39.905352632118));
#510 = CARTESIAN_POINT('',(2.902647444365,39.909268794748));
#511 = CARTESIAN_POINT('',(2.952677022012,39.911079978541));
#512 = CARTESIAN_POINT('',(3.002447056219,39.910728981262));
#513 = CARTESIAN_POINT('',(3.05204221268,39.908186185795));
#514 = CARTESIAN_POINT('',(3.101549979066,39.903447056394));
#515 = CARTESIAN_POINT('',(3.200187929064,39.889665806193));
#516 = CARTESIAN_POINT('',(3.24930615876,39.880659702991));
#517 = CARTESIAN_POINT('',(3.298511793397,39.869529614089));
#518 = CARTESIAN_POINT('',(3.347890824904,39.856317791556));
#519 = CARTESIAN_POINT('',(3.397526856389,39.841092414011));
#520 = CARTESIAN_POINT('',(3.44750628019,39.823949692847));
#521 = CARTESIAN_POINT('',(3.497924702664,39.805015556154));
#522 = CARTESIAN_POINT('',(3.567547109455,39.776919792613));
#523 = CARTESIAN_POINT('',(3.586272581013,39.769174200836));
#524 = CARTESIAN_POINT('',(3.605076063368,39.761217945498));
#525 = CARTESIAN_POINT('',(3.623962718683,39.753059609637));
#526 = CARTESIAN_POINT('',(3.642937838303,39.744708548858));
#527 = CARTESIAN_POINT('',(3.662006842755,39.736174891331));
#528 = CARTESIAN_POINT('',(3.681175281749,39.727469537795));
#529 = CARTESIAN_POINT('',(3.724279087305,39.707642811246));
#530 = CARTESIAN_POINT('',(3.748269565547,39.696437141001));
#531 = CARTESIAN_POINT('',(3.772431589039,39.685009187937));
#532 = CARTESIAN_POINT('',(3.79677623695,39.673383344689));
#533 = CARTESIAN_POINT('',(3.821314564342,39.661586485336));
#534 = CARTESIAN_POINT('',(3.846057819022,39.64964809133));
#535 = CARTESIAN_POINT('',(3.871017658404,39.637600377428));
#536 = CARTESIAN_POINT('',(3.927214633453,39.610555819431));
#537 = CARTESIAN_POINT('',(3.958567054655,39.595522121414));
#538 = CARTESIAN_POINT('',(3.990288074947,39.580441598209));
#539 = CARTESIAN_POINT('',(4.022399450906,39.565387723474));
#540 = CARTESIAN_POINT('',(4.054920642504,39.55044286839));
#541 = CARTESIAN_POINT('',(4.087869204909,39.535698000165));
#542 = CARTESIAN_POINT('',(4.121261180281,39.521252380548));
#543 = CARTESIAN_POINT('',(4.180268428061,39.496779646727));
#544 = CARTESIAN_POINT('',(4.205676678159,39.486571324576));
#545 = CARTESIAN_POINT('',(4.231340910735,39.47663239827));
#546 = CARTESIAN_POINT('',(4.257263648505,39.467010272793));
#547 = CARTESIAN_POINT('',(4.283444973522,39.457754752986));
#548 = CARTESIAN_POINT('',(4.309882234669,39.448917138816));
#549 = CARTESIAN_POINT('',(4.336569755145,39.440549320637));
#550 = CARTESIAN_POINT('',(4.405347878283,39.420508912371));
#551 = CARTESIAN_POINT('',(4.447803923886,39.409566938798));
#552 = CARTESIAN_POINT('',(4.490801686606,39.400081473016));
#553 = CARTESIAN_POINT('',(4.534267326092,39.392243954771));
#554 = CARTESIAN_POINT('',(4.578116371498,39.386220222894));
#555 = CARTESIAN_POINT('',(4.622247937593,39.382136492028));
#556 = CARTESIAN_POINT('',(4.666534937292,39.380063827449));
#557 = CARTESIAN_POINT('',(4.755480113664,39.379937849824));
#558 = CARTESIAN_POINT('',(4.800169752369,39.381920464578));
#559 = CARTESIAN_POINT('',(4.844706770455,39.385953215891));
#560 = CARTESIAN_POINT('',(4.888960191665,39.391965219429));
#561 = CARTESIAN_POINT('',(4.932826085805,39.399828079998));
#562 = CARTESIAN_POINT('',(4.976217337615,39.409372001375));
#563 = CARTESIAN_POINT('',(5.019057598454,39.420400378847));
#564 = CARTESIAN_POINT('',(5.088208205625,39.440549320637));
#565 = CARTESIAN_POINT('',(5.114895726101,39.448917138816));
#566 = CARTESIAN_POINT('',(5.141332987247,39.457754752986));
#567 = CARTESIAN_POINT('',(5.167514312264,39.467010272793));
#568 = CARTESIAN_POINT('',(5.193437050034,39.47663239827));
#569 = CARTESIAN_POINT('',(5.21910128261,39.486571324576));
#570 = CARTESIAN_POINT('',(5.244509532709,39.496779646727));
#571 = CARTESIAN_POINT('',(5.303516780489,39.521252380548));
#572 = CARTESIAN_POINT('',(5.336908755861,39.535698000165));
#573 = CARTESIAN_POINT('',(5.369857318266,39.55044286839));
#574 = CARTESIAN_POINT('',(5.402378509864,39.565387723475));
#575 = CARTESIAN_POINT('',(5.434489885823,39.580441598209));
#576 = CARTESIAN_POINT('',(5.466210906115,39.595522121415));
#577 = CARTESIAN_POINT('',(5.497563327317,39.610555819431));
#578 = CARTESIAN_POINT('',(5.617777278572,39.668408278107));
#579 = CARTESIAN_POINT('',(5.703978192665,39.710342122447));
#580 = CARTESIAN_POINT('',(5.787945319631,39.749829818237));
#581 = CARTESIAN_POINT('',(5.870110692129,39.785775430919));
#582 = CARTESIAN_POINT('',(5.950869964199,39.817377318616));
#583 = CARTESIAN_POINT('',(6.030574619164,39.84410966145));
#584 = CARTESIAN_POINT('',(6.109610084647,39.865651724571));
#585 = CARTESIAN_POINT('',(6.200318376038,39.884249255073));
#586 = CARTESIAN_POINT('',(6.212166375786,39.886557760668));
#587 = CARTESIAN_POINT('',(6.22400911125,39.888743664707));
#588 = CARTESIAN_POINT('',(6.235847770723,39.890806410749));
#589 = CARTESIAN_POINT('',(6.247683539431,39.892745525101));
#590 = CARTESIAN_POINT('',(6.25951759953,39.894560616822));
#591 = CARTESIAN_POINT('',(6.271351130107,39.896251377718));
#592 = CARTESIAN_POINT('',(6.28318530718,39.897817582346));
#593 = ( GEOMETRIC_REPRESENTATION_CONTEXT(2) 
PARAMETRIC_REPRESENTATION_CONTEXT() REPRESENTATION_CONTEXT('2D SPACE',''
  ) );
#594 = ADVANCED_FACE('',(#595,#598),#94,.F.);
#595 = FACE_BOUND('',#596,.F.);
#596 = EDGE_LOOP('',(#597));
#597 = ORIENTED_EDGE('',*,*,#79,.T.);
#598 = FACE_BOUND('',#599,.F.);
#599 = EDGE_LOOP('',(#600));
#600 = ORIENTED_EDGE('',*,*,#601,.F.);
#601 = EDGE_CURVE('',#602,#602,#604,.T.);
#602 = VERTEX_POINT('',#603);
#603 = CARTESIAN_POINT('',(32.5,-7.960204194458E-15,65.));
#604 = SURFACE_CURVE('',#605,(#610,#617),.PCURVE_S1.);
#605 = CIRCLE('',#606,32.5);
#606 = AXIS2_PLACEMENT_3D('',#607,#608,#609);
#607 = CARTESIAN_POINT('',(0.,0.,65.));
#608 = DIRECTION('',(0.,0.,1.));
#609 = DIRECTION('',(1.,0.,-0.));
#610 = PCURVE('',#94,#611);
#611 = DEFINITIONAL_REPRESENTATION('',(#612),#616);
#612 = CIRCLE('',#613,32.5);
#613 = AXIS2_PLACEMENT_2D('',#614,#615);
#614 = CARTESIAN_POINT('',(0.,0.));
#615 = DIRECTION('',(1.,0.));
#616 = ( GEOMETRIC_REPRESENTATION_CONTEXT(2) 
PARAMETRIC_REPRESENTATION_CONTEXT() REPRESENTATION_CONTEXT('2D SPACE',''
  ) );
#617 = PCURVE('',#618,#623);
#618 = CONICAL_SURFACE('',#619,32.5,2.719329509342E-02);
#619 = AXIS2_PLACEMENT_3D('',#620,#621,#622);
#620 = CARTESIAN_POINT('',(0.,0.,65.));
#621 = DIRECTION('',(-0.,-0.,-1.));
#622 = DIRECTION('',(1.,0.,-0.));
#623 = DEFINITIONAL_REPRESENTATION('',(#624),#628);
#624 = LINE('',#625,#626);
#625 = CARTESIAN_POINT('',(-0.,-0.));
#626 = VECTOR('',#627,1.);
#627 = DIRECTION('',(-1.,-0.));
#628 = ( GEOMETRIC_REPRESENTATION_CONTEXT(2) 
PARAMETRIC_REPRESENTATION_CONTEXT() REPRESENTATION_CONTEXT('2D SPACE',''
  ) );
#629 = ADVANCED_FACE('',(#630),#66,.T.);
#630 = FACE_BOUND('',#631,.T.);
#631 = EDGE_LOOP('',(#632));
#632 = ORIENTED_EDGE('',*,*,#51,.T.);
#633 = ADVANCED_FACE('',(#634),#430,.T.);
#634 = FACE_BOUND('',#635,.T.);
#635 = EDGE_LOOP('',(#636,#637,#660,#687));
#636 = ORIENTED_EDGE('',*,*,#108,.F.);
#637 = ORIENTED_EDGE('',*,*,#638,.F.);
#638 = EDGE_CURVE('',#639,#109,#641,.T.);
#639 = VERTEX_POINT('',#640);
#640 = CARTESIAN_POINT('',(5.,72.,161.));
#641 = SEAM_CURVE('',#642,(#646,#653),.PCURVE_S1.);
#642 = LINE('',#643,#644);
#643 = CARTESIAN_POINT('',(5.,72.,161.));
#644 = VECTOR('',#645,1.);
#645 = DIRECTION('',(0.,-1.,1.110223024625E-16));
#646 = PCURVE('',#430,#647);
#647 = DEFINITIONAL_REPRESENTATION('',(#648),#652);
#648 = LINE('',#649,#650);
#649 = CARTESIAN_POINT('',(6.28318530718,-0.));
#650 = VECTOR('',#651,1.);
#651 = DIRECTION('',(0.,1.));
#652 = ( GEOMETRIC_REPRESENTATION_CONTEXT(2) 
PARAMETRIC_REPRESENTATION_CONTEXT() REPRESENTATION_CONTEXT('2D SPACE',''
  ) );
#653 = PCURVE('',#430,#654);
#654 = DEFINITIONAL_REPRESENTATION('',(#655),#659);
#655 = LINE('',#656,#657);
#656 = CARTESIAN_POINT('',(0.,-0.));
#657 = VECTOR('',#658,1.);
#658 = DIRECTION('',(0.,1.));
#659 = ( GEOMETRIC_REPRESENTATION_CONTEXT(2) 
PARAMETRIC_REPRESENTATION_CONTEXT() REPRESENTATION_CONTEXT('2D SPACE',''
  ) );
#660 = ORIENTED_EDGE('',*,*,#661,.T.);
#661 = EDGE_CURVE('',#639,#639,#662,.T.);
#662 = SURFACE_CURVE('',#663,(#668,#675),.PCURVE_S1.);
#663 = CIRCLE('',#664,5.);
#664 = AXIS2_PLACEMENT_3D('',#665,#666,#667);
#665 = CARTESIAN_POINT('',(0.,72.,161.));
#666 = DIRECTION('',(0.,-1.,1.110223024625E-16));
#667 = DIRECTION('',(1.,0.,0.));
#668 = PCURVE('',#430,#669);
#669 = DEFINITIONAL_REPRESENTATION('',(#670),#674);
#670 = LINE('',#671,#672);
#671 = CARTESIAN_POINT('',(0.,0.));
#672 = VECTOR('',#673,1.);
#673 = DIRECTION('',(1.,0.));
#674 = ( GEOMETRIC_REPRESENTATION_CONTEXT(2) 
PARAMETRIC_REPRESENTATION_CONTEXT() REPRESENTATION_CONTEXT('2D SPACE',''
  ) );
#675 = PCURVE('',#676,#681);
#676 = PLANE('',#677);
#677 = AXIS2_PLACEMENT_3D('',#678,#679,#680);
#678 = CARTESIAN_POINT('',(0.,72.,161.));
#679 = DIRECTION('',(0.,-1.,1.110223024625E-16));
#680 = DIRECTION('',(1.,0.,0.));
#681 = DEFINITIONAL_REPRESENTATION('',(#682),#686);
#682 = CIRCLE('',#683,5.);
#683 = AXIS2_PLACEMENT_2D('',#684,#685);
#684 = CARTESIAN_POINT('',(0.,0.));
#685 = DIRECTION('',(1.,0.));
#686 = ( GEOMETRIC_REPRESENTATION_CONTEXT(2) 
PARAMETRIC_REPRESENTATION_CONTEXT() REPRESENTATION_CONTEXT('2D SPACE',''
  ) );
#687 = ORIENTED_EDGE('',*,*,#638,.T.);
#688 = ADVANCED_FACE('',(#689),#618,.F.);
#689 = FACE_BOUND('',#690,.F.);
#690 = EDGE_LOOP('',(#691,#720,#741,#742));
#691 = ORIENTED_EDGE('',*,*,#692,.F.);
#692 = EDGE_CURVE('',#693,#693,#695,.T.);
#693 = VERTEX_POINT('',#694);
#694 = CARTESIAN_POINT('',(29.1,-7.127444371038E-15,190.));
#695 = SURFACE_CURVE('',#696,(#701,#708),.PCURVE_S1.);
#696 = CIRCLE('',#697,29.1);
#697 = AXIS2_PLACEMENT_3D('',#698,#699,#700);
#698 = CARTESIAN_POINT('',(0.,0.,190.));
#699 = DIRECTION('',(0.,0.,1.));
#700 = DIRECTION('',(1.,0.,-0.));
#701 = PCURVE('',#618,#702);
#702 = DEFINITIONAL_REPRESENTATION('',(#703),#707);
#703 = LINE('',#704,#705);
#704 = CARTESIAN_POINT('',(-0.,-125.));
#705 = VECTOR('',#706,1.);
#706 = DIRECTION('',(-1.,-0.));
#707 = ( GEOMETRIC_REPRESENTATION_CONTEXT(2) 
PARAMETRIC_REPRESENTATION_CONTEXT() REPRESENTATION_CONTEXT('2D SPACE',''
  ) );
#708 = PCURVE('',#709,#714);
#709 = PLANE('',#710);
#710 = AXIS2_PLACEMENT_3D('',#711,#712,#713);
#711 = CARTESIAN_POINT('',(0.,0.,190.));
#712 = DIRECTION('',(0.,0.,1.));
#713 = DIRECTION('',(1.,0.,-0.));
#714 = DEFINITIONAL_REPRESENTATION('',(#715),#719);
#715 = CIRCLE('',#716,29.1);
#716 = AXIS2_PLACEMENT_2D('',#717,#718);
#717 = CARTESIAN_POINT('',(0.,0.));
#718 = DIRECTION('',(1.,0.));
#719 = ( GEOMETRIC_REPRESENTATION_CONTEXT(2) 
PARAMETRIC_REPRESENTATION_CONTEXT() REPRESENTATION_CONTEXT('2D SPACE',''
  ) );
#720 = ORIENTED_EDGE('',*,*,#721,.F.);
#721 = EDGE_CURVE('',#602,#693,#722,.T.);
#722 = SEAM_CURVE('',#723,(#727,#734),.PCURVE_S1.);
#723 = LINE('',#724,#725);
#724 = CARTESIAN_POINT('',(32.5,-7.960204194458E-15,65.));
#725 = VECTOR('',#726,1.);
#726 = DIRECTION('',(-2.718994375566E-02,6.659615517874E-18,
    0.999630285135));
#727 = PCURVE('',#618,#728);
#728 = DEFINITIONAL_REPRESENTATION('',(#729),#733);
#729 = LINE('',#730,#731);
#730 = CARTESIAN_POINT('',(-6.28318530718,0.));
#731 = VECTOR('',#732,1.);
#732 = DIRECTION('',(-0.,-1.));
#733 = ( GEOMETRIC_REPRESENTATION_CONTEXT(2) 
PARAMETRIC_REPRESENTATION_CONTEXT() REPRESENTATION_CONTEXT('2D SPACE',''
  ) );
#734 = PCURVE('',#618,#735);
#735 = DEFINITIONAL_REPRESENTATION('',(#736),#740);
#736 = LINE('',#737,#738);
#737 = CARTESIAN_POINT('',(0.,-0.));
#738 = VECTOR('',#739,1.);
#739 = DIRECTION('',(-0.,-1.));
#740 = ( GEOMETRIC_REPRESENTATION_CONTEXT(2) 
PARAMETRIC_REPRESENTATION_CONTEXT() REPRESENTATION_CONTEXT('2D SPACE',''
  ) );
#741 = ORIENTED_EDGE('',*,*,#601,.T.);
#742 = ORIENTED_EDGE('',*,*,#721,.T.);
#743 = ADVANCED_FACE('',(#744,#747),#676,.F.);
#744 = FACE_BOUND('',#745,.F.);
#745 = EDGE_LOOP('',(#746));
#746 = ORIENTED_EDGE('',*,*,#661,.T.);
#747 = FACE_BOUND('',#748,.F.);
#748 = EDGE_LOOP('',(#749));
#749 = ORIENTED_EDGE('',*,*,#750,.F.);
#750 = EDGE_CURVE('',#751,#751,#753,.T.);
#751 = VERTEX_POINT('',#752);
#752 = CARTESIAN_POINT('',(1.,72.,161.));
#753 = SURFACE_CURVE('',#754,(#759,#766),.PCURVE_S1.);
#754 = CIRCLE('',#755,1.);
#755 = AXIS2_PLACEMENT_3D('',#756,#757,#758);
#756 = CARTESIAN_POINT('',(0.,72.,161.));
#757 = DIRECTION('',(0.,-1.,1.110223024625E-16));
#758 = DIRECTION('',(1.,0.,0.));
#759 = PCURVE('',#676,#760);
#760 = DEFINITIONAL_REPRESENTATION('',(#761),#765);
#761 = CIRCLE('',#762,1.);
#762 = AXIS2_PLACEMENT_2D('',#763,#764);
#763 = CARTESIAN_POINT('',(0.,0.));
#764 = DIRECTION('',(1.,0.));
#765 = ( GEOMETRIC_REPRESENTATION_CONTEXT(2) 
PARAMETRIC_REPRESENTATION_CONTEXT() REPRESENTATION_CONTEXT('2D SPACE',''
  ) );
#766 = PCURVE('',#767,#772);
#767 = CYLINDRICAL_SURFACE('',#768,1.);
#768 = AXIS2_PLACEMENT_3D('',#769,#770,#771);
#769 = CARTESIAN_POINT('',(0.,74.5,161.));
#770 = DIRECTION('',(0.,-1.,1.110223024625E-16));
#771 = DIRECTION('',(1.,0.,0.));
#772 = DEFINITIONAL_REPRESENTATION('',(#773),#777);
#773 = LINE('',#774,#775);
#774 = CARTESIAN_POINT('',(0.,2.5));
#775 = VECTOR('',#776,1.);
#776 = DIRECTION('',(1.,0.));
#777 = ( GEOMETRIC_REPRESENTATION_CONTEXT(2) 
PARAMETRIC_REPRESENTATION_CONTEXT() REPRESENTATION_CONTEXT('2D SPACE',''
  ) );
#778 = ADVANCED_FACE('',(#779),#709,.F.);
#779 = FACE_BOUND('',#780,.F.);
#780 = EDGE_LOOP('',(#781));
#781 = ORIENTED_EDGE('',*,*,#692,.T.);
#782 = ADVANCED_FACE('',(#783),#767,.F.);
#783 = FACE_BOUND('',#784,.F.);
#784 = EDGE_LOOP('',(#785,#808,#835,#836));
#785 = ORIENTED_EDGE('',*,*,#786,.T.);
#786 = EDGE_CURVE('',#751,#787,#789,.T.);
#787 = VERTEX_POINT('',#788);
#788 = CARTESIAN_POINT('',(1.,69.5,161.));
#789 = SEAM_CURVE('',#790,(#794,#801),.PCURVE_S1.);
#790 = LINE('',#791,#792);
#791 = CARTESIAN_POINT('',(1.,74.5,161.));
#792 = VECTOR('',#793,1.);
#793 = DIRECTION('',(0.,-1.,1.110223024625E-16));
#794 = PCURVE('',#767,#795);
#795 = DEFINITIONAL_REPRESENTATION('',(#796),#800);
#796 = LINE('',#797,#798);
#797 = CARTESIAN_POINT('',(6.28318530718,-0.));
#798 = VECTOR('',#799,1.);
#799 = DIRECTION('',(0.,1.));
#800 = ( GEOMETRIC_REPRESENTATION_CONTEXT(2) 
PARAMETRIC_REPRESENTATION_CONTEXT() REPRESENTATION_CONTEXT('2D SPACE',''
  ) );
#801 = PCURVE('',#767,#802);
#802 = DEFINITIONAL_REPRESENTATION('',(#803),#807);
#803 = LINE('',#804,#805);
#804 = CARTESIAN_POINT('',(0.,-0.));
#805 = VECTOR('',#806,1.);
#806 = DIRECTION('',(0.,1.));
#807 = ( GEOMETRIC_REPRESENTATION_CONTEXT(2) 
PARAMETRIC_REPRESENTATION_CONTEXT() REPRESENTATION_CONTEXT('2D SPACE',''
  ) );
#808 = ORIENTED_EDGE('',*,*,#809,.F.);
#809 = EDGE_CURVE('',#787,#787,#810,.T.);
#810 = SURFACE_CURVE('',#811,(#816,#823),.PCURVE_S1.);
#811 = CIRCLE('',#812,1.);
#812 = AXIS2_PLACEMENT_3D('',#813,#814,#815);
#813 = CARTESIAN_POINT('',(0.,69.5,161.));
#814 = DIRECTION('',(0.,-1.,1.110223024625E-16));
#815 = DIRECTION('',(1.,0.,0.));
#816 = PCURVE('',#767,#817);
#817 = DEFINITIONAL_REPRESENTATION('',(#818),#822);
#818 = LINE('',#819,#820);
#819 = CARTESIAN_POINT('',(0.,5.));
#820 = VECTOR('',#821,1.);
#821 = DIRECTION('',(1.,0.));
#822 = ( GEOMETRIC_REPRESENTATION_CONTEXT(2) 
PARAMETRIC_REPRESENTATION_CONTEXT() REPRESENTATION_CONTEXT('2D SPACE',''
  ) );
#823 = PCURVE('',#824,#829);
#824 = PLANE('',#825);
#825 = AXIS2_PLACEMENT_3D('',#826,#827,#828);
#826 = CARTESIAN_POINT('',(0.,69.5,161.));
#827 = DIRECTION('',(0.,-1.,1.110223024625E-16));
#828 = DIRECTION('',(1.,0.,0.));
#829 = DEFINITIONAL_REPRESENTATION('',(#830),#834);
#830 = CIRCLE('',#831,1.);
#831 = AXIS2_PLACEMENT_2D('',#832,#833);
#832 = CARTESIAN_POINT('',(0.,0.));
#833 = DIRECTION('',(1.,0.));
#834 = ( GEOMETRIC_REPRESENTATION_CONTEXT(2) 
PARAMETRIC_REPRESENTATION_CONTEXT() REPRESENTATION_CONTEXT('2D SPACE',''
  ) );
#835 = ORIENTED_EDGE('',*,*,#786,.F.);
#836 = ORIENTED_EDGE('',*,*,#750,.T.);
#837 = ADVANCED_FACE('',(#838),#824,.F.);
#838 = FACE_BOUND('',#839,.F.);
#839 = EDGE_LOOP('',(#840));
#840 = ORIENTED_EDGE('',*,*,#809,.T.);
#841 = ( GEOMETRIC_REPRESENTATION_CONTEXT(3) 
GLOBAL_UNCERTAINTY_ASSIGNED_CONTEXT((#845)) GLOBAL_UNIT_ASSIGNED_CONTEXT
((#842,#843,#844)) REPRESENTATION_CONTEXT('Context #1',
  '3D Context with UNIT and UNCERTAINTY') );
#842 = ( LENGTH_UNIT() NAMED_UNIT(*) SI_UNIT(.MILLI.,.METRE.) );
#843 = ( NAMED_UNIT(*) PLANE_ANGLE_UNIT() SI_UNIT($,.RADIAN.) );
#844 = ( NAMED_UNIT(*) SI_UNIT($,.STERADIAN.) SOLID_ANGLE_UNIT() );
#845 = UNCERTAINTY_MEASURE_WITH_UNIT(LENGTH_MEASURE(1.E-07),#842,
  'distance_accuracy_value','confusion accuracy');
#846 = PRODUCT_RELATED_PRODUCT_CATEGORY('part',$,(#7));
ENDSEC;
END-ISO-10303-21;
