ISO-10303-21;
HEADER;
FILE_DESCRIPTION(('Open CASCADE Model'),'2;1');
FILE_NAME('Open CASCADE Shape Model','2026-03-24T16:42:47',('Author'),(
    'Open CASCADE'),'Open CASCADE STEP processor 7.7','Open CASCADE 7.7'
  ,'Unknown');
FILE_SCHEMA(('AUTOMOTIVE_DESIGN { 1 0 10303 214 1 1 1 1 }'));
ENDSEC;
DATA;
#1 = APPLICATION_PROTOCOL_DEFINITION('international standard',
  'automotive_design',2000,#2);
#2 = APPLICATION_CONTEXT(
  'core data for automotive mechanical design processes');
#3 = SHAPE_DEFINITION_REPRESENTATION(#4,#10);
#4 = PRODUCT_DEFINITION_SHAPE('','',#5);
#5 = PRODUCT_DEFINITION('design','',#6,#9);
#6 = PRODUCT_DEFINITION_FORMATION('','',#7);
#7 = PRODUCT('Open CASCADE STEP translator 7.7 1',
  'Open CASCADE STEP translator 7.7 1','',(#8));
#8 = PRODUCT_CONTEXT('',#2,'mechanical');
#9 = PRODUCT_DEFINITION_CONTEXT('part definition',#2,'design');
#10 = ADVANCED_BREP_SHAPE_REPRESENTATION('',(#11,#15),#1293);
#11 = AXIS2_PLACEMENT_3D('',#12,#13,#14);
#12 = CARTESIAN_POINT('',(0.,0.,0.));
#13 = DIRECTION('',(0.,0.,1.));
#14 = DIRECTION('',(1.,0.,-0.));
#15 = MANIFOLD_SOLID_BREP('',#16);
#16 = CLOSED_SHELL('',(#17,#425,#862,#866,#901,#936,#991,#1046,#1101,
    #1105,#1140,#1144,#1199,#1234,#1289));
#17 = ADVANCED_FACE('',(#18),#32,.T.);
#18 = FACE_BOUND('',#19,.T.);
#19 = EDGE_LOOP('',(#20,#50,#77,#78));
#20 = ORIENTED_EDGE('',*,*,#21,.T.);
#21 = EDGE_CURVE('',#22,#24,#26,.T.);
#22 = VERTEX_POINT('',#23);
#23 = CARTESIAN_POINT('',(-2.192752634355,-11.79795897113,172.5));
#24 = VERTEX_POINT('',#25);
#25 = CARTESIAN_POINT('',(-3.169872981078,-13.49038105676,172.5));
#26 = SEAM_CURVE('',#27,(#31,#43),.PCURVE_S1.);
#27 = LINE('',#28,#29);
#28 = CARTESIAN_POINT('',(11.830127018922,12.490381056767,172.5));
#29 = VECTOR('',#30,1.);
#30 = DIRECTION('',(-0.5,-0.866025403784,1.110223024625E-16));
#31 = PCURVE('',#32,#37);
#32 = CYLINDRICAL_SURFACE('',#33,5.);
#33 = AXIS2_PLACEMENT_3D('',#34,#35,#36);
#34 = CARTESIAN_POINT('',(7.5,14.990381056767,172.5));
#35 = DIRECTION('',(-0.5,-0.866025403784,1.110223024625E-16));
#36 = DIRECTION('',(0.866025403784,-0.5,0.));
#37 = DEFINITIONAL_REPRESENTATION('',(#38),#42);
#38 = LINE('',#39,#40);
#39 = CARTESIAN_POINT('',(6.28318530718,-0.));
#40 = VECTOR('',#41,1.);
#41 = DIRECTION('',(0.,1.));
#42 = ( GEOMETRIC_REPRESENTATION_CONTEXT(2) 
PARAMETRIC_REPRESENTATION_CONTEXT() REPRESENTATION_CONTEXT('2D SPACE',''
  ) );
#43 = PCURVE('',#32,#44);
#44 = DEFINITIONAL_REPRESENTATION('',(#45),#49);
#45 = LINE('',#46,#47);
#46 = CARTESIAN_POINT('',(0.,-0.));
#47 = VECTOR('',#48,1.);
#48 = DIRECTION('',(0.,1.));
#49 = ( GEOMETRIC_REPRESENTATION_CONTEXT(2) 
PARAMETRIC_REPRESENTATION_CONTEXT() REPRESENTATION_CONTEXT('2D SPACE',''
  ) );
#50 = ORIENTED_EDGE('',*,*,#51,.F.);
#51 = EDGE_CURVE('',#24,#24,#52,.T.);
#52 = SURFACE_CURVE('',#53,(#58,#65),.PCURVE_S1.);
#53 = CIRCLE('',#54,5.);
#54 = AXIS2_PLACEMENT_3D('',#55,#56,#57);
#55 = CARTESIAN_POINT('',(-7.5,-10.99038105676,172.5));
#56 = DIRECTION('',(-0.5,-0.866025403784,1.110223024625E-16));
#57 = DIRECTION('',(0.866025403784,-0.5,0.));
#58 = PCURVE('',#32,#59);
#59 = DEFINITIONAL_REPRESENTATION('',(#60),#64);
#60 = LINE('',#61,#62);
#61 = CARTESIAN_POINT('',(0.,30.));
#62 = VECTOR('',#63,1.);
#63 = DIRECTION('',(1.,0.));
#64 = ( GEOMETRIC_REPRESENTATION_CONTEXT(2) 
PARAMETRIC_REPRESENTATION_CONTEXT() REPRESENTATION_CONTEXT('2D SPACE',''
  ) );
#65 = PCURVE('',#66,#71);
#66 = PLANE('',#67);
#67 = AXIS2_PLACEMENT_3D('',#68,#69,#70);
#68 = CARTESIAN_POINT('',(-7.5,-10.99038105676,172.5));
#69 = DIRECTION('',(-0.5,-0.866025403784,1.110223024625E-16));
#70 = DIRECTION('',(0.866025403784,-0.5,0.));
#71 = DEFINITIONAL_REPRESENTATION('',(#72),#76);
#72 = CIRCLE('',#73,5.);
#73 = AXIS2_PLACEMENT_2D('',#74,#75);
#74 = CARTESIAN_POINT('',(0.,0.));
#75 = DIRECTION('',(1.,0.));
#76 = ( GEOMETRIC_REPRESENTATION_CONTEXT(2) 
PARAMETRIC_REPRESENTATION_CONTEXT() REPRESENTATION_CONTEXT('2D SPACE',''
  ) );
#77 = ORIENTED_EDGE('',*,*,#21,.F.);
#78 = ORIENTED_EDGE('',*,*,#79,.T.);
#79 = EDGE_CURVE('',#22,#22,#80,.T.);
#80 = SURFACE_CURVE('',#81,(#192,#306),.PCURVE_S1.);
#81 = B_SPLINE_CURVE_WITH_KNOTS('',7,(#82,#83,#84,#85,#86,#87,#88,#89,
    #90,#91,#92,#93,#94,#95,#96,#97,#98,#99,#100,#101,#102,#103,#104,
    #105,#106,#107,#108,#109,#110,#111,#112,#113,#114,#115,#116,#117,
    #118,#119,#120,#121,#122,#123,#124,#125,#126,#127,#128,#129,#130,
    #131,#132,#133,#134,#135,#136,#137,#138,#139,#140,#141,#142,#143,
    #144,#145,#146,#147,#148,#149,#150,#151,#152,#153,#154,#155,#156,
    #157,#158,#159,#160,#161,#162,#163,#164,#165,#166,#167,#168,#169,
    #170,#171,#172,#173,#174,#175,#176,#177,#178,#179,#180,#181,#182,
    #183,#184,#185,#186,#187,#188,#189,#190,#191),.UNSPECIFIED.,.T.,.F.,
  (8,6,6,6,6,6,6,6,6,6,6,6,6,6,6,6,6,6,8),(0.,0.119487902545,
    0.178267359707,0.21580559019,0.267278103898,0.303352184967,
    0.33197026766,0.382848303038,0.419969794566,0.458074786118,
    0.500048003625,0.580309880175,0.63258298844,0.669630217713,
    0.699038137075,0.758940510893,0.798215383179,0.855398463679,1.),
  .UNSPECIFIED.);
#82 = CARTESIAN_POINT('',(-2.192752634355,-11.79795897113,172.5));
#83 = CARTESIAN_POINT('',(-2.192752634355,-11.79795897113,
    172.97209506504));
#84 = CARTESIAN_POINT('',(-2.246981404517,-11.78788028374,
    173.44316725137));
#85 = CARTESIAN_POINT('',(-2.355023096695,-11.76779874954,
    173.90976649626));
#86 = CARTESIAN_POINT('',(-2.516759006294,-11.7361170735,174.36824311606
    ));
#87 = CARTESIAN_POINT('',(-2.732169605549,-11.68964545014,
    174.81426739534));
#88 = CARTESIAN_POINT('',(-3.001045252866,-11.6234962839,175.24214303428
    ));
#89 = CARTESIAN_POINT('',(-3.480688193845,-11.48529050798,175.8413281796
    ));
#90 = CARTESIAN_POINT('',(-3.651819357293,-11.43323957155,
    176.03284948693));
#91 = CARTESIAN_POINT('',(-3.835918575877,-11.37385568963,
    176.21734534234));
#92 = CARTESIAN_POINT('',(-4.032914051372,-11.30616758736,
    176.39363131549));
#93 = CARTESIAN_POINT('',(-4.242622948568,-11.22908461485,
    176.56028529135));
#94 = CARTESIAN_POINT('',(-4.464705095355,-11.1414107385,176.71561043369
    ));
#95 = CARTESIAN_POINT('',(-4.848007622587,-10.97830492769,
    176.94826866632));
#96 = CARTESIAN_POINT('',(-5.002351790455,-10.90984240941,
    177.03358165931));
#97 = CARTESIAN_POINT('',(-5.161171383325,-10.83629047254,
    177.11277462944));
#98 = CARTESIAN_POINT('',(-5.323942169306,-10.75748239263,
    177.18514583951));
#99 = CARTESIAN_POINT('',(-5.490106419096,-10.67328881473,
    177.25004623366));
#100 = CARTESIAN_POINT('',(-5.659080736925,-10.58362714698,
    177.30687554968));
#101 = CARTESIAN_POINT('',(-6.064990652928,-10.35799254907,
    177.42117434105));
#102 = CARTESIAN_POINT('',(-6.303674718917,-10.21729209773,
    177.47099624731));
#103 = CARTESIAN_POINT('',(-6.54326611803,-10.06715895674,
    177.50274314892));
#104 = CARTESIAN_POINT('',(-6.780776296949,-9.908822693768,177.515485149
    ));
#105 = CARTESIAN_POINT('',(-7.013419497735,-9.743989579166,
    177.50912293344));
#106 = CARTESIAN_POINT('',(-7.238700535399,-9.574811309736,
    177.48438240349));
#107 = CARTESIAN_POINT('',(-7.605654467228,-9.283924280661,
    177.41373294372));
#108 = CARTESIAN_POINT('',(-7.752124631931,-9.163197477766,
    177.37638089573));
#109 = CARTESIAN_POINT('',(-7.893584110404,-9.042097208917,
    177.33125426126));
#110 = CARTESIAN_POINT('',(-8.02981158231,-8.921131835521,
    177.27885745244));
#111 = CARTESIAN_POINT('',(-8.16063463729,-8.800819299439,
    177.21973659318));
#112 = CARTESIAN_POINT('',(-8.28592464577,-8.681679995094,
    177.15448276141));
#113 = CARTESIAN_POINT('',(-8.50052515385,-8.47105460204,177.02761020758
    ));
#114 = CARTESIAN_POINT('',(-8.592010626293,-8.378853366934,176.967974293
    ));
#115 = CARTESIAN_POINT('',(-8.680114093444,-8.287766171691,
    176.90506217948));
#116 = CARTESIAN_POINT('',(-8.764906380568,-8.197924604751,
    176.83909462146));
#117 = CARTESIAN_POINT('',(-8.846462408865,-8.109451035355,
    176.77027873444));
#118 = CARTESIAN_POINT('',(-8.924860512487,-8.022458041355,
    176.69880829339));
#119 = CARTESIAN_POINT('',(-9.134089987982,-7.785203164386,
    176.49340383428));
#120 = CARTESIAN_POINT('',(-9.258319060066,-7.638308775818,
    176.35407938735));
#121 = CARTESIAN_POINT('',(-9.373402650997,-7.496845179795,
    176.20780721519));
#122 = CARTESIAN_POINT('',(-9.479858621453,-7.361213469178,
    176.05534464555));
#123 = CARTESIAN_POINT('',(-9.578176509238,-7.231755416263,
    175.89730904695));
#124 = CARTESIAN_POINT('',(-9.668805024928,-7.108773567837,
    175.73419706656));
#125 = CARTESIAN_POINT('',(-9.812941851525,-6.907753599799,
    175.44397905836));
#126 = CARTESIAN_POINT('',(-9.869858856175,-6.826557997331,
    175.31906764271));
#127 = CARTESIAN_POINT('',(-9.923029584723,-6.749095821157,
    175.19185381489));
#128 = CARTESIAN_POINT('',(-9.972581421606,-6.675492399883,
    175.06250499282));
#129 = CARTESIAN_POINT('',(-10.01863004334,-6.605867194952,
    174.93117193796));
#130 = CARTESIAN_POINT('',(-10.06127934942,-6.540333893193,
    174.79798887463));
#131 = CARTESIAN_POINT('',(-10.14100576852,-6.416042133306,
    174.52458388744));
#132 = CARTESIAN_POINT('',(-10.17790529758,-6.357509124573,
    174.38426874209));
#133 = CARTESIAN_POINT('',(-10.21140499672,-6.303540846469,
    174.24230354299));
#134 = CARTESIAN_POINT('',(-10.24158152668,-6.254264467834,
    174.09885542122));
#135 = CARTESIAN_POINT('',(-10.2685019349,-6.209794615673,
    173.95408335994));
#136 = CARTESIAN_POINT('',(-10.29222239773,-6.170233037777,173.808138285
    ));
#137 = CARTESIAN_POINT('',(-10.33543913823,-6.097594652077,
    173.49926785447));
#138 = CARTESIAN_POINT('',(-10.35426081647,-6.065585914167,
    173.3361317492));
#139 = CARTESIAN_POINT('',(-10.36930342823,-6.03977381293,
    173.17200508391));
#140 = CARTESIAN_POINT('',(-10.38060747444,-6.020258397443,
    173.00713410586));
#141 = CARTESIAN_POINT('',(-10.38820106178,-6.007107712547,
    172.84176116173));
#142 = CARTESIAN_POINT('',(-10.39209843823,-6.000357506868,
    172.67612479404));
#143 = CARTESIAN_POINT('',(-10.39268114503,-5.999348231542,
    172.19367258412));
#144 = CARTESIAN_POINT('',(-10.37954418522,-6.022101928021,
    171.87718825615));
#145 = CARTESIAN_POINT('',(-10.35294333394,-6.068190138029,171.562475599
    ));
#146 = CARTESIAN_POINT('',(-10.3126922793,-6.137182230684,
    171.25102526993));
#147 = CARTESIAN_POINT('',(-10.2583766274,-6.228289865268,
    170.94440020281));
#148 = CARTESIAN_POINT('',(-10.18941229858,-6.340369667595,
    170.64428374561));
#149 = CARTESIAN_POINT('',(-10.05026885632,-6.557625338251,
    170.16250874897));
#150 = CARTESIAN_POINT('',(-9.988868875875,-6.651627567207,
    169.97593012474));
#151 = CARTESIAN_POINT('',(-9.920695917878,-6.753643668797,
    169.79310069426));
#152 = CARTESIAN_POINT('',(-9.845441818345,-6.863364938513,
    169.61438370543));
#153 = CARTESIAN_POINT('',(-9.762748576182,-6.980464185028,
    169.44021013754));
#154 = CARTESIAN_POINT('',(-9.672214133755,-7.104585375884,
    169.27109418121));
#155 = CARTESIAN_POINT('',(-9.503364860206,-7.327997520289,
    168.99181092466));
#156 = CARTESIAN_POINT('',(-9.429160129931,-7.424005782494,
    168.87880158127));
#157 = CARTESIAN_POINT('',(-9.350606209732,-7.523243701214,
    168.76881193249));
#158 = CARTESIAN_POINT('',(-9.267517277038,-7.625581116022,
    168.66207298062));
#159 = CARTESIAN_POINT('',(-9.179699419666,-7.730871545389,
    168.5588556131));
#160 = CARTESIAN_POINT('',(-9.086950611862,-7.838951657425,
    168.4594707294));
#161 = CARTESIAN_POINT('',(-8.911356123122,-8.037505223262,
    168.28869896741));
#162 = CARTESIAN_POINT('',(-8.830398227493,-8.127029288567,
    168.21575132668));
#163 = CARTESIAN_POINT('',(-8.746100742722,-8.218099919009,
    168.14562505786));
#164 = CARTESIAN_POINT('',(-8.658380725678,-8.310592519117,
    168.07853281851));
#165 = CARTESIAN_POINT('',(-8.567159367703,-8.404371612676,
    168.01470167275));
#166 = CARTESIAN_POINT('',(-8.472362811469,-8.499291539922,
    167.95437345227));
#167 = CARTESIAN_POINT('',(-8.173406221338,-8.790551811377,
    167.78257841583));
#168 = CARTESIAN_POINT('',(-7.956173486803,-8.991554474519,
    167.68203306838));
#169 = CARTESIAN_POINT('',(-7.723316866238,-9.194964518486,167.600000165
    ));
#170 = CARTESIAN_POINT('',(-7.476381481537,-9.397564232238,
    167.53944171698));
#171 = CARTESIAN_POINT('',(-7.217404832722,-9.596391462326,
    167.50251549878));
#172 = CARTESIAN_POINT('',(-6.948892265105,-9.788897612328,
    167.49060042649));
#173 = CARTESIAN_POINT('',(-6.493317999632,-10.0937576875,
    167.51325307879));
#174 = CARTESIAN_POINT('',(-6.311141660835,-10.2101534699,
    167.53317286388));
#175 = CARTESIAN_POINT('',(-6.128282823366,-10.32157944807,
    167.56395626025));
#176 = CARTESIAN_POINT('',(-5.945886914945,-10.4275326888,
    167.60528786126));
#177 = CARTESIAN_POINT('',(-5.76514175141,-10.52765023445,
    167.65662304514));
#178 = CARTESIAN_POINT('',(-5.58725041646,-10.62170327462,
    167.71718376032));
#179 = CARTESIAN_POINT('',(-5.160270869548,-10.83752960762,
    167.88607036336));
#180 = CARTESIAN_POINT('',(-4.915803535579,-10.95233780513,
    168.00354519602));
#181 = CARTESIAN_POINT('',(-4.68118530903,-11.05492326918,
    168.13617156626));
#182 = CARTESIAN_POINT('',(-4.457409465059,-11.1462770602,
    168.28191391288));
#183 = CARTESIAN_POINT('',(-4.245270965284,-11.22740696114,
    168.43887234891));
#184 = CARTESIAN_POINT('',(-4.045371438439,-11.29929515795,
    168.6052573273));
#185 = CARTESIAN_POINT('',(-3.384644452671,-11.52363729705,
    169.21965737361));
#186 = CARTESIAN_POINT('',(-2.987672513318,-11.63275235899,
    169.71347772005));
#187 = CARTESIAN_POINT('',(-2.670157129563,-11.70567848984,
    170.24111851245));
#188 = CARTESIAN_POINT('',(-2.432074759016,-11.75347803128,
    170.79079497464));
#189 = CARTESIAN_POINT('',(-2.272967576654,-11.78305044629,
    171.35429024636));
#190 = CARTESIAN_POINT('',(-2.192752634355,-11.79795897113,
    171.9258348008));
#191 = CARTESIAN_POINT('',(-2.192752634355,-11.79795897113,172.5));
#192 = PCURVE('',#32,#193);
#193 = DEFINITIONAL_REPRESENTATION('',(#194),#305);
#194 = B_SPLINE_CURVE_WITH_KNOTS('',7,(#195,#196,#197,#198,#199,#200,
    #201,#202,#203,#204,#205,#206,#207,#208,#209,#210,#211,#212,#213,
    #214,#215,#216,#217,#218,#219,#220,#221,#222,#223,#224,#225,#226,
    #227,#228,#229,#230,#231,#232,#233,#234,#235,#236,#237,#238,#239,
    #240,#241,#242,#243,#244,#245,#246,#247,#248,#249,#250,#251,#252,
    #253,#254,#255,#256,#257,#258,#259,#260,#261,#262,#263,#264,#265,
    #266,#267,#268,#269,#270,#271,#272,#273,#274,#275,#276,#277,#278,
    #279,#280,#281,#282,#283,#284,#285,#286,#287,#288,#289,#290,#291,
    #292,#293,#294,#295,#296,#297,#298,#299,#300,#301,#302,#303,#304),
  .UNSPECIFIED.,.F.,.F.,(8,6,6,6,6,6,6,6,6,6,6,6,6,6,6,6,6,6,8),(0.,
    0.119487902545,0.178267359707,0.21580559019,0.267278103898,
    0.303352184967,0.33197026766,0.382848303038,0.419969794566,
    0.458074786118,0.500048003625,0.580309880175,0.63258298844,
    0.669630217713,0.699038137075,0.758940510893,0.798215383179,
    0.855398463679,1.),.UNSPECIFIED.);
#195 = CARTESIAN_POINT('',(0.,28.045759306554));
#196 = CARTESIAN_POINT('',(9.441901300892E-02,28.045759306554));
#197 = CARTESIAN_POINT('',(0.188633321665,28.064145292323));
#198 = CARTESIAN_POINT('',(0.283328611368,28.100775019645));
#199 = CARTESIAN_POINT('',(0.379120484819,28.154205838157));
#200 = CARTESIAN_POINT('',(0.476667138171,28.221665531398));
#201 = CARTESIAN_POINT('',(0.576651458283,28.298816496661));
#202 = CARTESIAN_POINT('',(0.73076172874,28.418948254247));
#203 = CARTESIAN_POINT('',(0.782456813788,28.459436402731));
#204 = CARTESIAN_POINT('',(0.835146718565,28.500058061706));
#205 = CARTESIAN_POINT('',(0.888948747196,28.539936183359));
#206 = CARTESIAN_POINT('',(0.943983744886,28.57803481956));
#207 = CARTESIAN_POINT('',(1.000381468937,28.613148088784));
#208 = CARTESIAN_POINT('',(1.09527388788,28.663545576742));
#209 = CARTESIAN_POINT('',(1.132905823204,28.681427380634));
#210 = CARTESIAN_POINT('',(1.171139396566,28.697139331242));
#211 = CARTESIAN_POINT('',(1.209936680471,28.710274925003));
#212 = CARTESIAN_POINT('',(1.249267860718,28.720443272605));
#213 = CARTESIAN_POINT('',(1.289109735415,28.727281149504));
#214 = CARTESIAN_POINT('',(1.384750949955,28.734830813738));
#215 = CARTESIAN_POINT('',(1.440937835362,28.732322681553));
#216 = CARTESIAN_POINT('',(1.497605687949,28.722099267062));
#217 = CARTESIAN_POINT('',(1.554403491589,28.703731130442));
#218 = CARTESIAN_POINT('',(1.610997957913,28.677303066205));
#219 = CARTESIAN_POINT('',(1.667042168221,28.643430905942));
#220 = CARTESIAN_POINT('',(1.760760460397,28.574992315046));
#221 = CARTESIAN_POINT('',(1.798900858147,28.543674919173));
#222 = CARTESIAN_POINT('',(1.836548628099,28.509528749182));
#223 = CARTESIAN_POINT('',(1.873684154863,28.472883398795));
#224 = CARTESIAN_POINT('',(1.910282554932,28.434101213645));
#225 = CARTESIAN_POINT('',(1.946312163115,28.393568553733));
#226 = CARTESIAN_POINT('',(2.009832888787,28.318461866706));
#227 = CARTESIAN_POINT('',(2.037576491491,28.284355991065));
#228 = CARTESIAN_POINT('',(2.064978915933,28.249523899601));
#229 = CARTESIAN_POINT('',(2.09205385648,28.214114963877));
#230 = CARTESIAN_POINT('',(2.118814030636,28.178272619365));
#231 = CARTESIAN_POINT('',(2.145271596663,28.142133528421));
#232 = CARTESIAN_POINT('',(2.217958957316,28.041279515541));
#233 = CARTESIAN_POINT('',(2.263576975356,27.97617977941));
#234 = CARTESIAN_POINT('',(2.308389519529,27.911210507009));
#235 = CARTESIAN_POINT('',(2.352488419997,27.846977985284));
#236 = CARTESIAN_POINT('',(2.395962325691,27.784022966627));
#237 = CARTESIAN_POINT('',(2.438898587103,27.722831819531));
#238 = CARTESIAN_POINT('',(2.512384059719,27.620811833841));
#239 = CARTESIAN_POINT('',(2.543142181255,27.578952881753));
#240 = CARTESIAN_POINT('',(2.573685749367,27.538454033627));
#241 = CARTESIAN_POINT('',(2.604039457164,27.499487519441));
#242 = CARTESIAN_POINT('',(2.634227238898,27.462214634095));
#243 = CARTESIAN_POINT('',(2.664273063653,27.426785783019));
#244 = CARTESIAN_POINT('',(2.724923327086,27.359009171026));
#245 = CARTESIAN_POINT('',(2.755521505357,27.326767863033));
#246 = CARTESIAN_POINT('',(2.78601234744,27.296779812765));
#247 = CARTESIAN_POINT('',(2.816411605195,27.269193482044));
#248 = CARTESIAN_POINT('',(2.846735069984,27.24414166448));
#249 = CARTESIAN_POINT('',(2.876998943903,27.221740564419));
#250 = CARTESIAN_POINT('',(2.940509388272,27.180442247362));
#251 = CARTESIAN_POINT('',(2.973745013142,27.162132706311));
#252 = CARTESIAN_POINT('',(3.006937686015,27.147300076795));
#253 = CARTESIAN_POINT('',(3.040098171023,27.136051254324));
#254 = CARTESIAN_POINT('',(3.073237590719,27.128459220795));
#255 = CARTESIAN_POINT('',(3.106367620755,27.124562059421));
#256 = CARTESIAN_POINT('',(3.202858273876,27.123979354749));
#257 = CARTESIAN_POINT('',(3.266145455598,27.137116154028));
#258 = CARTESIAN_POINT('',(3.329484051276,27.163729289068));
#259 = CARTESIAN_POINT('',(3.392986955196,27.203352666648));
#260 = CARTESIAN_POINT('',(3.456761979865,27.255096366727));
#261 = CARTESIAN_POINT('',(3.520911232946,27.317678158385));
#262 = CARTESIAN_POINT('',(3.627608471317,27.436255367158));
#263 = CARTESIAN_POINT('',(3.669912029467,27.486963695221));
#264 = CARTESIAN_POINT('',(3.712508359803,27.541225751794));
#265 = CARTESIAN_POINT('',(3.755468763335,27.598620108937));
#266 = CARTESIAN_POINT('',(3.798865558558,27.658684410101));
#267 = CARTESIAN_POINT('',(3.842773457596,27.720909293317));
#268 = CARTESIAN_POINT('',(3.918807397214,27.829965249112));
#269 = CARTESIAN_POINT('',(3.950645338789,27.876008478017));
#270 = CARTESIAN_POINT('',(3.982821123152,27.922674076547));
#271 = CARTESIAN_POINT('',(4.015369365569,27.969756411182));
#272 = CARTESIAN_POINT('',(4.048324565642,28.017031669103));
#273 = CARTESIAN_POINT('',(4.081722732448,28.064257387868));
#274 = CARTESIAN_POINT('',(4.142497017164,28.148412575525));
#275 = CARTESIAN_POINT('',(4.169699586325,28.185463742515));
#276 = CARTESIAN_POINT('',(4.197223211792,28.22218447963));
#277 = CARTESIAN_POINT('',(4.225080581802,28.258425412463));
#278 = CARTESIAN_POINT('',(4.253285042068,28.294029810842));
#279 = CARTESIAN_POINT('',(4.281851059645,28.328834601047));
#280 = CARTESIAN_POINT('',(4.36975132196,28.431595100173));
#281 = CARTESIAN_POINT('',(4.430744981806,28.497052145415));
#282 = CARTESIAN_POINT('',(4.493338647358,28.556782100593));
#283 = CARTESIAN_POINT('',(4.557196812554,28.608770907152));
#284 = CARTESIAN_POINT('',(4.622047092496,28.651472014964));
#285 = CARTESIAN_POINT('',(4.687650473711,28.683930947442));
#286 = CARTESIAN_POINT('',(4.797138034164,28.720160384407));
#287 = CARTESIAN_POINT('',(4.840459335231,28.729873919462));
#288 = CARTESIAN_POINT('',(4.883625246396,28.734942228466));
#289 = CARTESIAN_POINT('',(4.926516746302,28.735502472341));
#290 = CARTESIAN_POINT('',(4.969008575895,28.731834228466));
#291 = CARTESIAN_POINT('',(5.010962898243,28.724340883085));
#292 = CARTESIAN_POINT('',(5.112295774965,28.697762196815));
#293 = CARTESIAN_POINT('',(5.1708730264,28.674955345434));
#294 = CARTESIAN_POINT('',(5.228053544304,28.646487850083));
#295 = CARTESIAN_POINT('',(5.283908212651,28.613714631856));
#296 = CARTESIAN_POINT('',(5.338489153474,28.577905937185));
#297 = CARTESIAN_POINT('',(5.391833253279,28.540213178431));
#298 = CARTESIAN_POINT('',(5.575774534742,28.404135677154));
#299 = CARTESIAN_POINT('',(5.701037451376,28.300146123054));
#300 = CARTESIAN_POINT('',(5.821620450549,28.204544313086));
#301 = CARTESIAN_POINT('',(5.938869315509,28.126898744988));
#302 = CARTESIAN_POINT('',(6.054043800457,28.072955616458));
#303 = CARTESIAN_POINT('',(6.16835226734,28.045759306554));
#304 = CARTESIAN_POINT('',(6.28318530718,28.045759306554));
#305 = ( GEOMETRIC_REPRESENTATION_CONTEXT(2) 
PARAMETRIC_REPRESENTATION_CONTEXT() REPRESENTATION_CONTEXT('2D SPACE',''
  ) );
#306 = PCURVE('',#307,#312);
#307 = CYLINDRICAL_SURFACE('',#308,12.);
#308 = AXIS2_PLACEMENT_3D('',#309,#310,#311);
#309 = CARTESIAN_POINT('',(0.,0.,150.));
#310 = DIRECTION('',(0.,0.,1.));
#311 = DIRECTION('',(1.,0.,0.));
#312 = DEFINITIONAL_REPRESENTATION('',(#313),#424);
#313 = B_SPLINE_CURVE_WITH_KNOTS('',7,(#314,#315,#316,#317,#318,#319,
    #320,#321,#322,#323,#324,#325,#326,#327,#328,#329,#330,#331,#332,
    #333,#334,#335,#336,#337,#338,#339,#340,#341,#342,#343,#344,#345,
    #346,#347,#348,#349,#350,#351,#352,#353,#354,#355,#356,#357,#358,
    #359,#360,#361,#362,#363,#364,#365,#366,#367,#368,#369,#370,#371,
    #372,#373,#374,#375,#376,#377,#378,#379,#380,#381,#382,#383,#384,
    #385,#386,#387,#388,#389,#390,#391,#392,#393,#394,#395,#396,#397,
    #398,#399,#400,#401,#402,#403,#404,#405,#406,#407,#408,#409,#410,
    #411,#412,#413,#414,#415,#416,#417,#418,#419,#420,#421,#422,#423),
  .UNSPECIFIED.,.T.,.F.,(8,6,6,6,6,6,6,6,6,6,6,6,6,6,6,6,6,6,8),(0.,
    0.119487902545,0.178267359707,0.21580559019,0.267278103898,
    0.303352184967,0.33197026766,0.382848303038,0.419969794566,
    0.458074786118,0.500048003625,0.580309880175,0.63258298844,
    0.669630217713,0.699038137075,0.758940510893,0.798215383179,
    0.855398463679,1.),.UNSPECIFIED.);
#314 = CARTESIAN_POINT('',(4.528627114241,22.5));
#315 = CARTESIAN_POINT('',(4.528627114241,22.972095065045));
#316 = CARTESIAN_POINT('',(4.524030674727,23.443167251371));
#317 = CARTESIAN_POINT('',(4.514872939749,23.909766496269));
#318 = CARTESIAN_POINT('',(4.501139609986,24.368243116068));
#319 = CARTESIAN_POINT('',(4.482782930341,24.814267395347));
#320 = CARTESIAN_POINT('',(4.459726317248,25.242143034289));
#321 = CARTESIAN_POINT('',(4.418129860791,25.8413281796));
#322 = CARTESIAN_POINT('',(4.403225482009,26.032849486933));
#323 = CARTESIAN_POINT('',(4.387109266,26.217345342349));
#324 = CARTESIAN_POINT('',(4.369757065669,26.393631315496));
#325 = CARTESIAN_POINT('',(4.351145957788,26.56028529135));
#326 = CARTESIAN_POINT('',(4.331256034173,26.715610433696));
#327 = CARTESIAN_POINT('',(4.296542490857,26.948268666327));
#328 = CARTESIAN_POINT('',(4.282473530702,27.033581659315));
#329 = CARTESIAN_POINT('',(4.267891329859,27.112774629447));
#330 = CARTESIAN_POINT('',(4.252825079729,27.185145839518));
#331 = CARTESIAN_POINT('',(4.237306284147,27.250046233662));
#332 = CARTESIAN_POINT('',(4.22136856879,27.306875549688));
#333 = CARTESIAN_POINT('',(4.182667988145,27.421174341057));
#334 = CARTESIAN_POINT('',(4.159586348464,27.470996247313));
#335 = CARTESIAN_POINT('',(4.136038543122,27.502743148928));
#336 = CARTESIAN_POINT('',(4.112268157002,27.515485149008));
#337 = CARTESIAN_POINT('',(4.088523078845,27.509122933446));
#338 = CARTESIAN_POINT('',(4.065053426219,27.484382403495));
#339 = CARTESIAN_POINT('',(4.026031490457,27.413732943726));
#340 = CARTESIAN_POINT('',(4.010216740188,27.376380895735));
#341 = CARTESIAN_POINT('',(3.99470304873,27.331254261261));
#342 = CARTESIAN_POINT('',(3.979525460307,27.278857452447));
#343 = CARTESIAN_POINT('',(3.96471757771,27.21973659318));
#344 = CARTESIAN_POINT('',(3.950311671234,27.154482761414));
#345 = CARTESIAN_POINT('',(3.925253899892,27.027610207587));
#346 = CARTESIAN_POINT('',(3.91443092436,26.967974293001));
#347 = CARTESIAN_POINT('',(3.903871892844,26.905062179487));
#348 = CARTESIAN_POINT('',(3.893578524312,26.839094621468));
#349 = CARTESIAN_POINT('',(3.883552182433,26.770278734442));
#350 = CARTESIAN_POINT('',(3.873793833116,26.698808293395));
#351 = CARTESIAN_POINT('',(3.847432712484,26.493403834288));
#352 = CARTESIAN_POINT('',(3.831404306904,26.354079387353));
#353 = CARTESIAN_POINT('',(3.816211616999,26.207807215199));
#354 = CARTESIAN_POINT('',(3.801846778511,26.055344645558));
#355 = CARTESIAN_POINT('',(3.788302418972,25.897309046958));
#356 = CARTESIAN_POINT('',(3.775572845427,25.734197066567));
#357 = CARTESIAN_POINT('',(3.75495993612,25.44397905836));
#358 = CARTESIAN_POINT('',(3.746697254891,25.319067642716));
#359 = CARTESIAN_POINT('',(3.73886825973,25.191853814892));
#360 = CARTESIAN_POINT('',(3.731474653672,25.062504992823));
#361 = CARTESIAN_POINT('',(3.724518682405,24.931171937961));
#362 = CARTESIAN_POINT('',(3.718003045139,24.797988874636));
#363 = CARTESIAN_POINT('',(3.705697687375,24.524583887449));
#364 = CARTESIAN_POINT('',(3.699931770803,24.384268742096));
#365 = CARTESIAN_POINT('',(3.694638615306,24.242303542991));
#366 = CARTESIAN_POINT('',(3.689823558314,24.098855421222));
#367 = CARTESIAN_POINT('',(3.685491669529,23.954083359947));
#368 = CARTESIAN_POINT('',(3.681647705311,23.808138285002));
#369 = CARTESIAN_POINT('',(3.67460417906,23.499267854478));
#370 = CARTESIAN_POINT('',(3.671509850108,23.336131749202));
#371 = CARTESIAN_POINT('',(3.669020252045,23.17200508391));
#372 = CARTESIAN_POINT('',(3.667140846658,23.00713410586));
#373 = CARTESIAN_POINT('',(3.665875371603,22.841761161735));
#374 = CARTESIAN_POINT('',(3.665225830323,22.676124794043));
#375 = CARTESIAN_POINT('',(3.665128712701,22.193672584125));
#376 = CARTESIAN_POINT('',(3.667318181755,21.877188256155));
#377 = CARTESIAN_POINT('',(3.671752717084,21.562475599004));
#378 = CARTESIAN_POINT('',(3.678408875436,21.25102526993));
#379 = CARTESIAN_POINT('',(3.687247136573,20.944400202812));
#380 = CARTESIAN_POINT('',(3.698211817063,20.644283745612));
#381 = CARTESIAN_POINT('',(3.719711320281,20.162508748976));
#382 = CARTESIAN_POINT('',(3.729067443792,19.975930124743));
#383 = CARTESIAN_POINT('',(3.739291368578,19.793100694267));
#384 = CARTESIAN_POINT('',(3.750377155295,19.614383705437));
#385 = CARTESIAN_POINT('',(3.762321232178,19.440210137541));
#386 = CARTESIAN_POINT('',(3.775121996337,19.271094181218));
#387 = CARTESIAN_POINT('',(3.798458761479,18.99181092466));
#388 = CARTESIAN_POINT('',(3.808570017986,18.878801581279));
#389 = CARTESIAN_POINT('',(3.819116002551,18.768811932492));
#390 = CARTESIAN_POINT('',(3.830099464656,18.662072980629));
#391 = CARTESIAN_POINT('',(3.841523221791,18.558855613106));
#392 = CARTESIAN_POINT('',(3.85339029594,18.459470729404));
#393 = CARTESIAN_POINT('',(3.875478651184,18.288698967415));
#394 = CARTESIAN_POINT('',(3.885536453296,18.21575132668));
#395 = CARTESIAN_POINT('',(3.895876687215,18.145625057862));
#396 = CARTESIAN_POINT('',(3.906498079092,18.078532818517));
#397 = CARTESIAN_POINT('',(3.917398897985,18.014701672759));
#398 = CARTESIAN_POINT('',(3.928577003422,17.954373452272));
#399 = CARTESIAN_POINT('',(3.963358822239,17.782578415834));
#400 = CARTESIAN_POINT('',(3.988013985477,17.682033068385));
#401 = CARTESIAN_POINT('',(4.013762314569,17.600000165009));
#402 = CARTESIAN_POINT('',(4.040356198447,17.539441716981));
#403 = CARTESIAN_POINT('',(4.0675410847,17.502515498787));
#404 = CARTESIAN_POINT('',(4.095059298699,17.490600426493));
#405 = CARTESIAN_POINT('',(4.140739921323,17.513253078794));
#406 = CARTESIAN_POINT('',(4.158751341778,17.533172863885));
#407 = CARTESIAN_POINT('',(4.176589358606,17.563956260257));
#408 = CARTESIAN_POINT('',(4.1941606649,17.605287861262));
#409 = CARTESIAN_POINT('',(4.211373761158,17.656623045143));
#410 = CARTESIAN_POINT('',(4.228139653976,17.71718376032));
#411 = CARTESIAN_POINT('',(4.268008583286,17.886070363362));
#412 = CARTESIAN_POINT('',(4.290506112982,18.003545196024));
#413 = CARTESIAN_POINT('',(4.311833247624,18.136171566269));
#414 = CARTESIAN_POINT('',(4.331965513627,18.281913912889));
#415 = CARTESIAN_POINT('',(4.350886119137,18.438872348913));
#416 = CARTESIAN_POINT('',(4.368586020074,18.605257327302));
#417 = CARTESIAN_POINT('',(4.426733912525,19.219657373615));
#418 = CARTESIAN_POINT('',(4.460982019853,19.713477720059));
#419 = CARTESIAN_POINT('',(4.488108599494,20.241118512454));
#420 = CARTESIAN_POINT('',(4.508341847818,20.790794974645));
#421 = CARTESIAN_POINT('',(4.521828108751,21.354290246361));
#422 = CARTESIAN_POINT('',(4.528627114241,21.925834800803));
#423 = CARTESIAN_POINT('',(4.528627114241,22.5));
#424 = ( GEOMETRIC_REPRESENTATION_CONTEXT(2) 
PARAMETRIC_REPRESENTATION_CONTEXT() REPRESENTATION_CONTEXT('2D SPACE',''
  ) );
#425 = ADVANCED_FACE('',(#426,#508,#859),#307,.T.);
#426 = FACE_BOUND('',#427,.T.);
#427 = EDGE_LOOP('',(#428,#453,#480,#481));
#428 = ORIENTED_EDGE('',*,*,#429,.T.);
#429 = EDGE_CURVE('',#430,#432,#434,.T.);
#430 = VERTEX_POINT('',#431);
#431 = CARTESIAN_POINT('',(12.,-2.939152317954E-15,150.));
#432 = VERTEX_POINT('',#433);
#433 = CARTESIAN_POINT('',(12.,-2.939152317954E-15,180.));
#434 = SEAM_CURVE('',#435,(#439,#446),.PCURVE_S1.);
#435 = LINE('',#436,#437);
#436 = CARTESIAN_POINT('',(12.,-2.939152317954E-15,150.));
#437 = VECTOR('',#438,1.);
#438 = DIRECTION('',(0.,0.,1.));
#439 = PCURVE('',#307,#440);
#440 = DEFINITIONAL_REPRESENTATION('',(#441),#445);
#441 = LINE('',#442,#443);
#442 = CARTESIAN_POINT('',(6.28318530718,-0.));
#443 = VECTOR('',#444,1.);
#444 = DIRECTION('',(0.,1.));
#445 = ( GEOMETRIC_REPRESENTATION_CONTEXT(2) 
PARAMETRIC_REPRESENTATION_CONTEXT() REPRESENTATION_CONTEXT('2D SPACE',''
  ) );
#446 = PCURVE('',#307,#447);
#447 = DEFINITIONAL_REPRESENTATION('',(#448),#452);
#448 = LINE('',#449,#450);
#449 = CARTESIAN_POINT('',(0.,-0.));
#450 = VECTOR('',#451,1.);
#451 = DIRECTION('',(0.,1.));
#452 = ( GEOMETRIC_REPRESENTATION_CONTEXT(2) 
PARAMETRIC_REPRESENTATION_CONTEXT() REPRESENTATION_CONTEXT('2D SPACE',''
  ) );
#453 = ORIENTED_EDGE('',*,*,#454,.F.);
#454 = EDGE_CURVE('',#432,#432,#455,.T.);
#455 = SURFACE_CURVE('',#456,(#461,#468),.PCURVE_S1.);
#456 = CIRCLE('',#457,12.);
#457 = AXIS2_PLACEMENT_3D('',#458,#459,#460);
#458 = CARTESIAN_POINT('',(0.,0.,180.));
#459 = DIRECTION('',(0.,0.,1.));
#460 = DIRECTION('',(1.,0.,0.));
#461 = PCURVE('',#307,#462);
#462 = DEFINITIONAL_REPRESENTATION('',(#463),#467);
#463 = LINE('',#464,#465);
#464 = CARTESIAN_POINT('',(0.,30.));
#465 = VECTOR('',#466,1.);
#466 = DIRECTION('',(1.,0.));
#467 = ( GEOMETRIC_REPRESENTATION_CONTEXT(2) 
PARAMETRIC_REPRESENTATION_CONTEXT() REPRESENTATION_CONTEXT('2D SPACE',''
  ) );
#468 = PCURVE('',#469,#474);
#469 = PLANE('',#470);
#470 = AXIS2_PLACEMENT_3D('',#471,#472,#473);
#471 = CARTESIAN_POINT('',(0.,0.,180.));
#472 = DIRECTION('',(0.,0.,1.));
#473 = DIRECTION('',(1.,0.,0.));
#474 = DEFINITIONAL_REPRESENTATION('',(#475),#479);
#475 = CIRCLE('',#476,12.);
#476 = AXIS2_PLACEMENT_2D('',#477,#478);
#477 = CARTESIAN_POINT('',(0.,0.));
#478 = DIRECTION('',(1.,0.));
#479 = ( GEOMETRIC_REPRESENTATION_CONTEXT(2) 
PARAMETRIC_REPRESENTATION_CONTEXT() REPRESENTATION_CONTEXT('2D SPACE',''
  ) );
#480 = ORIENTED_EDGE('',*,*,#429,.F.);
#481 = ORIENTED_EDGE('',*,*,#482,.T.);
#482 = EDGE_CURVE('',#430,#430,#483,.T.);
#483 = SURFACE_CURVE('',#484,(#489,#496),.PCURVE_S1.);
#484 = CIRCLE('',#485,12.);
#485 = AXIS2_PLACEMENT_3D('',#486,#487,#488);
#486 = CARTESIAN_POINT('',(0.,0.,150.));
#487 = DIRECTION('',(0.,0.,1.));
#488 = DIRECTION('',(1.,0.,0.));
#489 = PCURVE('',#307,#490);
#490 = DEFINITIONAL_REPRESENTATION('',(#491),#495);
#491 = LINE('',#492,#493);
#492 = CARTESIAN_POINT('',(0.,0.));
#493 = VECTOR('',#494,1.);
#494 = DIRECTION('',(1.,0.));
#495 = ( GEOMETRIC_REPRESENTATION_CONTEXT(2) 
PARAMETRIC_REPRESENTATION_CONTEXT() REPRESENTATION_CONTEXT('2D SPACE',''
  ) );
#496 = PCURVE('',#497,#502);
#497 = PLANE('',#498);
#498 = AXIS2_PLACEMENT_3D('',#499,#500,#501);
#499 = CARTESIAN_POINT('',(0.,0.,150.));
#500 = DIRECTION('',(0.,0.,1.));
#501 = DIRECTION('',(1.,0.,0.));
#502 = DEFINITIONAL_REPRESENTATION('',(#503),#507);
#503 = CIRCLE('',#504,12.);
#504 = AXIS2_PLACEMENT_2D('',#505,#506);
#505 = CARTESIAN_POINT('',(0.,0.));
#506 = DIRECTION('',(1.,0.));
#507 = ( GEOMETRIC_REPRESENTATION_CONTEXT(2) 
PARAMETRIC_REPRESENTATION_CONTEXT() REPRESENTATION_CONTEXT('2D SPACE',''
  ) );
#508 = FACE_BOUND('',#509,.T.);
#509 = EDGE_LOOP('',(#510));
#510 = ORIENTED_EDGE('',*,*,#511,.T.);
#511 = EDGE_CURVE('',#512,#512,#514,.T.);
#512 = VERTEX_POINT('',#513);
#513 = CARTESIAN_POINT('',(9.12095586463,7.797958971133,172.5));
#514 = SURFACE_CURVE('',#515,(#626,#740),.PCURVE_S1.);
#515 = B_SPLINE_CURVE_WITH_KNOTS('',7,(#516,#517,#518,#519,#520,#521,
    #522,#523,#524,#525,#526,#527,#528,#529,#530,#531,#532,#533,#534,
    #535,#536,#537,#538,#539,#540,#541,#542,#543,#544,#545,#546,#547,
    #548,#549,#550,#551,#552,#553,#554,#555,#556,#557,#558,#559,#560,
    #561,#562,#563,#564,#565,#566,#567,#568,#569,#570,#571,#572,#573,
    #574,#575,#576,#577,#578,#579,#580,#581,#582,#583,#584,#585,#586,
    #587,#588,#589,#590,#591,#592,#593,#594,#595,#596,#597,#598,#599,
    #600,#601,#602,#603,#604,#605,#606,#607,#608,#609,#610,#611,#612,
    #613,#614,#615,#616,#617,#618,#619,#620,#621,#622,#623,#624,#625),
  .UNSPECIFIED.,.T.,.F.,(8,6,6,6,6,6,6,6,6,6,6,6,6,6,6,6,6,6,8),(0.,
    0.119487902151,0.17826735911,0.215805589459,0.267278102984,
    0.303352183925,0.331970266514,0.382848301705,0.419969793096,
    0.458074784506,0.500048001858,0.58030987811,0.632582986186,
    0.669630215328,0.699038134584,0.758940508241,0.798215380467,
    0.855398460891,1.),.UNSPECIFIED.);
#516 = CARTESIAN_POINT('',(9.12095586463,7.797958971133,172.5));
#517 = CARTESIAN_POINT('',(9.12095586463,7.797958971133,172.97209506504)
  );
#518 = CARTESIAN_POINT('',(9.085113080236,7.839883120017,173.44316725137
    ));
#519 = CARTESIAN_POINT('',(9.013701115381,7.923409203009,173.90976649626
    ));
#520 = CARTESIAN_POINT('',(8.905396024294,8.047635771405,174.36824311606
    ));
#521 = CARTESIAN_POINT('',(8.75744511828,8.210951010924,174.81426739534)
  );
#522 = CARTESIAN_POINT('',(8.565720436227,8.410729568843,175.24214303428
    ));
#523 = CARTESIAN_POINT('',(8.206209252853,8.757009652494,175.84132817956
    ));
#524 = CARTESIAN_POINT('',(8.075566237874,8.879188119219,176.03284948693
    ));
#525 = CARTESIAN_POINT('',(7.932088678244,9.00893077839,176.21734534237)
  );
#526 = CARTESIAN_POINT('',(7.774971324397,9.145689813468,176.39363131551
    ));
#527 = CARTESIAN_POINT('',(7.603361063423,9.288761559563,176.56028529134
    ));
#528 = CARTESIAN_POINT('',(7.416392185886,9.437253402213,176.71561043367
    ));
#529 = CARTESIAN_POINT('',(7.083487146583,9.687650222753,176.94826866632
    ));
#530 = CARTESIAN_POINT('',(6.947024782609,9.787084933908,177.03358165931
    ));
#531 = CARTESIAN_POINT('',(6.803917140351,9.887850767515,177.11277462944
    ));
#532 = CARTESIAN_POINT('',(6.654281948131,9.989410363212,177.18514583951
    ));
#533 = CARTESIAN_POINT('',(6.49828604594,10.091216035785,177.25004623366
    ));
#534 = CARTESIAN_POINT('',(6.336149605006,10.192721253739,
    177.30687554968));
#535 = CARTESIAN_POINT('',(5.937789353241,10.431432253686,
    177.42117434105));
#536 = CARTESIAN_POINT('',(5.696597155068,10.567788492644,
    177.47099624731));
#537 = CARTESIAN_POINT('',(5.446782341463,10.700214160309,
    177.50274314892));
#538 = CARTESIAN_POINT('',(5.190904025924,10.826735877422,177.515485149)
  );
#539 = CARTESIAN_POINT('',(4.931832760902,10.945794242018,
    177.50912293344));
#540 = CARTESIAN_POINT('',(4.672679562975,11.056304208911,
    177.48438240349));
#541 = CARTESIAN_POINT('',(4.237287040249,11.228652121356,
    177.41373294372));
#542 = CARTESIAN_POINT('',(4.059499479673,11.295135603438,
    177.37638089573));
#543 = CARTESIAN_POINT('',(3.883893831208,11.357092970978,
    177.33125426126));
#544 = CARTESIAN_POINT('',(3.711021008916,11.414586735644,
    177.27885745244));
#545 = CARTESIAN_POINT('',(3.541415768786,11.467726556616,
    177.21973659318));
#546 = CARTESIAN_POINT('',(3.375593100394,11.516661234628,
    177.15448276141));
#547 = CARTESIAN_POINT('',(3.085885905296,11.59719802976,177.02761020759
    ));
#548 = CARTESIAN_POINT('',(2.960294557204,11.630326155423,176.967974293)
  );
#549 = CARTESIAN_POINT('',(2.837358998581,11.661082398518,
    176.90506217948));
#550 = CARTESIAN_POINT('',(2.717157775733,11.689593889741,
    176.83909462146));
#551 = CARTESIAN_POINT('',(2.599759402932,11.715986697379,
    176.77027873444));
#552 = CARTESIAN_POINT('',(2.485222208372,11.740384949723,176.6988082934
    ));
#553 = CARTESIAN_POINT('',(2.175138719991,11.802955552239,
    176.49340383428));
#554 = CARTESIAN_POINT('',(1.985809911775,11.837093890268,
    176.35407938735));
#555 = CARTESIAN_POINT('',(1.805757048443,11.866027405562,
    176.20780721519));
#556 = CARTESIAN_POINT('',(1.635068556262,11.890405125052,
    176.05534464555));
#557 = CARTESIAN_POINT('',(1.473795649821,11.910821887063,
    175.89730904695));
#558 = CARTESIAN_POINT('',(1.321975987034,11.927817559745,
    175.73419706656));
#559 = CARTESIAN_POINT('',(1.075819174748,11.95213372918,175.44397905836
    ));
#560 = CARTESIAN_POINT('',(0.977043218009,11.96082749988,175.31906764271
    ));
#561 = CARTESIAN_POINT('',(0.883373641335,11.968143613453,
    175.19185381489));
#562 = CARTESIAN_POINT('',(0.794855290265,11.974255052361,
    175.06250499282));
#563 = CARTESIAN_POINT('',(0.711533783183,11.979321726129,
    174.93117193796));
#564 = CARTESIAN_POINT('',(0.633455626026,11.98349045777,174.79798887463
    ));
#565 = CARTESIAN_POINT('',(0.485952594932,11.990389682121,
    174.52458388744));
#566 = CARTESIAN_POINT('',(0.416811757879,11.993079107307,
    174.38426874209));
#567 = CARTESIAN_POINT('',(0.353324008474,11.995106558728,
    174.24230354299));
#568 = CARTESIAN_POINT('',(0.295561147786,11.996602010959,
    174.09885542122));
#569 = CARTESIAN_POINT('',(0.243588922002,11.997680842277,
    173.95408335994));
#570 = CARTESIAN_POINT('',(0.19746735912,11.998442576723,173.808138285)
  );
#571 = CARTESIAN_POINT('',(0.112952301564,11.999550179013,
    173.49926785447));
#572 = CARTESIAN_POINT('',(7.582108226836E-02,11.999845861559,
    173.3361317492));
#573 = CARTESIAN_POINT('',(4.594584099346E-02,11.999967094863,
    173.17200508391));
#574 = CARTESIAN_POINT('',(2.339297230943E-02,11.999998978306,
    173.00713410586));
#575 = CARTESIAN_POINT('',(8.207351444672E-03,11.999999875397,
    172.84176116173));
#576 = CARTESIAN_POINT('',(4.128136196868E-04,11.999999999572,
    172.67612479404));
#577 = CARTESIAN_POINT('',(-7.525978508565E-04,12.000000000799,
    172.19367258412));
#578 = CARTESIAN_POINT('',(2.552116123084E-02,11.999999908121,
    171.87718825615));
#579 = CARTESIAN_POINT('',(7.873514755588E-02,12.00000700015,
    171.562475599));
#580 = CARTESIAN_POINT('',(0.158609579775,11.999644610631,
    171.25102526993));
#581 = CARTESIAN_POINT('',(0.264668931753,11.998159693555,
    170.94440020281));
#582 = CARTESIAN_POINT('',(0.396215052228,11.994474734009,
    170.64428374561));
#583 = CARTESIAN_POINT('',(0.653935703272,11.982600813567,
    170.16250874896));
#584 = CARTESIAN_POINT('',(0.766044011779,11.976427985183,
    169.97593012474));
#585 = CARTESIAN_POINT('',(0.888479026339,11.968396522502,
    169.79310069428));
#586 = CARTESIAN_POINT('',(1.021127483013,11.958085195426,
    169.61438370544));
#587 = CARTESIAN_POINT('',(1.163885026351,11.945020370248,
    169.44021013753));
#588 = CARTESIAN_POINT('',(1.316644352007,11.928675838615,169.2710941812
    ));
#589 = CARTESIAN_POINT('',(1.594549581337,11.894154150515,
    168.99181092466));
#590 = CARTESIAN_POINT('',(1.714797540517,11.877895100119,
    168.87880158127));
#591 = CARTESIAN_POINT('',(1.840017059247,11.859484369019,
    168.76881193249));
#592 = CARTESIAN_POINT('',(1.970188326575,11.838695949938,
    168.66207298062));
#593 = CARTESIAN_POINT('',(2.105281441868,11.81528866923,168.5588556131)
  );
#594 = CARTESIAN_POINT('',(2.245255968437,11.78900590152,168.4594707294)
  );
#595 = CARTESIAN_POINT('',(2.505005644825,11.736213396427,
    168.28869896742));
#596 = CARTESIAN_POINT('',(2.623014707451,11.710863834826,
    168.21575132668));
#597 = CARTESIAN_POINT('',(2.744032929347,11.683395386758,
    168.14562505785));
#598 = CARTESIAN_POINT('',(2.867993879225,11.65367392363,168.07853281851
    ));
#599 = CARTESIAN_POINT('',(2.99481963557,11.621563457038,168.01470167276
    ));
#600 = CARTESIAN_POINT('',(3.124420981997,11.586927194775,
    167.95437345227));
#601 = CARTESIAN_POINT('',(3.526138071541,11.473653328739,
    167.78257841571));
#602 = CARTESIAN_POINT('',(3.808827851055,11.386025593727,
    167.68203306842));
#603 = CARTESIAN_POINT('',(4.10141442655,11.286070866956,167.60000016508
    ));
#604 = CARTESIAN_POINT('',(4.400338617832,11.17351840761,167.53944171698
    ));
#605 = CARTESIAN_POINT('',(4.702016374721,11.048651665695,
    167.50251549874));
#606 = CARTESIAN_POINT('',(5.002987875043,10.912366035771,167.4906004265
    ));
#607 = CARTESIAN_POINT('',(5.494791577247,10.670257186264,
    167.51325307879));
#608 = CARTESIAN_POINT('',(5.686681451062,10.570685740114,
    167.53317286389));
#609 = CARTESIAN_POINT('',(5.874608597499,10.468038330666,
    167.56395626025));
#610 = CARTESIAN_POINT('',(6.057564749797,10.363055460795,
    167.60528786125));
#611 = CARTESIAN_POINT('',(6.234641669491,10.256584330364,
    167.65662304514));
#612 = CARTESIAN_POINT('',(6.405039659092,10.149552435249,
    167.71718376033));
#613 = CARTESIAN_POINT('',(6.805440519698,9.887690467251,167.88607036336
    ));
#614 = CARTESIAN_POINT('',(7.027101002286,9.733379644392,168.00354519602
    ));
#615 = CARTESIAN_POINT('',(7.233251733484,9.581487032034,168.13617156626
    ));
#616 = CARTESIAN_POINT('',(7.424254359228,9.433368361913,168.28191391288
    ));
#617 = CARTESIAN_POINT('',(7.600584164333,9.290215982455,168.43887234891
    ));
#618 = CARTESIAN_POINT('',(7.762790932424,9.153042012407,168.6052573273)
  );
#619 = CARTESIAN_POINT('',(8.287440424658,8.693006720529,169.21965738268
    ));
#620 = CARTESIAN_POINT('',(8.580422779538,8.403776494511,169.7134776828)
  );
#621 = CARTESIAN_POINT('',(8.8023364061,8.165263123699,170.24111858113)
  );
#622 = CARTESIAN_POINT('',(8.962773157701,7.982977560011,170.79079490535
    ));
#623 = CARTESIAN_POINT('',(9.067937238452,7.859972880697,171.35429028484
    ));
#624 = CARTESIAN_POINT('',(9.12095586463,7.797958971133,171.92583479099)
  );
#625 = CARTESIAN_POINT('',(9.12095586463,7.797958971133,172.5));
#626 = PCURVE('',#307,#627);
#627 = DEFINITIONAL_REPRESENTATION('',(#628),#739);
#628 = B_SPLINE_CURVE_WITH_KNOTS('',7,(#629,#630,#631,#632,#633,#634,
    #635,#636,#637,#638,#639,#640,#641,#642,#643,#644,#645,#646,#647,
    #648,#649,#650,#651,#652,#653,#654,#655,#656,#657,#658,#659,#660,
    #661,#662,#663,#664,#665,#666,#667,#668,#669,#670,#671,#672,#673,
    #674,#675,#676,#677,#678,#679,#680,#681,#682,#683,#684,#685,#686,
    #687,#688,#689,#690,#691,#692,#693,#694,#695,#696,#697,#698,#699,
    #700,#701,#702,#703,#704,#705,#706,#707,#708,#709,#710,#711,#712,
    #713,#714,#715,#716,#717,#718,#719,#720,#721,#722,#723,#724,#725,
    #726,#727,#728,#729,#730,#731,#732,#733,#734,#735,#736,#737,#738),
  .UNSPECIFIED.,.T.,.F.,(8,6,6,6,6,6,6,6,6,6,6,6,6,6,6,6,6,6,8),(0.,
    0.119487902151,0.17826735911,0.215805589459,0.267278102984,
    0.303352183925,0.331970266514,0.382848301705,0.419969793096,
    0.458074784506,0.500048001858,0.58030987811,0.632582986186,
    0.669630215328,0.699038134584,0.758940508241,0.798215380467,
    0.855398460891,1.),.UNSPECIFIED.);
#629 = CARTESIAN_POINT('',(0.707360641742,22.5));
#630 = CARTESIAN_POINT('',(0.707360641742,22.972095065045));
#631 = CARTESIAN_POINT('',(0.711957081256,23.443167251372));
#632 = CARTESIAN_POINT('',(0.721114816234,23.909766496265));
#633 = CARTESIAN_POINT('',(0.734848145997,24.36824311607));
#634 = CARTESIAN_POINT('',(0.753204825642,24.814267395347));
#635 = CARTESIAN_POINT('',(0.776261438735,25.242143034289));
#636 = CARTESIAN_POINT('',(0.81785789519,25.841328179567));
#637 = CARTESIAN_POINT('',(0.832762273973,26.032849486934));
#638 = CARTESIAN_POINT('',(0.848878489985,26.217345342374));
#639 = CARTESIAN_POINT('',(0.866230690316,26.393631315514));
#640 = CARTESIAN_POINT('',(0.884841798194,26.560285291344));
#641 = CARTESIAN_POINT('',(0.904731721807,26.715610433678));
#642 = CARTESIAN_POINT('',(0.939445265127,26.948268666328));
#643 = CARTESIAN_POINT('',(0.953514225281,27.033581659315));
#644 = CARTESIAN_POINT('',(0.968096426124,27.112774629446));
#645 = CARTESIAN_POINT('',(0.983162676253,27.185145839517));
#646 = CARTESIAN_POINT('',(0.998681471836,27.250046233663));
#647 = CARTESIAN_POINT('',(1.014619187193,27.306875549689));
#648 = CARTESIAN_POINT('',(1.053319767838,27.421174341057));
#649 = CARTESIAN_POINT('',(1.076401407519,27.470996247313));
#650 = CARTESIAN_POINT('',(1.099949212861,27.502743148927));
#651 = CARTESIAN_POINT('',(1.123719598981,27.515485149008));
#652 = CARTESIAN_POINT('',(1.147464677138,27.509122933446));
#653 = CARTESIAN_POINT('',(1.170934329764,27.484382403495));
#654 = CARTESIAN_POINT('',(1.209956265526,27.413732943726));
#655 = CARTESIAN_POINT('',(1.225771015795,27.376380895735));
#656 = CARTESIAN_POINT('',(1.241284707253,27.331254261261));
#657 = CARTESIAN_POINT('',(1.256462295676,27.278857452447));
#658 = CARTESIAN_POINT('',(1.271270178273,27.21973659318));
#659 = CARTESIAN_POINT('',(1.285676084749,27.154482761414));
#660 = CARTESIAN_POINT('',(1.31073385609,27.027610207591));
#661 = CARTESIAN_POINT('',(1.321556831623,26.967974293002));
#662 = CARTESIAN_POINT('',(1.33211586314,26.905062179484));
#663 = CARTESIAN_POINT('',(1.342409231671,26.839094621465));
#664 = CARTESIAN_POINT('',(1.35243557355,26.770278734442));
#665 = CARTESIAN_POINT('',(1.362193922867,26.6988082934));
#666 = CARTESIAN_POINT('',(1.388555043499,26.493403834288));
#667 = CARTESIAN_POINT('',(1.404583449079,26.354079387353));
#668 = CARTESIAN_POINT('',(1.419776138984,26.207807215198));
#669 = CARTESIAN_POINT('',(1.434140977472,26.055344645558));
#670 = CARTESIAN_POINT('',(1.447685337011,25.897309046958));
#671 = CARTESIAN_POINT('',(1.460414910556,25.734197066567));
#672 = CARTESIAN_POINT('',(1.481027819863,25.443979058361));
#673 = CARTESIAN_POINT('',(1.489290501092,25.319067642716));
#674 = CARTESIAN_POINT('',(1.497119496253,25.191853814891));
#675 = CARTESIAN_POINT('',(1.504513102311,25.062504992822));
#676 = CARTESIAN_POINT('',(1.511469073578,24.931171937961));
#677 = CARTESIAN_POINT('',(1.517984710844,24.797988874638));
#678 = CARTESIAN_POINT('',(1.530290068608,24.524583887449));
#679 = CARTESIAN_POINT('',(1.53605598518,24.384268742096));
#680 = CARTESIAN_POINT('',(1.541349140677,24.242303542991));
#681 = CARTESIAN_POINT('',(1.546164197669,24.098855421222));
#682 = CARTESIAN_POINT('',(1.550496086454,23.954083359947));
#683 = CARTESIAN_POINT('',(1.554340050672,23.808138285002));
#684 = CARTESIAN_POINT('',(1.561383576923,23.499267854478));
#685 = CARTESIAN_POINT('',(1.564477905875,23.336131749202));
#686 = CARTESIAN_POINT('',(1.566967503938,23.17200508391));
#687 = CARTESIAN_POINT('',(1.568846909325,23.00713410586));
#688 = CARTESIAN_POINT('',(1.57011238438,22.841761161735));
#689 = CARTESIAN_POINT('',(1.57076192566,22.676124794043));
#690 = CARTESIAN_POINT('',(1.570859043282,22.193672584125));
#691 = CARTESIAN_POINT('',(1.568669574228,21.877188256155));
#692 = CARTESIAN_POINT('',(1.564235038899,21.562475599004));
#693 = CARTESIAN_POINT('',(1.557578880547,21.25102526993));
#694 = CARTESIAN_POINT('',(1.54874061941,20.944400202812));
#695 = CARTESIAN_POINT('',(1.53777593892,20.644283745612));
#696 = CARTESIAN_POINT('',(1.516276435702,20.16250874896));
#697 = CARTESIAN_POINT('',(1.506920312191,19.975930124743));
#698 = CARTESIAN_POINT('',(1.496696387406,19.79310069428));
#699 = CARTESIAN_POINT('',(1.485610600688,19.614383705448));
#700 = CARTESIAN_POINT('',(1.473666523805,19.440210137538));
#701 = CARTESIAN_POINT('',(1.460865759645,19.271094181204));
#702 = CARTESIAN_POINT('',(1.437528994504,18.99181092466));
#703 = CARTESIAN_POINT('',(1.427417737997,18.878801581279));
#704 = CARTESIAN_POINT('',(1.416871753432,18.768811932492));
#705 = CARTESIAN_POINT('',(1.405888291327,18.662072980629));
#706 = CARTESIAN_POINT('',(1.394464534192,18.558855613106));
#707 = CARTESIAN_POINT('',(1.382597460043,18.459470729404));
#708 = CARTESIAN_POINT('',(1.3605091048,18.28869896742));
#709 = CARTESIAN_POINT('',(1.350451302687,18.21575132668));
#710 = CARTESIAN_POINT('',(1.340111068767,18.145625057857));
#711 = CARTESIAN_POINT('',(1.32948967689,18.078532818513));
#712 = CARTESIAN_POINT('',(1.318588857998,18.014701672761));
#713 = CARTESIAN_POINT('',(1.307410752562,17.954373452277));
#714 = CARTESIAN_POINT('',(1.27262893372,17.782578415717));
#715 = CARTESIAN_POINT('',(1.247973770505,17.682033068421));
#716 = CARTESIAN_POINT('',(1.222225441435,17.600000165089));
#717 = CARTESIAN_POINT('',(1.195631557555,17.539441716987));
#718 = CARTESIAN_POINT('',(1.168446671279,17.502515498743));
#719 = CARTESIAN_POINT('',(1.140928457258,17.490600426506));
#720 = CARTESIAN_POINT('',(1.095247834656,17.513253078796));
#721 = CARTESIAN_POINT('',(1.077236414205,17.53317286389));
#722 = CARTESIAN_POINT('',(1.05939839738,17.563956260254));
#723 = CARTESIAN_POINT('',(1.041827091086,17.605287861251));
#724 = CARTESIAN_POINT('',(1.024613994825,17.65662304514));
#725 = CARTESIAN_POINT('',(1.007848102003,17.717183760335));
#726 = CARTESIAN_POINT('',(0.967979172697,17.886070363362));
#727 = CARTESIAN_POINT('',(0.945481643001,18.003545196024));
#728 = CARTESIAN_POINT('',(0.924154508359,18.136171566269));
#729 = CARTESIAN_POINT('',(0.904022242356,18.281913912889));
#730 = CARTESIAN_POINT('',(0.885101636846,18.438872348913));
#731 = CARTESIAN_POINT('',(0.867401735909,18.605257327302));
#732 = CARTESIAN_POINT('',(0.8092538426,19.219657382684));
#733 = CARTESIAN_POINT('',(0.775005738664,19.713477682804));
#734 = CARTESIAN_POINT('',(0.747879153085,20.24111858113));
#735 = CARTESIAN_POINT('',(0.727645910518,20.79079490535));
#736 = CARTESIAN_POINT('',(0.714159646522,21.354290284847));
#737 = CARTESIAN_POINT('',(0.707360641742,21.925834790994));
#738 = CARTESIAN_POINT('',(0.707360641742,22.5));
#739 = ( GEOMETRIC_REPRESENTATION_CONTEXT(2) 
PARAMETRIC_REPRESENTATION_CONTEXT() REPRESENTATION_CONTEXT('2D SPACE',''
  ) );
#740 = PCURVE('',#741,#746);
#741 = CYLINDRICAL_SURFACE('',#742,5.);
#742 = AXIS2_PLACEMENT_3D('',#743,#744,#745);
#743 = CARTESIAN_POINT('',(7.5,14.990381056767,172.5));
#744 = DIRECTION('',(-0.5,-0.866025403784,1.110223024625E-16));
#745 = DIRECTION('',(0.866025403784,-0.5,0.));
#746 = DEFINITIONAL_REPRESENTATION('',(#747),#858);
#747 = B_SPLINE_CURVE_WITH_KNOTS('',7,(#748,#749,#750,#751,#752,#753,
    #754,#755,#756,#757,#758,#759,#760,#761,#762,#763,#764,#765,#766,
    #767,#768,#769,#770,#771,#772,#773,#774,#775,#776,#777,#778,#779,
    #780,#781,#782,#783,#784,#785,#786,#787,#788,#789,#790,#791,#792,
    #793,#794,#795,#796,#797,#798,#799,#800,#801,#802,#803,#804,#805,
    #806,#807,#808,#809,#810,#811,#812,#813,#814,#815,#816,#817,#818,
    #819,#820,#821,#822,#823,#824,#825,#826,#827,#828,#829,#830,#831,
    #832,#833,#834,#835,#836,#837,#838,#839,#840,#841,#842,#843,#844,
    #845,#846,#847,#848,#849,#850,#851,#852,#853,#854,#855,#856,#857),
  .UNSPECIFIED.,.F.,.F.,(8,6,6,6,6,6,6,6,6,6,6,6,6,6,6,6,6,6,8),(0.,
    0.119487902151,0.17826735911,0.215805589459,0.267278102984,
    0.303352183925,0.331970266514,0.382848301705,0.419969793096,
    0.458074784506,0.500048001858,0.58030987811,0.632582986186,
    0.669630215328,0.699038134584,0.758940508241,0.798215380467,
    0.855398460891,1.),.UNSPECIFIED.);
#748 = CARTESIAN_POINT('',(0.,5.418342308584));
#749 = CARTESIAN_POINT('',(9.441901300893E-02,5.418342308584));
#750 = CARTESIAN_POINT('',(0.188633321665,5.399956322815));
#751 = CARTESIAN_POINT('',(0.283328611368,5.363326595493));
#752 = CARTESIAN_POINT('',(0.379120484819,5.30989577698));
#753 = CARTESIAN_POINT('',(0.476667138171,5.24243608374));
#754 = CARTESIAN_POINT('',(0.576651458283,5.165285118477));
#755 = CARTESIAN_POINT('',(0.730761728732,5.045153360897));
#756 = CARTESIAN_POINT('',(0.782456813787,5.004665212407));
#757 = CARTESIAN_POINT('',(0.835146718572,4.964043553426));
#758 = CARTESIAN_POINT('',(0.888948747202,4.924165431774));
#759 = CARTESIAN_POINT('',(0.943983744885,4.886066795579));
#760 = CARTESIAN_POINT('',(1.00038146893,4.850953526358));
#761 = CARTESIAN_POINT('',(1.09527388788,4.800556038395));
#762 = CARTESIAN_POINT('',(1.132905823204,4.782674234504));
#763 = CARTESIAN_POINT('',(1.171139396566,4.766962283896));
#764 = CARTESIAN_POINT('',(1.209936680471,4.753826690135));
#765 = CARTESIAN_POINT('',(1.249267860718,4.743658342533));
#766 = CARTESIAN_POINT('',(1.289109735416,4.736820465634));
#767 = CARTESIAN_POINT('',(1.384750949955,4.7292708014));
#768 = CARTESIAN_POINT('',(1.440937835362,4.731778933585));
#769 = CARTESIAN_POINT('',(1.497605687949,4.742002348076));
#770 = CARTESIAN_POINT('',(1.554403491589,4.760370484695));
#771 = CARTESIAN_POINT('',(1.610997957913,4.786798548933));
#772 = CARTESIAN_POINT('',(1.667042168221,4.820670709195));
#773 = CARTESIAN_POINT('',(1.760760460397,4.889109300092));
#774 = CARTESIAN_POINT('',(1.798900858147,4.920426695965));
#775 = CARTESIAN_POINT('',(1.836548628099,4.954572865956));
#776 = CARTESIAN_POINT('',(1.873684154863,4.991218216343));
#777 = CARTESIAN_POINT('',(1.910282554932,5.030000401493));
#778 = CARTESIAN_POINT('',(1.946312163115,5.070533061405));
#779 = CARTESIAN_POINT('',(2.009832888785,5.14563974843));
#780 = CARTESIAN_POINT('',(2.037576491491,5.179745624072));
#781 = CARTESIAN_POINT('',(2.064978915935,5.214577715539));
#782 = CARTESIAN_POINT('',(2.092053856482,5.249986651263));
#783 = CARTESIAN_POINT('',(2.118814030636,5.285828995773));
#784 = CARTESIAN_POINT('',(2.145271596661,5.321968086714));
#785 = CARTESIAN_POINT('',(2.217958957316,5.422822099596));
#786 = CARTESIAN_POINT('',(2.263576975356,5.487921835728));
#787 = CARTESIAN_POINT('',(2.308389519529,5.552891108129));
#788 = CARTESIAN_POINT('',(2.352488419997,5.617123629854));
#789 = CARTESIAN_POINT('',(2.395962325691,5.68007864851));
#790 = CARTESIAN_POINT('',(2.438898587103,5.741269795607));
#791 = CARTESIAN_POINT('',(2.512384059718,5.843289781296));
#792 = CARTESIAN_POINT('',(2.543142181255,5.885148733384));
#793 = CARTESIAN_POINT('',(2.573685749367,5.925647581511));
#794 = CARTESIAN_POINT('',(2.604039457164,5.964614095697));
#795 = CARTESIAN_POINT('',(2.634227238898,6.001886981043));
#796 = CARTESIAN_POINT('',(2.664273063653,6.037315832119));
#797 = CARTESIAN_POINT('',(2.724923327086,6.105092444112));
#798 = CARTESIAN_POINT('',(2.755521505357,6.137333752105));
#799 = CARTESIAN_POINT('',(2.78601234744,6.167321802372));
#800 = CARTESIAN_POINT('',(2.816411605195,6.194908133094));
#801 = CARTESIAN_POINT('',(2.846735069984,6.219959950658));
#802 = CARTESIAN_POINT('',(2.876998943903,6.242361050719));
#803 = CARTESIAN_POINT('',(2.940509388272,6.283659367775));
#804 = CARTESIAN_POINT('',(2.973745013142,6.301968908827));
#805 = CARTESIAN_POINT('',(3.006937686015,6.316801538343));
#806 = CARTESIAN_POINT('',(3.040098171023,6.328050360814));
#807 = CARTESIAN_POINT('',(3.073237590719,6.335642394343));
#808 = CARTESIAN_POINT('',(3.106367620755,6.339539555716));
#809 = CARTESIAN_POINT('',(3.202858273876,6.340122260389));
#810 = CARTESIAN_POINT('',(3.266145455598,6.32698546111));
#811 = CARTESIAN_POINT('',(3.329484051276,6.30037232607));
#812 = CARTESIAN_POINT('',(3.392986955196,6.26074894849));
#813 = CARTESIAN_POINT('',(3.456761979865,6.209005248411));
#814 = CARTESIAN_POINT('',(3.520911232946,6.146423456753));
#815 = CARTESIAN_POINT('',(3.627608471321,6.027846247976));
#816 = CARTESIAN_POINT('',(3.669912029468,5.977137919916));
#817 = CARTESIAN_POINT('',(3.7125083598,5.922875863347));
#818 = CARTESIAN_POINT('',(3.755468763332,5.865481506205));
#819 = CARTESIAN_POINT('',(3.798865558558,5.805417205036));
#820 = CARTESIAN_POINT('',(3.842773457599,5.743192321815));
#821 = CARTESIAN_POINT('',(3.918807397214,5.634136366026));
#822 = CARTESIAN_POINT('',(3.950645338789,5.588093137121));
#823 = CARTESIAN_POINT('',(3.982821123152,5.54142753859));
#824 = CARTESIAN_POINT('',(4.015369365569,5.494345203955));
#825 = CARTESIAN_POINT('',(4.048324565642,5.447069946035));
#826 = CARTESIAN_POINT('',(4.081722732448,5.399844227269));
#827 = CARTESIAN_POINT('',(4.142497017161,5.315689039615));
#828 = CARTESIAN_POINT('',(4.169699586324,5.278637872623));
#829 = CARTESIAN_POINT('',(4.197223211794,5.241917135505));
#830 = CARTESIAN_POINT('',(4.225080581804,5.205676202672));
#831 = CARTESIAN_POINT('',(4.253285042068,5.170071804296));
#832 = CARTESIAN_POINT('',(4.281851059643,5.135267014094));
#833 = CARTESIAN_POINT('',(4.36975132202,5.032506514894));
#834 = CARTESIAN_POINT('',(4.430744981807,4.967049469734));
#835 = CARTESIAN_POINT('',(4.493338647308,4.907319514599));
#836 = CARTESIAN_POINT('',(4.557196812509,4.855330708009));
#837 = CARTESIAN_POINT('',(4.622047092504,4.812629600151));
#838 = CARTESIAN_POINT('',(4.687650473772,4.780170667675));
#839 = CARTESIAN_POINT('',(4.797138034173,4.743941230728));
#840 = CARTESIAN_POINT('',(4.840459335232,4.734227695677));
#841 = CARTESIAN_POINT('',(4.883625246389,4.729159386674));
#842 = CARTESIAN_POINT('',(4.926516746294,4.728599142795));
#843 = CARTESIAN_POINT('',(4.969008575895,4.732267386671));
#844 = CARTESIAN_POINT('',(5.010962898252,4.739760732055));
#845 = CARTESIAN_POINT('',(5.112295774966,4.766339418323));
#846 = CARTESIAN_POINT('',(5.1708730264,4.789146269704));
#847 = CARTESIAN_POINT('',(5.228053544304,4.817613765054));
#848 = CARTESIAN_POINT('',(5.283908212651,4.850386983282));
#849 = CARTESIAN_POINT('',(5.338489153474,4.886195677952));
#850 = CARTESIAN_POINT('',(5.391833253279,4.923888436706));
#851 = CARTESIAN_POINT('',(5.575774537457,5.059965939992));
#852 = CARTESIAN_POINT('',(5.701037441411,5.163955485827));
#853 = CARTESIAN_POINT('',(5.821620467496,5.259557310812));
#854 = CARTESIAN_POINT('',(5.938869299524,5.337202863907));
#855 = CARTESIAN_POINT('',(6.054043808774,5.391146000603));
#856 = CARTESIAN_POINT('',(6.168352265378,5.418342308584));
#857 = CARTESIAN_POINT('',(6.28318530718,5.418342308584));
#858 = ( GEOMETRIC_REPRESENTATION_CONTEXT(2) 
PARAMETRIC_REPRESENTATION_CONTEXT() REPRESENTATION_CONTEXT('2D SPACE',''
  ) );
#859 = FACE_BOUND('',#860,.T.);
#860 = EDGE_LOOP('',(#861));
#861 = ORIENTED_EDGE('',*,*,#79,.F.);
#862 = ADVANCED_FACE('',(#863),#66,.T.);
#863 = FACE_BOUND('',#864,.T.);
#864 = EDGE_LOOP('',(#865));
#865 = ORIENTED_EDGE('',*,*,#51,.T.);
#866 = ADVANCED_FACE('',(#867,#898),#497,.T.);
#867 = FACE_BOUND('',#868,.T.);
#868 = EDGE_LOOP('',(#869));
#869 = ORIENTED_EDGE('',*,*,#870,.T.);
#870 = EDGE_CURVE('',#871,#871,#873,.T.);
#871 = VERTEX_POINT('',#872);
#872 = CARTESIAN_POINT('',(28.,-6.858022075225E-15,150.));
#873 = SURFACE_CURVE('',#874,(#879,#886),.PCURVE_S1.);
#874 = CIRCLE('',#875,28.);
#875 = AXIS2_PLACEMENT_3D('',#876,#877,#878);
#876 = CARTESIAN_POINT('',(0.,0.,150.));
#877 = DIRECTION('',(0.,0.,1.));
#878 = DIRECTION('',(1.,0.,0.));
#879 = PCURVE('',#497,#880);
#880 = DEFINITIONAL_REPRESENTATION('',(#881),#885);
#881 = CIRCLE('',#882,28.);
#882 = AXIS2_PLACEMENT_2D('',#883,#884);
#883 = CARTESIAN_POINT('',(0.,0.));
#884 = DIRECTION('',(1.,0.));
#885 = ( GEOMETRIC_REPRESENTATION_CONTEXT(2) 
PARAMETRIC_REPRESENTATION_CONTEXT() REPRESENTATION_CONTEXT('2D SPACE',''
  ) );
#886 = PCURVE('',#887,#892);
#887 = CYLINDRICAL_SURFACE('',#888,28.);
#888 = AXIS2_PLACEMENT_3D('',#889,#890,#891);
#889 = CARTESIAN_POINT('',(0.,0.,140.));
#890 = DIRECTION('',(0.,0.,1.));
#891 = DIRECTION('',(1.,0.,0.));
#892 = DEFINITIONAL_REPRESENTATION('',(#893),#897);
#893 = LINE('',#894,#895);
#894 = CARTESIAN_POINT('',(0.,10.));
#895 = VECTOR('',#896,1.);
#896 = DIRECTION('',(1.,0.));
#897 = ( GEOMETRIC_REPRESENTATION_CONTEXT(2) 
PARAMETRIC_REPRESENTATION_CONTEXT() REPRESENTATION_CONTEXT('2D SPACE',''
  ) );
#898 = FACE_BOUND('',#899,.T.);
#899 = EDGE_LOOP('',(#900));
#900 = ORIENTED_EDGE('',*,*,#482,.F.);
#901 = ADVANCED_FACE('',(#902,#933),#469,.F.);
#902 = FACE_BOUND('',#903,.F.);
#903 = EDGE_LOOP('',(#904));
#904 = ORIENTED_EDGE('',*,*,#905,.T.);
#905 = EDGE_CURVE('',#906,#906,#908,.T.);
#906 = VERTEX_POINT('',#907);
#907 = CARTESIAN_POINT('',(20.,-4.898587196589E-15,180.));
#908 = SURFACE_CURVE('',#909,(#914,#921),.PCURVE_S1.);
#909 = CIRCLE('',#910,20.);
#910 = AXIS2_PLACEMENT_3D('',#911,#912,#913);
#911 = CARTESIAN_POINT('',(0.,0.,180.));
#912 = DIRECTION('',(0.,0.,1.));
#913 = DIRECTION('',(1.,0.,0.));
#914 = PCURVE('',#469,#915);
#915 = DEFINITIONAL_REPRESENTATION('',(#916),#920);
#916 = CIRCLE('',#917,20.);
#917 = AXIS2_PLACEMENT_2D('',#918,#919);
#918 = CARTESIAN_POINT('',(0.,0.));
#919 = DIRECTION('',(1.,0.));
#920 = ( GEOMETRIC_REPRESENTATION_CONTEXT(2) 
PARAMETRIC_REPRESENTATION_CONTEXT() REPRESENTATION_CONTEXT('2D SPACE',''
  ) );
#921 = PCURVE('',#922,#927);
#922 = CYLINDRICAL_SURFACE('',#923,20.);
#923 = AXIS2_PLACEMENT_3D('',#924,#925,#926);
#924 = CARTESIAN_POINT('',(0.,0.,180.));
#925 = DIRECTION('',(0.,0.,1.));
#926 = DIRECTION('',(1.,0.,0.));
#927 = DEFINITIONAL_REPRESENTATION('',(#928),#932);
#928 = LINE('',#929,#930);
#929 = CARTESIAN_POINT('',(0.,0.));
#930 = VECTOR('',#931,1.);
#931 = DIRECTION('',(1.,0.));
#932 = ( GEOMETRIC_REPRESENTATION_CONTEXT(2) 
PARAMETRIC_REPRESENTATION_CONTEXT() REPRESENTATION_CONTEXT('2D SPACE',''
  ) );
#933 = FACE_BOUND('',#934,.F.);
#934 = EDGE_LOOP('',(#935));
#935 = ORIENTED_EDGE('',*,*,#454,.F.);
#936 = ADVANCED_FACE('',(#937),#741,.T.);
#937 = FACE_BOUND('',#938,.T.);
#938 = EDGE_LOOP('',(#939,#940,#963,#990));
#939 = ORIENTED_EDGE('',*,*,#511,.F.);
#940 = ORIENTED_EDGE('',*,*,#941,.F.);
#941 = EDGE_CURVE('',#942,#512,#944,.T.);
#942 = VERTEX_POINT('',#943);
#943 = CARTESIAN_POINT('',(11.830127018922,12.490381056767,172.5));
#944 = SEAM_CURVE('',#945,(#949,#956),.PCURVE_S1.);
#945 = LINE('',#946,#947);
#946 = CARTESIAN_POINT('',(11.830127018922,12.490381056767,172.5));
#947 = VECTOR('',#948,1.);
#948 = DIRECTION('',(-0.5,-0.866025403784,1.110223024625E-16));
#949 = PCURVE('',#741,#950);
#950 = DEFINITIONAL_REPRESENTATION('',(#951),#955);
#951 = LINE('',#952,#953);
#952 = CARTESIAN_POINT('',(6.28318530718,-0.));
#953 = VECTOR('',#954,1.);
#954 = DIRECTION('',(0.,1.));
#955 = ( GEOMETRIC_REPRESENTATION_CONTEXT(2) 
PARAMETRIC_REPRESENTATION_CONTEXT() REPRESENTATION_CONTEXT('2D SPACE',''
  ) );
#956 = PCURVE('',#741,#957);
#957 = DEFINITIONAL_REPRESENTATION('',(#958),#962);
#958 = LINE('',#959,#960);
#959 = CARTESIAN_POINT('',(0.,-0.));
#960 = VECTOR('',#961,1.);
#961 = DIRECTION('',(0.,1.));
#962 = ( GEOMETRIC_REPRESENTATION_CONTEXT(2) 
PARAMETRIC_REPRESENTATION_CONTEXT() REPRESENTATION_CONTEXT('2D SPACE',''
  ) );
#963 = ORIENTED_EDGE('',*,*,#964,.T.);
#964 = EDGE_CURVE('',#942,#942,#965,.T.);
#965 = SURFACE_CURVE('',#966,(#971,#978),.PCURVE_S1.);
#966 = CIRCLE('',#967,5.);
#967 = AXIS2_PLACEMENT_3D('',#968,#969,#970);
#968 = CARTESIAN_POINT('',(7.5,14.990381056767,172.5));
#969 = DIRECTION('',(-0.5,-0.866025403784,1.110223024625E-16));
#970 = DIRECTION('',(0.866025403784,-0.5,0.));
#971 = PCURVE('',#741,#972);
#972 = DEFINITIONAL_REPRESENTATION('',(#973),#977);
#973 = LINE('',#974,#975);
#974 = CARTESIAN_POINT('',(0.,0.));
#975 = VECTOR('',#976,1.);
#976 = DIRECTION('',(1.,0.));
#977 = ( GEOMETRIC_REPRESENTATION_CONTEXT(2) 
PARAMETRIC_REPRESENTATION_CONTEXT() REPRESENTATION_CONTEXT('2D SPACE',''
  ) );
#978 = PCURVE('',#979,#984);
#979 = PLANE('',#980);
#980 = AXIS2_PLACEMENT_3D('',#981,#982,#983);
#981 = CARTESIAN_POINT('',(7.5,14.990381056767,172.5));
#982 = DIRECTION('',(-0.5,-0.866025403784,1.110223024625E-16));
#983 = DIRECTION('',(0.866025403784,-0.5,0.));
#984 = DEFINITIONAL_REPRESENTATION('',(#985),#989);
#985 = CIRCLE('',#986,5.);
#986 = AXIS2_PLACEMENT_2D('',#987,#988);
#987 = CARTESIAN_POINT('',(0.,0.));
#988 = DIRECTION('',(1.,0.));
#989 = ( GEOMETRIC_REPRESENTATION_CONTEXT(2) 
PARAMETRIC_REPRESENTATION_CONTEXT() REPRESENTATION_CONTEXT('2D SPACE',''
  ) );
#990 = ORIENTED_EDGE('',*,*,#941,.T.);
#991 = ADVANCED_FACE('',(#992),#887,.T.);
#992 = FACE_BOUND('',#993,.T.);
#993 = EDGE_LOOP('',(#994,#995,#1018,#1045));
#994 = ORIENTED_EDGE('',*,*,#870,.F.);
#995 = ORIENTED_EDGE('',*,*,#996,.F.);
#996 = EDGE_CURVE('',#997,#871,#999,.T.);
#997 = VERTEX_POINT('',#998);
#998 = CARTESIAN_POINT('',(28.,-6.858022075225E-15,140.));
#999 = SEAM_CURVE('',#1000,(#1004,#1011),.PCURVE_S1.);
#1000 = LINE('',#1001,#1002);
#1001 = CARTESIAN_POINT('',(28.,-6.858022075225E-15,140.));
#1002 = VECTOR('',#1003,1.);
#1003 = DIRECTION('',(0.,0.,1.));
#1004 = PCURVE('',#887,#1005);
#1005 = DEFINITIONAL_REPRESENTATION('',(#1006),#1010);
#1006 = LINE('',#1007,#1008);
#1007 = CARTESIAN_POINT('',(6.28318530718,-0.));
#1008 = VECTOR('',#1009,1.);
#1009 = DIRECTION('',(0.,1.));
#1010 = ( GEOMETRIC_REPRESENTATION_CONTEXT(2) 
PARAMETRIC_REPRESENTATION_CONTEXT() REPRESENTATION_CONTEXT('2D SPACE',''
  ) );
#1011 = PCURVE('',#887,#1012);
#1012 = DEFINITIONAL_REPRESENTATION('',(#1013),#1017);
#1013 = LINE('',#1014,#1015);
#1014 = CARTESIAN_POINT('',(0.,-0.));
#1015 = VECTOR('',#1016,1.);
#1016 = DIRECTION('',(0.,1.));
#1017 = ( GEOMETRIC_REPRESENTATION_CONTEXT(2) 
PARAMETRIC_REPRESENTATION_CONTEXT() REPRESENTATION_CONTEXT('2D SPACE',''
  ) );
#1018 = ORIENTED_EDGE('',*,*,#1019,.T.);
#1019 = EDGE_CURVE('',#997,#997,#1020,.T.);
#1020 = SURFACE_CURVE('',#1021,(#1026,#1033),.PCURVE_S1.);
#1021 = CIRCLE('',#1022,28.);
#1022 = AXIS2_PLACEMENT_3D('',#1023,#1024,#1025);
#1023 = CARTESIAN_POINT('',(0.,0.,140.));
#1024 = DIRECTION('',(0.,0.,1.));
#1025 = DIRECTION('',(1.,0.,0.));
#1026 = PCURVE('',#887,#1027);
#1027 = DEFINITIONAL_REPRESENTATION('',(#1028),#1032);
#1028 = LINE('',#1029,#1030);
#1029 = CARTESIAN_POINT('',(0.,0.));
#1030 = VECTOR('',#1031,1.);
#1031 = DIRECTION('',(1.,0.));
#1032 = ( GEOMETRIC_REPRESENTATION_CONTEXT(2) 
PARAMETRIC_REPRESENTATION_CONTEXT() REPRESENTATION_CONTEXT('2D SPACE',''
  ) );
#1033 = PCURVE('',#1034,#1039);
#1034 = PLANE('',#1035);
#1035 = AXIS2_PLACEMENT_3D('',#1036,#1037,#1038);
#1036 = CARTESIAN_POINT('',(0.,0.,140.));
#1037 = DIRECTION('',(0.,0.,1.));
#1038 = DIRECTION('',(1.,0.,0.));
#1039 = DEFINITIONAL_REPRESENTATION('',(#1040),#1044);
#1040 = CIRCLE('',#1041,28.);
#1041 = AXIS2_PLACEMENT_2D('',#1042,#1043);
#1042 = CARTESIAN_POINT('',(0.,0.));
#1043 = DIRECTION('',(1.,0.));
#1044 = ( GEOMETRIC_REPRESENTATION_CONTEXT(2) 
PARAMETRIC_REPRESENTATION_CONTEXT() REPRESENTATION_CONTEXT('2D SPACE',''
  ) );
#1045 = ORIENTED_EDGE('',*,*,#996,.T.);
#1046 = ADVANCED_FACE('',(#1047),#922,.T.);
#1047 = FACE_BOUND('',#1048,.T.);
#1048 = EDGE_LOOP('',(#1049,#1078,#1099,#1100));
#1049 = ORIENTED_EDGE('',*,*,#1050,.F.);
#1050 = EDGE_CURVE('',#1051,#1051,#1053,.T.);
#1051 = VERTEX_POINT('',#1052);
#1052 = CARTESIAN_POINT('',(20.,-4.898587196589E-15,188.));
#1053 = SURFACE_CURVE('',#1054,(#1059,#1066),.PCURVE_S1.);
#1054 = CIRCLE('',#1055,20.);
#1055 = AXIS2_PLACEMENT_3D('',#1056,#1057,#1058);
#1056 = CARTESIAN_POINT('',(0.,0.,188.));
#1057 = DIRECTION('',(0.,0.,1.));
#1058 = DIRECTION('',(1.,0.,0.));
#1059 = PCURVE('',#922,#1060);
#1060 = DEFINITIONAL_REPRESENTATION('',(#1061),#1065);
#1061 = LINE('',#1062,#1063);
#1062 = CARTESIAN_POINT('',(0.,8.));
#1063 = VECTOR('',#1064,1.);
#1064 = DIRECTION('',(1.,0.));
#1065 = ( GEOMETRIC_REPRESENTATION_CONTEXT(2) 
PARAMETRIC_REPRESENTATION_CONTEXT() REPRESENTATION_CONTEXT('2D SPACE',''
  ) );
#1066 = PCURVE('',#1067,#1072);
#1067 = PLANE('',#1068);
#1068 = AXIS2_PLACEMENT_3D('',#1069,#1070,#1071);
#1069 = CARTESIAN_POINT('',(0.,0.,188.));
#1070 = DIRECTION('',(0.,0.,1.));
#1071 = DIRECTION('',(1.,0.,0.));
#1072 = DEFINITIONAL_REPRESENTATION('',(#1073),#1077);
#1073 = CIRCLE('',#1074,20.);
#1074 = AXIS2_PLACEMENT_2D('',#1075,#1076);
#1075 = CARTESIAN_POINT('',(0.,0.));
#1076 = DIRECTION('',(1.,0.));
#1077 = ( GEOMETRIC_REPRESENTATION_CONTEXT(2) 
PARAMETRIC_REPRESENTATION_CONTEXT() REPRESENTATION_CONTEXT('2D SPACE',''
  ) );
#1078 = ORIENTED_EDGE('',*,*,#1079,.F.);
#1079 = EDGE_CURVE('',#906,#1051,#1080,.T.);
#1080 = SEAM_CURVE('',#1081,(#1085,#1092),.PCURVE_S1.);
#1081 = LINE('',#1082,#1083);
#1082 = CARTESIAN_POINT('',(20.,-4.898587196589E-15,180.));
#1083 = VECTOR('',#1084,1.);
#1084 = DIRECTION('',(0.,0.,1.));
#1085 = PCURVE('',#922,#1086);
#1086 = DEFINITIONAL_REPRESENTATION('',(#1087),#1091);
#1087 = LINE('',#1088,#1089);
#1088 = CARTESIAN_POINT('',(6.28318530718,-0.));
#1089 = VECTOR('',#1090,1.);
#1090 = DIRECTION('',(0.,1.));
#1091 = ( GEOMETRIC_REPRESENTATION_CONTEXT(2) 
PARAMETRIC_REPRESENTATION_CONTEXT() REPRESENTATION_CONTEXT('2D SPACE',''
  ) );
#1092 = PCURVE('',#922,#1093);
#1093 = DEFINITIONAL_REPRESENTATION('',(#1094),#1098);
#1094 = LINE('',#1095,#1096);
#1095 = CARTESIAN_POINT('',(0.,-0.));
#1096 = VECTOR('',#1097,1.);
#1097 = DIRECTION('',(0.,1.));
#1098 = ( GEOMETRIC_REPRESENTATION_CONTEXT(2) 
PARAMETRIC_REPRESENTATION_CONTEXT() REPRESENTATION_CONTEXT('2D SPACE',''
  ) );
#1099 = ORIENTED_EDGE('',*,*,#905,.T.);
#1100 = ORIENTED_EDGE('',*,*,#1079,.T.);
#1101 = ADVANCED_FACE('',(#1102),#979,.F.);
#1102 = FACE_BOUND('',#1103,.T.);
#1103 = EDGE_LOOP('',(#1104));
#1104 = ORIENTED_EDGE('',*,*,#964,.F.);
#1105 = ADVANCED_FACE('',(#1106,#1109),#1034,.F.);
#1106 = FACE_BOUND('',#1107,.F.);
#1107 = EDGE_LOOP('',(#1108));
#1108 = ORIENTED_EDGE('',*,*,#1019,.T.);
#1109 = FACE_BOUND('',#1110,.F.);
#1110 = EDGE_LOOP('',(#1111));
#1111 = ORIENTED_EDGE('',*,*,#1112,.F.);
#1112 = EDGE_CURVE('',#1113,#1113,#1115,.T.);
#1113 = VERTEX_POINT('',#1114);
#1114 = CARTESIAN_POINT('',(25.,-6.123233995737E-15,140.));
#1115 = SURFACE_CURVE('',#1116,(#1121,#1128),.PCURVE_S1.);
#1116 = CIRCLE('',#1117,25.);
#1117 = AXIS2_PLACEMENT_3D('',#1118,#1119,#1120);
#1118 = CARTESIAN_POINT('',(0.,0.,140.));
#1119 = DIRECTION('',(0.,0.,1.));
#1120 = DIRECTION('',(1.,0.,0.));
#1121 = PCURVE('',#1034,#1122);
#1122 = DEFINITIONAL_REPRESENTATION('',(#1123),#1127);
#1123 = CIRCLE('',#1124,25.);
#1124 = AXIS2_PLACEMENT_2D('',#1125,#1126);
#1125 = CARTESIAN_POINT('',(0.,0.));
#1126 = DIRECTION('',(1.,0.));
#1127 = ( GEOMETRIC_REPRESENTATION_CONTEXT(2) 
PARAMETRIC_REPRESENTATION_CONTEXT() REPRESENTATION_CONTEXT('2D SPACE',''
  ) );
#1128 = PCURVE('',#1129,#1134);
#1129 = CYLINDRICAL_SURFACE('',#1130,25.);
#1130 = AXIS2_PLACEMENT_3D('',#1131,#1132,#1133);
#1131 = CARTESIAN_POINT('',(0.,0.,120.));
#1132 = DIRECTION('',(0.,0.,1.));
#1133 = DIRECTION('',(1.,0.,0.));
#1134 = DEFINITIONAL_REPRESENTATION('',(#1135),#1139);
#1135 = LINE('',#1136,#1137);
#1136 = CARTESIAN_POINT('',(0.,20.));
#1137 = VECTOR('',#1138,1.);
#1138 = DIRECTION('',(1.,0.));
#1139 = ( GEOMETRIC_REPRESENTATION_CONTEXT(2) 
PARAMETRIC_REPRESENTATION_CONTEXT() REPRESENTATION_CONTEXT('2D SPACE',''
  ) );
#1140 = ADVANCED_FACE('',(#1141),#1067,.T.);
#1141 = FACE_BOUND('',#1142,.T.);
#1142 = EDGE_LOOP('',(#1143));
#1143 = ORIENTED_EDGE('',*,*,#1050,.T.);
#1144 = ADVANCED_FACE('',(#1145),#1129,.T.);
#1145 = FACE_BOUND('',#1146,.T.);
#1146 = EDGE_LOOP('',(#1147,#1148,#1171,#1198));
#1147 = ORIENTED_EDGE('',*,*,#1112,.F.);
#1148 = ORIENTED_EDGE('',*,*,#1149,.F.);
#1149 = EDGE_CURVE('',#1150,#1113,#1152,.T.);
#1150 = VERTEX_POINT('',#1151);
#1151 = CARTESIAN_POINT('',(25.,-6.123233995737E-15,120.));
#1152 = SEAM_CURVE('',#1153,(#1157,#1164),.PCURVE_S1.);
#1153 = LINE('',#1154,#1155);
#1154 = CARTESIAN_POINT('',(25.,-6.123233995737E-15,120.));
#1155 = VECTOR('',#1156,1.);
#1156 = DIRECTION('',(0.,0.,1.));
#1157 = PCURVE('',#1129,#1158);
#1158 = DEFINITIONAL_REPRESENTATION('',(#1159),#1163);
#1159 = LINE('',#1160,#1161);
#1160 = CARTESIAN_POINT('',(6.28318530718,-0.));
#1161 = VECTOR('',#1162,1.);
#1162 = DIRECTION('',(0.,1.));
#1163 = ( GEOMETRIC_REPRESENTATION_CONTEXT(2) 
PARAMETRIC_REPRESENTATION_CONTEXT() REPRESENTATION_CONTEXT('2D SPACE',''
  ) );
#1164 = PCURVE('',#1129,#1165);
#1165 = DEFINITIONAL_REPRESENTATION('',(#1166),#1170);
#1166 = LINE('',#1167,#1168);
#1167 = CARTESIAN_POINT('',(0.,-0.));
#1168 = VECTOR('',#1169,1.);
#1169 = DIRECTION('',(0.,1.));
#1170 = ( GEOMETRIC_REPRESENTATION_CONTEXT(2) 
PARAMETRIC_REPRESENTATION_CONTEXT() REPRESENTATION_CONTEXT('2D SPACE',''
  ) );
#1171 = ORIENTED_EDGE('',*,*,#1172,.T.);
#1172 = EDGE_CURVE('',#1150,#1150,#1173,.T.);
#1173 = SURFACE_CURVE('',#1174,(#1179,#1186),.PCURVE_S1.);
#1174 = CIRCLE('',#1175,25.);
#1175 = AXIS2_PLACEMENT_3D('',#1176,#1177,#1178);
#1176 = CARTESIAN_POINT('',(0.,0.,120.));
#1177 = DIRECTION('',(0.,0.,1.));
#1178 = DIRECTION('',(1.,0.,0.));
#1179 = PCURVE('',#1129,#1180);
#1180 = DEFINITIONAL_REPRESENTATION('',(#1181),#1185);
#1181 = LINE('',#1182,#1183);
#1182 = CARTESIAN_POINT('',(0.,0.));
#1183 = VECTOR('',#1184,1.);
#1184 = DIRECTION('',(1.,0.));
#1185 = ( GEOMETRIC_REPRESENTATION_CONTEXT(2) 
PARAMETRIC_REPRESENTATION_CONTEXT() REPRESENTATION_CONTEXT('2D SPACE',''
  ) );
#1186 = PCURVE('',#1187,#1192);
#1187 = PLANE('',#1188);
#1188 = AXIS2_PLACEMENT_3D('',#1189,#1190,#1191);
#1189 = CARTESIAN_POINT('',(0.,0.,120.));
#1190 = DIRECTION('',(0.,0.,1.));
#1191 = DIRECTION('',(1.,0.,0.));
#1192 = DEFINITIONAL_REPRESENTATION('',(#1193),#1197);
#1193 = CIRCLE('',#1194,25.);
#1194 = AXIS2_PLACEMENT_2D('',#1195,#1196);
#1195 = CARTESIAN_POINT('',(0.,0.));
#1196 = DIRECTION('',(1.,0.));
#1197 = ( GEOMETRIC_REPRESENTATION_CONTEXT(2) 
PARAMETRIC_REPRESENTATION_CONTEXT() REPRESENTATION_CONTEXT('2D SPACE',''
  ) );
#1198 = ORIENTED_EDGE('',*,*,#1149,.T.);
#1199 = ADVANCED_FACE('',(#1200,#1231),#1187,.T.);
#1200 = FACE_BOUND('',#1201,.T.);
#1201 = EDGE_LOOP('',(#1202));
#1202 = ORIENTED_EDGE('',*,*,#1203,.T.);
#1203 = EDGE_CURVE('',#1204,#1204,#1206,.T.);
#1204 = VERTEX_POINT('',#1205);
#1205 = CARTESIAN_POINT('',(35.,-8.572527594031E-15,120.));
#1206 = SURFACE_CURVE('',#1207,(#1212,#1219),.PCURVE_S1.);
#1207 = CIRCLE('',#1208,35.);
#1208 = AXIS2_PLACEMENT_3D('',#1209,#1210,#1211);
#1209 = CARTESIAN_POINT('',(0.,0.,120.));
#1210 = DIRECTION('',(0.,0.,1.));
#1211 = DIRECTION('',(1.,0.,0.));
#1212 = PCURVE('',#1187,#1213);
#1213 = DEFINITIONAL_REPRESENTATION('',(#1214),#1218);
#1214 = CIRCLE('',#1215,35.);
#1215 = AXIS2_PLACEMENT_2D('',#1216,#1217);
#1216 = CARTESIAN_POINT('',(0.,0.));
#1217 = DIRECTION('',(1.,0.));
#1218 = ( GEOMETRIC_REPRESENTATION_CONTEXT(2) 
PARAMETRIC_REPRESENTATION_CONTEXT() REPRESENTATION_CONTEXT('2D SPACE',''
  ) );
#1219 = PCURVE('',#1220,#1225);
#1220 = CYLINDRICAL_SURFACE('',#1221,35.);
#1221 = AXIS2_PLACEMENT_3D('',#1222,#1223,#1224);
#1222 = CARTESIAN_POINT('',(0.,0.,0.));
#1223 = DIRECTION('',(0.,0.,1.));
#1224 = DIRECTION('',(1.,0.,0.));
#1225 = DEFINITIONAL_REPRESENTATION('',(#1226),#1230);
#1226 = LINE('',#1227,#1228);
#1227 = CARTESIAN_POINT('',(0.,120.));
#1228 = VECTOR('',#1229,1.);
#1229 = DIRECTION('',(1.,0.));
#1230 = ( GEOMETRIC_REPRESENTATION_CONTEXT(2) 
PARAMETRIC_REPRESENTATION_CONTEXT() REPRESENTATION_CONTEXT('2D SPACE',''
  ) );
#1231 = FACE_BOUND('',#1232,.T.);
#1232 = EDGE_LOOP('',(#1233));
#1233 = ORIENTED_EDGE('',*,*,#1172,.F.);
#1234 = ADVANCED_FACE('',(#1235),#1220,.T.);
#1235 = FACE_BOUND('',#1236,.T.);
#1236 = EDGE_LOOP('',(#1237,#1238,#1261,#1288));
#1237 = ORIENTED_EDGE('',*,*,#1203,.F.);
#1238 = ORIENTED_EDGE('',*,*,#1239,.F.);
#1239 = EDGE_CURVE('',#1240,#1204,#1242,.T.);
#1240 = VERTEX_POINT('',#1241);
#1241 = CARTESIAN_POINT('',(35.,-8.572527594031E-15,0.));
#1242 = SEAM_CURVE('',#1243,(#1247,#1254),.PCURVE_S1.);
#1243 = LINE('',#1244,#1245);
#1244 = CARTESIAN_POINT('',(35.,-8.572527594031E-15,0.));
#1245 = VECTOR('',#1246,1.);
#1246 = DIRECTION('',(0.,0.,1.));
#1247 = PCURVE('',#1220,#1248);
#1248 = DEFINITIONAL_REPRESENTATION('',(#1249),#1253);
#1249 = LINE('',#1250,#1251);
#1250 = CARTESIAN_POINT('',(6.28318530718,-0.));
#1251 = VECTOR('',#1252,1.);
#1252 = DIRECTION('',(0.,1.));
#1253 = ( GEOMETRIC_REPRESENTATION_CONTEXT(2) 
PARAMETRIC_REPRESENTATION_CONTEXT() REPRESENTATION_CONTEXT('2D SPACE',''
  ) );
#1254 = PCURVE('',#1220,#1255);
#1255 = DEFINITIONAL_REPRESENTATION('',(#1256),#1260);
#1256 = LINE('',#1257,#1258);
#1257 = CARTESIAN_POINT('',(0.,-0.));
#1258 = VECTOR('',#1259,1.);
#1259 = DIRECTION('',(0.,1.));
#1260 = ( GEOMETRIC_REPRESENTATION_CONTEXT(2) 
PARAMETRIC_REPRESENTATION_CONTEXT() REPRESENTATION_CONTEXT('2D SPACE',''
  ) );
#1261 = ORIENTED_EDGE('',*,*,#1262,.T.);
#1262 = EDGE_CURVE('',#1240,#1240,#1263,.T.);
#1263 = SURFACE_CURVE('',#1264,(#1269,#1276),.PCURVE_S1.);
#1264 = CIRCLE('',#1265,35.);
#1265 = AXIS2_PLACEMENT_3D('',#1266,#1267,#1268);
#1266 = CARTESIAN_POINT('',(0.,0.,0.));
#1267 = DIRECTION('',(0.,0.,1.));
#1268 = DIRECTION('',(1.,0.,0.));
#1269 = PCURVE('',#1220,#1270);
#1270 = DEFINITIONAL_REPRESENTATION('',(#1271),#1275);
#1271 = LINE('',#1272,#1273);
#1272 = CARTESIAN_POINT('',(0.,0.));
#1273 = VECTOR('',#1274,1.);
#1274 = DIRECTION('',(1.,0.));
#1275 = ( GEOMETRIC_REPRESENTATION_CONTEXT(2) 
PARAMETRIC_REPRESENTATION_CONTEXT() REPRESENTATION_CONTEXT('2D SPACE',''
  ) );
#1276 = PCURVE('',#1277,#1282);
#1277 = PLANE('',#1278);
#1278 = AXIS2_PLACEMENT_3D('',#1279,#1280,#1281);
#1279 = CARTESIAN_POINT('',(0.,0.,0.));
#1280 = DIRECTION('',(0.,0.,1.));
#1281 = DIRECTION('',(1.,0.,0.));
#1282 = DEFINITIONAL_REPRESENTATION('',(#1283),#1287);
#1283 = CIRCLE('',#1284,35.);
#1284 = AXIS2_PLACEMENT_2D('',#1285,#1286);
#1285 = CARTESIAN_POINT('',(0.,0.));
#1286 = DIRECTION('',(1.,0.));
#1287 = ( GEOMETRIC_REPRESENTATION_CONTEXT(2) 
PARAMETRIC_REPRESENTATION_CONTEXT() REPRESENTATION_CONTEXT('2D SPACE',''
  ) );
#1288 = ORIENTED_EDGE('',*,*,#1239,.T.);
#1289 = ADVANCED_FACE('',(#1290),#1277,.F.);
#1290 = FACE_BOUND('',#1291,.T.);
#1291 = EDGE_LOOP('',(#1292));
#1292 = ORIENTED_EDGE('',*,*,#1262,.F.);
#1293 = ( GEOMETRIC_REPRESENTATION_CONTEXT(3) 
GLOBAL_UNCERTAINTY_ASSIGNED_CONTEXT((#1297)) 
GLOBAL_UNIT_ASSIGNED_CONTEXT((#1294,#1295,#1296)) REPRESENTATION_CONTEXT
('Context #1','3D Context with UNIT and UNCERTAINTY') );
#1294 = ( LENGTH_UNIT() NAMED_UNIT(*) SI_UNIT(.MILLI.,.METRE.) );
#1295 = ( NAMED_UNIT(*) PLANE_ANGLE_UNIT() SI_UNIT($,.RADIAN.) );
#1296 = ( NAMED_UNIT(*) SI_UNIT($,.STERADIAN.) SOLID_ANGLE_UNIT() );
#1297 = UNCERTAINTY_MEASURE_WITH_UNIT(LENGTH_MEASURE(1.E-07),#1294,
  'distance_accuracy_value','confusion accuracy');
#1298 = PRODUCT_RELATED_PRODUCT_CATEGORY('part',$,(#7));
ENDSEC;
END-ISO-10303-21;
