ISO-10303-21;
HEADER;
FILE_DESCRIPTION(('Open CASCADE Model'),'2;1');
FILE_NAME('Open CASCADE Shape Model','2026-03-19T11:16:03',('Author'),(
    'Open CASCADE'),'Open CASCADE STEP processor 7.8','Open CASCADE 7.8'
  ,'Unknown');
FILE_SCHEMA(('AUTOMOTIVE_DESIGN { 1 0 10303 214 1 1 1 1 }'));
ENDSEC;
DATA;
#1 = APPLICATION_PROTOCOL_DEFINITION('international standard',
  'automotive_design',2000,#2);
#2 = APPLICATION_CONTEXT(
  'core data for automotive mechanical design processes');
#3 = SHAPE_DEFINITION_REPRESENTATION(#4,#10);
#4 = PRODUCT_DEFINITION_SHAPE('','',#5);
#5 = PRODUCT_DEFINITION('design','',#6,#9);
#6 = PRODUCT_DEFINITION_FORMATION('','',#7);
#7 = PRODUCT('Open CASCADE STEP translator 7.8 1',
  'Open CASCADE STEP translator 7.8 1','',(#8));
#8 = PRODUCT_CONTEXT('',#2,'mechanical');
#9 = PRODUCT_DEFINITION_CONTEXT('part definition',#2,'design');
#10 = ADVANCED_BREP_SHAPE_REPRESENTATION('',(#11,#15),#1500);
#11 = AXIS2_PLACEMENT_3D('',#12,#13,#14);
#12 = CARTESIAN_POINT('',(0.,0.,0.));
#13 = DIRECTION('',(0.,0.,1.));
#14 = DIRECTION('',(1.,0.,-0.));
#15 = MANIFOLD_SOLID_BREP('',#16);
#16 = CLOSED_SHELL('',(#17,#105,#279,#314,#390,#439,#488,#537,#586,#613,
    #668,#677,#1212,#1333,#1471,#1495));
#17 = ADVANCED_FACE('',(#18),#31,.T.);
#18 = FACE_BOUND('',#19,.T.);
#19 = EDGE_LOOP('',(#20,#54,#77,#104));
#20 = ORIENTED_EDGE('',*,*,#21,.F.);
#21 = EDGE_CURVE('',#22,#22,#24,.T.);
#22 = VERTEX_POINT('',#23);
#23 = CARTESIAN_POINT('',(5.,-1.224646799147E-15,16.));
#24 = SURFACE_CURVE('',#25,(#30,#42),.PCURVE_S1.);
#25 = CIRCLE('',#26,5.);
#26 = AXIS2_PLACEMENT_3D('',#27,#28,#29);
#27 = CARTESIAN_POINT('',(0.,0.,16.));
#28 = DIRECTION('',(0.,0.,1.));
#29 = DIRECTION('',(1.,0.,0.));
#30 = PCURVE('',#31,#36);
#31 = CYLINDRICAL_SURFACE('',#32,5.);
#32 = AXIS2_PLACEMENT_3D('',#33,#34,#35);
#33 = CARTESIAN_POINT('',(0.,0.,10.));
#34 = DIRECTION('',(0.,0.,1.));
#35 = DIRECTION('',(1.,0.,0.));
#36 = DEFINITIONAL_REPRESENTATION('',(#37),#41);
#37 = LINE('',#38,#39);
#38 = CARTESIAN_POINT('',(0.,6.));
#39 = VECTOR('',#40,1.);
#40 = DIRECTION('',(1.,0.));
#41 = ( GEOMETRIC_REPRESENTATION_CONTEXT(2) 
PARAMETRIC_REPRESENTATION_CONTEXT() REPRESENTATION_CONTEXT('2D SPACE',''
  ) );
#42 = PCURVE('',#43,#48);
#43 = PLANE('',#44);
#44 = AXIS2_PLACEMENT_3D('',#45,#46,#47);
#45 = CARTESIAN_POINT('',(0.,0.,16.));
#46 = DIRECTION('',(0.,0.,1.));
#47 = DIRECTION('',(1.,0.,0.));
#48 = DEFINITIONAL_REPRESENTATION('',(#49),#53);
#49 = CIRCLE('',#50,5.);
#50 = AXIS2_PLACEMENT_2D('',#51,#52);
#51 = CARTESIAN_POINT('',(0.,0.));
#52 = DIRECTION('',(1.,0.));
#53 = ( GEOMETRIC_REPRESENTATION_CONTEXT(2) 
PARAMETRIC_REPRESENTATION_CONTEXT() REPRESENTATION_CONTEXT('2D SPACE',''
  ) );
#54 = ORIENTED_EDGE('',*,*,#55,.F.);
#55 = EDGE_CURVE('',#56,#22,#58,.T.);
#56 = VERTEX_POINT('',#57);
#57 = CARTESIAN_POINT('',(5.,-1.224646799147E-15,10.));
#58 = SEAM_CURVE('',#59,(#63,#70),.PCURVE_S1.);
#59 = LINE('',#60,#61);
#60 = CARTESIAN_POINT('',(5.,-1.224646799147E-15,10.));
#61 = VECTOR('',#62,1.);
#62 = DIRECTION('',(0.,0.,1.));
#63 = PCURVE('',#31,#64);
#64 = DEFINITIONAL_REPRESENTATION('',(#65),#69);
#65 = LINE('',#66,#67);
#66 = CARTESIAN_POINT('',(6.28318530718,-0.));
#67 = VECTOR('',#68,1.);
#68 = DIRECTION('',(0.,1.));
#69 = ( GEOMETRIC_REPRESENTATION_CONTEXT(2) 
PARAMETRIC_REPRESENTATION_CONTEXT() REPRESENTATION_CONTEXT('2D SPACE',''
  ) );
#70 = PCURVE('',#31,#71);
#71 = DEFINITIONAL_REPRESENTATION('',(#72),#76);
#72 = LINE('',#73,#74);
#73 = CARTESIAN_POINT('',(0.,-0.));
#74 = VECTOR('',#75,1.);
#75 = DIRECTION('',(0.,1.));
#76 = ( GEOMETRIC_REPRESENTATION_CONTEXT(2) 
PARAMETRIC_REPRESENTATION_CONTEXT() REPRESENTATION_CONTEXT('2D SPACE',''
  ) );
#77 = ORIENTED_EDGE('',*,*,#78,.T.);
#78 = EDGE_CURVE('',#56,#56,#79,.T.);
#79 = SURFACE_CURVE('',#80,(#85,#92),.PCURVE_S1.);
#80 = CIRCLE('',#81,5.);
#81 = AXIS2_PLACEMENT_3D('',#82,#83,#84);
#82 = CARTESIAN_POINT('',(0.,0.,10.));
#83 = DIRECTION('',(0.,0.,1.));
#84 = DIRECTION('',(1.,0.,0.));
#85 = PCURVE('',#31,#86);
#86 = DEFINITIONAL_REPRESENTATION('',(#87),#91);
#87 = LINE('',#88,#89);
#88 = CARTESIAN_POINT('',(0.,0.));
#89 = VECTOR('',#90,1.);
#90 = DIRECTION('',(1.,0.));
#91 = ( GEOMETRIC_REPRESENTATION_CONTEXT(2) 
PARAMETRIC_REPRESENTATION_CONTEXT() REPRESENTATION_CONTEXT('2D SPACE',''
  ) );
#92 = PCURVE('',#93,#98);
#93 = PLANE('',#94);
#94 = AXIS2_PLACEMENT_3D('',#95,#96,#97);
#95 = CARTESIAN_POINT('',(0.,0.,10.));
#96 = DIRECTION('',(0.,0.,1.));
#97 = DIRECTION('',(1.,0.,0.));
#98 = DEFINITIONAL_REPRESENTATION('',(#99),#103);
#99 = CIRCLE('',#100,5.);
#100 = AXIS2_PLACEMENT_2D('',#101,#102);
#101 = CARTESIAN_POINT('',(0.,0.));
#102 = DIRECTION('',(1.,0.));
#103 = ( GEOMETRIC_REPRESENTATION_CONTEXT(2) 
PARAMETRIC_REPRESENTATION_CONTEXT() REPRESENTATION_CONTEXT('2D SPACE',''
  ) );
#104 = ORIENTED_EDGE('',*,*,#55,.T.);
#105 = ADVANCED_FACE('',(#106,#109),#43,.T.);
#106 = FACE_BOUND('',#107,.T.);
#107 = EDGE_LOOP('',(#108));
#108 = ORIENTED_EDGE('',*,*,#21,.T.);
#109 = FACE_BOUND('',#110,.T.);
#110 = EDGE_LOOP('',(#111,#141,#169,#197,#225,#253));
#111 = ORIENTED_EDGE('',*,*,#112,.F.);
#112 = EDGE_CURVE('',#113,#115,#117,.T.);
#113 = VERTEX_POINT('',#114);
#114 = CARTESIAN_POINT('',(2.885,0.,16.));
#115 = VERTEX_POINT('',#116);
#116 = CARTESIAN_POINT('',(1.4425,2.498483289918,16.));
#117 = SURFACE_CURVE('',#118,(#122,#129),.PCURVE_S1.);
#118 = LINE('',#119,#120);
#119 = CARTESIAN_POINT('',(2.885,0.,16.));
#120 = VECTOR('',#121,1.);
#121 = DIRECTION('',(-0.5,0.866025403784,0.));
#122 = PCURVE('',#43,#123);
#123 = DEFINITIONAL_REPRESENTATION('',(#124),#128);
#124 = LINE('',#125,#126);
#125 = CARTESIAN_POINT('',(2.885,0.));
#126 = VECTOR('',#127,1.);
#127 = DIRECTION('',(-0.5,0.866025403784));
#128 = ( GEOMETRIC_REPRESENTATION_CONTEXT(2) 
PARAMETRIC_REPRESENTATION_CONTEXT() REPRESENTATION_CONTEXT('2D SPACE',''
  ) );
#129 = PCURVE('',#130,#135);
#130 = PLANE('',#131);
#131 = AXIS2_PLACEMENT_3D('',#132,#133,#134);
#132 = CARTESIAN_POINT('',(2.885,0.,11.));
#133 = DIRECTION('',(-0.866025403784,-0.5,0.));
#134 = DIRECTION('',(-0.5,0.866025403784,0.));
#135 = DEFINITIONAL_REPRESENTATION('',(#136),#140);
#136 = LINE('',#137,#138);
#137 = CARTESIAN_POINT('',(0.,-5.));
#138 = VECTOR('',#139,1.);
#139 = DIRECTION('',(1.,0.));
#140 = ( GEOMETRIC_REPRESENTATION_CONTEXT(2) 
PARAMETRIC_REPRESENTATION_CONTEXT() REPRESENTATION_CONTEXT('2D SPACE',''
  ) );
#141 = ORIENTED_EDGE('',*,*,#142,.F.);
#142 = EDGE_CURVE('',#143,#113,#145,.T.);
#143 = VERTEX_POINT('',#144);
#144 = CARTESIAN_POINT('',(1.4425,-2.498483289918,16.));
#145 = SURFACE_CURVE('',#146,(#150,#157),.PCURVE_S1.);
#146 = LINE('',#147,#148);
#147 = CARTESIAN_POINT('',(1.4425,-2.498483289918,16.));
#148 = VECTOR('',#149,1.);
#149 = DIRECTION('',(0.5,0.866025403784,0.));
#150 = PCURVE('',#43,#151);
#151 = DEFINITIONAL_REPRESENTATION('',(#152),#156);
#152 = LINE('',#153,#154);
#153 = CARTESIAN_POINT('',(1.4425,-2.498483289918));
#154 = VECTOR('',#155,1.);
#155 = DIRECTION('',(0.5,0.866025403784));
#156 = ( GEOMETRIC_REPRESENTATION_CONTEXT(2) 
PARAMETRIC_REPRESENTATION_CONTEXT() REPRESENTATION_CONTEXT('2D SPACE',''
  ) );
#157 = PCURVE('',#158,#163);
#158 = PLANE('',#159);
#159 = AXIS2_PLACEMENT_3D('',#160,#161,#162);
#160 = CARTESIAN_POINT('',(1.4425,-2.498483289918,11.));
#161 = DIRECTION('',(-0.866025403784,0.5,0.));
#162 = DIRECTION('',(0.5,0.866025403784,0.));
#163 = DEFINITIONAL_REPRESENTATION('',(#164),#168);
#164 = LINE('',#165,#166);
#165 = CARTESIAN_POINT('',(0.,-5.));
#166 = VECTOR('',#167,1.);
#167 = DIRECTION('',(1.,0.));
#168 = ( GEOMETRIC_REPRESENTATION_CONTEXT(2) 
PARAMETRIC_REPRESENTATION_CONTEXT() REPRESENTATION_CONTEXT('2D SPACE',''
  ) );
#169 = ORIENTED_EDGE('',*,*,#170,.F.);
#170 = EDGE_CURVE('',#171,#143,#173,.T.);
#171 = VERTEX_POINT('',#172);
#172 = CARTESIAN_POINT('',(-1.4425,-2.498483289918,16.));
#173 = SURFACE_CURVE('',#174,(#178,#185),.PCURVE_S1.);
#174 = LINE('',#175,#176);
#175 = CARTESIAN_POINT('',(-1.4425,-2.498483289918,16.));
#176 = VECTOR('',#177,1.);
#177 = DIRECTION('',(1.,-7.696520101388E-16,0.));
#178 = PCURVE('',#43,#179);
#179 = DEFINITIONAL_REPRESENTATION('',(#180),#184);
#180 = LINE('',#181,#182);
#181 = CARTESIAN_POINT('',(-1.4425,-2.498483289918));
#182 = VECTOR('',#183,1.);
#183 = DIRECTION('',(1.,-7.696520101388E-16));
#184 = ( GEOMETRIC_REPRESENTATION_CONTEXT(2) 
PARAMETRIC_REPRESENTATION_CONTEXT() REPRESENTATION_CONTEXT('2D SPACE',''
  ) );
#185 = PCURVE('',#186,#191);
#186 = PLANE('',#187);
#187 = AXIS2_PLACEMENT_3D('',#188,#189,#190);
#188 = CARTESIAN_POINT('',(-1.4425,-2.498483289918,11.));
#189 = DIRECTION('',(7.696520101388E-16,1.,-0.));
#190 = DIRECTION('',(1.,-7.696520101388E-16,0.));
#191 = DEFINITIONAL_REPRESENTATION('',(#192),#196);
#192 = LINE('',#193,#194);
#193 = CARTESIAN_POINT('',(0.,-5.));
#194 = VECTOR('',#195,1.);
#195 = DIRECTION('',(1.,0.));
#196 = ( GEOMETRIC_REPRESENTATION_CONTEXT(2) 
PARAMETRIC_REPRESENTATION_CONTEXT() REPRESENTATION_CONTEXT('2D SPACE',''
  ) );
#197 = ORIENTED_EDGE('',*,*,#198,.F.);
#198 = EDGE_CURVE('',#199,#171,#201,.T.);
#199 = VERTEX_POINT('',#200);
#200 = CARTESIAN_POINT('',(-2.885,3.53310601554E-16,16.));
#201 = SURFACE_CURVE('',#202,(#206,#213),.PCURVE_S1.);
#202 = LINE('',#203,#204);
#203 = CARTESIAN_POINT('',(-2.885,3.53310601554E-16,16.));
#204 = VECTOR('',#205,1.);
#205 = DIRECTION('',(0.5,-0.866025403784,0.));
#206 = PCURVE('',#43,#207);
#207 = DEFINITIONAL_REPRESENTATION('',(#208),#212);
#208 = LINE('',#209,#210);
#209 = CARTESIAN_POINT('',(-2.885,3.53310601554E-16));
#210 = VECTOR('',#211,1.);
#211 = DIRECTION('',(0.5,-0.866025403784));
#212 = ( GEOMETRIC_REPRESENTATION_CONTEXT(2) 
PARAMETRIC_REPRESENTATION_CONTEXT() REPRESENTATION_CONTEXT('2D SPACE',''
  ) );
#213 = PCURVE('',#214,#219);
#214 = PLANE('',#215);
#215 = AXIS2_PLACEMENT_3D('',#216,#217,#218);
#216 = CARTESIAN_POINT('',(-2.885,3.53310601554E-16,11.));
#217 = DIRECTION('',(0.866025403784,0.5,-0.));
#218 = DIRECTION('',(0.5,-0.866025403784,0.));
#219 = DEFINITIONAL_REPRESENTATION('',(#220),#224);
#220 = LINE('',#221,#222);
#221 = CARTESIAN_POINT('',(0.,-5.));
#222 = VECTOR('',#223,1.);
#223 = DIRECTION('',(1.,0.));
#224 = ( GEOMETRIC_REPRESENTATION_CONTEXT(2) 
PARAMETRIC_REPRESENTATION_CONTEXT() REPRESENTATION_CONTEXT('2D SPACE',''
  ) );
#225 = ORIENTED_EDGE('',*,*,#226,.F.);
#226 = EDGE_CURVE('',#227,#199,#229,.T.);
#227 = VERTEX_POINT('',#228);
#228 = CARTESIAN_POINT('',(-1.4425,2.498483289918,16.));
#229 = SURFACE_CURVE('',#230,(#234,#241),.PCURVE_S1.);
#230 = LINE('',#231,#232);
#231 = CARTESIAN_POINT('',(-1.4425,2.498483289918,16.));
#232 = VECTOR('',#233,1.);
#233 = DIRECTION('',(-0.5,-0.866025403784,0.));
#234 = PCURVE('',#43,#235);
#235 = DEFINITIONAL_REPRESENTATION('',(#236),#240);
#236 = LINE('',#237,#238);
#237 = CARTESIAN_POINT('',(-1.4425,2.498483289918));
#238 = VECTOR('',#239,1.);
#239 = DIRECTION('',(-0.5,-0.866025403784));
#240 = ( GEOMETRIC_REPRESENTATION_CONTEXT(2) 
PARAMETRIC_REPRESENTATION_CONTEXT() REPRESENTATION_CONTEXT('2D SPACE',''
  ) );
#241 = PCURVE('',#242,#247);
#242 = PLANE('',#243);
#243 = AXIS2_PLACEMENT_3D('',#244,#245,#246);
#244 = CARTESIAN_POINT('',(-1.4425,2.498483289918,11.));
#245 = DIRECTION('',(0.866025403784,-0.5,0.));
#246 = DIRECTION('',(-0.5,-0.866025403784,0.));
#247 = DEFINITIONAL_REPRESENTATION('',(#248),#252);
#248 = LINE('',#249,#250);
#249 = CARTESIAN_POINT('',(0.,-5.));
#250 = VECTOR('',#251,1.);
#251 = DIRECTION('',(1.,0.));
#252 = ( GEOMETRIC_REPRESENTATION_CONTEXT(2) 
PARAMETRIC_REPRESENTATION_CONTEXT() REPRESENTATION_CONTEXT('2D SPACE',''
  ) );
#253 = ORIENTED_EDGE('',*,*,#254,.F.);
#254 = EDGE_CURVE('',#115,#227,#255,.T.);
#255 = SURFACE_CURVE('',#256,(#260,#267),.PCURVE_S1.);
#256 = LINE('',#257,#258);
#257 = CARTESIAN_POINT('',(1.4425,2.498483289918,16.));
#258 = VECTOR('',#259,1.);
#259 = DIRECTION('',(-1.,1.539304020278E-16,0.));
#260 = PCURVE('',#43,#261);
#261 = DEFINITIONAL_REPRESENTATION('',(#262),#266);
#262 = LINE('',#263,#264);
#263 = CARTESIAN_POINT('',(1.4425,2.498483289918));
#264 = VECTOR('',#265,1.);
#265 = DIRECTION('',(-1.,1.539304020278E-16));
#266 = ( GEOMETRIC_REPRESENTATION_CONTEXT(2) 
PARAMETRIC_REPRESENTATION_CONTEXT() REPRESENTATION_CONTEXT('2D SPACE',''
  ) );
#267 = PCURVE('',#268,#273);
#268 = PLANE('',#269);
#269 = AXIS2_PLACEMENT_3D('',#270,#271,#272);
#270 = CARTESIAN_POINT('',(1.4425,2.498483289918,11.));
#271 = DIRECTION('',(-1.539304020278E-16,-1.,0.));
#272 = DIRECTION('',(-1.,1.539304020278E-16,0.));
#273 = DEFINITIONAL_REPRESENTATION('',(#274),#278);
#274 = LINE('',#275,#276);
#275 = CARTESIAN_POINT('',(0.,-5.));
#276 = VECTOR('',#277,1.);
#277 = DIRECTION('',(1.,0.));
#278 = ( GEOMETRIC_REPRESENTATION_CONTEXT(2) 
PARAMETRIC_REPRESENTATION_CONTEXT() REPRESENTATION_CONTEXT('2D SPACE',''
  ) );
#279 = ADVANCED_FACE('',(#280,#283),#93,.F.);
#280 = FACE_BOUND('',#281,.F.);
#281 = EDGE_LOOP('',(#282));
#282 = ORIENTED_EDGE('',*,*,#78,.T.);
#283 = FACE_BOUND('',#284,.F.);
#284 = EDGE_LOOP('',(#285));
#285 = ORIENTED_EDGE('',*,*,#286,.F.);
#286 = EDGE_CURVE('',#287,#287,#289,.T.);
#287 = VERTEX_POINT('',#288);
#288 = CARTESIAN_POINT('',(2.2,-5.388445916248E-16,10.));
#289 = SURFACE_CURVE('',#290,(#295,#302),.PCURVE_S1.);
#290 = CIRCLE('',#291,2.2);
#291 = AXIS2_PLACEMENT_3D('',#292,#293,#294);
#292 = CARTESIAN_POINT('',(0.,0.,10.));
#293 = DIRECTION('',(0.,0.,1.));
#294 = DIRECTION('',(1.,0.,0.));
#295 = PCURVE('',#93,#296);
#296 = DEFINITIONAL_REPRESENTATION('',(#297),#301);
#297 = CIRCLE('',#298,2.2);
#298 = AXIS2_PLACEMENT_2D('',#299,#300);
#299 = CARTESIAN_POINT('',(0.,0.));
#300 = DIRECTION('',(1.,0.));
#301 = ( GEOMETRIC_REPRESENTATION_CONTEXT(2) 
PARAMETRIC_REPRESENTATION_CONTEXT() REPRESENTATION_CONTEXT('2D SPACE',''
  ) );
#302 = PCURVE('',#303,#308);
#303 = CYLINDRICAL_SURFACE('',#304,2.2);
#304 = AXIS2_PLACEMENT_3D('',#305,#306,#307);
#305 = CARTESIAN_POINT('',(0.,0.,0.));
#306 = DIRECTION('',(0.,0.,1.));
#307 = DIRECTION('',(1.,0.,0.));
#308 = DEFINITIONAL_REPRESENTATION('',(#309),#313);
#309 = LINE('',#310,#311);
#310 = CARTESIAN_POINT('',(0.,10.));
#311 = VECTOR('',#312,1.);
#312 = DIRECTION('',(1.,0.));
#313 = ( GEOMETRIC_REPRESENTATION_CONTEXT(2) 
PARAMETRIC_REPRESENTATION_CONTEXT() REPRESENTATION_CONTEXT('2D SPACE',''
  ) );
#314 = ADVANCED_FACE('',(#315),#130,.T.);
#315 = FACE_BOUND('',#316,.T.);
#316 = EDGE_LOOP('',(#317,#340,#341,#364));
#317 = ORIENTED_EDGE('',*,*,#318,.T.);
#318 = EDGE_CURVE('',#319,#113,#321,.T.);
#319 = VERTEX_POINT('',#320);
#320 = CARTESIAN_POINT('',(2.885,0.,11.));
#321 = SURFACE_CURVE('',#322,(#326,#333),.PCURVE_S1.);
#322 = LINE('',#323,#324);
#323 = CARTESIAN_POINT('',(2.885,0.,11.));
#324 = VECTOR('',#325,1.);
#325 = DIRECTION('',(0.,0.,1.));
#326 = PCURVE('',#130,#327);
#327 = DEFINITIONAL_REPRESENTATION('',(#328),#332);
#328 = LINE('',#329,#330);
#329 = CARTESIAN_POINT('',(0.,0.));
#330 = VECTOR('',#331,1.);
#331 = DIRECTION('',(0.,-1.));
#332 = ( GEOMETRIC_REPRESENTATION_CONTEXT(2) 
PARAMETRIC_REPRESENTATION_CONTEXT() REPRESENTATION_CONTEXT('2D SPACE',''
  ) );
#333 = PCURVE('',#158,#334);
#334 = DEFINITIONAL_REPRESENTATION('',(#335),#339);
#335 = LINE('',#336,#337);
#336 = CARTESIAN_POINT('',(2.885,0.));
#337 = VECTOR('',#338,1.);
#338 = DIRECTION('',(0.,-1.));
#339 = ( GEOMETRIC_REPRESENTATION_CONTEXT(2) 
PARAMETRIC_REPRESENTATION_CONTEXT() REPRESENTATION_CONTEXT('2D SPACE',''
  ) );
#340 = ORIENTED_EDGE('',*,*,#112,.T.);
#341 = ORIENTED_EDGE('',*,*,#342,.F.);
#342 = EDGE_CURVE('',#343,#115,#345,.T.);
#343 = VERTEX_POINT('',#344);
#344 = CARTESIAN_POINT('',(1.4425,2.498483289918,11.));
#345 = SURFACE_CURVE('',#346,(#350,#357),.PCURVE_S1.);
#346 = LINE('',#347,#348);
#347 = CARTESIAN_POINT('',(1.4425,2.498483289918,11.));
#348 = VECTOR('',#349,1.);
#349 = DIRECTION('',(0.,0.,1.));
#350 = PCURVE('',#130,#351);
#351 = DEFINITIONAL_REPRESENTATION('',(#352),#356);
#352 = LINE('',#353,#354);
#353 = CARTESIAN_POINT('',(2.885,0.));
#354 = VECTOR('',#355,1.);
#355 = DIRECTION('',(0.,-1.));
#356 = ( GEOMETRIC_REPRESENTATION_CONTEXT(2) 
PARAMETRIC_REPRESENTATION_CONTEXT() REPRESENTATION_CONTEXT('2D SPACE',''
  ) );
#357 = PCURVE('',#268,#358);
#358 = DEFINITIONAL_REPRESENTATION('',(#359),#363);
#359 = LINE('',#360,#361);
#360 = CARTESIAN_POINT('',(0.,0.));
#361 = VECTOR('',#362,1.);
#362 = DIRECTION('',(0.,-1.));
#363 = ( GEOMETRIC_REPRESENTATION_CONTEXT(2) 
PARAMETRIC_REPRESENTATION_CONTEXT() REPRESENTATION_CONTEXT('2D SPACE',''
  ) );
#364 = ORIENTED_EDGE('',*,*,#365,.F.);
#365 = EDGE_CURVE('',#319,#343,#366,.T.);
#366 = SURFACE_CURVE('',#367,(#371,#378),.PCURVE_S1.);
#367 = LINE('',#368,#369);
#368 = CARTESIAN_POINT('',(2.885,0.,11.));
#369 = VECTOR('',#370,1.);
#370 = DIRECTION('',(-0.5,0.866025403784,0.));
#371 = PCURVE('',#130,#372);
#372 = DEFINITIONAL_REPRESENTATION('',(#373),#377);
#373 = LINE('',#374,#375);
#374 = CARTESIAN_POINT('',(0.,0.));
#375 = VECTOR('',#376,1.);
#376 = DIRECTION('',(1.,0.));
#377 = ( GEOMETRIC_REPRESENTATION_CONTEXT(2) 
PARAMETRIC_REPRESENTATION_CONTEXT() REPRESENTATION_CONTEXT('2D SPACE',''
  ) );
#378 = PCURVE('',#379,#384);
#379 = PLANE('',#380);
#380 = AXIS2_PLACEMENT_3D('',#381,#382,#383);
#381 = CARTESIAN_POINT('',(-5.131013400925E-17,-7.696520101388E-17,11.)
  );
#382 = DIRECTION('',(0.,0.,1.));
#383 = DIRECTION('',(1.,0.,-0.));
#384 = DEFINITIONAL_REPRESENTATION('',(#385),#389);
#385 = LINE('',#386,#387);
#386 = CARTESIAN_POINT('',(2.885,7.696520101388E-17));
#387 = VECTOR('',#388,1.);
#388 = DIRECTION('',(-0.5,0.866025403784));
#389 = ( GEOMETRIC_REPRESENTATION_CONTEXT(2) 
PARAMETRIC_REPRESENTATION_CONTEXT() REPRESENTATION_CONTEXT('2D SPACE',''
  ) );
#390 = ADVANCED_FACE('',(#391),#268,.T.);
#391 = FACE_BOUND('',#392,.T.);
#392 = EDGE_LOOP('',(#393,#394,#395,#418));
#393 = ORIENTED_EDGE('',*,*,#342,.T.);
#394 = ORIENTED_EDGE('',*,*,#254,.T.);
#395 = ORIENTED_EDGE('',*,*,#396,.F.);
#396 = EDGE_CURVE('',#397,#227,#399,.T.);
#397 = VERTEX_POINT('',#398);
#398 = CARTESIAN_POINT('',(-1.4425,2.498483289918,11.));
#399 = SURFACE_CURVE('',#400,(#404,#411),.PCURVE_S1.);
#400 = LINE('',#401,#402);
#401 = CARTESIAN_POINT('',(-1.4425,2.498483289918,11.));
#402 = VECTOR('',#403,1.);
#403 = DIRECTION('',(0.,0.,1.));
#404 = PCURVE('',#268,#405);
#405 = DEFINITIONAL_REPRESENTATION('',(#406),#410);
#406 = LINE('',#407,#408);
#407 = CARTESIAN_POINT('',(2.885,0.));
#408 = VECTOR('',#409,1.);
#409 = DIRECTION('',(0.,-1.));
#410 = ( GEOMETRIC_REPRESENTATION_CONTEXT(2) 
PARAMETRIC_REPRESENTATION_CONTEXT() REPRESENTATION_CONTEXT('2D SPACE',''
  ) );
#411 = PCURVE('',#242,#412);
#412 = DEFINITIONAL_REPRESENTATION('',(#413),#417);
#413 = LINE('',#414,#415);
#414 = CARTESIAN_POINT('',(0.,0.));
#415 = VECTOR('',#416,1.);
#416 = DIRECTION('',(0.,-1.));
#417 = ( GEOMETRIC_REPRESENTATION_CONTEXT(2) 
PARAMETRIC_REPRESENTATION_CONTEXT() REPRESENTATION_CONTEXT('2D SPACE',''
  ) );
#418 = ORIENTED_EDGE('',*,*,#419,.F.);
#419 = EDGE_CURVE('',#343,#397,#420,.T.);
#420 = SURFACE_CURVE('',#421,(#425,#432),.PCURVE_S1.);
#421 = LINE('',#422,#423);
#422 = CARTESIAN_POINT('',(1.4425,2.498483289918,11.));
#423 = VECTOR('',#424,1.);
#424 = DIRECTION('',(-1.,1.539304020278E-16,0.));
#425 = PCURVE('',#268,#426);
#426 = DEFINITIONAL_REPRESENTATION('',(#427),#431);
#427 = LINE('',#428,#429);
#428 = CARTESIAN_POINT('',(0.,0.));
#429 = VECTOR('',#430,1.);
#430 = DIRECTION('',(1.,0.));
#431 = ( GEOMETRIC_REPRESENTATION_CONTEXT(2) 
PARAMETRIC_REPRESENTATION_CONTEXT() REPRESENTATION_CONTEXT('2D SPACE',''
  ) );
#432 = PCURVE('',#379,#433);
#433 = DEFINITIONAL_REPRESENTATION('',(#434),#438);
#434 = LINE('',#435,#436);
#435 = CARTESIAN_POINT('',(1.4425,2.498483289918));
#436 = VECTOR('',#437,1.);
#437 = DIRECTION('',(-1.,1.539304020278E-16));
#438 = ( GEOMETRIC_REPRESENTATION_CONTEXT(2) 
PARAMETRIC_REPRESENTATION_CONTEXT() REPRESENTATION_CONTEXT('2D SPACE',''
  ) );
#439 = ADVANCED_FACE('',(#440),#242,.T.);
#440 = FACE_BOUND('',#441,.T.);
#441 = EDGE_LOOP('',(#442,#443,#444,#467));
#442 = ORIENTED_EDGE('',*,*,#396,.T.);
#443 = ORIENTED_EDGE('',*,*,#226,.T.);
#444 = ORIENTED_EDGE('',*,*,#445,.F.);
#445 = EDGE_CURVE('',#446,#199,#448,.T.);
#446 = VERTEX_POINT('',#447);
#447 = CARTESIAN_POINT('',(-2.885,3.53310601554E-16,11.));
#448 = SURFACE_CURVE('',#449,(#453,#460),.PCURVE_S1.);
#449 = LINE('',#450,#451);
#450 = CARTESIAN_POINT('',(-2.885,3.53310601554E-16,11.));
#451 = VECTOR('',#452,1.);
#452 = DIRECTION('',(0.,0.,1.));
#453 = PCURVE('',#242,#454);
#454 = DEFINITIONAL_REPRESENTATION('',(#455),#459);
#455 = LINE('',#456,#457);
#456 = CARTESIAN_POINT('',(2.885,0.));
#457 = VECTOR('',#458,1.);
#458 = DIRECTION('',(0.,-1.));
#459 = ( GEOMETRIC_REPRESENTATION_CONTEXT(2) 
PARAMETRIC_REPRESENTATION_CONTEXT() REPRESENTATION_CONTEXT('2D SPACE',''
  ) );
#460 = PCURVE('',#214,#461);
#461 = DEFINITIONAL_REPRESENTATION('',(#462),#466);
#462 = LINE('',#463,#464);
#463 = CARTESIAN_POINT('',(0.,0.));
#464 = VECTOR('',#465,1.);
#465 = DIRECTION('',(0.,-1.));
#466 = ( GEOMETRIC_REPRESENTATION_CONTEXT(2) 
PARAMETRIC_REPRESENTATION_CONTEXT() REPRESENTATION_CONTEXT('2D SPACE',''
  ) );
#467 = ORIENTED_EDGE('',*,*,#468,.F.);
#468 = EDGE_CURVE('',#397,#446,#469,.T.);
#469 = SURFACE_CURVE('',#470,(#474,#481),.PCURVE_S1.);
#470 = LINE('',#471,#472);
#471 = CARTESIAN_POINT('',(-1.4425,2.498483289918,11.));
#472 = VECTOR('',#473,1.);
#473 = DIRECTION('',(-0.5,-0.866025403784,0.));
#474 = PCURVE('',#242,#475);
#475 = DEFINITIONAL_REPRESENTATION('',(#476),#480);
#476 = LINE('',#477,#478);
#477 = CARTESIAN_POINT('',(0.,0.));
#478 = VECTOR('',#479,1.);
#479 = DIRECTION('',(1.,0.));
#480 = ( GEOMETRIC_REPRESENTATION_CONTEXT(2) 
PARAMETRIC_REPRESENTATION_CONTEXT() REPRESENTATION_CONTEXT('2D SPACE',''
  ) );
#481 = PCURVE('',#379,#482);
#482 = DEFINITIONAL_REPRESENTATION('',(#483),#487);
#483 = LINE('',#484,#485);
#484 = CARTESIAN_POINT('',(-1.4425,2.498483289918));
#485 = VECTOR('',#486,1.);
#486 = DIRECTION('',(-0.5,-0.866025403784));
#487 = ( GEOMETRIC_REPRESENTATION_CONTEXT(2) 
PARAMETRIC_REPRESENTATION_CONTEXT() REPRESENTATION_CONTEXT('2D SPACE',''
  ) );
#488 = ADVANCED_FACE('',(#489),#214,.T.);
#489 = FACE_BOUND('',#490,.T.);
#490 = EDGE_LOOP('',(#491,#492,#493,#516));
#491 = ORIENTED_EDGE('',*,*,#445,.T.);
#492 = ORIENTED_EDGE('',*,*,#198,.T.);
#493 = ORIENTED_EDGE('',*,*,#494,.F.);
#494 = EDGE_CURVE('',#495,#171,#497,.T.);
#495 = VERTEX_POINT('',#496);
#496 = CARTESIAN_POINT('',(-1.4425,-2.498483289918,11.));
#497 = SURFACE_CURVE('',#498,(#502,#509),.PCURVE_S1.);
#498 = LINE('',#499,#500);
#499 = CARTESIAN_POINT('',(-1.4425,-2.498483289918,11.));
#500 = VECTOR('',#501,1.);
#501 = DIRECTION('',(0.,0.,1.));
#502 = PCURVE('',#214,#503);
#503 = DEFINITIONAL_REPRESENTATION('',(#504),#508);
#504 = LINE('',#505,#506);
#505 = CARTESIAN_POINT('',(2.885,0.));
#506 = VECTOR('',#507,1.);
#507 = DIRECTION('',(0.,-1.));
#508 = ( GEOMETRIC_REPRESENTATION_CONTEXT(2) 
PARAMETRIC_REPRESENTATION_CONTEXT() REPRESENTATION_CONTEXT('2D SPACE',''
  ) );
#509 = PCURVE('',#186,#510);
#510 = DEFINITIONAL_REPRESENTATION('',(#511),#515);
#511 = LINE('',#512,#513);
#512 = CARTESIAN_POINT('',(0.,0.));
#513 = VECTOR('',#514,1.);
#514 = DIRECTION('',(0.,-1.));
#515 = ( GEOMETRIC_REPRESENTATION_CONTEXT(2) 
PARAMETRIC_REPRESENTATION_CONTEXT() REPRESENTATION_CONTEXT('2D SPACE',''
  ) );
#516 = ORIENTED_EDGE('',*,*,#517,.F.);
#517 = EDGE_CURVE('',#446,#495,#518,.T.);
#518 = SURFACE_CURVE('',#519,(#523,#530),.PCURVE_S1.);
#519 = LINE('',#520,#521);
#520 = CARTESIAN_POINT('',(-2.885,3.53310601554E-16,11.));
#521 = VECTOR('',#522,1.);
#522 = DIRECTION('',(0.5,-0.866025403784,0.));
#523 = PCURVE('',#214,#524);
#524 = DEFINITIONAL_REPRESENTATION('',(#525),#529);
#525 = LINE('',#526,#527);
#526 = CARTESIAN_POINT('',(0.,0.));
#527 = VECTOR('',#528,1.);
#528 = DIRECTION('',(1.,0.));
#529 = ( GEOMETRIC_REPRESENTATION_CONTEXT(2) 
PARAMETRIC_REPRESENTATION_CONTEXT() REPRESENTATION_CONTEXT('2D SPACE',''
  ) );
#530 = PCURVE('',#379,#531);
#531 = DEFINITIONAL_REPRESENTATION('',(#532),#536);
#532 = LINE('',#533,#534);
#533 = CARTESIAN_POINT('',(-2.885,4.302758025679E-16));
#534 = VECTOR('',#535,1.);
#535 = DIRECTION('',(0.5,-0.866025403784));
#536 = ( GEOMETRIC_REPRESENTATION_CONTEXT(2) 
PARAMETRIC_REPRESENTATION_CONTEXT() REPRESENTATION_CONTEXT('2D SPACE',''
  ) );
#537 = ADVANCED_FACE('',(#538),#186,.T.);
#538 = FACE_BOUND('',#539,.T.);
#539 = EDGE_LOOP('',(#540,#541,#542,#565));
#540 = ORIENTED_EDGE('',*,*,#494,.T.);
#541 = ORIENTED_EDGE('',*,*,#170,.T.);
#542 = ORIENTED_EDGE('',*,*,#543,.F.);
#543 = EDGE_CURVE('',#544,#143,#546,.T.);
#544 = VERTEX_POINT('',#545);
#545 = CARTESIAN_POINT('',(1.4425,-2.498483289918,11.));
#546 = SURFACE_CURVE('',#547,(#551,#558),.PCURVE_S1.);
#547 = LINE('',#548,#549);
#548 = CARTESIAN_POINT('',(1.4425,-2.498483289918,11.));
#549 = VECTOR('',#550,1.);
#550 = DIRECTION('',(0.,0.,1.));
#551 = PCURVE('',#186,#552);
#552 = DEFINITIONAL_REPRESENTATION('',(#553),#557);
#553 = LINE('',#554,#555);
#554 = CARTESIAN_POINT('',(2.885,0.));
#555 = VECTOR('',#556,1.);
#556 = DIRECTION('',(0.,-1.));
#557 = ( GEOMETRIC_REPRESENTATION_CONTEXT(2) 
PARAMETRIC_REPRESENTATION_CONTEXT() REPRESENTATION_CONTEXT('2D SPACE',''
  ) );
#558 = PCURVE('',#158,#559);
#559 = DEFINITIONAL_REPRESENTATION('',(#560),#564);
#560 = LINE('',#561,#562);
#561 = CARTESIAN_POINT('',(0.,0.));
#562 = VECTOR('',#563,1.);
#563 = DIRECTION('',(0.,-1.));
#564 = ( GEOMETRIC_REPRESENTATION_CONTEXT(2) 
PARAMETRIC_REPRESENTATION_CONTEXT() REPRESENTATION_CONTEXT('2D SPACE',''
  ) );
#565 = ORIENTED_EDGE('',*,*,#566,.F.);
#566 = EDGE_CURVE('',#495,#544,#567,.T.);
#567 = SURFACE_CURVE('',#568,(#572,#579),.PCURVE_S1.);
#568 = LINE('',#569,#570);
#569 = CARTESIAN_POINT('',(-1.4425,-2.498483289918,11.));
#570 = VECTOR('',#571,1.);
#571 = DIRECTION('',(1.,-7.696520101388E-16,0.));
#572 = PCURVE('',#186,#573);
#573 = DEFINITIONAL_REPRESENTATION('',(#574),#578);
#574 = LINE('',#575,#576);
#575 = CARTESIAN_POINT('',(0.,0.));
#576 = VECTOR('',#577,1.);
#577 = DIRECTION('',(1.,0.));
#578 = ( GEOMETRIC_REPRESENTATION_CONTEXT(2) 
PARAMETRIC_REPRESENTATION_CONTEXT() REPRESENTATION_CONTEXT('2D SPACE',''
  ) );
#579 = PCURVE('',#379,#580);
#580 = DEFINITIONAL_REPRESENTATION('',(#581),#585);
#581 = LINE('',#582,#583);
#582 = CARTESIAN_POINT('',(-1.4425,-2.498483289918));
#583 = VECTOR('',#584,1.);
#584 = DIRECTION('',(1.,-7.696520101388E-16));
#585 = ( GEOMETRIC_REPRESENTATION_CONTEXT(2) 
PARAMETRIC_REPRESENTATION_CONTEXT() REPRESENTATION_CONTEXT('2D SPACE',''
  ) );
#586 = ADVANCED_FACE('',(#587),#158,.T.);
#587 = FACE_BOUND('',#588,.T.);
#588 = EDGE_LOOP('',(#589,#590,#591,#592));
#589 = ORIENTED_EDGE('',*,*,#543,.T.);
#590 = ORIENTED_EDGE('',*,*,#142,.T.);
#591 = ORIENTED_EDGE('',*,*,#318,.F.);
#592 = ORIENTED_EDGE('',*,*,#593,.F.);
#593 = EDGE_CURVE('',#544,#319,#594,.T.);
#594 = SURFACE_CURVE('',#595,(#599,#606),.PCURVE_S1.);
#595 = LINE('',#596,#597);
#596 = CARTESIAN_POINT('',(1.4425,-2.498483289918,11.));
#597 = VECTOR('',#598,1.);
#598 = DIRECTION('',(0.5,0.866025403784,0.));
#599 = PCURVE('',#158,#600);
#600 = DEFINITIONAL_REPRESENTATION('',(#601),#605);
#601 = LINE('',#602,#603);
#602 = CARTESIAN_POINT('',(0.,0.));
#603 = VECTOR('',#604,1.);
#604 = DIRECTION('',(1.,0.));
#605 = ( GEOMETRIC_REPRESENTATION_CONTEXT(2) 
PARAMETRIC_REPRESENTATION_CONTEXT() REPRESENTATION_CONTEXT('2D SPACE',''
  ) );
#606 = PCURVE('',#379,#607);
#607 = DEFINITIONAL_REPRESENTATION('',(#608),#612);
#608 = LINE('',#609,#610);
#609 = CARTESIAN_POINT('',(1.4425,-2.498483289918));
#610 = VECTOR('',#611,1.);
#611 = DIRECTION('',(0.5,0.866025403784));
#612 = ( GEOMETRIC_REPRESENTATION_CONTEXT(2) 
PARAMETRIC_REPRESENTATION_CONTEXT() REPRESENTATION_CONTEXT('2D SPACE',''
  ) );
#613 = ADVANCED_FACE('',(#614),#303,.T.);
#614 = FACE_BOUND('',#615,.T.);
#615 = EDGE_LOOP('',(#616,#617,#640,#667));
#616 = ORIENTED_EDGE('',*,*,#286,.F.);
#617 = ORIENTED_EDGE('',*,*,#618,.F.);
#618 = EDGE_CURVE('',#619,#287,#621,.T.);
#619 = VERTEX_POINT('',#620);
#620 = CARTESIAN_POINT('',(2.2,-5.388445916248E-16,0.));
#621 = SEAM_CURVE('',#622,(#626,#633),.PCURVE_S1.);
#622 = LINE('',#623,#624);
#623 = CARTESIAN_POINT('',(2.2,-5.388445916248E-16,0.));
#624 = VECTOR('',#625,1.);
#625 = DIRECTION('',(0.,0.,1.));
#626 = PCURVE('',#303,#627);
#627 = DEFINITIONAL_REPRESENTATION('',(#628),#632);
#628 = LINE('',#629,#630);
#629 = CARTESIAN_POINT('',(6.28318530718,-0.));
#630 = VECTOR('',#631,1.);
#631 = DIRECTION('',(0.,1.));
#632 = ( GEOMETRIC_REPRESENTATION_CONTEXT(2) 
PARAMETRIC_REPRESENTATION_CONTEXT() REPRESENTATION_CONTEXT('2D SPACE',''
  ) );
#633 = PCURVE('',#303,#634);
#634 = DEFINITIONAL_REPRESENTATION('',(#635),#639);
#635 = LINE('',#636,#637);
#636 = CARTESIAN_POINT('',(0.,-0.));
#637 = VECTOR('',#638,1.);
#638 = DIRECTION('',(0.,1.));
#639 = ( GEOMETRIC_REPRESENTATION_CONTEXT(2) 
PARAMETRIC_REPRESENTATION_CONTEXT() REPRESENTATION_CONTEXT('2D SPACE',''
  ) );
#640 = ORIENTED_EDGE('',*,*,#641,.T.);
#641 = EDGE_CURVE('',#619,#619,#642,.T.);
#642 = SURFACE_CURVE('',#643,(#648,#655),.PCURVE_S1.);
#643 = CIRCLE('',#644,2.2);
#644 = AXIS2_PLACEMENT_3D('',#645,#646,#647);
#645 = CARTESIAN_POINT('',(0.,0.,0.));
#646 = DIRECTION('',(0.,0.,1.));
#647 = DIRECTION('',(1.,0.,0.));
#648 = PCURVE('',#303,#649);
#649 = DEFINITIONAL_REPRESENTATION('',(#650),#654);
#650 = LINE('',#651,#652);
#651 = CARTESIAN_POINT('',(0.,0.));
#652 = VECTOR('',#653,1.);
#653 = DIRECTION('',(1.,0.));
#654 = ( GEOMETRIC_REPRESENTATION_CONTEXT(2) 
PARAMETRIC_REPRESENTATION_CONTEXT() REPRESENTATION_CONTEXT('2D SPACE',''
  ) );
#655 = PCURVE('',#656,#661);
#656 = PLANE('',#657);
#657 = AXIS2_PLACEMENT_3D('',#658,#659,#660);
#658 = CARTESIAN_POINT('',(0.,0.,0.));
#659 = DIRECTION('',(0.,0.,1.));
#660 = DIRECTION('',(1.,0.,0.));
#661 = DEFINITIONAL_REPRESENTATION('',(#662),#666);
#662 = CIRCLE('',#663,2.2);
#663 = AXIS2_PLACEMENT_2D('',#664,#665);
#664 = CARTESIAN_POINT('',(0.,0.));
#665 = DIRECTION('',(1.,0.));
#666 = ( GEOMETRIC_REPRESENTATION_CONTEXT(2) 
PARAMETRIC_REPRESENTATION_CONTEXT() REPRESENTATION_CONTEXT('2D SPACE',''
  ) );
#667 = ORIENTED_EDGE('',*,*,#618,.T.);
#668 = ADVANCED_FACE('',(#669),#379,.T.);
#669 = FACE_BOUND('',#670,.T.);
#670 = EDGE_LOOP('',(#671,#672,#673,#674,#675,#676));
#671 = ORIENTED_EDGE('',*,*,#365,.T.);
#672 = ORIENTED_EDGE('',*,*,#419,.T.);
#673 = ORIENTED_EDGE('',*,*,#468,.T.);
#674 = ORIENTED_EDGE('',*,*,#517,.T.);
#675 = ORIENTED_EDGE('',*,*,#566,.T.);
#676 = ORIENTED_EDGE('',*,*,#593,.T.);
#677 = ADVANCED_FACE('',(#678,#681),#656,.F.);
#678 = FACE_BOUND('',#679,.F.);
#679 = EDGE_LOOP('',(#680));
#680 = ORIENTED_EDGE('',*,*,#641,.T.);
#681 = FACE_BOUND('',#682,.F.);
#682 = EDGE_LOOP('',(#683,#942));
#683 = ORIENTED_EDGE('',*,*,#684,.F.);
#684 = EDGE_CURVE('',#685,#687,#689,.T.);
#685 = VERTEX_POINT('',#686);
#686 = CARTESIAN_POINT('',(-1.288835152348E-06,-1.27752096391E-06,0.));
#687 = VERTEX_POINT('',#688);
#688 = CARTESIAN_POINT('',(-0.800002171594,2.197779655599E-06,0.));
#689 = SURFACE_CURVE('',#690,(#723,#759),.PCURVE_S1.);
#690 = B_SPLINE_CURVE_WITH_KNOTS('',7,(#691,#692,#693,#694,#695,#696,
    #697,#698,#699,#700,#701,#702,#703,#704,#705,#706,#707,#708,#709,
    #710,#711,#712,#713,#714,#715,#716,#717,#718,#719,#720,#721,#722),
  .UNSPECIFIED.,.F.,.F.,(8,6,6,6,6,8),(0.,0.28173249567,0.441265495696,
    0.619849942793,0.743399790085,1.),.UNSPECIFIED.);
#691 = CARTESIAN_POINT('',(5.811084162644E-06,-1.337633886155E-06,0.));
#692 = CARTESIAN_POINT('',(3.477258245483E-02,9.569718897134E-06,0.));
#693 = CARTESIAN_POINT('',(6.957444324856E-02,1.108437474171E-02,0.));
#694 = CARTESIAN_POINT('',(0.101118958635,3.327649648137E-02,0.));
#695 = CARTESIAN_POINT('',(0.126172104519,6.539015563206E-02,0.));
#696 = CARTESIAN_POINT('',(0.142109982509,0.105241542167,0.));
#697 = CARTESIAN_POINT('',(0.147183313746,0.149941230594,0.));
#698 = CARTESIAN_POINT('',(0.137154957013,0.222631080402,0.));
#699 = CARTESIAN_POINT('',(0.129847875941,0.249472981112,0.));
#700 = CARTESIAN_POINT('',(0.11873948475,0.276315202619,0.));
#701 = CARTESIAN_POINT('',(0.103819006817,0.3025851247,0.));
#702 = CARTESIAN_POINT('',(8.517770675087E-02,0.327720504184,0.));
#703 = CARTESIAN_POINT('',(6.300187544809E-02,0.35119083019,0.));
#704 = CARTESIAN_POINT('',(9.092177953547E-03,0.396393502429,0.));
#705 = CARTESIAN_POINT('',(-2.347280001466E-02,0.417588196569,0.));
#706 = CARTESIAN_POINT('',(-5.974718192523E-02,0.435428908904,0.));
#707 = CARTESIAN_POINT('',(-9.922607277819E-02,0.449335649615,0.));
#708 = CARTESIAN_POINT('',(-0.141314157503,0.458838698327,0.));
#709 = CARTESIAN_POINT('',(-0.185353162561,0.463591633216,0.));
#710 = CARTESIAN_POINT('',(-0.261977909346,0.463235248853,0.));
#711 = CARTESIAN_POINT('',(-0.293914604491,0.460713808567,0.));
#712 = CARTESIAN_POINT('',(-0.32622510106,0.455745225897,0.));
#713 = CARTESIAN_POINT('',(-0.35867598812,0.448287667974,0.));
#714 = CARTESIAN_POINT('',(-0.391033200626,0.438327954104,0.));
#715 = CARTESIAN_POINT('',(-0.423065550829,0.425880604721,0.));
#716 = CARTESIAN_POINT('',(-0.519934578456,0.380054191408,0.));
#717 = CARTESIAN_POINT('',(-0.582975070945,0.33855736536,0.));
#718 = CARTESIAN_POINT('',(-0.64161953187,0.286867377564,0.));
#719 = CARTESIAN_POINT('',(-0.694028448096,0.225846674035,0.));
#720 = CARTESIAN_POINT('',(-0.738659234391,0.156684464675,0.));
#721 = CARTESIAN_POINT('',(-0.774266546542,8.084135486921E-02,0.));
#722 = CARTESIAN_POINT('',(-0.800002171594,2.197779647273E-06,0.));
#723 = PCURVE('',#656,#724);
#724 = DEFINITIONAL_REPRESENTATION('',(#725),#758);
#725 = B_SPLINE_CURVE_WITH_KNOTS('',7,(#726,#727,#728,#729,#730,#731,
    #732,#733,#734,#735,#736,#737,#738,#739,#740,#741,#742,#743,#744,
    #745,#746,#747,#748,#749,#750,#751,#752,#753,#754,#755,#756,#757),
  .UNSPECIFIED.,.F.,.F.,(8,6,6,6,6,8),(0.,0.28173249567,0.441265495696,
    0.619849942793,0.743399790085,1.),.UNSPECIFIED.);
#726 = CARTESIAN_POINT('',(5.811084162644E-06,-1.337633886155E-06));
#727 = CARTESIAN_POINT('',(3.477258245483E-02,9.569718897134E-06));
#728 = CARTESIAN_POINT('',(6.957444324856E-02,1.108437474171E-02));
#729 = CARTESIAN_POINT('',(0.101118958635,3.327649648137E-02));
#730 = CARTESIAN_POINT('',(0.126172104519,6.539015563206E-02));
#731 = CARTESIAN_POINT('',(0.142109982509,0.105241542167));
#732 = CARTESIAN_POINT('',(0.147183313746,0.149941230594));
#733 = CARTESIAN_POINT('',(0.137154957013,0.222631080402));
#734 = CARTESIAN_POINT('',(0.129847875941,0.249472981112));
#735 = CARTESIAN_POINT('',(0.11873948475,0.276315202619));
#736 = CARTESIAN_POINT('',(0.103819006817,0.3025851247));
#737 = CARTESIAN_POINT('',(8.517770675087E-02,0.327720504184));
#738 = CARTESIAN_POINT('',(6.300187544809E-02,0.35119083019));
#739 = CARTESIAN_POINT('',(9.092177953547E-03,0.396393502429));
#740 = CARTESIAN_POINT('',(-2.347280001466E-02,0.417588196569));
#741 = CARTESIAN_POINT('',(-5.974718192523E-02,0.435428908904));
#742 = CARTESIAN_POINT('',(-9.922607277819E-02,0.449335649615));
#743 = CARTESIAN_POINT('',(-0.141314157503,0.458838698327));
#744 = CARTESIAN_POINT('',(-0.185353162561,0.463591633216));
#745 = CARTESIAN_POINT('',(-0.261977909346,0.463235248853));
#746 = CARTESIAN_POINT('',(-0.293914604491,0.460713808567));
#747 = CARTESIAN_POINT('',(-0.32622510106,0.455745225897));
#748 = CARTESIAN_POINT('',(-0.35867598812,0.448287667974));
#749 = CARTESIAN_POINT('',(-0.391033200626,0.438327954104));
#750 = CARTESIAN_POINT('',(-0.423065550829,0.425880604721));
#751 = CARTESIAN_POINT('',(-0.519934578456,0.380054191408));
#752 = CARTESIAN_POINT('',(-0.582975070945,0.33855736536));
#753 = CARTESIAN_POINT('',(-0.64161953187,0.286867377564));
#754 = CARTESIAN_POINT('',(-0.694028448096,0.225846674035));
#755 = CARTESIAN_POINT('',(-0.738659234391,0.156684464675));
#756 = CARTESIAN_POINT('',(-0.774266546542,8.084135486921E-02));
#757 = CARTESIAN_POINT('',(-0.800002171594,2.197779647273E-06));
#758 = ( GEOMETRIC_REPRESENTATION_CONTEXT(2) 
PARAMETRIC_REPRESENTATION_CONTEXT() REPRESENTATION_CONTEXT('2D SPACE',''
  ) );
#759 = PCURVE('',#760,#907);
#760 = B_SPLINE_SURFACE_WITH_KNOTS('',1,9,(
    (#761,#762,#763,#764,#765,#766,#767,#768,#769,#770,#771,#772,#773
      ,#774,#775,#776,#777,#778,#779,#780,#781,#782,#783,#784,#785,#786
      ,#787,#788,#789,#790,#791,#792,#793,#794,#795,#796,#797,#798,#799
      ,#800,#801,#802,#803,#804,#805,#806,#807,#808,#809,#810,#811,#812
      ,#813,#814,#815,#816,#817,#818,#819,#820,#821,#822,#823,#824,#825
      ,#826,#827,#828,#829,#830,#831,#832,#833)
    ,(#834,#835,#836,#837,#838,#839,#840,#841,#842,#843,#844,#845,#846
      ,#847,#848,#849,#850,#851,#852,#853,#854,#855,#856,#857,#858,#859
      ,#860,#861,#862,#863,#864,#865,#866,#867,#868,#869,#870,#871,#872
      ,#873,#874,#875,#876,#877,#878,#879,#880,#881,#882,#883,#884,#885
      ,#886,#887,#888,#889,#890,#891,#892,#893,#894,#895,#896,#897,#898
      ,#899,#900,#901,#902,#903,#904,#905,#906
  )),.UNSPECIFIED.,.F.,.F.,.F.,(2,2),(10,9,9,9,9,9,9,9,10),(0.,
    1.096585609973),(0.,5.383128066543,10.766256133086,16.149384199629,
    21.532512266172,26.915640332715,32.298768399258,37.681896465802,
    43.065024532345),.PIECEWISE_BEZIER_KNOTS.);
#761 = CARTESIAN_POINT('',(-1.726741349905E-07,-1.337637428242E-06,
    5.609802138373E-06));
#762 = CARTESIAN_POINT('',(6.05387185758E-07,4.15564793601E-05,
    0.138848102422));
#763 = CARTESIAN_POINT('',(-1.543149432547E-05,-1.713110337506E-04,
    0.277923743119));
#764 = CARTESIAN_POINT('',(8.399911603155E-05,3.543204125342E-04,
    0.416350349855));
#765 = CARTESIAN_POINT('',(-2.046534541077E-04,-4.632977698512E-04,
    0.556014249375));
#766 = CARTESIAN_POINT('',(2.993559156538E-04,4.11205730563E-04,
    0.693986072022));
#767 = CARTESIAN_POINT('',(-2.657580528954E-04,-2.479158317302E-04,
    0.83364997153));
#768 = CARTESIAN_POINT('',(1.389752934023E-04,1.000623951231E-04,
    0.972076578281));
#769 = CARTESIAN_POINT('',(-3.741312907589E-05,-2.129682709933E-05,
    1.11115221897));
#770 = CARTESIAN_POINT('',(-2.205898232967E-07,7.203070007117E-08,
    1.249994711592));
#771 = CARTESIAN_POINT('',(3.44184763939E-05,1.917247323665E-05,
    1.388868034904));
#772 = CARTESIAN_POINT('',(-1.533990093713E-04,-7.07462008881E-05,
    1.52789526316));
#773 = CARTESIAN_POINT('',(3.457972923598E-04,1.026523303657E-04,
    1.666382834014));
#774 = CARTESIAN_POINT('',(-5.007598750902E-04,-5.280038886739E-05,
    1.805984513263));
#775 = CARTESIAN_POINT('',(5.037574077653E-04,-5.482196858067E-05,
    1.944007728131));
#776 = CARTESIAN_POINT('',(-3.464333911192E-04,1.068575606429E-04,
    2.083637765831));
#777 = CARTESIAN_POINT('',(1.556759295574E-04,-7.059530962086E-05,
    2.222081561403));
#778 = CARTESIAN_POINT('',(-3.703636167853E-05,2.181800826964E-05,
    2.361151008057));
#779 = CARTESIAN_POINT('',(-4.791420882299E-08,2.270515528923E-07,
    2.499994711591));
#780 = CARTESIAN_POINT('',(3.381308516666E-05,-2.008963562313E-05,
    2.638869245814));
#781 = CARTESIAN_POINT('',(-1.37967506595E-04,9.693359496483E-05,
    2.77789028005));
#782 = CARTESIAN_POINT('',(2.617981628838E-04,-2.468185757457E-04,
    2.916395039689));
#783 = CARTESIAN_POINT('',(-2.961064045887E-04,4.049205743971E-04,
    3.055962857189));
#784 = CARTESIAN_POINT('',(2.044014765683E-04,-4.604508967442E-04,
    3.194037464207));
#785 = CARTESIAN_POINT('',(-8.067532655545E-05,3.499238947036E-04,
    3.3336052817));
#786 = CARTESIAN_POINT('',(1.670062907378E-05,-1.670264737584E-04,
    3.472110041345));
#787 = CARTESIAN_POINT('',(3.767709126792E-07,4.082046771165E-05,
    3.611131075582));
#788 = CARTESIAN_POINT('',(1.72674147425E-07,1.337636941506E-06,
    3.750005609799));
#789 = CARTESIAN_POINT('',(-6.053869932019E-07,-4.155647771788E-05,
    3.888848102431));
#790 = CARTESIAN_POINT('',(1.543149360744E-05,1.713110305467E-04,
    4.027923743099));
#791 = CARTESIAN_POINT('',(-8.399911504547E-05,-3.543204084378E-04,
    4.166350349885));
#792 = CARTESIAN_POINT('',(2.046534539815E-04,4.632977663417E-04,
    4.306014249339));
#793 = CARTESIAN_POINT('',(-2.993559170894E-04,-4.112057286818E-04,
    4.443986072057));
#794 = CARTESIAN_POINT('',(2.657580549911E-04,2.479158312779E-04,
    4.583649971504));
#795 = CARTESIAN_POINT('',(-1.389752947939E-04,-1.000623952455E-04,
    4.722076578296));
#796 = CARTESIAN_POINT('',(3.74131294826E-05,2.129682719955E-05,
    4.861152218963));
#797 = CARTESIAN_POINT('',(2.205897946528E-07,-7.203070251356E-08,
    4.999994711594));
#798 = CARTESIAN_POINT('',(-3.430467733522E-05,-1.923817318617E-05,
    5.138869245815));
#799 = CARTESIAN_POINT('',(1.529307075749E-04,7.101656871361E-05,
    5.277890280039));
#800 = CARTESIAN_POINT('',(-3.446502343532E-04,-1.033145730795E-04,
    5.416395039713));
#801 = CARTESIAN_POINT('',(4.987247005244E-04,5.397538331393E-05,
    5.555962857154));
#802 = CARTESIAN_POINT('',(-5.009629064168E-04,5.320857493427E-05,
    5.694037464246));
#803 = CARTESIAN_POINT('',(3.433806416095E-04,-1.050950632951E-04,
    5.833605281667));
#804 = CARTESIAN_POINT('',(-1.529994819663E-04,6.905006669419E-05,
    5.972110041367));
#805 = CARTESIAN_POINT('',(3.516317577522E-05,-2.073652647936E-05,
    6.11113107557));
#806 = CARTESIAN_POINT('',(1.072090812348E-06,-8.183588453556E-07,
    6.250005609804));
#807 = CARTESIAN_POINT('',(-3.568627213491E-05,2.117111815761E-05,
    6.388849313327));
#808 = CARTESIAN_POINT('',(1.406439566267E-04,-9.847884059534E-05,
    6.527918760016));
#809 = CARTESIAN_POINT('',(-2.648509142058E-04,2.485810784182E-04,
    6.666362555519));
#810 = CARTESIAN_POINT('',(2.989009036424E-04,-4.065339752548E-04,
    6.805992593314));
#811 = CARTESIAN_POINT('',(-2.064366441498E-04,4.616258986324E-04,
    6.944015808085));
#812 = CARTESIAN_POINT('',(8.182237667722E-05,-3.505861435361E-04,
    7.083617487412));
#813 = CARTESIAN_POINT('',(-1.716892593579E-05,1.672968454753E-04,
    7.222105058214));
#814 = CARTESIAN_POINT('',(-2.629734168338E-07,-4.088616940604E-05,
    7.3611322865));
#815 = CARTESIAN_POINT('',(-1.726741216678E-07,-1.337636491491E-06,
    7.500005609797));
#816 = CARTESIAN_POINT('',(4.915897318166E-07,4.149077437393E-05,
    7.638849313347));
#817 = CARTESIAN_POINT('',(-1.496319778404E-05,-1.710406540628E-04,
    7.77791875998));
#818 = CARTESIAN_POINT('',(8.285206848066E-05,3.536581526424E-04,
    7.916362555562));
#819 = CARTESIAN_POINT('',(-2.02618294673E-04,-4.621227589729E-04,
    8.055992593282));
#820 = CARTESIAN_POINT('',(2.965614312393E-04,4.095923263954E-04,
    8.194015808097));
#821 = CARTESIAN_POINT('',(-2.627053184072E-04,-2.461533295968E-04,
    8.333617487416));
#822 = CARTESIAN_POINT('',(1.362988564125E-04,9.851714990972E-05,
    8.472105058203));
#823 = CARTESIAN_POINT('',(-3.553994901815E-05,-2.021534359144E-05,
    8.611132286509));
#824 = CARTESIAN_POINT('',(-1.244763940811E-06,-5.192778731456E-07,
    8.750005609793));
#825 = CARTESIAN_POINT('',(3.629165621639E-05,2.025395722942E-05,
    8.888848102451));
#826 = CARTESIAN_POINT('',(-1.560754455179E-04,-7.229144861244E-05,
    9.027923743063));
#827 = CARTESIAN_POINT('',(3.488500244112E-04,1.044148367037E-04,
    9.166350349928));
#828 = CARTESIAN_POINT('',(-5.035543548745E-04,-5.441379457939E-05,
    9.306014249305));
#829 = CARTESIAN_POINT('',(5.057925615275E-04,-5.364696269674E-05,
    9.443986072073));
#830 = CARTESIAN_POINT('',(-3.475804341395E-04,1.061953100825E-04,
    9.583649971503));
#831 = CARTESIAN_POINT('',(1.561442236991E-04,-7.032493786178E-05,
    9.722076578291));
#832 = CARTESIAN_POINT('',(-3.715015830987E-05,2.175230696504E-05,
    9.861152218967));
#833 = CARTESIAN_POINT('',(-4.791444907527E-08,2.27051715651E-07,
    9.999994711592));
#834 = CARTESIAN_POINT('',(0.799997910599,-8.640676310567E-07,
    -0.749996434702));
#835 = CARTESIAN_POINT('',(0.800014230109,0.46544749516,-0.611137070753)
  );
#836 = CARTESIAN_POINT('',(0.494998872783,0.931011026802,-0.47212933965)
  );
#837 = CARTESIAN_POINT('',(-0.111983455242,1.166993796133,
    -0.333534630592));
#838 = CARTESIAN_POINT('',(-0.833695158697,0.95526852858,-0.194152552859
    ));
#839 = CARTESIAN_POINT('',(-1.2439541233,0.244233425758,
    -5.584725162855E-02));
#840 = CARTESIAN_POINT('',(-1.066750612945,-0.486387707813,
    8.353482566056E-02));
#841 = CARTESIAN_POINT('',(-0.558731659789,-0.894260290737,
    0.222129535236));
#842 = CARTESIAN_POINT('',(-3.097327759798E-03,-0.925532212373,
    0.361137266044));
#843 = CARTESIAN_POINT('',(0.400000716392,-0.692821786842,0.499996630073
    ));
#844 = CARTESIAN_POINT('',(0.803091880383,-0.460103702517,0.638875613555
    ));
#845 = CARTESIAN_POINT('',(1.053785194536,3.681648976086E-02,
    0.777852536739));
#846 = CARTESIAN_POINT('',(0.954647066163,0.680485884004,0.916486041147)
  );
#847 = CARTESIAN_POINT('',(0.410446080802,1.199627698278,1.055828524159)
  );
#848 = CARTESIAN_POINT('',(-0.410469696971,1.199418230728,1.194166529533
    ));
#849 = CARTESIAN_POINT('',(-0.954596607075,0.680636094279,1.333527058397
    ));
#850 = CARTESIAN_POINT('',(-1.053819106668,3.674696504818E-02,
    1.472132706313));
#851 = CARTESIAN_POINT('',(-0.803082792994,-0.460084057357,
    1.611136495464));
#852 = CARTESIAN_POINT('',(-0.400000909504,-0.692821675349,
    1.749996630073));
#853 = CARTESIAN_POINT('',(3.084858245748E-03,-0.925549737623,
    1.888876384134));
#854 = CARTESIAN_POINT('',(0.558774913894,-0.894196847827,2.027849365668
    ));
#855 = CARTESIAN_POINT('',(1.066645756567,-0.486504826084,2.166493808396
    ));
#856 = CARTESIAN_POINT('',(1.244123719448,0.244355620827,2.30581474302)
  );
#857 = CARTESIAN_POINT('',(0.83350194638,0.955188353841,2.444185452492)
  );
#858 = CARTESIAN_POINT('',(0.11213877071,1.16702071605,2.583506386675));
#859 = CARTESIAN_POINT('',(-0.495076039023,0.931009566568,2.722150829914
    ));
#860 = CARTESIAN_POINT('',(-0.799992673204,0.465446694963,2.86112381116)
  );
#861 = CARTESIAN_POINT('',(-0.7999979106,8.640672694571E-07,
    3.000003565297));
#862 = CARTESIAN_POINT('',(-0.800014230105,-0.465447495159,
    3.138862929253));
#863 = CARTESIAN_POINT('',(-0.49499887279,-0.931011026803,3.277870660338
    ));
#864 = CARTESIAN_POINT('',(0.111983455253,-1.166993796135,3.416465369428
    ));
#865 = CARTESIAN_POINT('',(0.833695158684,-0.955268528575,3.555847447118
    ));
#866 = CARTESIAN_POINT('',(1.24395412331,-0.244233425765,3.694152748394)
  );
#867 = CARTESIAN_POINT('',(1.066750612939,0.48638770782,3.833534825644)
  );
#868 = CARTESIAN_POINT('',(0.558731659791,0.894260290733,3.972129535245)
  );
#869 = CARTESIAN_POINT('',(3.09732775884E-03,0.925532212375,
    4.11113726604));
#870 = CARTESIAN_POINT('',(-0.400000716392,0.692821786841,4.249996630074
    ));
#871 = CARTESIAN_POINT('',(-0.803092014371,0.460103303203,4.388876384135
    ));
#872 = CARTESIAN_POINT('',(-1.05378464315,-3.681484651208E-02,
    4.527849365661));
#873 = CARTESIAN_POINT('',(-0.954648416734,-0.680489908993,
    4.666493808412));
#874 = CARTESIAN_POINT('',(-0.410443684531,-1.199620556891,
    4.805814742997));
#875 = CARTESIAN_POINT('',(0.410466406634,-1.199428036604,4.944185452517
    ));
#876 = CARTESIAN_POINT('',(0.95460020149,-0.680625382196,5.083506386654)
  );
#877 = CARTESIAN_POINT('',(1.053815955323,-3.67563566933E-02,
    5.222150829929));
#878 = CARTESIAN_POINT('',(0.80308499855,0.460090630359,5.361123811153)
  );
#879 = CARTESIAN_POINT('',(0.399999703603,0.692818081519,5.500003565299)
  );
#880 = CARTESIAN_POINT('',(-3.082652691052E-03,0.925556310626,
    5.638863699823));
#881 = CARTESIAN_POINT('',(-0.558778065238,0.89418745618,5.777867489285)
  );
#882 = CARTESIAN_POINT('',(-1.066642162151,0.486515538168,5.91647313665)
  );
#883 = CARTESIAN_POINT('',(-1.244127009791,-0.244365426705,6.05583366601
    ));
#884 = CARTESIAN_POINT('',(-0.833499550098,-0.955181212452,
    6.194171671322));
#885 = CARTESIAN_POINT('',(-0.112140121291,-1.16702474104,6.333514153947
    ));
#886 = CARTESIAN_POINT('',(0.495076590415,-0.931007923318,6.472147658831
    ));
#887 = CARTESIAN_POINT('',(0.799992539214,-0.465447094278,6.611124581745
    ));
#888 = CARTESIAN_POINT('',(0.7999979106,-8.640669259541E-07,
    6.750003565295));
#889 = CARTESIAN_POINT('',(0.800013951282,0.465447810852,6.888863699836)
  );
#890 = CARTESIAN_POINT('',(0.495000020192,0.931009727665,7.027867489261)
  );
#891 = CARTESIAN_POINT('',(-0.111986265704,1.166996978258,7.166473136677
    ));
#892 = CARTESIAN_POINT('',(-0.833690172213,0.955262882653,7.30583366599)
  );
#893 = CARTESIAN_POINT('',(-1.243960970258,0.244241178209,7.444171671329
    ));
#894 = CARTESIAN_POINT('',(-1.066743133231,-0.486396176701,7.58351415395
    ));
#895 = CARTESIAN_POINT('',(-0.558738217508,-0.894252865778,
    7.722147658823));
#896 = CARTESIAN_POINT('',(-3.092738157671E-03,-0.925537408934,
    7.86112458175));
#897 = CARTESIAN_POINT('',(0.399998206997,-0.692818945589,8.000003565293
    ));
#898 = CARTESIAN_POINT('',(0.803096469983,-0.460108899075,8.138862929266
    ));
#899 = CARTESIAN_POINT('',(1.053778636817,3.682391470893E-02,
    8.277870660315));
#900 = CARTESIAN_POINT('',(0.954654545879,0.680477415138,8.416465369455)
  );
#901 = CARTESIAN_POINT('',(0.41043923384,1.199635450702,8.555847447096)
  );
#902 = CARTESIAN_POINT('',(-0.410464710487,1.199412584822,8.694152748403
    ));
#903 = CARTESIAN_POINT('',(-0.954599417532,0.680639276395,8.833534825644
    ));
#904 = CARTESIAN_POINT('',(-1.053817959266,3.674566591066E-02,
    8.972129535242));
#905 = CARTESIAN_POINT('',(-0.803083071816,-0.460083741663,
    9.111137266043));
#906 = CARTESIAN_POINT('',(-0.400000909504,-0.692821675349,
    9.249996630073));
#907 = DEFINITIONAL_REPRESENTATION('',(#908),#941);
#908 = B_SPLINE_CURVE_WITH_KNOTS('',7,(#909,#910,#911,#912,#913,#914,
    #915,#916,#917,#918,#919,#920,#921,#922,#923,#924,#925,#926,#927,
    #928,#929,#930,#931,#932,#933,#934,#935,#936,#937,#938,#939,#940),
  .UNSPECIFIED.,.F.,.F.,(8,6,6,6,6,8),(0.,0.28173249567,0.441265495696,
    0.619849942793,0.743399790085,1.),.UNSPECIFIED.);
#909 = CARTESIAN_POINT('',(8.202148704622E-06,0.));
#910 = CARTESIAN_POINT('',(4.766399240969E-02,0.140412373522));
#911 = CARTESIAN_POINT('',(9.53686896624E-02,0.280909704963));
#912 = CARTESIAN_POINT('',(0.142969125152,0.421099984199));
#913 = CARTESIAN_POINT('',(0.190402164986,0.56080344022));
#914 = CARTESIAN_POINT('',(0.237627306227,0.699899389923));
#915 = CARTESIAN_POINT('',(0.284591471914,0.838228943805));
#916 = CARTESIAN_POINT('',(0.357556718487,1.053143699074));
#917 = CARTESIAN_POINT('',(0.383828084108,1.130524621495));
#918 = CARTESIAN_POINT('',(0.409977953918,1.207547541621));
#919 = CARTESIAN_POINT('',(0.435997883197,1.284187395442));
#920 = CARTESIAN_POINT('',(0.461881633597,1.360425737479));
#921 = CARTESIAN_POINT('',(0.487622466287,1.436242743155));
#922 = CARTESIAN_POINT('',(0.541854121742,1.595975950435));
#923 = CARTESIAN_POINT('',(0.570312005553,1.679795054723));
#924 = CARTESIAN_POINT('',(0.598569537383,1.763023783622));
#925 = CARTESIAN_POINT('',(0.626620890329,1.845645159625));
#926 = CARTESIAN_POINT('',(0.65446333985,1.927651319609));
#927 = CARTESIAN_POINT('',(0.682092620696,2.009029796471));
#928 = CARTESIAN_POINT('',(0.728459960983,2.145599174326));
#929 = CARTESIAN_POINT('',(0.747316300965,2.201138341816));
#930 = CARTESIAN_POINT('',(0.766066345384,2.256364547066));
#931 = CARTESIAN_POINT('',(0.7847093605,2.311275628084));
#932 = CARTESIAN_POINT('',(0.803245148724,2.365870990882));
#933 = CARTESIAN_POINT('',(0.821673383275,2.420149653176));
#934 = CARTESIAN_POINT('',(0.878040766714,2.586174772575));
#935 = CARTESIAN_POINT('',(0.915634483563,2.696904006413));
#936 = CARTESIAN_POINT('',(0.952745439533,2.806211380543));
#937 = CARTESIAN_POINT('',(0.989386847195,2.914135524116));
#938 = CARTESIAN_POINT('',(1.025573439133,3.020719656299));
#939 = CARTESIAN_POINT('',(1.061313269505,3.12598750019));
#940 = CARTESIAN_POINT('',(1.096585609973,3.229878100633));
#941 = ( GEOMETRIC_REPRESENTATION_CONTEXT(2) 
PARAMETRIC_REPRESENTATION_CONTEXT() REPRESENTATION_CONTEXT('2D SPACE',''
  ) );
#942 = ORIENTED_EDGE('',*,*,#943,.T.);
#943 = EDGE_CURVE('',#685,#687,#944,.T.);
#944 = SURFACE_CURVE('',#945,(#983,#1024),.PCURVE_S1.);
#945 = B_SPLINE_CURVE_WITH_KNOTS('',8,(#946,#947,#948,#949,#950,#951,
    #952,#953,#954,#955,#956,#957,#958,#959,#960,#961,#962,#963,#964,
    #965,#966,#967,#968,#969,#970,#971,#972,#973,#974,#975,#976,#977,
    #978,#979,#980,#981,#982),.UNSPECIFIED.,.F.,.F.,(9,7,7,7,7,9),(0.,
    0.311146847248,0.338826700075,0.539042682007,0.685768985307,1.),
  .UNSPECIFIED.);
#946 = CARTESIAN_POINT('',(-1.28883515238E-06,-1.277520963794E-06,0.));
#947 = CARTESIAN_POINT('',(3.360142582691E-02,-1.942609728418E-06,0.));
#948 = CARTESIAN_POINT('',(6.723334709705E-02,-1.013795331675E-02,0.));
#949 = CARTESIAN_POINT('',(9.812609862475E-02,-3.044288165612E-02,0.));
#950 = CARTESIAN_POINT('',(0.12354348078,-6.002618913095E-02,0.));
#951 = CARTESIAN_POINT('',(0.141147176361,-9.722832697805E-02,0.));
#952 = CARTESIAN_POINT('',(0.149196798743,-0.139806532438,0.));
#953 = CARTESIAN_POINT('',(0.146677379286,-0.185155788083,0.));
#954 = CARTESIAN_POINT('',(0.132270441261,-0.234609440607,0.));
#955 = CARTESIAN_POINT('',(0.131006354921,-0.238647665774,0.));
#956 = CARTESIAN_POINT('',(0.129662989131,-0.242691175727,0.));
#957 = CARTESIAN_POINT('',(0.128227010984,-0.246723330315,0.));
#958 = CARTESIAN_POINT('',(0.126713260885,-0.250758889815,0.));
#959 = CARTESIAN_POINT('',(0.125110256596,-0.254783257195,0.));
#960 = CARTESIAN_POINT('',(0.123423936093,-0.258801098954,0.));
#961 = CARTESIAN_POINT('',(0.108839738397,-0.291795931982,0.));
#962 = CARTESIAN_POINT('',(9.158894093584E-02,-0.320260672553,0.));
#963 = CARTESIAN_POINT('',(6.993704686107E-02,-0.347501546818,0.));
#964 = CARTESIAN_POINT('',(4.405175537939E-02,-0.372839898921,0.));
#965 = CARTESIAN_POINT('',(1.421553739763E-02,-0.395642797396,0.));
#966 = CARTESIAN_POINT('',(-1.918969425289E-02,-0.415342860398,0.));
#967 = CARTESIAN_POINT('',(-5.569719264674E-02,-0.43145479787,0.));
#968 = CARTESIAN_POINT('',(-0.12340284294,-0.45248085936,0.));
#969 = CARTESIAN_POINT('',(-0.15341893974,-0.459238279889,0.));
#970 = CARTESIAN_POINT('',(-0.184608629447,-0.463707099897,0.));
#971 = CARTESIAN_POINT('',(-0.216748312518,-0.465761993596,0.));
#972 = CARTESIAN_POINT('',(-0.249603407436,-0.465306340643,0.));
#973 = CARTESIAN_POINT('',(-0.282932044664,-0.46227242504,0.));
#974 = CARTESIAN_POINT('',(-0.316488760607,-0.456621634035,0.));
#975 = CARTESIAN_POINT('',(-0.421856685745,-0.430618572293,0.));
#976 = CARTESIAN_POINT('',(-0.493658629725,-0.400834643796,0.));
#977 = CARTESIAN_POINT('',(-0.562960497594,-0.35888477849,0.));
#978 = CARTESIAN_POINT('',(-0.627414886265,-0.305305207705,0.));
#979 = CARTESIAN_POINT('',(-0.684941672366,-0.24109576745,0.));
#980 = CARTESIAN_POINT('',(-0.733763210786,-0.167627769182,0.));
#981 = CARTESIAN_POINT('',(-0.772438616541,-8.65994263748E-02,0.));
#982 = CARTESIAN_POINT('',(-0.800002171594,2.197779653212E-06,0.));
#983 = PCURVE('',#656,#984);
#984 = DEFINITIONAL_REPRESENTATION('',(#985),#1023);
#985 = B_SPLINE_CURVE_WITH_KNOTS('',8,(#986,#987,#988,#989,#990,#991,
    #992,#993,#994,#995,#996,#997,#998,#999,#1000,#1001,#1002,#1003,
    #1004,#1005,#1006,#1007,#1008,#1009,#1010,#1011,#1012,#1013,#1014,
    #1015,#1016,#1017,#1018,#1019,#1020,#1021,#1022),.UNSPECIFIED.,.F.,
  .F.,(9,7,7,7,7,9),(0.,0.311146847248,0.338826700075,0.539042682007,
    0.685768985307,1.),.UNSPECIFIED.);
#986 = CARTESIAN_POINT('',(-1.28883515238E-06,-1.277520963794E-06));
#987 = CARTESIAN_POINT('',(3.360142582691E-02,-1.942609728418E-06));
#988 = CARTESIAN_POINT('',(6.723334709705E-02,-1.013795331675E-02));
#989 = CARTESIAN_POINT('',(9.812609862475E-02,-3.044288165612E-02));
#990 = CARTESIAN_POINT('',(0.12354348078,-6.002618913095E-02));
#991 = CARTESIAN_POINT('',(0.141147176361,-9.722832697805E-02));
#992 = CARTESIAN_POINT('',(0.149196798743,-0.139806532438));
#993 = CARTESIAN_POINT('',(0.146677379286,-0.185155788083));
#994 = CARTESIAN_POINT('',(0.132270441261,-0.234609440607));
#995 = CARTESIAN_POINT('',(0.131006354921,-0.238647665774));
#996 = CARTESIAN_POINT('',(0.129662989131,-0.242691175727));
#997 = CARTESIAN_POINT('',(0.128227010984,-0.246723330315));
#998 = CARTESIAN_POINT('',(0.126713260885,-0.250758889815));
#999 = CARTESIAN_POINT('',(0.125110256596,-0.254783257195));
#1000 = CARTESIAN_POINT('',(0.123423936093,-0.258801098954));
#1001 = CARTESIAN_POINT('',(0.108839738397,-0.291795931982));
#1002 = CARTESIAN_POINT('',(9.158894093584E-02,-0.320260672553));
#1003 = CARTESIAN_POINT('',(6.993704686107E-02,-0.347501546818));
#1004 = CARTESIAN_POINT('',(4.405175537939E-02,-0.372839898921));
#1005 = CARTESIAN_POINT('',(1.421553739763E-02,-0.395642797396));
#1006 = CARTESIAN_POINT('',(-1.918969425289E-02,-0.415342860398));
#1007 = CARTESIAN_POINT('',(-5.569719264674E-02,-0.43145479787));
#1008 = CARTESIAN_POINT('',(-0.12340284294,-0.45248085936));
#1009 = CARTESIAN_POINT('',(-0.15341893974,-0.459238279889));
#1010 = CARTESIAN_POINT('',(-0.184608629447,-0.463707099897));
#1011 = CARTESIAN_POINT('',(-0.216748312518,-0.465761993596));
#1012 = CARTESIAN_POINT('',(-0.249603407436,-0.465306340643));
#1013 = CARTESIAN_POINT('',(-0.282932044664,-0.46227242504));
#1014 = CARTESIAN_POINT('',(-0.316488760607,-0.456621634035));
#1015 = CARTESIAN_POINT('',(-0.421856685745,-0.430618572293));
#1016 = CARTESIAN_POINT('',(-0.493658629725,-0.400834643796));
#1017 = CARTESIAN_POINT('',(-0.562960497594,-0.35888477849));
#1018 = CARTESIAN_POINT('',(-0.627414886265,-0.305305207705));
#1019 = CARTESIAN_POINT('',(-0.684941672366,-0.24109576745));
#1020 = CARTESIAN_POINT('',(-0.733763210786,-0.167627769182));
#1021 = CARTESIAN_POINT('',(-0.772438616541,-8.65994263748E-02));
#1022 = CARTESIAN_POINT('',(-0.800002171594,2.197779653212E-06));
#1023 = ( GEOMETRIC_REPRESENTATION_CONTEXT(2) 
PARAMETRIC_REPRESENTATION_CONTEXT() REPRESENTATION_CONTEXT('2D SPACE',''
  ) );
#1024 = PCURVE('',#1025,#1172);
#1025 = B_SPLINE_SURFACE_WITH_KNOTS('',1,9,(
    (#1026,#1027,#1028,#1029,#1030,#1031,#1032,#1033,#1034,#1035,#1036
      ,#1037,#1038,#1039,#1040,#1041,#1042,#1043,#1044,#1045,#1046,#1047
      ,#1048,#1049,#1050,#1051,#1052,#1053,#1054,#1055,#1056,#1057,#1058
      ,#1059,#1060,#1061,#1062,#1063,#1064,#1065,#1066,#1067,#1068,#1069
      ,#1070,#1071,#1072,#1073,#1074,#1075,#1076,#1077,#1078,#1079,#1080
      ,#1081,#1082,#1083,#1084,#1085,#1086,#1087,#1088,#1089,#1090,#1091
      ,#1092,#1093,#1094,#1095,#1096,#1097,#1098)
    ,(#1099,#1100,#1101,#1102,#1103,#1104,#1105,#1106,#1107,#1108,#1109
      ,#1110,#1111,#1112,#1113,#1114,#1115,#1116,#1117,#1118,#1119,#1120
      ,#1121,#1122,#1123,#1124,#1125,#1126,#1127,#1128,#1129,#1130,#1131
      ,#1132,#1133,#1134,#1135,#1136,#1137,#1138,#1139,#1140,#1141,#1142
      ,#1143,#1144,#1145,#1146,#1147,#1148,#1149,#1150,#1151,#1152,#1153
      ,#1154,#1155,#1156,#1157,#1158,#1159,#1160,#1161,#1162,#1163,#1164
      ,#1165,#1166,#1167,#1168,#1169,#1170,#1171
  )),.UNSPECIFIED.,.F.,.F.,.F.,(2,2),(10,9,9,9,9,9,9,9,10),(0.,
    1.096585609973),(0.,5.383128066543,10.766256133086,16.149384199629,
    21.532512266172,26.915640332715,32.298768399258,37.681896465802,
    43.065024532345),.PIECEWISE_BEZIER_KNOTS.);
#1026 = CARTESIAN_POINT('',(0.799997910599,-8.640676312788E-07,
    -0.749996434702));
#1027 = CARTESIAN_POINT('',(0.800014230109,0.46544749516,-0.611137070753
    ));
#1028 = CARTESIAN_POINT('',(0.494998872783,0.931011026802,-0.47212933965
    ));
#1029 = CARTESIAN_POINT('',(-0.111983455242,1.166993796133,
    -0.333534630592));
#1030 = CARTESIAN_POINT('',(-0.833695158697,0.95526852858,
    -0.194152552859));
#1031 = CARTESIAN_POINT('',(-1.2439541233,0.244233425758,
    -5.584725162854E-02));
#1032 = CARTESIAN_POINT('',(-1.066750612945,-0.486387707813,
    8.353482566056E-02));
#1033 = CARTESIAN_POINT('',(-0.558731659789,-0.894260290737,
    0.222129535236));
#1034 = CARTESIAN_POINT('',(-3.097327759803E-03,-0.925532212373,
    0.361137266044));
#1035 = CARTESIAN_POINT('',(0.400000716392,-0.692821786842,
    0.499996630073));
#1036 = CARTESIAN_POINT('',(0.803091880383,-0.460103702517,
    0.638875613555));
#1037 = CARTESIAN_POINT('',(1.053785194536,3.681648976086E-02,
    0.777852536739));
#1038 = CARTESIAN_POINT('',(0.954647066163,0.680485884004,0.916486041147
    ));
#1039 = CARTESIAN_POINT('',(0.410446080802,1.199627698278,1.055828524159
    ));
#1040 = CARTESIAN_POINT('',(-0.410469696971,1.199418230728,
    1.194166529533));
#1041 = CARTESIAN_POINT('',(-0.954596607075,0.680636094279,
    1.333527058397));
#1042 = CARTESIAN_POINT('',(-1.053819106668,3.674696504818E-02,
    1.472132706313));
#1043 = CARTESIAN_POINT('',(-0.803082792994,-0.460084057357,
    1.611136495464));
#1044 = CARTESIAN_POINT('',(-0.400000909504,-0.692821675349,
    1.749996630073));
#1045 = CARTESIAN_POINT('',(3.084858245754E-03,-0.925549737623,
    1.888876384134));
#1046 = CARTESIAN_POINT('',(0.558774913894,-0.894196847827,
    2.027849365668));
#1047 = CARTESIAN_POINT('',(1.066645756567,-0.486504826084,
    2.166493808396));
#1048 = CARTESIAN_POINT('',(1.244123719447,0.244355620827,2.30581474302)
  );
#1049 = CARTESIAN_POINT('',(0.83350194638,0.955188353841,2.444185452492)
  );
#1050 = CARTESIAN_POINT('',(0.11213877071,1.16702071605,2.583506386675)
  );
#1051 = CARTESIAN_POINT('',(-0.495076039023,0.931009566568,
    2.722150829914));
#1052 = CARTESIAN_POINT('',(-0.799992673204,0.465446694963,2.86112381116
    ));
#1053 = CARTESIAN_POINT('',(-0.7999979106,8.640672694571E-07,
    3.000003565297));
#1054 = CARTESIAN_POINT('',(-0.800014230105,-0.465447495159,
    3.138862929253));
#1055 = CARTESIAN_POINT('',(-0.49499887279,-0.931011026803,
    3.277870660338));
#1056 = CARTESIAN_POINT('',(0.111983455253,-1.166993796135,
    3.416465369428));
#1057 = CARTESIAN_POINT('',(0.833695158684,-0.955268528575,
    3.555847447118));
#1058 = CARTESIAN_POINT('',(1.24395412331,-0.244233425765,3.694152748394
    ));
#1059 = CARTESIAN_POINT('',(1.066750612939,0.48638770782,3.833534825644)
  );
#1060 = CARTESIAN_POINT('',(0.558731659791,0.894260290733,3.972129535245
    ));
#1061 = CARTESIAN_POINT('',(3.097327758846E-03,0.925532212375,
    4.11113726604));
#1062 = CARTESIAN_POINT('',(-0.400000716392,0.692821786841,
    4.249996630074));
#1063 = CARTESIAN_POINT('',(-0.803092014371,0.460103303203,
    4.388876384135));
#1064 = CARTESIAN_POINT('',(-1.05378464315,-3.681484651209E-02,
    4.527849365661));
#1065 = CARTESIAN_POINT('',(-0.954648416734,-0.680489908993,
    4.666493808411));
#1066 = CARTESIAN_POINT('',(-0.410443684531,-1.199620556891,
    4.805814742997));
#1067 = CARTESIAN_POINT('',(0.410466406634,-1.199428036604,
    4.944185452517));
#1068 = CARTESIAN_POINT('',(0.95460020149,-0.680625382196,5.083506386654
    ));
#1069 = CARTESIAN_POINT('',(1.053815955323,-3.67563566933E-02,
    5.222150829929));
#1070 = CARTESIAN_POINT('',(0.80308499855,0.460090630359,5.361123811153)
  );
#1071 = CARTESIAN_POINT('',(0.399999703603,0.692818081519,5.500003565299
    ));
#1072 = CARTESIAN_POINT('',(-3.08265269105E-03,0.925556310626,
    5.638863699823));
#1073 = CARTESIAN_POINT('',(-0.558778065238,0.89418745618,5.777867489285
    ));
#1074 = CARTESIAN_POINT('',(-1.066642162151,0.486515538168,5.91647313665
    ));
#1075 = CARTESIAN_POINT('',(-1.244127009791,-0.244365426705,
    6.05583366601));
#1076 = CARTESIAN_POINT('',(-0.833499550098,-0.955181212452,
    6.194171671322));
#1077 = CARTESIAN_POINT('',(-0.112140121291,-1.16702474104,
    6.333514153947));
#1078 = CARTESIAN_POINT('',(0.495076590415,-0.931007923318,
    6.472147658831));
#1079 = CARTESIAN_POINT('',(0.799992539214,-0.465447094278,
    6.611124581745));
#1080 = CARTESIAN_POINT('',(0.7999979106,-8.64066925732E-07,
    6.750003565295));
#1081 = CARTESIAN_POINT('',(0.800013951282,0.465447810852,6.888863699836
    ));
#1082 = CARTESIAN_POINT('',(0.495000020192,0.931009727665,7.027867489262
    ));
#1083 = CARTESIAN_POINT('',(-0.111986265704,1.166996978258,
    7.166473136677));
#1084 = CARTESIAN_POINT('',(-0.833690172213,0.955262882653,7.30583366599
    ));
#1085 = CARTESIAN_POINT('',(-1.243960970258,0.244241178209,
    7.444171671329));
#1086 = CARTESIAN_POINT('',(-1.066743133231,-0.486396176701,
    7.58351415395));
#1087 = CARTESIAN_POINT('',(-0.558738217508,-0.894252865778,
    7.722147658823));
#1088 = CARTESIAN_POINT('',(-3.092738157668E-03,-0.925537408934,
    7.86112458175));
#1089 = CARTESIAN_POINT('',(0.399998206997,-0.692818945589,
    8.000003565293));
#1090 = CARTESIAN_POINT('',(0.803096469983,-0.460108899075,
    8.138862929266));
#1091 = CARTESIAN_POINT('',(1.053778636817,3.682391470893E-02,
    8.277870660314));
#1092 = CARTESIAN_POINT('',(0.95465454588,0.680477415138,8.416465369455)
  );
#1093 = CARTESIAN_POINT('',(0.41043923384,1.199635450702,8.555847447096)
  );
#1094 = CARTESIAN_POINT('',(-0.410464710487,1.199412584822,
    8.694152748404));
#1095 = CARTESIAN_POINT('',(-0.954599417532,0.680639276395,
    8.833534825644));
#1096 = CARTESIAN_POINT('',(-1.053817959266,3.674566591067E-02,
    8.972129535242));
#1097 = CARTESIAN_POINT('',(-0.803083071816,-0.460083741663,
    9.111137266043));
#1098 = CARTESIAN_POINT('',(-0.400000909504,-0.692821675349,
    9.249996630073));
#1099 = CARTESIAN_POINT('',(-4.006123133227E-06,-1.363324978132E-06,
    -1.499994390193));
#1100 = CARTESIAN_POINT('',(2.842069831728E-05,4.146206565696E-05,
    -1.361151897654));
#1101 = CARTESIAN_POINT('',(-1.04036945287E-04,-1.657905891966E-04,
    -1.222076256659));
#1102 = CARTESIAN_POINT('',(2.503706594066E-04,3.208268518498E-04,
    -1.083649650454));
#1103 = CARTESIAN_POINT('',(-4.11411021083E-04,-3.750588697664E-04,
    -0.943985750458));
#1104 = CARTESIAN_POINT('',(4.795193754239E-04,2.761958334275E-04,
    -0.806013927858));
#1105 = CARTESIAN_POINT('',(-3.776351016363E-04,-1.204370148144E-04,
    -0.666350028746));
#1106 = CARTESIAN_POINT('',(1.882239479762E-04,2.635220640862E-05,
    -0.527923421512));
#1107 = CARTESIAN_POINT('',(-5.140164739095E-05,3.018108763259E-06,
    -0.388847781102));
#1108 = CARTESIAN_POINT('',(1.555738452508E-06,-3.056035038362E-06,
    -0.250005288404));
#1109 = CARTESIAN_POINT('',(4.144920326021E-05,6.806069509023E-06,
    -0.111131965171));
#1110 = CARTESIAN_POINT('',(-1.832118141842E-04,-8.068020137825E-06,
    2.789526338152E-02));
#1111 = CARTESIAN_POINT('',(3.889026477836E-04,-3.899545265508E-05,
    0.166382833706));
#1112 = CARTESIAN_POINT('',(-5.175842238283E-04,1.528180307366E-04,
    0.30598451343));
#1113 = CARTESIAN_POINT('',(4.695343781313E-04,-2.6556572858E-04,
    0.444007728251));
#1114 = CARTESIAN_POINT('',(-2.878109915368E-04,2.602782144293E-04,
    0.583637765555));
#1115 = CARTESIAN_POINT('',(1.147665708214E-04,-1.471585973528E-04,
    0.72208156161));
#1116 = CARTESIAN_POINT('',(-2.256045770847E-05,4.537487904335E-05,
    0.861151007986));
#1117 = CARTESIAN_POINT('',(-1.868734647692E-06,-2.875326941654E-06,
    0.999994711595));
#1118 = CARTESIAN_POINT('',(2.744444976755E-05,-3.236162678268E-05,
    1.138869245739));
#1119 = CARTESIAN_POINT('',(-1.019905894439E-04,1.540913357488E-04,
    1.277890280271));
#1120 = CARTESIAN_POINT('',(1.690023159776E-04,-3.54972806518E-04,
    1.416395039382));
#1121 = CARTESIAN_POINT('',(-1.412133111919E-04,5.223001034425E-04,
    1.555962857354));
#1122 = CARTESIAN_POINT('',(2.505510941321E-05,-5.361847664077E-04,
    1.694037464329));
#1123 = CARTESIAN_POINT('',(5.935378681202E-05,3.758657342656E-04,
    1.833605281422));
#1124 = CARTESIAN_POINT('',(-5.064166147326E-05,-1.69879572881E-04,
    1.972110041554));
#1125 = CARTESIAN_POINT('',(1.442524852031E-05,4.006240215959E-05,
    2.11113107551));
#1126 = CARTESIAN_POINT('',(4.006121198774E-06,1.363324385356E-06,
    2.250005609804));
#1127 = CARTESIAN_POINT('',(-2.842069157345E-05,-4.146206412078E-05,
    2.388848102355));
#1128 = CARTESIAN_POINT('',(1.040369306246E-04,1.657905888659E-04,
    2.527923743322));
#1129 = CARTESIAN_POINT('',(-2.503706366269E-04,-3.208268566961E-04,
    2.666350349576));
#1130 = CARTESIAN_POINT('',(4.114109952228E-04,3.750588814176E-04,
    2.806014249507));
#1131 = CARTESIAN_POINT('',(-4.795193540225E-04,-2.761958487389E-04,
    2.943986072176));
#1132 = CARTESIAN_POINT('',(3.776350886974E-04,1.204370285112E-04,
    3.083649971228));
#1133 = CARTESIAN_POINT('',(-1.882239421642E-04,-2.635221526554E-05,
    3.222076578504));
#1134 = CARTESIAN_POINT('',(5.140164534546E-05,-3.018104639014E-06,
    3.361152218891));
#1135 = CARTESIAN_POINT('',(-1.555737881631E-06,3.056033774485E-06,
    3.499994711598));
#1136 = CARTESIAN_POINT('',(-4.174821592844E-05,-7.5867781013E-06,
    3.63886924574));
#1137 = CARTESIAN_POINT('',(1.844423047507E-04,1.128078152464E-05,
    3.777890280261));
#1138 = CARTESIAN_POINT('',(-3.919166248893E-04,3.112608501623E-05,
    3.916395039406));
#1139 = CARTESIAN_POINT('',(5.229318152236E-04,-1.388557080148E-04,
    4.055962857319));
#1140 = CARTESIAN_POINT('',(-4.768771893426E-04,2.463939914342E-04,
    4.194037464367));
#1141 = CARTESIAN_POINT('',(2.958323889188E-04,-2.393347301867E-04,
    4.333605281389));
#1142 = CARTESIAN_POINT('',(-1.217992018166E-04,1.287967368781E-04,
    4.472110041576));
#1143 = CARTESIAN_POINT('',(2.748243749193E-05,-3.252382533599E-05,
    4.611131075498));
#1144 = CARTESIAN_POINT('',(-8.22388161348E-07,-4.151067843239E-06,
    4.750005609809));
#1145 = CARTESIAN_POINT('',(-2.252247113878E-05,4.521268130628E-05,
    4.888849313251));
#1146 = CARTESIAN_POINT('',(9.495795948219E-05,-1.724531980045E-04,
    5.027918760239));
#1147 = CARTESIAN_POINT('',(-1.609809154708E-04,3.759162925776E-04,
    5.16636255521));
#1148 = CARTESIAN_POINT('',(1.338704892006E-04,-5.414718415976E-04,
    5.305992593481));
#1149 = CARTESIAN_POINT('',(-1.970750125126E-05,5.501470898878E-04,
    5.444015808205));
#1150 = CARTESIAN_POINT('',(-6.236778035882E-05,-3.837351036433E-04,
    5.583617487135));
#1151 = CARTESIAN_POINT('',(5.187216281914E-05,1.730923370092E-04,
    5.722105058422));
#1152 = CARTESIAN_POINT('',(-1.472426564398E-05,-4.084311341814E-05,
    5.861132286427));
#1153 = CARTESIAN_POINT('',(-4.00611979634E-06,-1.363323847925E-06,
    6.000005609802));
#1154 = CARTESIAN_POINT('',(2.789408044822E-05,4.211136985488E-05,
    6.138849313271));
#1155 = CARTESIAN_POINT('',(-1.018698426829E-04,-1.684626037733E-04,
    6.277918760202));
#1156 = CARTESIAN_POINT('',(2.450625649005E-04,3.273717169069E-04,
    6.416362555253));
#1157 = CARTESIAN_POINT('',(-4.019930938003E-04,-3.866711807613E-04,
    6.555992593448));
#1158 = CARTESIAN_POINT('',(4.665875885972E-04,2.921407544753E-04,
    6.694015808218));
#1159 = CARTESIAN_POINT('',(-3.635082364767E-04,-1.378554729072E-04,
    6.833617487139));
#1160 = CARTESIAN_POINT('',(1.758384467067E-04,4.162355397187E-05,
    6.972105058412));
#1161 = CARTESIAN_POINT('',(-4.273331036381E-05,-7.669964082352E-06,
    7.111132286436));
#1162 = CARTESIAN_POINT('',(-3.183731234202E-06,2.787737475973E-06,
    7.250005609798));
#1163 = CARTESIAN_POINT('',(5.011753733988E-05,-3.881998159985E-06,
    7.388848102375));
#1164 = CARTESIAN_POINT('',(-1.955973133518E-04,7.203306846312E-06,
    7.527923743286));
#1165 = CARTESIAN_POINT('',(4.030295159494E-04,-5.641386791887E-05,
    7.666350349619));
#1166 = CARTESIAN_POINT('',(-5.305160146108E-04,1.687628968634E-04,
    7.806014249473));
#1167 = CARTESIAN_POINT('',(4.789523016447E-04,-2.771779955155E-04,
    7.943986072191));
#1168 = CARTESIAN_POINT('',(-2.931190732754E-04,2.668230597439E-04,
    8.083649971228));
#1169 = CARTESIAN_POINT('',(1.169336588727E-04,-1.49830609929E-04,
    8.222076578498));
#1170 = CARTESIAN_POINT('',(-2.308706622998E-05,4.602418556599E-05,
    8.361152218896));
#1171 = CARTESIAN_POINT('',(-1.868734628152E-06,-2.875326406748E-06,
    8.499994711596));
#1172 = DEFINITIONAL_REPRESENTATION('',(#1173),#1211);
#1173 = B_SPLINE_CURVE_WITH_KNOTS('',8,(#1174,#1175,#1176,#1177,#1178,
    #1179,#1180,#1181,#1182,#1183,#1184,#1185,#1186,#1187,#1188,#1189,
    #1190,#1191,#1192,#1193,#1194,#1195,#1196,#1197,#1198,#1199,#1200,
    #1201,#1202,#1203,#1204,#1205,#1206,#1207,#1208,#1209,#1210),
  .UNSPECIFIED.,.F.,.F.,(9,7,7,7,7,9),(0.,0.311146847248,0.338826700075,
    0.539042682007,0.685768985307,1.),.UNSPECIFIED.);
#1174 = CARTESIAN_POINT('',(1.096585609973,6.45975198476));
#1175 = CARTESIAN_POINT('',(1.050523731614,6.324078898475));
#1176 = CARTESIAN_POINT('',(1.004422283247,6.188289108836));
#1177 = CARTESIAN_POINT('',(0.958407627655,6.052756357193));
#1178 = CARTESIAN_POINT('',(0.91254298585,5.917669100268));
#1179 = CARTESIAN_POINT('',(0.866863721766,5.783134496886));
#1180 = CARTESIAN_POINT('',(0.821403198911,5.649251371812));
#1181 = CARTESIAN_POINT('',(0.776218167505,5.516178547779));
#1182 = CARTESIAN_POINT('',(0.72743759753,5.372486246329));
#1183 = CARTESIAN_POINT('',(0.72345805235,5.360753694735));
#1184 = CARTESIAN_POINT('',(0.719474611028,5.349033111801));
#1185 = CARTESIAN_POINT('',(0.715502945202,5.337315144812));
#1186 = CARTESIAN_POINT('',(0.711525548622,5.325610535991));
#1187 = CARTESIAN_POINT('',(0.707555940652,5.313911065063));
#1188 = CARTESIAN_POINT('',(0.703587280861,5.302221136865));
#1189 = CARTESIAN_POINT('',(0.670937605768,5.206042409079));
#1190 = CARTESIAN_POINT('',(0.642395672989,5.121975276195));
#1191 = CARTESIAN_POINT('',(0.614015595174,5.038388436004));
#1192 = CARTESIAN_POINT('',(0.585807918867,4.955309604674));
#1193 = CARTESIAN_POINT('',(0.557778454123,4.872754776597));
#1194 = CARTESIAN_POINT('',(0.529932061839,4.790738052854));
#1195 = CARTESIAN_POINT('',(0.502275823046,4.709280328407));
#1196 = CARTESIAN_POINT('',(0.454702026921,4.569156828384));
#1197 = CARTESIAN_POINT('',(0.434687439273,4.510205597031));
#1198 = CARTESIAN_POINT('',(0.414780997714,4.451572602926));
#1199 = CARTESIAN_POINT('',(0.394984390182,4.393262944328));
#1200 = CARTESIAN_POINT('',(0.3752984488,4.3352791919));
#1201 = CARTESIAN_POINT('',(0.355723776643,4.27762322182));
#1202 = CARTESIAN_POINT('',(0.336261374511,4.220298048899));
#1203 = CARTESIAN_POINT('',(0.27547710322,4.041262562721));
#1204 = CARTESIAN_POINT('',(0.234534591821,3.92067011993));
#1205 = CARTESIAN_POINT('',(0.194140254853,3.801693259511));
#1206 = CARTESIAN_POINT('',(0.154285909515,3.684307578148));
#1207 = CARTESIAN_POINT('',(0.114950386013,3.568450216452));
#1208 = CARTESIAN_POINT('',(7.611750510079E-02,3.45407312979));
#1209 = CARTESIAN_POINT('',(3.778661665766E-02,3.341174258388));
#1210 = CARTESIAN_POINT('',(0.,3.229878100633));
#1211 = ( GEOMETRIC_REPRESENTATION_CONTEXT(2) 
PARAMETRIC_REPRESENTATION_CONTEXT() REPRESENTATION_CONTEXT('2D SPACE',''
  ) );
#1212 = ADVANCED_FACE('',(#1213),#760,.T.);
#1213 = FACE_BOUND('',#1214,.T.);
#1214 = EDGE_LOOP('',(#1215,#1216,#1242));
#1215 = ORIENTED_EDGE('',*,*,#684,.F.);
#1216 = ORIENTED_EDGE('',*,*,#1217,.T.);
#1217 = EDGE_CURVE('',#685,#1218,#1220,.T.);
#1218 = VERTEX_POINT('',#1219);
#1219 = CARTESIAN_POINT('',(0.799997910599,-8.640676312788E-07,
    -0.749996434702));
#1220 = SURFACE_CURVE('',#1221,(#1224,#1231),.PCURVE_S1.);
#1221 = B_SPLINE_CURVE_WITH_KNOTS('',1,(#1222,#1223),.UNSPECIFIED.,.F.,
  .F.,(2,2),(0.,1.096585609973),.PIECEWISE_BEZIER_KNOTS.);
#1222 = CARTESIAN_POINT('',(-1.726741349905E-07,-1.337637428242E-06,
    5.609802138373E-06));
#1223 = CARTESIAN_POINT('',(0.799997910599,-8.640676310567E-07,
    -0.749996434702));
#1224 = PCURVE('',#760,#1225);
#1225 = DEFINITIONAL_REPRESENTATION('',(#1226),#1230);
#1226 = LINE('',#1227,#1228);
#1227 = CARTESIAN_POINT('',(0.,0.));
#1228 = VECTOR('',#1229,1.);
#1229 = DIRECTION('',(1.,0.));
#1230 = ( GEOMETRIC_REPRESENTATION_CONTEXT(2) 
PARAMETRIC_REPRESENTATION_CONTEXT() REPRESENTATION_CONTEXT('2D SPACE',''
  ) );
#1231 = PCURVE('',#1232,#1237);
#1232 = PLANE('',#1233);
#1233 = AXIS2_PLACEMENT_3D('',#1234,#1235,#1236);
#1234 = CARTESIAN_POINT('',(0.237535905926,-1.206054072186E-06,
    -0.749994997255));
#1235 = DIRECTION('',(-6.080170087775E-07,1.,-1.712347940177E-08));
#1236 = DIRECTION('',(1.,6.080170087775E-07,0.));
#1237 = DEFINITIONAL_REPRESENTATION('',(#1238),#1241);
#1238 = B_SPLINE_CURVE_WITH_KNOTS('',1,(#1239,#1240),.UNSPECIFIED.,.F.,
  .F.,(2,2),(0.,1.096585609973),.PIECEWISE_BEZIER_KNOTS.);
#1239 = CARTESIAN_POINT('',(-0.2375360786,-0.750000607057));
#1240 = CARTESIAN_POINT('',(0.562462004673,1.437446277563E-06));
#1241 = ( GEOMETRIC_REPRESENTATION_CONTEXT(2) 
PARAMETRIC_REPRESENTATION_CONTEXT() REPRESENTATION_CONTEXT('2D SPACE',''
  ) );
#1242 = ORIENTED_EDGE('',*,*,#1243,.T.);
#1243 = EDGE_CURVE('',#1218,#687,#1244,.T.);
#1244 = SURFACE_CURVE('',#1245,(#1319,#1326),.PCURVE_S1.);
#1245 = B_SPLINE_CURVE_WITH_KNOTS('',9,(#1246,#1247,#1248,#1249,#1250,
    #1251,#1252,#1253,#1254,#1255,#1256,#1257,#1258,#1259,#1260,#1261,
    #1262,#1263,#1264,#1265,#1266,#1267,#1268,#1269,#1270,#1271,#1272,
    #1273,#1274,#1275,#1276,#1277,#1278,#1279,#1280,#1281,#1282,#1283,
    #1284,#1285,#1286,#1287,#1288,#1289,#1290,#1291,#1292,#1293,#1294,
    #1295,#1296,#1297,#1298,#1299,#1300,#1301,#1302,#1303,#1304,#1305,
    #1306,#1307,#1308,#1309,#1310,#1311,#1312,#1313,#1314,#1315,#1316,
    #1317,#1318),.UNSPECIFIED.,.F.,.F.,(10,9,9,9,9,9,9,9,10),(0.,
    5.383128066543,10.766256133086,16.149384199629,21.532512266172,
    26.915640332715,32.298768399258,37.681896465802,43.065024532345),
  .PIECEWISE_BEZIER_KNOTS.);
#1246 = CARTESIAN_POINT('',(0.799997910599,-8.640676310567E-07,
    -0.749996434702));
#1247 = CARTESIAN_POINT('',(0.800014230109,0.46544749516,-0.611137070753
    ));
#1248 = CARTESIAN_POINT('',(0.494998872783,0.931011026802,-0.47212933965
    ));
#1249 = CARTESIAN_POINT('',(-0.111983455242,1.166993796133,
    -0.333534630592));
#1250 = CARTESIAN_POINT('',(-0.833695158697,0.95526852858,
    -0.194152552859));
#1251 = CARTESIAN_POINT('',(-1.2439541233,0.244233425758,
    -5.584725162855E-02));
#1252 = CARTESIAN_POINT('',(-1.066750612945,-0.486387707813,
    8.353482566056E-02));
#1253 = CARTESIAN_POINT('',(-0.558731659789,-0.894260290737,
    0.222129535236));
#1254 = CARTESIAN_POINT('',(-3.097327759798E-03,-0.925532212373,
    0.361137266044));
#1255 = CARTESIAN_POINT('',(0.400000716392,-0.692821786842,
    0.499996630073));
#1256 = CARTESIAN_POINT('',(0.803091880383,-0.460103702517,
    0.638875613555));
#1257 = CARTESIAN_POINT('',(1.053785194536,3.681648976086E-02,
    0.777852536739));
#1258 = CARTESIAN_POINT('',(0.954647066163,0.680485884004,0.916486041147
    ));
#1259 = CARTESIAN_POINT('',(0.410446080802,1.199627698278,1.055828524159
    ));
#1260 = CARTESIAN_POINT('',(-0.410469696971,1.199418230728,
    1.194166529533));
#1261 = CARTESIAN_POINT('',(-0.954596607075,0.680636094279,
    1.333527058397));
#1262 = CARTESIAN_POINT('',(-1.053819106668,3.674696504818E-02,
    1.472132706313));
#1263 = CARTESIAN_POINT('',(-0.803082792994,-0.460084057357,
    1.611136495464));
#1264 = CARTESIAN_POINT('',(-0.400000909504,-0.692821675349,
    1.749996630073));
#1265 = CARTESIAN_POINT('',(3.084858245748E-03,-0.925549737623,
    1.888876384134));
#1266 = CARTESIAN_POINT('',(0.558774913894,-0.894196847827,
    2.027849365668));
#1267 = CARTESIAN_POINT('',(1.066645756567,-0.486504826084,
    2.166493808396));
#1268 = CARTESIAN_POINT('',(1.244123719448,0.244355620827,2.30581474302)
  );
#1269 = CARTESIAN_POINT('',(0.83350194638,0.955188353841,2.444185452492)
  );
#1270 = CARTESIAN_POINT('',(0.11213877071,1.16702071605,2.583506386675)
  );
#1271 = CARTESIAN_POINT('',(-0.495076039023,0.931009566568,
    2.722150829914));
#1272 = CARTESIAN_POINT('',(-0.799992673204,0.465446694963,2.86112381116
    ));
#1273 = CARTESIAN_POINT('',(-0.7999979106,8.640672694571E-07,
    3.000003565297));
#1274 = CARTESIAN_POINT('',(-0.800014230105,-0.465447495159,
    3.138862929253));
#1275 = CARTESIAN_POINT('',(-0.49499887279,-0.931011026803,
    3.277870660338));
#1276 = CARTESIAN_POINT('',(0.111983455253,-1.166993796135,
    3.416465369428));
#1277 = CARTESIAN_POINT('',(0.833695158684,-0.955268528575,
    3.555847447118));
#1278 = CARTESIAN_POINT('',(1.24395412331,-0.244233425765,3.694152748394
    ));
#1279 = CARTESIAN_POINT('',(1.066750612939,0.48638770782,3.833534825644)
  );
#1280 = CARTESIAN_POINT('',(0.558731659791,0.894260290733,3.972129535245
    ));
#1281 = CARTESIAN_POINT('',(3.09732775884E-03,0.925532212375,
    4.11113726604));
#1282 = CARTESIAN_POINT('',(-0.400000716392,0.692821786841,
    4.249996630074));
#1283 = CARTESIAN_POINT('',(-0.803092014371,0.460103303203,
    4.388876384135));
#1284 = CARTESIAN_POINT('',(-1.05378464315,-3.681484651208E-02,
    4.527849365661));
#1285 = CARTESIAN_POINT('',(-0.954648416734,-0.680489908993,
    4.666493808412));
#1286 = CARTESIAN_POINT('',(-0.410443684531,-1.199620556891,
    4.805814742997));
#1287 = CARTESIAN_POINT('',(0.410466406634,-1.199428036604,
    4.944185452517));
#1288 = CARTESIAN_POINT('',(0.95460020149,-0.680625382196,5.083506386654
    ));
#1289 = CARTESIAN_POINT('',(1.053815955323,-3.67563566933E-02,
    5.222150829929));
#1290 = CARTESIAN_POINT('',(0.80308499855,0.460090630359,5.361123811153)
  );
#1291 = CARTESIAN_POINT('',(0.399999703603,0.692818081519,5.500003565299
    ));
#1292 = CARTESIAN_POINT('',(-3.082652691052E-03,0.925556310626,
    5.638863699823));
#1293 = CARTESIAN_POINT('',(-0.558778065238,0.89418745618,5.777867489285
    ));
#1294 = CARTESIAN_POINT('',(-1.066642162151,0.486515538168,5.91647313665
    ));
#1295 = CARTESIAN_POINT('',(-1.244127009791,-0.244365426705,
    6.05583366601));
#1296 = CARTESIAN_POINT('',(-0.833499550098,-0.955181212452,
    6.194171671322));
#1297 = CARTESIAN_POINT('',(-0.112140121291,-1.16702474104,
    6.333514153947));
#1298 = CARTESIAN_POINT('',(0.495076590415,-0.931007923318,
    6.472147658831));
#1299 = CARTESIAN_POINT('',(0.799992539214,-0.465447094278,
    6.611124581745));
#1300 = CARTESIAN_POINT('',(0.7999979106,-8.640669259541E-07,
    6.750003565295));
#1301 = CARTESIAN_POINT('',(0.800013951282,0.465447810852,6.888863699836
    ));
#1302 = CARTESIAN_POINT('',(0.495000020192,0.931009727665,7.027867489261
    ));
#1303 = CARTESIAN_POINT('',(-0.111986265704,1.166996978258,
    7.166473136677));
#1304 = CARTESIAN_POINT('',(-0.833690172213,0.955262882653,7.30583366599
    ));
#1305 = CARTESIAN_POINT('',(-1.243960970258,0.244241178209,
    7.444171671329));
#1306 = CARTESIAN_POINT('',(-1.066743133231,-0.486396176701,
    7.58351415395));
#1307 = CARTESIAN_POINT('',(-0.558738217508,-0.894252865778,
    7.722147658823));
#1308 = CARTESIAN_POINT('',(-3.092738157671E-03,-0.925537408934,
    7.86112458175));
#1309 = CARTESIAN_POINT('',(0.399998206997,-0.692818945589,
    8.000003565293));
#1310 = CARTESIAN_POINT('',(0.803096469983,-0.460108899075,
    8.138862929266));
#1311 = CARTESIAN_POINT('',(1.053778636817,3.682391470893E-02,
    8.277870660315));
#1312 = CARTESIAN_POINT('',(0.954654545879,0.680477415138,8.416465369455
    ));
#1313 = CARTESIAN_POINT('',(0.41043923384,1.199635450702,8.555847447096)
  );
#1314 = CARTESIAN_POINT('',(-0.410464710487,1.199412584822,
    8.694152748403));
#1315 = CARTESIAN_POINT('',(-0.954599417532,0.680639276395,
    8.833534825644));
#1316 = CARTESIAN_POINT('',(-1.053817959266,3.674566591066E-02,
    8.972129535242));
#1317 = CARTESIAN_POINT('',(-0.803083071816,-0.460083741663,
    9.111137266043));
#1318 = CARTESIAN_POINT('',(-0.400000909504,-0.692821675349,
    9.249996630073));
#1319 = PCURVE('',#760,#1320);
#1320 = DEFINITIONAL_REPRESENTATION('',(#1321),#1325);
#1321 = LINE('',#1322,#1323);
#1322 = CARTESIAN_POINT('',(1.096585609973,0.));
#1323 = VECTOR('',#1324,1.);
#1324 = DIRECTION('',(0.,1.));
#1325 = ( GEOMETRIC_REPRESENTATION_CONTEXT(2) 
PARAMETRIC_REPRESENTATION_CONTEXT() REPRESENTATION_CONTEXT('2D SPACE',''
  ) );
#1326 = PCURVE('',#1025,#1327);
#1327 = DEFINITIONAL_REPRESENTATION('',(#1328),#1332);
#1328 = LINE('',#1329,#1330);
#1329 = CARTESIAN_POINT('',(0.,0.));
#1330 = VECTOR('',#1331,1.);
#1331 = DIRECTION('',(0.,1.));
#1332 = ( GEOMETRIC_REPRESENTATION_CONTEXT(2) 
PARAMETRIC_REPRESENTATION_CONTEXT() REPRESENTATION_CONTEXT('2D SPACE',''
  ) );
#1333 = ADVANCED_FACE('',(#1334),#1025,.T.);
#1334 = FACE_BOUND('',#1335,.T.);
#1335 = EDGE_LOOP('',(#1336,#1337,#1358,#1470));
#1336 = ORIENTED_EDGE('',*,*,#1243,.F.);
#1337 = ORIENTED_EDGE('',*,*,#1338,.T.);
#1338 = EDGE_CURVE('',#1218,#1339,#1341,.T.);
#1339 = VERTEX_POINT('',#1340);
#1340 = CARTESIAN_POINT('',(-4.006123132782E-06,-1.363324978131E-06,
    -1.499994390193));
#1341 = SURFACE_CURVE('',#1342,(#1345,#1352),.PCURVE_S1.);
#1342 = B_SPLINE_CURVE_WITH_KNOTS('',1,(#1343,#1344),.UNSPECIFIED.,.F.,
  .F.,(2,2),(0.,1.096585609973),.PIECEWISE_BEZIER_KNOTS.);
#1343 = CARTESIAN_POINT('',(0.799997910599,-8.640676312788E-07,
    -0.749996434702));
#1344 = CARTESIAN_POINT('',(-4.006123133227E-06,-1.363324978132E-06,
    -1.499994390193));
#1345 = PCURVE('',#1025,#1346);
#1346 = DEFINITIONAL_REPRESENTATION('',(#1347),#1351);
#1347 = LINE('',#1348,#1349);
#1348 = CARTESIAN_POINT('',(0.,0.));
#1349 = VECTOR('',#1350,1.);
#1350 = DIRECTION('',(1.,0.));
#1351 = ( GEOMETRIC_REPRESENTATION_CONTEXT(2) 
PARAMETRIC_REPRESENTATION_CONTEXT() REPRESENTATION_CONTEXT('2D SPACE',''
  ) );
#1352 = PCURVE('',#1232,#1353);
#1353 = DEFINITIONAL_REPRESENTATION('',(#1354),#1357);
#1354 = B_SPLINE_CURVE_WITH_KNOTS('',1,(#1355,#1356),.UNSPECIFIED.,.F.,
  .F.,(2,2),(0.,1.096585609973),.PIECEWISE_BEZIER_KNOTS.);
#1355 = CARTESIAN_POINT('',(0.562462004673,1.437446277563E-06));
#1356 = CARTESIAN_POINT('',(-0.237539912049,0.749999392938));
#1357 = ( GEOMETRIC_REPRESENTATION_CONTEXT(2) 
PARAMETRIC_REPRESENTATION_CONTEXT() REPRESENTATION_CONTEXT('2D SPACE',''
  ) );
#1358 = ORIENTED_EDGE('',*,*,#1359,.T.);
#1359 = EDGE_CURVE('',#1339,#685,#1360,.T.);
#1360 = SURFACE_CURVE('',#1361,(#1435,#1442),.PCURVE_S1.);
#1361 = B_SPLINE_CURVE_WITH_KNOTS('',9,(#1362,#1363,#1364,#1365,#1366,
    #1367,#1368,#1369,#1370,#1371,#1372,#1373,#1374,#1375,#1376,#1377,
    #1378,#1379,#1380,#1381,#1382,#1383,#1384,#1385,#1386,#1387,#1388,
    #1389,#1390,#1391,#1392,#1393,#1394,#1395,#1396,#1397,#1398,#1399,
    #1400,#1401,#1402,#1403,#1404,#1405,#1406,#1407,#1408,#1409,#1410,
    #1411,#1412,#1413,#1414,#1415,#1416,#1417,#1418,#1419,#1420,#1421,
    #1422,#1423,#1424,#1425,#1426,#1427,#1428,#1429,#1430,#1431,#1432,
    #1433,#1434),.UNSPECIFIED.,.F.,.F.,(10,9,9,9,9,9,9,9,10),(0.,
    5.383128066543,10.766256133086,16.149384199629,21.532512266172,
    26.915640332715,32.298768399258,37.681896465802,43.065024532345),
  .PIECEWISE_BEZIER_KNOTS.);
#1362 = CARTESIAN_POINT('',(-4.006123133227E-06,-1.363324978132E-06,
    -1.499994390193));
#1363 = CARTESIAN_POINT('',(2.842069831728E-05,4.146206565696E-05,
    -1.361151897654));
#1364 = CARTESIAN_POINT('',(-1.04036945287E-04,-1.657905891966E-04,
    -1.222076256659));
#1365 = CARTESIAN_POINT('',(2.503706594066E-04,3.208268518498E-04,
    -1.083649650454));
#1366 = CARTESIAN_POINT('',(-4.11411021083E-04,-3.750588697664E-04,
    -0.943985750458));
#1367 = CARTESIAN_POINT('',(4.795193754239E-04,2.761958334275E-04,
    -0.806013927858));
#1368 = CARTESIAN_POINT('',(-3.776351016363E-04,-1.204370148144E-04,
    -0.666350028746));
#1369 = CARTESIAN_POINT('',(1.882239479762E-04,2.635220640862E-05,
    -0.527923421512));
#1370 = CARTESIAN_POINT('',(-5.140164739095E-05,3.018108763259E-06,
    -0.388847781102));
#1371 = CARTESIAN_POINT('',(1.555738452508E-06,-3.056035038362E-06,
    -0.250005288404));
#1372 = CARTESIAN_POINT('',(4.144920326021E-05,6.806069509023E-06,
    -0.111131965171));
#1373 = CARTESIAN_POINT('',(-1.832118141842E-04,-8.068020137825E-06,
    2.789526338152E-02));
#1374 = CARTESIAN_POINT('',(3.889026477836E-04,-3.899545265508E-05,
    0.166382833706));
#1375 = CARTESIAN_POINT('',(-5.175842238283E-04,1.528180307366E-04,
    0.30598451343));
#1376 = CARTESIAN_POINT('',(4.695343781313E-04,-2.6556572858E-04,
    0.444007728251));
#1377 = CARTESIAN_POINT('',(-2.878109915368E-04,2.602782144293E-04,
    0.583637765555));
#1378 = CARTESIAN_POINT('',(1.147665708214E-04,-1.471585973528E-04,
    0.72208156161));
#1379 = CARTESIAN_POINT('',(-2.256045770847E-05,4.537487904335E-05,
    0.861151007986));
#1380 = CARTESIAN_POINT('',(-1.868734647692E-06,-2.875326941654E-06,
    0.999994711595));
#1381 = CARTESIAN_POINT('',(2.744444976755E-05,-3.236162678268E-05,
    1.138869245739));
#1382 = CARTESIAN_POINT('',(-1.019905894439E-04,1.540913357488E-04,
    1.277890280271));
#1383 = CARTESIAN_POINT('',(1.690023159776E-04,-3.54972806518E-04,
    1.416395039382));
#1384 = CARTESIAN_POINT('',(-1.412133111919E-04,5.223001034425E-04,
    1.555962857354));
#1385 = CARTESIAN_POINT('',(2.505510941321E-05,-5.361847664077E-04,
    1.694037464329));
#1386 = CARTESIAN_POINT('',(5.935378681202E-05,3.758657342656E-04,
    1.833605281422));
#1387 = CARTESIAN_POINT('',(-5.064166147326E-05,-1.69879572881E-04,
    1.972110041554));
#1388 = CARTESIAN_POINT('',(1.442524852031E-05,4.006240215959E-05,
    2.11113107551));
#1389 = CARTESIAN_POINT('',(4.006121198774E-06,1.363324385356E-06,
    2.250005609804));
#1390 = CARTESIAN_POINT('',(-2.842069157345E-05,-4.146206412078E-05,
    2.388848102355));
#1391 = CARTESIAN_POINT('',(1.040369306246E-04,1.657905888659E-04,
    2.527923743322));
#1392 = CARTESIAN_POINT('',(-2.503706366269E-04,-3.208268566961E-04,
    2.666350349576));
#1393 = CARTESIAN_POINT('',(4.114109952228E-04,3.750588814176E-04,
    2.806014249507));
#1394 = CARTESIAN_POINT('',(-4.795193540225E-04,-2.761958487389E-04,
    2.943986072176));
#1395 = CARTESIAN_POINT('',(3.776350886974E-04,1.204370285112E-04,
    3.083649971228));
#1396 = CARTESIAN_POINT('',(-1.882239421642E-04,-2.635221526554E-05,
    3.222076578504));
#1397 = CARTESIAN_POINT('',(5.140164534546E-05,-3.018104639014E-06,
    3.361152218891));
#1398 = CARTESIAN_POINT('',(-1.555737881631E-06,3.056033774485E-06,
    3.499994711598));
#1399 = CARTESIAN_POINT('',(-4.174821592844E-05,-7.5867781013E-06,
    3.63886924574));
#1400 = CARTESIAN_POINT('',(1.844423047507E-04,1.128078152464E-05,
    3.777890280261));
#1401 = CARTESIAN_POINT('',(-3.919166248893E-04,3.112608501623E-05,
    3.916395039406));
#1402 = CARTESIAN_POINT('',(5.229318152236E-04,-1.388557080148E-04,
    4.055962857319));
#1403 = CARTESIAN_POINT('',(-4.768771893426E-04,2.463939914342E-04,
    4.194037464367));
#1404 = CARTESIAN_POINT('',(2.958323889188E-04,-2.393347301867E-04,
    4.333605281389));
#1405 = CARTESIAN_POINT('',(-1.217992018166E-04,1.287967368781E-04,
    4.472110041576));
#1406 = CARTESIAN_POINT('',(2.748243749193E-05,-3.252382533599E-05,
    4.611131075498));
#1407 = CARTESIAN_POINT('',(-8.22388161348E-07,-4.151067843239E-06,
    4.750005609809));
#1408 = CARTESIAN_POINT('',(-2.252247113878E-05,4.521268130628E-05,
    4.888849313251));
#1409 = CARTESIAN_POINT('',(9.495795948219E-05,-1.724531980045E-04,
    5.027918760239));
#1410 = CARTESIAN_POINT('',(-1.609809154708E-04,3.759162925776E-04,
    5.16636255521));
#1411 = CARTESIAN_POINT('',(1.338704892006E-04,-5.414718415976E-04,
    5.305992593481));
#1412 = CARTESIAN_POINT('',(-1.970750125126E-05,5.501470898878E-04,
    5.444015808205));
#1413 = CARTESIAN_POINT('',(-6.236778035882E-05,-3.837351036433E-04,
    5.583617487135));
#1414 = CARTESIAN_POINT('',(5.187216281914E-05,1.730923370092E-04,
    5.722105058422));
#1415 = CARTESIAN_POINT('',(-1.472426564398E-05,-4.084311341814E-05,
    5.861132286427));
#1416 = CARTESIAN_POINT('',(-4.00611979634E-06,-1.363323847925E-06,
    6.000005609802));
#1417 = CARTESIAN_POINT('',(2.789408044822E-05,4.211136985488E-05,
    6.138849313271));
#1418 = CARTESIAN_POINT('',(-1.018698426829E-04,-1.684626037733E-04,
    6.277918760202));
#1419 = CARTESIAN_POINT('',(2.450625649005E-04,3.273717169069E-04,
    6.416362555253));
#1420 = CARTESIAN_POINT('',(-4.019930938003E-04,-3.866711807613E-04,
    6.555992593448));
#1421 = CARTESIAN_POINT('',(4.665875885972E-04,2.921407544753E-04,
    6.694015808218));
#1422 = CARTESIAN_POINT('',(-3.635082364767E-04,-1.378554729072E-04,
    6.833617487139));
#1423 = CARTESIAN_POINT('',(1.758384467067E-04,4.162355397187E-05,
    6.972105058412));
#1424 = CARTESIAN_POINT('',(-4.273331036381E-05,-7.669964082352E-06,
    7.111132286436));
#1425 = CARTESIAN_POINT('',(-3.183731234202E-06,2.787737475973E-06,
    7.250005609798));
#1426 = CARTESIAN_POINT('',(5.011753733988E-05,-3.881998159985E-06,
    7.388848102375));
#1427 = CARTESIAN_POINT('',(-1.955973133518E-04,7.203306846312E-06,
    7.527923743286));
#1428 = CARTESIAN_POINT('',(4.030295159494E-04,-5.641386791887E-05,
    7.666350349619));
#1429 = CARTESIAN_POINT('',(-5.305160146108E-04,1.687628968634E-04,
    7.806014249473));
#1430 = CARTESIAN_POINT('',(4.789523016447E-04,-2.771779955155E-04,
    7.943986072191));
#1431 = CARTESIAN_POINT('',(-2.931190732754E-04,2.668230597439E-04,
    8.083649971228));
#1432 = CARTESIAN_POINT('',(1.169336588727E-04,-1.49830609929E-04,
    8.222076578498));
#1433 = CARTESIAN_POINT('',(-2.308706622998E-05,4.602418556599E-05,
    8.361152218896));
#1434 = CARTESIAN_POINT('',(-1.868734628152E-06,-2.875326406748E-06,
    8.499994711596));
#1435 = PCURVE('',#1025,#1436);
#1436 = DEFINITIONAL_REPRESENTATION('',(#1437),#1441);
#1437 = LINE('',#1438,#1439);
#1438 = CARTESIAN_POINT('',(1.096585609973,0.));
#1439 = VECTOR('',#1440,1.);
#1440 = DIRECTION('',(0.,1.));
#1441 = ( GEOMETRIC_REPRESENTATION_CONTEXT(2) 
PARAMETRIC_REPRESENTATION_CONTEXT() REPRESENTATION_CONTEXT('2D SPACE',''
  ) );
#1442 = PCURVE('',#1443,#1464);
#1443 = B_SPLINE_SURFACE_WITH_KNOTS('',1,9,(
    (#1444,#1445,#1446,#1447,#1448,#1449,#1450,#1451,#1452,#1453)
    ,(#1454,#1455,#1456,#1457,#1458,#1459,#1460,#1461,#1462,#1463
  )),.UNSPECIFIED.,.F.,.F.,.F.,(2,2),(10,10),(0.,1.5),(0.,
    43.065024532345),.PIECEWISE_BEZIER_KNOTS.);
#1444 = CARTESIAN_POINT('',(-4.006123132782E-06,-1.363324978131E-06,
    -1.499994390193));
#1445 = CARTESIAN_POINT('',(2.554084484713E-04,3.412398001047E-04,
    -0.389254449884));
#1446 = CARTESIAN_POINT('',(-1.038995824072E-03,-1.026453964253E-03,
    0.723794597582));
#1447 = CARTESIAN_POINT('',(2.274868464124E-03,1.31513297367E-03,
    1.829700880089));
#1448 = CARTESIAN_POINT('',(-3.205512685501E-03,-3.842676363342E-04,
    2.949826351423));
#1449 = CARTESIAN_POINT('',(3.052257899177E-03,-1.171200687429E-03,
    4.050173972698));
#1450 = CARTESIAN_POINT('',(-1.962383343848E-03,1.837398029281E-03,
    5.170299435777));
#1451 = CARTESIAN_POINT('',(8.036813397109E-04,-1.243719181385E-03,
    6.276205727803));
#1452 = CARTESIAN_POINT('',(-1.71615387444E-04,3.883207693758E-04,
    7.389254769989));
#1453 = CARTESIAN_POINT('',(-1.868734628375E-06,-2.875326407192E-06,
    8.499994711596));
#1454 = CARTESIAN_POINT('',(-1.726741345456E-07,-1.337637428216E-06,
    5.609802138373E-06));
#1455 = CARTESIAN_POINT('',(6.051816431321E-06,3.418152968806E-04,
    1.110745550758));
#1456 = CARTESIAN_POINT('',(-1.981189475775E-04,-1.163250705189E-03,
    2.223794595569));
#1457 = CARTESIAN_POINT('',(8.681552623758E-04,1.937131249519E-03,
    3.329700882954));
#1458 = CARTESIAN_POINT('',(-1.906603958545E-03,-1.754470381763E-03,
    4.449826349817));
#1459 = CARTESIAN_POINT('',(2.534917385348E-03,6.486352704889E-04,
    5.550173971669));
#1460 = CARTESIAN_POINT('',(-2.140817349861E-03,3.035373177499E-04,
    6.670299438253));
#1461 = CARTESIAN_POINT('',(1.111392271952E-03,-4.463199623063E-04,
    7.776205725959));
#1462 = CARTESIAN_POINT('',(-2.968658653378E-04,1.724290937103E-04,
    8.889254770592));
#1463 = CARTESIAN_POINT('',(-4.79144492979E-08,2.270517152065E-07,
    9.999994711592));
#1464 = DEFINITIONAL_REPRESENTATION('',(#1465),#1469);
#1465 = LINE('',#1466,#1467);
#1466 = CARTESIAN_POINT('',(0.,0.));
#1467 = VECTOR('',#1468,1.);
#1468 = DIRECTION('',(0.,1.));
#1469 = ( GEOMETRIC_REPRESENTATION_CONTEXT(2) 
PARAMETRIC_REPRESENTATION_CONTEXT() REPRESENTATION_CONTEXT('2D SPACE',''
  ) );
#1470 = ORIENTED_EDGE('',*,*,#943,.T.);
#1471 = ADVANCED_FACE('',(#1472),#1232,.F.);
#1472 = FACE_BOUND('',#1473,.F.);
#1473 = EDGE_LOOP('',(#1474,#1475,#1476));
#1474 = ORIENTED_EDGE('',*,*,#1217,.T.);
#1475 = ORIENTED_EDGE('',*,*,#1338,.T.);
#1476 = ORIENTED_EDGE('',*,*,#1477,.T.);
#1477 = EDGE_CURVE('',#1339,#685,#1478,.T.);
#1478 = SURFACE_CURVE('',#1479,(#1482,#1488),.PCURVE_S1.);
#1479 = B_SPLINE_CURVE_WITH_KNOTS('',1,(#1480,#1481),.UNSPECIFIED.,.F.,
  .F.,(2,2),(0.,1.5),.PIECEWISE_BEZIER_KNOTS.);
#1480 = CARTESIAN_POINT('',(-4.006123132782E-06,-1.363324978131E-06,
    -1.499994390193));
#1481 = CARTESIAN_POINT('',(-1.726741345456E-07,-1.337637428216E-06,
    5.609802138373E-06));
#1482 = PCURVE('',#1232,#1483);
#1483 = DEFINITIONAL_REPRESENTATION('',(#1484),#1487);
#1484 = B_SPLINE_CURVE_WITH_KNOTS('',1,(#1485,#1486),.UNSPECIFIED.,.F.,
  .F.,(2,2),(0.,1.5),.PIECEWISE_BEZIER_KNOTS.);
#1485 = CARTESIAN_POINT('',(-0.237539912049,0.749999392938));
#1486 = CARTESIAN_POINT('',(-0.2375360786,-0.750000607057));
#1487 = ( GEOMETRIC_REPRESENTATION_CONTEXT(2) 
PARAMETRIC_REPRESENTATION_CONTEXT() REPRESENTATION_CONTEXT('2D SPACE',''
  ) );
#1488 = PCURVE('',#1443,#1489);
#1489 = DEFINITIONAL_REPRESENTATION('',(#1490),#1494);
#1490 = LINE('',#1491,#1492);
#1491 = CARTESIAN_POINT('',(0.,0.));
#1492 = VECTOR('',#1493,1.);
#1493 = DIRECTION('',(1.,0.));
#1494 = ( GEOMETRIC_REPRESENTATION_CONTEXT(2) 
PARAMETRIC_REPRESENTATION_CONTEXT() REPRESENTATION_CONTEXT('2D SPACE',''
  ) );
#1495 = ADVANCED_FACE('',(#1496),#1443,.T.);
#1496 = FACE_BOUND('',#1497,.T.);
#1497 = EDGE_LOOP('',(#1498,#1499));
#1498 = ORIENTED_EDGE('',*,*,#1359,.F.);
#1499 = ORIENTED_EDGE('',*,*,#1477,.T.);
#1500 = ( GEOMETRIC_REPRESENTATION_CONTEXT(3) 
GLOBAL_UNCERTAINTY_ASSIGNED_CONTEXT((#1504)) 
GLOBAL_UNIT_ASSIGNED_CONTEXT((#1501,#1502,#1503)) REPRESENTATION_CONTEXT
('Context #1','3D Context with UNIT and UNCERTAINTY') );
#1501 = ( LENGTH_UNIT() NAMED_UNIT(*) SI_UNIT(.MILLI.,.METRE.) );
#1502 = ( NAMED_UNIT(*) PLANE_ANGLE_UNIT() SI_UNIT($,.RADIAN.) );
#1503 = ( NAMED_UNIT(*) SI_UNIT($,.STERADIAN.) SOLID_ANGLE_UNIT() );
#1504 = UNCERTAINTY_MEASURE_WITH_UNIT(LENGTH_MEASURE(1.E-05),#1501,
  'distance_accuracy_value','confusion accuracy');
#1505 = PRODUCT_RELATED_PRODUCT_CATEGORY('part',$,(#7));
ENDSEC;
END-ISO-10303-21;
