ISO-10303-21;
HEADER;
FILE_DESCRIPTION(('Open CASCADE Model'),'2;1');
FILE_NAME('Open CASCADE Shape Model','2026-03-24T19:32:30',('Author'),(
    'Open CASCADE'),'Open CASCADE STEP processor 7.7','Open CASCADE 7.7'
  ,'Unknown');
FILE_SCHEMA(('AUTOMOTIVE_DESIGN { 1 0 10303 214 1 1 1 1 }'));
ENDSEC;
DATA;
#1 = APPLICATION_PROTOCOL_DEFINITION('international standard',
  'automotive_design',2000,#2);
#2 = APPLICATION_CONTEXT(
  'core data for automotive mechanical design processes');
#3 = SHAPE_DEFINITION_REPRESENTATION(#4,#10);
#4 = PRODUCT_DEFINITION_SHAPE('','',#5);
#5 = PRODUCT_DEFINITION('design','',#6,#9);
#6 = PRODUCT_DEFINITION_FORMATION('','',#7);
#7 = PRODUCT('Open CASCADE STEP translator 7.7 1',
  'Open CASCADE STEP translator 7.7 1','',(#8));
#8 = PRODUCT_CONTEXT('',#2,'mechanical');
#9 = PRODUCT_DEFINITION_CONTEXT('part definition',#2,'design');
#10 = ADVANCED_BREP_SHAPE_REPRESENTATION('',(#11,#15),#747);
#11 = AXIS2_PLACEMENT_3D('',#12,#13,#14);
#12 = CARTESIAN_POINT('',(0.,0.,0.));
#13 = DIRECTION('',(0.,0.,1.));
#14 = DIRECTION('',(1.,0.,-0.));
#15 = MANIFOLD_SOLID_BREP('',#16);
#16 = CLOSED_SHELL('',(#17,#628,#735,#739,#743));
#17 = ADVANCED_FACE('',(#18),#122,.T.);
#18 = FACE_BOUND('',#19,.T.);
#19 = EDGE_LOOP('',(#20,#325,#348,#375,#376));
#20 = ORIENTED_EDGE('',*,*,#21,.F.);
#21 = EDGE_CURVE('',#22,#24,#26,.T.);
#22 = VERTEX_POINT('',#23);
#23 = CARTESIAN_POINT('',(31.619885803105,-4.484642593391E-15,
    219.45118200876));
#24 = VERTEX_POINT('',#25);
#25 = CARTESIAN_POINT('',(31.999053158675,-7.837507605304E-15,
    204.92987902945));
#26 = SURFACE_CURVE('',#27,(#121,#223),.PCURVE_S1.);
#27 = B_SPLINE_CURVE_WITH_KNOTS('',8,(#28,#29,#30,#31,#32,#33,#34,#35,
    #36,#37,#38,#39,#40,#41,#42,#43,#44,#45,#46,#47,#48,#49,#50,#51,#52,
    #53,#54,#55,#56,#57,#58,#59,#60,#61,#62,#63,#64,#65,#66,#67,#68,#69,
    #70,#71,#72,#73,#74,#75,#76,#77,#78,#79,#80,#81,#82,#83,#84,#85,#86,
    #87,#88,#89,#90,#91,#92,#93,#94,#95,#96,#97,#98,#99,#100,#101,#102,
    #103,#104,#105,#106,#107,#108,#109,#110,#111,#112,#113,#114,#115,
    #116,#117,#118,#119,#120),.UNSPECIFIED.,.F.,.F.,(9,7,7,7,7,7,7,7,7,7
    ,7,7,7,9),(0.,5.060248173042E-02,8.7666542754E-02,0.149662324038,
    0.21770337498,0.287857800093,0.411482598888,0.54541309021,
    0.684263397773,0.810469412922,0.86298721296,0.947985142275,
    0.968509709488,1.),.UNSPECIFIED.);
#28 = CARTESIAN_POINT('',(31.619885803105,-1.224646799147E-15,
    219.45118200876));
#29 = CARTESIAN_POINT('',(31.619885803105,0.169068021325,219.45118200876
    ));
#30 = CARTESIAN_POINT('',(31.61907273847,0.338184426988,219.44275497081)
  );
#31 = CARTESIAN_POINT('',(31.617445623986,0.506034512333,219.42589423127
    ));
#32 = CARTESIAN_POINT('',(31.615041081634,0.671545850534,219.40088613021
    ));
#33 = CARTESIAN_POINT('',(31.611922075944,0.833851226228,219.3682129751)
  );
#34 = CARTESIAN_POINT('',(31.608168104701,0.992258952203,219.32847778969
    ));
#35 = CARTESIAN_POINT('',(31.603866845012,1.146230569138,219.2823508481)
  );
#36 = CARTESIAN_POINT('',(31.595621067126,1.404600927686,219.19258738914
    ));
#37 = CARTESIAN_POINT('',(31.591886833645,1.511309106205,219.1515625379)
  );
#38 = CARTESIAN_POINT('',(31.587936712695,1.615400390778,219.10770834708
    ));
#39 = CARTESIAN_POINT('',(31.583802120173,1.716826168149,219.06126384143
    ));
#40 = CARTESIAN_POINT('',(31.579512713271,1.815572033772,219.01245534303
    ));
#41 = CARTESIAN_POINT('',(31.575095690418,1.911651951103,218.96149106589
    ));
#42 = CARTESIAN_POINT('',(31.570575407349,2.00510382137,218.90855712575)
  );
#43 = CARTESIAN_POINT('',(31.558275538074,2.248002737029,218.76224963367
    ));
#44 = CARTESIAN_POINT('',(31.550352235453,2.39276424624,218.66566551652)
  );
#45 = CARTESIAN_POINT('',(31.542301909847,2.530597419931,218.56479939595
    ));
#46 = CARTESIAN_POINT('',(31.534207464691,2.661820231604,218.46028136586
    ));
#47 = CARTESIAN_POINT('',(31.526137096538,2.78675368866,218.35264222669)
  );
#48 = CARTESIAN_POINT('',(31.518145548088,2.905726980416,218.24231718654
    ));
#49 = CARTESIAN_POINT('',(31.510275716171,3.019076285287,218.12964586845
    ));
#50 = CARTESIAN_POINT('',(31.494093206059,3.245735318789,217.88889933673
    ));
#51 = CARTESIAN_POINT('',(31.485815902409,3.357911753848,217.7604489972)
  );
#52 = CARTESIAN_POINT('',(31.477774522975,3.46408502692,217.62987671487)
  );
#53 = CARTESIAN_POINT('',(31.470005596548,3.564611748485,217.49748476415
    ));
#54 = CARTESIAN_POINT('',(31.462537911965,3.659807388261,217.36352593602
    ));
#55 = CARTESIAN_POINT('',(31.45539389583,3.749959771222,217.2282083688)
  );
#56 = CARTESIAN_POINT('',(31.448590817434,3.835335336273,217.09169785772
    ));
#57 = CARTESIAN_POINT('',(31.43549251673,3.999531979675,216.81226414858)
  );
#58 = CARTESIAN_POINT('',(31.429220638656,4.078054834492,216.66929489793
    ));
#59 = CARTESIAN_POINT('',(31.423341079791,4.152009013121,216.52536006498
    ));
#60 = CARTESIAN_POINT('',(31.417865153369,4.221621723808,216.380589589)
  );
#61 = CARTESIAN_POINT('',(31.412801206638,4.287093948304,216.23509518212
    ));
#62 = CARTESIAN_POINT('',(31.408155169956,4.348606631897,216.08897175033
    ));
#63 = CARTESIAN_POINT('',(31.403931041104,4.406324207115,215.94229822853
    ));
#64 = CARTESIAN_POINT('',(31.3934354815,4.555678772907,215.53581456171)
  );
#65 = CARTESIAN_POINT('',(31.388058468319,4.639626597164,215.27501593732
    ));
#66 = CARTESIAN_POINT('',(31.384013233601,4.713056616843,215.01308975654
    ));
#67 = CARTESIAN_POINT('',(31.381300723614,4.776615572835,214.75032688734
    ));
#68 = CARTESIAN_POINT('',(31.379912914212,4.830831356236,214.48696808611
    ));
#69 = CARTESIAN_POINT('',(31.379835461399,4.876146548786,214.22320850545
    ));
#70 = CARTESIAN_POINT('',(31.381049950798,4.912933401501,213.959199889)
  );
#71 = CARTESIAN_POINT('',(31.386228763761,4.972427676569,213.40888081645
    ));
#72 = CARTESIAN_POINT('',(31.390413539659,4.993702395319,213.12258303486
    ));
#73 = CARTESIAN_POINT('',(31.396063000644,5.005698024048,212.83631536401
    ));
#74 = CARTESIAN_POINT('',(31.403146103732,5.008703257376,212.550224223)
  );
#75 = CARTESIAN_POINT('',(31.411628672954,5.002930133748,212.26444477682
    ));
#76 = CARTESIAN_POINT('',(31.421474142249,4.98852336432,211.9791014393)
  );
#77 = CARTESIAN_POINT('',(31.432644204304,4.965560725233,211.69430829662
    ));
#78 = CARTESIAN_POINT('',(31.45801205557,4.901370581568,211.11559302066)
  );
#79 = CARTESIAN_POINT('',(31.472304696455,4.859506023699,210.82174928471
    ));
#80 = CARTESIAN_POINT('',(31.487933141147,4.80845792528,210.52874681581)
  );
#81 = CARTESIAN_POINT('',(31.504850520918,4.748144727804,210.23671701078
    ));
#82 = CARTESIAN_POINT('',(31.52300666804,4.678403929203,209.94581326306)
  );
#83 = CARTESIAN_POINT('',(31.542347372241,4.598979615728,209.6562123414)
  );
#84 = CARTESIAN_POINT('',(31.562813470793,4.509489825129,209.36811797499
    ));
#85 = CARTESIAN_POINT('',(31.603905798152,4.318374648436,208.82149167019
    ));
#86 = CARTESIAN_POINT('',(31.624341632376,4.218624979233,208.562737823)
  );
#87 = CARTESIAN_POINT('',(31.645601802293,4.109686468445,208.30562127813
    ));
#88 = CARTESIAN_POINT('',(31.667632575242,3.991021187449,208.05035538614
    ));
#89 = CARTESIAN_POINT('',(31.690367442355,3.861937914551,207.79726363257
    ));
#90 = CARTESIAN_POINT('',(31.713724428778,3.721581385369,207.54678127862
    ));
#91 = CARTESIAN_POINT('',(31.737601259368,3.568829765632,207.2994765917)
  );
#92 = CARTESIAN_POINT('',(31.77196097409,3.332528949236,206.95485626317)
  );
#93 = CARTESIAN_POINT('',(31.782122962654,3.260658333236,206.85428880985
    ));
#94 = CARTESIAN_POINT('',(31.792340624272,3.186231965642,206.75447652337
    ));
#95 = CARTESIAN_POINT('',(31.802602277231,3.109115436768,206.65549168438
    ));
#96 = CARTESIAN_POINT('',(31.812894127224,3.029160638554,206.55742286305
    ));
#97 = CARTESIAN_POINT('',(31.823199960225,2.94620130066,206.4603763465)
  );
#98 = CARTESIAN_POINT('',(31.833500709586,2.860045226566,206.36447867594
    ));
#99 = CARTESIAN_POINT('',(31.860400635102,2.625478401086,206.11677664808
    ));
#100 = CARTESIAN_POINT('',(31.876907579185,2.471933688312,
    205.96751462683));
#101 = CARTESIAN_POINT('',(31.893253160199,2.308488072947,
    205.82221006306));
#102 = CARTESIAN_POINT('',(31.909325160408,2.133793826956,
    205.68163073114));
#103 = CARTESIAN_POINT('',(31.924935258214,1.946557672052,
    205.54715159692));
#104 = CARTESIAN_POINT('',(31.939798871788,1.745404555206,
    205.42085626944));
#105 = CARTESIAN_POINT('',(31.953540492622,1.5290145263,205.30544563612)
  );
#106 = CARTESIAN_POINT('',(31.968563152582,1.238946479225,
    205.18038965776));
#107 = CARTESIAN_POINT('',(31.971387060786,1.181566319233,
    205.15694143961));
#108 = CARTESIAN_POINT('',(31.974104985766,1.123217675503,
    205.13442734055));
#109 = CARTESIAN_POINT('',(31.976708255016,1.063899826625,
    205.11291153597));
#110 = CARTESIAN_POINT('',(31.97918762859,1.003620294513,205.09246255564
    ));
#111 = CARTESIAN_POINT('',(31.981533482972,0.942396036234,
    205.07315188857));
#112 = CARTESIAN_POINT('',(31.983735994942,0.88025463583,205.05505258802
    ));
#113 = CARTESIAN_POINT('',(31.98892955803,0.720546927961,205.01243951748
    ));
#114 = CARTESIAN_POINT('',(31.991714695021,0.621747234035,
    204.98965282397));
#115 = CARTESIAN_POINT('',(31.994102779135,0.521037769629,
    204.97016262739));
#116 = CARTESIAN_POINT('',(31.996058005305,0.418673931106,
    204.95423601811));
#117 = CARTESIAN_POINT('',(31.997549076321,0.314970342299,
    204.94210639562));
#118 = CARTESIAN_POINT('',(31.998551975824,0.210307303802,
    204.93395344355));
#119 = CARTESIAN_POINT('',(31.999053158675,0.105138505164,
    204.92987902945));
#120 = CARTESIAN_POINT('',(31.999053158675,3.061616997868E-16,
    204.92987902945));
#121 = PCURVE('',#122,#127);
#122 = CYLINDRICAL_SURFACE('',#123,5.);
#123 = AXIS2_PLACEMENT_3D('',#124,#125,#126);
#124 = CARTESIAN_POINT('',(37.677669529664,0.,206.32233047033));
#125 = DIRECTION('',(-0.707106781187,0.,0.707106781187));
#126 = DIRECTION('',(0.707106781187,0.,0.707106781187));
#127 = DEFINITIONAL_REPRESENTATION('',(#128),#222);
#128 = B_SPLINE_CURVE_WITH_KNOTS('',8,(#129,#130,#131,#132,#133,#134,
    #135,#136,#137,#138,#139,#140,#141,#142,#143,#144,#145,#146,#147,
    #148,#149,#150,#151,#152,#153,#154,#155,#156,#157,#158,#159,#160,
    #161,#162,#163,#164,#165,#166,#167,#168,#169,#170,#171,#172,#173,
    #174,#175,#176,#177,#178,#179,#180,#181,#182,#183,#184,#185,#186,
    #187,#188,#189,#190,#191,#192,#193,#194,#195,#196,#197,#198,#199,
    #200,#201,#202,#203,#204,#205,#206,#207,#208,#209,#210,#211,#212,
    #213,#214,#215,#216,#217,#218,#219,#220,#221),.UNSPECIFIED.,.F.,.F.,
  (9,7,7,7,7,7,7,7,7,7,7,7,7,9),(0.,5.060248173042E-02,8.7666542754E-02,
    0.149662324038,0.21770337498,0.287857800093,0.411482598888,
    0.54541309021,0.684263397773,0.810469412922,0.86298721296,
    0.947985142275,0.968509709488,1.),.UNSPECIFIED.);
#129 = CARTESIAN_POINT('',(0.,13.566999904023));
#130 = CARTESIAN_POINT('',(3.381360426496E-02,13.566999904023));
#131 = CARTESIAN_POINT('',(6.763683885937E-02,13.561616011861));
#132 = CARTESIAN_POINT('',(0.101265889127,13.550844212285));
#133 = CARTESIAN_POINT('',(0.134544956742,13.534861082643));
#134 = CARTESIAN_POINT('',(0.167352319404,13.513963143174));
#135 = CARTESIAN_POINT('',(0.199590574606,13.488520582646));
#136 = CARTESIAN_POINT('',(0.231181067489,13.458945359341));
#137 = CARTESIAN_POINT('',(0.284681776804,13.401303654268));
#138 = CARTESIAN_POINT('',(0.306934661521,13.374935205573));
#139 = CARTESIAN_POINT('',(0.328811256012,13.346718767171));
#140 = CARTESIAN_POINT('',(0.350307468319,13.316801140687));
#141 = CARTESIAN_POINT('',(0.371423972553,13.285321389196));
#142 = CARTESIAN_POINT('',(0.392165502801,13.25240751005));
#143 = CARTESIAN_POINT('',(0.412540483825,13.218173884831));
#144 = CARTESIAN_POINT('',(0.466048625547,13.123416186018));
#145 = CARTESIAN_POINT('',(0.498529859291,13.060723522834));
#146 = CARTESIAN_POINT('',(0.53007158763,12.995092844814));
#147 = CARTESIAN_POINT('',(0.560732233057,12.926911074043));
#148 = CARTESIAN_POINT('',(0.590566842366,12.85650532086));
#149 = CARTESIAN_POINT('',(0.619630678279,12.78414461494));
#150 = CARTESIAN_POINT('',(0.647981313045,12.710038773389));
#151 = CARTESIAN_POINT('',(0.706077985492,12.551248030898));
#152 = CARTESIAN_POINT('',(0.735677258283,12.46627286231));
#153 = CARTESIAN_POINT('',(0.764549246507,12.379630429971));
#154 = CARTESIAN_POINT('',(0.792753160767,12.291508644402));
#155 = CARTESIAN_POINT('',(0.820340163888,12.202065899035));
#156 = CARTESIAN_POINT('',(0.84735684144,12.111433511896));
#157 = CARTESIAN_POINT('',(0.873847196994,12.019716506677));
#158 = CARTESIAN_POINT('',(0.926666900173,11.831388933296));
#159 = CARTESIAN_POINT('',(0.952961710442,11.734729294178));
#160 = CARTESIAN_POINT('',(0.978781277772,11.637109473693));
#161 = CARTESIAN_POINT('',(1.004162870018,11.538613353123));
#162 = CARTESIAN_POINT('',(1.02913929914,11.439314022461));
#163 = CARTESIAN_POINT('',(1.053740358059,11.339274397));
#164 = CARTESIAN_POINT('',(1.077993743301,11.238547465269));
#165 = CARTESIAN_POINT('',(1.144097487206,10.958541589389));
#166 = CARTESIAN_POINT('',(1.185264882266,10.777931236041));
#167 = CARTESIAN_POINT('',(1.225569950923,10.595581870342));
#168 = CARTESIAN_POINT('',(1.265126456226,10.411698497894));
#169 = CARTESIAN_POINT('',(1.304030515558,10.226457033095));
#170 = CARTESIAN_POINT('',(1.342368285175,10.040005612421));
#171 = CARTESIAN_POINT('',(1.3802204357,9.852464555742));
#172 = CARTESIAN_POINT('',(1.458227748197,9.459668233962));
#173 = CARTESIAN_POINT('',(1.498306748661,9.254266047746));
#174 = CARTESIAN_POINT('',(1.537995317054,9.04784946428));
#175 = CARTESIAN_POINT('',(1.577377943788,8.840543968211));
#176 = CARTESIAN_POINT('',(1.616533030833,8.632469301672));
#177 = CARTESIAN_POINT('',(1.655536672239,8.423739294645));
#178 = CARTESIAN_POINT('',(1.694465896917,8.214461705598));
#179 = CARTESIAN_POINT('',(1.773767110211,7.787310429936));
#180 = CARTESIAN_POINT('',(1.814135679708,7.569425108347));
#181 = CARTESIAN_POINT('',(1.854597676119,7.351190096462));
#182 = CARTESIAN_POINT('',(1.895244867175,7.132731447058));
#183 = CARTESIAN_POINT('',(1.936172441174,6.914193099621));
#184 = CARTESIAN_POINT('',(1.977484147057,6.695738380987));
#185 = CARTESIAN_POINT('',(2.019300327787,6.477553183805));
#186 = CARTESIAN_POINT('',(2.100370004469,6.061973353578));
#187 = CARTESIAN_POINT('',(2.139498053343,5.864556436613));
#188 = CARTESIAN_POINT('',(2.179273572487,5.66771437386));
#189 = CARTESIAN_POINT('',(2.219824009245,5.471636021681));
#190 = CARTESIAN_POINT('',(2.261297533858,5.276597147767));
#191 = CARTESIAN_POINT('',(2.303867656316,5.082963493228));
#192 = CARTESIAN_POINT('',(2.347755134183,4.891209203264));
#193 = CARTESIAN_POINT('',(2.412243551769,4.623229844746));
#194 = CARTESIAN_POINT('',(2.431476600963,4.544932305516));
#195 = CARTESIAN_POINT('',(2.451016572615,4.467129383084));
#196 = CARTESIAN_POINT('',(2.470889049638,4.389880447804));
#197 = CARTESIAN_POINT('',(2.491121850354,4.313257882295));
#198 = CARTESIAN_POINT('',(2.511746056756,4.237348307954));
#199 = CARTESIAN_POINT('',(2.532797693417,4.162254685073));
#200 = CARTESIAN_POINT('',(2.589153129646,3.968081781714));
#201 = CARTESIAN_POINT('',(2.625119741601,3.850865422219));
#202 = CARTESIAN_POINT('',(2.662501438628,3.736561508661));
#203 = CARTESIAN_POINT('',(2.701554352259,3.625792289435));
#204 = CARTESIAN_POINT('',(2.742511010506,3.519663175688));
#205 = CARTESIAN_POINT('',(2.785623153049,3.41984873124));
#206 = CARTESIAN_POINT('',(2.831148572582,3.328524296523));
#207 = CARTESIAN_POINT('',(2.891212917251,3.22947374147));
#208 = CARTESIAN_POINT('',(2.903052779501,3.210896542769));
#209 = CARTESIAN_POINT('',(2.915051802787,3.19305480746));
#210 = CARTESIAN_POINT('',(2.92721080782,3.176000046805));
#211 = CARTESIAN_POINT('',(2.939529181786,3.159787252276));
#212 = CARTESIAN_POINT('',(2.952004689331,3.1444737791));
#213 = CARTESIAN_POINT('',(2.964633283541,3.130118229798));
#214 = CARTESIAN_POINT('',(2.997010227017,3.096313834976));
#215 = CARTESIAN_POINT('',(3.016966765451,3.078231820218));
#216 = CARTESIAN_POINT('',(3.037244594611,3.062761539577));
#217 = CARTESIAN_POINT('',(3.05780116023,3.050117172471));
#218 = CARTESIAN_POINT('',(3.078584410752,3.040485887732));
#219 = CARTESIAN_POINT('',(3.099531197061,3.034011722994));
#220 = CARTESIAN_POINT('',(3.120564952557,3.030776287366));
#221 = CARTESIAN_POINT('',(3.14159265359,3.030776287366));
#222 = ( GEOMETRIC_REPRESENTATION_CONTEXT(2) 
PARAMETRIC_REPRESENTATION_CONTEXT() REPRESENTATION_CONTEXT('2D SPACE',''
  ) );
#223 = PCURVE('',#224,#229);
#224 = CONICAL_SURFACE('',#225,35.,2.610517943819E-02);
#225 = AXIS2_PLACEMENT_3D('',#226,#227,#228);
#226 = CARTESIAN_POINT('',(0.,0.,90.));
#227 = DIRECTION('',(-0.,-0.,-1.));
#228 = DIRECTION('',(1.,0.,-0.));
#229 = DEFINITIONAL_REPRESENTATION('',(#230),#324);
#230 = B_SPLINE_CURVE_WITH_KNOTS('',8,(#231,#232,#233,#234,#235,#236,
    #237,#238,#239,#240,#241,#242,#243,#244,#245,#246,#247,#248,#249,
    #250,#251,#252,#253,#254,#255,#256,#257,#258,#259,#260,#261,#262,
    #263,#264,#265,#266,#267,#268,#269,#270,#271,#272,#273,#274,#275,
    #276,#277,#278,#279,#280,#281,#282,#283,#284,#285,#286,#287,#288,
    #289,#290,#291,#292,#293,#294,#295,#296,#297,#298,#299,#300,#301,
    #302,#303,#304,#305,#306,#307,#308,#309,#310,#311,#312,#313,#314,
    #315,#316,#317,#318,#319,#320,#321,#322,#323),.UNSPECIFIED.,.F.,.F.,
  (9,7,7,7,7,7,7,7,7,7,7,7,7,9),(0.,5.060248173042E-02,8.7666542754E-02,
    0.149662324038,0.21770337498,0.287857800093,0.411482598888,
    0.54541309021,0.684263397773,0.810469412922,0.86298721296,
    0.947985142275,0.968509709488,1.),.UNSPECIFIED.);
#231 = CARTESIAN_POINT('',(0.,-129.4511820087));
#232 = CARTESIAN_POINT('',(-5.346889055122E-03,-129.4511820087));
#233 = CARTESIAN_POINT('',(-1.069530825484E-02,-129.4427549708));
#234 = CARTESIAN_POINT('',(-1.600376345583E-02,-129.4258942312));
#235 = CARTESIAN_POINT('',(-2.123842262235E-02,-129.4008861302));
#236 = CARTESIAN_POINT('',(-2.63719269425E-02,-129.3682129751));
#237 = CARTESIAN_POINT('',(-3.138244323959E-02,-129.3284777896));
#238 = CARTESIAN_POINT('',(-3.625295767819E-02,-129.2823508481));
#239 = CARTESIAN_POINT('',(-4.442642773779E-02,-129.1925873891));
#240 = CARTESIAN_POINT('',(-4.780228767341E-02,-129.1515625379));
#241 = CARTESIAN_POINT('',(-5.10955410682E-02,-129.107708347));
#242 = CARTESIAN_POINT('',(-5.430464417664E-02,-129.0612638414));
#243 = CARTESIAN_POINT('',(-5.742913095949E-02,-129.012455343));
#244 = CARTESIAN_POINT('',(-6.046942956634E-02,-128.9614910658));
#245 = CARTESIAN_POINT('',(-6.342672335272E-02,-128.9085571257));
#246 = CARTESIAN_POINT('',(-7.111366540446E-02,-128.7622496336));
#247 = CARTESIAN_POINT('',(-7.569529594786E-02,-128.6656655165));
#248 = CARTESIAN_POINT('',(-8.005799657911E-02,-128.5647993959));
#249 = CARTESIAN_POINT('',(-8.421173888681E-02,-128.4602813658));
#250 = CARTESIAN_POINT('',(-8.816658952825E-02,-128.3526422266));
#251 = CARTESIAN_POINT('',(-9.193287860498E-02,-128.2423171865));
#252 = CARTESIAN_POINT('',(-9.552116441722E-02,-128.1296458684));
#253 = CARTESIAN_POINT('',(-0.102696393295,-127.8888993367));
#254 = CARTESIAN_POINT('',(-0.106247451088,-127.7604489972));
#255 = CARTESIAN_POINT('',(-0.109608313575,-127.6298767148));
#256 = CARTESIAN_POINT('',(-0.112790177878,-127.4974847641));
#257 = CARTESIAN_POINT('',(-0.115802949629,-127.363525936));
#258 = CARTESIAN_POINT('',(-0.11865567006,-127.2282083688));
#259 = CARTESIAN_POINT('',(-0.121356713212,-127.0916978577));
#260 = CARTESIAN_POINT('',(-0.126550215656,-126.8122641485));
#261 = CARTESIAN_POINT('',(-0.129033202258,-126.6692948979));
#262 = CARTESIAN_POINT('',(-0.131370959399,-126.5253600649));
#263 = CARTESIAN_POINT('',(-0.133570632902,-126.380589589));
#264 = CARTESIAN_POINT('',(-0.135638547609,-126.2350951821));
#265 = CARTESIAN_POINT('',(-0.137580402445,-126.0889717503));
#266 = CARTESIAN_POINT('',(-0.139401381001,-125.9422982285));
#267 = CARTESIAN_POINT('',(-0.144110337951,-125.5358145617));
#268 = CARTESIAN_POINT('',(-0.14675332314,-125.2750159373));
#269 = CARTESIAN_POINT('',(-0.149060935357,-125.0130897565));
#270 = CARTESIAN_POINT('',(-0.151053631208,-124.7503268873));
#271 = CARTESIAN_POINT('',(-0.152748160983,-124.4869680861));
#272 = CARTESIAN_POINT('',(-0.154158621667,-124.2232085054));
#273 = CARTESIAN_POINT('',(-0.155296923704,-123.959199889));
#274 = CARTESIAN_POINT('',(-0.157121424056,-123.4088808164));
#275 = CARTESIAN_POINT('',(-0.15776192099,-123.1225830348));
#276 = CARTESIAN_POINT('',(-0.158106513155,-122.836315364));
#277 = CARTESIAN_POINT('',(-0.158164599577,-122.550224223));
#278 = CARTESIAN_POINT('',(-0.157943199924,-122.2644447768));
#279 = CARTESIAN_POINT('',(-0.157447246527,-121.9791014393));
#280 = CARTESIAN_POINT('',(-0.156679596026,-121.6943082966));
#281 = CARTESIAN_POINT('',(-0.15456376453,-121.1155930206));
#282 = CARTESIAN_POINT('',(-0.153195390594,-120.8217492847));
#283 = CARTESIAN_POINT('',(-0.1515363512,-120.5287468158));
#284 = CARTESIAN_POINT('',(-0.149584611999,-120.2367170107));
#285 = CARTESIAN_POINT('',(-0.147335635295,-119.945813263));
#286 = CARTESIAN_POINT('',(-0.144781993195,-119.6562123414));
#287 = CARTESIAN_POINT('',(-0.14191235054,-119.3681179749));
#288 = CARTESIAN_POINT('',(-0.1357989208,-118.8214916701));
#289 = CARTESIAN_POINT('',(-0.132613913148,-118.562737823));
#290 = CARTESIAN_POINT('',(-0.129141561667,-118.3056212781));
#291 = CARTESIAN_POINT('',(-0.125365560015,-118.0503553861));
#292 = CARTESIAN_POINT('',(-0.121264861328,-117.7972636325));
#293 = CARTESIAN_POINT('',(-0.116813344556,-117.5467812786));
#294 = CARTESIAN_POINT('',(-0.111976610836,-117.2994765917));
#295 = CARTESIAN_POINT('',(-0.104506673329,-116.9548562631));
#296 = CARTESIAN_POINT('',(-0.102236077674,-116.8542888098));
#297 = CARTESIAN_POINT('',(-9.988616227957E-02,-116.7544765233));
#298 = CARTESIAN_POINT('',(-9.745278224072E-02,-116.6554916843));
#299 = CARTESIAN_POINT('',(-9.493136825604E-02,-116.557422863));
#300 = CARTESIAN_POINT('',(-9.231678668081E-02,-116.4603763465));
#301 = CARTESIAN_POINT('',(-8.96030962671E-02,-116.3644786759));
#302 = CARTESIAN_POINT('',(-8.221931643646E-02,-116.116776648));
#303 = CARTESIAN_POINT('',(-7.739027132593E-02,-115.9675146268));
#304 = CARTESIAN_POINT('',(-7.225431463353E-02,-115.822210063));
#305 = CARTESIAN_POINT('',(-6.676962220098E-02,-115.6816307311));
#306 = CARTESIAN_POINT('',(-6.08961636127E-02,-115.5471515969));
#307 = CARTESIAN_POINT('',(-5.459135904427E-02,-115.4208562694));
#308 = CARTESIAN_POINT('',(-4.781423416968E-02,-115.3054456361));
#309 = CARTESIAN_POINT('',(-3.873572825214E-02,-115.1803896577));
#310 = CARTESIAN_POINT('',(-3.694011985565E-02,-115.1569414396));
#311 = CARTESIAN_POINT('',(-3.511446674029E-02,-115.1344273405));
#312 = CARTESIAN_POINT('',(-3.325874427999E-02,-115.1129115359));
#313 = CARTESIAN_POINT('',(-3.137318380861E-02,-115.0924625556));
#314 = CARTESIAN_POINT('',(-2.945830948672E-02,-115.0731518885));
#315 = CARTESIAN_POINT('',(-2.751497516834E-02,-115.055052588));
#316 = CARTESIAN_POINT('',(-2.252100282218E-02,-115.0124395174));
#317 = CARTESIAN_POINT('',(-1.943207760933E-02,-114.9896528239));
#318 = CARTESIAN_POINT('',(-1.6283880527E-02,-114.9701626273));
#319 = CARTESIAN_POINT('',(-1.308433872788E-02,-114.9542360181));
#320 = CARTESIAN_POINT('',(-9.843212220982E-03,-114.9421063956));
#321 = CARTESIAN_POINT('',(-6.572297686724E-03,-114.9339534435));
#322 = CARTESIAN_POINT('',(-3.285675505546E-03,-114.9298790294));
#323 = CARTESIAN_POINT('',(-9.567836219049E-18,-114.9298790294));
#324 = ( GEOMETRIC_REPRESENTATION_CONTEXT(2) 
PARAMETRIC_REPRESENTATION_CONTEXT() REPRESENTATION_CONTEXT('2D SPACE',''
  ) );
#325 = ORIENTED_EDGE('',*,*,#326,.F.);
#326 = EDGE_CURVE('',#327,#22,#329,.T.);
#327 = VERTEX_POINT('',#328);
#328 = CARTESIAN_POINT('',(41.213203435596,-1.224646799147E-15,
    209.85786437626));
#329 = SEAM_CURVE('',#330,(#334,#341),.PCURVE_S1.);
#330 = LINE('',#331,#332);
#331 = CARTESIAN_POINT('',(41.213203435596,-1.224646799147E-15,
    209.85786437626));
#332 = VECTOR('',#333,1.);
#333 = DIRECTION('',(-0.707106781187,0.,0.707106781187));
#334 = PCURVE('',#122,#335);
#335 = DEFINITIONAL_REPRESENTATION('',(#336),#340);
#336 = LINE('',#337,#338);
#337 = CARTESIAN_POINT('',(6.28318530718,-0.));
#338 = VECTOR('',#339,1.);
#339 = DIRECTION('',(0.,1.));
#340 = ( GEOMETRIC_REPRESENTATION_CONTEXT(2) 
PARAMETRIC_REPRESENTATION_CONTEXT() REPRESENTATION_CONTEXT('2D SPACE',''
  ) );
#341 = PCURVE('',#122,#342);
#342 = DEFINITIONAL_REPRESENTATION('',(#343),#347);
#343 = LINE('',#344,#345);
#344 = CARTESIAN_POINT('',(0.,-0.));
#345 = VECTOR('',#346,1.);
#346 = DIRECTION('',(0.,1.));
#347 = ( GEOMETRIC_REPRESENTATION_CONTEXT(2) 
PARAMETRIC_REPRESENTATION_CONTEXT() REPRESENTATION_CONTEXT('2D SPACE',''
  ) );
#348 = ORIENTED_EDGE('',*,*,#349,.T.);
#349 = EDGE_CURVE('',#327,#327,#350,.T.);
#350 = SURFACE_CURVE('',#351,(#356,#363),.PCURVE_S1.);
#351 = CIRCLE('',#352,5.);
#352 = AXIS2_PLACEMENT_3D('',#353,#354,#355);
#353 = CARTESIAN_POINT('',(37.677669529664,0.,206.32233047033));
#354 = DIRECTION('',(-0.707106781187,0.,0.707106781187));
#355 = DIRECTION('',(0.707106781187,0.,0.707106781187));
#356 = PCURVE('',#122,#357);
#357 = DEFINITIONAL_REPRESENTATION('',(#358),#362);
#358 = LINE('',#359,#360);
#359 = CARTESIAN_POINT('',(0.,0.));
#360 = VECTOR('',#361,1.);
#361 = DIRECTION('',(1.,0.));
#362 = ( GEOMETRIC_REPRESENTATION_CONTEXT(2) 
PARAMETRIC_REPRESENTATION_CONTEXT() REPRESENTATION_CONTEXT('2D SPACE',''
  ) );
#363 = PCURVE('',#364,#369);
#364 = PLANE('',#365);
#365 = AXIS2_PLACEMENT_3D('',#366,#367,#368);
#366 = CARTESIAN_POINT('',(37.677669529664,0.,206.32233047033));
#367 = DIRECTION('',(-0.707106781187,0.,0.707106781187));
#368 = DIRECTION('',(0.707106781187,0.,0.707106781187));
#369 = DEFINITIONAL_REPRESENTATION('',(#370),#374);
#370 = CIRCLE('',#371,5.);
#371 = AXIS2_PLACEMENT_2D('',#372,#373);
#372 = CARTESIAN_POINT('',(0.,0.));
#373 = DIRECTION('',(1.,0.));
#374 = ( GEOMETRIC_REPRESENTATION_CONTEXT(2) 
PARAMETRIC_REPRESENTATION_CONTEXT() REPRESENTATION_CONTEXT('2D SPACE',''
  ) );
#375 = ORIENTED_EDGE('',*,*,#326,.T.);
#376 = ORIENTED_EDGE('',*,*,#377,.F.);
#377 = EDGE_CURVE('',#24,#22,#378,.T.);
#378 = SURFACE_CURVE('',#379,(#460,#544),.PCURVE_S1.);
#379 = B_SPLINE_CURVE_WITH_KNOTS('',7,(#380,#381,#382,#383,#384,#385,
    #386,#387,#388,#389,#390,#391,#392,#393,#394,#395,#396,#397,#398,
    #399,#400,#401,#402,#403,#404,#405,#406,#407,#408,#409,#410,#411,
    #412,#413,#414,#415,#416,#417,#418,#419,#420,#421,#422,#423,#424,
    #425,#426,#427,#428,#429,#430,#431,#432,#433,#434,#435,#436,#437,
    #438,#439,#440,#441,#442,#443,#444,#445,#446,#447,#448,#449,#450,
    #451,#452,#453,#454,#455,#456,#457,#458,#459),.UNSPECIFIED.,.F.,.F.,
  (8,6,6,6,6,6,6,6,6,6,6,6,6,8),(0.,3.531105038142E-02,
    6.120329439034E-02,0.104859895489,0.153657303895,0.207217518884,
    0.325333039435,0.455152324755,0.619362162187,0.76489665223,
    0.834015782083,0.929355567524,0.956737976997,1.),.UNSPECIFIED.);
#380 = CARTESIAN_POINT('',(31.999053158675,0.,204.92987902945));
#381 = CARTESIAN_POINT('',(31.999053158675,-0.134785109398,
    204.92987902945));
#382 = CARTESIAN_POINT('',(31.998212325314,-0.269625223147,
    204.93671472086));
#383 = CARTESIAN_POINT('',(31.996529348387,-0.403293543816,
    204.95039600351));
#384 = CARTESIAN_POINT('',(31.994048130214,-0.534842596009,
    204.97059274721));
#385 = CARTESIAN_POINT('',(31.990839517014,-0.663554436519,
    204.9967764281));
#386 = CARTESIAN_POINT('',(31.98698709858,-0.78890332382,205.02832504715
    ));
#387 = CARTESIAN_POINT('',(31.979343375375,-0.999715662154,
    205.09118401163));
#388 = CARTESIAN_POINT('',(31.975808087278,-1.086947172936,
    205.12032786378));
#389 = CARTESIAN_POINT('',(31.972002501229,-1.172145210695,
    205.1517905771));
#390 = CARTESIAN_POINT('',(31.967956792967,-1.255275185761,
    205.18534822632));
#391 = CARTESIAN_POINT('',(31.963699047483,-1.336340819036,
    205.22079280805));
#392 = CARTESIAN_POINT('',(31.959254281808,-1.415376873705,
    205.25793977742));
#393 = CARTESIAN_POINT('',(31.946869229765,-1.622380278549,
    205.36188011958));
#394 = CARTESIAN_POINT('',(31.93862661023,-1.746656768409,
    205.43149721254));
#395 = CARTESIAN_POINT('',(31.930015134124,-1.865606282683,
    205.50476021014));
#396 = CARTESIAN_POINT('',(31.921116207327,-1.979545172056,
    205.58107649431));
#397 = CARTESIAN_POINT('',(31.911994777454,-2.088791929939,
    205.65997373522));
#398 = CARTESIAN_POINT('',(31.902700573914,-2.193675850005,
    205.74109422273));
#399 = CARTESIAN_POINT('',(31.882726651776,-2.40726795917,
    205.91708617579));
#400 = CARTESIAN_POINT('',(31.872017577371,-2.514920031992,
    206.01240869018));
#401 = CARTESIAN_POINT('',(31.861195398028,-2.617924512572,
    206.10978857845));
#402 = CARTESIAN_POINT('',(31.850302778514,-2.716627810283,
    206.20892847791));
#403 = CARTESIAN_POINT('',(31.839373758801,-2.811328094583,
    206.30959325381));
#404 = CARTESIAN_POINT('',(31.828435272606,-2.902296282871,
    206.41160143033));
#405 = CARTESIAN_POINT('',(31.805513724003,-3.085798242912,
    206.62812294589));
#406 = CARTESIAN_POINT('',(31.793534964851,-3.177602159198,
    206.74286568423));
#407 = CARTESIAN_POINT('',(31.781600267473,-3.265504268668,
    206.85886616887));
#408 = CARTESIAN_POINT('',(31.769733321531,-3.349758055101,
    206.97597287445));
#409 = CARTESIAN_POINT('',(31.757953808741,-3.430578671082,
    207.09406275934));
#410 = CARTESIAN_POINT('',(31.746278132767,-3.508155849742,
    207.2130374927));
#411 = CARTESIAN_POINT('',(31.709230423708,-3.746953301059,
    207.59698301399));
#412 = CARTESIAN_POINT('',(31.684318088296,-3.896250236504,
    207.86501922705));
#413 = CARTESIAN_POINT('',(31.660126393016,-4.032363632257,
    208.13613888662));
#414 = CARTESIAN_POINT('',(31.636763533839,-4.156415783695,
    208.40977894948));
#415 = CARTESIAN_POINT('',(31.614316666447,-4.269286245098,
    208.68551562498));
#416 = CARTESIAN_POINT('',(31.592855634716,-4.371630814191,
    208.96306237039));
#417 = CARTESIAN_POINT('',(31.55000011024,-4.565431084379,
    209.54910953591));
#418 = CARTESIAN_POINT('',(31.528828387767,-4.654778293623,
    209.85787728257));
#419 = CARTESIAN_POINT('',(31.509006179503,-4.732654697379,
    210.16826866933));
#420 = CARTESIAN_POINT('',(31.49060713773,-4.799465170625,
    210.48003958221));
#421 = CARTESIAN_POINT('',(31.473698367082,-4.855453251507,
    210.7929807252));
#422 = CARTESIAN_POINT('',(31.458341815299,-4.900740656477,
    211.1069134363));
#423 = CARTESIAN_POINT('',(31.42720713208,-4.979051252647,
    211.81985598138));
#424 = CARTESIAN_POINT('',(31.412398036906,-5.005639730888,
    212.21930327036));
#425 = CARTESIAN_POINT('',(31.400282628171,-5.01507780737,
    212.61975256992));
#426 = CARTESIAN_POINT('',(31.39097185577,-5.007007127455,
    213.02086154467));
#427 = CARTESIAN_POINT('',(31.384568028267,-4.980793789909,
    213.42222412348));
#428 = CARTESIAN_POINT('',(31.381158161707,-4.93547473074,
    213.82336549999));
#429 = CARTESIAN_POINT('',(31.380493196313,-4.811163424664,214.578568342
    ));
#430 = CARTESIAN_POINT('',(31.382582373551,-4.736612537132,
    214.93264071749));
#431 = CARTESIAN_POINT('',(31.38711329331,-4.644886466821,
    215.28568710445));
#432 = CARTESIAN_POINT('',(31.394116757093,-4.534654507868,
    215.63717120115));
#433 = CARTESIAN_POINT('',(31.403593208328,-4.404170760884,
    215.98625437417));
#434 = CARTESIAN_POINT('',(31.415490923893,-4.25131329541,
    216.33180037253));
#435 = CARTESIAN_POINT('',(31.436400411385,-3.987931139344,
    216.83391095741));
#436 = CARTESIAN_POINT('',(31.443645657894,-3.897341809562,
    216.99439744279));
#437 = CARTESIAN_POINT('',(31.451387503684,-3.800620780969,
    217.15352083472));
#438 = CARTESIAN_POINT('',(31.459603680534,-3.697372445183,
    217.3110450404));
#439 = CARTESIAN_POINT('',(31.468263109572,-3.587158220008,
    217.46666613335));
#440 = CARTESIAN_POINT('',(31.477323034717,-3.469472940296,
    217.6200047453));
#441 = CARTESIAN_POINT('',(31.499694974839,-3.170207965132,
    217.97830285223));
#442 = CARTESIAN_POINT('',(31.513290222984,-2.98167430402,
    218.18036167872));
#443 = CARTESIAN_POINT('',(31.527387765137,-2.776124529946,
    218.37610215694));
#444 = CARTESIAN_POINT('',(31.541775866372,-2.55159872027,
    218.56373794453));
#445 = CARTESIAN_POINT('',(31.556102352852,-2.306187808762,218.740336934
    ));
#446 = CARTESIAN_POINT('',(31.569840832609,-2.038333899692,
    218.9019933941));
#447 = CARTESIAN_POINT('',(31.585862800235,-1.662441232283,
    219.08411483227));
#448 = CARTESIAN_POINT('',(31.589328598404,-1.576636203135,
    219.1230576469));
#449 = CARTESIAN_POINT('',(31.592667684046,-1.488891929451,
    219.16017343267));
#450 = CARTESIAN_POINT('',(31.595860633375,-1.399222866114,
    219.19531393722));
#451 = CARTESIAN_POINT('',(31.598886833306,-1.307667612536,
    219.22832160447));
#452 = CARTESIAN_POINT('',(31.601725109354,-1.21429327507,
    219.25903455498));
#453 = CARTESIAN_POINT('',(31.608508349624,-0.968959769722,
    219.33193539034));
#454 = CARTESIAN_POINT('',(31.612143057314,-0.814340431887,
    219.37047557679));
#455 = CARTESIAN_POINT('',(31.615170709663,-0.655869196766,
    219.40222294113));
#456 = CARTESIAN_POINT('',(31.617509617169,-0.494232660858,
    219.4265570886));
#457 = CARTESIAN_POINT('',(31.619094128148,-0.330293809968,
    219.44297705526));
#458 = CARTESIAN_POINT('',(31.619885803105,-0.165116893589,
    219.45118200876));
#459 = CARTESIAN_POINT('',(31.619885803105,-8.881784197001E-16,
    219.45118200876));
#460 = PCURVE('',#122,#461);
#461 = DEFINITIONAL_REPRESENTATION('',(#462),#543);
#462 = B_SPLINE_CURVE_WITH_KNOTS('',7,(#463,#464,#465,#466,#467,#468,
    #469,#470,#471,#472,#473,#474,#475,#476,#477,#478,#479,#480,#481,
    #482,#483,#484,#485,#486,#487,#488,#489,#490,#491,#492,#493,#494,
    #495,#496,#497,#498,#499,#500,#501,#502,#503,#504,#505,#506,#507,
    #508,#509,#510,#511,#512,#513,#514,#515,#516,#517,#518,#519,#520,
    #521,#522,#523,#524,#525,#526,#527,#528,#529,#530,#531,#532,#533,
    #534,#535,#536,#537,#538,#539,#540,#541,#542),.UNSPECIFIED.,.F.,.F.,
  (8,6,6,6,6,6,6,6,6,6,6,6,6,8),(0.,3.531105038142E-02,
    6.120329439034E-02,0.104859895489,0.153657303895,0.207217518884,
    0.325333039435,0.455152324755,0.619362162187,0.76489665223,
    0.834015782083,0.929355567524,0.956737976997,1.),.UNSPECIFIED.);
#463 = CARTESIAN_POINT('',(3.14159265359,3.030776287366));
#464 = CARTESIAN_POINT('',(3.168549675469,3.030776287366));
#465 = CARTESIAN_POINT('',(3.195517683346,3.036204410086));
#466 = CARTESIAN_POINT('',(3.222283394731,3.047068582216));
#467 = CARTESIAN_POINT('',(3.248689240291,3.063104322846));
#468 = CARTESIAN_POINT('',(3.274617651219,3.083887813305));
#469 = CARTESIAN_POINT('',(3.299981496141,3.108920126976));
#470 = CARTESIAN_POINT('',(3.342860956691,3.15877305553));
#471 = CARTESIAN_POINT('',(3.36067503822,3.181880697203));
#472 = CARTESIAN_POINT('',(3.378151776569,3.206819150847));
#473 = CARTESIAN_POINT('',(3.395287471818,3.233408739913));
#474 = CARTESIAN_POINT('',(3.412084824274,3.261482524717));
#475 = CARTESIAN_POINT('',(3.428551899027,3.290892322613));
#476 = CARTESIAN_POINT('',(3.471930047993,3.373146797676));
#477 = CARTESIAN_POINT('',(3.498243059766,3.428201928362));
#478 = CARTESIAN_POINT('',(3.523710514467,3.486095923927));
#479 = CARTESIAN_POINT('',(3.548394324601,3.54635217746));
#480 = CARTESIAN_POINT('',(3.572354612275,3.608590776444));
#481 = CARTESIAN_POINT('',(3.595653637039,3.672523617599));
#482 = CARTESIAN_POINT('',(3.64373373774,3.811092416839));
#483 = CARTESIAN_POINT('',(3.668354531636,3.886068072292));
#484 = CARTESIAN_POINT('',(3.69230228938,3.962578488041));
#485 = CARTESIAN_POINT('',(3.715641722144,4.040383228357));
#486 = CARTESIAN_POINT('',(3.738428067461,4.119291957978));
#487 = CARTESIAN_POINT('',(3.760712000919,4.199157309088));
#488 = CARTESIAN_POINT('',(3.806499965689,4.368469123471));
#489 = CARTESIAN_POINT('',(3.829906776715,4.458074753669));
#490 = CARTESIAN_POINT('',(3.852820630904,4.548538588425));
#491 = CARTESIAN_POINT('',(3.875289232051,4.639736732008));
#492 = CARTESIAN_POINT('',(3.897353225461,4.731568263778));
#493 = CARTESIAN_POINT('',(3.919049017272,4.823952054184));
#494 = CARTESIAN_POINT('',(3.98751602212,5.121639222198));
#495 = CARTESIAN_POINT('',(4.032981045997,5.328785127363));
#496 = CARTESIAN_POINT('',(4.077162822759,5.53760178894));
#497 = CARTESIAN_POINT('',(4.120290002109,5.747614569138));
#498 = CARTESIAN_POINT('',(4.162551973598,5.958462174359));
#499 = CARTESIAN_POINT('',(4.204105895911,6.169892601201));
#500 = CARTESIAN_POINT('',(4.290149402156,6.614593958002));
#501 = CARTESIAN_POINT('',(4.334510924696,6.847896394011));
#502 = CARTESIAN_POINT('',(4.378363454967,7.081392666295));
#503 = CARTESIAN_POINT('',(4.421851589001,7.314858080172));
#504 = CARTESIAN_POINT('',(4.465101421312,7.548097190878));
#505 = CARTESIAN_POINT('',(4.508232481332,7.780939861633));
#506 = CARTESIAN_POINT('',(4.605918412708,8.307081915489));
#507 = CARTESIAN_POINT('',(4.660463605996,8.600005413873));
#508 = CARTESIAN_POINT('',(4.715238841844,8.891732716791));
#509 = CARTESIAN_POINT('',(4.770468162758,9.181943303133));
#510 = CARTESIAN_POINT('',(4.826375619999,9.470277694177));
#511 = CARTESIAN_POINT('',(4.883213046522,9.756338621486));
#512 = CARTESIAN_POINT('',(4.992778917931,10.290817873782));
#513 = CARTESIAN_POINT('',(5.04521709509,10.539707580133));
#514 = CARTESIAN_POINT('',(5.098853336157,10.786145230341));
#515 = CARTESIAN_POINT('',(5.153935548437,11.029729821866));
#516 = CARTESIAN_POINT('',(5.210758851268,11.269868037773));
#517 = CARTESIAN_POINT('',(5.269668899143,11.505793001071));
#518 = CARTESIAN_POINT('',(5.360475321424,11.846053560146));
#519 = CARTESIAN_POINT('',(5.390307220798,11.954411479311));
#520 = CARTESIAN_POINT('',(5.420791423807,12.061454397132));
#521 = CARTESIAN_POINT('',(5.451992628702,12.167031116804));
#522 = CARTESIAN_POINT('',(5.483981265253,12.270948705926));
#523 = CARTESIAN_POINT('',(5.516839698719,12.372969143752));
#524 = CARTESIAN_POINT('',(5.597341715519,12.610504814276));
#525 = CARTESIAN_POINT('',(5.645771708311,12.743768688537));
#526 = CARTESIAN_POINT('',(5.696348675381,12.872209640376));
#527 = CARTESIAN_POINT('',(5.749394697298,12.994714254232));
#528 = CARTESIAN_POINT('',(5.805211348446,13.109458241487));
#529 = CARTESIAN_POINT('',(5.864071901383,13.214052048451));
#530 = CARTESIAN_POINT('',(5.944302993122,13.331502110427));
#531 = CARTESIAN_POINT('',(5.962477994831,13.356588149341));
#532 = CARTESIAN_POINT('',(5.98092924728,13.380471883046));
#533 = CARTESIAN_POINT('',(5.999656481582,13.403062215983));
#534 = CARTESIAN_POINT('',(6.018655749021,13.424262314837));
#535 = CARTESIAN_POINT('',(6.037918834376,13.443972686173));
#536 = CARTESIAN_POINT('',(6.08826297199,13.490724886015));
#537 = CARTESIAN_POINT('',(6.119737232682,13.515406786749));
#538 = CARTESIAN_POINT('',(6.151776029438,13.535714689851));
#539 = CARTESIAN_POINT('',(6.184279910969,13.551267673183));
#540 = CARTESIAN_POINT('',(6.217126561776,13.561757924498));
#541 = CARTESIAN_POINT('',(6.250161928462,13.566999904023));
#542 = CARTESIAN_POINT('',(6.28318530718,13.566999904023));
#543 = ( GEOMETRIC_REPRESENTATION_CONTEXT(2) 
PARAMETRIC_REPRESENTATION_CONTEXT() REPRESENTATION_CONTEXT('2D SPACE',''
  ) );
#544 = PCURVE('',#224,#545);
#545 = DEFINITIONAL_REPRESENTATION('',(#546),#627);
#546 = B_SPLINE_CURVE_WITH_KNOTS('',7,(#547,#548,#549,#550,#551,#552,
    #553,#554,#555,#556,#557,#558,#559,#560,#561,#562,#563,#564,#565,
    #566,#567,#568,#569,#570,#571,#572,#573,#574,#575,#576,#577,#578,
    #579,#580,#581,#582,#583,#584,#585,#586,#587,#588,#589,#590,#591,
    #592,#593,#594,#595,#596,#597,#598,#599,#600,#601,#602,#603,#604,
    #605,#606,#607,#608,#609,#610,#611,#612,#613,#614,#615,#616,#617,
    #618,#619,#620,#621,#622,#623,#624,#625,#626),.UNSPECIFIED.,.F.,.F.,
  (8,6,6,6,6,6,6,6,6,6,6,6,6,8),(0.,3.531105038142E-02,
    6.120329439034E-02,0.104859895489,0.153657303895,0.207217518884,
    0.325333039435,0.455152324755,0.619362162187,0.76489665223,
    0.834015782083,0.929355567524,0.956737976997,1.),.UNSPECIFIED.);
#547 = CARTESIAN_POINT('',(-6.28318530718,-114.9298790294));
#548 = CARTESIAN_POINT('',(-6.278973147878,-114.9298790294));
#549 = CARTESIAN_POINT('',(-6.274759269733,-114.9367147208));
#550 = CARTESIAN_POINT('',(-6.27058179006,-114.9503960035));
#551 = CARTESIAN_POINT('',(-6.266470097848,-114.9705927472));
#552 = CARTESIAN_POINT('',(-6.262446454976,-114.9967764281));
#553 = CARTESIAN_POINT('',(-6.258527178704,-115.0283250471));
#554 = CARTESIAN_POINT('',(-6.251934243852,-115.0911840116));
#555 = CARTESIAN_POINT('',(-6.24920569742,-115.1203278637));
#556 = CARTESIAN_POINT('',(-6.24654024394,-115.1517905771));
#557 = CARTESIAN_POINT('',(-6.243938949669,-115.1853482263));
#558 = CARTESIAN_POINT('',(-6.241401693284,-115.220792808));
#559 = CARTESIAN_POINT('',(-6.238927389827,-115.2579397774));
#560 = CARTESIAN_POINT('',(-6.23244538904,-115.3618801195));
#561 = CARTESIAN_POINT('',(-6.2285521746,-115.4314972125));
#562 = CARTESIAN_POINT('',(-6.224824126438,-115.5047602101));
#563 = CARTESIAN_POINT('',(-6.221251416332,-115.5810764943));
#564 = CARTESIAN_POINT('',(-6.217824163956,-115.6599737352));
#565 = CARTESIAN_POINT('',(-6.214532150601,-115.7410942227));
#566 = CARTESIAN_POINT('',(-6.20782472072,-115.9170861757));
#567 = CARTESIAN_POINT('',(-6.204442056742,-116.0124086901));
#568 = CARTESIAN_POINT('',(-6.201203433644,-116.1097885784));
#569 = CARTESIAN_POINT('',(-6.198098122597,-116.2089284779));
#570 = CARTESIAN_POINT('',(-6.195116899059,-116.3095932538));
#571 = CARTESIAN_POINT('',(-6.192251382734,-116.4116014303));
#572 = CARTESIAN_POINT('',(-6.186467432538,-116.6281229458));
#573 = CARTESIAN_POINT('',(-6.183571638138,-116.7428656842));
#574 = CARTESIAN_POINT('',(-6.180796867128,-116.8588661688));
#575 = CARTESIAN_POINT('',(-6.178135298587,-116.9759728744));
#576 = CARTESIAN_POINT('',(-6.175580303733,-117.0940627593));
#577 = CARTESIAN_POINT('',(-6.173126041706,-117.2130374927));
#578 = CARTESIAN_POINT('',(-6.165565801762,-117.5969830139));
#579 = CARTESIAN_POINT('',(-6.160830346904,-117.865019227));
#580 = CARTESIAN_POINT('',(-6.156505127871,-118.1361388866));
#581 = CARTESIAN_POINT('',(-6.152555869305,-118.4097789494));
#582 = CARTESIAN_POINT('',(-6.148955811178,-118.6855156249));
#583 = CARTESIAN_POINT('',(-6.145685116584,-118.9630623703));
#584 = CARTESIAN_POINT('',(-6.13947899087,-119.5491095359));
#585 = CARTESIAN_POINT('',(-6.136609683597,-119.8578772825));
#586 = CARTESIAN_POINT('',(-6.134100916749,-120.1682686693));
#587 = CARTESIAN_POINT('',(-6.131940801347,-120.4800395822));
#588 = CARTESIAN_POINT('',(-6.130122444785,-120.7929807252));
#589 = CARTESIAN_POINT('',(-6.128642720977,-121.1069134363));
#590 = CARTESIAN_POINT('',(-6.126060495061,-121.8198559813));
#591 = CARTESIAN_POINT('',(-6.125162018506,-122.2193032703));
#592 = CARTESIAN_POINT('',(-6.124808600813,-122.6197525699));
#593 = CARTESIAN_POINT('',(-6.125012674876,-123.0208615446));
#594 = CARTESIAN_POINT('',(-6.125795208106,-123.4222241234));
#595 = CARTESIAN_POINT('',(-6.127187377041,-123.8233654999));
#596 = CARTESIAN_POINT('',(-6.131052400065,-124.578568342));
#597 = CARTESIAN_POINT('',(-6.133383547241,-124.9326407174));
#598 = CARTESIAN_POINT('',(-6.136262805575,-125.2856871044));
#599 = CARTESIAN_POINT('',(-6.139732442653,-125.6371712011));
#600 = CARTESIAN_POINT('',(-6.143847683464,-125.9862543741));
#601 = CARTESIAN_POINT('',(-6.148675392574,-126.3318003725));
#602 = CARTESIAN_POINT('',(-6.157001835336,-126.8339109574));
#603 = CARTESIAN_POINT('',(-6.159866735285,-126.9943974427));
#604 = CARTESIAN_POINT('',(-6.162926475863,-127.1535208347));
#605 = CARTESIAN_POINT('',(-6.166193495226,-127.3110450404));
#606 = CARTESIAN_POINT('',(-6.169681571863,-127.4666661333));
#607 = CARTESIAN_POINT('',(-6.173406569721,-127.6200047453));
#608 = CARTESIAN_POINT('',(-6.182879673753,-127.9783028522));
#609 = CARTESIAN_POINT('',(-6.188848156729,-128.1803616787));
#610 = CARTESIAN_POINT('',(-6.195355412312,-128.3761021569));
#611 = CARTESIAN_POINT('',(-6.20246302382,-128.5637379445));
#612 = CARTESIAN_POINT('',(-6.21023084825,-128.740336934));
#613 = CARTESIAN_POINT('',(-6.218707601915,-128.9019933941));
#614 = CARTESIAN_POINT('',(-6.230601297673,-129.0841148322));
#615 = CARTESIAN_POINT('',(-6.233316145369,-129.1230576469));
#616 = CARTESIAN_POINT('',(-6.23609221877,-129.1601734326));
#617 = CARTESIAN_POINT('',(-6.238929054665,-129.1953139372));
#618 = CARTESIAN_POINT('',(-6.241825428601,-129.2283216044));
#619 = CARTESIAN_POINT('',(-6.244779217628,-129.2590345549));
#620 = CARTESIAN_POINT('',(-6.25253973492,-129.3319353903));
#621 = CARTESIAN_POINT('',(-6.257430426512,-129.3704755767));
#622 = CARTESIAN_POINT('',(-6.262442669658,-129.4022229411));
#623 = CARTESIAN_POINT('',(-6.267554785337,-129.4265570886));
#624 = CARTESIAN_POINT('',(-6.272739544914,-129.4429770552));
#625 = CARTESIAN_POINT('',(-6.277963375177,-129.4511820087));
#626 = CARTESIAN_POINT('',(-6.28318530718,-129.4511820087));
#627 = ( GEOMETRIC_REPRESENTATION_CONTEXT(2) 
PARAMETRIC_REPRESENTATION_CONTEXT() REPRESENTATION_CONTEXT('2D SPACE',''
  ) );
#628 = ADVANCED_FACE('',(#629),#224,.T.);
#629 = FACE_BOUND('',#630,.T.);
#630 = EDGE_LOOP('',(#631,#654,#681,#682,#683,#706,#733,#734));
#631 = ORIENTED_EDGE('',*,*,#632,.T.);
#632 = EDGE_CURVE('',#22,#633,#635,.T.);
#633 = VERTEX_POINT('',#634);
#634 = CARTESIAN_POINT('',(30.3,-7.421359602833E-15,270.));
#635 = SEAM_CURVE('',#636,(#640,#647),.PCURVE_S1.);
#636 = LINE('',#637,#638);
#637 = CARTESIAN_POINT('',(35.,-8.572527594031E-15,90.));
#638 = VECTOR('',#639,1.);
#639 = DIRECTION('',(-2.610221451123E-02,6.393198690367E-18,
    0.999659279153));
#640 = PCURVE('',#224,#641);
#641 = DEFINITIONAL_REPRESENTATION('',(#642),#646);
#642 = LINE('',#643,#644);
#643 = CARTESIAN_POINT('',(-6.28318530718,0.));
#644 = VECTOR('',#645,1.);
#645 = DIRECTION('',(-0.,-1.));
#646 = ( GEOMETRIC_REPRESENTATION_CONTEXT(2) 
PARAMETRIC_REPRESENTATION_CONTEXT() REPRESENTATION_CONTEXT('2D SPACE',''
  ) );
#647 = PCURVE('',#224,#648);
#648 = DEFINITIONAL_REPRESENTATION('',(#649),#653);
#649 = LINE('',#650,#651);
#650 = CARTESIAN_POINT('',(0.,-0.));
#651 = VECTOR('',#652,1.);
#652 = DIRECTION('',(-0.,-1.));
#653 = ( GEOMETRIC_REPRESENTATION_CONTEXT(2) 
PARAMETRIC_REPRESENTATION_CONTEXT() REPRESENTATION_CONTEXT('2D SPACE',''
  ) );
#654 = ORIENTED_EDGE('',*,*,#655,.F.);
#655 = EDGE_CURVE('',#633,#633,#656,.T.);
#656 = SURFACE_CURVE('',#657,(#662,#669),.PCURVE_S1.);
#657 = CIRCLE('',#658,30.3);
#658 = AXIS2_PLACEMENT_3D('',#659,#660,#661);
#659 = CARTESIAN_POINT('',(0.,0.,270.));
#660 = DIRECTION('',(0.,0.,1.));
#661 = DIRECTION('',(1.,0.,-0.));
#662 = PCURVE('',#224,#663);
#663 = DEFINITIONAL_REPRESENTATION('',(#664),#668);
#664 = LINE('',#665,#666);
#665 = CARTESIAN_POINT('',(-0.,-180.));
#666 = VECTOR('',#667,1.);
#667 = DIRECTION('',(-1.,-0.));
#668 = ( GEOMETRIC_REPRESENTATION_CONTEXT(2) 
PARAMETRIC_REPRESENTATION_CONTEXT() REPRESENTATION_CONTEXT('2D SPACE',''
  ) );
#669 = PCURVE('',#670,#675);
#670 = PLANE('',#671);
#671 = AXIS2_PLACEMENT_3D('',#672,#673,#674);
#672 = CARTESIAN_POINT('',(0.,0.,270.));
#673 = DIRECTION('',(0.,0.,1.));
#674 = DIRECTION('',(1.,0.,-0.));
#675 = DEFINITIONAL_REPRESENTATION('',(#676),#680);
#676 = CIRCLE('',#677,30.3);
#677 = AXIS2_PLACEMENT_2D('',#678,#679);
#678 = CARTESIAN_POINT('',(0.,0.));
#679 = DIRECTION('',(1.,0.));
#680 = ( GEOMETRIC_REPRESENTATION_CONTEXT(2) 
PARAMETRIC_REPRESENTATION_CONTEXT() REPRESENTATION_CONTEXT('2D SPACE',''
  ) );
#681 = ORIENTED_EDGE('',*,*,#632,.F.);
#682 = ORIENTED_EDGE('',*,*,#21,.T.);
#683 = ORIENTED_EDGE('',*,*,#684,.F.);
#684 = EDGE_CURVE('',#685,#24,#687,.T.);
#685 = VERTEX_POINT('',#686);
#686 = CARTESIAN_POINT('',(35.,-8.572527594031E-15,90.));
#687 = SEAM_CURVE('',#688,(#692,#699),.PCURVE_S1.);
#688 = LINE('',#689,#690);
#689 = CARTESIAN_POINT('',(35.,-8.572527594031E-15,90.));
#690 = VECTOR('',#691,1.);
#691 = DIRECTION('',(-2.610221451123E-02,6.393198690367E-18,
    0.999659279153));
#692 = PCURVE('',#224,#693);
#693 = DEFINITIONAL_REPRESENTATION('',(#694),#698);
#694 = LINE('',#695,#696);
#695 = CARTESIAN_POINT('',(-6.28318530718,0.));
#696 = VECTOR('',#697,1.);
#697 = DIRECTION('',(-0.,-1.));
#698 = ( GEOMETRIC_REPRESENTATION_CONTEXT(2) 
PARAMETRIC_REPRESENTATION_CONTEXT() REPRESENTATION_CONTEXT('2D SPACE',''
  ) );
#699 = PCURVE('',#224,#700);
#700 = DEFINITIONAL_REPRESENTATION('',(#701),#705);
#701 = LINE('',#702,#703);
#702 = CARTESIAN_POINT('',(0.,-0.));
#703 = VECTOR('',#704,1.);
#704 = DIRECTION('',(-0.,-1.));
#705 = ( GEOMETRIC_REPRESENTATION_CONTEXT(2) 
PARAMETRIC_REPRESENTATION_CONTEXT() REPRESENTATION_CONTEXT('2D SPACE',''
  ) );
#706 = ORIENTED_EDGE('',*,*,#707,.T.);
#707 = EDGE_CURVE('',#685,#685,#708,.T.);
#708 = SURFACE_CURVE('',#709,(#714,#721),.PCURVE_S1.);
#709 = CIRCLE('',#710,35.);
#710 = AXIS2_PLACEMENT_3D('',#711,#712,#713);
#711 = CARTESIAN_POINT('',(0.,0.,90.));
#712 = DIRECTION('',(0.,0.,1.));
#713 = DIRECTION('',(1.,0.,-0.));
#714 = PCURVE('',#224,#715);
#715 = DEFINITIONAL_REPRESENTATION('',(#716),#720);
#716 = LINE('',#717,#718);
#717 = CARTESIAN_POINT('',(-0.,-0.));
#718 = VECTOR('',#719,1.);
#719 = DIRECTION('',(-1.,-0.));
#720 = ( GEOMETRIC_REPRESENTATION_CONTEXT(2) 
PARAMETRIC_REPRESENTATION_CONTEXT() REPRESENTATION_CONTEXT('2D SPACE',''
  ) );
#721 = PCURVE('',#722,#727);
#722 = PLANE('',#723);
#723 = AXIS2_PLACEMENT_3D('',#724,#725,#726);
#724 = CARTESIAN_POINT('',(0.,0.,90.));
#725 = DIRECTION('',(0.,0.,1.));
#726 = DIRECTION('',(1.,0.,-0.));
#727 = DEFINITIONAL_REPRESENTATION('',(#728),#732);
#728 = CIRCLE('',#729,35.);
#729 = AXIS2_PLACEMENT_2D('',#730,#731);
#730 = CARTESIAN_POINT('',(0.,0.));
#731 = DIRECTION('',(1.,0.));
#732 = ( GEOMETRIC_REPRESENTATION_CONTEXT(2) 
PARAMETRIC_REPRESENTATION_CONTEXT() REPRESENTATION_CONTEXT('2D SPACE',''
  ) );
#733 = ORIENTED_EDGE('',*,*,#684,.T.);
#734 = ORIENTED_EDGE('',*,*,#377,.T.);
#735 = ADVANCED_FACE('',(#736),#364,.F.);
#736 = FACE_BOUND('',#737,.T.);
#737 = EDGE_LOOP('',(#738));
#738 = ORIENTED_EDGE('',*,*,#349,.F.);
#739 = ADVANCED_FACE('',(#740),#722,.F.);
#740 = FACE_BOUND('',#741,.T.);
#741 = EDGE_LOOP('',(#742));
#742 = ORIENTED_EDGE('',*,*,#707,.F.);
#743 = ADVANCED_FACE('',(#744),#670,.T.);
#744 = FACE_BOUND('',#745,.T.);
#745 = EDGE_LOOP('',(#746));
#746 = ORIENTED_EDGE('',*,*,#655,.T.);
#747 = ( GEOMETRIC_REPRESENTATION_CONTEXT(3) 
GLOBAL_UNCERTAINTY_ASSIGNED_CONTEXT((#751)) GLOBAL_UNIT_ASSIGNED_CONTEXT
((#748,#749,#750)) REPRESENTATION_CONTEXT('Context #1',
  '3D Context with UNIT and UNCERTAINTY') );
#748 = ( LENGTH_UNIT() NAMED_UNIT(*) SI_UNIT(.MILLI.,.METRE.) );
#749 = ( NAMED_UNIT(*) PLANE_ANGLE_UNIT() SI_UNIT($,.RADIAN.) );
#750 = ( NAMED_UNIT(*) SI_UNIT($,.STERADIAN.) SOLID_ANGLE_UNIT() );
#751 = UNCERTAINTY_MEASURE_WITH_UNIT(LENGTH_MEASURE(1.E-07),#748,
  'distance_accuracy_value','confusion accuracy');
#752 = PRODUCT_RELATED_PRODUCT_CATEGORY('part',$,(#7));
ENDSEC;
END-ISO-10303-21;
