ISO-10303-21;
HEADER;
FILE_DESCRIPTION(('Open CASCADE Model'),'2;1');
FILE_NAME('Open CASCADE Shape Model','2026-03-24T16:58:50',('Author'),(
    'Open CASCADE'),'Open CASCADE STEP processor 7.7','Open CASCADE 7.7'
  ,'Unknown');
FILE_SCHEMA(('AUTOMOTIVE_DESIGN { 1 0 10303 214 1 1 1 1 }'));
ENDSEC;
DATA;
#1 = APPLICATION_PROTOCOL_DEFINITION('international standard',
  'automotive_design',2000,#2);
#2 = APPLICATION_CONTEXT(
  'core data for automotive mechanical design processes');
#3 = SHAPE_DEFINITION_REPRESENTATION(#4,#10);
#4 = PRODUCT_DEFINITION_SHAPE('','',#5);
#5 = PRODUCT_DEFINITION('design','',#6,#9);
#6 = PRODUCT_DEFINITION_FORMATION('','',#7);
#7 = PRODUCT('Open CASCADE STEP translator 7.7 1',
  'Open CASCADE STEP translator 7.7 1','',(#8));
#8 = PRODUCT_CONTEXT('',#2,'mechanical');
#9 = PRODUCT_DEFINITION_CONTEXT('part definition',#2,'design');
#10 = SHAPE_REPRESENTATION('',(#11,#15),#19);
#11 = AXIS2_PLACEMENT_3D('',#12,#13,#14);
#12 = CARTESIAN_POINT('',(0.,0.,0.));
#13 = DIRECTION('',(0.,0.,1.));
#14 = DIRECTION('',(1.,0.,-0.));
#15 = AXIS2_PLACEMENT_3D('',#16,#17,#18);
#16 = CARTESIAN_POINT('',(0.,0.,0.));
#17 = DIRECTION('',(0.,0.,1.));
#18 = DIRECTION('',(1.,0.,-0.));
#19 = ( GEOMETRIC_REPRESENTATION_CONTEXT(3) 
GLOBAL_UNCERTAINTY_ASSIGNED_CONTEXT((#23)) GLOBAL_UNIT_ASSIGNED_CONTEXT(
(#20,#21,#22)) REPRESENTATION_CONTEXT('Context #1',
  '3D Context with UNIT and UNCERTAINTY') );
#20 = ( LENGTH_UNIT() NAMED_UNIT(*) SI_UNIT(.MILLI.,.METRE.) );
#21 = ( NAMED_UNIT(*) PLANE_ANGLE_UNIT() SI_UNIT($,.RADIAN.) );
#22 = ( NAMED_UNIT(*) SI_UNIT($,.STERADIAN.) SOLID_ANGLE_UNIT() );
#23 = UNCERTAINTY_MEASURE_WITH_UNIT(LENGTH_MEASURE(1.E-07),#20,
  'distance_accuracy_value','confusion accuracy');
#24 = PRODUCT_RELATED_PRODUCT_CATEGORY('part',$,(#7));
#25 = SHAPE_DEFINITION_REPRESENTATION(#26,#32);
#26 = PRODUCT_DEFINITION_SHAPE('','',#27);
#27 = PRODUCT_DEFINITION('design','',#28,#31);
#28 = PRODUCT_DEFINITION_FORMATION('','',#29);
#29 = PRODUCT('Open CASCADE STEP translator 7.7 1.1',
  'Open CASCADE STEP translator 7.7 1.1','',(#30));
#30 = PRODUCT_CONTEXT('',#2,'mechanical');
#31 = PRODUCT_DEFINITION_CONTEXT('part definition',#2,'design');
#32 = SHAPE_REPRESENTATION('',(#11,#33,#37),#41);
#33 = AXIS2_PLACEMENT_3D('',#34,#35,#36);
#34 = CARTESIAN_POINT('',(0.,0.,0.));
#35 = DIRECTION('',(0.,0.,1.));
#36 = DIRECTION('',(1.,0.,-0.));
#37 = AXIS2_PLACEMENT_3D('',#38,#39,#40);
#38 = CARTESIAN_POINT('',(0.,0.,0.));
#39 = DIRECTION('',(0.,0.,1.));
#40 = DIRECTION('',(1.,0.,-0.));
#41 = ( GEOMETRIC_REPRESENTATION_CONTEXT(3) 
GLOBAL_UNCERTAINTY_ASSIGNED_CONTEXT((#45)) GLOBAL_UNIT_ASSIGNED_CONTEXT(
(#42,#43,#44)) REPRESENTATION_CONTEXT('Context #1',
  '3D Context with UNIT and UNCERTAINTY') );
#42 = ( LENGTH_UNIT() NAMED_UNIT(*) SI_UNIT(.MILLI.,.METRE.) );
#43 = ( NAMED_UNIT(*) PLANE_ANGLE_UNIT() SI_UNIT($,.RADIAN.) );
#44 = ( NAMED_UNIT(*) SI_UNIT($,.STERADIAN.) SOLID_ANGLE_UNIT() );
#45 = UNCERTAINTY_MEASURE_WITH_UNIT(LENGTH_MEASURE(1.E-07),#42,
  'distance_accuracy_value','confusion accuracy');
#46 = CONTEXT_DEPENDENT_SHAPE_REPRESENTATION(#47,#49);
#47 = ( REPRESENTATION_RELATIONSHIP('','',#32,#10) 
REPRESENTATION_RELATIONSHIP_WITH_TRANSFORMATION(#48) 
SHAPE_REPRESENTATION_RELATIONSHIP() );
#48 = ITEM_DEFINED_TRANSFORMATION('','',#11,#15);
#49 = PRODUCT_DEFINITION_SHAPE('Placement','Placement of an item',#50);
#50 = NEXT_ASSEMBLY_USAGE_OCCURRENCE('3','','',#5,#27,$);
#51 = PRODUCT_RELATED_PRODUCT_CATEGORY('part',$,(#29));
#52 = SHAPE_DEFINITION_REPRESENTATION(#53,#59);
#53 = PRODUCT_DEFINITION_SHAPE('','',#54);
#54 = PRODUCT_DEFINITION('design','',#55,#58);
#55 = PRODUCT_DEFINITION_FORMATION('','',#56);
#56 = PRODUCT('Open CASCADE STEP translator 7.7 1.1.1',
  'Open CASCADE STEP translator 7.7 1.1.1','',(#57));
#57 = PRODUCT_CONTEXT('',#2,'mechanical');
#58 = PRODUCT_DEFINITION_CONTEXT('part definition',#2,'design');
#59 = ADVANCED_BREP_SHAPE_REPRESENTATION('',(#11,#60),#658);
#60 = MANIFOLD_SOLID_BREP('',#61);
#61 = CLOSED_SHELL('',(#62,#482,#621,#625,#649,#654));
#62 = ADVANCED_FACE('',(#63),#77,.T.);
#63 = FACE_BOUND('',#64,.T.);
#64 = EDGE_LOOP('',(#65,#95,#122,#123));
#65 = ORIENTED_EDGE('',*,*,#66,.T.);
#66 = EDGE_CURVE('',#67,#69,#71,.T.);
#67 = VERTEX_POINT('',#68);
#68 = CARTESIAN_POINT('',(4.,37.34,148.));
#69 = VERTEX_POINT('',#70);
#70 = CARTESIAN_POINT('',(4.,44.973300858899,155.63330085889));
#71 = SEAM_CURVE('',#72,(#76,#88),.PCURVE_S1.);
#72 = LINE('',#73,#74);
#73 = CARTESIAN_POINT('',(4.,34.366699141101,145.0266991411));
#74 = VECTOR('',#75,1.);
#75 = DIRECTION('',(0.,0.707106781187,0.707106781187));
#76 = PCURVE('',#77,#82);
#77 = CYLINDRICAL_SURFACE('',#78,4.);
#78 = AXIS2_PLACEMENT_3D('',#79,#80,#81);
#79 = CARTESIAN_POINT('',(0.,34.366699141101,145.0266991411));
#80 = DIRECTION('',(0.,0.707106781187,0.707106781187));
#81 = DIRECTION('',(1.,0.,0.));
#82 = DEFINITIONAL_REPRESENTATION('',(#83),#87);
#83 = LINE('',#84,#85);
#84 = CARTESIAN_POINT('',(6.28318530718,-0.));
#85 = VECTOR('',#86,1.);
#86 = DIRECTION('',(0.,1.));
#87 = ( GEOMETRIC_REPRESENTATION_CONTEXT(2) 
PARAMETRIC_REPRESENTATION_CONTEXT() REPRESENTATION_CONTEXT('2D SPACE',''
  ) );
#88 = PCURVE('',#77,#89);
#89 = DEFINITIONAL_REPRESENTATION('',(#90),#94);
#90 = LINE('',#91,#92);
#91 = CARTESIAN_POINT('',(0.,-0.));
#92 = VECTOR('',#93,1.);
#93 = DIRECTION('',(0.,1.));
#94 = ( GEOMETRIC_REPRESENTATION_CONTEXT(2) 
PARAMETRIC_REPRESENTATION_CONTEXT() REPRESENTATION_CONTEXT('2D SPACE',''
  ) );
#95 = ORIENTED_EDGE('',*,*,#96,.F.);
#96 = EDGE_CURVE('',#69,#69,#97,.T.);
#97 = SURFACE_CURVE('',#98,(#103,#110),.PCURVE_S1.);
#98 = CIRCLE('',#99,4.);
#99 = AXIS2_PLACEMENT_3D('',#100,#101,#102);
#100 = CARTESIAN_POINT('',(0.,44.973300858899,155.63330085889));
#101 = DIRECTION('',(-0.,0.707106781187,0.707106781187));
#102 = DIRECTION('',(1.,0.,0.));
#103 = PCURVE('',#77,#104);
#104 = DEFINITIONAL_REPRESENTATION('',(#105),#109);
#105 = LINE('',#106,#107);
#106 = CARTESIAN_POINT('',(0.,15.));
#107 = VECTOR('',#108,1.);
#108 = DIRECTION('',(1.,0.));
#109 = ( GEOMETRIC_REPRESENTATION_CONTEXT(2) 
PARAMETRIC_REPRESENTATION_CONTEXT() REPRESENTATION_CONTEXT('2D SPACE',''
  ) );
#110 = PCURVE('',#111,#116);
#111 = PLANE('',#112);
#112 = AXIS2_PLACEMENT_3D('',#113,#114,#115);
#113 = CARTESIAN_POINT('',(0.,44.973300858899,155.63330085889));
#114 = DIRECTION('',(0.,0.707106781187,0.707106781187));
#115 = DIRECTION('',(1.,0.,0.));
#116 = DEFINITIONAL_REPRESENTATION('',(#117),#121);
#117 = CIRCLE('',#118,4.);
#118 = AXIS2_PLACEMENT_2D('',#119,#120);
#119 = CARTESIAN_POINT('',(0.,0.));
#120 = DIRECTION('',(1.,0.));
#121 = ( GEOMETRIC_REPRESENTATION_CONTEXT(2) 
PARAMETRIC_REPRESENTATION_CONTEXT() REPRESENTATION_CONTEXT('2D SPACE',''
  ) );
#122 = ORIENTED_EDGE('',*,*,#66,.F.);
#123 = ORIENTED_EDGE('',*,*,#124,.T.);
#124 = EDGE_CURVE('',#67,#67,#125,.T.);
#125 = SURFACE_CURVE('',#126,(#241,#359),.PCURVE_S1.);
#126 = B_SPLINE_CURVE_WITH_KNOTS('',8,(#127,#128,#129,#130,#131,#132,
    #133,#134,#135,#136,#137,#138,#139,#140,#141,#142,#143,#144,#145,
    #146,#147,#148,#149,#150,#151,#152,#153,#154,#155,#156,#157,#158,
    #159,#160,#161,#162,#163,#164,#165,#166,#167,#168,#169,#170,#171,
    #172,#173,#174,#175,#176,#177,#178,#179,#180,#181,#182,#183,#184,
    #185,#186,#187,#188,#189,#190,#191,#192,#193,#194,#195,#196,#197,
    #198,#199,#200,#201,#202,#203,#204,#205,#206,#207,#208,#209,#210,
    #211,#212,#213,#214,#215,#216,#217,#218,#219,#220,#221,#222,#223,
    #224,#225,#226,#227,#228,#229,#230,#231,#232,#233,#234,#235,#236,
    #237,#238,#239,#240),.UNSPECIFIED.,.T.,.F.,(9,7,7,7,7,7,7,7,7,7,7,7,
    7,7,7,7,9),(0.,0.127112718442,0.271939669694,0.31927941225,
    0.367036872779,0.432797974408,0.543194859602,0.652995023803,
    0.689019695039,0.73241267898,0.768199184332,0.80659689742,
    0.827223296726,0.857592063741,0.886248537395,0.922023841777,1.),
  .UNSPECIFIED.);
#127 = CARTESIAN_POINT('',(4.,37.34,148.));
#128 = CARTESIAN_POINT('',(4.,37.73972341668,148.));
#129 = CARTESIAN_POINT('',(3.977174544439,38.139920911652,
    148.03043361828));
#130 = CARTESIAN_POINT('',(3.937510422292,38.536756444813,
    148.08332112001));
#131 = CARTESIAN_POINT('',(3.88431834343,38.926720793791,148.15153586895
    ));
#132 = CARTESIAN_POINT('',(3.819849094313,39.308429442736,148.2302471122
    ));
#133 = CARTESIAN_POINT('',(3.745001539371,39.683612524599,
    148.31681566154));
#134 = CARTESIAN_POINT('',(3.659026366591,40.056865804831,
    148.41054420091));
#135 = CARTESIAN_POINT('',(3.445006722021,40.863734021885,
    148.62743191726));
#136 = CARTESIAN_POINT('',(3.317992883631,41.278819545042,
    148.74757814242));
#137 = CARTESIAN_POINT('',(3.176470829555,41.687297736211,
    148.87155648089));
#138 = CARTESIAN_POINT('',(3.016855990839,42.09551509159,149.00025041944
    ));
#139 = CARTESIAN_POINT('',(2.834655616592,42.505642658139,
    149.13367234239));
#140 = CARTESIAN_POINT('',(2.624968353465,42.914646979887,
    149.27030352268));
#141 = CARTESIAN_POINT('',(2.382771801637,43.313776479678,149.4064801866
    ));
#142 = CARTESIAN_POINT('',(2.012407321679,43.809405639237,
    149.57824547868));
#143 = CARTESIAN_POINT('',(1.917388926853,43.928546308726,
    149.61976410858));
#144 = CARTESIAN_POINT('',(1.817219909875,44.045858636263,
    149.66084800749));
#145 = CARTESIAN_POINT('',(1.710564125747,44.161760822872,
    149.70162727107));
#146 = CARTESIAN_POINT('',(1.596166067978,44.27592487351,149.74197381838
    ));
#147 = CARTESIAN_POINT('',(1.472883946929,44.387251830592,
    149.78148172263));
#148 = CARTESIAN_POINT('',(1.339709573024,44.493858753656,
    149.81945559281));
#149 = CARTESIAN_POINT('',(1.050570462414,44.693171625805,
    149.89067123762));
#150 = CARTESIAN_POINT('',(0.870633376766,44.802141344925,
    149.92972613952));
#151 = CARTESIAN_POINT('',(0.665904817921,44.901126377347,149.9653668259
    ));
#152 = CARTESIAN_POINT('',(0.442879304125,44.976367931915,
    149.99258071048));
#153 = CARTESIAN_POINT('',(0.208342567816,45.018756507595,
    150.00793075188));
#154 = CARTESIAN_POINT('',(-3.14285145418E-02,45.023816791256,
    150.00974637665));
#155 = CARTESIAN_POINT('',(-0.270069102203,44.991673622657,
    149.99810852077));
#156 = CARTESIAN_POINT('',(-0.819778768564,44.838067618958,
    149.9427118432));
#157 = CARTESIAN_POINT('',(-1.098685120127,44.694638749863,
    149.89107196541));
#158 = CARTESIAN_POINT('',(-1.340076480908,44.522361435373,149.829302106
    ));
#159 = CARTESIAN_POINT('',(-1.548411103037,44.33871457947,
    149.76392738163));
#160 = CARTESIAN_POINT('',(-1.729427685993,44.15366296704,
    149.69851843455));
#161 = CARTESIAN_POINT('',(-1.890251432598,43.969442863878,
    149.63385930206));
#162 = CARTESIAN_POINT('',(-2.039621598156,43.780447141435,
    149.56797771143));
#163 = CARTESIAN_POINT('',(-2.431635998577,43.228114008679,
    149.37741515692));
#164 = CARTESIAN_POINT('',(-2.647528351782,42.863445804743,
    149.25350388642));
#165 = CARTESIAN_POINT('',(-2.837096408242,42.491084182808,
    149.12945600506));
#166 = CARTESIAN_POINT('',(-3.004125237366,42.117148706598,
    149.00786693237));
#167 = CARTESIAN_POINT('',(-3.152304219751,41.743804672761,
    148.88988768119));
#168 = CARTESIAN_POINT('',(-3.285018858528,41.369652873424,
    148.77561868356));
#169 = CARTESIAN_POINT('',(-3.405021284089,40.990413432015,
    148.6645846537));
#170 = CARTESIAN_POINT('',(-3.62186261414,40.212503349663,
    148.45039274352));
#171 = CARTESIAN_POINT('',(-3.714727494533,39.828641922721,
    148.35124159224));
#172 = CARTESIAN_POINT('',(-3.795690984286,39.442915187581,
    148.2591981788));
#173 = CARTESIAN_POINT('',(-3.865729207772,39.050499098523,
    148.17486422286));
#174 = CARTESIAN_POINT('',(-3.924074422824,38.649449885688,
    148.10082133343));
#175 = CARTESIAN_POINT('',(-3.968488487874,38.24114564766,
    148.04198751072));
#176 = CARTESIAN_POINT('',(-3.995678853354,37.829368512738,
    148.00576008462));
#177 = CARTESIAN_POINT('',(-4.000916319823,37.28333012313,
    147.99877862645));
#178 = CARTESIAN_POINT('',(-3.999715295274,37.147706759787,
    148.00037753895));
#179 = CARTESIAN_POINT('',(-3.99575632368,37.011402536873,
    148.00566384002));
#180 = CARTESIAN_POINT('',(-3.988721741957,36.874502356469,
    148.01504087041));
#181 = CARTESIAN_POINT('',(-3.978232321819,36.737116971427,
    148.02894953061));
#182 = CARTESIAN_POINT('',(-3.96383122467,36.599373857354,
    148.04786084197));
#183 = CARTESIAN_POINT('',(-3.944958868558,36.461409216905,
    148.07226307839));
#184 = CARTESIAN_POINT('',(-3.891961486997,36.157077322418,
    148.13923771692));
#185 = CARTESIAN_POINT('',(-3.855301332652,35.989497063272,
    148.18476438401));
#186 = CARTESIAN_POINT('',(-3.809829927944,35.822556537048,
    148.23991451629));
#187 = CARTESIAN_POINT('',(-3.754421239603,35.657763120848,
    148.30503434581));
#188 = CARTESIAN_POINT('',(-3.6879182799,35.496292197556,148.38004157704
    ));
#189 = CARTESIAN_POINT('',(-3.609155624432,35.339088791158,
    148.46436242891));
#190 = CARTESIAN_POINT('',(-3.517036723662,35.186968320271,
    148.55690967466));
#191 = CARTESIAN_POINT('',(-3.322976055405,34.920091135837,
    148.73794297536));
#192 = CARTESIAN_POINT('',(-3.226162876868,34.804251579308,
    148.82375902148));
#193 = CARTESIAN_POINT('',(-3.119988373995,34.693552422716,
    148.91258174523));
#194 = CARTESIAN_POINT('',(-3.004333712405,34.588319687296,
    149.00323620319));
#195 = CARTESIAN_POINT('',(-2.879265942597,34.48886028633,
    149.09442015581));
#196 = CARTESIAN_POINT('',(-2.745070804487,34.395465827908,
    149.18477173568));
#197 = CARTESIAN_POINT('',(-2.602270754418,34.308405036909,
    149.27294545268));
#198 = CARTESIAN_POINT('',(-2.289993850891,34.141530753347,
    149.44863158896));
#199 = CARTESIAN_POINT('',(-2.118914295013,34.062487359377,
    149.53586033394));
#200 = CARTESIAN_POINT('',(-1.938936369468,33.990955036341,
    149.6179817213));
#201 = CARTESIAN_POINT('',(-1.750750177001,33.927099506633,
    149.69370260161));
#202 = CARTESIAN_POINT('',(-1.555172596905,33.871078094275,
    149.76186972653));
#203 = CARTESIAN_POINT('',(-1.353129569219,33.823041679852,
    149.82149263372));
#204 = CARTESIAN_POINT('',(-1.145637166822,33.783132309095,
    149.87175741555));
#205 = CARTESIAN_POINT('',(-0.819977268997,33.734471632889,
    149.93366564666));
#206 = CARTESIAN_POINT('',(-0.704936313718,33.719851921603,
    149.95241273314));
#207 = CARTESIAN_POINT('',(-0.588855802665,33.707639312433,
    149.96817160563));
#208 = CARTESIAN_POINT('',(-0.471936534189,33.697851345948,
    149.98086102484));
#209 = CARTESIAN_POINT('',(-0.354382653743,33.690501197889,
    149.99041968226));
#210 = CARTESIAN_POINT('',(-0.236401415706,33.685597764939,
    149.99680634488));
#211 = CARTESIAN_POINT('',(-0.118202945218,33.683145750508,150.));
#212 = CARTESIAN_POINT('',(0.174033172271,33.683145750508,150.));
#213 = CARTESIAN_POINT('',(0.348027576427,33.688461049562,
    149.99307733953));
#214 = CARTESIAN_POINT('',(0.521323072009,33.699087039263,
    149.97923678051));
#215 = CARTESIAN_POINT('',(0.693263395044,33.715001578835,
    149.95857751407));
#216 = CARTESIAN_POINT('',(0.863204520931,33.736164926855,149.9312908056
    ));
#217 = CARTESIAN_POINT('',(1.030523027333,33.762519672985,
    149.89765763968));
#218 = CARTESIAN_POINT('',(1.194624457064,33.7939906697,149.85804636516)
  );
#219 = CARTESIAN_POINT('',(1.506239116062,33.864921587108,
    149.77031923621));
#220 = CARTESIAN_POINT('',(1.654194449458,33.903837312295,
    149.72280053783));
#221 = CARTESIAN_POINT('',(1.798415464522,33.947172076065,
    149.67071218117));
#222 = CARTESIAN_POINT('',(1.938527915604,33.99486329892,149.61446380808
    ));
#223 = CARTESIAN_POINT('',(2.074190019776,34.04684722435,149.55451457701
    ));
#224 = CARTESIAN_POINT('',(2.205096610197,34.103059425019,
    149.49136906104));
#225 = CARTESIAN_POINT('',(2.330982951134,34.163434476163,
    149.42557123269));
#226 = CARTESIAN_POINT('',(2.602244130416,34.308390809596,
    149.27296043127));
#227 = CARTESIAN_POINT('',(2.745020177221,34.395434972535,
    149.18480298778));
#228 = CARTESIAN_POINT('',(2.879194461722,34.488810556844,
    149.09446827236));
#229 = CARTESIAN_POINT('',(3.004244817124,34.58824900787,149.00330100927
    ));
#230 = CARTESIAN_POINT('',(3.119885599816,34.693458910042,
    148.91266230423));
#231 = CARTESIAN_POINT('',(3.226049700474,34.804133566747,
    148.82385370555));
#232 = CARTESIAN_POINT('',(3.322855769591,34.919947194491,148.738049602)
  );
#233 = CARTESIAN_POINT('',(3.601722978132,35.303384252129,
    148.47792060023));
#234 = CARTESIAN_POINT('',(3.742573260241,35.579201880996,
    148.32517425619));
#235 = CARTESIAN_POINT('',(3.844235759608,35.865250830948,
    148.20312249312));
#236 = CARTESIAN_POINT('',(3.915143819622,36.159644090707,
    148.11245070636));
#237 = CARTESIAN_POINT('',(3.9616657284,36.459655542879,148.05111783912)
  );
#238 = CARTESIAN_POINT('',(3.988567436774,36.760913101922,
    148.01524221884));
#239 = CARTESIAN_POINT('',(4.,37.057111118848,148.));
#240 = CARTESIAN_POINT('',(4.,37.34,148.));
#241 = PCURVE('',#77,#242);
#242 = DEFINITIONAL_REPRESENTATION('',(#243),#358);
#243 = B_SPLINE_CURVE_WITH_KNOTS('',8,(#244,#245,#246,#247,#248,#249,
    #250,#251,#252,#253,#254,#255,#256,#257,#258,#259,#260,#261,#262,
    #263,#264,#265,#266,#267,#268,#269,#270,#271,#272,#273,#274,#275,
    #276,#277,#278,#279,#280,#281,#282,#283,#284,#285,#286,#287,#288,
    #289,#290,#291,#292,#293,#294,#295,#296,#297,#298,#299,#300,#301,
    #302,#303,#304,#305,#306,#307,#308,#309,#310,#311,#312,#313,#314,
    #315,#316,#317,#318,#319,#320,#321,#322,#323,#324,#325,#326,#327,
    #328,#329,#330,#331,#332,#333,#334,#335,#336,#337,#338,#339,#340,
    #341,#342,#343,#344,#345,#346,#347,#348,#349,#350,#351,#352,#353,
    #354,#355,#356,#357),.UNSPECIFIED.,.F.,.F.,(9,7,7,7,7,7,7,7,7,7,7,7,
    7,7,7,7,9),(0.,0.127112718442,0.271939669694,0.31927941225,
    0.367036872779,0.432797974408,0.543194859602,0.652995023803,
    0.689019695039,0.73241267898,0.768199184332,0.80659689742,
    0.827223296726,0.857592063741,0.886248537395,0.922023841777,1.),
  .UNSPECIFIED.);
#244 = CARTESIAN_POINT('',(0.,4.204882399671));
#245 = CARTESIAN_POINT('',(7.066178463343E-02,4.487529538204));
#246 = CARTESIAN_POINT('',(0.136027612638,4.792031718579));
#247 = CARTESIAN_POINT('',(0.197366063053,5.110033926201));
#248 = CARTESIAN_POINT('',(0.25552216213,5.434015473341));
#249 = CARTESIAN_POINT('',(0.311252164026,5.759581501303));
#250 = CARTESIAN_POINT('',(0.36543817149,6.086089210955));
#251 = CARTESIAN_POINT('',(0.41921473462,6.416295222284));
#252 = CARTESIAN_POINT('',(0.53643325488,7.140199985071));
#253 = CARTESIAN_POINT('',(0.597317321661,7.518665983814));
#254 = CARTESIAN_POINT('',(0.658585047018,7.895169606611));
#255 = CARTESIAN_POINT('',(0.721801703876,8.274823223445));
#256 = CARTESIAN_POINT('',(0.788270356681,8.659170753377));
#257 = CARTESIAN_POINT('',(0.859020139333,9.044993316926));
#258 = CARTESIAN_POINT('',(0.934966131195,9.423511935297));
#259 = CARTESIAN_POINT('',(1.043827783748,9.895431077776));
#260 = CARTESIAN_POINT('',(1.071248519753,10.009034357836));
#261 = CARTESIAN_POINT('',(1.099663999608,10.121037403673));
#262 = CARTESIAN_POINT('',(1.12942067682,10.231827919583));
#263 = CARTESIAN_POINT('',(1.160816538248,10.341083411162));
#264 = CARTESIAN_POINT('',(1.194104555583,10.447739764445));
#265 = CARTESIAN_POINT('',(1.22950272849,10.549973823777));
#266 = CARTESIAN_POINT('',(1.305251439333,10.741266372621));
#267 = CARTESIAN_POINT('',(1.351873428654,10.845935585928));
#268 = CARTESIAN_POINT('',(1.404145992465,10.941130344612));
#269 = CARTESIAN_POINT('',(1.460302729927,11.01357728041));
#270 = CARTESIAN_POINT('',(1.518841138146,11.054404648077));
#271 = CARTESIAN_POINT('',(1.578540449766,11.059266649562));
#272 = CARTESIAN_POINT('',(1.638184555378,11.028308790267));
#273 = CARTESIAN_POINT('',(1.776704241064,10.88052157705));
#274 = CARTESIAN_POINT('',(1.847914876762,10.742587143329));
#275 = CARTESIAN_POINT('',(1.911021485023,10.577090799548));
#276 = CARTESIAN_POINT('',(1.966935922677,10.401005951477));
#277 = CARTESIAN_POINT('',(2.016764123678,10.223903591432));
#278 = CARTESIAN_POINT('',(2.062111771783,10.0479193962));
#279 = CARTESIAN_POINT('',(2.105278660511,9.867693919759));
#280 = CARTESIAN_POINT('',(2.222302767478,9.34238734158));
#281 = CARTESIAN_POINT('',(2.290762169775,8.996909482052));
#282 = CARTESIAN_POINT('',(2.355040863005,8.645894956035));
#283 = CARTESIAN_POINT('',(2.415857751152,8.295506187254));
#284 = CARTESIAN_POINT('',(2.474019864935,7.94808816067));
#285 = CARTESIAN_POINT('',(2.53051117574,7.602722503062));
#286 = CARTESIAN_POINT('',(2.586496138607,7.256046806889));
#287 = CARTESIAN_POINT('',(2.699939200106,6.55452476034));
#288 = CARTESIAN_POINT('',(2.755245283788,6.212983290883));
#289 = CARTESIAN_POINT('',(2.810797481365,5.875148778976));
#290 = CARTESIAN_POINT('',(2.867784869405,5.538035589223));
#291 = CARTESIAN_POINT('',(2.927132322043,5.202094742023));
#292 = CARTESIAN_POINT('',(2.989618964246,4.871778251523));
#293 = CARTESIAN_POINT('',(3.056094748523,4.554991188422));
#294 = CARTESIAN_POINT('',(3.151396446673,4.163947103929));
#295 = CARTESIAN_POINT('',(3.175647781179,4.069177505893));
#296 = CARTESIAN_POINT('',(3.200681491411,3.9765338449));
#297 = CARTESIAN_POINT('',(3.226578020785,3.886361360767));
#298 = CARTESIAN_POINT('',(3.253426186104,3.799050131312));
#299 = CARTESIAN_POINT('',(3.281326475947,3.715023357798));
#300 = CARTESIAN_POINT('',(3.310395276878,3.634722611815));
#301 = CARTESIAN_POINT('',(3.377357483189,3.466885686567));
#302 = CARTESIAN_POINT('',(3.416098473905,3.380580763953));
#303 = CARTESIAN_POINT('',(3.456906542505,3.301533018328));
#304 = CARTESIAN_POINT('',(3.49974812669,3.231053149281));
#305 = CARTESIAN_POINT('',(3.544615808059,3.169914086295));
#306 = CARTESIAN_POINT('',(3.591509637528,3.118378337757));
#307 = CARTESIAN_POINT('',(3.640420795905,3.076253706286));
#308 = CARTESIAN_POINT('',(3.733282064847,3.015552913976));
#309 = CARTESIAN_POINT('',(3.776323050509,2.994323086173));
#310 = CARTESIAN_POINT('',(3.820377807003,2.978854112157));
#311 = CARTESIAN_POINT('',(3.865372302864,2.968545713314));
#312 = CARTESIAN_POINT('',(3.911215168149,2.962694087668));
#313 = CARTESIAN_POINT('',(3.957797415189,2.960542447611));
#314 = CARTESIAN_POINT('',(4.004992185537,2.961329405129));
#315 = CARTESIAN_POINT('',(4.103794603618,2.967560325943));
#316 = CARTESIAN_POINT('',(4.155604652723,2.973348243149));
#317 = CARTESIAN_POINT('',(4.208009078644,2.980835842342));
#318 = CARTESIAN_POINT('',(4.260939787022,2.989225912213));
#319 = CARTESIAN_POINT('',(4.314335267733,2.997814227924));
#320 = CARTESIAN_POINT('',(4.368139492494,3.006007115533));
#321 = CARTESIAN_POINT('',(4.422300623249,3.01332949692));
#322 = CARTESIAN_POINT('',(4.506029019971,3.022696932828));
#323 = CARTESIAN_POINT('',(4.535371583482,3.025615427822));
#324 = CARTESIAN_POINT('',(4.564782372914,3.028123014658));
#325 = CARTESIAN_POINT('',(4.594247575188,3.030174651559));
#326 = CARTESIAN_POINT('',(4.623753993001,3.031736303503));
#327 = CARTESIAN_POINT('',(4.653288624687,3.032785105259));
#328 = CARTESIAN_POINT('',(4.68283824408,3.033309524417));
#329 = CARTESIAN_POINT('',(4.755897273453,3.033309524417));
#330 = CARTESIAN_POINT('',(4.799395872461,3.032172948261));
#331 = CARTESIAN_POINT('',(4.842845254146,3.029899904498));
#332 = CARTESIAN_POINT('',(4.886206596141,3.026544875959));
#333 = CARTESIAN_POINT('',(4.929440786276,3.022215006256));
#334 = CARTESIAN_POINT('',(4.972507431891,3.017068386266));
#335 = CARTESIAN_POINT('',(5.015363869136,3.01131234063));
#336 = CARTESIAN_POINT('',(5.098162526862,2.999435625551));
#337 = CARTESIAN_POINT('',(5.138140387957,2.993352404865));
#338 = CARTESIAN_POINT('',(5.177877088777,2.987162679978));
#339 = CARTESIAN_POINT('',(5.217350757394,2.981111861015));
#340 = CARTESIAN_POINT('',(5.256538071955,2.975479539387));
#341 = CARTESIAN_POINT('',(5.295414074974,2.970576945123));
#342 = CARTESIAN_POINT('',(5.333952046713,2.966742462582));
#343 = CARTESIAN_POINT('',(5.419777351568,2.961329936362));
#344 = CARTESIAN_POINT('',(5.466963815564,2.960542728137));
#345 = CARTESIAN_POINT('',(5.513537983455,2.962692947149));
#346 = CARTESIAN_POINT('',(5.559373076519,2.968541560226));
#347 = CARTESIAN_POINT('',(5.604360170423,2.978844952532));
#348 = CARTESIAN_POINT('',(5.64840794779,2.994306590437));
#349 = CARTESIAN_POINT('',(5.691442416367,3.015526528493));
#350 = CARTESIAN_POINT('',(5.824872069276,3.102718490978));
#351 = CARTESIAN_POINT('',(5.907866927565,3.189743031041));
#352 = CARTESIAN_POINT('',(5.983822906884,3.305706553986));
#353 = CARTESIAN_POINT('',(6.053720923597,3.449759389017));
#354 = CARTESIAN_POINT('',(6.118334932687,3.618530634946));
#355 = CARTESIAN_POINT('',(6.178121545006,3.806184003448));
#356 = CARTESIAN_POINT('',(6.233177145633,4.004849753485));
#357 = CARTESIAN_POINT('',(6.28318530718,4.204882399671));
#358 = ( GEOMETRIC_REPRESENTATION_CONTEXT(2) 
PARAMETRIC_REPRESENTATION_CONTEXT() REPRESENTATION_CONTEXT('2D SPACE',''
  ) );
#359 = PCURVE('',#360,#365);
#360 = CYLINDRICAL_SURFACE('',#361,5.);
#361 = AXIS2_PLACEMENT_3D('',#362,#363,#364);
#362 = CARTESIAN_POINT('',(0.,45.,145.));
#363 = DIRECTION('',(0.,-1.,1.110223024625E-16));
#364 = DIRECTION('',(1.,0.,0.));
#365 = DEFINITIONAL_REPRESENTATION('',(#366),#481);
#366 = B_SPLINE_CURVE_WITH_KNOTS('',8,(#367,#368,#369,#370,#371,#372,
    #373,#374,#375,#376,#377,#378,#379,#380,#381,#382,#383,#384,#385,
    #386,#387,#388,#389,#390,#391,#392,#393,#394,#395,#396,#397,#398,
    #399,#400,#401,#402,#403,#404,#405,#406,#407,#408,#409,#410,#411,
    #412,#413,#414,#415,#416,#417,#418,#419,#420,#421,#422,#423,#424,
    #425,#426,#427,#428,#429,#430,#431,#432,#433,#434,#435,#436,#437,
    #438,#439,#440,#441,#442,#443,#444,#445,#446,#447,#448,#449,#450,
    #451,#452,#453,#454,#455,#456,#457,#458,#459,#460,#461,#462,#463,
    #464,#465,#466,#467,#468,#469,#470,#471,#472,#473,#474,#475,#476,
    #477,#478,#479,#480),.UNSPECIFIED.,.T.,.F.,(9,7,7,7,7,7,7,7,7,7,7,7,
    7,7,7,7,9),(0.,0.127112718442,0.271939669694,0.31927941225,
    0.367036872779,0.432797974408,0.543194859602,0.652995023803,
    0.689019695039,0.73241267898,0.768199184332,0.80659689742,
    0.827223296726,0.857592063741,0.886248537395,0.922023841777,1.),
  .UNSPECIFIED.);
#367 = CARTESIAN_POINT('',(0.643501108793,7.66));
#368 = CARTESIAN_POINT('',(0.643501108793,7.26027658332));
#369 = CARTESIAN_POINT('',(0.651109471409,6.860079088347));
#370 = CARTESIAN_POINT('',(0.664331636322,6.46324355519));
#371 = CARTESIAN_POINT('',(0.681627327312,6.073279206206));
#372 = CARTESIAN_POINT('',(0.701962555256,5.691570557267));
#373 = CARTESIAN_POINT('',(0.724836153774,5.3163874754));
#374 = CARTESIAN_POINT('',(0.750256798438,4.943134195169));
#375 = CARTESIAN_POINT('',(0.811197651653,4.136265978115));
#376 = CARTESIAN_POINT('',(0.846144109907,3.721180454957));
#377 = CARTESIAN_POINT('',(0.883726374643,3.312702263791));
#378 = CARTESIAN_POINT('',(0.924658966435,2.904484908407));
#379 = CARTESIAN_POINT('',(0.969711360143,2.494357341864));
#380 = CARTESIAN_POINT('',(1.019608598826,2.085353020112));
#381 = CARTESIAN_POINT('',(1.075010753409,1.686223520322));
#382 = CARTESIAN_POINT('',(1.156662002898,1.190594360763));
#383 = CARTESIAN_POINT('',(1.177395533565,1.071453691274));
#384 = CARTESIAN_POINT('',(1.199039279004,0.954141363738));
#385 = CARTESIAN_POINT('',(1.221862481311,0.838239177128));
#386 = CARTESIAN_POINT('',(1.246104997492,0.72407512649));
#387 = CARTESIAN_POINT('',(1.271975261325,0.612748169408));
#388 = CARTESIAN_POINT('',(1.299653586845,0.506141246344));
#389 = CARTESIAN_POINT('',(1.359209642238,0.306828374195));
#390 = CARTESIAN_POINT('',(1.396020808077,0.197858655073));
#391 = CARTESIAN_POINT('',(1.437523729435,9.887362266036E-02));
#392 = CARTESIAN_POINT('',(1.482337765395,2.363206807513E-02));
#393 = CARTESIAN_POINT('',(1.529194498286,-1.875650758783E-02));
#394 = CARTESIAN_POINT('',(1.577023662766,-2.381679125855E-02));
#395 = CARTESIAN_POINT('',(1.624744648644,8.326377342583E-03));
#396 = CARTESIAN_POINT('',(1.735243428579,0.161932381042));
#397 = CARTESIAN_POINT('',(1.791779152859,0.305361250138));
#398 = CARTESIAN_POINT('',(1.84145246379,0.477638564624));
#399 = CARTESIAN_POINT('',(1.88502737923,0.661285420536));
#400 = CARTESIAN_POINT('',(1.923465418703,0.846337032956));
#401 = CARTESIAN_POINT('',(1.958099597414,1.030557136123));
#402 = CARTESIAN_POINT('',(1.990727928235,1.219552858565));
#403 = CARTESIAN_POINT('',(2.077903470061,1.771885991321));
#404 = CARTESIAN_POINT('',(2.127571409885,2.136554195256));
#405 = CARTESIAN_POINT('',(2.172764784576,2.508915817194));
#406 = CARTESIAN_POINT('',(2.213996039255,2.882851293399));
#407 = CARTESIAN_POINT('',(2.251817737293,3.256195327241));
#408 = CARTESIAN_POINT('',(2.286805409275,3.630347126576));
#409 = CARTESIAN_POINT('',(2.319486070408,4.009586567985));
#410 = CARTESIAN_POINT('',(2.380444527345,4.787496650337));
#411 = CARTESIAN_POINT('',(2.407593689734,5.171358077279));
#412 = CARTESIAN_POINT('',(2.432093392769,5.557084812417));
#413 = CARTESIAN_POINT('',(2.45400186275,5.949500901478));
#414 = CARTESIAN_POINT('',(2.472848659812,6.350550114311));
#415 = CARTESIAN_POINT('',(2.487592229646,6.75885435234));
#416 = CARTESIAN_POINT('',(2.496651393649,7.170631487262));
#417 = CARTESIAN_POINT('',(2.498396922946,7.71666987687));
#418 = CARTESIAN_POINT('',(2.497996957323,7.852293240213));
#419 = CARTESIAN_POINT('',(2.496676112623,7.988597463127));
#420 = CARTESIAN_POINT('',(2.494331621829,8.125497643531));
#421 = CARTESIAN_POINT('',(2.490847474047,8.262883028573));
#422 = CARTESIAN_POINT('',(2.486093571563,8.400626142646));
#423 = CARTESIAN_POINT('',(2.479924217477,8.538590783095));
#424 = CARTESIAN_POINT('',(2.462842853762,8.842922677582));
#425 = CARTESIAN_POINT('',(2.451152841017,9.010502936729));
#426 = CARTESIAN_POINT('',(2.43685886801,9.177443462952));
#427 = CARTESIAN_POINT('',(2.419762634892,9.342236879152));
#428 = CARTESIAN_POINT('',(2.399723956325,9.503707802444));
#429 = CARTESIAN_POINT('',(2.376664029679,9.660911208842));
#430 = CARTESIAN_POINT('',(2.350566157991,9.813031679729));
#431 = CARTESIAN_POINT('',(2.297487876584,10.079908864163));
#432 = CARTESIAN_POINT('',(2.271621816906,10.195748420692));
#433 = CARTESIAN_POINT('',(2.243955355576,10.306447577284));
#434 = CARTESIAN_POINT('',(2.214596854488,10.411680312704));
#435 = CARTESIAN_POINT('',(2.183681533127,10.51113971367));
#436 = CARTESIAN_POINT('',(2.151366885758,10.604534172092));
#437 = CARTESIAN_POINT('',(2.117828986403,10.691594963091));
#438 = CARTESIAN_POINT('',(2.04616798363,10.858469246653));
#439 = CARTESIAN_POINT('',(2.007793343849,10.937512640623));
#440 = CARTESIAN_POINT('',(1.968290855324,11.009044963659));
#441 = CARTESIAN_POINT('',(1.927807000019,11.072900493367));
#442 = CARTESIAN_POINT('',(1.886478268189,11.128921905725));
#443 = CARTESIAN_POINT('',(1.844431448594,11.176958320148));
#444 = CARTESIAN_POINT('',(1.80178558951,11.216867690905));
#445 = CARTESIAN_POINT('',(1.735487173803,11.265528367111));
#446 = CARTESIAN_POINT('',(1.712183552496,11.280148078397));
#447 = CARTESIAN_POINT('',(1.688768346364,11.292360687567));
#448 = CARTESIAN_POINT('',(1.665264159456,11.302148654052));
#449 = CARTESIAN_POINT('',(1.641692991405,11.309498802111));
#450 = CARTESIAN_POINT('',(1.618076608679,11.314402235061));
#451 = CARTESIAN_POINT('',(1.594436915838,11.316854249492));
#452 = CARTESIAN_POINT('',(1.535989692341,11.316854249492));
#453 = CARTESIAN_POINT('',(1.501190843472,11.311538950438));
#454 = CARTESIAN_POINT('',(1.466467453519,11.300912960737));
#455 = CARTESIAN_POINT('',(1.43188670412,11.284998421165));
#456 = CARTESIAN_POINT('',(1.397516322287,11.263835073145));
#457 = CARTESIAN_POINT('',(1.363425617461,11.237480327015));
#458 = CARTESIAN_POINT('',(1.329686518571,11.2060093303));
#459 = CARTESIAN_POINT('',(1.26494094116,11.135078412892));
#460 = CARTESIAN_POINT('',(1.233881683708,11.096162687705));
#461 = CARTESIAN_POINT('',(1.203246369281,11.052827923935));
#462 = CARTESIAN_POINT('',(1.173086614949,11.005136701079));
#463 = CARTESIAN_POINT('',(1.143456731271,10.95315277565));
#464 = CARTESIAN_POINT('',(1.114413986888,10.896940574981));
#465 = CARTESIAN_POINT('',(1.086018530751,10.836565523837));
#466 = CARTESIAN_POINT('',(1.023769776838,10.691609190404));
#467 = CARTESIAN_POINT('',(0.990237657237,10.604565027465));
#468 = CARTESIAN_POINT('',(0.957928332167,10.511189443156));
#469 = CARTESIAN_POINT('',(0.927017772347,10.41175099213));
#470 = CARTESIAN_POINT('',(0.897663386874,10.306541089958));
#471 = CARTESIAN_POINT('',(0.87000032813,10.195866433253));
#472 = CARTESIAN_POINT('',(0.844136914999,10.080052805509));
#473 = CARTESIAN_POINT('',(0.767865290509,9.69661574787));
#474 = CARTESIAN_POINT('',(0.726427919704,9.420798119005));
#475 = CARTESIAN_POINT('',(0.694691856788,9.134749169049));
#476 = CARTESIAN_POINT('',(0.671676392369,8.840355909297));
#477 = CARTESIAN_POINT('',(0.656279871133,8.540344457118));
#478 = CARTESIAN_POINT('',(0.647311819854,8.239086898079));
#479 = CARTESIAN_POINT('',(0.643501108793,7.942888881152));
#480 = CARTESIAN_POINT('',(0.643501108793,7.66));
#481 = ( GEOMETRIC_REPRESENTATION_CONTEXT(2) 
PARAMETRIC_REPRESENTATION_CONTEXT() REPRESENTATION_CONTEXT('2D SPACE',''
  ) );
#482 = ADVANCED_FACE('',(#483,#618),#360,.T.);
#483 = FACE_BOUND('',#484,.T.);
#484 = EDGE_LOOP('',(#485,#516,#539,#566,#567,#591));
#485 = ORIENTED_EDGE('',*,*,#486,.F.);
#486 = EDGE_CURVE('',#487,#489,#491,.T.);
#487 = VERTEX_POINT('',#488);
#488 = CARTESIAN_POINT('',(5.,25.,145.));
#489 = VERTEX_POINT('',#490);
#490 = CARTESIAN_POINT('',(1.73897263015E-12,25.,150.));
#491 = SURFACE_CURVE('',#492,(#497,#504),.PCURVE_S1.);
#492 = CIRCLE('',#493,5.);
#493 = AXIS2_PLACEMENT_3D('',#494,#495,#496);
#494 = CARTESIAN_POINT('',(0.,25.,145.));
#495 = DIRECTION('',(0.,-1.,1.110223024625E-16));
#496 = DIRECTION('',(1.,0.,0.));
#497 = PCURVE('',#360,#498);
#498 = DEFINITIONAL_REPRESENTATION('',(#499),#503);
#499 = LINE('',#500,#501);
#500 = CARTESIAN_POINT('',(0.,20.));
#501 = VECTOR('',#502,1.);
#502 = DIRECTION('',(1.,0.));
#503 = ( GEOMETRIC_REPRESENTATION_CONTEXT(2) 
PARAMETRIC_REPRESENTATION_CONTEXT() REPRESENTATION_CONTEXT('2D SPACE',''
  ) );
#504 = PCURVE('',#505,#510);
#505 = PLANE('',#506);
#506 = AXIS2_PLACEMENT_3D('',#507,#508,#509);
#507 = CARTESIAN_POINT('',(0.,25.,145.));
#508 = DIRECTION('',(0.,-1.,1.110223024625E-16));
#509 = DIRECTION('',(1.,0.,0.));
#510 = DEFINITIONAL_REPRESENTATION('',(#511),#515);
#511 = CIRCLE('',#512,5.);
#512 = AXIS2_PLACEMENT_2D('',#513,#514);
#513 = CARTESIAN_POINT('',(0.,0.));
#514 = DIRECTION('',(1.,0.));
#515 = ( GEOMETRIC_REPRESENTATION_CONTEXT(2) 
PARAMETRIC_REPRESENTATION_CONTEXT() REPRESENTATION_CONTEXT('2D SPACE',''
  ) );
#516 = ORIENTED_EDGE('',*,*,#517,.F.);
#517 = EDGE_CURVE('',#518,#487,#520,.T.);
#518 = VERTEX_POINT('',#519);
#519 = CARTESIAN_POINT('',(5.,45.,145.));
#520 = SEAM_CURVE('',#521,(#525,#532),.PCURVE_S1.);
#521 = LINE('',#522,#523);
#522 = CARTESIAN_POINT('',(5.,45.,145.));
#523 = VECTOR('',#524,1.);
#524 = DIRECTION('',(0.,-1.,1.110223024625E-16));
#525 = PCURVE('',#360,#526);
#526 = DEFINITIONAL_REPRESENTATION('',(#527),#531);
#527 = LINE('',#528,#529);
#528 = CARTESIAN_POINT('',(6.28318530718,-0.));
#529 = VECTOR('',#530,1.);
#530 = DIRECTION('',(0.,1.));
#531 = ( GEOMETRIC_REPRESENTATION_CONTEXT(2) 
PARAMETRIC_REPRESENTATION_CONTEXT() REPRESENTATION_CONTEXT('2D SPACE',''
  ) );
#532 = PCURVE('',#360,#533);
#533 = DEFINITIONAL_REPRESENTATION('',(#534),#538);
#534 = LINE('',#535,#536);
#535 = CARTESIAN_POINT('',(0.,-0.));
#536 = VECTOR('',#537,1.);
#537 = DIRECTION('',(0.,1.));
#538 = ( GEOMETRIC_REPRESENTATION_CONTEXT(2) 
PARAMETRIC_REPRESENTATION_CONTEXT() REPRESENTATION_CONTEXT('2D SPACE',''
  ) );
#539 = ORIENTED_EDGE('',*,*,#540,.T.);
#540 = EDGE_CURVE('',#518,#518,#541,.T.);
#541 = SURFACE_CURVE('',#542,(#547,#554),.PCURVE_S1.);
#542 = CIRCLE('',#543,5.);
#543 = AXIS2_PLACEMENT_3D('',#544,#545,#546);
#544 = CARTESIAN_POINT('',(0.,45.,145.));
#545 = DIRECTION('',(0.,-1.,1.110223024625E-16));
#546 = DIRECTION('',(1.,0.,0.));
#547 = PCURVE('',#360,#548);
#548 = DEFINITIONAL_REPRESENTATION('',(#549),#553);
#549 = LINE('',#550,#551);
#550 = CARTESIAN_POINT('',(0.,0.));
#551 = VECTOR('',#552,1.);
#552 = DIRECTION('',(1.,0.));
#553 = ( GEOMETRIC_REPRESENTATION_CONTEXT(2) 
PARAMETRIC_REPRESENTATION_CONTEXT() REPRESENTATION_CONTEXT('2D SPACE',''
  ) );
#554 = PCURVE('',#555,#560);
#555 = PLANE('',#556);
#556 = AXIS2_PLACEMENT_3D('',#557,#558,#559);
#557 = CARTESIAN_POINT('',(0.,45.,145.));
#558 = DIRECTION('',(0.,-1.,1.110223024625E-16));
#559 = DIRECTION('',(1.,0.,0.));
#560 = DEFINITIONAL_REPRESENTATION('',(#561),#565);
#561 = CIRCLE('',#562,5.);
#562 = AXIS2_PLACEMENT_2D('',#563,#564);
#563 = CARTESIAN_POINT('',(0.,0.));
#564 = DIRECTION('',(1.,0.));
#565 = ( GEOMETRIC_REPRESENTATION_CONTEXT(2) 
PARAMETRIC_REPRESENTATION_CONTEXT() REPRESENTATION_CONTEXT('2D SPACE',''
  ) );
#566 = ORIENTED_EDGE('',*,*,#517,.T.);
#567 = ORIENTED_EDGE('',*,*,#568,.F.);
#568 = EDGE_CURVE('',#569,#487,#571,.T.);
#569 = VERTEX_POINT('',#570);
#570 = CARTESIAN_POINT('',(-9.184850993605E-16,25.,140.));
#571 = SURFACE_CURVE('',#572,(#577,#584),.PCURVE_S1.);
#572 = CIRCLE('',#573,5.);
#573 = AXIS2_PLACEMENT_3D('',#574,#575,#576);
#574 = CARTESIAN_POINT('',(0.,25.,145.));
#575 = DIRECTION('',(0.,-1.,1.110223024625E-16));
#576 = DIRECTION('',(1.,0.,0.));
#577 = PCURVE('',#360,#578);
#578 = DEFINITIONAL_REPRESENTATION('',(#579),#583);
#579 = LINE('',#580,#581);
#580 = CARTESIAN_POINT('',(0.,20.));
#581 = VECTOR('',#582,1.);
#582 = DIRECTION('',(1.,0.));
#583 = ( GEOMETRIC_REPRESENTATION_CONTEXT(2) 
PARAMETRIC_REPRESENTATION_CONTEXT() REPRESENTATION_CONTEXT('2D SPACE',''
  ) );
#584 = PCURVE('',#505,#585);
#585 = DEFINITIONAL_REPRESENTATION('',(#586),#590);
#586 = CIRCLE('',#587,5.);
#587 = AXIS2_PLACEMENT_2D('',#588,#589);
#588 = CARTESIAN_POINT('',(0.,0.));
#589 = DIRECTION('',(1.,0.));
#590 = ( GEOMETRIC_REPRESENTATION_CONTEXT(2) 
PARAMETRIC_REPRESENTATION_CONTEXT() REPRESENTATION_CONTEXT('2D SPACE',''
  ) );
#591 = ORIENTED_EDGE('',*,*,#592,.F.);
#592 = EDGE_CURVE('',#489,#569,#593,.T.);
#593 = SURFACE_CURVE('',#594,(#599,#606),.PCURVE_S1.);
#594 = CIRCLE('',#595,5.);
#595 = AXIS2_PLACEMENT_3D('',#596,#597,#598);
#596 = CARTESIAN_POINT('',(0.,25.,145.));
#597 = DIRECTION('',(0.,-1.,1.110223024625E-16));
#598 = DIRECTION('',(1.,0.,0.));
#599 = PCURVE('',#360,#600);
#600 = DEFINITIONAL_REPRESENTATION('',(#601),#605);
#601 = LINE('',#602,#603);
#602 = CARTESIAN_POINT('',(0.,20.));
#603 = VECTOR('',#604,1.);
#604 = DIRECTION('',(1.,0.));
#605 = ( GEOMETRIC_REPRESENTATION_CONTEXT(2) 
PARAMETRIC_REPRESENTATION_CONTEXT() REPRESENTATION_CONTEXT('2D SPACE',''
  ) );
#606 = PCURVE('',#607,#612);
#607 = PLANE('',#608);
#608 = AXIS2_PLACEMENT_3D('',#609,#610,#611);
#609 = CARTESIAN_POINT('',(0.,25.,145.));
#610 = DIRECTION('',(0.,-1.,1.110223024625E-16));
#611 = DIRECTION('',(1.,0.,0.));
#612 = DEFINITIONAL_REPRESENTATION('',(#613),#617);
#613 = CIRCLE('',#614,5.);
#614 = AXIS2_PLACEMENT_2D('',#615,#616);
#615 = CARTESIAN_POINT('',(0.,0.));
#616 = DIRECTION('',(1.,0.));
#617 = ( GEOMETRIC_REPRESENTATION_CONTEXT(2) 
PARAMETRIC_REPRESENTATION_CONTEXT() REPRESENTATION_CONTEXT('2D SPACE',''
  ) );
#618 = FACE_BOUND('',#619,.T.);
#619 = EDGE_LOOP('',(#620));
#620 = ORIENTED_EDGE('',*,*,#124,.F.);
#621 = ADVANCED_FACE('',(#622),#111,.T.);
#622 = FACE_BOUND('',#623,.T.);
#623 = EDGE_LOOP('',(#624));
#624 = ORIENTED_EDGE('',*,*,#96,.T.);
#625 = ADVANCED_FACE('',(#626),#505,.T.);
#626 = FACE_BOUND('',#627,.T.);
#627 = EDGE_LOOP('',(#628,#629,#630));
#628 = ORIENTED_EDGE('',*,*,#568,.T.);
#629 = ORIENTED_EDGE('',*,*,#486,.T.);
#630 = ORIENTED_EDGE('',*,*,#631,.F.);
#631 = EDGE_CURVE('',#569,#489,#632,.T.);
#632 = SURFACE_CURVE('',#633,(#637,#643),.PCURVE_S1.);
#633 = LINE('',#634,#635);
#634 = CARTESIAN_POINT('',(0.,25.,120.));
#635 = VECTOR('',#636,1.);
#636 = DIRECTION('',(0.,0.,1.));
#637 = PCURVE('',#505,#638);
#638 = DEFINITIONAL_REPRESENTATION('',(#639),#642);
#639 = B_SPLINE_CURVE_WITH_KNOTS('',1,(#640,#641),.UNSPECIFIED.,.F.,.F.,
  (2,2),(19.,30.0000006),.PIECEWISE_BEZIER_KNOTS.);
#640 = CARTESIAN_POINT('',(0.,-6.));
#641 = CARTESIAN_POINT('',(0.,5.0000006));
#642 = ( GEOMETRIC_REPRESENTATION_CONTEXT(2) 
PARAMETRIC_REPRESENTATION_CONTEXT() REPRESENTATION_CONTEXT('2D SPACE',''
  ) );
#643 = PCURVE('',#607,#644);
#644 = DEFINITIONAL_REPRESENTATION('',(#645),#648);
#645 = B_SPLINE_CURVE_WITH_KNOTS('',1,(#646,#647),.UNSPECIFIED.,.F.,.F.,
  (2,2),(19.,30.0000006),.PIECEWISE_BEZIER_KNOTS.);
#646 = CARTESIAN_POINT('',(0.,-6.));
#647 = CARTESIAN_POINT('',(0.,5.0000006));
#648 = ( GEOMETRIC_REPRESENTATION_CONTEXT(2) 
PARAMETRIC_REPRESENTATION_CONTEXT() REPRESENTATION_CONTEXT('2D SPACE',''
  ) );
#649 = ADVANCED_FACE('',(#650),#607,.T.);
#650 = FACE_BOUND('',#651,.T.);
#651 = EDGE_LOOP('',(#652,#653));
#652 = ORIENTED_EDGE('',*,*,#631,.T.);
#653 = ORIENTED_EDGE('',*,*,#592,.T.);
#654 = ADVANCED_FACE('',(#655),#555,.F.);
#655 = FACE_BOUND('',#656,.T.);
#656 = EDGE_LOOP('',(#657));
#657 = ORIENTED_EDGE('',*,*,#540,.F.);
#658 = ( GEOMETRIC_REPRESENTATION_CONTEXT(3) 
GLOBAL_UNCERTAINTY_ASSIGNED_CONTEXT((#662)) GLOBAL_UNIT_ASSIGNED_CONTEXT
((#659,#660,#661)) REPRESENTATION_CONTEXT('Context #1',
  '3D Context with UNIT and UNCERTAINTY') );
#659 = ( LENGTH_UNIT() NAMED_UNIT(*) SI_UNIT(.MILLI.,.METRE.) );
#660 = ( NAMED_UNIT(*) PLANE_ANGLE_UNIT() SI_UNIT($,.RADIAN.) );
#661 = ( NAMED_UNIT(*) SI_UNIT($,.STERADIAN.) SOLID_ANGLE_UNIT() );
#662 = UNCERTAINTY_MEASURE_WITH_UNIT(LENGTH_MEASURE(1.E-07),#659,
  'distance_accuracy_value','confusion accuracy');
#663 = CONTEXT_DEPENDENT_SHAPE_REPRESENTATION(#664,#666);
#664 = ( REPRESENTATION_RELATIONSHIP('','',#59,#32) 
REPRESENTATION_RELATIONSHIP_WITH_TRANSFORMATION(#665) 
SHAPE_REPRESENTATION_RELATIONSHIP() );
#665 = ITEM_DEFINED_TRANSFORMATION('','',#11,#33);
#666 = PRODUCT_DEFINITION_SHAPE('Placement','Placement of an item',#667
  );
#667 = NEXT_ASSEMBLY_USAGE_OCCURRENCE('1','','',#27,#54,$);
#668 = PRODUCT_RELATED_PRODUCT_CATEGORY('part',$,(#56));
#669 = SHAPE_DEFINITION_REPRESENTATION(#670,#676);
#670 = PRODUCT_DEFINITION_SHAPE('','',#671);
#671 = PRODUCT_DEFINITION('design','',#672,#675);
#672 = PRODUCT_DEFINITION_FORMATION('','',#673);
#673 = PRODUCT('Open CASCADE STEP translator 7.7 1.1.2',
  'Open CASCADE STEP translator 7.7 1.1.2','',(#674));
#674 = PRODUCT_CONTEXT('',#2,'mechanical');
#675 = PRODUCT_DEFINITION_CONTEXT('part definition',#2,'design');
#676 = ADVANCED_BREP_SHAPE_REPRESENTATION('',(#11,#677),#1005);
#677 = MANIFOLD_SOLID_BREP('',#678);
#678 = CLOSED_SHELL('',(#679,#795,#851,#907,#911,#946,#1001));
#679 = ADVANCED_FACE('',(#680,#740),#695,.F.);
#680 = FACE_BOUND('',#681,.F.);
#681 = EDGE_LOOP('',(#682,#718));
#682 = ORIENTED_EDGE('',*,*,#683,.T.);
#683 = EDGE_CURVE('',#684,#686,#688,.T.);
#684 = VERTEX_POINT('',#685);
#685 = CARTESIAN_POINT('',(1.836970198721E-15,30.,150.));
#686 = VERTEX_POINT('',#687);
#687 = CARTESIAN_POINT('',(30.,-7.347880794884E-15,150.));
#688 = SURFACE_CURVE('',#689,(#694,#706),.PCURVE_S1.);
#689 = CIRCLE('',#690,30.);
#690 = AXIS2_PLACEMENT_3D('',#691,#692,#693);
#691 = CARTESIAN_POINT('',(0.,0.,150.));
#692 = DIRECTION('',(0.,0.,1.));
#693 = DIRECTION('',(1.,0.,0.));
#694 = PCURVE('',#695,#700);
#695 = PLANE('',#696);
#696 = AXIS2_PLACEMENT_3D('',#697,#698,#699);
#697 = CARTESIAN_POINT('',(0.,0.,150.));
#698 = DIRECTION('',(0.,0.,1.));
#699 = DIRECTION('',(1.,0.,0.));
#700 = DEFINITIONAL_REPRESENTATION('',(#701),#705);
#701 = CIRCLE('',#702,30.);
#702 = AXIS2_PLACEMENT_2D('',#703,#704);
#703 = CARTESIAN_POINT('',(0.,0.));
#704 = DIRECTION('',(1.,0.));
#705 = ( GEOMETRIC_REPRESENTATION_CONTEXT(2) 
PARAMETRIC_REPRESENTATION_CONTEXT() REPRESENTATION_CONTEXT('2D SPACE',''
  ) );
#706 = PCURVE('',#707,#712);
#707 = CYLINDRICAL_SURFACE('',#708,30.);
#708 = AXIS2_PLACEMENT_3D('',#709,#710,#711);
#709 = CARTESIAN_POINT('',(0.,0.,150.));
#710 = DIRECTION('',(0.,0.,1.));
#711 = DIRECTION('',(1.,0.,0.));
#712 = DEFINITIONAL_REPRESENTATION('',(#713),#717);
#713 = LINE('',#714,#715);
#714 = CARTESIAN_POINT('',(0.,0.));
#715 = VECTOR('',#716,1.);
#716 = DIRECTION('',(1.,0.));
#717 = ( GEOMETRIC_REPRESENTATION_CONTEXT(2) 
PARAMETRIC_REPRESENTATION_CONTEXT() REPRESENTATION_CONTEXT('2D SPACE',''
  ) );
#718 = ORIENTED_EDGE('',*,*,#719,.T.);
#719 = EDGE_CURVE('',#686,#684,#720,.T.);
#720 = SURFACE_CURVE('',#721,(#726,#733),.PCURVE_S1.);
#721 = CIRCLE('',#722,30.);
#722 = AXIS2_PLACEMENT_3D('',#723,#724,#725);
#723 = CARTESIAN_POINT('',(0.,0.,150.));
#724 = DIRECTION('',(0.,0.,1.));
#725 = DIRECTION('',(1.,0.,0.));
#726 = PCURVE('',#695,#727);
#727 = DEFINITIONAL_REPRESENTATION('',(#728),#732);
#728 = CIRCLE('',#729,30.);
#729 = AXIS2_PLACEMENT_2D('',#730,#731);
#730 = CARTESIAN_POINT('',(0.,0.));
#731 = DIRECTION('',(1.,0.));
#732 = ( GEOMETRIC_REPRESENTATION_CONTEXT(2) 
PARAMETRIC_REPRESENTATION_CONTEXT() REPRESENTATION_CONTEXT('2D SPACE',''
  ) );
#733 = PCURVE('',#707,#734);
#734 = DEFINITIONAL_REPRESENTATION('',(#735),#739);
#735 = LINE('',#736,#737);
#736 = CARTESIAN_POINT('',(0.,0.));
#737 = VECTOR('',#738,1.);
#738 = DIRECTION('',(1.,0.));
#739 = ( GEOMETRIC_REPRESENTATION_CONTEXT(2) 
PARAMETRIC_REPRESENTATION_CONTEXT() REPRESENTATION_CONTEXT('2D SPACE',''
  ) );
#740 = FACE_BOUND('',#741,.F.);
#741 = EDGE_LOOP('',(#742,#773));
#742 = ORIENTED_EDGE('',*,*,#743,.F.);
#743 = EDGE_CURVE('',#744,#746,#748,.T.);
#744 = VERTEX_POINT('',#745);
#745 = CARTESIAN_POINT('',(1.73897263015E-12,25.,150.));
#746 = VERTEX_POINT('',#747);
#747 = CARTESIAN_POINT('',(25.,-6.123233995737E-15,150.));
#748 = SURFACE_CURVE('',#749,(#754,#761),.PCURVE_S1.);
#749 = CIRCLE('',#750,25.);
#750 = AXIS2_PLACEMENT_3D('',#751,#752,#753);
#751 = CARTESIAN_POINT('',(0.,0.,150.));
#752 = DIRECTION('',(0.,0.,1.));
#753 = DIRECTION('',(1.,0.,0.));
#754 = PCURVE('',#695,#755);
#755 = DEFINITIONAL_REPRESENTATION('',(#756),#760);
#756 = CIRCLE('',#757,25.);
#757 = AXIS2_PLACEMENT_2D('',#758,#759);
#758 = CARTESIAN_POINT('',(0.,0.));
#759 = DIRECTION('',(1.,0.));
#760 = ( GEOMETRIC_REPRESENTATION_CONTEXT(2) 
PARAMETRIC_REPRESENTATION_CONTEXT() REPRESENTATION_CONTEXT('2D SPACE',''
  ) );
#761 = PCURVE('',#762,#767);
#762 = CYLINDRICAL_SURFACE('',#763,25.);
#763 = AXIS2_PLACEMENT_3D('',#764,#765,#766);
#764 = CARTESIAN_POINT('',(0.,0.,120.));
#765 = DIRECTION('',(0.,0.,1.));
#766 = DIRECTION('',(1.,0.,0.));
#767 = DEFINITIONAL_REPRESENTATION('',(#768),#772);
#768 = LINE('',#769,#770);
#769 = CARTESIAN_POINT('',(0.,30.));
#770 = VECTOR('',#771,1.);
#771 = DIRECTION('',(1.,0.));
#772 = ( GEOMETRIC_REPRESENTATION_CONTEXT(2) 
PARAMETRIC_REPRESENTATION_CONTEXT() REPRESENTATION_CONTEXT('2D SPACE',''
  ) );
#773 = ORIENTED_EDGE('',*,*,#774,.F.);
#774 = EDGE_CURVE('',#746,#744,#775,.T.);
#775 = SURFACE_CURVE('',#776,(#781,#788),.PCURVE_S1.);
#776 = CIRCLE('',#777,25.);
#777 = AXIS2_PLACEMENT_3D('',#778,#779,#780);
#778 = CARTESIAN_POINT('',(0.,0.,150.));
#779 = DIRECTION('',(0.,0.,1.));
#780 = DIRECTION('',(1.,0.,0.));
#781 = PCURVE('',#695,#782);
#782 = DEFINITIONAL_REPRESENTATION('',(#783),#787);
#783 = CIRCLE('',#784,25.);
#784 = AXIS2_PLACEMENT_2D('',#785,#786);
#785 = CARTESIAN_POINT('',(0.,0.));
#786 = DIRECTION('',(1.,0.));
#787 = ( GEOMETRIC_REPRESENTATION_CONTEXT(2) 
PARAMETRIC_REPRESENTATION_CONTEXT() REPRESENTATION_CONTEXT('2D SPACE',''
  ) );
#788 = PCURVE('',#762,#789);
#789 = DEFINITIONAL_REPRESENTATION('',(#790),#794);
#790 = LINE('',#791,#792);
#791 = CARTESIAN_POINT('',(0.,30.));
#792 = VECTOR('',#793,1.);
#793 = DIRECTION('',(1.,0.));
#794 = ( GEOMETRIC_REPRESENTATION_CONTEXT(2) 
PARAMETRIC_REPRESENTATION_CONTEXT() REPRESENTATION_CONTEXT('2D SPACE',''
  ) );
#795 = ADVANCED_FACE('',(#796),#707,.T.);
#796 = FACE_BOUND('',#797,.T.);
#797 = EDGE_LOOP('',(#798,#821,#848,#849,#850));
#798 = ORIENTED_EDGE('',*,*,#799,.T.);
#799 = EDGE_CURVE('',#686,#800,#802,.T.);
#800 = VERTEX_POINT('',#801);
#801 = CARTESIAN_POINT('',(30.,-7.347880794884E-15,160.));
#802 = SEAM_CURVE('',#803,(#807,#814),.PCURVE_S1.);
#803 = LINE('',#804,#805);
#804 = CARTESIAN_POINT('',(30.,-7.347880794884E-15,150.));
#805 = VECTOR('',#806,1.);
#806 = DIRECTION('',(0.,0.,1.));
#807 = PCURVE('',#707,#808);
#808 = DEFINITIONAL_REPRESENTATION('',(#809),#813);
#809 = LINE('',#810,#811);
#810 = CARTESIAN_POINT('',(6.28318530718,-0.));
#811 = VECTOR('',#812,1.);
#812 = DIRECTION('',(0.,1.));
#813 = ( GEOMETRIC_REPRESENTATION_CONTEXT(2) 
PARAMETRIC_REPRESENTATION_CONTEXT() REPRESENTATION_CONTEXT('2D SPACE',''
  ) );
#814 = PCURVE('',#707,#815);
#815 = DEFINITIONAL_REPRESENTATION('',(#816),#820);
#816 = LINE('',#817,#818);
#817 = CARTESIAN_POINT('',(0.,-0.));
#818 = VECTOR('',#819,1.);
#819 = DIRECTION('',(0.,1.));
#820 = ( GEOMETRIC_REPRESENTATION_CONTEXT(2) 
PARAMETRIC_REPRESENTATION_CONTEXT() REPRESENTATION_CONTEXT('2D SPACE',''
  ) );
#821 = ORIENTED_EDGE('',*,*,#822,.F.);
#822 = EDGE_CURVE('',#800,#800,#823,.T.);
#823 = SURFACE_CURVE('',#824,(#829,#836),.PCURVE_S1.);
#824 = CIRCLE('',#825,30.);
#825 = AXIS2_PLACEMENT_3D('',#826,#827,#828);
#826 = CARTESIAN_POINT('',(0.,0.,160.));
#827 = DIRECTION('',(0.,0.,1.));
#828 = DIRECTION('',(1.,0.,0.));
#829 = PCURVE('',#707,#830);
#830 = DEFINITIONAL_REPRESENTATION('',(#831),#835);
#831 = LINE('',#832,#833);
#832 = CARTESIAN_POINT('',(0.,10.));
#833 = VECTOR('',#834,1.);
#834 = DIRECTION('',(1.,0.));
#835 = ( GEOMETRIC_REPRESENTATION_CONTEXT(2) 
PARAMETRIC_REPRESENTATION_CONTEXT() REPRESENTATION_CONTEXT('2D SPACE',''
  ) );
#836 = PCURVE('',#837,#842);
#837 = PLANE('',#838);
#838 = AXIS2_PLACEMENT_3D('',#839,#840,#841);
#839 = CARTESIAN_POINT('',(0.,0.,160.));
#840 = DIRECTION('',(0.,0.,1.));
#841 = DIRECTION('',(1.,0.,0.));
#842 = DEFINITIONAL_REPRESENTATION('',(#843),#847);
#843 = CIRCLE('',#844,30.);
#844 = AXIS2_PLACEMENT_2D('',#845,#846);
#845 = CARTESIAN_POINT('',(0.,0.));
#846 = DIRECTION('',(1.,0.));
#847 = ( GEOMETRIC_REPRESENTATION_CONTEXT(2) 
PARAMETRIC_REPRESENTATION_CONTEXT() REPRESENTATION_CONTEXT('2D SPACE',''
  ) );
#848 = ORIENTED_EDGE('',*,*,#799,.F.);
#849 = ORIENTED_EDGE('',*,*,#719,.T.);
#850 = ORIENTED_EDGE('',*,*,#683,.T.);
#851 = ADVANCED_FACE('',(#852),#762,.T.);
#852 = FACE_BOUND('',#853,.T.);
#853 = EDGE_LOOP('',(#854,#877,#878,#879,#880));
#854 = ORIENTED_EDGE('',*,*,#855,.T.);
#855 = EDGE_CURVE('',#856,#746,#858,.T.);
#856 = VERTEX_POINT('',#857);
#857 = CARTESIAN_POINT('',(25.,-6.123233995737E-15,120.));
#858 = SEAM_CURVE('',#859,(#863,#870),.PCURVE_S1.);
#859 = LINE('',#860,#861);
#860 = CARTESIAN_POINT('',(25.,-6.123233995737E-15,120.));
#861 = VECTOR('',#862,1.);
#862 = DIRECTION('',(0.,0.,1.));
#863 = PCURVE('',#762,#864);
#864 = DEFINITIONAL_REPRESENTATION('',(#865),#869);
#865 = LINE('',#866,#867);
#866 = CARTESIAN_POINT('',(6.28318530718,-0.));
#867 = VECTOR('',#868,1.);
#868 = DIRECTION('',(0.,1.));
#869 = ( GEOMETRIC_REPRESENTATION_CONTEXT(2) 
PARAMETRIC_REPRESENTATION_CONTEXT() REPRESENTATION_CONTEXT('2D SPACE',''
  ) );
#870 = PCURVE('',#762,#871);
#871 = DEFINITIONAL_REPRESENTATION('',(#872),#876);
#872 = LINE('',#873,#874);
#873 = CARTESIAN_POINT('',(0.,-0.));
#874 = VECTOR('',#875,1.);
#875 = DIRECTION('',(0.,1.));
#876 = ( GEOMETRIC_REPRESENTATION_CONTEXT(2) 
PARAMETRIC_REPRESENTATION_CONTEXT() REPRESENTATION_CONTEXT('2D SPACE',''
  ) );
#877 = ORIENTED_EDGE('',*,*,#743,.F.);
#878 = ORIENTED_EDGE('',*,*,#774,.F.);
#879 = ORIENTED_EDGE('',*,*,#855,.F.);
#880 = ORIENTED_EDGE('',*,*,#881,.T.);
#881 = EDGE_CURVE('',#856,#856,#882,.T.);
#882 = SURFACE_CURVE('',#883,(#888,#895),.PCURVE_S1.);
#883 = CIRCLE('',#884,25.);
#884 = AXIS2_PLACEMENT_3D('',#885,#886,#887);
#885 = CARTESIAN_POINT('',(0.,0.,120.));
#886 = DIRECTION('',(0.,0.,1.));
#887 = DIRECTION('',(1.,0.,0.));
#888 = PCURVE('',#762,#889);
#889 = DEFINITIONAL_REPRESENTATION('',(#890),#894);
#890 = LINE('',#891,#892);
#891 = CARTESIAN_POINT('',(0.,0.));
#892 = VECTOR('',#893,1.);
#893 = DIRECTION('',(1.,0.));
#894 = ( GEOMETRIC_REPRESENTATION_CONTEXT(2) 
PARAMETRIC_REPRESENTATION_CONTEXT() REPRESENTATION_CONTEXT('2D SPACE',''
  ) );
#895 = PCURVE('',#896,#901);
#896 = PLANE('',#897);
#897 = AXIS2_PLACEMENT_3D('',#898,#899,#900);
#898 = CARTESIAN_POINT('',(0.,0.,120.));
#899 = DIRECTION('',(0.,0.,1.));
#900 = DIRECTION('',(1.,0.,0.));
#901 = DEFINITIONAL_REPRESENTATION('',(#902),#906);
#902 = CIRCLE('',#903,25.);
#903 = AXIS2_PLACEMENT_2D('',#904,#905);
#904 = CARTESIAN_POINT('',(0.,0.));
#905 = DIRECTION('',(1.,0.));
#906 = ( GEOMETRIC_REPRESENTATION_CONTEXT(2) 
PARAMETRIC_REPRESENTATION_CONTEXT() REPRESENTATION_CONTEXT('2D SPACE',''
  ) );
#907 = ADVANCED_FACE('',(#908),#837,.T.);
#908 = FACE_BOUND('',#909,.T.);
#909 = EDGE_LOOP('',(#910));
#910 = ORIENTED_EDGE('',*,*,#822,.T.);
#911 = ADVANCED_FACE('',(#912,#943),#896,.T.);
#912 = FACE_BOUND('',#913,.T.);
#913 = EDGE_LOOP('',(#914));
#914 = ORIENTED_EDGE('',*,*,#915,.T.);
#915 = EDGE_CURVE('',#916,#916,#918,.T.);
#916 = VERTEX_POINT('',#917);
#917 = CARTESIAN_POINT('',(35.,-8.572527594031E-15,120.));
#918 = SURFACE_CURVE('',#919,(#924,#931),.PCURVE_S1.);
#919 = CIRCLE('',#920,35.);
#920 = AXIS2_PLACEMENT_3D('',#921,#922,#923);
#921 = CARTESIAN_POINT('',(0.,0.,120.));
#922 = DIRECTION('',(0.,0.,1.));
#923 = DIRECTION('',(1.,0.,0.));
#924 = PCURVE('',#896,#925);
#925 = DEFINITIONAL_REPRESENTATION('',(#926),#930);
#926 = CIRCLE('',#927,35.);
#927 = AXIS2_PLACEMENT_2D('',#928,#929);
#928 = CARTESIAN_POINT('',(0.,0.));
#929 = DIRECTION('',(1.,0.));
#930 = ( GEOMETRIC_REPRESENTATION_CONTEXT(2) 
PARAMETRIC_REPRESENTATION_CONTEXT() REPRESENTATION_CONTEXT('2D SPACE',''
  ) );
#931 = PCURVE('',#932,#937);
#932 = CYLINDRICAL_SURFACE('',#933,35.);
#933 = AXIS2_PLACEMENT_3D('',#934,#935,#936);
#934 = CARTESIAN_POINT('',(0.,0.,0.));
#935 = DIRECTION('',(0.,0.,1.));
#936 = DIRECTION('',(1.,0.,0.));
#937 = DEFINITIONAL_REPRESENTATION('',(#938),#942);
#938 = LINE('',#939,#940);
#939 = CARTESIAN_POINT('',(0.,120.));
#940 = VECTOR('',#941,1.);
#941 = DIRECTION('',(1.,0.));
#942 = ( GEOMETRIC_REPRESENTATION_CONTEXT(2) 
PARAMETRIC_REPRESENTATION_CONTEXT() REPRESENTATION_CONTEXT('2D SPACE',''
  ) );
#943 = FACE_BOUND('',#944,.T.);
#944 = EDGE_LOOP('',(#945));
#945 = ORIENTED_EDGE('',*,*,#881,.F.);
#946 = ADVANCED_FACE('',(#947),#932,.T.);
#947 = FACE_BOUND('',#948,.T.);
#948 = EDGE_LOOP('',(#949,#950,#973,#1000));
#949 = ORIENTED_EDGE('',*,*,#915,.F.);
#950 = ORIENTED_EDGE('',*,*,#951,.F.);
#951 = EDGE_CURVE('',#952,#916,#954,.T.);
#952 = VERTEX_POINT('',#953);
#953 = CARTESIAN_POINT('',(35.,-8.572527594031E-15,0.));
#954 = SEAM_CURVE('',#955,(#959,#966),.PCURVE_S1.);
#955 = LINE('',#956,#957);
#956 = CARTESIAN_POINT('',(35.,-8.572527594031E-15,0.));
#957 = VECTOR('',#958,1.);
#958 = DIRECTION('',(0.,0.,1.));
#959 = PCURVE('',#932,#960);
#960 = DEFINITIONAL_REPRESENTATION('',(#961),#965);
#961 = LINE('',#962,#963);
#962 = CARTESIAN_POINT('',(6.28318530718,-0.));
#963 = VECTOR('',#964,1.);
#964 = DIRECTION('',(0.,1.));
#965 = ( GEOMETRIC_REPRESENTATION_CONTEXT(2) 
PARAMETRIC_REPRESENTATION_CONTEXT() REPRESENTATION_CONTEXT('2D SPACE',''
  ) );
#966 = PCURVE('',#932,#967);
#967 = DEFINITIONAL_REPRESENTATION('',(#968),#972);
#968 = LINE('',#969,#970);
#969 = CARTESIAN_POINT('',(0.,-0.));
#970 = VECTOR('',#971,1.);
#971 = DIRECTION('',(0.,1.));
#972 = ( GEOMETRIC_REPRESENTATION_CONTEXT(2) 
PARAMETRIC_REPRESENTATION_CONTEXT() REPRESENTATION_CONTEXT('2D SPACE',''
  ) );
#973 = ORIENTED_EDGE('',*,*,#974,.T.);
#974 = EDGE_CURVE('',#952,#952,#975,.T.);
#975 = SURFACE_CURVE('',#976,(#981,#988),.PCURVE_S1.);
#976 = CIRCLE('',#977,35.);
#977 = AXIS2_PLACEMENT_3D('',#978,#979,#980);
#978 = CARTESIAN_POINT('',(0.,0.,0.));
#979 = DIRECTION('',(0.,0.,1.));
#980 = DIRECTION('',(1.,0.,0.));
#981 = PCURVE('',#932,#982);
#982 = DEFINITIONAL_REPRESENTATION('',(#983),#987);
#983 = LINE('',#984,#985);
#984 = CARTESIAN_POINT('',(0.,0.));
#985 = VECTOR('',#986,1.);
#986 = DIRECTION('',(1.,0.));
#987 = ( GEOMETRIC_REPRESENTATION_CONTEXT(2) 
PARAMETRIC_REPRESENTATION_CONTEXT() REPRESENTATION_CONTEXT('2D SPACE',''
  ) );
#988 = PCURVE('',#989,#994);
#989 = PLANE('',#990);
#990 = AXIS2_PLACEMENT_3D('',#991,#992,#993);
#991 = CARTESIAN_POINT('',(0.,0.,0.));
#992 = DIRECTION('',(0.,0.,1.));
#993 = DIRECTION('',(1.,0.,0.));
#994 = DEFINITIONAL_REPRESENTATION('',(#995),#999);
#995 = CIRCLE('',#996,35.);
#996 = AXIS2_PLACEMENT_2D('',#997,#998);
#997 = CARTESIAN_POINT('',(0.,0.));
#998 = DIRECTION('',(1.,0.));
#999 = ( GEOMETRIC_REPRESENTATION_CONTEXT(2) 
PARAMETRIC_REPRESENTATION_CONTEXT() REPRESENTATION_CONTEXT('2D SPACE',''
  ) );
#1000 = ORIENTED_EDGE('',*,*,#951,.T.);
#1001 = ADVANCED_FACE('',(#1002),#989,.F.);
#1002 = FACE_BOUND('',#1003,.T.);
#1003 = EDGE_LOOP('',(#1004));
#1004 = ORIENTED_EDGE('',*,*,#974,.F.);
#1005 = ( GEOMETRIC_REPRESENTATION_CONTEXT(3) 
GLOBAL_UNCERTAINTY_ASSIGNED_CONTEXT((#1009)) 
GLOBAL_UNIT_ASSIGNED_CONTEXT((#1006,#1007,#1008)) REPRESENTATION_CONTEXT
('Context #1','3D Context with UNIT and UNCERTAINTY') );
#1006 = ( LENGTH_UNIT() NAMED_UNIT(*) SI_UNIT(.MILLI.,.METRE.) );
#1007 = ( NAMED_UNIT(*) PLANE_ANGLE_UNIT() SI_UNIT($,.RADIAN.) );
#1008 = ( NAMED_UNIT(*) SI_UNIT($,.STERADIAN.) SOLID_ANGLE_UNIT() );
#1009 = UNCERTAINTY_MEASURE_WITH_UNIT(LENGTH_MEASURE(1.E-07),#1006,
  'distance_accuracy_value','confusion accuracy');
#1010 = CONTEXT_DEPENDENT_SHAPE_REPRESENTATION(#1011,#1013);
#1011 = ( REPRESENTATION_RELATIONSHIP('','',#676,#32) 
REPRESENTATION_RELATIONSHIP_WITH_TRANSFORMATION(#1012) 
SHAPE_REPRESENTATION_RELATIONSHIP() );
#1012 = ITEM_DEFINED_TRANSFORMATION('','',#11,#37);
#1013 = PRODUCT_DEFINITION_SHAPE('Placement','Placement of an item',
  #1014);
#1014 = NEXT_ASSEMBLY_USAGE_OCCURRENCE('2','','',#27,#671,$);
#1015 = PRODUCT_RELATED_PRODUCT_CATEGORY('part',$,(#673));
ENDSEC;
END-ISO-10303-21;
