ISO-10303-21;
HEADER;
FILE_DESCRIPTION(('Open CASCADE Model'),'2;1');
FILE_NAME('Open CASCADE Shape Model','2026-03-24T17:05:57',('Author'),(
    'Open CASCADE'),'Open CASCADE STEP processor 7.7','Open CASCADE 7.7'
  ,'Unknown');
FILE_SCHEMA(('AUTOMOTIVE_DESIGN { 1 0 10303 214 1 1 1 1 }'));
ENDSEC;
DATA;
#1 = APPLICATION_PROTOCOL_DEFINITION('international standard',
  'automotive_design',2000,#2);
#2 = APPLICATION_CONTEXT(
  'core data for automotive mechanical design processes');
#3 = SHAPE_DEFINITION_REPRESENTATION(#4,#10);
#4 = PRODUCT_DEFINITION_SHAPE('','',#5);
#5 = PRODUCT_DEFINITION('design','',#6,#9);
#6 = PRODUCT_DEFINITION_FORMATION('','',#7);
#7 = PRODUCT('Open CASCADE STEP translator 7.7 1',
  'Open CASCADE STEP translator 7.7 1','',(#8));
#8 = PRODUCT_CONTEXT('',#2,'mechanical');
#9 = PRODUCT_DEFINITION_CONTEXT('part definition',#2,'design');
#10 = ADVANCED_BREP_SHAPE_REPRESENTATION('',(#11,#15),#1140);
#11 = AXIS2_PLACEMENT_3D('',#12,#13,#14);
#12 = CARTESIAN_POINT('',(0.,0.,0.));
#13 = DIRECTION('',(0.,0.,1.));
#14 = DIRECTION('',(1.,0.,-0.));
#15 = MANIFOLD_SOLID_BREP('',#16);
#16 = CLOSED_SHELL('',(#17,#594,#598,#602,#703,#709,#739,#771,#776,#811,
    #866,#901,#956,#991,#1046,#1081,#1136));
#17 = ADVANCED_FACE('',(#18,#105,#384),#32,.T.);
#18 = FACE_BOUND('',#19,.T.);
#19 = EDGE_LOOP('',(#20,#50,#77,#78));
#20 = ORIENTED_EDGE('',*,*,#21,.T.);
#21 = EDGE_CURVE('',#22,#24,#26,.T.);
#22 = VERTEX_POINT('',#23);
#23 = CARTESIAN_POINT('',(14.142135623731,14.,170.85786437626));
#24 = VERTEX_POINT('',#25);
#25 = CARTESIAN_POINT('',(-14.14213562373,14.,199.14213562373));
#26 = SEAM_CURVE('',#27,(#31,#43),.PCURVE_S1.);
#27 = LINE('',#28,#29);
#28 = CARTESIAN_POINT('',(14.142135623731,14.,170.85786437626));
#29 = VECTOR('',#30,1.);
#30 = DIRECTION('',(-0.707106781187,7.850462293419E-17,0.707106781187));
#31 = PCURVE('',#32,#37);
#32 = CYLINDRICAL_SURFACE('',#33,4.);
#33 = AXIS2_PLACEMENT_3D('',#34,#35,#36);
#34 = CARTESIAN_POINT('',(14.142135623731,10.,170.85786437626));
#35 = DIRECTION('',(-0.707106781187,7.850462293419E-17,0.707106781187));
#36 = DIRECTION('',(1.110223024625E-16,1.,0.));
#37 = DEFINITIONAL_REPRESENTATION('',(#38),#42);
#38 = LINE('',#39,#40);
#39 = CARTESIAN_POINT('',(6.28318530718,-0.));
#40 = VECTOR('',#41,1.);
#41 = DIRECTION('',(0.,1.));
#42 = ( GEOMETRIC_REPRESENTATION_CONTEXT(2) 
PARAMETRIC_REPRESENTATION_CONTEXT() REPRESENTATION_CONTEXT('2D SPACE',''
  ) );
#43 = PCURVE('',#32,#44);
#44 = DEFINITIONAL_REPRESENTATION('',(#45),#49);
#45 = LINE('',#46,#47);
#46 = CARTESIAN_POINT('',(0.,-0.));
#47 = VECTOR('',#48,1.);
#48 = DIRECTION('',(0.,1.));
#49 = ( GEOMETRIC_REPRESENTATION_CONTEXT(2) 
PARAMETRIC_REPRESENTATION_CONTEXT() REPRESENTATION_CONTEXT('2D SPACE',''
  ) );
#50 = ORIENTED_EDGE('',*,*,#51,.F.);
#51 = EDGE_CURVE('',#24,#24,#52,.T.);
#52 = SURFACE_CURVE('',#53,(#58,#65),.PCURVE_S1.);
#53 = CIRCLE('',#54,4.);
#54 = AXIS2_PLACEMENT_3D('',#55,#56,#57);
#55 = CARTESIAN_POINT('',(-14.14213562373,10.,199.14213562373));
#56 = DIRECTION('',(-0.707106781187,7.850462293419E-17,0.707106781187));
#57 = DIRECTION('',(1.110223024625E-16,1.,0.));
#58 = PCURVE('',#32,#59);
#59 = DEFINITIONAL_REPRESENTATION('',(#60),#64);
#60 = LINE('',#61,#62);
#61 = CARTESIAN_POINT('',(0.,40.));
#62 = VECTOR('',#63,1.);
#63 = DIRECTION('',(1.,0.));
#64 = ( GEOMETRIC_REPRESENTATION_CONTEXT(2) 
PARAMETRIC_REPRESENTATION_CONTEXT() REPRESENTATION_CONTEXT('2D SPACE',''
  ) );
#65 = PCURVE('',#66,#71);
#66 = PLANE('',#67);
#67 = AXIS2_PLACEMENT_3D('',#68,#69,#70);
#68 = CARTESIAN_POINT('',(-14.14213562373,10.,199.14213562373));
#69 = DIRECTION('',(-0.707106781187,7.850462293419E-17,0.707106781187));
#70 = DIRECTION('',(1.110223024625E-16,1.,0.));
#71 = DEFINITIONAL_REPRESENTATION('',(#72),#76);
#72 = CIRCLE('',#73,4.);
#73 = AXIS2_PLACEMENT_2D('',#74,#75);
#74 = CARTESIAN_POINT('',(0.,0.));
#75 = DIRECTION('',(1.,0.));
#76 = ( GEOMETRIC_REPRESENTATION_CONTEXT(2) 
PARAMETRIC_REPRESENTATION_CONTEXT() REPRESENTATION_CONTEXT('2D SPACE',''
  ) );
#77 = ORIENTED_EDGE('',*,*,#21,.F.);
#78 = ORIENTED_EDGE('',*,*,#79,.T.);
#79 = EDGE_CURVE('',#22,#22,#80,.T.);
#80 = SURFACE_CURVE('',#81,(#86,#93),.PCURVE_S1.);
#81 = CIRCLE('',#82,4.);
#82 = AXIS2_PLACEMENT_3D('',#83,#84,#85);
#83 = CARTESIAN_POINT('',(14.142135623731,10.,170.85786437626));
#84 = DIRECTION('',(-0.707106781187,7.850462293419E-17,0.707106781187));
#85 = DIRECTION('',(1.110223024625E-16,1.,0.));
#86 = PCURVE('',#32,#87);
#87 = DEFINITIONAL_REPRESENTATION('',(#88),#92);
#88 = LINE('',#89,#90);
#89 = CARTESIAN_POINT('',(0.,0.));
#90 = VECTOR('',#91,1.);
#91 = DIRECTION('',(1.,0.));
#92 = ( GEOMETRIC_REPRESENTATION_CONTEXT(2) 
PARAMETRIC_REPRESENTATION_CONTEXT() REPRESENTATION_CONTEXT('2D SPACE',''
  ) );
#93 = PCURVE('',#94,#99);
#94 = PLANE('',#95);
#95 = AXIS2_PLACEMENT_3D('',#96,#97,#98);
#96 = CARTESIAN_POINT('',(14.142135623731,10.,170.85786437626));
#97 = DIRECTION('',(-0.707106781187,7.850462293419E-17,0.707106781187));
#98 = DIRECTION('',(1.110223024625E-16,1.,0.));
#99 = DEFINITIONAL_REPRESENTATION('',(#100),#104);
#100 = CIRCLE('',#101,4.);
#101 = AXIS2_PLACEMENT_2D('',#102,#103);
#102 = CARTESIAN_POINT('',(0.,0.));
#103 = DIRECTION('',(1.,0.));
#104 = ( GEOMETRIC_REPRESENTATION_CONTEXT(2) 
PARAMETRIC_REPRESENTATION_CONTEXT() REPRESENTATION_CONTEXT('2D SPACE',''
  ) );
#105 = FACE_BOUND('',#106,.T.);
#106 = EDGE_LOOP('',(#107,#344));
#107 = ORIENTED_EDGE('',*,*,#108,.F.);
#108 = EDGE_CURVE('',#109,#111,#113,.T.);
#109 = VERTEX_POINT('',#110);
#110 = CARTESIAN_POINT('',(-0.656771842425,9.978409229281,180.));
#111 = VERTEX_POINT('',#112);
#112 = CARTESIAN_POINT('',(7.633471406711,6.459885005395,180.));
#113 = SURFACE_CURVE('',#114,(#187,#263),.PCURVE_S1.);
#114 = B_SPLINE_CURVE_WITH_KNOTS('',8,(#115,#116,#117,#118,#119,#120,
    #121,#122,#123,#124,#125,#126,#127,#128,#129,#130,#131,#132,#133,
    #134,#135,#136,#137,#138,#139,#140,#141,#142,#143,#144,#145,#146,
    #147,#148,#149,#150,#151,#152,#153,#154,#155,#156,#157,#158,#159,
    #160,#161,#162,#163,#164,#165,#166,#167,#168,#169,#170,#171,#172,
    #173,#174,#175,#176,#177,#178,#179,#180,#181,#182,#183,#184,#185,
    #186),.UNSPECIFIED.,.F.,.F.,(9,7,7,7,7,7,7,7,7,7,9),(0.,
    5.52553651635E-02,9.689687944946E-02,0.440578646832,0.531831439031,
    0.592101934167,0.636073193577,0.683410354621,0.720898447243,
    0.915901305264,1.),.UNSPECIFIED.);
#115 = CARTESIAN_POINT('',(-0.656772442123,9.978409189809,180.0000006));
#116 = CARTESIAN_POINT('',(-0.57471976904,9.983809843707,179.9179067004)
  );
#117 = CARTESIAN_POINT('',(-0.492645621027,9.988437409043,
    179.83580900847));
#118 = CARTESIAN_POINT('',(-0.410555357392,9.992292609151,
    179.75370698318));
#119 = CARTESIAN_POINT('',(-0.328453624861,9.995376046679,
    179.67160055252));
#120 = CARTESIAN_POINT('',(-0.24634435758,9.997688203592,179.58949011344
    ));
#121 = CARTESIAN_POINT('',(-0.164230777117,9.999229441167,
    179.50737653193));
#122 = CARTESIAN_POINT('',(-8.211539245522E-02,10.,179.42526114296));
#123 = CARTESIAN_POINT('',(6.188375152172E-02,10.,179.28126199898));
#124 = CARTESIAN_POINT('',(0.123767496592,9.999562315316,179.21937825547
    ));
#125 = CARTESIAN_POINT('',(0.185650466359,9.998686976578,179.15749528624
    ));
#126 = CARTESIAN_POINT('',(0.24753211693,9.997373908479,179.09561401369)
  );
#127 = CARTESIAN_POINT('',(0.309412129366,9.995622929776,179.03373551633
    ));
#128 = CARTESIAN_POINT('',(0.371290409685,9.99343375329,178.9718610288)
  );
#129 = CARTESIAN_POINT('',(0.433167088862,9.990805985909,178.90999194186
    ));
#130 = CARTESIAN_POINT('',(1.005721802082,9.962427298196,178.33756024722
    ));
#131 = CARTESIAN_POINT('',(1.502025455303,9.907913506073,177.84175245391
    ));
#132 = CARTESIAN_POINT('',(1.995115119147,9.826285968541,177.35057630317
    ));
#133 = CARTESIAN_POINT('',(2.494982456723,9.71548916651,176.85667776473)
  );
#134 = CARTESIAN_POINT('',(3.00746069213,9.570558373309,176.35818282612)
  );
#135 = CARTESIAN_POINT('',(3.533403320514,9.385559792338,175.86218659918
    ));
#136 = CARTESIAN_POINT('',(4.069196226898,9.154685433507,175.38645219825
    ));
#137 = CARTESIAN_POINT('',(4.74931206314,8.801697636761,174.852535156));
#138 = CARTESIAN_POINT('',(4.892106699584,8.724258092829,174.7443217782)
  );
#139 = CARTESIAN_POINT('',(5.036757587921,8.642405850094,174.63904315372
    ));
#140 = CARTESIAN_POINT('',(5.184513000575,8.555135565704,174.5365783599)
  );
#141 = CARTESIAN_POINT('',(5.336101589255,8.461531913196,174.43759811129
    ));
#142 = CARTESIAN_POINT('',(5.49174603186,8.360834633424,174.34360000358)
  );
#143 = CARTESIAN_POINT('',(5.651202794738,8.252506129913,174.25693842875
    ));
#144 = CARTESIAN_POINT('',(5.921238447044,8.059551036226,174.13059384695
    ));
#145 = CARTESIAN_POINT('',(6.030579132952,7.978973526088,174.08469450663
    ));
#146 = CARTESIAN_POINT('',(6.142579261094,7.893800301101,174.04374912452
    ));
#147 = CARTESIAN_POINT('',(6.257576555092,7.80342577205,174.00895470268)
  );
#148 = CARTESIAN_POINT('',(6.375533030052,7.707439070256,173.98211559441
    ));
#149 = CARTESIAN_POINT('',(6.496058282048,7.605673314723,173.96565565069
    ));
#150 = CARTESIAN_POINT('',(6.61844030615,7.498272613816,173.96263417987)
  );
#151 = CARTESIAN_POINT('',(6.831598045955,7.303703764921,173.98707560238
    ));
#152 = CARTESIAN_POINT('',(6.921750148986,7.219120353903,174.00649008674
    ));
#153 = CARTESIAN_POINT('',(7.009989268328,7.133866231972,174.03617516846
    ));
#154 = CARTESIAN_POINT('',(7.094659702401,7.049624546468,174.07651767541
    ));
#155 = CARTESIAN_POINT('',(7.174512076493,6.967938925511,174.12708512879
    ));
#156 = CARTESIAN_POINT('',(7.248621023822,6.890195557797,174.18659079627
    ));
#157 = CARTESIAN_POINT('',(7.316303820152,6.817608835619,174.25285810523
    ));
#158 = CARTESIAN_POINT('',(7.442413747461,6.679809553612,174.39805131661
    ));
#159 = CARTESIAN_POINT('',(7.500686223991,6.614548216951,174.47865302735
    ));
#160 = CARTESIAN_POINT('',(7.552709893341,6.555064003745,174.5631413547)
  );
#161 = CARTESIAN_POINT('',(7.599245894295,6.500908478844,174.65035308435
    ));
#162 = CARTESIAN_POINT('',(7.640970746791,6.451611146985,174.73940254632
    ));
#163 = CARTESIAN_POINT('',(7.678485511287,6.40670087478,174.82967907698)
  );
#164 = CARTESIAN_POINT('',(7.712321790534,6.365723387495,174.92084354461
    ));
#165 = CARTESIAN_POINT('',(7.767195916832,6.298582077741,175.0856667004)
  );
#166 = CARTESIAN_POINT('',(7.789440188199,6.271100010721,175.15904558012
    ));
#167 = CARTESIAN_POINT('',(7.809854367802,6.245663416456,175.23277298661
    ));
#168 = CARTESIAN_POINT('',(7.828598347528,6.222132443309,175.30671101439
    ));
#169 = CARTESIAN_POINT('',(7.845815974932,6.200374024541,175.38077161149
    ));
#170 = CARTESIAN_POINT('',(7.861636096984,6.180263291743,175.45491674719
    ));
#171 = CARTESIAN_POINT('',(7.876173603819,6.161684988261,175.52915857972
    ));
#172 = CARTESIAN_POINT('',(7.959009269087,6.055324699351,175.99057361291
    ));
#173 = CARTESIAN_POINT('',(7.998168419695,6.002666347095,176.39098366469
    ));
#174 = CARTESIAN_POINT('',(8.014612471441,5.980291584083,176.79143876531
    ));
#175 = CARTESIAN_POINT('',(8.013381012655,5.982028474197,177.18528408812
    ));
#176 = CARTESIAN_POINT('',(7.997864961533,6.003057212779,177.57080545809
    ));
#177 = CARTESIAN_POINT('',(7.969993417011,6.040306855604,177.94988819937
    ));
#178 = CARTESIAN_POINT('',(7.930208310495,6.092551817695,178.32697223305
    ));
#179 = CARTESIAN_POINT('',(7.854405086342,6.189482652581,178.87233753949
    ));
#180 = CARTESIAN_POINT('',(7.829317042548,6.221308245266,179.03593660121
    ));
#181 = CARTESIAN_POINT('',(7.802028119786,6.25560978501,179.19874437345)
  );
#182 = CARTESIAN_POINT('',(7.772574176769,6.292253403282,179.36071720205
    ));
#183 = CARTESIAN_POINT('',(7.740980875422,6.331114077459,179.52182900218
    ));
#184 = CARTESIAN_POINT('',(7.70726381299,6.372075834507,179.68207124292)
  );
#185 = CARTESIAN_POINT('',(7.671428654138,6.415031954667,179.84145293192
    ));
#186 = CARTESIAN_POINT('',(7.633471263066,6.459885175136,180.0000006));
#187 = PCURVE('',#32,#188);
#188 = DEFINITIONAL_REPRESENTATION('',(#189),#262);
#189 = B_SPLINE_CURVE_WITH_KNOTS('',8,(#190,#191,#192,#193,#194,#195,
    #196,#197,#198,#199,#200,#201,#202,#203,#204,#205,#206,#207,#208,
    #209,#210,#211,#212,#213,#214,#215,#216,#217,#218,#219,#220,#221,
    #222,#223,#224,#225,#226,#227,#228,#229,#230,#231,#232,#233,#234,
    #235,#236,#237,#238,#239,#240,#241,#242,#243,#244,#245,#246,#247,
    #248,#249,#250,#251,#252,#253,#254,#255,#256,#257,#258,#259,#260,
    #261),.UNSPECIFIED.,.F.,.F.,(9,7,7,7,7,7,7,7,7,7,9),(0.,
    5.52553651635E-02,9.689687944946E-02,0.440578646832,0.531831439031,
    0.592101934167,0.636073193577,0.683410354621,0.720898447243,
    0.915901305264,1.),.UNSPECIFIED.);
#190 = CARTESIAN_POINT('',(1.576194055553,16.928874765853));
#191 = CARTESIAN_POINT('',(1.57484387241,16.812805611203));
#192 = CARTESIAN_POINT('',(1.573686973974,16.696718589901));
#193 = CARTESIAN_POINT('',(1.572723173401,16.580617108986));
#194 = CARTESIAN_POINT('',(1.571952315677,16.464504403261));
#195 = CARTESIAN_POINT('',(1.571374277607,16.348383535292));
#196 = CARTESIAN_POINT('',(1.570988967827,16.232257395404));
#197 = CARTESIAN_POINT('',(1.570796326795,16.11612870169));
#198 = CARTESIAN_POINT('',(1.570796326795,15.912483159307));
#199 = CARTESIAN_POINT('',(1.57090574822,15.824966328842));
#200 = CARTESIAN_POINT('',(1.571124582987,15.737450594098));
#201 = CARTESIAN_POINT('',(1.571452849805,15.649936991899));
#202 = CARTESIAN_POINT('',(1.571890594172,15.562426510393));
#203 = CARTESIAN_POINT('',(1.572437888382,15.474920089056));
#204 = CARTESIAN_POINT('',(1.573094831516,15.387418618693));
#205 = CARTESIAN_POINT('',(1.580189536773,14.577790965326));
#206 = CARTESIAN_POINT('',(1.59381847015,13.876262233793));
#207 = CARTESIAN_POINT('',(1.614224979227,13.180281201807));
#208 = CARTESIAN_POINT('',(1.641937150334,12.477582611961));
#209 = CARTESIAN_POINT('',(1.678203332326,11.762716625026));
#210 = CARTESIAN_POINT('',(1.724658051711,11.040096730461));
#211 = CARTESIAN_POINT('',(1.783034486113,10.324838912105));
#212 = CARTESIAN_POINT('',(1.874988084579,9.466388031139));
#213 = CARTESIAN_POINT('',(1.895285912482,9.288898562136));
#214 = CARTESIAN_POINT('',(1.916890831823,9.112171708805));
#215 = CARTESIAN_POINT('',(1.940117023913,8.935239304015));
#216 = CARTESIAN_POINT('',(1.965278351428,8.758060380017));
#217 = CARTESIAN_POINT('',(1.992684080527,8.581536439813));
#218 = CARTESIAN_POINT('',(2.022642952009,8.407504494245));
#219 = CARTESIAN_POINT('',(2.077160856208,8.127221342787));
#220 = CARTESIAN_POINT('',(2.100210616823,8.017450067529));
#221 = CARTESIAN_POINT('',(2.124918900644,7.909301260076));
#222 = CARTESIAN_POINT('',(2.151571219931,7.803382522037));
#223 = CARTESIAN_POINT('',(2.18044208834,7.700996583256));
#224 = CARTESIAN_POINT('',(2.21179879484,7.604133422439));
#225 = CARTESIAN_POINT('',(2.245911445127,7.515459760794));
#226 = CARTESIAN_POINT('',(2.310178329059,7.382017173112));
#227 = CARTESIAN_POINT('',(2.338841749084,7.33199812327));
#228 = CARTESIAN_POINT('',(2.368628130482,7.290594166198));
#229 = CARTESIAN_POINT('',(2.399117045484,7.259249588336));
#230 = CARTESIAN_POINT('',(2.429875559432,7.238542022317));
#231 = CARTESIAN_POINT('',(2.460433145803,7.228215944108));
#232 = CARTESIAN_POINT('',(2.490251870388,7.227215043386));
#233 = CARTESIAN_POINT('',(2.549302345964,7.240708962959));
#234 = CARTESIAN_POINT('',(2.578759612682,7.25649811589));
#235 = CARTESIAN_POINT('',(2.607078925241,7.279454095709));
#236 = CARTESIAN_POINT('',(2.634297649486,7.308216179297));
#237 = CARTESIAN_POINT('',(2.660473183973,7.341679731578));
#238 = CARTESIAN_POINT('',(2.685684233335,7.378987934215));
#239 = CARTESIAN_POINT('',(2.710032282622,7.41952508498));
#240 = CARTESIAN_POINT('',(2.752341710763,7.497270789318));
#241 = CARTESIAN_POINT('',(2.770584180177,7.533428417636));
#242 = CARTESIAN_POINT('',(2.788393323771,7.571126561897));
#243 = CARTESIAN_POINT('',(2.805794503869,7.610154647555));
#244 = CARTESIAN_POINT('',(2.822816310572,7.650348696889));
#245 = CARTESIAN_POINT('',(2.839491070153,7.691590709553));
#246 = CARTESIAN_POINT('',(2.855855353444,7.733808043118));
#247 = CARTESIAN_POINT('',(2.955672975399,8.001504081395));
#248 = CARTESIAN_POINT('',(3.034077598491,8.256947043324));
#249 = CARTESIAN_POINT('',(3.107497263982,8.528483860024));
#250 = CARTESIAN_POINT('',(3.176483488765,8.807845331393));
#251 = CARTESIAN_POINT('',(3.241774224376,9.091421611344));
#252 = CARTESIAN_POINT('',(3.304318385363,9.379181746479));
#253 = CARTESIAN_POINT('',(3.365216001217,9.673952742373));
#254 = CARTESIAN_POINT('',(3.451688490092,10.113185222616));
#255 = CARTESIAN_POINT('',(3.477422579242,10.246607154449));
#256 = CARTESIAN_POINT('',(3.502849317566,10.381025816564));
#257 = CARTESIAN_POINT('',(3.527982188116,10.516384984877));
#258 = CARTESIAN_POINT('',(3.55283413015,10.652648068898));
#259 = CARTESIAN_POINT('',(3.577417905297,10.789798007447));
#260 = CARTESIAN_POINT('',(3.601746463723,10.927837164363));
#261 = CARTESIAN_POINT('',(3.62583331029,11.066787224225));
#262 = ( GEOMETRIC_REPRESENTATION_CONTEXT(2) 
PARAMETRIC_REPRESENTATION_CONTEXT() REPRESENTATION_CONTEXT('2D SPACE',''
  ) );
#263 = PCURVE('',#264,#269);
#264 = CYLINDRICAL_SURFACE('',#265,10.);
#265 = AXIS2_PLACEMENT_3D('',#266,#267,#268);
#266 = CARTESIAN_POINT('',(0.,0.,150.));
#267 = DIRECTION('',(0.,0.,1.));
#268 = DIRECTION('',(1.,0.,0.));
#269 = DEFINITIONAL_REPRESENTATION('',(#270),#343);
#270 = B_SPLINE_CURVE_WITH_KNOTS('',8,(#271,#272,#273,#274,#275,#276,
    #277,#278,#279,#280,#281,#282,#283,#284,#285,#286,#287,#288,#289,
    #290,#291,#292,#293,#294,#295,#296,#297,#298,#299,#300,#301,#302,
    #303,#304,#305,#306,#307,#308,#309,#310,#311,#312,#313,#314,#315,
    #316,#317,#318,#319,#320,#321,#322,#323,#324,#325,#326,#327,#328,
    #329,#330,#331,#332,#333,#334,#335,#336,#337,#338,#339,#340,#341,
    #342),.UNSPECIFIED.,.F.,.F.,(9,7,7,7,7,7,7,7,7,7,9),(0.,
    5.52553651635E-02,9.689687944946E-02,0.440578646832,0.531831439031,
    0.592101934167,0.636073193577,0.683410354621,0.720898447243,
    0.915901305264,1.),.UNSPECIFIED.);
#271 = CARTESIAN_POINT('',(1.636520879364,30.0000006));
#272 = CARTESIAN_POINT('',(1.628297857886,29.917906700403));
#273 = CARTESIAN_POINT('',(1.620077770104,29.835809008475));
#274 = CARTESIAN_POINT('',(1.611860300522,29.753706983189));
#275 = CARTESIAN_POINT('',(1.603645064264,29.671600552521));
#276 = CARTESIAN_POINT('',(1.59543160708,29.589490113444));
#277 = CARTESIAN_POINT('',(1.587219405341,29.507376531933));
#278 = CARTESIAN_POINT('',(1.57900786604,29.425261142963));
#279 = CARTESIAN_POINT('',(1.564607951643,29.281261998986));
#280 = CARTESIAN_POINT('',(1.558419576686,29.219378255475));
#281 = CARTESIAN_POINT('',(1.552230918506,29.157495286247));
#282 = CARTESIAN_POINT('',(1.546041670439,29.095614013696));
#283 = CARTESIAN_POINT('',(1.539851502575,29.033735516336));
#284 = CARTESIAN_POINT('',(1.533660061758,28.971861028807));
#285 = CARTESIAN_POINT('',(1.527466971586,28.909991941868));
#286 = CARTESIAN_POINT('',(1.470141213889,28.337560247223));
#287 = CARTESIAN_POINT('',(1.420301874735,27.841752453917));
#288 = CARTESIAN_POINT('',(1.370445324055,27.35057630317));
#289 = CARTESIAN_POINT('',(1.319404319935,26.85667776473));
#290 = CARTESIAN_POINT('',(1.266338255599,26.358182826129));
#291 = CARTESIAN_POINT('',(1.210796187184,25.862186599182));
#292 = CARTESIAN_POINT('',(1.152605045015,25.386452198252));
#293 = CARTESIAN_POINT('',(1.075978813517,24.852535156001));
#294 = CARTESIAN_POINT('',(1.059737380924,24.744321778202));
#295 = CARTESIAN_POINT('',(1.043121526957,24.639043153723));
#296 = CARTESIAN_POINT('',(1.025967374403,24.5365783599));
#297 = CARTESIAN_POINT('',(1.008158916304,24.437598111297));
#298 = CARTESIAN_POINT('',(0.989628627117,24.34360000358));
#299 = CARTESIAN_POINT('',(0.970356730122,24.25693842875));
#300 = CARTESIAN_POINT('',(0.937167737715,24.130593846959));
#301 = CARTESIAN_POINT('',(0.923586831778,24.084694506638));
#302 = CARTESIAN_POINT('',(0.909518783949,24.043749124526));
#303 = CARTESIAN_POINT('',(0.89489669551,24.00895470268));
#304 = CARTESIAN_POINT('',(0.879693820015,23.982115594419));
#305 = CARTESIAN_POINT('',(0.863924238434,23.965655650693));
#306 = CARTESIAN_POINT('',(0.847644777781,23.962634179872));
#307 = CARTESIAN_POINT('',(0.818784206234,23.98707560238));
#308 = CARTESIAN_POINT('',(0.80642342393,24.006490086746));
#309 = CARTESIAN_POINT('',(0.794155980038,24.036175168461));
#310 = CARTESIAN_POINT('',(0.782214474081,24.076517675415));
#311 = CARTESIAN_POINT('',(0.770793194943,24.127085128799));
#312 = CARTESIAN_POINT('',(0.760053639352,24.186590796279));
#313 = CARTESIAN_POINT('',(0.750129460736,24.252858105233));
#314 = CARTESIAN_POINT('',(0.731449965056,24.398051316612));
#315 = CARTESIAN_POINT('',(0.722701487657,24.478653027356));
#316 = CARTESIAN_POINT('',(0.714799702016,24.563141354703));
#317 = CARTESIAN_POINT('',(0.707659828064,24.65035308435));
#318 = CARTESIAN_POINT('',(0.701201640983,24.739402546326));
#319 = CARTESIAN_POINT('',(0.695350074056,24.82967907698));
#320 = CARTESIAN_POINT('',(0.690035958775,24.920843544619));
#321 = CARTESIAN_POINT('',(0.68136466982,25.085666700408));
#322 = CARTESIAN_POINT('',(0.677829072403,25.159045580124));
#323 = CARTESIAN_POINT('',(0.674567586642,25.232772986619));
#324 = CARTESIAN_POINT('',(0.671559229416,25.306711014396));
#325 = CARTESIAN_POINT('',(0.668784588946,25.380771611494));
#326 = CARTESIAN_POINT('',(0.666225855937,25.454916747196));
#327 = CARTESIAN_POINT('',(0.663866854733,25.529158579725));
#328 = CARTESIAN_POINT('',(0.650385660982,25.990573612918));
#329 = CARTESIAN_POINT('',(0.643824996357,26.390983664695));
#330 = CARTESIAN_POINT('',(0.641047240995,26.791438765314));
#331 = CARTESIAN_POINT('',(0.641260708218,27.185284088121));
#332 = CARTESIAN_POINT('',(0.643873800483,27.570805458094));
#333 = CARTESIAN_POINT('',(0.648526050986,27.949888199379));
#334 = CARTESIAN_POINT('',(0.655092374964,28.326972233054));
#335 = CARTESIAN_POINT('',(0.667397542798,28.872337539496));
#336 = CARTESIAN_POINT('',(0.671450015678,29.035936601217));
#337 = CARTESIAN_POINT('',(0.675833182781,29.198744373454));
#338 = CARTESIAN_POINT('',(0.680534428575,29.360717202057));
#339 = CARTESIAN_POINT('',(0.685542541186,29.521829002184));
#340 = CARTESIAN_POINT('',(0.690847737945,29.682071242925));
#341 = CARTESIAN_POINT('',(0.696441690928,29.841452931922));
#342 = CARTESIAN_POINT('',(0.702317552502,30.0000006));
#343 = ( GEOMETRIC_REPRESENTATION_CONTEXT(2) 
PARAMETRIC_REPRESENTATION_CONTEXT() REPRESENTATION_CONTEXT('2D SPACE',''
  ) );
#344 = ORIENTED_EDGE('',*,*,#345,.T.);
#345 = EDGE_CURVE('',#109,#111,#346,.T.);
#346 = SURFACE_CURVE('',#347,(#352,#372),.PCURVE_S1.);
#347 = ELLIPSE('',#348,5.656854249492,4.);
#348 = AXIS2_PLACEMENT_3D('',#349,#350,#351);
#349 = CARTESIAN_POINT('',(5.,10.,180.));
#350 = DIRECTION('',(0.,0.,1.));
#351 = DIRECTION('',(-1.,1.110223024625E-16,0.));
#352 = PCURVE('',#32,#353);
#353 = DEFINITIONAL_REPRESENTATION('',(#354),#371);
#354 = B_SPLINE_CURVE_WITH_KNOTS('',8,(#355,#356,#357,#358,#359,#360,
    #361,#362,#363,#364,#365,#366,#367,#368,#369,#370),.UNSPECIFIED.,.F.
  ,.F.,(9,7,9),(5.759586531581,7.853981633974,9.948376736368),
  .UNSPECIFIED.);
#355 = CARTESIAN_POINT('',(1.047197551197,16.393033803273));
#356 = CARTESIAN_POINT('',(1.308996938996,16.916632578871));
#357 = CARTESIAN_POINT('',(1.570796326793,17.168886156198));
#358 = CARTESIAN_POINT('',(1.832595714595,17.095122297083));
#359 = CARTESIAN_POINT('',(2.094395102387,16.680280961256));
#360 = CARTESIAN_POINT('',(2.356194490191,15.961143619934));
#361 = CARTESIAN_POINT('',(2.617993877989,15.023329130116));
#362 = CARTESIAN_POINT('',(2.879793265791,13.976129739331));
#363 = CARTESIAN_POINT('',(3.403392041389,11.881734636938));
#364 = CARTESIAN_POINT('',(3.665191429187,10.834535246137));
#365 = CARTESIAN_POINT('',(3.926990816975,9.89672075638));
#366 = CARTESIAN_POINT('',(4.188790204789,9.177583414959));
#367 = CARTESIAN_POINT('',(4.450589592576,8.762742079205));
#368 = CARTESIAN_POINT('',(4.712388980386,8.688978220056));
#369 = CARTESIAN_POINT('',(4.974188368184,8.941231797398));
#370 = CARTESIAN_POINT('',(5.235987755983,9.464830572997));
#371 = ( GEOMETRIC_REPRESENTATION_CONTEXT(2) 
PARAMETRIC_REPRESENTATION_CONTEXT() REPRESENTATION_CONTEXT('2D SPACE',''
  ) );
#372 = PCURVE('',#373,#378);
#373 = PLANE('',#374);
#374 = AXIS2_PLACEMENT_3D('',#375,#376,#377);
#375 = CARTESIAN_POINT('',(0.,0.,180.));
#376 = DIRECTION('',(0.,0.,1.));
#377 = DIRECTION('',(1.,0.,0.));
#378 = DEFINITIONAL_REPRESENTATION('',(#379),#383);
#379 = ELLIPSE('',#380,5.656854249492,4.);
#380 = AXIS2_PLACEMENT_2D('',#381,#382);
#381 = CARTESIAN_POINT('',(5.,10.));
#382 = DIRECTION('',(-1.,1.110223024625E-16));
#383 = ( GEOMETRIC_REPRESENTATION_CONTEXT(2) 
PARAMETRIC_REPRESENTATION_CONTEXT() REPRESENTATION_CONTEXT('2D SPACE',''
  ) );
#384 = FACE_BOUND('',#385,.T.);
#385 = EDGE_LOOP('',(#386,#437,#498,#540));
#386 = ORIENTED_EDGE('',*,*,#387,.F.);
#387 = EDGE_CURVE('',#388,#390,#392,.T.);
#388 = VERTEX_POINT('',#389);
#389 = CARTESIAN_POINT('',(-10.58583348211,6.647565681429,192.5));
#390 = VERTEX_POINT('',#391);
#391 = CARTESIAN_POINT('',(-2.766356657029,12.190048024766,192.5));
#392 = SURFACE_CURVE('',#393,(#398,#425),.PCURVE_S1.);
#393 = ELLIPSE('',#394,5.656854249492,4.);
#394 = AXIS2_PLACEMENT_3D('',#395,#396,#397);
#395 = CARTESIAN_POINT('',(-7.5,10.,192.5));
#396 = DIRECTION('',(0.,0.,1.));
#397 = DIRECTION('',(-1.,1.110223024625E-16,0.));
#398 = PCURVE('',#32,#399);
#399 = DEFINITIONAL_REPRESENTATION('',(#400),#424);
#400 = B_SPLINE_CURVE_WITH_KNOTS('',8,(#401,#402,#403,#404,#405,#406,
    #407,#408,#409,#410,#411,#412,#413,#414,#415,#416,#417,#418,#419,
    #420,#421,#422,#423),.UNSPECIFIED.,.F.,.F.,(9,7,7,9),(0.993806637303
    ,1.178097245096,2.94524311274,3.720980757723),.UNSPECIFIED.);
#401 = CARTESIAN_POINT('',(2.564602964098,32.788615496013));
#402 = CARTESIAN_POINT('',(2.587639290072,32.71138771923));
#403 = CARTESIAN_POINT('',(2.610675616046,32.632836589861));
#404 = CARTESIAN_POINT('',(2.63371194202,32.553024558954));
#405 = CARTESIAN_POINT('',(2.656748267994,32.472015575725));
#406 = CARTESIAN_POINT('',(2.679784593969,32.389874981029));
#407 = CARTESIAN_POINT('',(2.702820919943,32.306669396182));
#408 = CARTESIAN_POINT('',(2.725857245917,32.222466607546));
#409 = CARTESIAN_POINT('',(2.969786805347,31.321020498219));
#410 = CARTESIAN_POINT('',(3.190680038805,30.419344497976));
#411 = CARTESIAN_POINT('',(3.411573272203,29.493008469115));
#412 = CARTESIAN_POINT('',(3.632466505766,28.611566871172));
#413 = CARTESIAN_POINT('',(3.853359739126,27.844084327633));
#414 = CARTESIAN_POINT('',(4.074252972631,27.246985746748));
#415 = CARTESIAN_POINT('',(4.29514620608,26.855837124369));
#416 = CARTESIAN_POINT('',(4.613006645158,26.607791142705));
#417 = CARTESIAN_POINT('',(4.709973850779,26.574279347694));
#418 = CARTESIAN_POINT('',(4.806941056403,26.584009072903));
#419 = CARTESIAN_POINT('',(4.903908262025,26.637219258113));
#420 = CARTESIAN_POINT('',(5.000875467645,26.733270067528));
#421 = CARTESIAN_POINT('',(5.097842673264,26.870653258827));
#422 = CARTESIAN_POINT('',(5.194809878885,27.047047609233));
#423 = CARTESIAN_POINT('',(5.291777084506,27.259410433634));
#424 = ( GEOMETRIC_REPRESENTATION_CONTEXT(2) 
PARAMETRIC_REPRESENTATION_CONTEXT() REPRESENTATION_CONTEXT('2D SPACE',''
  ) );
#425 = PCURVE('',#426,#431);
#426 = PLANE('',#427);
#427 = AXIS2_PLACEMENT_3D('',#428,#429,#430);
#428 = CARTESIAN_POINT('',(0.,0.,192.5));
#429 = DIRECTION('',(0.,0.,1.));
#430 = DIRECTION('',(1.,0.,0.));
#431 = DEFINITIONAL_REPRESENTATION('',(#432),#436);
#432 = ELLIPSE('',#433,5.656854249492,4.);
#433 = AXIS2_PLACEMENT_2D('',#434,#435);
#434 = CARTESIAN_POINT('',(-7.5,10.));
#435 = DIRECTION('',(-1.,1.110223024625E-16));
#436 = ( GEOMETRIC_REPRESENTATION_CONTEXT(2) 
PARAMETRIC_REPRESENTATION_CONTEXT() REPRESENTATION_CONTEXT('2D SPACE',''
  ) );
#437 = ORIENTED_EDGE('',*,*,#438,.T.);
#438 = EDGE_CURVE('',#388,#439,#441,.T.);
#439 = VERTEX_POINT('',#440);
#440 = CARTESIAN_POINT('',(-10.87148915576,6.169337366055,197.5));
#441 = SURFACE_CURVE('',#442,(#457,#475),.PCURVE_S1.);
#442 = B_SPLINE_CURVE_WITH_KNOTS('',7,(#443,#444,#445,#446,#447,#448,
    #449,#450,#451,#452,#453,#454,#455,#456),.UNSPECIFIED.,.F.,.F.,(8,6,
    8),(0.,0.658775570943,1.),.UNSPECIFIED.);
#443 = CARTESIAN_POINT('',(-10.58583334758,6.647565895657,192.4999994));
#444 = CARTESIAN_POINT('',(-10.68606865116,6.48794743743,192.9470520451)
  );
#445 = CARTESIAN_POINT('',(-10.76998101186,6.348087821375,
    193.39958956463));
#446 = CARTESIAN_POINT('',(-10.83890356501,6.22888793526,193.85870215313
    ));
#447 = CARTESIAN_POINT('',(-10.89337268654,6.131917651564,
    194.32492557611));
#448 = CARTESIAN_POINT('',(-10.93323292155,6.059550749929,
    194.79800379609));
#449 = CARTESIAN_POINT('',(-10.95758876323,6.015101587389,
    195.27617465859));
#450 = CARTESIAN_POINT('',(-10.96786190786,5.996337086538,
    196.00303510423));
#451 = CARTESIAN_POINT('',(-10.96664015866,5.998557886223,
    196.25066473627));
#452 = CARTESIAN_POINT('',(-10.96046694392,6.00986461986,196.4990552095)
  );
#453 = CARTESIAN_POINT('',(-10.94882550131,6.031148995446,
    196.74882960392));
#454 = CARTESIAN_POINT('',(-10.93092053051,6.063703364645,
    196.99985208734));
#455 = CARTESIAN_POINT('',(-10.90564346691,6.109151289368,
    197.25100919051));
#456 = CARTESIAN_POINT('',(-10.87148907345,6.169337511088,197.5000006));
#457 = PCURVE('',#32,#458);
#458 = DEFINITIONAL_REPRESENTATION('',(#459),#474);
#459 = B_SPLINE_CURVE_WITH_KNOTS('',7,(#460,#461,#462,#463,#464,#465,
    #466,#467,#468,#469,#470,#471,#472,#473),.UNSPECIFIED.,.F.,.F.,(8,6,
    8),(0.,0.658775570943,1.),.UNSPECIFIED.);
#460 = CARTESIAN_POINT('',(2.564602865919,32.788614979225));
#461 = CARTESIAN_POINT('',(2.637754756871,33.175605998999));
#462 = CARTESIAN_POINT('',(2.711443006731,33.554933347075));
#463 = CARTESIAN_POINT('',(2.786148223974,33.928310576437));
#464 = CARTESIAN_POINT('',(2.862337581464,34.296495805582));
#465 = CARTESIAN_POINT('',(2.940488668417,34.659198065438));
#466 = CARTESIAN_POINT('',(3.021068864818,35.014538105689));
#467 = CARTESIAN_POINT('',(3.147831632043,35.535770266005));
#468 = CARTESIAN_POINT('',(3.191772086305,35.710006950902));
#469 = CARTESIAN_POINT('',(3.23676972803,35.881280416893));
#470 = CARTESIAN_POINT('',(3.283168844676,36.049665841952));
#471 = CARTESIAN_POINT('',(3.331272533043,36.21450481594));
#472 = CARTESIAN_POINT('',(3.381341813669,36.374226123653));
#473 = CARTESIAN_POINT('',(3.433608051664,36.526138834532));
#474 = ( GEOMETRIC_REPRESENTATION_CONTEXT(2) 
PARAMETRIC_REPRESENTATION_CONTEXT() REPRESENTATION_CONTEXT('2D SPACE',''
  ) );
#475 = PCURVE('',#476,#481);
#476 = CYLINDRICAL_SURFACE('',#477,12.5);
#477 = AXIS2_PLACEMENT_3D('',#478,#479,#480);
#478 = CARTESIAN_POINT('',(0.,0.,192.5));
#479 = DIRECTION('',(0.,0.,1.));
#480 = DIRECTION('',(1.,0.,0.));
#481 = DEFINITIONAL_REPRESENTATION('',(#482),#497);
#482 = B_SPLINE_CURVE_WITH_KNOTS('',7,(#483,#484,#485,#486,#487,#488,
    #489,#490,#491,#492,#493,#494,#495,#496),.UNSPECIFIED.,.F.,.F.,(8,6,
    8),(1.263084159951E-07,0.658775570943,0.999999882535),
  .UNSPECIFIED.);
#483 = CARTESIAN_POINT('',(2.580861824709,3.648661889649E-13));
#484 = CARTESIAN_POINT('',(2.595940316654,0.447052565698));
#485 = CARTESIAN_POINT('',(2.608985715583,0.899590004764));
#486 = CARTESIAN_POINT('',(2.619999269202,1.358702510692));
#487 = CARTESIAN_POINT('',(2.628896367986,1.824925848231));
#488 = CARTESIAN_POINT('',(2.63550585901,2.298003979459));
#489 = CARTESIAN_POINT('',(2.639560623903,2.776174750408));
#490 = CARTESIAN_POINT('',(2.641272032717,3.503035018851));
#491 = CARTESIAN_POINT('',(2.641069252711,3.750664565782));
#492 = CARTESIAN_POINT('',(2.640038698944,3.999054952978));
#493 = CARTESIAN_POINT('',(2.638097875881,4.248829259991));
#494 = CARTESIAN_POINT('',(2.635125621702,4.499851655281));
#495 = CARTESIAN_POINT('',(2.630965429832,4.751008671759));
#496 = CARTESIAN_POINT('',(2.625429282051,5.));
#497 = ( GEOMETRIC_REPRESENTATION_CONTEXT(2) 
PARAMETRIC_REPRESENTATION_CONTEXT() REPRESENTATION_CONTEXT('2D SPACE',''
  ) );
#498 = ORIENTED_EDGE('',*,*,#499,.T.);
#499 = EDGE_CURVE('',#439,#500,#502,.T.);
#500 = VERTEX_POINT('',#501);
#501 = CARTESIAN_POINT('',(-6.877180555812,10.438121842686,197.5));
#502 = SURFACE_CURVE('',#503,(#508,#528),.PCURVE_S1.);
#503 = ELLIPSE('',#504,5.656854249492,4.);
#504 = AXIS2_PLACEMENT_3D('',#505,#506,#507);
#505 = CARTESIAN_POINT('',(-12.5,10.,197.5));
#506 = DIRECTION('',(0.,0.,1.));
#507 = DIRECTION('',(-1.,1.110223024625E-16,0.));
#508 = PCURVE('',#32,#509);
#509 = DEFINITIONAL_REPRESENTATION('',(#510),#527);
#510 = B_SPLINE_CURVE_WITH_KNOTS('',8,(#511,#512,#513,#514,#515,#516,
    #517,#518,#519,#520,#521,#522,#523,#524,#525,#526),.UNSPECIFIED.,.F.
  ,.F.,(9,7,9),(1.113034207648,2.912711594016,4.712388980385),
  .UNSPECIFIED.);
#511 = CARTESIAN_POINT('',(2.683830534443,39.44543648263));
#512 = CARTESIAN_POINT('',(2.908790207739,38.638241801592));
#513 = CARTESIAN_POINT('',(3.133749881032,37.728805046958));
#514 = CARTESIAN_POINT('',(3.358709554339,36.779380385211));
#515 = CARTESIAN_POINT('',(3.583669227624,35.863221639127));
#516 = CARTESIAN_POINT('',(3.808628900928,35.054662080263));
#517 = CARTESIAN_POINT('',(4.033588574216,34.415624124442));
#518 = CARTESIAN_POINT('',(4.258548247515,33.986148532053));
#519 = CARTESIAN_POINT('',(4.708467594107,33.577823497747));
#520 = CARTESIAN_POINT('',(4.933427267409,33.598973799006));
#521 = CARTESIAN_POINT('',(5.158386940664,33.861176647828));
#522 = CARTESIAN_POINT('',(5.383346614024,34.355868825485));
#523 = CARTESIAN_POINT('',(5.608306287264,35.047548225833));
#524 = CARTESIAN_POINT('',(5.833265960594,35.877991577101));
#525 = CARTESIAN_POINT('',(6.058225633884,36.777830836479));
#526 = CARTESIAN_POINT('',(6.28318530718,37.677669529664));
#527 = ( GEOMETRIC_REPRESENTATION_CONTEXT(2) 
PARAMETRIC_REPRESENTATION_CONTEXT() REPRESENTATION_CONTEXT('2D SPACE',''
  ) );
#528 = PCURVE('',#529,#534);
#529 = PLANE('',#530);
#530 = AXIS2_PLACEMENT_3D('',#531,#532,#533);
#531 = CARTESIAN_POINT('',(0.,0.,197.5));
#532 = DIRECTION('',(0.,0.,1.));
#533 = DIRECTION('',(1.,0.,0.));
#534 = DEFINITIONAL_REPRESENTATION('',(#535),#539);
#535 = ELLIPSE('',#536,5.656854249492,4.);
#536 = AXIS2_PLACEMENT_2D('',#537,#538);
#537 = CARTESIAN_POINT('',(-12.5,10.));
#538 = DIRECTION('',(-1.,1.110223024625E-16));
#539 = ( GEOMETRIC_REPRESENTATION_CONTEXT(2) 
PARAMETRIC_REPRESENTATION_CONTEXT() REPRESENTATION_CONTEXT('2D SPACE',''
  ) );
#540 = ORIENTED_EDGE('',*,*,#541,.T.);
#541 = EDGE_CURVE('',#500,#390,#542,.T.);
#542 = SURFACE_CURVE('',#543,(#558,#576),.PCURVE_S1.);
#543 = B_SPLINE_CURVE_WITH_KNOTS('',7,(#544,#545,#546,#547,#548,#549,
    #550,#551,#552,#553,#554,#555,#556,#557),.UNSPECIFIED.,.F.,.F.,(8,6,
    8),(0.,0.838883954928,1.),.UNSPECIFIED.);
#544 = CARTESIAN_POINT('',(-6.877181099945,10.438121484183,197.5000006)
  );
#545 = CARTESIAN_POINT('',(-6.371007753204,10.771614994368,
    196.94185664611));
#546 = CARTESIAN_POINT('',(-5.869855079814,11.060732255232,
    196.34893697087));
#547 = CARTESIAN_POINT('',(-5.377708740813,11.309831613942,
    195.74510054855));
#548 = CARTESIAN_POINT('',(-4.894650938762,11.52498109332,
    195.14158174538));
#549 = CARTESIAN_POINT('',(-4.416826943901,11.711879804496,
    194.5409637401));
#550 = CARTESIAN_POINT('',(-3.935867096042,11.875426663522,
    193.93783967228));
#551 = CARTESIAN_POINT('',(-3.343891859339,12.044842423182,
    193.20591175526));
#552 = CARTESIAN_POINT('',(-3.248302513074,12.071243441919,
    193.08803553603));
#553 = CARTESIAN_POINT('',(-3.152477597846,12.09675786775,
    192.97022573297));
#554 = CARTESIAN_POINT('',(-3.056393969073,12.121391937193,
    192.85249972549));
#555 = CARTESIAN_POINT('',(-2.960028269206,12.145150137761,
    192.73487496829));
#556 = CARTESIAN_POINT('',(-2.863356927729,12.168035207962,
    192.61736899136));
#557 = CARTESIAN_POINT('',(-2.766356161157,12.190048137297,192.4999994)
  );
#558 = PCURVE('',#32,#559);
#559 = DEFINITIONAL_REPRESENTATION('',(#560),#575);
#560 = B_SPLINE_CURVE_WITH_KNOTS('',7,(#561,#562,#563,#564,#565,#566,
    #567,#568,#569,#570,#571,#572,#573,#574),.UNSPECIFIED.,.F.,.F.,(8,6,
    8),(0.,0.838883954928,1.),.UNSPECIFIED.);
#561 = CARTESIAN_POINT('',(4.822139546451,33.701736580315));
#562 = CARTESIAN_POINT('',(4.906017580428,32.949150599706));
#563 = CARTESIAN_POINT('',(4.9796396292,32.175524622883));
#564 = CARTESIAN_POINT('',(5.044661629718,31.400547780287));
#565 = CARTESIAN_POINT('',(5.102304189992,30.632222094459));
#566 = CARTESIAN_POINT('',(5.153716312503,29.869648443046));
#567 = CARTESIAN_POINT('',(5.199912940702,29.103085354893));
#568 = CARTESIAN_POINT('',(5.24896334589,28.166944457256));
#569 = CARTESIAN_POINT('',(5.256649712885,28.016001508347));
#570 = CARTESIAN_POINT('',(5.264118556543,27.864938950348));
#571 = CARTESIAN_POINT('',(5.271368224714,27.713752706669));
#572 = CARTESIAN_POINT('',(5.278396496137,27.562438603368));
#573 = CARTESIAN_POINT('',(5.285200580439,27.41099236915));
#574 = CARTESIAN_POINT('',(5.291777118138,27.259409635367));
#575 = ( GEOMETRIC_REPRESENTATION_CONTEXT(2) 
PARAMETRIC_REPRESENTATION_CONTEXT() REPRESENTATION_CONTEXT('2D SPACE',''
  ) );
#576 = PCURVE('',#476,#577);
#577 = DEFINITIONAL_REPRESENTATION('',(#578),#593);
#578 = B_SPLINE_CURVE_WITH_KNOTS('',7,(#579,#580,#581,#582,#583,#584,
    #585,#586,#587,#588,#589,#590,#591,#592),.UNSPECIFIED.,.F.,.F.,(8,6,
    8),(1.288277372722E-07,0.838883954928,0.999999882338),
  .UNSPECIFIED.);
#579 = CARTESIAN_POINT('',(8.436554760551,4.999999999999));
#580 = CARTESIAN_POINT('',(8.388062007544,4.441856099783));
#581 = CARTESIAN_POINT('',(8.341857914097,3.848936507218));
#582 = CARTESIAN_POINT('',(8.297830007754,3.245100177821));
#583 = CARTESIAN_POINT('',(8.255612045984,2.641581468674));
#584 = CARTESIAN_POINT('',(8.214633003842,2.040963554866));
#585 = CARTESIAN_POINT('',(8.174041279422,1.437839577994));
#586 = CARTESIAN_POINT('',(8.12478205045,0.70591184138));
#587 = CARTESIAN_POINT('',(8.116848935168,0.588035708202));
#588 = CARTESIAN_POINT('',(8.108916405068,0.470225991079));
#589 = CARTESIAN_POINT('',(8.100981727306,0.352500069389));
#590 = CARTESIAN_POINT('',(8.093042184052,0.234875397794));
#591 = CARTESIAN_POINT('',(8.085095072484,0.11736950625));
#592 = CARTESIAN_POINT('',(8.077137704794,-6.28307825089E-13));
#593 = ( GEOMETRIC_REPRESENTATION_CONTEXT(2) 
PARAMETRIC_REPRESENTATION_CONTEXT() REPRESENTATION_CONTEXT('2D SPACE',''
  ) );
#594 = ADVANCED_FACE('',(#595),#94,.F.);
#595 = FACE_BOUND('',#596,.T.);
#596 = EDGE_LOOP('',(#597));
#597 = ORIENTED_EDGE('',*,*,#79,.F.);
#598 = ADVANCED_FACE('',(#599),#66,.T.);
#599 = FACE_BOUND('',#600,.T.);
#600 = EDGE_LOOP('',(#601));
#601 = ORIENTED_EDGE('',*,*,#51,.T.);
#602 = ADVANCED_FACE('',(#603),#264,.T.);
#603 = FACE_BOUND('',#604,.T.);
#604 = EDGE_LOOP('',(#605,#634,#657,#679,#680,#702));
#605 = ORIENTED_EDGE('',*,*,#606,.T.);
#606 = EDGE_CURVE('',#607,#607,#609,.T.);
#607 = VERTEX_POINT('',#608);
#608 = CARTESIAN_POINT('',(10.,-2.449293598295E-15,162.5));
#609 = SURFACE_CURVE('',#610,(#615,#622),.PCURVE_S1.);
#610 = CIRCLE('',#611,10.);
#611 = AXIS2_PLACEMENT_3D('',#612,#613,#614);
#612 = CARTESIAN_POINT('',(0.,0.,162.5));
#613 = DIRECTION('',(0.,0.,1.));
#614 = DIRECTION('',(1.,0.,-0.));
#615 = PCURVE('',#264,#616);
#616 = DEFINITIONAL_REPRESENTATION('',(#617),#621);
#617 = LINE('',#618,#619);
#618 = CARTESIAN_POINT('',(0.,12.5));
#619 = VECTOR('',#620,1.);
#620 = DIRECTION('',(1.,0.));
#621 = ( GEOMETRIC_REPRESENTATION_CONTEXT(2) 
PARAMETRIC_REPRESENTATION_CONTEXT() REPRESENTATION_CONTEXT('2D SPACE',''
  ) );
#622 = PCURVE('',#623,#628);
#623 = PLANE('',#624);
#624 = AXIS2_PLACEMENT_3D('',#625,#626,#627);
#625 = CARTESIAN_POINT('',(0.,0.,162.5));
#626 = DIRECTION('',(0.,0.,1.));
#627 = DIRECTION('',(1.,0.,0.));
#628 = DEFINITIONAL_REPRESENTATION('',(#629),#633);
#629 = CIRCLE('',#630,10.);
#630 = AXIS2_PLACEMENT_2D('',#631,#632);
#631 = CARTESIAN_POINT('',(0.,0.));
#632 = DIRECTION('',(1.,0.));
#633 = ( GEOMETRIC_REPRESENTATION_CONTEXT(2) 
PARAMETRIC_REPRESENTATION_CONTEXT() REPRESENTATION_CONTEXT('2D SPACE',''
  ) );
#634 = ORIENTED_EDGE('',*,*,#635,.T.);
#635 = EDGE_CURVE('',#607,#636,#638,.T.);
#636 = VERTEX_POINT('',#637);
#637 = CARTESIAN_POINT('',(10.,-2.449293598295E-15,180.));
#638 = SEAM_CURVE('',#639,(#643,#650),.PCURVE_S1.);
#639 = LINE('',#640,#641);
#640 = CARTESIAN_POINT('',(10.,-2.449293598295E-15,150.));
#641 = VECTOR('',#642,1.);
#642 = DIRECTION('',(0.,0.,1.));
#643 = PCURVE('',#264,#644);
#644 = DEFINITIONAL_REPRESENTATION('',(#645),#649);
#645 = LINE('',#646,#647);
#646 = CARTESIAN_POINT('',(0.,-0.));
#647 = VECTOR('',#648,1.);
#648 = DIRECTION('',(0.,1.));
#649 = ( GEOMETRIC_REPRESENTATION_CONTEXT(2) 
PARAMETRIC_REPRESENTATION_CONTEXT() REPRESENTATION_CONTEXT('2D SPACE',''
  ) );
#650 = PCURVE('',#264,#651);
#651 = DEFINITIONAL_REPRESENTATION('',(#652),#656);
#652 = LINE('',#653,#654);
#653 = CARTESIAN_POINT('',(6.28318530718,-0.));
#654 = VECTOR('',#655,1.);
#655 = DIRECTION('',(0.,1.));
#656 = ( GEOMETRIC_REPRESENTATION_CONTEXT(2) 
PARAMETRIC_REPRESENTATION_CONTEXT() REPRESENTATION_CONTEXT('2D SPACE',''
  ) );
#657 = ORIENTED_EDGE('',*,*,#658,.F.);
#658 = EDGE_CURVE('',#109,#636,#659,.T.);
#659 = SURFACE_CURVE('',#660,(#665,#672),.PCURVE_S1.);
#660 = CIRCLE('',#661,10.);
#661 = AXIS2_PLACEMENT_3D('',#662,#663,#664);
#662 = CARTESIAN_POINT('',(0.,0.,180.));
#663 = DIRECTION('',(0.,0.,1.));
#664 = DIRECTION('',(1.,0.,0.));
#665 = PCURVE('',#264,#666);
#666 = DEFINITIONAL_REPRESENTATION('',(#667),#671);
#667 = LINE('',#668,#669);
#668 = CARTESIAN_POINT('',(0.,30.));
#669 = VECTOR('',#670,1.);
#670 = DIRECTION('',(1.,0.));
#671 = ( GEOMETRIC_REPRESENTATION_CONTEXT(2) 
PARAMETRIC_REPRESENTATION_CONTEXT() REPRESENTATION_CONTEXT('2D SPACE',''
  ) );
#672 = PCURVE('',#373,#673);
#673 = DEFINITIONAL_REPRESENTATION('',(#674),#678);
#674 = CIRCLE('',#675,10.);
#675 = AXIS2_PLACEMENT_2D('',#676,#677);
#676 = CARTESIAN_POINT('',(0.,0.));
#677 = DIRECTION('',(1.,0.));
#678 = ( GEOMETRIC_REPRESENTATION_CONTEXT(2) 
PARAMETRIC_REPRESENTATION_CONTEXT() REPRESENTATION_CONTEXT('2D SPACE',''
  ) );
#679 = ORIENTED_EDGE('',*,*,#108,.T.);
#680 = ORIENTED_EDGE('',*,*,#681,.F.);
#681 = EDGE_CURVE('',#636,#111,#682,.T.);
#682 = SURFACE_CURVE('',#683,(#688,#695),.PCURVE_S1.);
#683 = CIRCLE('',#684,10.);
#684 = AXIS2_PLACEMENT_3D('',#685,#686,#687);
#685 = CARTESIAN_POINT('',(0.,0.,180.));
#686 = DIRECTION('',(0.,0.,1.));
#687 = DIRECTION('',(1.,0.,0.));
#688 = PCURVE('',#264,#689);
#689 = DEFINITIONAL_REPRESENTATION('',(#690),#694);
#690 = LINE('',#691,#692);
#691 = CARTESIAN_POINT('',(0.,30.));
#692 = VECTOR('',#693,1.);
#693 = DIRECTION('',(1.,0.));
#694 = ( GEOMETRIC_REPRESENTATION_CONTEXT(2) 
PARAMETRIC_REPRESENTATION_CONTEXT() REPRESENTATION_CONTEXT('2D SPACE',''
  ) );
#695 = PCURVE('',#373,#696);
#696 = DEFINITIONAL_REPRESENTATION('',(#697),#701);
#697 = CIRCLE('',#698,10.);
#698 = AXIS2_PLACEMENT_2D('',#699,#700);
#699 = CARTESIAN_POINT('',(0.,0.));
#700 = DIRECTION('',(1.,0.));
#701 = ( GEOMETRIC_REPRESENTATION_CONTEXT(2) 
PARAMETRIC_REPRESENTATION_CONTEXT() REPRESENTATION_CONTEXT('2D SPACE',''
  ) );
#702 = ORIENTED_EDGE('',*,*,#635,.F.);
#703 = ADVANCED_FACE('',(#704),#373,.T.);
#704 = FACE_BOUND('',#705,.T.);
#705 = EDGE_LOOP('',(#706,#707,#708));
#706 = ORIENTED_EDGE('',*,*,#658,.T.);
#707 = ORIENTED_EDGE('',*,*,#681,.T.);
#708 = ORIENTED_EDGE('',*,*,#345,.F.);
#709 = ADVANCED_FACE('',(#710),#426,.F.);
#710 = FACE_BOUND('',#711,.F.);
#711 = EDGE_LOOP('',(#712,#713));
#712 = ORIENTED_EDGE('',*,*,#387,.F.);
#713 = ORIENTED_EDGE('',*,*,#714,.F.);
#714 = EDGE_CURVE('',#390,#388,#715,.T.);
#715 = SURFACE_CURVE('',#716,(#721,#732),.PCURVE_S1.);
#716 = CIRCLE('',#717,12.5);
#717 = AXIS2_PLACEMENT_3D('',#718,#719,#720);
#718 = CARTESIAN_POINT('',(0.,0.,192.5));
#719 = DIRECTION('',(0.,0.,-1.));
#720 = DIRECTION('',(-0.221308532562,0.975203841981,0.));
#721 = PCURVE('',#426,#722);
#722 = DEFINITIONAL_REPRESENTATION('',(#723),#731);
#723 = ( BOUNDED_CURVE() B_SPLINE_CURVE(2,(#724,#725,#726,#727,#728,#729
,#730),.UNSPECIFIED.,.T.,.F.) B_SPLINE_CURVE_WITH_KNOTS((1,2,2,2,2,1),(
    -2.094395102393,0.,2.094395102393,4.188790204786,6.28318530718,
8.377580409573),.UNSPECIFIED.) CURVE() GEOMETRIC_REPRESENTATION_ITEM() 
RATIONAL_B_SPLINE_CURVE((1.,0.5,1.,0.5,1.,0.5,1.)) REPRESENTATION_ITEM(
  '') );
#724 = CARTESIAN_POINT('',(-2.766356657029,12.190048024766));
#725 = CARTESIAN_POINT('',(18.34742586857,16.981518306598));
#726 = CARTESIAN_POINT('',(11.940069591315,-3.699288871467));
#727 = CARTESIAN_POINT('',(5.532713314059,-24.38009604953));
#728 = CARTESIAN_POINT('',(-9.173712934285,-8.490759153299));
#729 = CARTESIAN_POINT('',(-23.88013918262,7.398577742935));
#730 = CARTESIAN_POINT('',(-2.766356657029,12.190048024766));
#731 = ( GEOMETRIC_REPRESENTATION_CONTEXT(2) 
PARAMETRIC_REPRESENTATION_CONTEXT() REPRESENTATION_CONTEXT('2D SPACE',''
  ) );
#732 = PCURVE('',#476,#733);
#733 = DEFINITIONAL_REPRESENTATION('',(#734),#738);
#734 = LINE('',#735,#736);
#735 = CARTESIAN_POINT('',(8.077137704794,0.));
#736 = VECTOR('',#737,1.);
#737 = DIRECTION('',(-1.,-0.));
#738 = ( GEOMETRIC_REPRESENTATION_CONTEXT(2) 
PARAMETRIC_REPRESENTATION_CONTEXT() REPRESENTATION_CONTEXT('2D SPACE',''
  ) );
#739 = ADVANCED_FACE('',(#740),#476,.T.);
#740 = FACE_BOUND('',#741,.T.);
#741 = EDGE_LOOP('',(#742,#768,#769,#770));
#742 = ORIENTED_EDGE('',*,*,#743,.T.);
#743 = EDGE_CURVE('',#500,#439,#744,.T.);
#744 = SURFACE_CURVE('',#745,(#750,#757),.PCURVE_S1.);
#745 = CIRCLE('',#746,12.5);
#746 = AXIS2_PLACEMENT_3D('',#747,#748,#749);
#747 = CARTESIAN_POINT('',(0.,0.,197.5));
#748 = DIRECTION('',(0.,0.,-1.));
#749 = DIRECTION('',(-0.550174444465,0.835049747415,0.));
#750 = PCURVE('',#476,#751);
#751 = DEFINITIONAL_REPRESENTATION('',(#752),#756);
#752 = LINE('',#753,#754);
#753 = CARTESIAN_POINT('',(8.436554760551,5.));
#754 = VECTOR('',#755,1.);
#755 = DIRECTION('',(-1.,-0.));
#756 = ( GEOMETRIC_REPRESENTATION_CONTEXT(2) 
PARAMETRIC_REPRESENTATION_CONTEXT() REPRESENTATION_CONTEXT('2D SPACE',''
  ) );
#757 = PCURVE('',#529,#758);
#758 = DEFINITIONAL_REPRESENTATION('',(#759),#767);
#759 = ( BOUNDED_CURVE() B_SPLINE_CURVE(2,(#760,#761,#762,#763,#764,#765
,#766),.UNSPECIFIED.,.T.,.F.) B_SPLINE_CURVE_WITH_KNOTS((1,2,2,2,2,1),(
    -2.094395102393,0.,2.094395102393,4.188790204786,6.28318530718,
8.377580409573),.UNSPECIFIED.) CURVE() GEOMETRIC_REPRESENTATION_ITEM() 
RATIONAL_B_SPLINE_CURVE((1.,0.5,1.,0.5,1.,0.5,1.)) REPRESENTATION_ITEM(
  '') );
#760 = CARTESIAN_POINT('',(-6.877180555812,10.438121842686));
#761 = CARTESIAN_POINT('',(11.202176811315,22.349747978177));
#762 = CARTESIAN_POINT('',(12.478268961469,0.736752146403));
#763 = CARTESIAN_POINT('',(13.754361111624,-20.87624368537));
#764 = CARTESIAN_POINT('',(-5.601088405657,-11.17487398908));
#765 = CARTESIAN_POINT('',(-24.95653792293,-1.473504292805));
#766 = CARTESIAN_POINT('',(-6.877180555812,10.438121842686));
#767 = ( GEOMETRIC_REPRESENTATION_CONTEXT(2) 
PARAMETRIC_REPRESENTATION_CONTEXT() REPRESENTATION_CONTEXT('2D SPACE',''
  ) );
#768 = ORIENTED_EDGE('',*,*,#438,.F.);
#769 = ORIENTED_EDGE('',*,*,#714,.F.);
#770 = ORIENTED_EDGE('',*,*,#541,.F.);
#771 = ADVANCED_FACE('',(#772),#529,.T.);
#772 = FACE_BOUND('',#773,.T.);
#773 = EDGE_LOOP('',(#774,#775));
#774 = ORIENTED_EDGE('',*,*,#499,.F.);
#775 = ORIENTED_EDGE('',*,*,#743,.F.);
#776 = ADVANCED_FACE('',(#777,#808),#623,.T.);
#777 = FACE_BOUND('',#778,.T.);
#778 = EDGE_LOOP('',(#779));
#779 = ORIENTED_EDGE('',*,*,#780,.T.);
#780 = EDGE_CURVE('',#781,#781,#783,.T.);
#781 = VERTEX_POINT('',#782);
#782 = CARTESIAN_POINT('',(22.5,-5.510910596163E-15,162.5));
#783 = SURFACE_CURVE('',#784,(#789,#796),.PCURVE_S1.);
#784 = CIRCLE('',#785,22.5);
#785 = AXIS2_PLACEMENT_3D('',#786,#787,#788);
#786 = CARTESIAN_POINT('',(0.,0.,162.5));
#787 = DIRECTION('',(0.,0.,1.));
#788 = DIRECTION('',(1.,0.,0.));
#789 = PCURVE('',#623,#790);
#790 = DEFINITIONAL_REPRESENTATION('',(#791),#795);
#791 = CIRCLE('',#792,22.5);
#792 = AXIS2_PLACEMENT_2D('',#793,#794);
#793 = CARTESIAN_POINT('',(0.,0.));
#794 = DIRECTION('',(1.,0.));
#795 = ( GEOMETRIC_REPRESENTATION_CONTEXT(2) 
PARAMETRIC_REPRESENTATION_CONTEXT() REPRESENTATION_CONTEXT('2D SPACE',''
  ) );
#796 = PCURVE('',#797,#802);
#797 = CYLINDRICAL_SURFACE('',#798,22.5);
#798 = AXIS2_PLACEMENT_3D('',#799,#800,#801);
#799 = CARTESIAN_POINT('',(0.,0.,157.5));
#800 = DIRECTION('',(0.,0.,1.));
#801 = DIRECTION('',(1.,0.,0.));
#802 = DEFINITIONAL_REPRESENTATION('',(#803),#807);
#803 = LINE('',#804,#805);
#804 = CARTESIAN_POINT('',(0.,5.));
#805 = VECTOR('',#806,1.);
#806 = DIRECTION('',(1.,0.));
#807 = ( GEOMETRIC_REPRESENTATION_CONTEXT(2) 
PARAMETRIC_REPRESENTATION_CONTEXT() REPRESENTATION_CONTEXT('2D SPACE',''
  ) );
#808 = FACE_BOUND('',#809,.T.);
#809 = EDGE_LOOP('',(#810));
#810 = ORIENTED_EDGE('',*,*,#606,.F.);
#811 = ADVANCED_FACE('',(#812),#797,.T.);
#812 = FACE_BOUND('',#813,.T.);
#813 = EDGE_LOOP('',(#814,#815,#838,#865));
#814 = ORIENTED_EDGE('',*,*,#780,.F.);
#815 = ORIENTED_EDGE('',*,*,#816,.F.);
#816 = EDGE_CURVE('',#817,#781,#819,.T.);
#817 = VERTEX_POINT('',#818);
#818 = CARTESIAN_POINT('',(22.5,-5.510910596163E-15,157.5));
#819 = SEAM_CURVE('',#820,(#824,#831),.PCURVE_S1.);
#820 = LINE('',#821,#822);
#821 = CARTESIAN_POINT('',(22.5,-5.510910596163E-15,157.5));
#822 = VECTOR('',#823,1.);
#823 = DIRECTION('',(0.,0.,1.));
#824 = PCURVE('',#797,#825);
#825 = DEFINITIONAL_REPRESENTATION('',(#826),#830);
#826 = LINE('',#827,#828);
#827 = CARTESIAN_POINT('',(6.28318530718,-0.));
#828 = VECTOR('',#829,1.);
#829 = DIRECTION('',(0.,1.));
#830 = ( GEOMETRIC_REPRESENTATION_CONTEXT(2) 
PARAMETRIC_REPRESENTATION_CONTEXT() REPRESENTATION_CONTEXT('2D SPACE',''
  ) );
#831 = PCURVE('',#797,#832);
#832 = DEFINITIONAL_REPRESENTATION('',(#833),#837);
#833 = LINE('',#834,#835);
#834 = CARTESIAN_POINT('',(0.,-0.));
#835 = VECTOR('',#836,1.);
#836 = DIRECTION('',(0.,1.));
#837 = ( GEOMETRIC_REPRESENTATION_CONTEXT(2) 
PARAMETRIC_REPRESENTATION_CONTEXT() REPRESENTATION_CONTEXT('2D SPACE',''
  ) );
#838 = ORIENTED_EDGE('',*,*,#839,.T.);
#839 = EDGE_CURVE('',#817,#817,#840,.T.);
#840 = SURFACE_CURVE('',#841,(#846,#853),.PCURVE_S1.);
#841 = CIRCLE('',#842,22.5);
#842 = AXIS2_PLACEMENT_3D('',#843,#844,#845);
#843 = CARTESIAN_POINT('',(0.,0.,157.5));
#844 = DIRECTION('',(0.,0.,1.));
#845 = DIRECTION('',(1.,0.,0.));
#846 = PCURVE('',#797,#847);
#847 = DEFINITIONAL_REPRESENTATION('',(#848),#852);
#848 = LINE('',#849,#850);
#849 = CARTESIAN_POINT('',(0.,0.));
#850 = VECTOR('',#851,1.);
#851 = DIRECTION('',(1.,0.));
#852 = ( GEOMETRIC_REPRESENTATION_CONTEXT(2) 
PARAMETRIC_REPRESENTATION_CONTEXT() REPRESENTATION_CONTEXT('2D SPACE',''
  ) );
#853 = PCURVE('',#854,#859);
#854 = PLANE('',#855);
#855 = AXIS2_PLACEMENT_3D('',#856,#857,#858);
#856 = CARTESIAN_POINT('',(0.,0.,157.5));
#857 = DIRECTION('',(0.,0.,1.));
#858 = DIRECTION('',(1.,0.,0.));
#859 = DEFINITIONAL_REPRESENTATION('',(#860),#864);
#860 = CIRCLE('',#861,22.5);
#861 = AXIS2_PLACEMENT_2D('',#862,#863);
#862 = CARTESIAN_POINT('',(0.,0.));
#863 = DIRECTION('',(1.,0.));
#864 = ( GEOMETRIC_REPRESENTATION_CONTEXT(2) 
PARAMETRIC_REPRESENTATION_CONTEXT() REPRESENTATION_CONTEXT('2D SPACE',''
  ) );
#865 = ORIENTED_EDGE('',*,*,#816,.T.);
#866 = ADVANCED_FACE('',(#867,#870),#854,.F.);
#867 = FACE_BOUND('',#868,.F.);
#868 = EDGE_LOOP('',(#869));
#869 = ORIENTED_EDGE('',*,*,#839,.T.);
#870 = FACE_BOUND('',#871,.F.);
#871 = EDGE_LOOP('',(#872));
#872 = ORIENTED_EDGE('',*,*,#873,.F.);
#873 = EDGE_CURVE('',#874,#874,#876,.T.);
#874 = VERTEX_POINT('',#875);
#875 = CARTESIAN_POINT('',(10.,-2.449293598295E-15,157.5));
#876 = SURFACE_CURVE('',#877,(#882,#889),.PCURVE_S1.);
#877 = CIRCLE('',#878,10.);
#878 = AXIS2_PLACEMENT_3D('',#879,#880,#881);
#879 = CARTESIAN_POINT('',(0.,0.,157.5));
#880 = DIRECTION('',(0.,0.,1.));
#881 = DIRECTION('',(1.,0.,-0.));
#882 = PCURVE('',#854,#883);
#883 = DEFINITIONAL_REPRESENTATION('',(#884),#888);
#884 = CIRCLE('',#885,10.);
#885 = AXIS2_PLACEMENT_2D('',#886,#887);
#886 = CARTESIAN_POINT('',(0.,0.));
#887 = DIRECTION('',(1.,0.));
#888 = ( GEOMETRIC_REPRESENTATION_CONTEXT(2) 
PARAMETRIC_REPRESENTATION_CONTEXT() REPRESENTATION_CONTEXT('2D SPACE',''
  ) );
#889 = PCURVE('',#890,#895);
#890 = CYLINDRICAL_SURFACE('',#891,10.);
#891 = AXIS2_PLACEMENT_3D('',#892,#893,#894);
#892 = CARTESIAN_POINT('',(0.,0.,150.));
#893 = DIRECTION('',(0.,0.,1.));
#894 = DIRECTION('',(1.,0.,0.));
#895 = DEFINITIONAL_REPRESENTATION('',(#896),#900);
#896 = LINE('',#897,#898);
#897 = CARTESIAN_POINT('',(0.,7.5));
#898 = VECTOR('',#899,1.);
#899 = DIRECTION('',(1.,0.));
#900 = ( GEOMETRIC_REPRESENTATION_CONTEXT(2) 
PARAMETRIC_REPRESENTATION_CONTEXT() REPRESENTATION_CONTEXT('2D SPACE',''
  ) );
#901 = ADVANCED_FACE('',(#902),#890,.T.);
#902 = FACE_BOUND('',#903,.T.);
#903 = EDGE_LOOP('',(#904,#905,#928,#955));
#904 = ORIENTED_EDGE('',*,*,#873,.F.);
#905 = ORIENTED_EDGE('',*,*,#906,.F.);
#906 = EDGE_CURVE('',#907,#874,#909,.T.);
#907 = VERTEX_POINT('',#908);
#908 = CARTESIAN_POINT('',(10.,-2.449293598295E-15,155.));
#909 = SEAM_CURVE('',#910,(#914,#921),.PCURVE_S1.);
#910 = LINE('',#911,#912);
#911 = CARTESIAN_POINT('',(10.,-2.449293598295E-15,150.));
#912 = VECTOR('',#913,1.);
#913 = DIRECTION('',(0.,0.,1.));
#914 = PCURVE('',#890,#915);
#915 = DEFINITIONAL_REPRESENTATION('',(#916),#920);
#916 = LINE('',#917,#918);
#917 = CARTESIAN_POINT('',(6.28318530718,-0.));
#918 = VECTOR('',#919,1.);
#919 = DIRECTION('',(0.,1.));
#920 = ( GEOMETRIC_REPRESENTATION_CONTEXT(2) 
PARAMETRIC_REPRESENTATION_CONTEXT() REPRESENTATION_CONTEXT('2D SPACE',''
  ) );
#921 = PCURVE('',#890,#922);
#922 = DEFINITIONAL_REPRESENTATION('',(#923),#927);
#923 = LINE('',#924,#925);
#924 = CARTESIAN_POINT('',(0.,-0.));
#925 = VECTOR('',#926,1.);
#926 = DIRECTION('',(0.,1.));
#927 = ( GEOMETRIC_REPRESENTATION_CONTEXT(2) 
PARAMETRIC_REPRESENTATION_CONTEXT() REPRESENTATION_CONTEXT('2D SPACE',''
  ) );
#928 = ORIENTED_EDGE('',*,*,#929,.T.);
#929 = EDGE_CURVE('',#907,#907,#930,.T.);
#930 = SURFACE_CURVE('',#931,(#936,#943),.PCURVE_S1.);
#931 = CIRCLE('',#932,10.);
#932 = AXIS2_PLACEMENT_3D('',#933,#934,#935);
#933 = CARTESIAN_POINT('',(0.,0.,155.));
#934 = DIRECTION('',(0.,0.,1.));
#935 = DIRECTION('',(1.,0.,-0.));
#936 = PCURVE('',#890,#937);
#937 = DEFINITIONAL_REPRESENTATION('',(#938),#942);
#938 = LINE('',#939,#940);
#939 = CARTESIAN_POINT('',(0.,5.));
#940 = VECTOR('',#941,1.);
#941 = DIRECTION('',(1.,0.));
#942 = ( GEOMETRIC_REPRESENTATION_CONTEXT(2) 
PARAMETRIC_REPRESENTATION_CONTEXT() REPRESENTATION_CONTEXT('2D SPACE',''
  ) );
#943 = PCURVE('',#944,#949);
#944 = PLANE('',#945);
#945 = AXIS2_PLACEMENT_3D('',#946,#947,#948);
#946 = CARTESIAN_POINT('',(0.,0.,155.));
#947 = DIRECTION('',(0.,0.,1.));
#948 = DIRECTION('',(1.,0.,0.));
#949 = DEFINITIONAL_REPRESENTATION('',(#950),#954);
#950 = CIRCLE('',#951,10.);
#951 = AXIS2_PLACEMENT_2D('',#952,#953);
#952 = CARTESIAN_POINT('',(0.,0.));
#953 = DIRECTION('',(1.,0.));
#954 = ( GEOMETRIC_REPRESENTATION_CONTEXT(2) 
PARAMETRIC_REPRESENTATION_CONTEXT() REPRESENTATION_CONTEXT('2D SPACE',''
  ) );
#955 = ORIENTED_EDGE('',*,*,#906,.T.);
#956 = ADVANCED_FACE('',(#957,#988),#944,.T.);
#957 = FACE_BOUND('',#958,.T.);
#958 = EDGE_LOOP('',(#959));
#959 = ORIENTED_EDGE('',*,*,#960,.T.);
#960 = EDGE_CURVE('',#961,#961,#963,.T.);
#961 = VERTEX_POINT('',#962);
#962 = CARTESIAN_POINT('',(20.,-4.898587196589E-15,155.));
#963 = SURFACE_CURVE('',#964,(#969,#976),.PCURVE_S1.);
#964 = CIRCLE('',#965,20.);
#965 = AXIS2_PLACEMENT_3D('',#966,#967,#968);
#966 = CARTESIAN_POINT('',(0.,0.,155.));
#967 = DIRECTION('',(0.,0.,1.));
#968 = DIRECTION('',(1.,0.,0.));
#969 = PCURVE('',#944,#970);
#970 = DEFINITIONAL_REPRESENTATION('',(#971),#975);
#971 = CIRCLE('',#972,20.);
#972 = AXIS2_PLACEMENT_2D('',#973,#974);
#973 = CARTESIAN_POINT('',(0.,0.));
#974 = DIRECTION('',(1.,0.));
#975 = ( GEOMETRIC_REPRESENTATION_CONTEXT(2) 
PARAMETRIC_REPRESENTATION_CONTEXT() REPRESENTATION_CONTEXT('2D SPACE',''
  ) );
#976 = PCURVE('',#977,#982);
#977 = CYLINDRICAL_SURFACE('',#978,20.);
#978 = AXIS2_PLACEMENT_3D('',#979,#980,#981);
#979 = CARTESIAN_POINT('',(0.,0.,145.));
#980 = DIRECTION('',(0.,0.,1.));
#981 = DIRECTION('',(1.,0.,0.));
#982 = DEFINITIONAL_REPRESENTATION('',(#983),#987);
#983 = LINE('',#984,#985);
#984 = CARTESIAN_POINT('',(0.,10.));
#985 = VECTOR('',#986,1.);
#986 = DIRECTION('',(1.,0.));
#987 = ( GEOMETRIC_REPRESENTATION_CONTEXT(2) 
PARAMETRIC_REPRESENTATION_CONTEXT() REPRESENTATION_CONTEXT('2D SPACE',''
  ) );
#988 = FACE_BOUND('',#989,.T.);
#989 = EDGE_LOOP('',(#990));
#990 = ORIENTED_EDGE('',*,*,#929,.F.);
#991 = ADVANCED_FACE('',(#992),#977,.T.);
#992 = FACE_BOUND('',#993,.T.);
#993 = EDGE_LOOP('',(#994,#1017,#1018,#1019));
#994 = ORIENTED_EDGE('',*,*,#995,.T.);
#995 = EDGE_CURVE('',#996,#961,#998,.T.);
#996 = VERTEX_POINT('',#997);
#997 = CARTESIAN_POINT('',(20.,-4.898587196589E-15,150.));
#998 = SEAM_CURVE('',#999,(#1003,#1010),.PCURVE_S1.);
#999 = LINE('',#1000,#1001);
#1000 = CARTESIAN_POINT('',(20.,-4.898587196589E-15,145.));
#1001 = VECTOR('',#1002,1.);
#1002 = DIRECTION('',(0.,0.,1.));
#1003 = PCURVE('',#977,#1004);
#1004 = DEFINITIONAL_REPRESENTATION('',(#1005),#1009);
#1005 = LINE('',#1006,#1007);
#1006 = CARTESIAN_POINT('',(6.28318530718,-0.));
#1007 = VECTOR('',#1008,1.);
#1008 = DIRECTION('',(0.,1.));
#1009 = ( GEOMETRIC_REPRESENTATION_CONTEXT(2) 
PARAMETRIC_REPRESENTATION_CONTEXT() REPRESENTATION_CONTEXT('2D SPACE',''
  ) );
#1010 = PCURVE('',#977,#1011);
#1011 = DEFINITIONAL_REPRESENTATION('',(#1012),#1016);
#1012 = LINE('',#1013,#1014);
#1013 = CARTESIAN_POINT('',(0.,-0.));
#1014 = VECTOR('',#1015,1.);
#1015 = DIRECTION('',(0.,1.));
#1016 = ( GEOMETRIC_REPRESENTATION_CONTEXT(2) 
PARAMETRIC_REPRESENTATION_CONTEXT() REPRESENTATION_CONTEXT('2D SPACE',''
  ) );
#1017 = ORIENTED_EDGE('',*,*,#960,.F.);
#1018 = ORIENTED_EDGE('',*,*,#995,.F.);
#1019 = ORIENTED_EDGE('',*,*,#1020,.T.);
#1020 = EDGE_CURVE('',#996,#996,#1021,.T.);
#1021 = SURFACE_CURVE('',#1022,(#1027,#1034),.PCURVE_S1.);
#1022 = CIRCLE('',#1023,20.);
#1023 = AXIS2_PLACEMENT_3D('',#1024,#1025,#1026);
#1024 = CARTESIAN_POINT('',(0.,0.,150.));
#1025 = DIRECTION('',(0.,0.,1.));
#1026 = DIRECTION('',(1.,0.,-0.));
#1027 = PCURVE('',#977,#1028);
#1028 = DEFINITIONAL_REPRESENTATION('',(#1029),#1033);
#1029 = LINE('',#1030,#1031);
#1030 = CARTESIAN_POINT('',(0.,5.));
#1031 = VECTOR('',#1032,1.);
#1032 = DIRECTION('',(1.,0.));
#1033 = ( GEOMETRIC_REPRESENTATION_CONTEXT(2) 
PARAMETRIC_REPRESENTATION_CONTEXT() REPRESENTATION_CONTEXT('2D SPACE',''
  ) );
#1034 = PCURVE('',#1035,#1040);
#1035 = PLANE('',#1036);
#1036 = AXIS2_PLACEMENT_3D('',#1037,#1038,#1039);
#1037 = CARTESIAN_POINT('',(0.,0.,150.));
#1038 = DIRECTION('',(0.,0.,1.));
#1039 = DIRECTION('',(1.,0.,0.));
#1040 = DEFINITIONAL_REPRESENTATION('',(#1041),#1045);
#1041 = CIRCLE('',#1042,20.);
#1042 = AXIS2_PLACEMENT_2D('',#1043,#1044);
#1043 = CARTESIAN_POINT('',(0.,0.));
#1044 = DIRECTION('',(1.,0.));
#1045 = ( GEOMETRIC_REPRESENTATION_CONTEXT(2) 
PARAMETRIC_REPRESENTATION_CONTEXT() REPRESENTATION_CONTEXT('2D SPACE',''
  ) );
#1046 = ADVANCED_FACE('',(#1047,#1078),#1035,.T.);
#1047 = FACE_BOUND('',#1048,.T.);
#1048 = EDGE_LOOP('',(#1049));
#1049 = ORIENTED_EDGE('',*,*,#1050,.T.);
#1050 = EDGE_CURVE('',#1051,#1051,#1053,.T.);
#1051 = VERTEX_POINT('',#1052);
#1052 = CARTESIAN_POINT('',(35.,-8.572527594031E-15,150.));
#1053 = SURFACE_CURVE('',#1054,(#1059,#1066),.PCURVE_S1.);
#1054 = CIRCLE('',#1055,35.);
#1055 = AXIS2_PLACEMENT_3D('',#1056,#1057,#1058);
#1056 = CARTESIAN_POINT('',(0.,0.,150.));
#1057 = DIRECTION('',(0.,0.,1.));
#1058 = DIRECTION('',(1.,0.,0.));
#1059 = PCURVE('',#1035,#1060);
#1060 = DEFINITIONAL_REPRESENTATION('',(#1061),#1065);
#1061 = CIRCLE('',#1062,35.);
#1062 = AXIS2_PLACEMENT_2D('',#1063,#1064);
#1063 = CARTESIAN_POINT('',(0.,0.));
#1064 = DIRECTION('',(1.,0.));
#1065 = ( GEOMETRIC_REPRESENTATION_CONTEXT(2) 
PARAMETRIC_REPRESENTATION_CONTEXT() REPRESENTATION_CONTEXT('2D SPACE',''
  ) );
#1066 = PCURVE('',#1067,#1072);
#1067 = CYLINDRICAL_SURFACE('',#1068,35.);
#1068 = AXIS2_PLACEMENT_3D('',#1069,#1070,#1071);
#1069 = CARTESIAN_POINT('',(0.,0.,0.));
#1070 = DIRECTION('',(0.,0.,1.));
#1071 = DIRECTION('',(1.,0.,0.));
#1072 = DEFINITIONAL_REPRESENTATION('',(#1073),#1077);
#1073 = LINE('',#1074,#1075);
#1074 = CARTESIAN_POINT('',(0.,150.));
#1075 = VECTOR('',#1076,1.);
#1076 = DIRECTION('',(1.,0.));
#1077 = ( GEOMETRIC_REPRESENTATION_CONTEXT(2) 
PARAMETRIC_REPRESENTATION_CONTEXT() REPRESENTATION_CONTEXT('2D SPACE',''
  ) );
#1078 = FACE_BOUND('',#1079,.T.);
#1079 = EDGE_LOOP('',(#1080));
#1080 = ORIENTED_EDGE('',*,*,#1020,.F.);
#1081 = ADVANCED_FACE('',(#1082),#1067,.T.);
#1082 = FACE_BOUND('',#1083,.T.);
#1083 = EDGE_LOOP('',(#1084,#1085,#1108,#1135));
#1084 = ORIENTED_EDGE('',*,*,#1050,.F.);
#1085 = ORIENTED_EDGE('',*,*,#1086,.F.);
#1086 = EDGE_CURVE('',#1087,#1051,#1089,.T.);
#1087 = VERTEX_POINT('',#1088);
#1088 = CARTESIAN_POINT('',(35.,-8.572527594031E-15,0.));
#1089 = SEAM_CURVE('',#1090,(#1094,#1101),.PCURVE_S1.);
#1090 = LINE('',#1091,#1092);
#1091 = CARTESIAN_POINT('',(35.,-8.572527594031E-15,0.));
#1092 = VECTOR('',#1093,1.);
#1093 = DIRECTION('',(0.,0.,1.));
#1094 = PCURVE('',#1067,#1095);
#1095 = DEFINITIONAL_REPRESENTATION('',(#1096),#1100);
#1096 = LINE('',#1097,#1098);
#1097 = CARTESIAN_POINT('',(6.28318530718,-0.));
#1098 = VECTOR('',#1099,1.);
#1099 = DIRECTION('',(0.,1.));
#1100 = ( GEOMETRIC_REPRESENTATION_CONTEXT(2) 
PARAMETRIC_REPRESENTATION_CONTEXT() REPRESENTATION_CONTEXT('2D SPACE',''
  ) );
#1101 = PCURVE('',#1067,#1102);
#1102 = DEFINITIONAL_REPRESENTATION('',(#1103),#1107);
#1103 = LINE('',#1104,#1105);
#1104 = CARTESIAN_POINT('',(0.,-0.));
#1105 = VECTOR('',#1106,1.);
#1106 = DIRECTION('',(0.,1.));
#1107 = ( GEOMETRIC_REPRESENTATION_CONTEXT(2) 
PARAMETRIC_REPRESENTATION_CONTEXT() REPRESENTATION_CONTEXT('2D SPACE',''
  ) );
#1108 = ORIENTED_EDGE('',*,*,#1109,.T.);
#1109 = EDGE_CURVE('',#1087,#1087,#1110,.T.);
#1110 = SURFACE_CURVE('',#1111,(#1116,#1123),.PCURVE_S1.);
#1111 = CIRCLE('',#1112,35.);
#1112 = AXIS2_PLACEMENT_3D('',#1113,#1114,#1115);
#1113 = CARTESIAN_POINT('',(0.,0.,0.));
#1114 = DIRECTION('',(0.,0.,1.));
#1115 = DIRECTION('',(1.,0.,0.));
#1116 = PCURVE('',#1067,#1117);
#1117 = DEFINITIONAL_REPRESENTATION('',(#1118),#1122);
#1118 = LINE('',#1119,#1120);
#1119 = CARTESIAN_POINT('',(0.,0.));
#1120 = VECTOR('',#1121,1.);
#1121 = DIRECTION('',(1.,0.));
#1122 = ( GEOMETRIC_REPRESENTATION_CONTEXT(2) 
PARAMETRIC_REPRESENTATION_CONTEXT() REPRESENTATION_CONTEXT('2D SPACE',''
  ) );
#1123 = PCURVE('',#1124,#1129);
#1124 = PLANE('',#1125);
#1125 = AXIS2_PLACEMENT_3D('',#1126,#1127,#1128);
#1126 = CARTESIAN_POINT('',(0.,0.,0.));
#1127 = DIRECTION('',(0.,0.,1.));
#1128 = DIRECTION('',(1.,0.,0.));
#1129 = DEFINITIONAL_REPRESENTATION('',(#1130),#1134);
#1130 = CIRCLE('',#1131,35.);
#1131 = AXIS2_PLACEMENT_2D('',#1132,#1133);
#1132 = CARTESIAN_POINT('',(0.,0.));
#1133 = DIRECTION('',(1.,0.));
#1134 = ( GEOMETRIC_REPRESENTATION_CONTEXT(2) 
PARAMETRIC_REPRESENTATION_CONTEXT() REPRESENTATION_CONTEXT('2D SPACE',''
  ) );
#1135 = ORIENTED_EDGE('',*,*,#1086,.T.);
#1136 = ADVANCED_FACE('',(#1137),#1124,.F.);
#1137 = FACE_BOUND('',#1138,.T.);
#1138 = EDGE_LOOP('',(#1139));
#1139 = ORIENTED_EDGE('',*,*,#1109,.F.);
#1140 = ( GEOMETRIC_REPRESENTATION_CONTEXT(3) 
GLOBAL_UNCERTAINTY_ASSIGNED_CONTEXT((#1144)) 
GLOBAL_UNIT_ASSIGNED_CONTEXT((#1141,#1142,#1143)) REPRESENTATION_CONTEXT
('Context #1','3D Context with UNIT and UNCERTAINTY') );
#1141 = ( LENGTH_UNIT() NAMED_UNIT(*) SI_UNIT(.MILLI.,.METRE.) );
#1142 = ( NAMED_UNIT(*) PLANE_ANGLE_UNIT() SI_UNIT($,.RADIAN.) );
#1143 = ( NAMED_UNIT(*) SI_UNIT($,.STERADIAN.) SOLID_ANGLE_UNIT() );
#1144 = UNCERTAINTY_MEASURE_WITH_UNIT(LENGTH_MEASURE(1.E-07),#1141,
  'distance_accuracy_value','confusion accuracy');
#1145 = PRODUCT_RELATED_PRODUCT_CATEGORY('part',$,(#7));
ENDSEC;
END-ISO-10303-21;
